M48
;GenerationSoftware,Autodesk,EAGLE,9.5.2*%
;CreationDate,2020-01-31T15:06:33Z*%
FMAT,2
ICI,OFF
METRIC,TZ,000.000
T11C0.350
T10C0.700
T9C0.711
T8C0.800
T7C0.900
T6C1.016
T5C1.320
T4C1.524
T3C1.700
T2C1.850
T1C3.200
%
G90
M71
T1
X78760Y23740
X17770Y81220
X17770Y2760
T2
X10880Y75150
X10880Y80150
X3870Y80150
X3870Y75150
X3900Y8920
X3900Y3920
X10910Y3920
X10910Y8920
T3
X6540Y36912
X6540Y14408
X6560Y69562
X6560Y47058
T4
X47669Y28695
X47669Y35425
X16668Y21964
X16668Y28695
X16668Y35425
X16668Y42156
X47669Y42156
X47669Y21964
T5
X40210Y75680
X37510Y75680
X34810Y75680
T6
X44060Y7100
X16440Y64310
X36440Y10580
X44060Y10580
X27460Y3820
X27460Y11440
X23290Y11440
X23290Y3820
X36440Y7100
X60590Y13670
X63130Y13670
X16440Y59310
X69170Y13670
X71710Y13670
X74550Y78930
X45840Y69510
X45840Y54110
X75900Y32430
X75900Y34970
X77090Y78930
T7
X54350Y74310
X50920Y74320
X54350Y66690
X50920Y66700
T8
X52550Y17620
X56550Y17620
X54550Y17620
T9
X32130Y3831
X28301Y75680
X30079Y75680
X45240Y78499
X32130Y5609
X45240Y76721
T10
X65660Y38350
X67540Y38340
X67550Y9010
X63300Y63700
X64300Y65600
X54550Y38650
T11
X62195Y32805
X57090Y21770
X57090Y36520
M30