G04 EAGLE Gerber RS-274X export*
G75*
%MOMM*%
%FSLAX34Y34*%
%LPD*%
%INBottom Copper*%
%IPPOS*%
%AMOC8*
5,1,8,0,0,1.08239X$1,22.5*%
G01*
%ADD10P,1.319650X8X112.500000*%
%ADD11C,1.219200*%
%ADD12C,2.550000*%
%ADD13R,1.524000X1.524000*%
%ADD14C,2.775000*%
%ADD15C,2.032000*%
%ADD16C,2.286000*%
%ADD17R,0.600000X2.200000*%
%ADD18R,2.300000X4.300000*%
%ADD19R,2.300000X3.660000*%
%ADD20C,1.524000*%
%ADD21C,1.879600*%
%ADD22R,1.980000X1.980000*%
%ADD23C,1.980000*%
%ADD24P,1.319650X8X202.500000*%
%ADD25P,1.319650X8X292.500000*%
%ADD26R,1.500000X1.300000*%
%ADD27R,1.300000X1.500000*%
%ADD28C,1.422400*%
%ADD29C,1.016000*%
%ADD30C,0.609600*%
%ADD31C,0.406400*%
%ADD32C,0.756400*%
%ADD33C,1.300000*%
%ADD34C,0.812800*%
%ADD35C,2.540000*%

G36*
X802826Y10163D02*
X802826Y10163D01*
X802844Y10161D01*
X803026Y10182D01*
X803209Y10201D01*
X803226Y10206D01*
X803243Y10208D01*
X803418Y10265D01*
X803594Y10319D01*
X803609Y10327D01*
X803626Y10333D01*
X803786Y10423D01*
X803948Y10511D01*
X803961Y10522D01*
X803977Y10531D01*
X804116Y10651D01*
X804257Y10768D01*
X804268Y10782D01*
X804282Y10794D01*
X804394Y10939D01*
X804509Y11082D01*
X804517Y11098D01*
X804528Y11112D01*
X804610Y11277D01*
X804695Y11439D01*
X804700Y11456D01*
X804708Y11472D01*
X804755Y11651D01*
X804806Y11826D01*
X804808Y11844D01*
X804812Y11861D01*
X804839Y12192D01*
X804839Y213076D01*
X804836Y213110D01*
X804838Y213144D01*
X804816Y213310D01*
X804799Y213476D01*
X804789Y213509D01*
X804785Y213543D01*
X804730Y213702D01*
X804681Y213861D01*
X804665Y213891D01*
X804654Y213924D01*
X804569Y214068D01*
X804489Y214215D01*
X804468Y214241D01*
X804450Y214271D01*
X804339Y214396D01*
X804232Y214525D01*
X804205Y214546D01*
X804182Y214571D01*
X804048Y214672D01*
X803918Y214777D01*
X803888Y214793D01*
X803860Y214813D01*
X803709Y214885D01*
X803561Y214962D01*
X803528Y214972D01*
X803497Y214987D01*
X803334Y215028D01*
X803174Y215074D01*
X803140Y215077D01*
X803107Y215085D01*
X802940Y215093D01*
X802772Y215107D01*
X802738Y215103D01*
X802704Y215104D01*
X802539Y215079D01*
X802373Y215060D01*
X802340Y215049D01*
X802306Y215044D01*
X802149Y214987D01*
X801990Y214935D01*
X801960Y214918D01*
X801928Y214906D01*
X801642Y214739D01*
X801639Y214737D01*
X799003Y212888D01*
X789929Y210449D01*
X780567Y211261D01*
X772048Y215226D01*
X765399Y221865D01*
X763411Y226121D01*
X763410Y226121D01*
X762687Y227670D01*
X761422Y230378D01*
X760596Y239737D01*
X763021Y248815D01*
X768404Y256517D01*
X776097Y261912D01*
X785171Y264351D01*
X794533Y263539D01*
X801951Y260087D01*
X802005Y260068D01*
X802055Y260042D01*
X802195Y260001D01*
X802331Y259954D01*
X802387Y259946D01*
X802442Y259930D01*
X802587Y259918D01*
X802730Y259898D01*
X802787Y259902D01*
X802844Y259897D01*
X802987Y259914D01*
X803132Y259923D01*
X803187Y259938D01*
X803243Y259944D01*
X803381Y259989D01*
X803521Y260026D01*
X803572Y260051D01*
X803626Y260069D01*
X803752Y260140D01*
X803882Y260204D01*
X803927Y260239D01*
X803977Y260267D01*
X804086Y260361D01*
X804201Y260450D01*
X804238Y260493D01*
X804282Y260530D01*
X804370Y260644D01*
X804465Y260754D01*
X804493Y260803D01*
X804528Y260848D01*
X804593Y260978D01*
X804664Y261104D01*
X804682Y261158D01*
X804708Y261209D01*
X804745Y261349D01*
X804791Y261486D01*
X804797Y261542D01*
X804812Y261597D01*
X804829Y261807D01*
X804839Y261886D01*
X804837Y261905D01*
X804839Y261928D01*
X804839Y827808D01*
X804837Y827826D01*
X804839Y827844D01*
X804818Y828026D01*
X804799Y828209D01*
X804794Y828226D01*
X804792Y828243D01*
X804735Y828418D01*
X804681Y828594D01*
X804673Y828609D01*
X804667Y828626D01*
X804577Y828786D01*
X804489Y828948D01*
X804478Y828961D01*
X804469Y828977D01*
X804349Y829116D01*
X804232Y829257D01*
X804218Y829268D01*
X804206Y829282D01*
X804061Y829394D01*
X803918Y829509D01*
X803902Y829517D01*
X803888Y829528D01*
X803723Y829610D01*
X803561Y829695D01*
X803544Y829700D01*
X803528Y829708D01*
X803349Y829755D01*
X803174Y829806D01*
X803156Y829808D01*
X803139Y829812D01*
X802808Y829839D01*
X202009Y829839D01*
X201951Y829833D01*
X201892Y829836D01*
X201751Y829814D01*
X201608Y829799D01*
X201552Y829782D01*
X201494Y829773D01*
X201360Y829723D01*
X201223Y829681D01*
X201172Y829653D01*
X201117Y829633D01*
X200995Y829558D01*
X200869Y829489D01*
X200824Y829452D01*
X200775Y829421D01*
X200670Y829323D01*
X200560Y829232D01*
X200523Y829186D01*
X200481Y829146D01*
X200397Y829030D01*
X200308Y828918D01*
X200281Y828866D01*
X200247Y828818D01*
X200188Y828688D01*
X200122Y828561D01*
X200106Y828504D01*
X200082Y828451D01*
X200050Y828311D01*
X200011Y828174D01*
X200006Y828115D01*
X199993Y828058D01*
X199990Y827915D01*
X199978Y827772D01*
X199985Y827714D01*
X199983Y827656D01*
X200008Y827515D01*
X200025Y827373D01*
X200043Y827317D01*
X200053Y827259D01*
X200125Y827067D01*
X200150Y826990D01*
X200160Y826972D01*
X200169Y826948D01*
X201790Y823479D01*
X202513Y821930D01*
X203778Y819222D01*
X204604Y809863D01*
X202179Y800785D01*
X196796Y793083D01*
X189103Y787688D01*
X180029Y785249D01*
X170667Y786061D01*
X162148Y790026D01*
X155499Y796665D01*
X153511Y800921D01*
X153510Y800921D01*
X152787Y802470D01*
X151840Y804496D01*
X151758Y804634D01*
X151681Y804775D01*
X151655Y804807D01*
X151635Y804842D01*
X151526Y804961D01*
X151424Y805085D01*
X151392Y805110D01*
X151365Y805140D01*
X151235Y805236D01*
X151110Y805337D01*
X151074Y805356D01*
X151041Y805380D01*
X150895Y805449D01*
X150753Y805522D01*
X150714Y805534D01*
X150677Y805551D01*
X150520Y805589D01*
X150366Y805634D01*
X150325Y805637D01*
X150286Y805647D01*
X150125Y805654D01*
X149964Y805667D01*
X149924Y805662D01*
X149883Y805664D01*
X149724Y805639D01*
X149565Y805620D01*
X149526Y805607D01*
X149486Y805601D01*
X149335Y805545D01*
X149182Y805495D01*
X149146Y805475D01*
X149108Y805461D01*
X148971Y805376D01*
X148831Y805297D01*
X148800Y805270D01*
X148766Y805249D01*
X148648Y805139D01*
X148527Y805034D01*
X148502Y805002D01*
X148472Y804974D01*
X148378Y804843D01*
X148280Y804716D01*
X148262Y804679D01*
X148238Y804646D01*
X148172Y804499D01*
X148100Y804355D01*
X148090Y804316D01*
X148073Y804279D01*
X148038Y804122D01*
X147996Y803967D01*
X147992Y803921D01*
X147984Y803886D01*
X147982Y803799D01*
X147969Y803636D01*
X147969Y670000D01*
X147971Y669982D01*
X147969Y669964D01*
X147990Y669782D01*
X148009Y669599D01*
X148014Y669582D01*
X148016Y669565D01*
X148073Y669390D01*
X148127Y669214D01*
X148135Y669199D01*
X148141Y669182D01*
X148231Y669022D01*
X148319Y668860D01*
X148330Y668847D01*
X148339Y668831D01*
X148459Y668692D01*
X148576Y668551D01*
X148590Y668540D01*
X148602Y668527D01*
X148747Y668414D01*
X148890Y668299D01*
X148906Y668291D01*
X148920Y668280D01*
X149085Y668198D01*
X149247Y668113D01*
X149264Y668108D01*
X149281Y668100D01*
X149459Y668053D01*
X149634Y668002D01*
X149652Y668000D01*
X149669Y667996D01*
X150000Y667969D01*
X262969Y667969D01*
X262969Y172031D01*
X150000Y172031D01*
X149982Y172029D01*
X149964Y172031D01*
X149782Y172010D01*
X149599Y171991D01*
X149582Y171986D01*
X149565Y171984D01*
X149390Y171927D01*
X149214Y171873D01*
X149199Y171865D01*
X149182Y171859D01*
X149022Y171769D01*
X148860Y171681D01*
X148847Y171670D01*
X148831Y171661D01*
X148692Y171541D01*
X148551Y171424D01*
X148540Y171410D01*
X148527Y171398D01*
X148414Y171253D01*
X148299Y171110D01*
X148291Y171094D01*
X148280Y171080D01*
X148198Y170915D01*
X148113Y170753D01*
X148108Y170736D01*
X148100Y170720D01*
X148053Y170541D01*
X148002Y170366D01*
X148000Y170348D01*
X147996Y170331D01*
X147969Y170000D01*
X147969Y35204D01*
X147982Y35067D01*
X147988Y34929D01*
X148002Y34867D01*
X148009Y34804D01*
X148049Y34671D01*
X148081Y34537D01*
X148108Y34479D01*
X148127Y34419D01*
X148193Y34297D01*
X148251Y34172D01*
X148288Y34120D01*
X148319Y34065D01*
X148407Y33959D01*
X148489Y33847D01*
X148536Y33804D01*
X148576Y33755D01*
X148684Y33669D01*
X148786Y33576D01*
X148841Y33543D01*
X148890Y33503D01*
X149013Y33439D01*
X149131Y33368D01*
X149191Y33347D01*
X149247Y33317D01*
X149380Y33279D01*
X149510Y33233D01*
X149573Y33224D01*
X149634Y33206D01*
X149772Y33195D01*
X149909Y33175D01*
X149972Y33178D01*
X150036Y33173D01*
X150173Y33189D01*
X150311Y33197D01*
X150372Y33213D01*
X150435Y33220D01*
X150567Y33263D01*
X150700Y33297D01*
X150758Y33325D01*
X150818Y33345D01*
X150939Y33413D01*
X151063Y33473D01*
X151113Y33512D01*
X151169Y33543D01*
X151273Y33633D01*
X151383Y33717D01*
X151425Y33764D01*
X151474Y33806D01*
X151558Y33915D01*
X151650Y34019D01*
X151681Y34074D01*
X151720Y34124D01*
X151782Y34248D01*
X151851Y34367D01*
X151875Y34436D01*
X151900Y34485D01*
X151920Y34562D01*
X151962Y34680D01*
X153121Y39015D01*
X158504Y46717D01*
X166197Y52112D01*
X175271Y54551D01*
X184633Y53739D01*
X193152Y49774D01*
X199801Y43135D01*
X201790Y38879D01*
X202513Y37330D01*
X203778Y34622D01*
X204604Y25263D01*
X202179Y16185D01*
X200202Y13356D01*
X200186Y13327D01*
X200166Y13302D01*
X200088Y13152D01*
X200005Y13005D01*
X199995Y12973D01*
X199980Y12945D01*
X199933Y12782D01*
X199881Y12621D01*
X199878Y12589D01*
X199869Y12558D01*
X199855Y12389D01*
X199836Y12221D01*
X199838Y12189D01*
X199836Y12156D01*
X199855Y11989D01*
X199870Y11820D01*
X199879Y11789D01*
X199883Y11757D01*
X199935Y11596D01*
X199982Y11434D01*
X199997Y11405D01*
X200007Y11374D01*
X200091Y11227D01*
X200169Y11077D01*
X200189Y11052D01*
X200205Y11023D01*
X200316Y10895D01*
X200422Y10764D01*
X200447Y10743D01*
X200469Y10718D01*
X200602Y10615D01*
X200732Y10507D01*
X200761Y10492D01*
X200787Y10472D01*
X200938Y10396D01*
X201087Y10316D01*
X201118Y10307D01*
X201147Y10292D01*
X201311Y10248D01*
X201472Y10199D01*
X201504Y10196D01*
X201536Y10188D01*
X201867Y10161D01*
X802808Y10161D01*
X802826Y10163D01*
G37*
%LPC*%
G36*
X563277Y165023D02*
X563277Y165023D01*
X559169Y166725D01*
X555857Y170037D01*
X555837Y170053D01*
X555821Y170072D01*
X555706Y170161D01*
X555585Y170265D01*
X555564Y170277D01*
X555546Y170292D01*
X555520Y170305D01*
X555503Y170319D01*
X555383Y170378D01*
X555234Y170462D01*
X555211Y170469D01*
X555190Y170480D01*
X555159Y170490D01*
X555142Y170498D01*
X555026Y170529D01*
X555019Y170531D01*
X554851Y170586D01*
X554827Y170588D01*
X554804Y170595D01*
X554769Y170598D01*
X554754Y170602D01*
X554579Y170617D01*
X554451Y170631D01*
X554427Y170629D01*
X554403Y170632D01*
X554226Y170612D01*
X554050Y170597D01*
X554027Y170591D01*
X554003Y170588D01*
X553833Y170534D01*
X553663Y170485D01*
X553642Y170474D01*
X553634Y170471D01*
X553633Y170471D01*
X553619Y170467D01*
X553463Y170381D01*
X553306Y170298D01*
X553290Y170285D01*
X553280Y170280D01*
X553277Y170278D01*
X553267Y170272D01*
X553131Y170157D01*
X552993Y170045D01*
X552980Y170030D01*
X552970Y170022D01*
X552967Y170018D01*
X552960Y170011D01*
X552949Y169998D01*
X551788Y168837D01*
X550559Y167944D01*
X549205Y167254D01*
X547760Y166785D01*
X547531Y166749D01*
X547531Y176200D01*
X547531Y185651D01*
X547760Y185615D01*
X549205Y185146D01*
X550559Y184456D01*
X551788Y183563D01*
X552976Y182375D01*
X552985Y182368D01*
X553010Y182338D01*
X553029Y182324D01*
X553045Y182306D01*
X553186Y182199D01*
X553326Y182089D01*
X553347Y182078D01*
X553366Y182064D01*
X553526Y181987D01*
X553685Y181906D01*
X553708Y181900D01*
X553729Y181890D01*
X553902Y181846D01*
X554073Y181798D01*
X554096Y181797D01*
X554120Y181791D01*
X554297Y181782D01*
X554474Y181769D01*
X554498Y181772D01*
X554522Y181771D01*
X554697Y181797D01*
X554874Y181819D01*
X554896Y181827D01*
X554920Y181831D01*
X555087Y181891D01*
X555255Y181948D01*
X555276Y181960D01*
X555298Y181968D01*
X555450Y182060D01*
X555604Y182149D01*
X555624Y182166D01*
X555643Y182177D01*
X555702Y182232D01*
X555857Y182363D01*
X559169Y185675D01*
X563277Y187377D01*
X567723Y187377D01*
X571831Y185675D01*
X574615Y182892D01*
X574635Y182875D01*
X574653Y182854D01*
X574791Y182747D01*
X574926Y182637D01*
X574950Y182624D01*
X574971Y182608D01*
X575128Y182530D01*
X575282Y182448D01*
X575307Y182440D01*
X575331Y182428D01*
X575501Y182383D01*
X575668Y182333D01*
X575694Y182331D01*
X575720Y182324D01*
X576051Y182297D01*
X600833Y182297D01*
X600860Y182299D01*
X600887Y182297D01*
X601060Y182319D01*
X601234Y182337D01*
X601259Y182344D01*
X601286Y182348D01*
X601452Y182403D01*
X601619Y182455D01*
X601642Y182468D01*
X601668Y182476D01*
X601819Y182563D01*
X601973Y182647D01*
X601993Y182664D01*
X602017Y182677D01*
X602270Y182892D01*
X615258Y195880D01*
X615275Y195901D01*
X615296Y195919D01*
X615403Y196057D01*
X615513Y196192D01*
X615526Y196216D01*
X615542Y196237D01*
X615620Y196394D01*
X615702Y196548D01*
X615710Y196573D01*
X615722Y196597D01*
X615767Y196767D01*
X615817Y196934D01*
X615819Y196960D01*
X615826Y196986D01*
X615853Y197317D01*
X615853Y322208D01*
X615851Y322235D01*
X615853Y322262D01*
X615831Y322435D01*
X615813Y322609D01*
X615806Y322635D01*
X615802Y322661D01*
X615746Y322827D01*
X615695Y322994D01*
X615682Y323018D01*
X615674Y323043D01*
X615587Y323194D01*
X615503Y323348D01*
X615486Y323369D01*
X615473Y323392D01*
X615304Y323591D01*
X614103Y326489D01*
X614103Y329611D01*
X615299Y332498D01*
X615403Y332631D01*
X615513Y332767D01*
X615526Y332790D01*
X615542Y332812D01*
X615620Y332968D01*
X615702Y333122D01*
X615710Y333148D01*
X615722Y333172D01*
X615767Y333341D01*
X615817Y333508D01*
X615819Y333535D01*
X615826Y333561D01*
X615853Y333892D01*
X615853Y380163D01*
X616781Y382404D01*
X680308Y445930D01*
X680325Y445951D01*
X680346Y445969D01*
X680453Y446107D01*
X680563Y446242D01*
X680576Y446266D01*
X680592Y446287D01*
X680670Y446444D01*
X680752Y446598D01*
X680760Y446623D01*
X680772Y446647D01*
X680817Y446817D01*
X680867Y446984D01*
X680869Y447010D01*
X680876Y447036D01*
X680903Y447367D01*
X680903Y634213D01*
X681831Y636454D01*
X738808Y693430D01*
X738825Y693451D01*
X738846Y693469D01*
X738953Y693607D01*
X739063Y693742D01*
X739076Y693766D01*
X739092Y693787D01*
X739170Y693944D01*
X739252Y694098D01*
X739260Y694123D01*
X739272Y694147D01*
X739317Y694317D01*
X739367Y694484D01*
X739369Y694510D01*
X739376Y694536D01*
X739403Y694867D01*
X739403Y770411D01*
X739401Y770437D01*
X739403Y770464D01*
X739381Y770638D01*
X739363Y770811D01*
X739356Y770837D01*
X739352Y770863D01*
X739296Y771029D01*
X739245Y771196D01*
X739232Y771220D01*
X739224Y771245D01*
X739137Y771397D01*
X739053Y771550D01*
X739036Y771571D01*
X739023Y771594D01*
X738808Y771847D01*
X735594Y775061D01*
X733815Y779356D01*
X733815Y787211D01*
X733813Y787237D01*
X733815Y787264D01*
X733793Y787438D01*
X733775Y787611D01*
X733768Y787637D01*
X733764Y787663D01*
X733709Y787829D01*
X733657Y787996D01*
X733644Y788020D01*
X733636Y788045D01*
X733549Y788197D01*
X733465Y788350D01*
X733448Y788371D01*
X733435Y788394D01*
X733220Y788647D01*
X727307Y794560D01*
X727286Y794577D01*
X727269Y794598D01*
X727131Y794705D01*
X726996Y794815D01*
X726972Y794828D01*
X726951Y794844D01*
X726794Y794922D01*
X726640Y795004D01*
X726614Y795012D01*
X726590Y795024D01*
X726421Y795069D01*
X726254Y795119D01*
X726227Y795121D01*
X726201Y795128D01*
X725871Y795155D01*
X665692Y795155D01*
X665683Y795154D01*
X665674Y795155D01*
X665483Y795135D01*
X665291Y795115D01*
X665283Y795113D01*
X665274Y795112D01*
X665090Y795054D01*
X664906Y794997D01*
X664898Y794993D01*
X664890Y794990D01*
X664721Y794897D01*
X664552Y794805D01*
X664545Y794800D01*
X664537Y794795D01*
X664390Y794670D01*
X664243Y794548D01*
X664237Y794541D01*
X664230Y794535D01*
X664111Y794384D01*
X663991Y794234D01*
X663986Y794226D01*
X663981Y794219D01*
X663893Y794046D01*
X663805Y793877D01*
X663803Y793868D01*
X663799Y793860D01*
X663747Y793674D01*
X663694Y793490D01*
X663693Y793481D01*
X663691Y793472D01*
X663676Y793280D01*
X663661Y793088D01*
X663662Y793080D01*
X663661Y793071D01*
X663685Y792879D01*
X663708Y792689D01*
X663710Y792680D01*
X663712Y792671D01*
X663773Y792489D01*
X663833Y792306D01*
X663837Y792298D01*
X663840Y792290D01*
X663936Y792122D01*
X664030Y791955D01*
X664036Y791948D01*
X664041Y791941D01*
X664255Y791688D01*
X664583Y791360D01*
X664918Y790781D01*
X665091Y790135D01*
X665091Y780831D01*
X659550Y780831D01*
X646850Y780831D01*
X634150Y780831D01*
X621450Y780831D01*
X621433Y780830D01*
X621415Y780831D01*
X621232Y780810D01*
X621050Y780791D01*
X621033Y780786D01*
X621015Y780784D01*
X620840Y780727D01*
X620665Y780673D01*
X620649Y780665D01*
X620632Y780659D01*
X620472Y780569D01*
X620311Y780482D01*
X620297Y780470D01*
X620282Y780461D01*
X620142Y780341D01*
X620002Y780224D01*
X620001Y780224D01*
X620001Y780223D01*
X619990Y780210D01*
X619977Y780198D01*
X619976Y780198D01*
X619864Y780053D01*
X619749Y779910D01*
X619740Y779894D01*
X619730Y779880D01*
X619648Y779715D01*
X619563Y779552D01*
X619558Y779535D01*
X619550Y779519D01*
X619502Y779341D01*
X619452Y779165D01*
X619450Y779148D01*
X619446Y779130D01*
X619419Y778800D01*
X619419Y765259D01*
X618115Y765259D01*
X617469Y765432D01*
X617337Y765509D01*
X617195Y765573D01*
X617057Y765643D01*
X617012Y765656D01*
X616970Y765675D01*
X616819Y765709D01*
X616669Y765751D01*
X616623Y765755D01*
X616577Y765765D01*
X616423Y765769D01*
X616268Y765780D01*
X616221Y765775D01*
X616175Y765776D01*
X616022Y765749D01*
X615868Y765730D01*
X615824Y765715D01*
X615778Y765707D01*
X615633Y765651D01*
X615487Y765602D01*
X615446Y765579D01*
X615403Y765562D01*
X615272Y765478D01*
X615138Y765401D01*
X615098Y765367D01*
X615063Y765345D01*
X615001Y765285D01*
X614885Y765186D01*
X614052Y764354D01*
X612559Y763735D01*
X604939Y763735D01*
X604931Y763740D01*
X604751Y763791D01*
X604570Y763846D01*
X604557Y763847D01*
X604544Y763851D01*
X604356Y763866D01*
X604169Y763884D01*
X604156Y763883D01*
X604142Y763884D01*
X603955Y763862D01*
X603769Y763843D01*
X603756Y763839D01*
X603743Y763837D01*
X603564Y763779D01*
X603384Y763723D01*
X603373Y763716D01*
X603360Y763712D01*
X603196Y763620D01*
X603031Y763529D01*
X603021Y763521D01*
X603009Y763514D01*
X602867Y763391D01*
X602723Y763270D01*
X602715Y763260D01*
X602704Y763251D01*
X602589Y763103D01*
X602472Y762956D01*
X602466Y762944D01*
X602458Y762933D01*
X602374Y762764D01*
X602288Y762597D01*
X602284Y762585D01*
X602278Y762572D01*
X602229Y762391D01*
X602178Y762210D01*
X602177Y762197D01*
X602174Y762184D01*
X602147Y761853D01*
X602147Y747837D01*
X601219Y745596D01*
X574654Y719031D01*
X572413Y718103D01*
X493524Y718103D01*
X493502Y718101D01*
X493479Y718103D01*
X493302Y718081D01*
X493123Y718063D01*
X493102Y718057D01*
X493080Y718054D01*
X492910Y717998D01*
X492738Y717945D01*
X492719Y717935D01*
X492698Y717928D01*
X492542Y717839D01*
X492384Y717753D01*
X492367Y717739D01*
X492348Y717728D01*
X492213Y717611D01*
X492075Y717496D01*
X492061Y717478D01*
X492044Y717464D01*
X491935Y717322D01*
X491823Y717182D01*
X491812Y717162D01*
X491799Y717144D01*
X491647Y716849D01*
X491046Y715398D01*
X489902Y714254D01*
X488409Y713635D01*
X471791Y713635D01*
X470298Y714254D01*
X469154Y715398D01*
X468535Y716891D01*
X468535Y731508D01*
X469121Y732923D01*
X469129Y732948D01*
X469141Y732972D01*
X469187Y733141D01*
X469237Y733308D01*
X469240Y733335D01*
X469247Y733361D01*
X469259Y733536D01*
X469276Y733709D01*
X469273Y733735D01*
X469275Y733762D01*
X469252Y733936D01*
X469234Y734109D01*
X469226Y734135D01*
X469223Y734161D01*
X469121Y734477D01*
X468553Y735849D01*
X468542Y735869D01*
X468535Y735890D01*
X468447Y736047D01*
X468363Y736204D01*
X468348Y736221D01*
X468337Y736241D01*
X468220Y736377D01*
X468106Y736515D01*
X468089Y736529D01*
X468074Y736546D01*
X467933Y736655D01*
X467794Y736768D01*
X467774Y736779D01*
X467756Y736792D01*
X467596Y736872D01*
X467437Y736955D01*
X467416Y736962D01*
X467396Y736972D01*
X467222Y737018D01*
X467051Y737068D01*
X467028Y737070D01*
X467007Y737076D01*
X466676Y737103D01*
X463224Y737103D01*
X463202Y737101D01*
X463179Y737103D01*
X463002Y737081D01*
X462823Y737063D01*
X462802Y737057D01*
X462780Y737054D01*
X462610Y736998D01*
X462438Y736945D01*
X462419Y736935D01*
X462398Y736928D01*
X462242Y736839D01*
X462084Y736753D01*
X462067Y736739D01*
X462048Y736728D01*
X461913Y736611D01*
X461775Y736496D01*
X461761Y736478D01*
X461744Y736464D01*
X461635Y736322D01*
X461523Y736182D01*
X461512Y736162D01*
X461499Y736144D01*
X461347Y735849D01*
X460746Y734398D01*
X460151Y733802D01*
X460093Y733732D01*
X460028Y733668D01*
X459966Y733577D01*
X459896Y733491D01*
X459853Y733410D01*
X459802Y733335D01*
X459759Y733233D01*
X459707Y733135D01*
X459681Y733048D01*
X459646Y732964D01*
X459624Y732855D01*
X459592Y732749D01*
X459584Y732659D01*
X459566Y732569D01*
X459566Y732459D01*
X459556Y732348D01*
X459566Y732257D01*
X459565Y732167D01*
X459590Y732031D01*
X459599Y731948D01*
X459614Y731902D01*
X459625Y731840D01*
X459841Y731035D01*
X459841Y727449D01*
X451018Y727449D01*
X451000Y727447D01*
X450983Y727449D01*
X450800Y727428D01*
X450618Y727409D01*
X450601Y727404D01*
X450583Y727402D01*
X450408Y727345D01*
X450233Y727291D01*
X450217Y727283D01*
X450200Y727277D01*
X450040Y727187D01*
X449879Y727099D01*
X449865Y727088D01*
X449849Y727079D01*
X449797Y727034D01*
X449692Y727119D01*
X449676Y727127D01*
X449662Y727138D01*
X449497Y727220D01*
X449334Y727305D01*
X449317Y727310D01*
X449301Y727318D01*
X449123Y727365D01*
X448948Y727416D01*
X448930Y727418D01*
X448913Y727422D01*
X448582Y727449D01*
X439759Y727449D01*
X439759Y731035D01*
X439975Y731840D01*
X439990Y731930D01*
X440014Y732018D01*
X440022Y732128D01*
X440040Y732237D01*
X440037Y732328D01*
X440044Y732419D01*
X440030Y732529D01*
X440026Y732640D01*
X440005Y732728D01*
X439993Y732819D01*
X439958Y732924D01*
X439932Y733031D01*
X439894Y733114D01*
X439865Y733200D01*
X439810Y733296D01*
X439763Y733397D01*
X439710Y733470D01*
X439664Y733549D01*
X439575Y733654D01*
X439526Y733722D01*
X439490Y733754D01*
X439449Y733802D01*
X438854Y734398D01*
X438235Y735891D01*
X438235Y750509D01*
X438854Y752002D01*
X439998Y753146D01*
X441491Y753765D01*
X458109Y753765D01*
X459602Y753146D01*
X460746Y752002D01*
X461347Y750551D01*
X461358Y750531D01*
X461365Y750510D01*
X461453Y750354D01*
X461537Y750196D01*
X461552Y750179D01*
X461563Y750159D01*
X461680Y750024D01*
X461794Y749885D01*
X461811Y749871D01*
X461826Y749854D01*
X461967Y749745D01*
X462106Y749632D01*
X462126Y749621D01*
X462144Y749608D01*
X462304Y749528D01*
X462463Y749445D01*
X462484Y749438D01*
X462504Y749428D01*
X462678Y749382D01*
X462849Y749332D01*
X462872Y749330D01*
X462893Y749324D01*
X463224Y749297D01*
X466676Y749297D01*
X466698Y749299D01*
X466721Y749297D01*
X466898Y749319D01*
X467077Y749337D01*
X467098Y749343D01*
X467120Y749346D01*
X467290Y749402D01*
X467462Y749455D01*
X467481Y749465D01*
X467502Y749472D01*
X467658Y749561D01*
X467816Y749647D01*
X467833Y749661D01*
X467852Y749672D01*
X467987Y749789D01*
X468125Y749904D01*
X468139Y749922D01*
X468156Y749936D01*
X468265Y750078D01*
X468377Y750218D01*
X468388Y750238D01*
X468401Y750256D01*
X468553Y750551D01*
X469154Y752002D01*
X470298Y753146D01*
X471791Y753765D01*
X488409Y753765D01*
X489902Y753146D01*
X491046Y752002D01*
X491647Y750551D01*
X491658Y750531D01*
X491665Y750510D01*
X491753Y750354D01*
X491837Y750196D01*
X491852Y750179D01*
X491863Y750159D01*
X491980Y750024D01*
X492094Y749885D01*
X492111Y749871D01*
X492126Y749854D01*
X492267Y749745D01*
X492406Y749632D01*
X492426Y749621D01*
X492444Y749608D01*
X492604Y749528D01*
X492763Y749445D01*
X492784Y749438D01*
X492804Y749428D01*
X492978Y749382D01*
X493149Y749332D01*
X493172Y749330D01*
X493193Y749324D01*
X493524Y749297D01*
X495796Y749297D01*
X495818Y749299D01*
X495841Y749297D01*
X496018Y749319D01*
X496197Y749337D01*
X496218Y749343D01*
X496240Y749346D01*
X496410Y749402D01*
X496582Y749455D01*
X496601Y749465D01*
X496623Y749472D01*
X496779Y749561D01*
X496936Y749647D01*
X496953Y749661D01*
X496972Y749672D01*
X497108Y749790D01*
X497245Y749904D01*
X497259Y749922D01*
X497276Y749936D01*
X497385Y750078D01*
X497497Y750218D01*
X497508Y750238D01*
X497521Y750256D01*
X497673Y750551D01*
X497787Y750826D01*
X501592Y754631D01*
X501609Y754652D01*
X501630Y754670D01*
X501737Y754808D01*
X501847Y754943D01*
X501860Y754967D01*
X501876Y754988D01*
X501954Y755144D01*
X502036Y755299D01*
X502044Y755324D01*
X502056Y755348D01*
X502101Y755518D01*
X502151Y755685D01*
X502153Y755711D01*
X502160Y755737D01*
X502187Y756068D01*
X502187Y770512D01*
X502185Y770539D01*
X502187Y770566D01*
X502165Y770740D01*
X502147Y770913D01*
X502140Y770939D01*
X502136Y770965D01*
X502081Y771130D01*
X502029Y771298D01*
X502016Y771322D01*
X502008Y771347D01*
X501921Y771499D01*
X501837Y771652D01*
X501820Y771672D01*
X501807Y771696D01*
X501592Y771949D01*
X496259Y777282D01*
X496238Y777299D01*
X496221Y777320D01*
X496083Y777427D01*
X495947Y777537D01*
X495924Y777550D01*
X495902Y777566D01*
X495746Y777644D01*
X495592Y777726D01*
X495566Y777734D01*
X495542Y777746D01*
X495373Y777791D01*
X495206Y777841D01*
X495179Y777843D01*
X495153Y777850D01*
X494822Y777877D01*
X460498Y777877D01*
X460472Y777875D01*
X460445Y777877D01*
X460271Y777855D01*
X460097Y777837D01*
X460072Y777830D01*
X460045Y777826D01*
X459880Y777771D01*
X459713Y777719D01*
X459689Y777706D01*
X459664Y777698D01*
X459512Y777611D01*
X459359Y777527D01*
X459338Y777510D01*
X459315Y777497D01*
X459062Y777282D01*
X458238Y776459D01*
X458227Y776445D01*
X458213Y776433D01*
X458100Y776290D01*
X457983Y776147D01*
X457975Y776131D01*
X457964Y776117D01*
X457880Y775953D01*
X457794Y775791D01*
X457789Y775774D01*
X457781Y775758D01*
X457732Y775581D01*
X457680Y775406D01*
X457678Y775388D01*
X457673Y775371D01*
X457660Y775187D01*
X457643Y775005D01*
X457645Y774987D01*
X457644Y774969D01*
X457667Y774787D01*
X457687Y774604D01*
X457692Y774587D01*
X457694Y774570D01*
X457753Y774396D01*
X457808Y774220D01*
X457817Y774205D01*
X457822Y774188D01*
X457914Y774028D01*
X458003Y773868D01*
X458014Y773855D01*
X458023Y773839D01*
X458238Y773586D01*
X461037Y770787D01*
X461037Y769241D01*
X452400Y769241D01*
X443763Y769241D01*
X443763Y770787D01*
X445364Y772388D01*
X445369Y772395D01*
X445376Y772400D01*
X445496Y772550D01*
X445619Y772699D01*
X445623Y772707D01*
X445628Y772714D01*
X445717Y772884D01*
X445807Y773055D01*
X445810Y773064D01*
X445814Y773071D01*
X445867Y773256D01*
X445922Y773441D01*
X445923Y773450D01*
X445925Y773458D01*
X445941Y773649D01*
X445958Y773842D01*
X445957Y773851D01*
X445958Y773860D01*
X445936Y774049D01*
X445915Y774242D01*
X445912Y774251D01*
X445911Y774259D01*
X445852Y774441D01*
X445794Y774626D01*
X445789Y774634D01*
X445786Y774642D01*
X445691Y774811D01*
X445599Y774978D01*
X445593Y774985D01*
X445589Y774993D01*
X445463Y775139D01*
X445338Y775285D01*
X445331Y775291D01*
X445325Y775298D01*
X445174Y775415D01*
X445022Y775535D01*
X445014Y775539D01*
X445007Y775544D01*
X444835Y775630D01*
X444663Y775717D01*
X444655Y775720D01*
X444647Y775724D01*
X444461Y775774D01*
X444275Y775825D01*
X444267Y775826D01*
X444258Y775828D01*
X443927Y775855D01*
X386629Y775855D01*
X386603Y775853D01*
X386576Y775855D01*
X386402Y775833D01*
X386229Y775815D01*
X386203Y775808D01*
X386177Y775804D01*
X386011Y775749D01*
X385844Y775697D01*
X385820Y775684D01*
X385795Y775676D01*
X385643Y775589D01*
X385490Y775505D01*
X385469Y775488D01*
X385446Y775475D01*
X385193Y775260D01*
X384840Y774907D01*
X384823Y774886D01*
X384802Y774869D01*
X384695Y774731D01*
X384585Y774596D01*
X384572Y774572D01*
X384556Y774551D01*
X384478Y774394D01*
X384396Y774240D01*
X384388Y774214D01*
X384376Y774190D01*
X384331Y774021D01*
X384281Y773854D01*
X384279Y773827D01*
X384272Y773801D01*
X384245Y773471D01*
X384245Y768246D01*
X384247Y768219D01*
X384245Y768192D01*
X384267Y768019D01*
X384285Y767845D01*
X384292Y767820D01*
X384296Y767793D01*
X384352Y767627D01*
X384403Y767460D01*
X384415Y767437D01*
X384424Y767411D01*
X384512Y767259D01*
X384595Y767106D01*
X384612Y767086D01*
X384625Y767062D01*
X384840Y766809D01*
X386192Y765457D01*
X386199Y765452D01*
X386204Y765445D01*
X386356Y765323D01*
X386503Y765202D01*
X386511Y765198D01*
X386518Y765193D01*
X386688Y765104D01*
X386859Y765014D01*
X386868Y765011D01*
X386875Y765007D01*
X387060Y764954D01*
X387245Y764899D01*
X387254Y764898D01*
X387262Y764896D01*
X387453Y764880D01*
X387646Y764863D01*
X387655Y764863D01*
X387664Y764863D01*
X387853Y764885D01*
X388046Y764906D01*
X388055Y764909D01*
X388063Y764910D01*
X388245Y764969D01*
X388430Y765027D01*
X388438Y765032D01*
X388446Y765035D01*
X388613Y765129D01*
X388782Y765222D01*
X388789Y765228D01*
X388797Y765232D01*
X388942Y765358D01*
X389089Y765483D01*
X389095Y765490D01*
X389102Y765496D01*
X389218Y765646D01*
X389339Y765799D01*
X389343Y765807D01*
X389348Y765814D01*
X389432Y765983D01*
X389521Y766158D01*
X389524Y766166D01*
X389528Y766174D01*
X389577Y766359D01*
X389629Y766545D01*
X389630Y766554D01*
X389632Y766563D01*
X389659Y766894D01*
X389659Y767035D01*
X389832Y767681D01*
X390167Y768260D01*
X390640Y768733D01*
X391219Y769068D01*
X391865Y769241D01*
X398801Y769241D01*
X398801Y758068D01*
X398802Y758050D01*
X398801Y758033D01*
X398822Y757850D01*
X398841Y757668D01*
X398846Y757651D01*
X398848Y757633D01*
X398905Y757458D01*
X398959Y757283D01*
X398967Y757267D01*
X398973Y757250D01*
X399063Y757090D01*
X399150Y756929D01*
X399162Y756915D01*
X399171Y756899D01*
X399257Y756799D01*
X399246Y756785D01*
X399131Y756642D01*
X399123Y756626D01*
X399112Y756612D01*
X399030Y756447D01*
X398945Y756284D01*
X398940Y756267D01*
X398932Y756251D01*
X398884Y756073D01*
X398834Y755898D01*
X398832Y755880D01*
X398828Y755863D01*
X398801Y755532D01*
X398801Y744359D01*
X391865Y744359D01*
X391219Y744532D01*
X390640Y744867D01*
X390167Y745340D01*
X389832Y745919D01*
X389659Y746565D01*
X389659Y746706D01*
X389658Y746715D01*
X389659Y746724D01*
X389638Y746916D01*
X389619Y747107D01*
X389617Y747115D01*
X389616Y747124D01*
X389558Y747305D01*
X389501Y747492D01*
X389497Y747500D01*
X389494Y747508D01*
X389401Y747677D01*
X389309Y747846D01*
X389304Y747853D01*
X389299Y747861D01*
X389175Y748007D01*
X389052Y748155D01*
X389045Y748161D01*
X389039Y748168D01*
X388888Y748287D01*
X388738Y748407D01*
X388730Y748412D01*
X388723Y748417D01*
X388550Y748505D01*
X388381Y748593D01*
X388372Y748595D01*
X388364Y748599D01*
X388178Y748651D01*
X387994Y748704D01*
X387985Y748705D01*
X387976Y748707D01*
X387783Y748722D01*
X387592Y748737D01*
X387584Y748736D01*
X387575Y748737D01*
X387382Y748713D01*
X387193Y748690D01*
X387184Y748688D01*
X387175Y748686D01*
X386992Y748625D01*
X386810Y748565D01*
X386802Y748561D01*
X386794Y748558D01*
X386627Y748462D01*
X386459Y748368D01*
X386452Y748362D01*
X386445Y748357D01*
X386192Y748143D01*
X383010Y744961D01*
X378961Y743284D01*
X377878Y742835D01*
X372322Y742835D01*
X367190Y744961D01*
X363036Y749115D01*
X363023Y749126D01*
X363011Y749139D01*
X362867Y749253D01*
X362725Y749370D01*
X362709Y749378D01*
X362695Y749389D01*
X362531Y749472D01*
X362369Y749558D01*
X362352Y749563D01*
X362336Y749571D01*
X362159Y749621D01*
X361983Y749673D01*
X361965Y749675D01*
X361948Y749679D01*
X361765Y749693D01*
X361582Y749709D01*
X361564Y749708D01*
X361547Y749709D01*
X361365Y749686D01*
X361182Y749666D01*
X361165Y749661D01*
X361147Y749658D01*
X360974Y749600D01*
X360798Y749545D01*
X360782Y749536D01*
X360766Y749530D01*
X360606Y749438D01*
X360446Y749350D01*
X360432Y749338D01*
X360417Y749329D01*
X360164Y749115D01*
X357840Y746791D01*
X357823Y746770D01*
X357802Y746752D01*
X357695Y746614D01*
X357585Y746479D01*
X357572Y746455D01*
X357556Y746434D01*
X357478Y746277D01*
X357396Y746123D01*
X357388Y746098D01*
X357376Y746074D01*
X357331Y745904D01*
X357281Y745737D01*
X357279Y745711D01*
X357272Y745685D01*
X357245Y745354D01*
X357245Y589529D01*
X357247Y589503D01*
X357245Y589476D01*
X357267Y589302D01*
X357285Y589129D01*
X357292Y589103D01*
X357296Y589077D01*
X357351Y588911D01*
X357403Y588744D01*
X357416Y588720D01*
X357424Y588695D01*
X357511Y588543D01*
X357595Y588390D01*
X357612Y588369D01*
X357625Y588346D01*
X357840Y588093D01*
X395193Y550740D01*
X395214Y550723D01*
X395231Y550702D01*
X395369Y550595D01*
X395504Y550485D01*
X395528Y550472D01*
X395549Y550456D01*
X395706Y550378D01*
X395860Y550296D01*
X395886Y550288D01*
X395910Y550276D01*
X396079Y550231D01*
X396246Y550181D01*
X396273Y550179D01*
X396299Y550172D01*
X396629Y550145D01*
X445615Y550145D01*
X445642Y550147D01*
X445668Y550145D01*
X445842Y550167D01*
X446016Y550185D01*
X446041Y550192D01*
X446068Y550196D01*
X446233Y550251D01*
X446400Y550303D01*
X446424Y550316D01*
X446449Y550324D01*
X446601Y550411D01*
X446755Y550495D01*
X446775Y550512D01*
X446798Y550525D01*
X447051Y550740D01*
X448478Y552166D01*
X449971Y552785D01*
X466829Y552785D01*
X468322Y552166D01*
X469466Y551022D01*
X470085Y549529D01*
X470085Y532671D01*
X469466Y531178D01*
X468322Y530034D01*
X466829Y529415D01*
X449971Y529415D01*
X448478Y530034D01*
X447251Y531260D01*
X447231Y531277D01*
X447213Y531298D01*
X447075Y531405D01*
X446940Y531515D01*
X446916Y531528D01*
X446895Y531544D01*
X446738Y531622D01*
X446584Y531704D01*
X446559Y531712D01*
X446534Y531724D01*
X446365Y531769D01*
X446198Y531819D01*
X446172Y531821D01*
X446146Y531828D01*
X445815Y531855D01*
X390181Y531855D01*
X386820Y533247D01*
X340347Y579720D01*
X338955Y583081D01*
X338955Y745354D01*
X338953Y745381D01*
X338955Y745408D01*
X338933Y745581D01*
X338915Y745755D01*
X338908Y745780D01*
X338904Y745807D01*
X338849Y745973D01*
X338797Y746140D01*
X338784Y746163D01*
X338776Y746189D01*
X338689Y746340D01*
X338605Y746494D01*
X338588Y746514D01*
X338575Y746538D01*
X338360Y746791D01*
X338091Y747060D01*
X338070Y747077D01*
X338052Y747098D01*
X337914Y747205D01*
X337779Y747315D01*
X337755Y747328D01*
X337734Y747344D01*
X337577Y747422D01*
X337423Y747504D01*
X337398Y747512D01*
X337374Y747524D01*
X337204Y747569D01*
X337037Y747619D01*
X337011Y747621D01*
X336985Y747628D01*
X336654Y747655D01*
X305668Y747655D01*
X305637Y747652D01*
X305606Y747654D01*
X305436Y747632D01*
X305267Y747615D01*
X305238Y747606D01*
X305207Y747602D01*
X304891Y747501D01*
X302811Y746639D01*
X298769Y746639D01*
X295034Y748186D01*
X292259Y750962D01*
X292245Y750973D01*
X292233Y750987D01*
X292090Y751100D01*
X291947Y751217D01*
X291931Y751225D01*
X291917Y751236D01*
X291753Y751320D01*
X291591Y751406D01*
X291574Y751411D01*
X291558Y751419D01*
X291381Y751468D01*
X291206Y751520D01*
X291188Y751522D01*
X291171Y751527D01*
X290987Y751540D01*
X290805Y751557D01*
X290787Y751555D01*
X290769Y751556D01*
X290587Y751533D01*
X290404Y751513D01*
X290387Y751508D01*
X290370Y751506D01*
X290196Y751447D01*
X290020Y751392D01*
X290005Y751383D01*
X289988Y751378D01*
X289828Y751286D01*
X289668Y751197D01*
X289655Y751186D01*
X289639Y751177D01*
X289386Y750962D01*
X286587Y748163D01*
X285041Y748163D01*
X285041Y756800D01*
X285041Y765437D01*
X286587Y765437D01*
X289386Y762638D01*
X289400Y762627D01*
X289411Y762613D01*
X289556Y762499D01*
X289698Y762383D01*
X289713Y762375D01*
X289727Y762364D01*
X289891Y762280D01*
X290053Y762194D01*
X290070Y762189D01*
X290086Y762181D01*
X290263Y762132D01*
X290439Y762080D01*
X290457Y762078D01*
X290474Y762073D01*
X290657Y762060D01*
X290840Y762043D01*
X290858Y762045D01*
X290876Y762044D01*
X291058Y762067D01*
X291240Y762087D01*
X291257Y762092D01*
X291275Y762094D01*
X291449Y762153D01*
X291624Y762208D01*
X291640Y762217D01*
X291657Y762222D01*
X291816Y762314D01*
X291977Y762403D01*
X291990Y762414D01*
X292006Y762423D01*
X292259Y762638D01*
X295034Y765414D01*
X298769Y766961D01*
X302811Y766961D01*
X304891Y766099D01*
X304920Y766090D01*
X304948Y766076D01*
X305113Y766032D01*
X305276Y765983D01*
X305307Y765980D01*
X305337Y765972D01*
X305668Y765945D01*
X336654Y765945D01*
X336681Y765947D01*
X336708Y765945D01*
X336881Y765967D01*
X337055Y765985D01*
X337080Y765992D01*
X337107Y765996D01*
X337273Y766051D01*
X337440Y766103D01*
X337463Y766116D01*
X337489Y766124D01*
X337640Y766211D01*
X337794Y766295D01*
X337814Y766312D01*
X337838Y766325D01*
X338091Y766540D01*
X340190Y768639D01*
X345322Y770765D01*
X350878Y770765D01*
X356010Y768639D01*
X360164Y764485D01*
X360178Y764474D01*
X360189Y764460D01*
X360333Y764346D01*
X360475Y764230D01*
X360491Y764222D01*
X360505Y764211D01*
X360669Y764127D01*
X360831Y764042D01*
X360848Y764037D01*
X360864Y764029D01*
X361041Y763979D01*
X361217Y763927D01*
X361235Y763925D01*
X361252Y763921D01*
X361435Y763907D01*
X361618Y763891D01*
X361636Y763892D01*
X361653Y763891D01*
X361835Y763914D01*
X362018Y763934D01*
X362035Y763939D01*
X362053Y763942D01*
X362227Y764000D01*
X362402Y764055D01*
X362418Y764064D01*
X362434Y764070D01*
X362593Y764161D01*
X362754Y764250D01*
X362768Y764262D01*
X362783Y764271D01*
X363036Y764485D01*
X365360Y766809D01*
X365377Y766830D01*
X365398Y766848D01*
X365504Y766986D01*
X365615Y767121D01*
X365628Y767145D01*
X365644Y767166D01*
X365722Y767322D01*
X365804Y767477D01*
X365812Y767502D01*
X365824Y767526D01*
X365869Y767695D01*
X365919Y767863D01*
X365921Y767889D01*
X365928Y767915D01*
X365955Y768246D01*
X365955Y779919D01*
X367347Y783280D01*
X376820Y792753D01*
X380181Y794145D01*
X447546Y794145D01*
X447577Y794148D01*
X447608Y794146D01*
X447777Y794168D01*
X447947Y794185D01*
X447977Y794194D01*
X448007Y794198D01*
X448323Y794299D01*
X448521Y794381D01*
X448724Y794465D01*
X448751Y794480D01*
X448781Y794490D01*
X448929Y794575D01*
X449079Y794655D01*
X449103Y794675D01*
X449130Y794691D01*
X449383Y794906D01*
X463672Y809194D01*
X463672Y809195D01*
X466530Y812053D01*
X469891Y813445D01*
X732319Y813445D01*
X735680Y812053D01*
X739354Y808379D01*
X739371Y808365D01*
X739386Y808348D01*
X739527Y808237D01*
X739665Y808124D01*
X739685Y808113D01*
X739703Y808100D01*
X739863Y808019D01*
X740021Y807935D01*
X740042Y807929D01*
X740062Y807919D01*
X740236Y807871D01*
X740407Y807820D01*
X740429Y807818D01*
X740451Y807812D01*
X740629Y807800D01*
X740808Y807784D01*
X740830Y807786D01*
X740852Y807785D01*
X741029Y807808D01*
X741208Y807827D01*
X741229Y807834D01*
X741252Y807837D01*
X741567Y807939D01*
X743176Y808605D01*
X747824Y808605D01*
X752119Y806826D01*
X755406Y803539D01*
X757200Y799208D01*
X757242Y799130D01*
X757275Y799047D01*
X757337Y798952D01*
X757390Y798853D01*
X757447Y798784D01*
X757495Y798710D01*
X757575Y798630D01*
X757646Y798542D01*
X757715Y798487D01*
X757778Y798423D01*
X757871Y798360D01*
X757959Y798289D01*
X758038Y798247D01*
X758111Y798198D01*
X758216Y798154D01*
X758316Y798102D01*
X758401Y798077D01*
X758483Y798042D01*
X758594Y798020D01*
X758702Y797989D01*
X758791Y797981D01*
X758878Y797964D01*
X758990Y797964D01*
X759103Y797954D01*
X759191Y797964D01*
X759280Y797964D01*
X759391Y797986D01*
X759503Y797999D01*
X759588Y798026D01*
X759675Y798044D01*
X759779Y798088D01*
X759887Y798122D01*
X759964Y798166D01*
X760046Y798200D01*
X760139Y798263D01*
X760238Y798319D01*
X760305Y798376D01*
X760379Y798426D01*
X760458Y798507D01*
X760544Y798580D01*
X760599Y798650D01*
X760661Y798714D01*
X760722Y798808D01*
X760792Y798897D01*
X760832Y798977D01*
X760880Y799051D01*
X760935Y799182D01*
X760973Y799257D01*
X760985Y799302D01*
X761008Y799357D01*
X761484Y800820D01*
X762210Y802245D01*
X763150Y803539D01*
X764281Y804670D01*
X765575Y805610D01*
X767000Y806336D01*
X768361Y806779D01*
X768361Y789808D01*
X768362Y789790D01*
X768361Y789773D01*
X768382Y789590D01*
X768401Y789408D01*
X768406Y789391D01*
X768408Y789373D01*
X768433Y789295D01*
X768394Y789158D01*
X768392Y789140D01*
X768388Y789123D01*
X768361Y788792D01*
X768361Y771821D01*
X767000Y772264D01*
X765575Y772990D01*
X764281Y773930D01*
X763150Y775061D01*
X762210Y776355D01*
X761484Y777780D01*
X761008Y779243D01*
X760973Y779324D01*
X760946Y779409D01*
X760892Y779508D01*
X760847Y779611D01*
X760796Y779684D01*
X760753Y779762D01*
X760680Y779848D01*
X760615Y779941D01*
X760551Y780002D01*
X760494Y780070D01*
X760406Y780140D01*
X760324Y780218D01*
X760248Y780266D01*
X760179Y780321D01*
X760079Y780373D01*
X759983Y780433D01*
X759900Y780464D01*
X759821Y780505D01*
X759712Y780536D01*
X759606Y780576D01*
X759519Y780590D01*
X759433Y780615D01*
X759321Y780623D01*
X759209Y780642D01*
X759120Y780639D01*
X759032Y780646D01*
X758920Y780632D01*
X758807Y780628D01*
X758720Y780608D01*
X758632Y780597D01*
X758525Y780562D01*
X758415Y780536D01*
X758334Y780498D01*
X758250Y780471D01*
X758152Y780415D01*
X758049Y780367D01*
X757978Y780315D01*
X757900Y780271D01*
X757815Y780197D01*
X757724Y780130D01*
X757664Y780065D01*
X757597Y780007D01*
X757528Y779917D01*
X757452Y779834D01*
X757406Y779758D01*
X757351Y779687D01*
X757287Y779562D01*
X757243Y779489D01*
X757227Y779446D01*
X757200Y779392D01*
X755406Y775061D01*
X752192Y771847D01*
X752175Y771826D01*
X752154Y771809D01*
X752047Y771671D01*
X751937Y771535D01*
X751924Y771512D01*
X751908Y771491D01*
X751830Y771334D01*
X751748Y771180D01*
X751740Y771154D01*
X751728Y771130D01*
X751683Y770961D01*
X751633Y770794D01*
X751631Y770767D01*
X751624Y770741D01*
X751597Y770411D01*
X751597Y690287D01*
X750669Y688046D01*
X693692Y631070D01*
X693675Y631049D01*
X693654Y631031D01*
X693547Y630893D01*
X693437Y630758D01*
X693424Y630734D01*
X693408Y630713D01*
X693330Y630556D01*
X693248Y630402D01*
X693240Y630377D01*
X693228Y630353D01*
X693183Y630183D01*
X693133Y630016D01*
X693131Y629990D01*
X693124Y629964D01*
X693097Y629633D01*
X693097Y442787D01*
X692169Y440546D01*
X690168Y438546D01*
X628642Y377020D01*
X628625Y376999D01*
X628604Y376981D01*
X628497Y376843D01*
X628387Y376708D01*
X628374Y376684D01*
X628358Y376663D01*
X628280Y376506D01*
X628198Y376352D01*
X628190Y376327D01*
X628178Y376303D01*
X628133Y376133D01*
X628083Y375966D01*
X628081Y375940D01*
X628074Y375914D01*
X628047Y375583D01*
X628047Y333892D01*
X628049Y333865D01*
X628047Y333838D01*
X628069Y333665D01*
X628087Y333491D01*
X628094Y333465D01*
X628098Y333439D01*
X628154Y333273D01*
X628205Y333106D01*
X628218Y333082D01*
X628226Y333057D01*
X628313Y332906D01*
X628397Y332752D01*
X628414Y332731D01*
X628427Y332708D01*
X628596Y332509D01*
X629797Y329611D01*
X629797Y326489D01*
X628601Y323602D01*
X628497Y323469D01*
X628387Y323333D01*
X628374Y323310D01*
X628358Y323288D01*
X628280Y323132D01*
X628198Y322978D01*
X628190Y322952D01*
X628178Y322928D01*
X628133Y322759D01*
X628083Y322592D01*
X628081Y322565D01*
X628074Y322539D01*
X628047Y322208D01*
X628047Y195737D01*
X628050Y195706D01*
X628048Y195675D01*
X628070Y195506D01*
X628087Y195337D01*
X628096Y195307D01*
X628097Y195300D01*
X628097Y192787D01*
X627169Y190546D01*
X607654Y171031D01*
X605413Y170103D01*
X576051Y170103D01*
X576024Y170101D01*
X575998Y170103D01*
X575824Y170081D01*
X575650Y170063D01*
X575625Y170056D01*
X575598Y170052D01*
X575433Y169997D01*
X575265Y169945D01*
X575242Y169932D01*
X575217Y169924D01*
X575065Y169837D01*
X574911Y169753D01*
X574891Y169736D01*
X574868Y169723D01*
X574615Y169508D01*
X571831Y166725D01*
X571069Y166409D01*
X567723Y165023D01*
X563277Y165023D01*
G37*
%LPD*%
G36*
X135255Y10170D02*
X135255Y10170D01*
X135410Y10170D01*
X135572Y10190D01*
X135736Y10201D01*
X135888Y10230D01*
X136042Y10249D01*
X136201Y10289D01*
X136362Y10320D01*
X136509Y10368D01*
X136659Y10406D01*
X136812Y10466D01*
X136968Y10517D01*
X137108Y10582D01*
X137252Y10639D01*
X137396Y10718D01*
X137544Y10788D01*
X137675Y10870D01*
X137811Y10945D01*
X137944Y11041D01*
X138083Y11129D01*
X138202Y11227D01*
X138328Y11318D01*
X138447Y11430D01*
X138574Y11534D01*
X138680Y11647D01*
X138793Y11753D01*
X138898Y11879D01*
X139010Y11998D01*
X139102Y12124D01*
X139201Y12243D01*
X139289Y12381D01*
X139385Y12513D01*
X139460Y12649D01*
X139544Y12780D01*
X139614Y12928D01*
X139693Y13071D01*
X139750Y13215D01*
X139817Y13355D01*
X139868Y13511D01*
X139928Y13664D01*
X139967Y13814D01*
X140016Y13961D01*
X140047Y14122D01*
X140088Y14280D01*
X140107Y14434D01*
X140137Y14586D01*
X140147Y14745D01*
X140169Y14912D01*
X140169Y15081D01*
X140179Y15240D01*
X140179Y165100D01*
X140170Y165255D01*
X140170Y165410D01*
X140150Y165572D01*
X140139Y165736D01*
X140110Y165888D01*
X140091Y166042D01*
X140051Y166201D01*
X140020Y166362D01*
X139972Y166509D01*
X139934Y166659D01*
X139874Y166812D01*
X139823Y166968D01*
X139758Y167108D01*
X139701Y167252D01*
X139622Y167396D01*
X139552Y167544D01*
X139470Y167675D01*
X139395Y167811D01*
X139299Y167944D01*
X139211Y168083D01*
X139113Y168202D01*
X139022Y168328D01*
X138910Y168447D01*
X138806Y168574D01*
X138693Y168680D01*
X138587Y168793D01*
X138461Y168898D01*
X138342Y169010D01*
X138216Y169102D01*
X138097Y169201D01*
X137959Y169289D01*
X137827Y169385D01*
X137691Y169460D01*
X137560Y169544D01*
X137412Y169614D01*
X137269Y169693D01*
X137125Y169750D01*
X136985Y169817D01*
X136829Y169868D01*
X136676Y169928D01*
X136526Y169967D01*
X136379Y170016D01*
X136218Y170047D01*
X136060Y170088D01*
X135906Y170107D01*
X135754Y170137D01*
X135595Y170147D01*
X135428Y170169D01*
X135259Y170169D01*
X135100Y170179D01*
X15240Y170179D01*
X15085Y170170D01*
X14930Y170170D01*
X14768Y170150D01*
X14604Y170139D01*
X14452Y170110D01*
X14298Y170091D01*
X14139Y170051D01*
X13978Y170020D01*
X13831Y169972D01*
X13681Y169934D01*
X13528Y169874D01*
X13372Y169823D01*
X13232Y169758D01*
X13088Y169701D01*
X12944Y169622D01*
X12796Y169552D01*
X12665Y169470D01*
X12529Y169395D01*
X12396Y169299D01*
X12257Y169211D01*
X12138Y169113D01*
X12012Y169022D01*
X11893Y168910D01*
X11766Y168806D01*
X11660Y168693D01*
X11547Y168587D01*
X11442Y168461D01*
X11330Y168342D01*
X11238Y168216D01*
X11139Y168097D01*
X11051Y167959D01*
X10955Y167827D01*
X10880Y167691D01*
X10796Y167560D01*
X10726Y167412D01*
X10647Y167269D01*
X10590Y167125D01*
X10523Y166985D01*
X10472Y166829D01*
X10412Y166676D01*
X10373Y166526D01*
X10324Y166379D01*
X10293Y166218D01*
X10252Y166060D01*
X10233Y165906D01*
X10203Y165754D01*
X10193Y165595D01*
X10171Y165428D01*
X10171Y165259D01*
X10161Y165100D01*
X10161Y15240D01*
X10170Y15085D01*
X10170Y14930D01*
X10190Y14768D01*
X10201Y14604D01*
X10230Y14452D01*
X10249Y14298D01*
X10289Y14139D01*
X10320Y13978D01*
X10368Y13831D01*
X10406Y13681D01*
X10466Y13528D01*
X10517Y13372D01*
X10582Y13232D01*
X10639Y13088D01*
X10718Y12944D01*
X10788Y12796D01*
X10871Y12665D01*
X10945Y12529D01*
X11041Y12396D01*
X11129Y12257D01*
X11227Y12138D01*
X11318Y12012D01*
X11430Y11893D01*
X11534Y11766D01*
X11647Y11660D01*
X11753Y11547D01*
X11879Y11442D01*
X11998Y11330D01*
X12124Y11238D01*
X12243Y11139D01*
X12381Y11051D01*
X12513Y10955D01*
X12649Y10880D01*
X12780Y10796D01*
X12928Y10726D01*
X13071Y10647D01*
X13215Y10590D01*
X13355Y10523D01*
X13511Y10472D01*
X13664Y10412D01*
X13814Y10373D01*
X13961Y10324D01*
X14122Y10293D01*
X14280Y10252D01*
X14434Y10233D01*
X14586Y10203D01*
X14745Y10193D01*
X14912Y10171D01*
X15081Y10171D01*
X15240Y10161D01*
X135100Y10161D01*
X135255Y10170D01*
G37*
G36*
X134900Y669721D02*
X134900Y669721D01*
X135055Y669730D01*
X135210Y669730D01*
X135372Y669750D01*
X135536Y669761D01*
X135688Y669790D01*
X135842Y669809D01*
X136001Y669849D01*
X136162Y669880D01*
X136309Y669928D01*
X136459Y669966D01*
X136612Y670026D01*
X136768Y670077D01*
X136908Y670143D01*
X137052Y670199D01*
X137196Y670278D01*
X137344Y670348D01*
X137475Y670430D01*
X137611Y670505D01*
X137744Y670601D01*
X137883Y670689D01*
X138002Y670787D01*
X138128Y670878D01*
X138247Y670990D01*
X138374Y671094D01*
X138480Y671207D01*
X138593Y671313D01*
X138698Y671439D01*
X138810Y671558D01*
X138902Y671684D01*
X139001Y671803D01*
X139089Y671941D01*
X139185Y672074D01*
X139260Y672209D01*
X139344Y672340D01*
X139414Y672488D01*
X139493Y672631D01*
X139550Y672775D01*
X139617Y672915D01*
X139668Y673071D01*
X139728Y673224D01*
X139767Y673374D01*
X139816Y673521D01*
X139847Y673682D01*
X139888Y673840D01*
X139907Y673994D01*
X139937Y674146D01*
X139947Y674305D01*
X139969Y674472D01*
X139969Y674641D01*
X139979Y674800D01*
X139979Y824760D01*
X139970Y824915D01*
X139970Y825070D01*
X139950Y825232D01*
X139939Y825396D01*
X139910Y825548D01*
X139891Y825702D01*
X139851Y825861D01*
X139820Y826022D01*
X139772Y826169D01*
X139734Y826319D01*
X139674Y826472D01*
X139623Y826628D01*
X139558Y826768D01*
X139501Y826912D01*
X139422Y827056D01*
X139352Y827204D01*
X139270Y827335D01*
X139195Y827471D01*
X139099Y827604D01*
X139011Y827743D01*
X138913Y827862D01*
X138822Y827988D01*
X138710Y828107D01*
X138606Y828234D01*
X138493Y828340D01*
X138387Y828453D01*
X138261Y828558D01*
X138142Y828670D01*
X138016Y828762D01*
X137897Y828861D01*
X137759Y828949D01*
X137627Y829045D01*
X137491Y829120D01*
X137360Y829204D01*
X137212Y829274D01*
X137069Y829353D01*
X136925Y829410D01*
X136785Y829477D01*
X136629Y829528D01*
X136476Y829588D01*
X136326Y829627D01*
X136179Y829676D01*
X136018Y829707D01*
X135860Y829748D01*
X135706Y829767D01*
X135554Y829797D01*
X135395Y829807D01*
X135228Y829829D01*
X135059Y829829D01*
X134900Y829839D01*
X15240Y829839D01*
X15085Y829830D01*
X14930Y829830D01*
X14768Y829810D01*
X14604Y829799D01*
X14452Y829770D01*
X14298Y829751D01*
X14139Y829711D01*
X13978Y829680D01*
X13831Y829632D01*
X13681Y829594D01*
X13528Y829534D01*
X13372Y829483D01*
X13232Y829418D01*
X13088Y829361D01*
X12944Y829282D01*
X12796Y829212D01*
X12665Y829130D01*
X12529Y829055D01*
X12396Y828959D01*
X12257Y828871D01*
X12138Y828773D01*
X12012Y828682D01*
X11893Y828570D01*
X11766Y828466D01*
X11660Y828353D01*
X11547Y828247D01*
X11442Y828121D01*
X11330Y828002D01*
X11238Y827876D01*
X11139Y827757D01*
X11051Y827619D01*
X10955Y827487D01*
X10880Y827351D01*
X10796Y827220D01*
X10726Y827072D01*
X10647Y826929D01*
X10590Y826785D01*
X10523Y826645D01*
X10472Y826489D01*
X10412Y826336D01*
X10373Y826186D01*
X10324Y826039D01*
X10293Y825878D01*
X10252Y825720D01*
X10233Y825566D01*
X10203Y825414D01*
X10193Y825255D01*
X10171Y825088D01*
X10171Y824919D01*
X10161Y824760D01*
X10161Y674800D01*
X10170Y674645D01*
X10170Y674490D01*
X10190Y674328D01*
X10201Y674164D01*
X10230Y674012D01*
X10249Y673858D01*
X10289Y673699D01*
X10320Y673538D01*
X10368Y673391D01*
X10406Y673241D01*
X10466Y673088D01*
X10517Y672932D01*
X10582Y672792D01*
X10639Y672648D01*
X10718Y672504D01*
X10788Y672356D01*
X10870Y672225D01*
X10945Y672089D01*
X11041Y671956D01*
X11129Y671817D01*
X11227Y671698D01*
X11318Y671572D01*
X11430Y671453D01*
X11534Y671326D01*
X11647Y671220D01*
X11753Y671107D01*
X11879Y671002D01*
X11998Y670890D01*
X12124Y670798D01*
X12243Y670699D01*
X12381Y670611D01*
X12513Y670515D01*
X12649Y670440D01*
X12780Y670356D01*
X12928Y670286D01*
X13071Y670207D01*
X13215Y670150D01*
X13355Y670083D01*
X13511Y670032D01*
X13664Y669972D01*
X13814Y669933D01*
X13961Y669884D01*
X14122Y669853D01*
X14280Y669812D01*
X14434Y669793D01*
X14586Y669763D01*
X14745Y669753D01*
X14912Y669731D01*
X15081Y669731D01*
X15240Y669721D01*
X134900Y669721D01*
G37*
%LPC*%
G36*
X361570Y56775D02*
X361570Y56775D01*
X356342Y58941D01*
X352341Y62942D01*
X350175Y68170D01*
X350175Y73830D01*
X352341Y79058D01*
X354660Y81377D01*
X354677Y81398D01*
X354698Y81415D01*
X354805Y81553D01*
X354915Y81689D01*
X354928Y81712D01*
X354944Y81733D01*
X355022Y81890D01*
X355104Y82044D01*
X355112Y82070D01*
X355124Y82094D01*
X355169Y82263D01*
X355219Y82430D01*
X355221Y82457D01*
X355228Y82483D01*
X355255Y82813D01*
X355255Y93987D01*
X355253Y94013D01*
X355255Y94040D01*
X355233Y94214D01*
X355215Y94387D01*
X355208Y94413D01*
X355204Y94439D01*
X355149Y94605D01*
X355097Y94772D01*
X355084Y94796D01*
X355076Y94821D01*
X354989Y94973D01*
X354905Y95126D01*
X354888Y95147D01*
X354875Y95170D01*
X354660Y95423D01*
X352341Y97742D01*
X350175Y102970D01*
X350175Y108630D01*
X352341Y113858D01*
X355676Y117193D01*
X355693Y117214D01*
X355714Y117231D01*
X355821Y117369D01*
X355931Y117505D01*
X355944Y117528D01*
X355960Y117549D01*
X356038Y117706D01*
X356120Y117860D01*
X356128Y117886D01*
X356140Y117910D01*
X356185Y118079D01*
X356235Y118246D01*
X356237Y118273D01*
X356244Y118299D01*
X356271Y118629D01*
X356271Y460017D01*
X357509Y463005D01*
X400395Y505891D01*
X403383Y507129D01*
X564792Y507129D01*
X564818Y507131D01*
X564845Y507129D01*
X565019Y507151D01*
X565192Y507169D01*
X565218Y507176D01*
X565244Y507180D01*
X565410Y507235D01*
X565577Y507287D01*
X565601Y507300D01*
X565626Y507308D01*
X565778Y507395D01*
X565931Y507479D01*
X565952Y507496D01*
X565975Y507509D01*
X566228Y507724D01*
X624276Y565772D01*
X624293Y565793D01*
X624314Y565810D01*
X624421Y565948D01*
X624531Y566084D01*
X624544Y566107D01*
X624560Y566128D01*
X624638Y566285D01*
X624720Y566439D01*
X624728Y566465D01*
X624740Y566489D01*
X624785Y566658D01*
X624835Y566825D01*
X624837Y566852D01*
X624844Y566878D01*
X624871Y567208D01*
X624871Y629347D01*
X624869Y629373D01*
X624871Y629400D01*
X624849Y629574D01*
X624831Y629747D01*
X624823Y629773D01*
X624820Y629799D01*
X624765Y629965D01*
X624713Y630132D01*
X624700Y630156D01*
X624692Y630181D01*
X624605Y630333D01*
X624521Y630486D01*
X624504Y630507D01*
X624491Y630530D01*
X624276Y630783D01*
X624044Y631016D01*
X622435Y634899D01*
X622435Y639101D01*
X624044Y642984D01*
X627016Y645956D01*
X630899Y647565D01*
X632019Y647565D01*
X632032Y647566D01*
X632046Y647565D01*
X632232Y647586D01*
X632419Y647605D01*
X632432Y647609D01*
X632446Y647610D01*
X632625Y647668D01*
X632804Y647723D01*
X632816Y647729D01*
X632829Y647733D01*
X632994Y647825D01*
X633158Y647915D01*
X633169Y647923D01*
X633180Y647930D01*
X633323Y648051D01*
X633468Y648172D01*
X633476Y648183D01*
X633486Y648191D01*
X633602Y648339D01*
X633720Y648486D01*
X633726Y648498D01*
X633734Y648508D01*
X633819Y648678D01*
X633906Y648843D01*
X633909Y648856D01*
X633915Y648868D01*
X633965Y649051D01*
X634017Y649230D01*
X634018Y649244D01*
X634022Y649257D01*
X634034Y649445D01*
X634050Y649632D01*
X634048Y649645D01*
X634049Y649658D01*
X634025Y649846D01*
X634003Y650031D01*
X633999Y650044D01*
X633997Y650057D01*
X633895Y650373D01*
X632435Y653899D01*
X632435Y658101D01*
X634044Y661984D01*
X637016Y664956D01*
X640899Y666565D01*
X645101Y666565D01*
X648984Y664956D01*
X651956Y661984D01*
X653565Y658101D01*
X653565Y656336D01*
X653567Y656309D01*
X653565Y656282D01*
X653587Y656108D01*
X653605Y655935D01*
X653612Y655909D01*
X653616Y655883D01*
X653671Y655717D01*
X653723Y655550D01*
X653736Y655526D01*
X653744Y655501D01*
X653831Y655349D01*
X653915Y655196D01*
X653932Y655176D01*
X653945Y655152D01*
X654160Y654899D01*
X672030Y637029D01*
X673113Y634415D01*
X673113Y453585D01*
X672030Y450971D01*
X601529Y380470D01*
X598915Y379387D01*
X554169Y379387D01*
X554143Y379385D01*
X554116Y379387D01*
X553942Y379365D01*
X553769Y379347D01*
X553743Y379340D01*
X553717Y379336D01*
X553551Y379281D01*
X553384Y379229D01*
X553360Y379216D01*
X553335Y379208D01*
X553183Y379121D01*
X553030Y379037D01*
X553009Y379020D01*
X552986Y379007D01*
X552733Y378792D01*
X551484Y377544D01*
X547601Y375935D01*
X543399Y375935D01*
X539516Y377544D01*
X536544Y380516D01*
X534935Y384399D01*
X534935Y388601D01*
X536544Y392484D01*
X539516Y395456D01*
X543399Y397065D01*
X547601Y397065D01*
X551484Y395456D01*
X552733Y394208D01*
X552754Y394191D01*
X552771Y394170D01*
X552909Y394063D01*
X553045Y393953D01*
X553068Y393940D01*
X553089Y393924D01*
X553246Y393846D01*
X553400Y393764D01*
X553426Y393756D01*
X553450Y393744D01*
X553619Y393699D01*
X553786Y393649D01*
X553813Y393647D01*
X553839Y393640D01*
X554169Y393613D01*
X593712Y393613D01*
X593739Y393615D01*
X593766Y393613D01*
X593940Y393635D01*
X594113Y393653D01*
X594139Y393660D01*
X594165Y393664D01*
X594331Y393719D01*
X594498Y393771D01*
X594522Y393784D01*
X594547Y393792D01*
X594699Y393879D01*
X594852Y393963D01*
X594872Y393980D01*
X594896Y393993D01*
X595149Y394208D01*
X658292Y457351D01*
X658309Y457372D01*
X658330Y457389D01*
X658437Y457527D01*
X658547Y457663D01*
X658560Y457686D01*
X658576Y457708D01*
X658654Y457864D01*
X658736Y458018D01*
X658744Y458044D01*
X658756Y458068D01*
X658801Y458237D01*
X658851Y458404D01*
X658853Y458431D01*
X658860Y458457D01*
X658887Y458788D01*
X658887Y629212D01*
X658885Y629239D01*
X658887Y629266D01*
X658865Y629440D01*
X658847Y629613D01*
X658840Y629639D01*
X658836Y629665D01*
X658781Y629831D01*
X658729Y629998D01*
X658716Y630022D01*
X658708Y630047D01*
X658621Y630199D01*
X658537Y630352D01*
X658520Y630372D01*
X658507Y630396D01*
X658292Y630649D01*
X646349Y642593D01*
X646345Y642595D01*
X646342Y642599D01*
X646189Y642723D01*
X646037Y642848D01*
X646033Y642850D01*
X646030Y642853D01*
X645853Y642945D01*
X645681Y643036D01*
X645677Y643038D01*
X645673Y643040D01*
X645483Y643095D01*
X645295Y643151D01*
X645291Y643151D01*
X645287Y643153D01*
X645094Y643169D01*
X644894Y643187D01*
X644890Y643187D01*
X644886Y643187D01*
X644695Y643166D01*
X644494Y643144D01*
X644490Y643143D01*
X644485Y643142D01*
X644303Y643083D01*
X644110Y643023D01*
X644106Y643020D01*
X644102Y643019D01*
X643930Y642923D01*
X643758Y642828D01*
X643755Y642825D01*
X643751Y642823D01*
X643599Y642693D01*
X643451Y642567D01*
X643448Y642564D01*
X643445Y642561D01*
X643323Y642405D01*
X643201Y642251D01*
X643199Y642247D01*
X643197Y642244D01*
X643108Y642067D01*
X643019Y641892D01*
X643018Y641888D01*
X643016Y641884D01*
X642964Y641694D01*
X642911Y641504D01*
X642911Y641500D01*
X642910Y641496D01*
X642896Y641300D01*
X642882Y641103D01*
X642882Y641099D01*
X642882Y641094D01*
X642908Y640898D01*
X642932Y640704D01*
X642933Y640699D01*
X642934Y640695D01*
X643036Y640379D01*
X643565Y639101D01*
X643565Y634899D01*
X641956Y631016D01*
X641724Y630783D01*
X641707Y630762D01*
X641686Y630745D01*
X641579Y630607D01*
X641469Y630471D01*
X641456Y630448D01*
X641440Y630427D01*
X641362Y630270D01*
X641280Y630116D01*
X641272Y630090D01*
X641260Y630066D01*
X641215Y629897D01*
X641165Y629730D01*
X641163Y629703D01*
X641156Y629677D01*
X641129Y629347D01*
X641129Y561383D01*
X639891Y558395D01*
X573605Y492109D01*
X570617Y490871D01*
X409208Y490871D01*
X409182Y490869D01*
X409155Y490871D01*
X408981Y490849D01*
X408808Y490831D01*
X408782Y490824D01*
X408756Y490820D01*
X408590Y490765D01*
X408423Y490713D01*
X408399Y490700D01*
X408374Y490692D01*
X408222Y490605D01*
X408069Y490521D01*
X408048Y490504D01*
X408025Y490491D01*
X407772Y490276D01*
X373124Y455628D01*
X373107Y455607D01*
X373086Y455590D01*
X372979Y455452D01*
X372869Y455316D01*
X372856Y455293D01*
X372840Y455272D01*
X372762Y455115D01*
X372680Y454961D01*
X372672Y454935D01*
X372660Y454911D01*
X372615Y454742D01*
X372565Y454575D01*
X372563Y454548D01*
X372556Y454522D01*
X372529Y454192D01*
X372529Y118629D01*
X372531Y118603D01*
X372529Y118576D01*
X372551Y118402D01*
X372569Y118229D01*
X372576Y118203D01*
X372580Y118177D01*
X372635Y118011D01*
X372687Y117844D01*
X372700Y117820D01*
X372708Y117795D01*
X372795Y117643D01*
X372879Y117490D01*
X372896Y117469D01*
X372909Y117446D01*
X373124Y117193D01*
X376459Y113858D01*
X378625Y108630D01*
X378625Y102970D01*
X376459Y97742D01*
X374140Y95423D01*
X374123Y95402D01*
X374102Y95385D01*
X373995Y95247D01*
X373885Y95111D01*
X373872Y95088D01*
X373856Y95067D01*
X373778Y94910D01*
X373696Y94756D01*
X373688Y94730D01*
X373676Y94706D01*
X373631Y94537D01*
X373581Y94370D01*
X373579Y94343D01*
X373572Y94317D01*
X373545Y93987D01*
X373545Y82813D01*
X373547Y82787D01*
X373545Y82760D01*
X373567Y82586D01*
X373585Y82413D01*
X373592Y82387D01*
X373596Y82361D01*
X373651Y82195D01*
X373703Y82028D01*
X373716Y82004D01*
X373724Y81979D01*
X373811Y81827D01*
X373895Y81674D01*
X373912Y81653D01*
X373925Y81630D01*
X374140Y81377D01*
X376459Y79058D01*
X378625Y73830D01*
X378625Y68170D01*
X376459Y62942D01*
X372458Y58941D01*
X372004Y58753D01*
X372003Y58753D01*
X367230Y56775D01*
X361570Y56775D01*
G37*
%LPD*%
G36*
X197987Y432354D02*
X197987Y432354D01*
X198051Y432353D01*
X198187Y432377D01*
X198323Y432393D01*
X198384Y432413D01*
X198447Y432425D01*
X198575Y432475D01*
X198706Y432518D01*
X198762Y432550D01*
X198822Y432573D01*
X198937Y432648D01*
X199057Y432716D01*
X199105Y432758D01*
X199159Y432793D01*
X199257Y432889D01*
X199362Y432979D01*
X199401Y433030D01*
X199447Y433075D01*
X199524Y433189D01*
X199608Y433297D01*
X199637Y433355D01*
X199673Y433408D01*
X199726Y433534D01*
X199788Y433658D01*
X199804Y433720D01*
X199829Y433779D01*
X199856Y433913D01*
X199892Y434046D01*
X199898Y434120D01*
X199909Y434173D01*
X199909Y434253D01*
X199919Y434377D01*
X199919Y565988D01*
X199917Y566006D01*
X199919Y566024D01*
X199898Y566206D01*
X199879Y566389D01*
X199874Y566406D01*
X199872Y566423D01*
X199815Y566598D01*
X199761Y566774D01*
X199753Y566789D01*
X199747Y566806D01*
X199657Y566966D01*
X199569Y567128D01*
X199558Y567141D01*
X199549Y567157D01*
X199429Y567296D01*
X199312Y567437D01*
X199298Y567448D01*
X199286Y567462D01*
X199141Y567574D01*
X198998Y567689D01*
X198982Y567697D01*
X198968Y567708D01*
X198803Y567790D01*
X198641Y567875D01*
X198624Y567880D01*
X198608Y567888D01*
X198429Y567935D01*
X198254Y567986D01*
X198236Y567988D01*
X198219Y567992D01*
X197888Y568019D01*
X182535Y568019D01*
X182504Y568016D01*
X182472Y568018D01*
X182303Y567996D01*
X182134Y567979D01*
X182104Y567970D01*
X182073Y567966D01*
X181757Y567865D01*
X175998Y565479D01*
X152802Y565479D01*
X145451Y568524D01*
X139824Y574151D01*
X136779Y581502D01*
X136779Y604698D01*
X139824Y612049D01*
X142326Y614552D01*
X142332Y614559D01*
X142339Y614564D01*
X142459Y614714D01*
X142581Y614863D01*
X142586Y614871D01*
X142591Y614878D01*
X142680Y615048D01*
X142770Y615219D01*
X142773Y615228D01*
X142777Y615235D01*
X142830Y615420D01*
X142885Y615605D01*
X142886Y615614D01*
X142888Y615622D01*
X142904Y615813D01*
X142921Y616006D01*
X142920Y616015D01*
X142921Y616024D01*
X142899Y616213D01*
X142878Y616406D01*
X142875Y616415D01*
X142874Y616423D01*
X142815Y616605D01*
X142756Y616790D01*
X142752Y616798D01*
X142749Y616806D01*
X142654Y616975D01*
X142562Y617142D01*
X142556Y617149D01*
X142551Y617157D01*
X142425Y617303D01*
X142301Y617449D01*
X142294Y617455D01*
X142288Y617462D01*
X142137Y617579D01*
X141985Y617699D01*
X141977Y617703D01*
X141970Y617708D01*
X141798Y617794D01*
X141626Y617881D01*
X141618Y617884D01*
X141610Y617888D01*
X141424Y617938D01*
X141238Y617989D01*
X141229Y617990D01*
X141221Y617992D01*
X140890Y618019D01*
X92712Y618019D01*
X92694Y618017D01*
X92676Y618019D01*
X92494Y617998D01*
X92311Y617979D01*
X92294Y617974D01*
X92277Y617972D01*
X92102Y617915D01*
X91926Y617861D01*
X91911Y617853D01*
X91894Y617847D01*
X91734Y617757D01*
X91572Y617669D01*
X91559Y617658D01*
X91543Y617649D01*
X91404Y617529D01*
X91263Y617412D01*
X91252Y617398D01*
X91238Y617386D01*
X91126Y617241D01*
X91011Y617098D01*
X91003Y617082D01*
X90992Y617068D01*
X90910Y616903D01*
X90825Y616741D01*
X90820Y616724D01*
X90812Y616708D01*
X90765Y616529D01*
X90714Y616354D01*
X90712Y616336D01*
X90708Y616319D01*
X90681Y615988D01*
X90681Y502449D01*
X90690Y502358D01*
X90689Y502267D01*
X90710Y502158D01*
X90721Y502048D01*
X90747Y501961D01*
X90764Y501872D01*
X90806Y501769D01*
X90839Y501663D01*
X90882Y501583D01*
X90916Y501499D01*
X90978Y501407D01*
X91031Y501309D01*
X91089Y501239D01*
X91139Y501164D01*
X91217Y501085D01*
X91288Y501000D01*
X91359Y500943D01*
X91424Y500879D01*
X91537Y500800D01*
X91602Y500748D01*
X91644Y500726D01*
X91696Y500690D01*
X98459Y496785D01*
X104557Y490687D01*
X108869Y483219D01*
X111101Y474890D01*
X111101Y466266D01*
X108869Y457937D01*
X104557Y450469D01*
X104197Y450108D01*
X104191Y450101D01*
X104184Y450096D01*
X104064Y449946D01*
X103942Y449797D01*
X103938Y449789D01*
X103932Y449782D01*
X103844Y449612D01*
X103753Y449441D01*
X103751Y449432D01*
X103746Y449425D01*
X103693Y449239D01*
X103638Y449055D01*
X103638Y449046D01*
X103635Y449038D01*
X103619Y448847D01*
X103602Y448654D01*
X103603Y448645D01*
X103602Y448636D01*
X103624Y448447D01*
X103645Y448254D01*
X103648Y448245D01*
X103649Y448237D01*
X103709Y448054D01*
X103767Y447870D01*
X103771Y447862D01*
X103774Y447854D01*
X103869Y447685D01*
X103962Y447518D01*
X103967Y447511D01*
X103972Y447503D01*
X104098Y447358D01*
X104222Y447211D01*
X104229Y447205D01*
X104235Y447198D01*
X104386Y447081D01*
X104538Y446961D01*
X104546Y446957D01*
X104553Y446952D01*
X104725Y446866D01*
X104897Y446779D01*
X104906Y446776D01*
X104914Y446772D01*
X105102Y446722D01*
X105285Y446671D01*
X105294Y446670D01*
X105302Y446668D01*
X105633Y446641D01*
X146715Y446641D01*
X146878Y446657D01*
X147042Y446667D01*
X147079Y446677D01*
X147116Y446681D01*
X147272Y446729D01*
X147431Y446771D01*
X147469Y446789D01*
X147501Y446799D01*
X147578Y446840D01*
X147731Y446913D01*
X154548Y450849D01*
X162542Y452991D01*
X170818Y452991D01*
X178812Y450849D01*
X185979Y446711D01*
X191831Y440859D01*
X196001Y433635D01*
X196015Y433592D01*
X196045Y433535D01*
X196068Y433475D01*
X196141Y433359D01*
X196207Y433238D01*
X196248Y433188D01*
X196282Y433134D01*
X196376Y433034D01*
X196464Y432928D01*
X196514Y432888D01*
X196558Y432842D01*
X196671Y432762D01*
X196778Y432676D01*
X196835Y432647D01*
X196887Y432610D01*
X197013Y432554D01*
X197135Y432491D01*
X197197Y432473D01*
X197256Y432447D01*
X197390Y432417D01*
X197522Y432379D01*
X197586Y432374D01*
X197649Y432360D01*
X197787Y432357D01*
X197924Y432346D01*
X197987Y432354D01*
G37*
G36*
X255018Y177971D02*
X255018Y177971D01*
X255036Y177969D01*
X255218Y177990D01*
X255401Y178009D01*
X255418Y178014D01*
X255435Y178016D01*
X255610Y178073D01*
X255786Y178127D01*
X255801Y178135D01*
X255818Y178141D01*
X255978Y178231D01*
X256140Y178319D01*
X256153Y178330D01*
X256169Y178339D01*
X256308Y178459D01*
X256449Y178576D01*
X256460Y178590D01*
X256474Y178602D01*
X256586Y178747D01*
X256701Y178890D01*
X256709Y178906D01*
X256720Y178920D01*
X256802Y179085D01*
X256887Y179247D01*
X256892Y179264D01*
X256900Y179281D01*
X256947Y179459D01*
X256998Y179634D01*
X257000Y179652D01*
X257004Y179669D01*
X257031Y180000D01*
X257031Y660000D01*
X257029Y660018D01*
X257031Y660036D01*
X257010Y660218D01*
X256991Y660401D01*
X256986Y660418D01*
X256984Y660435D01*
X256927Y660610D01*
X256873Y660786D01*
X256865Y660801D01*
X256859Y660818D01*
X256769Y660978D01*
X256681Y661140D01*
X256670Y661153D01*
X256661Y661169D01*
X256541Y661308D01*
X256424Y661449D01*
X256410Y661460D01*
X256398Y661474D01*
X256253Y661586D01*
X256110Y661701D01*
X256094Y661709D01*
X256080Y661720D01*
X255915Y661802D01*
X255753Y661887D01*
X255736Y661892D01*
X255720Y661900D01*
X255541Y661947D01*
X255366Y661998D01*
X255348Y662000D01*
X255331Y662004D01*
X255000Y662031D01*
X192023Y662031D01*
X192010Y662030D01*
X191997Y662031D01*
X191810Y662010D01*
X191623Y661991D01*
X191610Y661987D01*
X191597Y661986D01*
X191417Y661928D01*
X191238Y661873D01*
X191226Y661867D01*
X191213Y661863D01*
X191049Y661771D01*
X190884Y661681D01*
X190874Y661673D01*
X190862Y661666D01*
X190719Y661544D01*
X190575Y661424D01*
X190566Y661413D01*
X190556Y661405D01*
X190440Y661257D01*
X190322Y661110D01*
X190316Y661098D01*
X190308Y661088D01*
X190223Y660919D01*
X190137Y660753D01*
X190133Y660740D01*
X190127Y660728D01*
X190077Y660547D01*
X190025Y660366D01*
X190024Y660352D01*
X190021Y660339D01*
X190008Y660151D01*
X189992Y659964D01*
X189994Y659951D01*
X189993Y659938D01*
X190018Y659750D01*
X190039Y659565D01*
X190043Y659552D01*
X190045Y659539D01*
X190147Y659223D01*
X192021Y654698D01*
X192021Y631502D01*
X188976Y624151D01*
X186474Y621648D01*
X186468Y621641D01*
X186461Y621636D01*
X186341Y621486D01*
X186219Y621337D01*
X186214Y621329D01*
X186209Y621322D01*
X186120Y621152D01*
X186030Y620981D01*
X186027Y620972D01*
X186023Y620965D01*
X185970Y620780D01*
X185915Y620595D01*
X185914Y620586D01*
X185912Y620578D01*
X185896Y620387D01*
X185879Y620194D01*
X185880Y620185D01*
X185879Y620176D01*
X185901Y619987D01*
X185922Y619794D01*
X185925Y619785D01*
X185926Y619777D01*
X185985Y619595D01*
X186044Y619410D01*
X186048Y619402D01*
X186051Y619394D01*
X186146Y619225D01*
X186238Y619058D01*
X186244Y619051D01*
X186249Y619043D01*
X186375Y618897D01*
X186499Y618751D01*
X186506Y618745D01*
X186512Y618738D01*
X186663Y618621D01*
X186815Y618501D01*
X186823Y618497D01*
X186830Y618492D01*
X187002Y618406D01*
X187174Y618319D01*
X187182Y618316D01*
X187190Y618312D01*
X187376Y618262D01*
X187562Y618211D01*
X187571Y618210D01*
X187579Y618208D01*
X187910Y618181D01*
X213602Y618181D01*
X219981Y616472D01*
X225700Y613170D01*
X230559Y608311D01*
X240211Y598659D01*
X245070Y593800D01*
X248372Y588081D01*
X250081Y581702D01*
X250081Y231298D01*
X248372Y224919D01*
X245070Y219200D01*
X225440Y199570D01*
X219721Y196268D01*
X213342Y194559D01*
X186645Y194559D01*
X186482Y194543D01*
X186318Y194533D01*
X186281Y194523D01*
X186244Y194519D01*
X186088Y194471D01*
X185929Y194429D01*
X185891Y194411D01*
X185859Y194401D01*
X185782Y194360D01*
X185629Y194287D01*
X178812Y190351D01*
X170818Y188209D01*
X162542Y188209D01*
X154548Y190351D01*
X147800Y194247D01*
X147651Y194315D01*
X147504Y194388D01*
X147468Y194397D01*
X147433Y194413D01*
X147274Y194449D01*
X147115Y194492D01*
X147073Y194496D01*
X147041Y194503D01*
X146954Y194505D01*
X146785Y194519D01*
X85698Y194519D01*
X79319Y196228D01*
X73600Y199530D01*
X45330Y227800D01*
X42028Y233519D01*
X40319Y239898D01*
X40319Y337251D01*
X40310Y337342D01*
X40311Y337433D01*
X40290Y337542D01*
X40279Y337652D01*
X40253Y337739D01*
X40236Y337828D01*
X40194Y337931D01*
X40161Y338037D01*
X40118Y338117D01*
X40084Y338201D01*
X40022Y338293D01*
X39969Y338391D01*
X39911Y338461D01*
X39861Y338536D01*
X39783Y338615D01*
X39712Y338700D01*
X39641Y338757D01*
X39576Y338821D01*
X39463Y338900D01*
X39398Y338952D01*
X39356Y338974D01*
X39304Y339010D01*
X32541Y342915D01*
X26443Y349013D01*
X23791Y353606D01*
X23748Y353665D01*
X23713Y353730D01*
X23631Y353828D01*
X23556Y353933D01*
X23503Y353983D01*
X23456Y354039D01*
X23356Y354119D01*
X23261Y354207D01*
X23199Y354245D01*
X23142Y354291D01*
X23028Y354350D01*
X22918Y354418D01*
X22850Y354443D01*
X22785Y354477D01*
X22661Y354512D01*
X22541Y354557D01*
X22468Y354568D01*
X22398Y354588D01*
X22269Y354599D01*
X22143Y354618D01*
X22070Y354615D01*
X21996Y354621D01*
X21869Y354606D01*
X21740Y354600D01*
X21669Y354583D01*
X21597Y354574D01*
X21474Y354534D01*
X21350Y354503D01*
X21284Y354472D01*
X21214Y354449D01*
X21102Y354386D01*
X20986Y354331D01*
X20927Y354287D01*
X20863Y354251D01*
X20766Y354167D01*
X20663Y354091D01*
X20614Y354036D01*
X20558Y353988D01*
X20480Y353887D01*
X20394Y353791D01*
X20357Y353728D01*
X20312Y353670D01*
X20254Y353555D01*
X20189Y353444D01*
X20165Y353375D01*
X20132Y353310D01*
X20099Y353185D01*
X20057Y353064D01*
X20047Y352992D01*
X20028Y352921D01*
X20014Y352751D01*
X20002Y352665D01*
X20004Y352632D01*
X20001Y352590D01*
X20001Y180000D01*
X20003Y179982D01*
X20001Y179964D01*
X20022Y179782D01*
X20041Y179599D01*
X20046Y179582D01*
X20048Y179565D01*
X20105Y179390D01*
X20159Y179214D01*
X20167Y179199D01*
X20173Y179182D01*
X20263Y179022D01*
X20351Y178860D01*
X20362Y178847D01*
X20371Y178831D01*
X20491Y178692D01*
X20608Y178551D01*
X20622Y178540D01*
X20634Y178527D01*
X20779Y178414D01*
X20922Y178299D01*
X20938Y178291D01*
X20952Y178280D01*
X21117Y178198D01*
X21279Y178113D01*
X21296Y178108D01*
X21312Y178100D01*
X21491Y178053D01*
X21666Y178002D01*
X21684Y178000D01*
X21701Y177996D01*
X22032Y177969D01*
X255000Y177969D01*
X255018Y177971D01*
G37*
%LPC*%
G36*
X724791Y405935D02*
X724791Y405935D01*
X723298Y406554D01*
X722154Y407698D01*
X721535Y409191D01*
X721535Y590809D01*
X722154Y592302D01*
X723298Y593446D01*
X724791Y594065D01*
X786409Y594065D01*
X787902Y593446D01*
X789046Y592302D01*
X789665Y590809D01*
X789665Y409191D01*
X789046Y407698D01*
X787902Y406554D01*
X786409Y405935D01*
X724791Y405935D01*
G37*
%LPD*%
%LPC*%
G36*
X230070Y23975D02*
X230070Y23975D01*
X224842Y26141D01*
X220841Y30142D01*
X218675Y35370D01*
X218675Y41030D01*
X220841Y46258D01*
X224842Y50259D01*
X226495Y50944D01*
X230070Y52425D01*
X235730Y52425D01*
X240958Y50259D01*
X244293Y46924D01*
X244314Y46907D01*
X244331Y46886D01*
X244469Y46779D01*
X244605Y46669D01*
X244628Y46656D01*
X244649Y46640D01*
X244806Y46562D01*
X244960Y46480D01*
X244986Y46472D01*
X245010Y46460D01*
X245179Y46415D01*
X245346Y46365D01*
X245373Y46363D01*
X245399Y46356D01*
X245729Y46329D01*
X261771Y46329D01*
X261797Y46331D01*
X261824Y46329D01*
X261998Y46351D01*
X262171Y46369D01*
X262197Y46376D01*
X262223Y46380D01*
X262389Y46435D01*
X262556Y46487D01*
X262580Y46500D01*
X262605Y46508D01*
X262757Y46595D01*
X262910Y46679D01*
X262931Y46696D01*
X262954Y46709D01*
X263207Y46924D01*
X266542Y50259D01*
X268195Y50944D01*
X271770Y52425D01*
X277430Y52425D01*
X282658Y50259D01*
X284977Y47940D01*
X284998Y47923D01*
X285015Y47902D01*
X285153Y47795D01*
X285289Y47685D01*
X285312Y47672D01*
X285333Y47656D01*
X285490Y47578D01*
X285644Y47496D01*
X285670Y47488D01*
X285694Y47476D01*
X285863Y47431D01*
X286030Y47381D01*
X286057Y47379D01*
X286083Y47372D01*
X286413Y47345D01*
X312927Y47345D01*
X312936Y47346D01*
X312945Y47345D01*
X313137Y47366D01*
X313328Y47385D01*
X313336Y47387D01*
X313345Y47388D01*
X313528Y47446D01*
X313713Y47503D01*
X313721Y47507D01*
X313729Y47510D01*
X313898Y47603D01*
X314067Y47695D01*
X314074Y47700D01*
X314081Y47705D01*
X314229Y47830D01*
X314376Y47952D01*
X314382Y47959D01*
X314388Y47965D01*
X314508Y48117D01*
X314628Y48266D01*
X314632Y48274D01*
X314638Y48281D01*
X314725Y48453D01*
X314814Y48623D01*
X314816Y48632D01*
X314820Y48640D01*
X314872Y48826D01*
X314925Y49010D01*
X314926Y49019D01*
X314928Y49028D01*
X314943Y49220D01*
X314958Y49412D01*
X314957Y49420D01*
X314958Y49429D01*
X314933Y49622D01*
X314911Y49811D01*
X314909Y49820D01*
X314907Y49829D01*
X314846Y50012D01*
X314786Y50194D01*
X314782Y50202D01*
X314779Y50210D01*
X314684Y50376D01*
X314589Y50545D01*
X314583Y50552D01*
X314578Y50559D01*
X314364Y50812D01*
X312663Y52513D01*
X312663Y54059D01*
X321300Y54059D01*
X329937Y54059D01*
X329937Y52513D01*
X328346Y50922D01*
X328341Y50915D01*
X328334Y50910D01*
X328214Y50760D01*
X328091Y50611D01*
X328087Y50603D01*
X328082Y50596D01*
X327993Y50426D01*
X327903Y50255D01*
X327900Y50246D01*
X327896Y50239D01*
X327843Y50054D01*
X327788Y49869D01*
X327787Y49860D01*
X327785Y49852D01*
X327769Y49661D01*
X327752Y49468D01*
X327753Y49459D01*
X327752Y49450D01*
X327774Y49261D01*
X327795Y49068D01*
X327798Y49059D01*
X327799Y49051D01*
X327858Y48869D01*
X327916Y48684D01*
X327921Y48676D01*
X327924Y48668D01*
X328019Y48499D01*
X328111Y48332D01*
X328117Y48325D01*
X328121Y48317D01*
X328247Y48171D01*
X328372Y48025D01*
X328379Y48019D01*
X328385Y48012D01*
X328536Y47895D01*
X328688Y47775D01*
X328696Y47771D01*
X328703Y47766D01*
X328875Y47680D01*
X329047Y47593D01*
X329055Y47590D01*
X329063Y47586D01*
X329249Y47536D01*
X329435Y47485D01*
X329443Y47484D01*
X329452Y47482D01*
X329783Y47455D01*
X427081Y47455D01*
X427107Y47457D01*
X427134Y47455D01*
X427308Y47477D01*
X427481Y47495D01*
X427507Y47502D01*
X427533Y47506D01*
X427699Y47561D01*
X427866Y47613D01*
X427890Y47626D01*
X427915Y47634D01*
X428067Y47721D01*
X428220Y47805D01*
X428241Y47822D01*
X428264Y47835D01*
X428517Y48050D01*
X430860Y50393D01*
X430877Y50414D01*
X430898Y50431D01*
X431005Y50569D01*
X431115Y50704D01*
X431128Y50728D01*
X431144Y50749D01*
X431222Y50906D01*
X431304Y51060D01*
X431312Y51086D01*
X431324Y51110D01*
X431369Y51279D01*
X431419Y51446D01*
X431421Y51473D01*
X431428Y51499D01*
X431455Y51829D01*
X431455Y59187D01*
X431453Y59213D01*
X431455Y59240D01*
X431433Y59414D01*
X431415Y59587D01*
X431408Y59613D01*
X431404Y59639D01*
X431348Y59805D01*
X431297Y59972D01*
X431284Y59996D01*
X431276Y60021D01*
X431189Y60172D01*
X431105Y60326D01*
X431088Y60347D01*
X431075Y60370D01*
X430860Y60623D01*
X428541Y62942D01*
X426375Y68170D01*
X426375Y73830D01*
X428541Y79058D01*
X432542Y83059D01*
X437770Y85225D01*
X443430Y85225D01*
X448658Y83059D01*
X450977Y80740D01*
X450998Y80723D01*
X451015Y80702D01*
X451153Y80595D01*
X451289Y80485D01*
X451312Y80472D01*
X451333Y80456D01*
X451490Y80378D01*
X451644Y80296D01*
X451670Y80288D01*
X451694Y80276D01*
X451863Y80231D01*
X452030Y80181D01*
X452057Y80179D01*
X452083Y80172D01*
X452413Y80145D01*
X463371Y80145D01*
X463397Y80147D01*
X463424Y80145D01*
X463598Y80167D01*
X463771Y80185D01*
X463797Y80192D01*
X463823Y80196D01*
X463989Y80251D01*
X464156Y80303D01*
X464180Y80316D01*
X464205Y80324D01*
X464357Y80411D01*
X464510Y80495D01*
X464531Y80512D01*
X464554Y80525D01*
X464807Y80740D01*
X466950Y82883D01*
X466967Y82904D01*
X466988Y82921D01*
X467095Y83059D01*
X467205Y83194D01*
X467218Y83218D01*
X467234Y83239D01*
X467312Y83396D01*
X467394Y83550D01*
X467402Y83576D01*
X467414Y83600D01*
X467459Y83769D01*
X467509Y83936D01*
X467511Y83963D01*
X467518Y83989D01*
X467545Y84319D01*
X467545Y206031D01*
X467543Y206057D01*
X467545Y206084D01*
X467523Y206258D01*
X467505Y206431D01*
X467498Y206457D01*
X467494Y206483D01*
X467438Y206649D01*
X467387Y206816D01*
X467374Y206840D01*
X467366Y206865D01*
X467279Y207017D01*
X467195Y207170D01*
X467178Y207191D01*
X467165Y207214D01*
X466950Y207467D01*
X463554Y210863D01*
X461195Y216558D01*
X461195Y222722D01*
X463554Y228417D01*
X467913Y232776D01*
X473608Y235135D01*
X479772Y235135D01*
X485467Y232776D01*
X489826Y228417D01*
X492185Y222722D01*
X492185Y216558D01*
X489826Y210863D01*
X486430Y207467D01*
X486413Y207446D01*
X486392Y207429D01*
X486285Y207291D01*
X486175Y207155D01*
X486162Y207132D01*
X486146Y207111D01*
X486068Y206954D01*
X485986Y206800D01*
X485978Y206774D01*
X485966Y206750D01*
X485921Y206581D01*
X485871Y206414D01*
X485869Y206387D01*
X485862Y206361D01*
X485835Y206031D01*
X485835Y77871D01*
X484443Y74510D01*
X473180Y63247D01*
X472137Y62815D01*
X472136Y62815D01*
X469819Y61855D01*
X452413Y61855D01*
X452387Y61853D01*
X452360Y61855D01*
X452186Y61833D01*
X452013Y61815D01*
X451987Y61808D01*
X451961Y61804D01*
X451795Y61749D01*
X451628Y61697D01*
X451604Y61684D01*
X451579Y61676D01*
X451427Y61589D01*
X451274Y61505D01*
X451253Y61488D01*
X451230Y61475D01*
X450977Y61260D01*
X450340Y60623D01*
X450323Y60602D01*
X450302Y60585D01*
X450195Y60447D01*
X450085Y60311D01*
X450072Y60288D01*
X450056Y60267D01*
X449978Y60110D01*
X449896Y59956D01*
X449888Y59930D01*
X449876Y59906D01*
X449831Y59737D01*
X449781Y59570D01*
X449779Y59543D01*
X449772Y59517D01*
X449745Y59187D01*
X449745Y45381D01*
X448353Y42020D01*
X436890Y30557D01*
X433529Y29165D01*
X326178Y29165D01*
X326147Y29162D01*
X326116Y29164D01*
X325946Y29142D01*
X325777Y29125D01*
X325748Y29116D01*
X325716Y29112D01*
X325401Y29011D01*
X323321Y28149D01*
X319279Y28149D01*
X317465Y28901D01*
X317435Y28910D01*
X317407Y28924D01*
X317243Y28968D01*
X317080Y29017D01*
X317048Y29020D01*
X317018Y29028D01*
X316688Y29055D01*
X286413Y29055D01*
X286387Y29053D01*
X286360Y29055D01*
X286186Y29033D01*
X286013Y29015D01*
X285987Y29008D01*
X285961Y29004D01*
X285795Y28949D01*
X285628Y28897D01*
X285604Y28884D01*
X285579Y28876D01*
X285427Y28789D01*
X285274Y28705D01*
X285253Y28688D01*
X285230Y28675D01*
X284977Y28460D01*
X282658Y26141D01*
X277430Y23975D01*
X271770Y23975D01*
X266542Y26141D01*
X263207Y29476D01*
X263186Y29493D01*
X263169Y29514D01*
X263031Y29621D01*
X262895Y29731D01*
X262872Y29744D01*
X262851Y29760D01*
X262694Y29838D01*
X262540Y29920D01*
X262514Y29928D01*
X262490Y29940D01*
X262321Y29985D01*
X262154Y30035D01*
X262127Y30037D01*
X262101Y30044D01*
X261771Y30071D01*
X245729Y30071D01*
X245703Y30069D01*
X245676Y30071D01*
X245502Y30049D01*
X245329Y30031D01*
X245303Y30024D01*
X245277Y30020D01*
X245111Y29964D01*
X244944Y29913D01*
X244920Y29900D01*
X244895Y29892D01*
X244743Y29805D01*
X244590Y29721D01*
X244569Y29704D01*
X244546Y29691D01*
X244293Y29476D01*
X240958Y26141D01*
X235730Y23975D01*
X230070Y23975D01*
G37*
%LPD*%
G36*
X146809Y244697D02*
X146809Y244697D01*
X146973Y244707D01*
X147009Y244717D01*
X147047Y244721D01*
X147203Y244769D01*
X147362Y244811D01*
X147400Y244829D01*
X147432Y244839D01*
X147508Y244880D01*
X147662Y244953D01*
X154548Y248929D01*
X161067Y250676D01*
X161136Y250701D01*
X161207Y250718D01*
X161324Y250772D01*
X161444Y250818D01*
X161506Y250857D01*
X161573Y250887D01*
X161676Y250963D01*
X161785Y251032D01*
X161838Y251082D01*
X161897Y251125D01*
X161984Y251220D01*
X162078Y251308D01*
X162120Y251368D01*
X162169Y251422D01*
X162235Y251532D01*
X162310Y251637D01*
X162339Y251704D01*
X162377Y251767D01*
X162420Y251888D01*
X162472Y252006D01*
X162488Y252077D01*
X162513Y252146D01*
X162531Y252273D01*
X162559Y252399D01*
X162560Y252472D01*
X162571Y252545D01*
X162564Y252673D01*
X162566Y252801D01*
X162553Y252874D01*
X162549Y252947D01*
X162517Y253071D01*
X162494Y253198D01*
X162467Y253266D01*
X162449Y253337D01*
X162393Y253452D01*
X162345Y253572D01*
X162305Y253633D01*
X162273Y253699D01*
X162196Y253801D01*
X162126Y253909D01*
X162074Y253961D01*
X162030Y254020D01*
X161934Y254105D01*
X161844Y254197D01*
X161783Y254238D01*
X161728Y254286D01*
X161617Y254351D01*
X161511Y254423D01*
X161443Y254451D01*
X161380Y254488D01*
X161220Y254545D01*
X161140Y254579D01*
X161107Y254585D01*
X161067Y254600D01*
X154058Y256478D01*
X146601Y260783D01*
X140513Y266871D01*
X136208Y274328D01*
X133979Y282645D01*
X133979Y358555D01*
X136208Y366872D01*
X140513Y374329D01*
X146601Y380417D01*
X154058Y384722D01*
X161067Y386600D01*
X161136Y386626D01*
X161207Y386643D01*
X161324Y386697D01*
X161444Y386743D01*
X161506Y386782D01*
X161573Y386812D01*
X161676Y386888D01*
X161785Y386956D01*
X161838Y387007D01*
X161897Y387050D01*
X161984Y387145D01*
X162078Y387233D01*
X162120Y387293D01*
X162169Y387347D01*
X162235Y387457D01*
X162310Y387562D01*
X162339Y387629D01*
X162377Y387692D01*
X162420Y387813D01*
X162472Y387931D01*
X162488Y388002D01*
X162513Y388071D01*
X162531Y388198D01*
X162559Y388324D01*
X162560Y388397D01*
X162571Y388469D01*
X162564Y388598D01*
X162566Y388726D01*
X162553Y388798D01*
X162549Y388872D01*
X162517Y388996D01*
X162494Y389122D01*
X162467Y389190D01*
X162449Y389261D01*
X162393Y389377D01*
X162345Y389496D01*
X162305Y389558D01*
X162273Y389624D01*
X162196Y389726D01*
X162126Y389834D01*
X162074Y389886D01*
X162030Y389945D01*
X161934Y390030D01*
X161844Y390121D01*
X161783Y390163D01*
X161728Y390211D01*
X161617Y390275D01*
X161511Y390348D01*
X161443Y390376D01*
X161380Y390413D01*
X161220Y390470D01*
X161140Y390504D01*
X161107Y390510D01*
X161067Y390524D01*
X154548Y392271D01*
X147731Y396207D01*
X147582Y396275D01*
X147435Y396348D01*
X147398Y396357D01*
X147364Y396373D01*
X147205Y396409D01*
X147046Y396452D01*
X147004Y396456D01*
X146972Y396463D01*
X146885Y396465D01*
X146715Y396479D01*
X102013Y396479D01*
X102004Y396478D01*
X101995Y396479D01*
X101804Y396458D01*
X101612Y396439D01*
X101604Y396437D01*
X101595Y396436D01*
X101413Y396378D01*
X101228Y396321D01*
X101220Y396317D01*
X101211Y396314D01*
X101043Y396221D01*
X100874Y396129D01*
X100867Y396124D01*
X100859Y396119D01*
X100712Y395995D01*
X100564Y395872D01*
X100559Y395865D01*
X100552Y395859D01*
X100433Y395708D01*
X100312Y395558D01*
X100308Y395550D01*
X100302Y395543D01*
X100215Y395370D01*
X100126Y395201D01*
X100124Y395192D01*
X100120Y395184D01*
X100068Y394998D01*
X100015Y394814D01*
X100014Y394805D01*
X100012Y394796D01*
X99998Y394603D01*
X99982Y394412D01*
X99983Y394404D01*
X99983Y394395D01*
X100007Y394202D01*
X100029Y394013D01*
X100032Y394004D01*
X100033Y393995D01*
X100094Y393812D01*
X100154Y393630D01*
X100158Y393622D01*
X100161Y393614D01*
X100257Y393447D01*
X100352Y393279D01*
X100358Y393272D01*
X100362Y393265D01*
X100577Y393012D01*
X104357Y389231D01*
X108669Y381763D01*
X110901Y373434D01*
X110901Y364810D01*
X108669Y356481D01*
X104357Y349013D01*
X98259Y342915D01*
X91496Y339010D01*
X91422Y338957D01*
X91343Y338912D01*
X91259Y338840D01*
X91169Y338775D01*
X91107Y338709D01*
X91038Y338649D01*
X90971Y338562D01*
X90895Y338481D01*
X90847Y338403D01*
X90792Y338331D01*
X90742Y338232D01*
X90684Y338138D01*
X90653Y338052D01*
X90612Y337971D01*
X90584Y337864D01*
X90545Y337760D01*
X90532Y337670D01*
X90508Y337582D01*
X90497Y337444D01*
X90484Y337362D01*
X90486Y337314D01*
X90481Y337251D01*
X90481Y254430D01*
X90483Y254404D01*
X90481Y254377D01*
X90503Y254203D01*
X90521Y254030D01*
X90528Y254004D01*
X90532Y253977D01*
X90587Y253812D01*
X90639Y253645D01*
X90652Y253621D01*
X90660Y253596D01*
X90747Y253444D01*
X90831Y253291D01*
X90848Y253270D01*
X90861Y253247D01*
X91076Y252994D01*
X98794Y245276D01*
X98815Y245259D01*
X98832Y245238D01*
X98970Y245131D01*
X99105Y245021D01*
X99129Y245008D01*
X99150Y244992D01*
X99307Y244914D01*
X99461Y244832D01*
X99487Y244824D01*
X99511Y244812D01*
X99680Y244767D01*
X99847Y244717D01*
X99874Y244715D01*
X99899Y244708D01*
X100230Y244681D01*
X146646Y244681D01*
X146809Y244697D01*
G37*
%LPC*%
G36*
X749056Y312615D02*
X749056Y312615D01*
X744761Y314394D01*
X742563Y316592D01*
X742542Y316609D01*
X742525Y316630D01*
X742387Y316737D01*
X742251Y316847D01*
X742228Y316860D01*
X742207Y316876D01*
X742050Y316954D01*
X741896Y317036D01*
X741870Y317044D01*
X741846Y317056D01*
X741677Y317101D01*
X741510Y317151D01*
X741483Y317153D01*
X741457Y317160D01*
X741127Y317187D01*
X666885Y317187D01*
X664271Y318270D01*
X650570Y331971D01*
X649487Y334585D01*
X649487Y374831D01*
X649485Y374857D01*
X649487Y374884D01*
X649465Y375058D01*
X649447Y375231D01*
X649440Y375257D01*
X649436Y375283D01*
X649381Y375449D01*
X649329Y375616D01*
X649316Y375640D01*
X649308Y375665D01*
X649221Y375817D01*
X649137Y375970D01*
X649120Y375991D01*
X649107Y376014D01*
X648892Y376267D01*
X647644Y377516D01*
X646035Y381399D01*
X646035Y385601D01*
X647644Y389484D01*
X650616Y392456D01*
X654499Y394065D01*
X658701Y394065D01*
X662584Y392456D01*
X664614Y390427D01*
X664628Y390416D01*
X664639Y390402D01*
X664783Y390288D01*
X664925Y390172D01*
X664941Y390164D01*
X664955Y390153D01*
X665119Y390069D01*
X665281Y389983D01*
X665298Y389978D01*
X665314Y389970D01*
X665491Y389921D01*
X665667Y389869D01*
X665685Y389867D01*
X665702Y389862D01*
X665885Y389849D01*
X666068Y389832D01*
X666086Y389834D01*
X666103Y389833D01*
X666285Y389856D01*
X666468Y389876D01*
X666485Y389881D01*
X666503Y389883D01*
X666677Y389942D01*
X666852Y389997D01*
X666868Y390006D01*
X666884Y390011D01*
X667043Y390103D01*
X667204Y390192D01*
X667218Y390204D01*
X667233Y390212D01*
X667486Y390427D01*
X669416Y392356D01*
X673299Y393965D01*
X677501Y393965D01*
X681384Y392356D01*
X684356Y389384D01*
X685965Y385501D01*
X685965Y381299D01*
X684356Y377416D01*
X683108Y376167D01*
X683091Y376146D01*
X683070Y376129D01*
X682963Y375991D01*
X682853Y375855D01*
X682840Y375832D01*
X682824Y375811D01*
X682746Y375654D01*
X682664Y375500D01*
X682656Y375474D01*
X682644Y375450D01*
X682599Y375281D01*
X682549Y375114D01*
X682547Y375087D01*
X682540Y375061D01*
X682513Y374731D01*
X682513Y364788D01*
X682515Y364761D01*
X682513Y364734D01*
X682535Y364560D01*
X682553Y364387D01*
X682560Y364361D01*
X682564Y364335D01*
X682619Y364169D01*
X682671Y364002D01*
X682684Y363978D01*
X682692Y363953D01*
X682779Y363801D01*
X682863Y363648D01*
X682880Y363628D01*
X682893Y363604D01*
X683108Y363351D01*
X689051Y357408D01*
X689072Y357391D01*
X689089Y357370D01*
X689227Y357263D01*
X689363Y357153D01*
X689386Y357140D01*
X689408Y357124D01*
X689564Y357046D01*
X689718Y356964D01*
X689744Y356956D01*
X689768Y356944D01*
X689937Y356899D01*
X690104Y356849D01*
X690131Y356847D01*
X690157Y356840D01*
X690488Y356813D01*
X741127Y356813D01*
X741153Y356815D01*
X741180Y356813D01*
X741354Y356835D01*
X741527Y356853D01*
X741553Y356860D01*
X741579Y356864D01*
X741745Y356919D01*
X741912Y356971D01*
X741936Y356984D01*
X741961Y356992D01*
X742113Y357079D01*
X742266Y357163D01*
X742287Y357180D01*
X742310Y357193D01*
X742563Y357408D01*
X744761Y359606D01*
X749056Y361385D01*
X768944Y361385D01*
X773239Y359606D01*
X776526Y356319D01*
X778305Y352024D01*
X778305Y347376D01*
X776526Y343081D01*
X773239Y339794D01*
X771479Y339065D01*
X771024Y338877D01*
X771016Y338872D01*
X771007Y338870D01*
X770837Y338777D01*
X770669Y338686D01*
X770662Y338681D01*
X770654Y338676D01*
X770506Y338552D01*
X770358Y338430D01*
X770353Y338423D01*
X770346Y338417D01*
X770226Y338267D01*
X770105Y338117D01*
X770101Y338109D01*
X770095Y338102D01*
X770008Y337933D01*
X769918Y337761D01*
X769915Y337752D01*
X769911Y337744D01*
X769859Y337562D01*
X769805Y337374D01*
X769804Y337365D01*
X769801Y337357D01*
X769787Y337165D01*
X769770Y336973D01*
X769771Y336964D01*
X769770Y336956D01*
X769794Y336765D01*
X769815Y336573D01*
X769818Y336565D01*
X769819Y336556D01*
X769879Y336374D01*
X769938Y336190D01*
X769943Y336182D01*
X769946Y336174D01*
X770041Y336006D01*
X770135Y335838D01*
X770140Y335832D01*
X770145Y335824D01*
X770273Y335676D01*
X770397Y335533D01*
X770404Y335527D01*
X770409Y335520D01*
X770562Y335403D01*
X770714Y335284D01*
X770722Y335280D01*
X770729Y335275D01*
X771024Y335123D01*
X773239Y334206D01*
X776526Y330919D01*
X778305Y326624D01*
X778305Y321976D01*
X776526Y317681D01*
X773239Y314394D01*
X769050Y312659D01*
X768944Y312615D01*
X749056Y312615D01*
G37*
%LPD*%
%LPC*%
G36*
X583691Y603190D02*
X583691Y603190D01*
X582198Y603809D01*
X581054Y604953D01*
X580435Y606446D01*
X580435Y641175D01*
X580434Y641189D01*
X580435Y641202D01*
X580414Y641388D01*
X580395Y641576D01*
X580391Y641589D01*
X580390Y641602D01*
X580333Y641780D01*
X580277Y641961D01*
X580271Y641973D01*
X580267Y641985D01*
X580175Y642149D01*
X580085Y642315D01*
X580077Y642325D01*
X580070Y642337D01*
X579947Y642481D01*
X579828Y642624D01*
X579817Y642633D01*
X579809Y642643D01*
X579660Y642759D01*
X579514Y642877D01*
X579502Y642883D01*
X579492Y642891D01*
X579322Y642976D01*
X579157Y643062D01*
X579144Y643066D01*
X579132Y643072D01*
X578950Y643122D01*
X578770Y643173D01*
X578756Y643175D01*
X578743Y643178D01*
X578557Y643191D01*
X578368Y643206D01*
X578355Y643205D01*
X578342Y643206D01*
X578155Y643181D01*
X577969Y643159D01*
X577956Y643155D01*
X577943Y643154D01*
X577627Y643052D01*
X574815Y641887D01*
X511585Y641887D01*
X508971Y642970D01*
X506685Y645256D01*
X506684Y645257D01*
X505457Y646484D01*
X505456Y646485D01*
X503170Y648771D01*
X502087Y651385D01*
X502087Y654232D01*
X502085Y654259D01*
X502087Y654286D01*
X502065Y654459D01*
X502047Y654633D01*
X502040Y654658D01*
X502036Y654685D01*
X501980Y654851D01*
X501929Y655018D01*
X501916Y655041D01*
X501908Y655067D01*
X501821Y655218D01*
X501737Y655372D01*
X501720Y655392D01*
X501707Y655416D01*
X501492Y655669D01*
X497787Y659374D01*
X495737Y664322D01*
X495737Y669678D01*
X497787Y674626D01*
X501574Y678413D01*
X502025Y678600D01*
X506522Y680463D01*
X511878Y680463D01*
X516826Y678413D01*
X520613Y674626D01*
X522663Y669678D01*
X522663Y664322D01*
X520575Y659282D01*
X520565Y659269D01*
X520560Y659261D01*
X520555Y659254D01*
X520466Y659084D01*
X520376Y658913D01*
X520373Y658905D01*
X520369Y658897D01*
X520316Y658712D01*
X520261Y658528D01*
X520260Y658519D01*
X520258Y658510D01*
X520242Y658318D01*
X520225Y658127D01*
X520226Y658117D01*
X520225Y658108D01*
X520247Y657918D01*
X520268Y657726D01*
X520271Y657718D01*
X520272Y657709D01*
X520331Y657526D01*
X520389Y657342D01*
X520394Y657334D01*
X520397Y657326D01*
X520490Y657160D01*
X520584Y656990D01*
X520590Y656983D01*
X520594Y656975D01*
X520720Y656830D01*
X520845Y656683D01*
X520852Y656677D01*
X520858Y656670D01*
X521009Y656553D01*
X521160Y656433D01*
X521169Y656429D01*
X521176Y656424D01*
X521348Y656338D01*
X521519Y656251D01*
X521528Y656249D01*
X521536Y656244D01*
X521723Y656194D01*
X521907Y656143D01*
X521916Y656142D01*
X521925Y656140D01*
X522256Y656113D01*
X530356Y656113D01*
X530370Y656114D01*
X530383Y656113D01*
X530569Y656134D01*
X530757Y656153D01*
X530770Y656157D01*
X530783Y656158D01*
X530962Y656216D01*
X531142Y656271D01*
X531154Y656277D01*
X531166Y656281D01*
X531331Y656373D01*
X531496Y656463D01*
X531506Y656471D01*
X531518Y656478D01*
X531661Y656600D01*
X531805Y656720D01*
X531813Y656731D01*
X531824Y656739D01*
X531940Y656888D01*
X532057Y657034D01*
X532064Y657046D01*
X532072Y657056D01*
X532157Y657225D01*
X532243Y657391D01*
X532247Y657404D01*
X532253Y657416D01*
X532302Y657598D01*
X532354Y657778D01*
X532355Y657792D01*
X532359Y657805D01*
X532372Y657993D01*
X532387Y658180D01*
X532386Y658193D01*
X532387Y658206D01*
X532362Y658394D01*
X532340Y658579D01*
X532336Y658592D01*
X532334Y658605D01*
X532233Y658921D01*
X530037Y664222D01*
X530037Y669578D01*
X532087Y674526D01*
X535874Y678313D01*
X540822Y680363D01*
X546178Y680363D01*
X551126Y678313D01*
X554832Y674608D01*
X554852Y674591D01*
X554870Y674570D01*
X555008Y674463D01*
X555143Y674353D01*
X555167Y674340D01*
X555188Y674324D01*
X555345Y674246D01*
X555499Y674164D01*
X555524Y674156D01*
X555548Y674144D01*
X555718Y674099D01*
X555885Y674049D01*
X555911Y674047D01*
X555937Y674040D01*
X556268Y674013D01*
X561506Y674013D01*
X561524Y674015D01*
X561542Y674013D01*
X561724Y674034D01*
X561907Y674053D01*
X561924Y674058D01*
X561941Y674060D01*
X562116Y674117D01*
X562292Y674171D01*
X562307Y674179D01*
X562324Y674185D01*
X562484Y674275D01*
X562646Y674363D01*
X562659Y674374D01*
X562675Y674383D01*
X562814Y674503D01*
X562955Y674620D01*
X562966Y674634D01*
X562980Y674646D01*
X563092Y674791D01*
X563207Y674934D01*
X563215Y674950D01*
X563226Y674964D01*
X563308Y675129D01*
X563393Y675291D01*
X563398Y675308D01*
X563406Y675324D01*
X563453Y675503D01*
X563504Y675678D01*
X563506Y675696D01*
X563510Y675713D01*
X563537Y676044D01*
X563537Y688310D01*
X563547Y688343D01*
X563550Y688374D01*
X563558Y688404D01*
X563585Y688735D01*
X563585Y698609D01*
X564204Y700102D01*
X565348Y701246D01*
X566841Y701865D01*
X574459Y701865D01*
X576223Y701134D01*
X576248Y701126D01*
X576272Y701114D01*
X576441Y701068D01*
X576608Y701018D01*
X576635Y701015D01*
X576661Y701008D01*
X576835Y700996D01*
X577009Y700979D01*
X577036Y700982D01*
X577062Y700980D01*
X577235Y701003D01*
X577409Y701021D01*
X577435Y701029D01*
X577461Y701032D01*
X577777Y701134D01*
X579541Y701865D01*
X587159Y701865D01*
X588923Y701134D01*
X588948Y701126D01*
X588972Y701114D01*
X589141Y701068D01*
X589308Y701018D01*
X589335Y701015D01*
X589361Y701008D01*
X589535Y700996D01*
X589709Y700979D01*
X589736Y700982D01*
X589762Y700980D01*
X589935Y701003D01*
X590109Y701021D01*
X590135Y701029D01*
X590161Y701032D01*
X590477Y701134D01*
X592241Y701865D01*
X599859Y701865D01*
X601352Y701246D01*
X602185Y700414D01*
X602305Y700316D01*
X602420Y700212D01*
X602460Y700188D01*
X602496Y700159D01*
X602633Y700086D01*
X602767Y700007D01*
X602811Y699992D01*
X602852Y699970D01*
X603000Y699926D01*
X603147Y699875D01*
X603193Y699869D01*
X603238Y699855D01*
X603392Y699841D01*
X603546Y699820D01*
X603592Y699823D01*
X603639Y699819D01*
X603793Y699836D01*
X603948Y699845D01*
X603993Y699857D01*
X604039Y699862D01*
X604187Y699909D01*
X604337Y699949D01*
X604384Y699972D01*
X604423Y699984D01*
X604499Y700026D01*
X604637Y700091D01*
X604769Y700168D01*
X605415Y700341D01*
X606719Y700341D01*
X606719Y686800D01*
X606719Y673259D01*
X605194Y673259D01*
X605176Y673257D01*
X605158Y673259D01*
X604976Y673238D01*
X604793Y673219D01*
X604776Y673214D01*
X604759Y673212D01*
X604584Y673155D01*
X604408Y673101D01*
X604393Y673093D01*
X604376Y673087D01*
X604216Y672997D01*
X604054Y672910D01*
X604041Y672898D01*
X604025Y672889D01*
X603886Y672769D01*
X603745Y672652D01*
X603734Y672638D01*
X603720Y672626D01*
X603608Y672481D01*
X603493Y672338D01*
X603485Y672322D01*
X603474Y672308D01*
X603392Y672144D01*
X603307Y671981D01*
X603302Y671964D01*
X603294Y671948D01*
X603247Y671770D01*
X603196Y671594D01*
X603194Y671576D01*
X603190Y671559D01*
X603163Y671228D01*
X603163Y649951D01*
X603165Y649933D01*
X603163Y649915D01*
X603184Y649733D01*
X603203Y649550D01*
X603208Y649533D01*
X603210Y649516D01*
X603267Y649341D01*
X603321Y649165D01*
X603329Y649150D01*
X603335Y649133D01*
X603425Y648973D01*
X603513Y648811D01*
X603524Y648798D01*
X603533Y648782D01*
X603653Y648643D01*
X603770Y648502D01*
X603784Y648491D01*
X603796Y648477D01*
X603941Y648365D01*
X604084Y648250D01*
X604100Y648242D01*
X604114Y648231D01*
X604279Y648149D01*
X604441Y648064D01*
X604458Y648059D01*
X604474Y648051D01*
X604653Y648004D01*
X604828Y647953D01*
X604846Y647951D01*
X604863Y647947D01*
X605194Y647920D01*
X608309Y647920D01*
X609802Y647301D01*
X610946Y646157D01*
X611565Y644664D01*
X611565Y606446D01*
X610946Y604953D01*
X609802Y603809D01*
X608309Y603190D01*
X583691Y603190D01*
G37*
%LPD*%
%LPC*%
G36*
X437770Y91575D02*
X437770Y91575D01*
X432542Y93741D01*
X428541Y97742D01*
X426375Y102970D01*
X426375Y108630D01*
X428541Y113858D01*
X430860Y116177D01*
X430877Y116198D01*
X430898Y116215D01*
X431005Y116353D01*
X431115Y116489D01*
X431128Y116512D01*
X431144Y116533D01*
X431222Y116690D01*
X431304Y116844D01*
X431312Y116870D01*
X431324Y116894D01*
X431369Y117063D01*
X431419Y117230D01*
X431421Y117257D01*
X431428Y117283D01*
X431455Y117613D01*
X431455Y277419D01*
X432847Y280780D01*
X446820Y294753D01*
X450181Y296145D01*
X463131Y296145D01*
X463157Y296147D01*
X463184Y296145D01*
X463358Y296167D01*
X463531Y296185D01*
X463557Y296192D01*
X463583Y296196D01*
X463749Y296252D01*
X463916Y296303D01*
X463940Y296316D01*
X463965Y296324D01*
X464117Y296411D01*
X464270Y296495D01*
X464291Y296512D01*
X464314Y296525D01*
X464567Y296740D01*
X467913Y300086D01*
X473608Y302445D01*
X479772Y302445D01*
X485467Y300086D01*
X489826Y295727D01*
X492185Y290032D01*
X492185Y283868D01*
X489826Y278173D01*
X485467Y273814D01*
X479772Y271455D01*
X473608Y271455D01*
X467913Y273814D01*
X464467Y277260D01*
X464446Y277277D01*
X464429Y277298D01*
X464291Y277405D01*
X464155Y277515D01*
X464132Y277528D01*
X464111Y277544D01*
X463954Y277622D01*
X463800Y277704D01*
X463774Y277712D01*
X463750Y277724D01*
X463581Y277769D01*
X463414Y277819D01*
X463387Y277821D01*
X463361Y277828D01*
X463031Y277855D01*
X456629Y277855D01*
X456603Y277853D01*
X456576Y277855D01*
X456402Y277833D01*
X456229Y277815D01*
X456203Y277808D01*
X456177Y277804D01*
X456011Y277749D01*
X455844Y277697D01*
X455820Y277684D01*
X455795Y277676D01*
X455643Y277589D01*
X455490Y277505D01*
X455469Y277488D01*
X455446Y277475D01*
X455193Y277260D01*
X450340Y272407D01*
X450323Y272386D01*
X450302Y272369D01*
X450195Y272231D01*
X450085Y272096D01*
X450072Y272072D01*
X450056Y272051D01*
X449978Y271894D01*
X449896Y271740D01*
X449888Y271714D01*
X449876Y271690D01*
X449831Y271521D01*
X449781Y271354D01*
X449779Y271327D01*
X449772Y271301D01*
X449745Y270971D01*
X449745Y117613D01*
X449747Y117587D01*
X449745Y117560D01*
X449767Y117386D01*
X449785Y117213D01*
X449792Y117187D01*
X449796Y117161D01*
X449851Y116995D01*
X449903Y116828D01*
X449916Y116804D01*
X449924Y116779D01*
X450011Y116627D01*
X450095Y116474D01*
X450112Y116453D01*
X450125Y116430D01*
X450340Y116177D01*
X452659Y113858D01*
X454825Y108630D01*
X454825Y102970D01*
X452659Y97742D01*
X448658Y93741D01*
X443430Y91575D01*
X437770Y91575D01*
G37*
%LPD*%
G36*
X22140Y484741D02*
X22140Y484741D01*
X22214Y484740D01*
X22340Y484765D01*
X22467Y484780D01*
X22537Y484802D01*
X22609Y484816D01*
X22728Y484865D01*
X22850Y484904D01*
X22914Y484940D01*
X22982Y484968D01*
X23089Y485039D01*
X23201Y485102D01*
X23256Y485150D01*
X23317Y485191D01*
X23408Y485281D01*
X23505Y485365D01*
X23550Y485423D01*
X23602Y485475D01*
X23699Y485615D01*
X23752Y485684D01*
X23767Y485713D01*
X23791Y485748D01*
X26643Y490687D01*
X32741Y496785D01*
X39504Y500690D01*
X39578Y500743D01*
X39657Y500788D01*
X39741Y500860D01*
X39831Y500925D01*
X39893Y500991D01*
X39962Y501051D01*
X40029Y501138D01*
X40105Y501219D01*
X40153Y501297D01*
X40208Y501369D01*
X40258Y501468D01*
X40316Y501562D01*
X40347Y501648D01*
X40388Y501729D01*
X40416Y501836D01*
X40455Y501940D01*
X40468Y502030D01*
X40492Y502118D01*
X40503Y502256D01*
X40516Y502338D01*
X40514Y502386D01*
X40519Y502449D01*
X40519Y637002D01*
X42228Y643381D01*
X45530Y649100D01*
X54994Y658564D01*
X55000Y658571D01*
X55007Y658576D01*
X55127Y658726D01*
X55249Y658875D01*
X55253Y658883D01*
X55259Y658890D01*
X55348Y659061D01*
X55438Y659231D01*
X55440Y659239D01*
X55445Y659247D01*
X55498Y659433D01*
X55553Y659617D01*
X55553Y659626D01*
X55556Y659634D01*
X55572Y659826D01*
X55589Y660018D01*
X55588Y660027D01*
X55589Y660036D01*
X55567Y660225D01*
X55546Y660418D01*
X55543Y660427D01*
X55542Y660435D01*
X55483Y660617D01*
X55424Y660802D01*
X55420Y660810D01*
X55417Y660818D01*
X55322Y660987D01*
X55229Y661154D01*
X55224Y661161D01*
X55219Y661169D01*
X55093Y661315D01*
X54969Y661461D01*
X54962Y661467D01*
X54956Y661474D01*
X54805Y661591D01*
X54653Y661711D01*
X54645Y661715D01*
X54638Y661720D01*
X54466Y661806D01*
X54294Y661893D01*
X54285Y661896D01*
X54277Y661900D01*
X54091Y661950D01*
X53906Y662001D01*
X53897Y662002D01*
X53889Y662004D01*
X53558Y662031D01*
X22032Y662031D01*
X22014Y662029D01*
X21996Y662031D01*
X21814Y662010D01*
X21631Y661991D01*
X21614Y661986D01*
X21597Y661984D01*
X21422Y661927D01*
X21246Y661873D01*
X21231Y661865D01*
X21214Y661859D01*
X21054Y661769D01*
X20892Y661681D01*
X20879Y661670D01*
X20863Y661661D01*
X20724Y661541D01*
X20583Y661424D01*
X20572Y661410D01*
X20558Y661398D01*
X20446Y661253D01*
X20331Y661110D01*
X20323Y661094D01*
X20312Y661080D01*
X20230Y660915D01*
X20145Y660753D01*
X20140Y660736D01*
X20132Y660720D01*
X20085Y660541D01*
X20034Y660366D01*
X20032Y660348D01*
X20028Y660331D01*
X20001Y660000D01*
X20001Y486764D01*
X20008Y486691D01*
X20006Y486617D01*
X20028Y486491D01*
X20041Y486363D01*
X20062Y486293D01*
X20075Y486221D01*
X20121Y486101D01*
X20159Y485978D01*
X20194Y485914D01*
X20220Y485845D01*
X20289Y485737D01*
X20351Y485624D01*
X20397Y485568D01*
X20437Y485506D01*
X20526Y485413D01*
X20608Y485315D01*
X20665Y485269D01*
X20716Y485216D01*
X20822Y485143D01*
X20922Y485062D01*
X20987Y485029D01*
X21047Y484987D01*
X21166Y484936D01*
X21279Y484877D01*
X21350Y484857D01*
X21417Y484828D01*
X21543Y484801D01*
X21666Y484765D01*
X21739Y484759D01*
X21811Y484744D01*
X21939Y484743D01*
X22068Y484733D01*
X22140Y484741D01*
G37*
%LPC*%
G36*
X569339Y209853D02*
X569339Y209853D01*
X566455Y211048D01*
X564248Y213255D01*
X563053Y216139D01*
X563053Y219261D01*
X564249Y222148D01*
X564353Y222281D01*
X564463Y222417D01*
X564476Y222440D01*
X564492Y222462D01*
X564570Y222618D01*
X564652Y222772D01*
X564660Y222798D01*
X564672Y222822D01*
X564717Y222991D01*
X564767Y223158D01*
X564769Y223185D01*
X564776Y223211D01*
X564803Y223542D01*
X564803Y359358D01*
X564801Y359385D01*
X564803Y359412D01*
X564781Y359586D01*
X564763Y359759D01*
X564756Y359785D01*
X564752Y359811D01*
X564697Y359977D01*
X564645Y360144D01*
X564632Y360168D01*
X564624Y360193D01*
X564537Y360345D01*
X564453Y360498D01*
X564436Y360518D01*
X564423Y360542D01*
X564254Y360741D01*
X563053Y363639D01*
X563053Y366761D01*
X564248Y369645D01*
X566455Y371852D01*
X569339Y373047D01*
X572461Y373047D01*
X575345Y371852D01*
X577552Y369645D01*
X578747Y366761D01*
X578747Y363639D01*
X577551Y360752D01*
X577447Y360619D01*
X577337Y360483D01*
X577324Y360460D01*
X577308Y360438D01*
X577230Y360282D01*
X577148Y360128D01*
X577140Y360102D01*
X577128Y360078D01*
X577083Y359909D01*
X577033Y359742D01*
X577031Y359715D01*
X577024Y359689D01*
X576997Y359358D01*
X576997Y223542D01*
X576999Y223515D01*
X576997Y223488D01*
X577019Y223314D01*
X577037Y223141D01*
X577044Y223115D01*
X577048Y223089D01*
X577103Y222923D01*
X577155Y222756D01*
X577168Y222732D01*
X577176Y222707D01*
X577263Y222555D01*
X577347Y222402D01*
X577364Y222381D01*
X577377Y222358D01*
X577546Y222159D01*
X578747Y219261D01*
X578747Y216139D01*
X577552Y213255D01*
X575345Y211048D01*
X572461Y209853D01*
X569339Y209853D01*
G37*
%LPD*%
%LPC*%
G36*
X603576Y117395D02*
X603576Y117395D01*
X599281Y119174D01*
X595994Y122461D01*
X594215Y126756D01*
X594215Y146644D01*
X595994Y150939D01*
X599281Y154226D01*
X603576Y156005D01*
X608224Y156005D01*
X612519Y154226D01*
X615806Y150939D01*
X616723Y148724D01*
X616728Y148716D01*
X616730Y148707D01*
X616822Y148540D01*
X616914Y148369D01*
X616919Y148362D01*
X616924Y148354D01*
X617047Y148207D01*
X617170Y148058D01*
X617177Y148053D01*
X617183Y148046D01*
X617333Y147926D01*
X617483Y147805D01*
X617491Y147801D01*
X617497Y147795D01*
X617668Y147707D01*
X617839Y147618D01*
X617848Y147615D01*
X617856Y147611D01*
X618039Y147559D01*
X618225Y147505D01*
X618235Y147504D01*
X618243Y147501D01*
X618434Y147487D01*
X618627Y147470D01*
X618636Y147471D01*
X618644Y147470D01*
X618834Y147493D01*
X619027Y147515D01*
X619035Y147518D01*
X619044Y147519D01*
X619226Y147579D01*
X619410Y147638D01*
X619418Y147643D01*
X619426Y147645D01*
X619594Y147741D01*
X619761Y147835D01*
X619768Y147840D01*
X619776Y147845D01*
X619921Y147971D01*
X620067Y148096D01*
X620073Y148104D01*
X620080Y148109D01*
X620197Y148262D01*
X620316Y148413D01*
X620320Y148422D01*
X620325Y148429D01*
X620477Y148724D01*
X621394Y150939D01*
X624681Y154226D01*
X628976Y156005D01*
X633624Y156005D01*
X637919Y154226D01*
X641206Y150939D01*
X642985Y146644D01*
X642985Y126756D01*
X641206Y122461D01*
X637919Y119174D01*
X634261Y117659D01*
X633624Y117395D01*
X628976Y117395D01*
X624681Y119174D01*
X621394Y122461D01*
X620477Y124676D01*
X620472Y124684D01*
X620470Y124693D01*
X620377Y124862D01*
X620286Y125031D01*
X620281Y125038D01*
X620276Y125046D01*
X620153Y125193D01*
X620030Y125342D01*
X620023Y125347D01*
X620017Y125354D01*
X619866Y125475D01*
X619717Y125595D01*
X619710Y125599D01*
X619702Y125605D01*
X619529Y125694D01*
X619361Y125782D01*
X619352Y125785D01*
X619344Y125789D01*
X619158Y125842D01*
X618974Y125895D01*
X618965Y125896D01*
X618957Y125899D01*
X618766Y125913D01*
X618573Y125930D01*
X618564Y125929D01*
X618556Y125930D01*
X618364Y125906D01*
X618173Y125885D01*
X618165Y125882D01*
X618156Y125881D01*
X617973Y125821D01*
X617790Y125762D01*
X617782Y125757D01*
X617774Y125755D01*
X617607Y125659D01*
X617438Y125565D01*
X617432Y125559D01*
X617424Y125555D01*
X617280Y125429D01*
X617133Y125304D01*
X617127Y125296D01*
X617120Y125291D01*
X617002Y125137D01*
X616884Y124986D01*
X616880Y124979D01*
X616875Y124971D01*
X616723Y124676D01*
X615806Y122461D01*
X612519Y119174D01*
X608861Y117659D01*
X608224Y117395D01*
X603576Y117395D01*
G37*
%LPD*%
%LPC*%
G36*
X689376Y117395D02*
X689376Y117395D01*
X685081Y119174D01*
X681794Y122461D01*
X680015Y126756D01*
X680015Y146644D01*
X681794Y150939D01*
X685081Y154226D01*
X689376Y156005D01*
X694024Y156005D01*
X698319Y154226D01*
X701606Y150939D01*
X702523Y148724D01*
X702528Y148716D01*
X702530Y148707D01*
X702622Y148540D01*
X702714Y148369D01*
X702719Y148362D01*
X702724Y148354D01*
X702847Y148207D01*
X702970Y148058D01*
X702977Y148053D01*
X702983Y148046D01*
X703133Y147926D01*
X703283Y147805D01*
X703291Y147801D01*
X703297Y147795D01*
X703468Y147707D01*
X703639Y147618D01*
X703648Y147615D01*
X703656Y147611D01*
X703839Y147559D01*
X704025Y147505D01*
X704035Y147504D01*
X704043Y147501D01*
X704234Y147487D01*
X704427Y147470D01*
X704436Y147471D01*
X704444Y147470D01*
X704634Y147493D01*
X704827Y147515D01*
X704835Y147518D01*
X704844Y147519D01*
X705026Y147579D01*
X705210Y147638D01*
X705218Y147643D01*
X705226Y147645D01*
X705394Y147741D01*
X705561Y147835D01*
X705568Y147840D01*
X705576Y147845D01*
X705721Y147971D01*
X705867Y148096D01*
X705873Y148104D01*
X705880Y148109D01*
X705997Y148262D01*
X706116Y148413D01*
X706120Y148422D01*
X706125Y148429D01*
X706277Y148724D01*
X707194Y150939D01*
X710481Y154226D01*
X714776Y156005D01*
X719424Y156005D01*
X723719Y154226D01*
X727006Y150939D01*
X728785Y146644D01*
X728785Y126756D01*
X727006Y122461D01*
X723719Y119174D01*
X720061Y117659D01*
X719424Y117395D01*
X714776Y117395D01*
X710481Y119174D01*
X707194Y122461D01*
X706277Y124676D01*
X706272Y124684D01*
X706270Y124693D01*
X706177Y124862D01*
X706086Y125031D01*
X706081Y125038D01*
X706076Y125046D01*
X705953Y125193D01*
X705830Y125342D01*
X705823Y125347D01*
X705817Y125354D01*
X705666Y125475D01*
X705517Y125595D01*
X705510Y125599D01*
X705502Y125605D01*
X705329Y125694D01*
X705161Y125782D01*
X705152Y125785D01*
X705144Y125789D01*
X704958Y125842D01*
X704774Y125895D01*
X704765Y125896D01*
X704757Y125899D01*
X704566Y125913D01*
X704373Y125930D01*
X704364Y125929D01*
X704356Y125930D01*
X704164Y125906D01*
X703973Y125885D01*
X703965Y125882D01*
X703956Y125881D01*
X703773Y125821D01*
X703590Y125762D01*
X703582Y125757D01*
X703574Y125755D01*
X703407Y125659D01*
X703238Y125565D01*
X703232Y125559D01*
X703224Y125555D01*
X703080Y125429D01*
X702933Y125304D01*
X702927Y125296D01*
X702920Y125291D01*
X702802Y125137D01*
X702684Y124986D01*
X702680Y124979D01*
X702675Y124971D01*
X702523Y124676D01*
X701606Y122461D01*
X698319Y119174D01*
X694661Y117659D01*
X694024Y117395D01*
X689376Y117395D01*
G37*
%LPD*%
G36*
X22140Y383632D02*
X22140Y383632D01*
X22214Y383631D01*
X22340Y383655D01*
X22467Y383670D01*
X22537Y383693D01*
X22609Y383706D01*
X22728Y383755D01*
X22850Y383795D01*
X22914Y383831D01*
X22982Y383858D01*
X23089Y383930D01*
X23201Y383993D01*
X23256Y384041D01*
X23317Y384081D01*
X23408Y384172D01*
X23505Y384256D01*
X23550Y384314D01*
X23602Y384365D01*
X23699Y384505D01*
X23752Y384574D01*
X23767Y384603D01*
X23791Y384638D01*
X26443Y389231D01*
X32541Y395329D01*
X40009Y399641D01*
X48338Y401873D01*
X54254Y401873D01*
X54263Y401874D01*
X54272Y401873D01*
X54465Y401894D01*
X54655Y401913D01*
X54663Y401915D01*
X54672Y401916D01*
X54855Y401974D01*
X55039Y402031D01*
X55047Y402035D01*
X55056Y402038D01*
X55223Y402130D01*
X55393Y402223D01*
X55400Y402228D01*
X55408Y402233D01*
X55555Y402357D01*
X55703Y402480D01*
X55708Y402487D01*
X55715Y402493D01*
X55835Y402645D01*
X55955Y402794D01*
X55959Y402802D01*
X55965Y402809D01*
X56053Y402982D01*
X56141Y403151D01*
X56143Y403160D01*
X56147Y403168D01*
X56199Y403353D01*
X56252Y403538D01*
X56253Y403547D01*
X56255Y403556D01*
X56269Y403748D01*
X56285Y403940D01*
X56284Y403948D01*
X56284Y403957D01*
X56260Y404150D01*
X56238Y404339D01*
X56235Y404348D01*
X56234Y404357D01*
X56173Y404540D01*
X56113Y404722D01*
X56109Y404730D01*
X56106Y404738D01*
X56010Y404905D01*
X55915Y405073D01*
X55909Y405080D01*
X55905Y405087D01*
X55690Y405340D01*
X45530Y415500D01*
X42228Y421219D01*
X40519Y427598D01*
X40519Y438707D01*
X40510Y438798D01*
X40511Y438889D01*
X40490Y438998D01*
X40479Y439108D01*
X40453Y439195D01*
X40436Y439284D01*
X40394Y439387D01*
X40361Y439493D01*
X40318Y439573D01*
X40284Y439657D01*
X40222Y439749D01*
X40169Y439847D01*
X40111Y439917D01*
X40061Y439992D01*
X39983Y440071D01*
X39912Y440156D01*
X39841Y440213D01*
X39776Y440277D01*
X39663Y440356D01*
X39598Y440408D01*
X39556Y440430D01*
X39504Y440466D01*
X32741Y444371D01*
X26643Y450469D01*
X23791Y455408D01*
X23748Y455468D01*
X23713Y455532D01*
X23631Y455631D01*
X23556Y455735D01*
X23503Y455785D01*
X23456Y455841D01*
X23356Y455922D01*
X23261Y456009D01*
X23199Y456048D01*
X23142Y456094D01*
X23028Y456153D01*
X22918Y456220D01*
X22850Y456245D01*
X22785Y456279D01*
X22661Y456315D01*
X22541Y456359D01*
X22468Y456370D01*
X22398Y456391D01*
X22269Y456401D01*
X22143Y456421D01*
X22070Y456417D01*
X21996Y456423D01*
X21869Y456408D01*
X21740Y456403D01*
X21669Y456385D01*
X21597Y456376D01*
X21474Y456337D01*
X21350Y456306D01*
X21284Y456274D01*
X21214Y456252D01*
X21102Y456188D01*
X20986Y456134D01*
X20927Y456090D01*
X20863Y456054D01*
X20766Y455970D01*
X20663Y455893D01*
X20614Y455838D01*
X20558Y455791D01*
X20480Y455689D01*
X20394Y455593D01*
X20357Y455530D01*
X20312Y455472D01*
X20254Y455357D01*
X20189Y455247D01*
X20165Y455178D01*
X20132Y455112D01*
X20099Y454988D01*
X20057Y454867D01*
X20047Y454794D01*
X20028Y454723D01*
X20014Y454554D01*
X20002Y454468D01*
X20004Y454435D01*
X20001Y454392D01*
X20001Y385654D01*
X20008Y385581D01*
X20006Y385508D01*
X20028Y385381D01*
X20041Y385253D01*
X20062Y385183D01*
X20075Y385111D01*
X20121Y384991D01*
X20159Y384868D01*
X20194Y384804D01*
X20220Y384736D01*
X20289Y384627D01*
X20351Y384514D01*
X20397Y384458D01*
X20437Y384396D01*
X20526Y384304D01*
X20608Y384205D01*
X20665Y384159D01*
X20716Y384106D01*
X20822Y384033D01*
X20922Y383953D01*
X20987Y383919D01*
X21047Y383877D01*
X21165Y383826D01*
X21279Y383767D01*
X21350Y383747D01*
X21417Y383718D01*
X21543Y383691D01*
X21666Y383656D01*
X21739Y383650D01*
X21811Y383635D01*
X21939Y383634D01*
X22068Y383623D01*
X22140Y383632D01*
G37*
%LPC*%
G36*
X473608Y338755D02*
X473608Y338755D01*
X467913Y341114D01*
X463554Y345473D01*
X461195Y351168D01*
X461195Y357332D01*
X463554Y363027D01*
X467913Y367386D01*
X468958Y367819D01*
X473608Y369745D01*
X479772Y369745D01*
X485467Y367386D01*
X489826Y363027D01*
X492185Y357332D01*
X492185Y351168D01*
X489826Y345473D01*
X485467Y341114D01*
X485424Y341096D01*
X479772Y338755D01*
X473608Y338755D01*
G37*
%LPD*%
%LPC*%
G36*
X473608Y406065D02*
X473608Y406065D01*
X467913Y408424D01*
X463554Y412783D01*
X461195Y418478D01*
X461195Y424642D01*
X463554Y430337D01*
X467913Y434696D01*
X468285Y434850D01*
X473608Y437055D01*
X479772Y437055D01*
X485467Y434696D01*
X489826Y430337D01*
X492185Y424642D01*
X492185Y418478D01*
X489826Y412783D01*
X485467Y408424D01*
X484751Y408128D01*
X479772Y406065D01*
X473608Y406065D01*
G37*
%LPD*%
%LPC*%
G36*
X271770Y100175D02*
X271770Y100175D01*
X266542Y102341D01*
X262541Y106342D01*
X260375Y111570D01*
X260375Y117230D01*
X262541Y122458D01*
X266542Y126459D01*
X270579Y128131D01*
X271770Y128625D01*
X277430Y128625D01*
X282658Y126459D01*
X286659Y122458D01*
X288825Y117230D01*
X288825Y111570D01*
X286659Y106342D01*
X282658Y102341D01*
X280408Y101409D01*
X277430Y100175D01*
X271770Y100175D01*
G37*
%LPD*%
G36*
X198051Y367644D02*
X198051Y367644D01*
X198180Y367650D01*
X198251Y367667D01*
X198323Y367676D01*
X198446Y367716D01*
X198570Y367747D01*
X198636Y367778D01*
X198706Y367801D01*
X198818Y367864D01*
X198934Y367919D01*
X198993Y367963D01*
X199057Y367999D01*
X199154Y368083D01*
X199257Y368160D01*
X199306Y368214D01*
X199362Y368262D01*
X199440Y368363D01*
X199526Y368459D01*
X199563Y368522D01*
X199608Y368580D01*
X199666Y368695D01*
X199731Y368806D01*
X199755Y368875D01*
X199788Y368941D01*
X199821Y369065D01*
X199863Y369186D01*
X199873Y369258D01*
X199892Y369329D01*
X199906Y369499D01*
X199918Y369585D01*
X199916Y369618D01*
X199919Y369660D01*
X199919Y408743D01*
X199906Y408880D01*
X199901Y409017D01*
X199886Y409080D01*
X199879Y409143D01*
X199839Y409275D01*
X199807Y409409D01*
X199780Y409467D01*
X199761Y409528D01*
X199696Y409649D01*
X199638Y409774D01*
X199600Y409826D01*
X199569Y409882D01*
X199481Y409988D01*
X199400Y410099D01*
X199353Y410142D01*
X199312Y410192D01*
X199204Y410278D01*
X199103Y410371D01*
X199048Y410404D01*
X198998Y410444D01*
X198876Y410507D01*
X198758Y410578D01*
X198697Y410600D01*
X198641Y410629D01*
X198509Y410667D01*
X198379Y410714D01*
X198315Y410723D01*
X198254Y410741D01*
X198117Y410752D01*
X197980Y410772D01*
X197916Y410769D01*
X197852Y410774D01*
X197716Y410758D01*
X197578Y410750D01*
X197516Y410734D01*
X197453Y410727D01*
X197322Y410684D01*
X197188Y410650D01*
X197131Y410622D01*
X197070Y410602D01*
X196950Y410534D01*
X196826Y410474D01*
X196775Y410436D01*
X196719Y410404D01*
X196615Y410314D01*
X196505Y410231D01*
X196463Y410183D01*
X196415Y410141D01*
X196330Y410032D01*
X196239Y409929D01*
X196207Y409873D01*
X196168Y409823D01*
X196107Y409700D01*
X196038Y409580D01*
X196013Y409511D01*
X195988Y409462D01*
X191831Y402261D01*
X185979Y396409D01*
X178812Y392271D01*
X172293Y390524D01*
X172224Y390499D01*
X172153Y390482D01*
X172036Y390428D01*
X171916Y390382D01*
X171854Y390343D01*
X171787Y390313D01*
X171684Y390237D01*
X171575Y390168D01*
X171522Y390118D01*
X171463Y390075D01*
X171376Y389980D01*
X171282Y389892D01*
X171240Y389832D01*
X171191Y389778D01*
X171125Y389668D01*
X171050Y389563D01*
X171021Y389496D01*
X170983Y389433D01*
X170940Y389312D01*
X170888Y389194D01*
X170872Y389123D01*
X170847Y389054D01*
X170829Y388927D01*
X170801Y388801D01*
X170800Y388728D01*
X170789Y388655D01*
X170796Y388527D01*
X170794Y388399D01*
X170807Y388326D01*
X170811Y388253D01*
X170843Y388129D01*
X170866Y388002D01*
X170893Y387934D01*
X170911Y387863D01*
X170967Y387748D01*
X171015Y387628D01*
X171055Y387567D01*
X171087Y387501D01*
X171164Y387399D01*
X171234Y387291D01*
X171286Y387239D01*
X171330Y387180D01*
X171426Y387095D01*
X171516Y387003D01*
X171577Y386962D01*
X171632Y386914D01*
X171743Y386849D01*
X171849Y386777D01*
X171917Y386749D01*
X171980Y386712D01*
X172140Y386655D01*
X172220Y386621D01*
X172253Y386615D01*
X172293Y386600D01*
X179302Y384722D01*
X186759Y380417D01*
X192847Y374329D01*
X196129Y368644D01*
X196172Y368585D01*
X196207Y368520D01*
X196289Y368422D01*
X196364Y368317D01*
X196417Y368267D01*
X196464Y368211D01*
X196564Y368131D01*
X196659Y368043D01*
X196721Y368005D01*
X196778Y367959D01*
X196892Y367900D01*
X197002Y367832D01*
X197070Y367807D01*
X197135Y367773D01*
X197259Y367738D01*
X197379Y367693D01*
X197452Y367682D01*
X197522Y367662D01*
X197651Y367651D01*
X197777Y367632D01*
X197850Y367635D01*
X197924Y367629D01*
X198051Y367644D01*
G37*
%LPC*%
G36*
X523277Y165023D02*
X523277Y165023D01*
X519169Y166725D01*
X516025Y169869D01*
X514323Y173977D01*
X514323Y178423D01*
X516025Y182531D01*
X519169Y185675D01*
X523277Y187377D01*
X527723Y187377D01*
X531831Y185675D01*
X535143Y182363D01*
X535280Y182251D01*
X535415Y182135D01*
X535436Y182123D01*
X535454Y182108D01*
X535611Y182025D01*
X535766Y181938D01*
X535789Y181931D01*
X535810Y181920D01*
X535981Y181869D01*
X536149Y181814D01*
X536173Y181812D01*
X536196Y181805D01*
X536373Y181789D01*
X536549Y181769D01*
X536573Y181771D01*
X536597Y181768D01*
X536774Y181788D01*
X536950Y181803D01*
X536973Y181809D01*
X536997Y181812D01*
X537167Y181866D01*
X537337Y181915D01*
X537358Y181926D01*
X537381Y181933D01*
X537537Y182019D01*
X537694Y182102D01*
X537713Y182117D01*
X537733Y182128D01*
X537869Y182243D01*
X538007Y182355D01*
X538024Y182375D01*
X538040Y182389D01*
X538051Y182402D01*
X539212Y183563D01*
X540441Y184456D01*
X541795Y185146D01*
X543240Y185615D01*
X543469Y185651D01*
X543469Y176200D01*
X543469Y166749D01*
X543240Y166785D01*
X541795Y167254D01*
X540441Y167944D01*
X539212Y168837D01*
X538024Y170025D01*
X538015Y170032D01*
X537990Y170062D01*
X537982Y170068D01*
X537979Y170072D01*
X537968Y170080D01*
X537955Y170094D01*
X537814Y170201D01*
X537674Y170311D01*
X537663Y170317D01*
X537661Y170319D01*
X537651Y170323D01*
X537634Y170336D01*
X537474Y170413D01*
X537315Y170494D01*
X537301Y170498D01*
X537300Y170498D01*
X537294Y170499D01*
X537292Y170500D01*
X537271Y170510D01*
X537098Y170554D01*
X536927Y170602D01*
X536904Y170603D01*
X536880Y170609D01*
X536750Y170616D01*
X536581Y170629D01*
X536577Y170629D01*
X536564Y170628D01*
X536526Y170631D01*
X536502Y170628D01*
X536478Y170629D01*
X536303Y170603D01*
X536280Y170600D01*
X536177Y170590D01*
X536161Y170585D01*
X536126Y170581D01*
X536104Y170573D01*
X536080Y170569D01*
X535913Y170509D01*
X535910Y170508D01*
X535792Y170471D01*
X535775Y170462D01*
X535745Y170452D01*
X535724Y170440D01*
X535702Y170432D01*
X535558Y170345D01*
X535438Y170280D01*
X535421Y170266D01*
X535396Y170251D01*
X535376Y170234D01*
X535357Y170223D01*
X535298Y170168D01*
X535143Y170037D01*
X531831Y166725D01*
X531069Y166409D01*
X527723Y165023D01*
X523277Y165023D01*
G37*
%LPD*%
G36*
X197906Y244723D02*
X197906Y244723D01*
X197924Y244721D01*
X198106Y244742D01*
X198289Y244761D01*
X198306Y244766D01*
X198323Y244768D01*
X198498Y244825D01*
X198674Y244879D01*
X198689Y244887D01*
X198706Y244893D01*
X198866Y244983D01*
X199028Y245071D01*
X199041Y245082D01*
X199057Y245091D01*
X199196Y245211D01*
X199337Y245328D01*
X199348Y245342D01*
X199362Y245354D01*
X199474Y245499D01*
X199589Y245642D01*
X199597Y245658D01*
X199608Y245672D01*
X199690Y245837D01*
X199775Y245999D01*
X199780Y246016D01*
X199788Y246032D01*
X199835Y246211D01*
X199886Y246386D01*
X199888Y246404D01*
X199892Y246421D01*
X199919Y246752D01*
X199919Y271540D01*
X199912Y271613D01*
X199914Y271686D01*
X199892Y271813D01*
X199879Y271941D01*
X199858Y272011D01*
X199845Y272083D01*
X199799Y272202D01*
X199761Y272325D01*
X199726Y272390D01*
X199700Y272458D01*
X199631Y272567D01*
X199569Y272680D01*
X199523Y272736D01*
X199483Y272798D01*
X199394Y272890D01*
X199312Y272989D01*
X199255Y273035D01*
X199204Y273087D01*
X199098Y273161D01*
X198998Y273241D01*
X198933Y273275D01*
X198873Y273317D01*
X198755Y273368D01*
X198641Y273427D01*
X198570Y273447D01*
X198503Y273476D01*
X198377Y273502D01*
X198254Y273538D01*
X198181Y273544D01*
X198109Y273559D01*
X197981Y273560D01*
X197852Y273571D01*
X197780Y273562D01*
X197706Y273563D01*
X197580Y273539D01*
X197453Y273524D01*
X197383Y273501D01*
X197311Y273488D01*
X197192Y273439D01*
X197070Y273399D01*
X197006Y273363D01*
X196938Y273335D01*
X196831Y273264D01*
X196719Y273201D01*
X196664Y273153D01*
X196603Y273113D01*
X196512Y273022D01*
X196415Y272938D01*
X196370Y272880D01*
X196318Y272828D01*
X196221Y272689D01*
X196168Y272620D01*
X196153Y272590D01*
X196129Y272556D01*
X192847Y266871D01*
X186759Y260783D01*
X179302Y256478D01*
X172293Y254600D01*
X172224Y254574D01*
X172153Y254557D01*
X172036Y254503D01*
X171916Y254457D01*
X171854Y254418D01*
X171787Y254388D01*
X171684Y254312D01*
X171575Y254244D01*
X171522Y254193D01*
X171463Y254150D01*
X171376Y254055D01*
X171282Y253967D01*
X171240Y253907D01*
X171191Y253853D01*
X171125Y253743D01*
X171050Y253638D01*
X171021Y253571D01*
X170983Y253508D01*
X170940Y253387D01*
X170888Y253269D01*
X170872Y253198D01*
X170847Y253129D01*
X170829Y253002D01*
X170801Y252876D01*
X170800Y252803D01*
X170789Y252731D01*
X170796Y252602D01*
X170794Y252474D01*
X170807Y252402D01*
X170811Y252328D01*
X170843Y252204D01*
X170866Y252078D01*
X170893Y252010D01*
X170911Y251939D01*
X170967Y251823D01*
X171015Y251704D01*
X171055Y251642D01*
X171087Y251576D01*
X171164Y251474D01*
X171234Y251366D01*
X171286Y251314D01*
X171330Y251255D01*
X171426Y251170D01*
X171516Y251079D01*
X171577Y251037D01*
X171632Y250989D01*
X171743Y250925D01*
X171849Y250852D01*
X171917Y250824D01*
X171980Y250787D01*
X172140Y250730D01*
X172220Y250696D01*
X172253Y250690D01*
X172293Y250676D01*
X178812Y248929D01*
X185629Y244993D01*
X185778Y244925D01*
X185925Y244852D01*
X185962Y244843D01*
X185996Y244827D01*
X186155Y244791D01*
X186314Y244748D01*
X186356Y244744D01*
X186388Y244737D01*
X186475Y244735D01*
X186645Y244721D01*
X197888Y244721D01*
X197906Y244723D01*
G37*
%LPC*%
G36*
X600063Y465205D02*
X600063Y465205D01*
X600063Y485183D01*
X607835Y485183D01*
X608481Y485010D01*
X609060Y484675D01*
X609533Y484202D01*
X609868Y483623D01*
X610041Y482977D01*
X610041Y465205D01*
X600063Y465205D01*
G37*
%LPD*%
%LPC*%
G36*
X600063Y437101D02*
X600063Y437101D01*
X600063Y457079D01*
X610041Y457079D01*
X610041Y439307D01*
X609868Y438661D01*
X609533Y438082D01*
X609060Y437609D01*
X608481Y437274D01*
X607835Y437101D01*
X600063Y437101D01*
G37*
%LPD*%
%LPC*%
G36*
X581959Y465205D02*
X581959Y465205D01*
X581959Y482977D01*
X582132Y483623D01*
X582467Y484202D01*
X582940Y484675D01*
X583519Y485010D01*
X584165Y485183D01*
X591937Y485183D01*
X591937Y465205D01*
X581959Y465205D01*
G37*
%LPD*%
%LPC*%
G36*
X584165Y437101D02*
X584165Y437101D01*
X583519Y437274D01*
X582940Y437609D01*
X582467Y438082D01*
X582132Y438661D01*
X581959Y439307D01*
X581959Y457079D01*
X591937Y457079D01*
X591937Y437101D01*
X584165Y437101D01*
G37*
%LPD*%
%LPC*%
G36*
X70679Y700701D02*
X70679Y700701D01*
X70679Y710913D01*
X79352Y710913D01*
X81339Y710651D01*
X83275Y710132D01*
X85127Y709365D01*
X86863Y708363D01*
X88454Y707143D01*
X89871Y705726D01*
X91091Y704135D01*
X92093Y702399D01*
X92797Y700701D01*
X70679Y700701D01*
G37*
%LPD*%
%LPC*%
G36*
X70479Y149157D02*
X70479Y149157D01*
X70479Y159369D01*
X79152Y159369D01*
X81139Y159107D01*
X83075Y158588D01*
X84927Y157821D01*
X86663Y156819D01*
X88254Y155599D01*
X89671Y154182D01*
X90891Y152591D01*
X91893Y150855D01*
X92597Y149157D01*
X70479Y149157D01*
G37*
%LPD*%
%LPC*%
G36*
X38403Y700701D02*
X38403Y700701D01*
X39107Y702399D01*
X40109Y704135D01*
X41329Y705726D01*
X42746Y707143D01*
X44337Y708363D01*
X46073Y709365D01*
X47925Y710132D01*
X49861Y710651D01*
X51848Y710913D01*
X60521Y710913D01*
X60521Y700701D01*
X38403Y700701D01*
G37*
%LPD*%
%LPC*%
G36*
X38203Y149157D02*
X38203Y149157D01*
X38907Y150855D01*
X39909Y152591D01*
X41129Y154182D01*
X42546Y155599D01*
X44137Y156819D01*
X45873Y157821D01*
X47725Y158588D01*
X49661Y159107D01*
X51648Y159369D01*
X60321Y159369D01*
X60321Y149157D01*
X38203Y149157D01*
G37*
%LPD*%
%LPC*%
G36*
X70479Y128787D02*
X70479Y128787D01*
X70479Y138999D01*
X92597Y138999D01*
X91893Y137301D01*
X90891Y135565D01*
X89671Y133974D01*
X88254Y132557D01*
X86663Y131337D01*
X84927Y130335D01*
X83075Y129568D01*
X81139Y129049D01*
X79152Y128787D01*
X70479Y128787D01*
G37*
%LPD*%
%LPC*%
G36*
X70679Y680331D02*
X70679Y680331D01*
X70679Y690543D01*
X92797Y690543D01*
X92093Y688845D01*
X91091Y687109D01*
X89871Y685518D01*
X88454Y684101D01*
X86863Y682881D01*
X85127Y681879D01*
X83275Y681112D01*
X81339Y680593D01*
X79352Y680331D01*
X70679Y680331D01*
G37*
%LPD*%
%LPC*%
G36*
X51648Y128787D02*
X51648Y128787D01*
X49661Y129049D01*
X47725Y129568D01*
X45873Y130335D01*
X44137Y131337D01*
X42546Y132557D01*
X41129Y133974D01*
X39909Y135565D01*
X38907Y137301D01*
X38203Y138999D01*
X60321Y138999D01*
X60321Y128787D01*
X51648Y128787D01*
G37*
%LPD*%
%LPC*%
G36*
X51848Y680331D02*
X51848Y680331D01*
X49861Y680593D01*
X47925Y681112D01*
X46073Y681879D01*
X44337Y682881D01*
X42746Y684101D01*
X41329Y685518D01*
X40109Y687109D01*
X39107Y688845D01*
X38403Y690543D01*
X60521Y690543D01*
X60521Y680331D01*
X51848Y680331D01*
G37*
%LPD*%
%LPC*%
G36*
X648881Y688831D02*
X648881Y688831D01*
X648881Y700341D01*
X650185Y700341D01*
X650831Y700168D01*
X651410Y699833D01*
X651764Y699479D01*
X651778Y699468D01*
X651789Y699454D01*
X651934Y699340D01*
X652075Y699224D01*
X652091Y699216D01*
X652105Y699205D01*
X652270Y699121D01*
X652431Y699036D01*
X652448Y699031D01*
X652464Y699023D01*
X652641Y698973D01*
X652817Y698921D01*
X652835Y698919D01*
X652852Y698915D01*
X653035Y698901D01*
X653218Y698885D01*
X653236Y698887D01*
X653253Y698885D01*
X653435Y698908D01*
X653618Y698928D01*
X653635Y698933D01*
X653653Y698936D01*
X653826Y698994D01*
X654002Y699049D01*
X654018Y699058D01*
X654034Y699064D01*
X654194Y699156D01*
X654354Y699244D01*
X654368Y699256D01*
X654383Y699265D01*
X654636Y699479D01*
X654990Y699833D01*
X655569Y700168D01*
X656215Y700341D01*
X657519Y700341D01*
X657519Y688831D01*
X648881Y688831D01*
G37*
%LPD*%
%LPC*%
G36*
X636181Y688831D02*
X636181Y688831D01*
X636181Y700341D01*
X637485Y700341D01*
X638131Y700168D01*
X638710Y699833D01*
X639064Y699479D01*
X639078Y699468D01*
X639089Y699454D01*
X639234Y699340D01*
X639375Y699224D01*
X639391Y699216D01*
X639405Y699205D01*
X639570Y699121D01*
X639731Y699036D01*
X639748Y699031D01*
X639764Y699023D01*
X639941Y698973D01*
X640117Y698921D01*
X640135Y698919D01*
X640152Y698915D01*
X640335Y698901D01*
X640518Y698885D01*
X640536Y698887D01*
X640553Y698885D01*
X640735Y698908D01*
X640918Y698928D01*
X640935Y698933D01*
X640953Y698936D01*
X641126Y698994D01*
X641302Y699049D01*
X641318Y699058D01*
X641334Y699064D01*
X641494Y699156D01*
X641654Y699244D01*
X641668Y699256D01*
X641683Y699265D01*
X641936Y699479D01*
X642290Y699833D01*
X642869Y700168D01*
X643515Y700341D01*
X644819Y700341D01*
X644819Y688831D01*
X636181Y688831D01*
G37*
%LPD*%
%LPC*%
G36*
X623481Y688831D02*
X623481Y688831D01*
X623481Y700341D01*
X624785Y700341D01*
X625431Y700168D01*
X626010Y699833D01*
X626364Y699479D01*
X626377Y699468D01*
X626389Y699455D01*
X626533Y699340D01*
X626675Y699224D01*
X626691Y699216D01*
X626705Y699205D01*
X626869Y699122D01*
X627031Y699036D01*
X627048Y699031D01*
X627064Y699023D01*
X627240Y698973D01*
X627417Y698921D01*
X627435Y698919D01*
X627452Y698915D01*
X627635Y698901D01*
X627818Y698885D01*
X627835Y698887D01*
X627853Y698885D01*
X628035Y698908D01*
X628218Y698928D01*
X628235Y698933D01*
X628253Y698936D01*
X628427Y698994D01*
X628602Y699049D01*
X628617Y699058D01*
X628634Y699064D01*
X628794Y699156D01*
X628954Y699244D01*
X628968Y699256D01*
X628983Y699265D01*
X629236Y699479D01*
X629590Y699833D01*
X630169Y700168D01*
X630815Y700341D01*
X632119Y700341D01*
X632119Y688831D01*
X623481Y688831D01*
G37*
%LPD*%
%LPC*%
G36*
X610781Y688831D02*
X610781Y688831D01*
X610781Y700341D01*
X612085Y700341D01*
X612731Y700168D01*
X613310Y699833D01*
X613664Y699479D01*
X613677Y699468D01*
X613689Y699455D01*
X613833Y699340D01*
X613975Y699224D01*
X613991Y699216D01*
X614005Y699205D01*
X614169Y699122D01*
X614331Y699036D01*
X614348Y699031D01*
X614364Y699023D01*
X614540Y698973D01*
X614717Y698921D01*
X614735Y698919D01*
X614752Y698915D01*
X614935Y698901D01*
X615118Y698885D01*
X615135Y698887D01*
X615153Y698885D01*
X615335Y698908D01*
X615518Y698928D01*
X615535Y698933D01*
X615553Y698936D01*
X615727Y698994D01*
X615902Y699049D01*
X615917Y699058D01*
X615934Y699064D01*
X616094Y699156D01*
X616254Y699244D01*
X616268Y699256D01*
X616283Y699265D01*
X616536Y699479D01*
X616890Y699833D01*
X617469Y700168D01*
X618115Y700341D01*
X619419Y700341D01*
X619419Y688831D01*
X610781Y688831D01*
G37*
%LPD*%
%LPC*%
G36*
X648881Y765259D02*
X648881Y765259D01*
X648881Y776769D01*
X657519Y776769D01*
X657519Y765259D01*
X656215Y765259D01*
X655569Y765432D01*
X654990Y765767D01*
X654636Y766121D01*
X654622Y766132D01*
X654611Y766146D01*
X654466Y766260D01*
X654325Y766376D01*
X654309Y766384D01*
X654295Y766395D01*
X654130Y766479D01*
X653969Y766564D01*
X653952Y766569D01*
X653936Y766577D01*
X653759Y766627D01*
X653583Y766679D01*
X653565Y766681D01*
X653548Y766685D01*
X653365Y766699D01*
X653182Y766715D01*
X653164Y766713D01*
X653147Y766715D01*
X652965Y766692D01*
X652782Y766672D01*
X652765Y766667D01*
X652747Y766664D01*
X652574Y766606D01*
X652398Y766551D01*
X652382Y766542D01*
X652366Y766536D01*
X652206Y766444D01*
X652046Y766356D01*
X652032Y766344D01*
X652017Y766335D01*
X651764Y766121D01*
X651410Y765767D01*
X650831Y765432D01*
X650185Y765259D01*
X648881Y765259D01*
G37*
%LPD*%
%LPC*%
G36*
X610781Y673259D02*
X610781Y673259D01*
X610781Y684769D01*
X619419Y684769D01*
X619419Y673259D01*
X618115Y673259D01*
X617469Y673432D01*
X616890Y673767D01*
X616536Y674121D01*
X616522Y674132D01*
X616511Y674146D01*
X616366Y674260D01*
X616225Y674376D01*
X616209Y674384D01*
X616195Y674395D01*
X616030Y674479D01*
X615869Y674564D01*
X615852Y674569D01*
X615836Y674577D01*
X615659Y674627D01*
X615483Y674679D01*
X615465Y674681D01*
X615448Y674685D01*
X615265Y674699D01*
X615082Y674715D01*
X615064Y674713D01*
X615047Y674715D01*
X614865Y674692D01*
X614682Y674672D01*
X614665Y674667D01*
X614647Y674664D01*
X614474Y674606D01*
X614298Y674551D01*
X614282Y674542D01*
X614266Y674536D01*
X614106Y674444D01*
X613946Y674356D01*
X613932Y674344D01*
X613917Y674335D01*
X613664Y674121D01*
X613310Y673767D01*
X612731Y673432D01*
X612085Y673259D01*
X610781Y673259D01*
G37*
%LPD*%
%LPC*%
G36*
X636181Y765259D02*
X636181Y765259D01*
X636181Y776769D01*
X644819Y776769D01*
X644819Y765259D01*
X643515Y765259D01*
X642869Y765432D01*
X642290Y765767D01*
X641936Y766121D01*
X641922Y766132D01*
X641911Y766146D01*
X641766Y766260D01*
X641625Y766376D01*
X641609Y766384D01*
X641595Y766395D01*
X641430Y766479D01*
X641269Y766564D01*
X641252Y766569D01*
X641236Y766577D01*
X641059Y766627D01*
X640883Y766679D01*
X640865Y766681D01*
X640848Y766685D01*
X640665Y766699D01*
X640482Y766715D01*
X640464Y766713D01*
X640447Y766715D01*
X640265Y766692D01*
X640082Y766672D01*
X640065Y766667D01*
X640047Y766664D01*
X639874Y766606D01*
X639698Y766551D01*
X639682Y766542D01*
X639666Y766536D01*
X639506Y766444D01*
X639346Y766356D01*
X639332Y766344D01*
X639317Y766335D01*
X639064Y766121D01*
X638710Y765767D01*
X638131Y765432D01*
X637485Y765259D01*
X636181Y765259D01*
G37*
%LPD*%
%LPC*%
G36*
X623481Y673259D02*
X623481Y673259D01*
X623481Y684769D01*
X632119Y684769D01*
X632119Y673259D01*
X630815Y673259D01*
X630169Y673432D01*
X629590Y673767D01*
X629236Y674121D01*
X629222Y674132D01*
X629211Y674146D01*
X629066Y674260D01*
X628925Y674376D01*
X628909Y674384D01*
X628895Y674395D01*
X628730Y674479D01*
X628569Y674564D01*
X628552Y674569D01*
X628536Y674577D01*
X628359Y674627D01*
X628183Y674679D01*
X628165Y674681D01*
X628148Y674685D01*
X627965Y674699D01*
X627782Y674715D01*
X627764Y674713D01*
X627747Y674715D01*
X627565Y674692D01*
X627382Y674672D01*
X627365Y674667D01*
X627347Y674664D01*
X627174Y674606D01*
X626998Y674551D01*
X626982Y674542D01*
X626966Y674536D01*
X626806Y674444D01*
X626646Y674356D01*
X626632Y674344D01*
X626617Y674335D01*
X626364Y674121D01*
X626010Y673767D01*
X625431Y673432D01*
X624785Y673259D01*
X623481Y673259D01*
G37*
%LPD*%
%LPC*%
G36*
X648881Y673259D02*
X648881Y673259D01*
X648881Y684769D01*
X657519Y684769D01*
X657519Y673259D01*
X656215Y673259D01*
X655569Y673432D01*
X654990Y673767D01*
X654636Y674121D01*
X654623Y674132D01*
X654611Y674145D01*
X654467Y674260D01*
X654325Y674376D01*
X654309Y674384D01*
X654295Y674395D01*
X654131Y674478D01*
X653969Y674564D01*
X653952Y674569D01*
X653936Y674577D01*
X653760Y674627D01*
X653583Y674679D01*
X653565Y674681D01*
X653548Y674685D01*
X653365Y674699D01*
X653182Y674715D01*
X653165Y674713D01*
X653147Y674715D01*
X652965Y674692D01*
X652782Y674672D01*
X652765Y674667D01*
X652747Y674664D01*
X652573Y674606D01*
X652398Y674551D01*
X652383Y674542D01*
X652366Y674536D01*
X652206Y674444D01*
X652046Y674356D01*
X652032Y674344D01*
X652017Y674335D01*
X651764Y674121D01*
X651410Y673767D01*
X650831Y673432D01*
X650185Y673259D01*
X648881Y673259D01*
G37*
%LPD*%
%LPC*%
G36*
X623481Y765259D02*
X623481Y765259D01*
X623481Y776769D01*
X632119Y776769D01*
X632119Y765259D01*
X630815Y765259D01*
X630169Y765432D01*
X629590Y765767D01*
X629236Y766121D01*
X629223Y766132D01*
X629211Y766145D01*
X629067Y766260D01*
X628925Y766376D01*
X628909Y766384D01*
X628895Y766395D01*
X628731Y766478D01*
X628569Y766564D01*
X628552Y766569D01*
X628536Y766577D01*
X628360Y766627D01*
X628183Y766679D01*
X628165Y766681D01*
X628148Y766685D01*
X627965Y766699D01*
X627782Y766715D01*
X627765Y766713D01*
X627747Y766715D01*
X627565Y766692D01*
X627382Y766672D01*
X627365Y766667D01*
X627347Y766664D01*
X627173Y766606D01*
X626998Y766551D01*
X626983Y766542D01*
X626966Y766536D01*
X626806Y766444D01*
X626646Y766356D01*
X626632Y766344D01*
X626617Y766335D01*
X626364Y766121D01*
X626010Y765767D01*
X625431Y765432D01*
X624785Y765259D01*
X623481Y765259D01*
G37*
%LPD*%
%LPC*%
G36*
X636181Y673259D02*
X636181Y673259D01*
X636181Y684769D01*
X644819Y684769D01*
X644819Y673259D01*
X643515Y673259D01*
X642869Y673432D01*
X642290Y673767D01*
X641936Y674121D01*
X641923Y674132D01*
X641911Y674145D01*
X641767Y674260D01*
X641625Y674376D01*
X641609Y674384D01*
X641595Y674395D01*
X641431Y674478D01*
X641269Y674564D01*
X641252Y674569D01*
X641236Y674577D01*
X641060Y674627D01*
X640883Y674679D01*
X640865Y674681D01*
X640848Y674685D01*
X640665Y674699D01*
X640482Y674715D01*
X640465Y674713D01*
X640447Y674715D01*
X640265Y674692D01*
X640082Y674672D01*
X640065Y674667D01*
X640047Y674664D01*
X639873Y674606D01*
X639698Y674551D01*
X639683Y674542D01*
X639666Y674536D01*
X639506Y674444D01*
X639346Y674356D01*
X639332Y674344D01*
X639317Y674335D01*
X639064Y674121D01*
X638710Y673767D01*
X638131Y673432D01*
X637485Y673259D01*
X636181Y673259D01*
G37*
%LPD*%
%LPC*%
G36*
X773439Y791839D02*
X773439Y791839D01*
X773439Y806779D01*
X774800Y806336D01*
X776225Y805610D01*
X777519Y804670D01*
X778650Y803539D01*
X779590Y802245D01*
X780316Y800820D01*
X780811Y799299D01*
X781061Y797720D01*
X781061Y791839D01*
X773439Y791839D01*
G37*
%LPD*%
%LPC*%
G36*
X773439Y786761D02*
X773439Y786761D01*
X781061Y786761D01*
X781061Y780880D01*
X780811Y779301D01*
X780316Y777780D01*
X779590Y776355D01*
X778650Y775061D01*
X777519Y773930D01*
X776225Y772990D01*
X774800Y772264D01*
X773439Y771821D01*
X773439Y786761D01*
G37*
%LPD*%
%LPC*%
G36*
X405399Y760099D02*
X405399Y760099D01*
X405399Y769241D01*
X412335Y769241D01*
X412981Y769068D01*
X413560Y768733D01*
X414033Y768260D01*
X414368Y767681D01*
X414541Y767035D01*
X414541Y760099D01*
X405399Y760099D01*
G37*
%LPD*%
%LPC*%
G36*
X405399Y744359D02*
X405399Y744359D01*
X405399Y753501D01*
X414541Y753501D01*
X414541Y746565D01*
X414368Y745919D01*
X414033Y745340D01*
X413560Y744867D01*
X412981Y744532D01*
X412335Y744359D01*
X405399Y744359D01*
G37*
%LPD*%
%LPC*%
G36*
X43779Y806579D02*
X43779Y806579D01*
X43779Y817134D01*
X43988Y817078D01*
X45976Y816254D01*
X47840Y815178D01*
X49547Y813868D01*
X51068Y812347D01*
X52378Y810640D01*
X53454Y808776D01*
X54278Y806788D01*
X54334Y806579D01*
X43779Y806579D01*
G37*
%LPD*%
%LPC*%
G36*
X44079Y44279D02*
X44079Y44279D01*
X44079Y54834D01*
X44288Y54778D01*
X46276Y53954D01*
X48140Y52878D01*
X49847Y51568D01*
X51368Y50047D01*
X52678Y48340D01*
X53754Y46476D01*
X54578Y44488D01*
X54634Y44279D01*
X44079Y44279D01*
G37*
%LPD*%
%LPC*%
G36*
X114179Y44279D02*
X114179Y44279D01*
X114179Y54834D01*
X114388Y54778D01*
X116376Y53954D01*
X118240Y52878D01*
X119947Y51568D01*
X121468Y50047D01*
X122778Y48340D01*
X123854Y46476D01*
X124678Y44488D01*
X124734Y44279D01*
X114179Y44279D01*
G37*
%LPD*%
%LPC*%
G36*
X114179Y94279D02*
X114179Y94279D01*
X114179Y104834D01*
X114388Y104778D01*
X116376Y103954D01*
X118240Y102878D01*
X119947Y101568D01*
X121468Y100047D01*
X122778Y98340D01*
X123854Y96476D01*
X124678Y94488D01*
X124734Y94279D01*
X114179Y94279D01*
G37*
%LPD*%
%LPC*%
G36*
X44079Y94279D02*
X44079Y94279D01*
X44079Y104834D01*
X44288Y104778D01*
X46276Y103954D01*
X48140Y102878D01*
X49847Y101568D01*
X51368Y100047D01*
X52678Y98340D01*
X53754Y96476D01*
X54578Y94488D01*
X54634Y94279D01*
X44079Y94279D01*
G37*
%LPD*%
%LPC*%
G36*
X113879Y806579D02*
X113879Y806579D01*
X113879Y817134D01*
X114088Y817078D01*
X116076Y816254D01*
X117940Y815178D01*
X119647Y813868D01*
X121168Y812347D01*
X122478Y810640D01*
X123554Y808776D01*
X124378Y806788D01*
X124434Y806579D01*
X113879Y806579D01*
G37*
%LPD*%
%LPC*%
G36*
X113879Y756579D02*
X113879Y756579D01*
X113879Y767134D01*
X114088Y767078D01*
X116076Y766254D01*
X117940Y765178D01*
X119647Y763868D01*
X121168Y762347D01*
X122478Y760640D01*
X123554Y758776D01*
X124378Y756788D01*
X124434Y756579D01*
X113879Y756579D01*
G37*
%LPD*%
%LPC*%
G36*
X43779Y756579D02*
X43779Y756579D01*
X43779Y767134D01*
X43988Y767078D01*
X45976Y766254D01*
X47840Y765178D01*
X49547Y763868D01*
X51068Y762347D01*
X52378Y760640D01*
X53454Y758776D01*
X54278Y756788D01*
X54334Y756579D01*
X43779Y756579D01*
G37*
%LPD*%
%LPC*%
G36*
X23066Y806579D02*
X23066Y806579D01*
X23122Y806788D01*
X23946Y808776D01*
X25022Y810640D01*
X26332Y812347D01*
X27853Y813868D01*
X29560Y815178D01*
X31424Y816254D01*
X33412Y817078D01*
X33621Y817134D01*
X33621Y806579D01*
X23066Y806579D01*
G37*
%LPD*%
%LPC*%
G36*
X93166Y806579D02*
X93166Y806579D01*
X93222Y806788D01*
X94046Y808776D01*
X95122Y810640D01*
X96432Y812347D01*
X97953Y813868D01*
X99660Y815178D01*
X101524Y816254D01*
X103512Y817078D01*
X103721Y817134D01*
X103721Y806579D01*
X93166Y806579D01*
G37*
%LPD*%
%LPC*%
G36*
X44079Y34121D02*
X44079Y34121D01*
X54634Y34121D01*
X54578Y33912D01*
X53754Y31924D01*
X52678Y30060D01*
X51368Y28353D01*
X49847Y26832D01*
X48140Y25522D01*
X46276Y24446D01*
X44288Y23622D01*
X44079Y23566D01*
X44079Y34121D01*
G37*
%LPD*%
%LPC*%
G36*
X114179Y34121D02*
X114179Y34121D01*
X124734Y34121D01*
X124678Y33912D01*
X123854Y31924D01*
X122778Y30060D01*
X121468Y28353D01*
X119947Y26832D01*
X118240Y25522D01*
X116376Y24446D01*
X114388Y23622D01*
X114179Y23566D01*
X114179Y34121D01*
G37*
%LPD*%
%LPC*%
G36*
X93466Y44279D02*
X93466Y44279D01*
X93522Y44488D01*
X94346Y46476D01*
X95422Y48340D01*
X96732Y50047D01*
X98253Y51568D01*
X99960Y52878D01*
X101824Y53954D01*
X103812Y54778D01*
X104021Y54834D01*
X104021Y44279D01*
X93466Y44279D01*
G37*
%LPD*%
%LPC*%
G36*
X113879Y796421D02*
X113879Y796421D01*
X124434Y796421D01*
X124378Y796212D01*
X123554Y794224D01*
X122478Y792360D01*
X121168Y790653D01*
X119647Y789132D01*
X117940Y787822D01*
X116076Y786746D01*
X114088Y785922D01*
X113879Y785866D01*
X113879Y796421D01*
G37*
%LPD*%
%LPC*%
G36*
X23366Y44279D02*
X23366Y44279D01*
X23422Y44488D01*
X24246Y46476D01*
X25322Y48340D01*
X26632Y50047D01*
X28153Y51568D01*
X29860Y52878D01*
X31724Y53954D01*
X33712Y54778D01*
X33921Y54834D01*
X33921Y44279D01*
X23366Y44279D01*
G37*
%LPD*%
%LPC*%
G36*
X44079Y84121D02*
X44079Y84121D01*
X54634Y84121D01*
X54578Y83912D01*
X53754Y81924D01*
X52678Y80060D01*
X51368Y78353D01*
X49847Y76832D01*
X48140Y75522D01*
X46276Y74446D01*
X44288Y73622D01*
X44079Y73566D01*
X44079Y84121D01*
G37*
%LPD*%
%LPC*%
G36*
X114179Y84121D02*
X114179Y84121D01*
X124734Y84121D01*
X124678Y83912D01*
X123854Y81924D01*
X122778Y80060D01*
X121468Y78353D01*
X119947Y76832D01*
X118240Y75522D01*
X116376Y74446D01*
X114388Y73622D01*
X114179Y73566D01*
X114179Y84121D01*
G37*
%LPD*%
%LPC*%
G36*
X93466Y94279D02*
X93466Y94279D01*
X93522Y94488D01*
X94346Y96476D01*
X95422Y98340D01*
X96732Y100047D01*
X98253Y101568D01*
X99960Y102878D01*
X101824Y103954D01*
X103812Y104778D01*
X104021Y104834D01*
X104021Y94279D01*
X93466Y94279D01*
G37*
%LPD*%
%LPC*%
G36*
X43779Y796421D02*
X43779Y796421D01*
X54334Y796421D01*
X54278Y796212D01*
X53454Y794224D01*
X52378Y792360D01*
X51068Y790653D01*
X49547Y789132D01*
X47840Y787822D01*
X45976Y786746D01*
X43988Y785922D01*
X43779Y785866D01*
X43779Y796421D01*
G37*
%LPD*%
%LPC*%
G36*
X43779Y746421D02*
X43779Y746421D01*
X54334Y746421D01*
X54278Y746212D01*
X53454Y744224D01*
X52378Y742360D01*
X51068Y740653D01*
X49547Y739132D01*
X47840Y737822D01*
X45976Y736746D01*
X43988Y735922D01*
X43779Y735866D01*
X43779Y746421D01*
G37*
%LPD*%
%LPC*%
G36*
X113879Y746421D02*
X113879Y746421D01*
X124434Y746421D01*
X124378Y746212D01*
X123554Y744224D01*
X122478Y742360D01*
X121168Y740653D01*
X119647Y739132D01*
X117940Y737822D01*
X116076Y736746D01*
X114088Y735922D01*
X113879Y735866D01*
X113879Y746421D01*
G37*
%LPD*%
%LPC*%
G36*
X23366Y94279D02*
X23366Y94279D01*
X23422Y94488D01*
X24246Y96476D01*
X25322Y98340D01*
X26632Y100047D01*
X28153Y101568D01*
X29860Y102878D01*
X31724Y103954D01*
X33712Y104778D01*
X33921Y104834D01*
X33921Y94279D01*
X23366Y94279D01*
G37*
%LPD*%
%LPC*%
G36*
X93166Y756579D02*
X93166Y756579D01*
X93222Y756788D01*
X94046Y758776D01*
X95122Y760640D01*
X96432Y762347D01*
X97953Y763868D01*
X99660Y765178D01*
X101524Y766254D01*
X103512Y767078D01*
X103721Y767134D01*
X103721Y756579D01*
X93166Y756579D01*
G37*
%LPD*%
%LPC*%
G36*
X23066Y756579D02*
X23066Y756579D01*
X23122Y756788D01*
X23946Y758776D01*
X25022Y760640D01*
X26332Y762347D01*
X27853Y763868D01*
X29560Y765178D01*
X31424Y766254D01*
X33412Y767078D01*
X33621Y767134D01*
X33621Y756579D01*
X23066Y756579D01*
G37*
%LPD*%
%LPC*%
G36*
X33412Y735922D02*
X33412Y735922D01*
X31424Y736746D01*
X29560Y737822D01*
X27853Y739132D01*
X26332Y740653D01*
X25022Y742360D01*
X23946Y744224D01*
X23122Y746212D01*
X23066Y746421D01*
X33621Y746421D01*
X33621Y735866D01*
X33412Y735922D01*
G37*
%LPD*%
%LPC*%
G36*
X103512Y735922D02*
X103512Y735922D01*
X101524Y736746D01*
X99660Y737822D01*
X97953Y739132D01*
X96432Y740653D01*
X95122Y742360D01*
X94046Y744224D01*
X93222Y746212D01*
X93166Y746421D01*
X103721Y746421D01*
X103721Y735866D01*
X103512Y735922D01*
G37*
%LPD*%
%LPC*%
G36*
X103512Y785922D02*
X103512Y785922D01*
X101524Y786746D01*
X99660Y787822D01*
X97953Y789132D01*
X96432Y790653D01*
X95122Y792360D01*
X94046Y794224D01*
X93222Y796212D01*
X93166Y796421D01*
X103721Y796421D01*
X103721Y785866D01*
X103512Y785922D01*
G37*
%LPD*%
%LPC*%
G36*
X33412Y785922D02*
X33412Y785922D01*
X31424Y786746D01*
X29560Y787822D01*
X27853Y789132D01*
X26332Y790653D01*
X25022Y792360D01*
X23946Y794224D01*
X23122Y796212D01*
X23066Y796421D01*
X33621Y796421D01*
X33621Y785866D01*
X33412Y785922D01*
G37*
%LPD*%
%LPC*%
G36*
X33712Y73622D02*
X33712Y73622D01*
X31724Y74446D01*
X29860Y75522D01*
X28153Y76832D01*
X26632Y78353D01*
X25322Y80060D01*
X24246Y81924D01*
X23422Y83912D01*
X23366Y84121D01*
X33921Y84121D01*
X33921Y73566D01*
X33712Y73622D01*
G37*
%LPD*%
%LPC*%
G36*
X103812Y73622D02*
X103812Y73622D01*
X101824Y74446D01*
X99960Y75522D01*
X98253Y76832D01*
X96732Y78353D01*
X95422Y80060D01*
X94346Y81924D01*
X93522Y83912D01*
X93466Y84121D01*
X104021Y84121D01*
X104021Y73566D01*
X103812Y73622D01*
G37*
%LPD*%
%LPC*%
G36*
X103812Y23622D02*
X103812Y23622D01*
X101824Y24446D01*
X99960Y25522D01*
X98253Y26832D01*
X96732Y28353D01*
X95422Y30060D01*
X94346Y31924D01*
X93522Y33912D01*
X93466Y34121D01*
X104021Y34121D01*
X104021Y23566D01*
X103812Y23622D01*
G37*
%LPD*%
%LPC*%
G36*
X33712Y23622D02*
X33712Y23622D01*
X31724Y24446D01*
X29860Y25522D01*
X28153Y26832D01*
X26632Y28353D01*
X25322Y30060D01*
X24246Y31924D01*
X23422Y33912D01*
X23366Y34121D01*
X33921Y34121D01*
X33921Y23566D01*
X33712Y23622D01*
G37*
%LPD*%
%LPC*%
G36*
X235439Y116939D02*
X235439Y116939D01*
X235439Y126857D01*
X235874Y126788D01*
X237775Y126170D01*
X239557Y125263D01*
X241174Y124088D01*
X242588Y122674D01*
X243763Y121057D01*
X244670Y119275D01*
X245288Y117374D01*
X245357Y116939D01*
X235439Y116939D01*
G37*
%LPD*%
%LPC*%
G36*
X235439Y111861D02*
X235439Y111861D01*
X245357Y111861D01*
X245288Y111426D01*
X244670Y109525D01*
X243763Y107743D01*
X242588Y106126D01*
X241174Y104712D01*
X239557Y103537D01*
X237775Y102630D01*
X235874Y102012D01*
X235439Y101943D01*
X235439Y111861D01*
G37*
%LPD*%
%LPC*%
G36*
X220443Y116939D02*
X220443Y116939D01*
X220512Y117374D01*
X221130Y119275D01*
X222037Y121057D01*
X223212Y122674D01*
X224626Y124088D01*
X226243Y125263D01*
X228025Y126170D01*
X229926Y126788D01*
X230361Y126857D01*
X230361Y116939D01*
X220443Y116939D01*
G37*
%LPD*%
%LPC*%
G36*
X229926Y102012D02*
X229926Y102012D01*
X228025Y102630D01*
X226243Y103537D01*
X224626Y104712D01*
X223212Y106126D01*
X222037Y107743D01*
X221130Y109525D01*
X220512Y111426D01*
X220443Y111861D01*
X230361Y111861D01*
X230361Y101943D01*
X229926Y102012D01*
G37*
%LPD*%
%LPC*%
G36*
X460939Y697639D02*
X460939Y697639D01*
X460939Y705261D01*
X466355Y705261D01*
X467001Y705088D01*
X467580Y704753D01*
X468053Y704280D01*
X468388Y703701D01*
X468561Y703055D01*
X468561Y697639D01*
X460939Y697639D01*
G37*
%LPD*%
%LPC*%
G36*
X448239Y697639D02*
X448239Y697639D01*
X448239Y703055D01*
X448412Y703701D01*
X448747Y704280D01*
X449220Y704753D01*
X449799Y705088D01*
X450445Y705261D01*
X455861Y705261D01*
X455861Y697639D01*
X448239Y697639D01*
G37*
%LPD*%
%LPC*%
G36*
X460939Y684939D02*
X460939Y684939D01*
X460939Y692561D01*
X468561Y692561D01*
X468561Y687145D01*
X468388Y686499D01*
X468053Y685920D01*
X467580Y685447D01*
X467001Y685112D01*
X466355Y684939D01*
X460939Y684939D01*
G37*
%LPD*%
%LPC*%
G36*
X450445Y684939D02*
X450445Y684939D01*
X449799Y685112D01*
X449220Y685447D01*
X448747Y685920D01*
X448412Y686499D01*
X448239Y687145D01*
X448239Y692561D01*
X455861Y692561D01*
X455861Y684939D01*
X450445Y684939D01*
G37*
%LPD*%
%LPC*%
G36*
X661581Y688831D02*
X661581Y688831D01*
X661581Y700341D01*
X662885Y700341D01*
X663531Y700168D01*
X664110Y699833D01*
X664583Y699360D01*
X664918Y698781D01*
X665091Y698135D01*
X665091Y688831D01*
X661581Y688831D01*
G37*
%LPD*%
%LPC*%
G36*
X661581Y765259D02*
X661581Y765259D01*
X661581Y776769D01*
X665091Y776769D01*
X665091Y767465D01*
X664918Y766819D01*
X664583Y766240D01*
X664110Y765767D01*
X663531Y765432D01*
X662885Y765259D01*
X661581Y765259D01*
G37*
%LPD*%
%LPC*%
G36*
X661581Y673259D02*
X661581Y673259D01*
X661581Y684769D01*
X665091Y684769D01*
X665091Y675465D01*
X664918Y674819D01*
X664583Y674240D01*
X664110Y673767D01*
X663531Y673432D01*
X662885Y673259D01*
X661581Y673259D01*
G37*
%LPD*%
%LPC*%
G36*
X453049Y715159D02*
X453049Y715159D01*
X453049Y720951D01*
X459841Y720951D01*
X459841Y717365D01*
X459668Y716719D01*
X459333Y716140D01*
X458860Y715667D01*
X458281Y715332D01*
X457635Y715159D01*
X453049Y715159D01*
G37*
%LPD*%
%LPC*%
G36*
X441965Y715159D02*
X441965Y715159D01*
X441319Y715332D01*
X440740Y715667D01*
X440267Y716140D01*
X439932Y716719D01*
X439759Y717365D01*
X439759Y720951D01*
X446551Y720951D01*
X446551Y715159D01*
X441965Y715159D01*
G37*
%LPD*%
%LPC*%
G36*
X323331Y58121D02*
X323331Y58121D01*
X323331Y64727D01*
X324877Y64727D01*
X329937Y59667D01*
X329937Y58121D01*
X323331Y58121D01*
G37*
%LPD*%
%LPC*%
G36*
X274373Y758831D02*
X274373Y758831D01*
X274373Y760377D01*
X279433Y765437D01*
X280979Y765437D01*
X280979Y758831D01*
X274373Y758831D01*
G37*
%LPD*%
%LPC*%
G36*
X454431Y765179D02*
X454431Y765179D01*
X461037Y765179D01*
X461037Y763633D01*
X455977Y758573D01*
X454431Y758573D01*
X454431Y765179D01*
G37*
%LPD*%
%LPC*%
G36*
X312663Y58121D02*
X312663Y58121D01*
X312663Y59667D01*
X317723Y64727D01*
X319269Y64727D01*
X319269Y58121D01*
X312663Y58121D01*
G37*
%LPD*%
%LPC*%
G36*
X448823Y758573D02*
X448823Y758573D01*
X443763Y763633D01*
X443763Y765179D01*
X450369Y765179D01*
X450369Y758573D01*
X448823Y758573D01*
G37*
%LPD*%
%LPC*%
G36*
X279433Y748163D02*
X279433Y748163D01*
X274373Y753223D01*
X274373Y754769D01*
X280979Y754769D01*
X280979Y748163D01*
X279433Y748163D01*
G37*
%LPD*%
%LPC*%
G36*
X595999Y461141D02*
X595999Y461141D01*
X595999Y461143D01*
X596001Y461143D01*
X596001Y461141D01*
X595999Y461141D01*
G37*
%LPD*%
D10*
X321300Y56090D03*
D11*
X321300Y38310D03*
D12*
X78350Y695622D02*
X52850Y695622D01*
X52850Y470578D02*
X78350Y470578D01*
D13*
X164400Y643100D03*
X164400Y593100D03*
X458400Y695100D03*
X458400Y541100D03*
D14*
X108800Y751500D03*
X108800Y801500D03*
X38700Y801500D03*
X38700Y751500D03*
X39000Y89200D03*
X39000Y39200D03*
X109100Y39200D03*
X109100Y89200D03*
D15*
X364400Y105800D03*
X440600Y105800D03*
X274600Y38200D03*
X274600Y114400D03*
X232900Y114400D03*
X232900Y38200D03*
X440600Y71000D03*
X364400Y71000D03*
D12*
X78150Y144078D02*
X52650Y144078D01*
X52650Y369122D02*
X78150Y369122D01*
D16*
X166680Y421560D03*
X166680Y354250D03*
X166680Y286950D03*
X166680Y219640D03*
X476690Y421560D03*
X476690Y354250D03*
X476690Y286950D03*
X476690Y219640D03*
D17*
X583350Y778800D03*
X608750Y686800D03*
X570650Y778800D03*
X596050Y778800D03*
X608750Y778800D03*
X596050Y686800D03*
X621450Y686800D03*
X634150Y686800D03*
X634150Y778800D03*
X659550Y686800D03*
X621450Y778800D03*
X646850Y778800D03*
X646850Y686800D03*
X659550Y778800D03*
X583350Y686800D03*
X570650Y686800D03*
D18*
X596000Y461142D03*
D19*
X596000Y625555D03*
D20*
X605900Y144320D02*
X605900Y129080D01*
X631300Y129080D02*
X631300Y144320D01*
D21*
X509200Y667000D03*
X509200Y743200D03*
X543500Y666900D03*
X543500Y743100D03*
D20*
X691700Y144320D02*
X691700Y129080D01*
X717100Y129080D02*
X717100Y144320D01*
D22*
X402100Y756800D03*
D23*
X375100Y756800D03*
X348100Y756800D03*
D24*
X283010Y756800D03*
D11*
X300790Y756800D03*
D25*
X452400Y767210D03*
D11*
X452400Y784990D03*
D20*
X751380Y324300D02*
X766620Y324300D01*
X766620Y349700D02*
X751380Y349700D01*
X770900Y781680D02*
X770900Y796920D01*
X745500Y796920D02*
X745500Y781680D01*
D26*
X480100Y724200D03*
X480100Y743200D03*
D27*
X547600Y778800D03*
X528600Y778800D03*
D26*
X449800Y724200D03*
X449800Y743200D03*
D28*
X565500Y176200D03*
X545500Y176200D03*
X525500Y176200D03*
D29*
X375100Y756800D02*
X375100Y778100D01*
X382000Y785000D01*
X452390Y785000D01*
X452400Y784990D01*
X471710Y804300D01*
D30*
X452400Y784990D02*
X498610Y784990D01*
X509300Y774300D01*
X509300Y743300D01*
X509200Y743200D01*
X572500Y743100D02*
X583400Y754000D01*
X583400Y778750D01*
X583350Y778800D01*
D29*
X471710Y804300D02*
X730500Y804300D01*
X745500Y789300D01*
D31*
X745500Y691500D01*
X687000Y633000D01*
X687000Y444000D01*
D32*
X621950Y328050D03*
D31*
X621950Y378950D01*
X687000Y444000D01*
X528600Y757900D02*
X528600Y778800D01*
X509200Y743200D02*
X480100Y743200D01*
X449800Y743200D01*
D30*
X543500Y743100D02*
X572500Y743100D01*
X543400Y743200D02*
X509200Y743200D01*
X543400Y743200D02*
X543500Y743100D01*
D31*
X528700Y757900D01*
X528600Y757900D01*
X621950Y328050D02*
X621950Y230000D01*
X604200Y176200D02*
X565500Y176200D01*
X604200Y176200D02*
X622000Y194000D01*
X621950Y194050D01*
X621950Y230000D01*
D33*
X675400Y383400D03*
D30*
X686700Y349700D02*
X759000Y349700D01*
X686700Y349700D02*
X675400Y361000D01*
X675400Y383400D01*
D33*
X656600Y383500D03*
D30*
X668300Y324300D02*
X759000Y324300D01*
X668300Y324300D02*
X656600Y336000D01*
X656600Y383500D01*
D33*
X545500Y386500D03*
D30*
X597500Y386500D01*
X666000Y455000D01*
X666000Y633000D01*
X643000Y656000D01*
D33*
X643000Y656000D03*
D29*
X476690Y219640D02*
X476690Y79690D01*
X468000Y71000D01*
X440600Y71000D01*
X440600Y47200D01*
X431710Y38310D01*
X321300Y38310D01*
X321190Y38200D01*
X274600Y38200D01*
D34*
X232900Y38200D01*
D29*
X364400Y71000D02*
X364400Y105800D01*
D33*
X633000Y637000D03*
D34*
X364400Y458400D02*
X364400Y105800D01*
X364400Y458400D02*
X405000Y499000D01*
X569000Y499000D01*
X633000Y563000D02*
X633000Y637000D01*
X633000Y563000D02*
X569000Y499000D01*
D29*
X348100Y756800D02*
X300790Y756800D01*
X348100Y756800D02*
X348100Y584900D01*
X392000Y541000D01*
X458300Y541000D01*
X458400Y541100D01*
X65600Y470578D02*
X65600Y430900D01*
X74940Y421560D02*
X166680Y421560D01*
X74940Y421560D02*
X65600Y430900D01*
X65600Y470578D02*
X65600Y633700D01*
X75000Y643100D02*
X164400Y643100D01*
X75000Y643100D02*
X65600Y633700D01*
X65400Y369122D02*
X65400Y243200D01*
X89000Y219600D01*
X166640Y219600D01*
X166680Y219640D01*
X210040Y219640D01*
X225000Y234600D01*
X210300Y593100D02*
X164400Y593100D01*
X210300Y593100D02*
X225000Y578400D01*
X225000Y234600D01*
X440600Y275600D02*
X440600Y105800D01*
X440600Y275600D02*
X452000Y287000D01*
X476640Y287000D01*
X476690Y286950D01*
D35*
X166680Y286950D02*
X166680Y354250D01*
D30*
X509200Y652800D02*
X509200Y667000D01*
X509200Y652800D02*
X513000Y649000D01*
X573400Y649000D01*
X583400Y659000D01*
X583400Y686750D01*
X583350Y686800D01*
X570650Y686800D02*
X570650Y671450D01*
X566100Y666900D01*
X543500Y666900D01*
X596050Y686800D02*
X596050Y625605D01*
X596000Y625555D01*
D32*
X570900Y365200D03*
X570900Y217700D03*
D31*
X570900Y365200D01*
D33*
X675500Y90100D03*
D30*
X675500Y191500D01*
X793000Y309000D01*
X793000Y785000D01*
X788000Y790000D01*
X771600Y790000D01*
X770900Y789300D01*
D31*
X571200Y724200D02*
X480100Y724200D01*
X596050Y749050D02*
X596050Y778800D01*
X596050Y749050D02*
X571200Y724200D01*
X570650Y778800D02*
X547600Y778800D01*
M02*
