G04 EAGLE Gerber RS-274X export*
G75*
%MOMM*%
%FSLAX34Y34*%
%LPD*%
%INSilkscreen Top*%
%IPPOS*%
%AMOC8*
5,1,8,0,0,1.08239X$1,22.5*%
G01*
%ADD10C,0.127000*%
%ADD11C,0.152400*%
%ADD12C,0.050800*%
%ADD13R,1.143000X0.635000*%
%ADD14R,4.064000X0.635000*%
%ADD15R,0.508000X10.160000*%
%ADD16R,0.127000X3.937000*%
%ADD17R,0.508000X4.826000*%
%ADD18C,0.101600*%
%ADD19C,0.100000*%
%ADD20C,0.254000*%
%ADD21C,0.203200*%
%ADD22C,0.177800*%
%ADD23C,0.200000*%
%ADD24C,0.200000*%
%ADD25C,0.508000*%
%ADD26R,0.508000X0.508000*%


D10*
X734705Y652455D02*
X732165Y652455D01*
X732065Y652457D01*
X731966Y652463D01*
X731866Y652473D01*
X731768Y652486D01*
X731669Y652504D01*
X731572Y652525D01*
X731476Y652550D01*
X731380Y652579D01*
X731286Y652612D01*
X731193Y652648D01*
X731102Y652688D01*
X731012Y652732D01*
X730924Y652779D01*
X730838Y652829D01*
X730754Y652883D01*
X730672Y652940D01*
X730593Y653000D01*
X730515Y653064D01*
X730441Y653130D01*
X730369Y653199D01*
X730300Y653271D01*
X730234Y653345D01*
X730170Y653423D01*
X730110Y653502D01*
X730053Y653584D01*
X729999Y653668D01*
X729949Y653754D01*
X729902Y653842D01*
X729858Y653932D01*
X729818Y654023D01*
X729782Y654116D01*
X729749Y654210D01*
X729720Y654306D01*
X729695Y654402D01*
X729674Y654499D01*
X729656Y654598D01*
X729643Y654696D01*
X729633Y654796D01*
X729627Y654895D01*
X729625Y654995D01*
X729625Y661345D01*
X729627Y661445D01*
X729633Y661544D01*
X729643Y661644D01*
X729656Y661742D01*
X729674Y661841D01*
X729695Y661938D01*
X729720Y662034D01*
X729749Y662130D01*
X729782Y662224D01*
X729818Y662317D01*
X729858Y662408D01*
X729902Y662498D01*
X729949Y662586D01*
X729999Y662672D01*
X730053Y662756D01*
X730110Y662838D01*
X730170Y662917D01*
X730234Y662995D01*
X730300Y663069D01*
X730369Y663141D01*
X730441Y663210D01*
X730515Y663276D01*
X730593Y663340D01*
X730672Y663400D01*
X730754Y663457D01*
X730838Y663511D01*
X730924Y663561D01*
X731012Y663608D01*
X731102Y663652D01*
X731193Y663692D01*
X731286Y663728D01*
X731380Y663761D01*
X731476Y663790D01*
X731572Y663815D01*
X731669Y663836D01*
X731768Y663854D01*
X731866Y663867D01*
X731966Y663877D01*
X732065Y663883D01*
X732165Y663885D01*
X734705Y663885D01*
X739187Y652455D02*
X742362Y652455D01*
X742473Y652457D01*
X742583Y652463D01*
X742694Y652472D01*
X742804Y652486D01*
X742913Y652503D01*
X743022Y652524D01*
X743130Y652549D01*
X743237Y652578D01*
X743343Y652610D01*
X743448Y652646D01*
X743551Y652686D01*
X743653Y652729D01*
X743754Y652776D01*
X743853Y652827D01*
X743950Y652880D01*
X744044Y652937D01*
X744137Y652998D01*
X744228Y653061D01*
X744317Y653128D01*
X744403Y653198D01*
X744486Y653271D01*
X744568Y653346D01*
X744646Y653424D01*
X744721Y653506D01*
X744794Y653589D01*
X744864Y653675D01*
X744931Y653764D01*
X744994Y653855D01*
X745055Y653948D01*
X745112Y654043D01*
X745165Y654139D01*
X745216Y654238D01*
X745263Y654339D01*
X745306Y654441D01*
X745346Y654544D01*
X745382Y654649D01*
X745414Y654755D01*
X745443Y654862D01*
X745468Y654970D01*
X745489Y655079D01*
X745506Y655188D01*
X745520Y655298D01*
X745529Y655409D01*
X745535Y655519D01*
X745537Y655630D01*
X745535Y655741D01*
X745529Y655851D01*
X745520Y655962D01*
X745506Y656072D01*
X745489Y656181D01*
X745468Y656290D01*
X745443Y656398D01*
X745414Y656505D01*
X745382Y656611D01*
X745346Y656716D01*
X745306Y656819D01*
X745263Y656921D01*
X745216Y657022D01*
X745165Y657121D01*
X745112Y657217D01*
X745055Y657312D01*
X744994Y657405D01*
X744931Y657496D01*
X744864Y657585D01*
X744794Y657671D01*
X744721Y657754D01*
X744646Y657836D01*
X744568Y657914D01*
X744486Y657989D01*
X744403Y658062D01*
X744317Y658132D01*
X744228Y658199D01*
X744137Y658262D01*
X744044Y658323D01*
X743950Y658380D01*
X743853Y658433D01*
X743754Y658484D01*
X743653Y658531D01*
X743551Y658574D01*
X743448Y658614D01*
X743343Y658650D01*
X743237Y658682D01*
X743130Y658711D01*
X743022Y658736D01*
X742913Y658757D01*
X742804Y658774D01*
X742694Y658788D01*
X742583Y658797D01*
X742473Y658803D01*
X742362Y658805D01*
X742997Y663885D02*
X739187Y663885D01*
X742997Y663885D02*
X743097Y663883D01*
X743196Y663877D01*
X743296Y663867D01*
X743394Y663854D01*
X743493Y663836D01*
X743590Y663815D01*
X743686Y663790D01*
X743782Y663761D01*
X743876Y663728D01*
X743969Y663692D01*
X744060Y663652D01*
X744150Y663608D01*
X744238Y663561D01*
X744324Y663511D01*
X744408Y663457D01*
X744490Y663400D01*
X744569Y663340D01*
X744647Y663276D01*
X744721Y663210D01*
X744793Y663141D01*
X744862Y663069D01*
X744928Y662995D01*
X744992Y662917D01*
X745052Y662838D01*
X745109Y662756D01*
X745163Y662672D01*
X745213Y662586D01*
X745260Y662498D01*
X745304Y662408D01*
X745344Y662317D01*
X745380Y662224D01*
X745413Y662130D01*
X745442Y662034D01*
X745467Y661938D01*
X745488Y661841D01*
X745506Y661742D01*
X745519Y661644D01*
X745529Y661544D01*
X745535Y661445D01*
X745537Y661345D01*
X745535Y661245D01*
X745529Y661146D01*
X745519Y661046D01*
X745506Y660948D01*
X745488Y660849D01*
X745467Y660752D01*
X745442Y660656D01*
X745413Y660560D01*
X745380Y660466D01*
X745344Y660373D01*
X745304Y660282D01*
X745260Y660192D01*
X745213Y660104D01*
X745163Y660018D01*
X745109Y659934D01*
X745052Y659852D01*
X744992Y659773D01*
X744928Y659695D01*
X744862Y659621D01*
X744793Y659549D01*
X744721Y659480D01*
X744647Y659414D01*
X744569Y659350D01*
X744490Y659290D01*
X744408Y659233D01*
X744324Y659179D01*
X744238Y659129D01*
X744150Y659082D01*
X744060Y659038D01*
X743969Y658998D01*
X743876Y658962D01*
X743782Y658929D01*
X743686Y658900D01*
X743590Y658875D01*
X743493Y658854D01*
X743394Y658836D01*
X743296Y658823D01*
X743196Y658813D01*
X743097Y658807D01*
X742997Y658805D01*
X740457Y658805D01*
X734705Y619755D02*
X732165Y619755D01*
X732065Y619757D01*
X731966Y619763D01*
X731866Y619773D01*
X731768Y619786D01*
X731669Y619804D01*
X731572Y619825D01*
X731476Y619850D01*
X731380Y619879D01*
X731286Y619912D01*
X731193Y619948D01*
X731102Y619988D01*
X731012Y620032D01*
X730924Y620079D01*
X730838Y620129D01*
X730754Y620183D01*
X730672Y620240D01*
X730593Y620300D01*
X730515Y620364D01*
X730441Y620430D01*
X730369Y620499D01*
X730300Y620571D01*
X730234Y620645D01*
X730170Y620723D01*
X730110Y620802D01*
X730053Y620884D01*
X729999Y620968D01*
X729949Y621054D01*
X729902Y621142D01*
X729858Y621232D01*
X729818Y621323D01*
X729782Y621416D01*
X729749Y621510D01*
X729720Y621606D01*
X729695Y621702D01*
X729674Y621799D01*
X729656Y621898D01*
X729643Y621996D01*
X729633Y622096D01*
X729627Y622195D01*
X729625Y622295D01*
X729625Y628645D01*
X729627Y628745D01*
X729633Y628844D01*
X729643Y628944D01*
X729656Y629042D01*
X729674Y629141D01*
X729695Y629238D01*
X729720Y629334D01*
X729749Y629430D01*
X729782Y629524D01*
X729818Y629617D01*
X729858Y629708D01*
X729902Y629798D01*
X729949Y629886D01*
X729999Y629972D01*
X730053Y630056D01*
X730110Y630138D01*
X730170Y630217D01*
X730234Y630295D01*
X730300Y630369D01*
X730369Y630441D01*
X730441Y630510D01*
X730515Y630576D01*
X730593Y630640D01*
X730672Y630700D01*
X730754Y630757D01*
X730838Y630811D01*
X730924Y630861D01*
X731012Y630908D01*
X731102Y630952D01*
X731193Y630992D01*
X731286Y631028D01*
X731380Y631061D01*
X731476Y631090D01*
X731572Y631115D01*
X731669Y631136D01*
X731768Y631154D01*
X731866Y631167D01*
X731966Y631177D01*
X732065Y631183D01*
X732165Y631185D01*
X734705Y631185D01*
X741727Y631185D02*
X739187Y622295D01*
X745537Y622295D01*
X743632Y624835D02*
X743632Y619755D01*
D11*
X307330Y42120D02*
X307330Y37040D01*
X309870Y39580D02*
X304790Y39580D01*
X300980Y47200D02*
X300986Y47699D01*
X301004Y48197D01*
X301035Y48695D01*
X301078Y49192D01*
X301133Y49687D01*
X301200Y50182D01*
X301279Y50674D01*
X301370Y51164D01*
X301474Y51652D01*
X301589Y52137D01*
X301716Y52620D01*
X301855Y53099D01*
X302006Y53574D01*
X302168Y54046D01*
X302342Y54513D01*
X302527Y54976D01*
X302723Y55435D01*
X302931Y55888D01*
X303150Y56336D01*
X303379Y56779D01*
X303620Y57216D01*
X303871Y57647D01*
X304133Y58071D01*
X304405Y58489D01*
X304687Y58900D01*
X304979Y59305D01*
X305281Y59702D01*
X305592Y60091D01*
X305914Y60472D01*
X306244Y60846D01*
X306583Y61211D01*
X306932Y61568D01*
X307289Y61917D01*
X307654Y62256D01*
X308028Y62586D01*
X308409Y62908D01*
X308798Y63219D01*
X309195Y63521D01*
X309600Y63813D01*
X310011Y64095D01*
X310429Y64367D01*
X310853Y64629D01*
X311284Y64880D01*
X311721Y65121D01*
X312164Y65350D01*
X312612Y65569D01*
X313065Y65777D01*
X313524Y65973D01*
X313987Y66158D01*
X314454Y66332D01*
X314926Y66494D01*
X315401Y66645D01*
X315880Y66784D01*
X316363Y66911D01*
X316848Y67026D01*
X317336Y67130D01*
X317826Y67221D01*
X318318Y67300D01*
X318813Y67367D01*
X319308Y67422D01*
X319805Y67465D01*
X320303Y67496D01*
X320801Y67514D01*
X321300Y67520D01*
X321799Y67514D01*
X322297Y67496D01*
X322795Y67465D01*
X323292Y67422D01*
X323787Y67367D01*
X324282Y67300D01*
X324774Y67221D01*
X325264Y67130D01*
X325752Y67026D01*
X326237Y66911D01*
X326720Y66784D01*
X327199Y66645D01*
X327674Y66494D01*
X328146Y66332D01*
X328613Y66158D01*
X329076Y65973D01*
X329535Y65777D01*
X329988Y65569D01*
X330436Y65350D01*
X330879Y65121D01*
X331316Y64880D01*
X331747Y64629D01*
X332171Y64367D01*
X332589Y64095D01*
X333000Y63813D01*
X333405Y63521D01*
X333802Y63219D01*
X334191Y62908D01*
X334572Y62586D01*
X334946Y62256D01*
X335311Y61917D01*
X335668Y61568D01*
X336017Y61211D01*
X336356Y60846D01*
X336686Y60472D01*
X337008Y60091D01*
X337319Y59702D01*
X337621Y59305D01*
X337913Y58900D01*
X338195Y58489D01*
X338467Y58071D01*
X338729Y57647D01*
X338980Y57216D01*
X339221Y56779D01*
X339450Y56336D01*
X339669Y55888D01*
X339877Y55435D01*
X340073Y54976D01*
X340258Y54513D01*
X340432Y54046D01*
X340594Y53574D01*
X340745Y53099D01*
X340884Y52620D01*
X341011Y52137D01*
X341126Y51652D01*
X341230Y51164D01*
X341321Y50674D01*
X341400Y50182D01*
X341467Y49687D01*
X341522Y49192D01*
X341565Y48695D01*
X341596Y48197D01*
X341614Y47699D01*
X341620Y47200D01*
X341614Y46701D01*
X341596Y46203D01*
X341565Y45705D01*
X341522Y45208D01*
X341467Y44713D01*
X341400Y44218D01*
X341321Y43726D01*
X341230Y43236D01*
X341126Y42748D01*
X341011Y42263D01*
X340884Y41780D01*
X340745Y41301D01*
X340594Y40826D01*
X340432Y40354D01*
X340258Y39887D01*
X340073Y39424D01*
X339877Y38965D01*
X339669Y38512D01*
X339450Y38064D01*
X339221Y37621D01*
X338980Y37184D01*
X338729Y36753D01*
X338467Y36329D01*
X338195Y35911D01*
X337913Y35500D01*
X337621Y35095D01*
X337319Y34698D01*
X337008Y34309D01*
X336686Y33928D01*
X336356Y33554D01*
X336017Y33189D01*
X335668Y32832D01*
X335311Y32483D01*
X334946Y32144D01*
X334572Y31814D01*
X334191Y31492D01*
X333802Y31181D01*
X333405Y30879D01*
X333000Y30587D01*
X332589Y30305D01*
X332171Y30033D01*
X331747Y29771D01*
X331316Y29520D01*
X330879Y29279D01*
X330436Y29050D01*
X329988Y28831D01*
X329535Y28623D01*
X329076Y28427D01*
X328613Y28242D01*
X328146Y28068D01*
X327674Y27906D01*
X327199Y27755D01*
X326720Y27616D01*
X326237Y27489D01*
X325752Y27374D01*
X325264Y27270D01*
X324774Y27179D01*
X324282Y27100D01*
X323787Y27033D01*
X323292Y26978D01*
X322795Y26935D01*
X322297Y26904D01*
X321799Y26886D01*
X321300Y26880D01*
X320801Y26886D01*
X320303Y26904D01*
X319805Y26935D01*
X319308Y26978D01*
X318813Y27033D01*
X318318Y27100D01*
X317826Y27179D01*
X317336Y27270D01*
X316848Y27374D01*
X316363Y27489D01*
X315880Y27616D01*
X315401Y27755D01*
X314926Y27906D01*
X314454Y28068D01*
X313987Y28242D01*
X313524Y28427D01*
X313065Y28623D01*
X312612Y28831D01*
X312164Y29050D01*
X311721Y29279D01*
X311284Y29520D01*
X310853Y29771D01*
X310429Y30033D01*
X310011Y30305D01*
X309600Y30587D01*
X309195Y30879D01*
X308798Y31181D01*
X308409Y31492D01*
X308028Y31814D01*
X307654Y32144D01*
X307289Y32483D01*
X306932Y32832D01*
X306583Y33189D01*
X306244Y33554D01*
X305914Y33928D01*
X305592Y34309D01*
X305281Y34698D01*
X304979Y35095D01*
X304687Y35500D01*
X304405Y35911D01*
X304133Y36329D01*
X303871Y36753D01*
X303620Y37184D01*
X303379Y37621D01*
X303150Y38064D01*
X302931Y38512D01*
X302723Y38965D01*
X302527Y39424D01*
X302342Y39887D01*
X302168Y40354D01*
X302006Y40826D01*
X301855Y41301D01*
X301716Y41780D01*
X301589Y42263D01*
X301474Y42748D01*
X301370Y43236D01*
X301279Y43726D01*
X301200Y44218D01*
X301133Y44713D01*
X301078Y45208D01*
X301035Y45705D01*
X301004Y46203D01*
X300986Y46701D01*
X300980Y47200D01*
D10*
X307203Y12915D02*
X309743Y12915D01*
X307203Y12915D02*
X307103Y12917D01*
X307004Y12923D01*
X306904Y12933D01*
X306806Y12946D01*
X306707Y12964D01*
X306610Y12985D01*
X306514Y13010D01*
X306418Y13039D01*
X306324Y13072D01*
X306231Y13108D01*
X306140Y13148D01*
X306050Y13192D01*
X305962Y13239D01*
X305876Y13289D01*
X305792Y13343D01*
X305710Y13400D01*
X305631Y13460D01*
X305553Y13524D01*
X305479Y13590D01*
X305407Y13659D01*
X305338Y13731D01*
X305272Y13805D01*
X305208Y13883D01*
X305148Y13962D01*
X305091Y14044D01*
X305037Y14128D01*
X304987Y14214D01*
X304940Y14302D01*
X304896Y14392D01*
X304856Y14483D01*
X304820Y14576D01*
X304787Y14670D01*
X304758Y14766D01*
X304733Y14862D01*
X304712Y14959D01*
X304694Y15058D01*
X304681Y15156D01*
X304671Y15256D01*
X304665Y15355D01*
X304663Y15455D01*
X304663Y21805D01*
X304665Y21905D01*
X304671Y22004D01*
X304681Y22104D01*
X304694Y22202D01*
X304712Y22301D01*
X304733Y22398D01*
X304758Y22494D01*
X304787Y22590D01*
X304820Y22684D01*
X304856Y22777D01*
X304896Y22868D01*
X304940Y22958D01*
X304987Y23046D01*
X305037Y23132D01*
X305091Y23216D01*
X305148Y23298D01*
X305208Y23377D01*
X305272Y23455D01*
X305338Y23529D01*
X305407Y23601D01*
X305479Y23670D01*
X305553Y23736D01*
X305631Y23800D01*
X305710Y23860D01*
X305792Y23917D01*
X305876Y23971D01*
X305962Y24021D01*
X306050Y24068D01*
X306140Y24112D01*
X306231Y24152D01*
X306324Y24188D01*
X306418Y24221D01*
X306514Y24250D01*
X306610Y24275D01*
X306707Y24296D01*
X306806Y24314D01*
X306904Y24327D01*
X307004Y24337D01*
X307103Y24343D01*
X307203Y24345D01*
X309743Y24345D01*
X314225Y19265D02*
X318035Y19265D01*
X318135Y19263D01*
X318234Y19257D01*
X318334Y19247D01*
X318432Y19234D01*
X318531Y19216D01*
X318628Y19195D01*
X318724Y19170D01*
X318820Y19141D01*
X318914Y19108D01*
X319007Y19072D01*
X319098Y19032D01*
X319188Y18988D01*
X319276Y18941D01*
X319362Y18891D01*
X319446Y18837D01*
X319528Y18780D01*
X319607Y18720D01*
X319685Y18656D01*
X319759Y18590D01*
X319831Y18521D01*
X319900Y18449D01*
X319966Y18375D01*
X320030Y18297D01*
X320090Y18218D01*
X320147Y18136D01*
X320201Y18052D01*
X320251Y17966D01*
X320298Y17878D01*
X320342Y17788D01*
X320382Y17697D01*
X320418Y17604D01*
X320451Y17510D01*
X320480Y17414D01*
X320505Y17318D01*
X320526Y17221D01*
X320544Y17122D01*
X320557Y17024D01*
X320567Y16924D01*
X320573Y16825D01*
X320575Y16725D01*
X320575Y16090D01*
X320573Y15979D01*
X320567Y15869D01*
X320558Y15758D01*
X320544Y15648D01*
X320527Y15539D01*
X320506Y15430D01*
X320481Y15322D01*
X320452Y15215D01*
X320420Y15109D01*
X320384Y15004D01*
X320344Y14901D01*
X320301Y14799D01*
X320254Y14698D01*
X320203Y14599D01*
X320150Y14502D01*
X320093Y14408D01*
X320032Y14315D01*
X319969Y14224D01*
X319902Y14135D01*
X319832Y14049D01*
X319759Y13966D01*
X319684Y13884D01*
X319606Y13806D01*
X319524Y13731D01*
X319441Y13658D01*
X319355Y13588D01*
X319266Y13521D01*
X319175Y13458D01*
X319082Y13397D01*
X318987Y13340D01*
X318891Y13287D01*
X318792Y13236D01*
X318691Y13189D01*
X318589Y13146D01*
X318486Y13106D01*
X318381Y13070D01*
X318275Y13038D01*
X318168Y13009D01*
X318060Y12984D01*
X317951Y12963D01*
X317842Y12946D01*
X317732Y12932D01*
X317621Y12923D01*
X317511Y12917D01*
X317400Y12915D01*
X317289Y12917D01*
X317179Y12923D01*
X317068Y12932D01*
X316958Y12946D01*
X316849Y12963D01*
X316740Y12984D01*
X316632Y13009D01*
X316525Y13038D01*
X316419Y13070D01*
X316314Y13106D01*
X316211Y13146D01*
X316109Y13189D01*
X316008Y13236D01*
X315909Y13287D01*
X315813Y13340D01*
X315718Y13397D01*
X315625Y13458D01*
X315534Y13521D01*
X315445Y13588D01*
X315359Y13658D01*
X315276Y13731D01*
X315194Y13806D01*
X315116Y13884D01*
X315041Y13966D01*
X314968Y14049D01*
X314898Y14135D01*
X314831Y14224D01*
X314768Y14315D01*
X314707Y14408D01*
X314650Y14502D01*
X314597Y14599D01*
X314546Y14698D01*
X314499Y14799D01*
X314456Y14901D01*
X314416Y15004D01*
X314380Y15109D01*
X314348Y15215D01*
X314319Y15322D01*
X314294Y15430D01*
X314273Y15539D01*
X314256Y15648D01*
X314242Y15758D01*
X314233Y15869D01*
X314227Y15979D01*
X314225Y16090D01*
X314225Y19265D01*
X314227Y19405D01*
X314233Y19545D01*
X314242Y19685D01*
X314256Y19824D01*
X314273Y19963D01*
X314294Y20101D01*
X314319Y20239D01*
X314348Y20376D01*
X314380Y20512D01*
X314417Y20647D01*
X314457Y20781D01*
X314500Y20914D01*
X314548Y21046D01*
X314598Y21177D01*
X314653Y21306D01*
X314711Y21433D01*
X314772Y21559D01*
X314837Y21683D01*
X314906Y21805D01*
X314977Y21925D01*
X315052Y22043D01*
X315130Y22160D01*
X315212Y22274D01*
X315296Y22385D01*
X315384Y22494D01*
X315474Y22601D01*
X315568Y22706D01*
X315664Y22807D01*
X315763Y22906D01*
X315864Y23002D01*
X315969Y23096D01*
X316076Y23186D01*
X316185Y23274D01*
X316296Y23358D01*
X316410Y23440D01*
X316527Y23518D01*
X316645Y23593D01*
X316765Y23664D01*
X316887Y23733D01*
X317011Y23798D01*
X317137Y23859D01*
X317264Y23917D01*
X317393Y23972D01*
X317524Y24022D01*
X317656Y24070D01*
X317789Y24113D01*
X317923Y24153D01*
X318058Y24190D01*
X318194Y24222D01*
X318331Y24251D01*
X318469Y24276D01*
X318607Y24297D01*
X318746Y24314D01*
X318885Y24328D01*
X319025Y24337D01*
X319165Y24343D01*
X319305Y24345D01*
D11*
X10990Y457370D02*
X10990Y708830D01*
X120210Y708830D02*
X120210Y457370D01*
D12*
X36390Y532300D02*
X36390Y633900D01*
X94810Y633900D02*
X94810Y532300D01*
D11*
X102430Y640250D02*
X102430Y691050D01*
X33850Y691050D02*
X28770Y691050D01*
X40200Y691050D02*
X40200Y640250D01*
X91000Y691050D02*
X102430Y691050D01*
X91000Y691050D02*
X91000Y640250D01*
X28770Y640250D02*
X28770Y691050D01*
X28770Y640250D02*
X40200Y640250D01*
X28770Y691050D02*
X28770Y697400D01*
X45280Y697400D01*
X45280Y694860D02*
X33850Y694860D01*
X33850Y691050D01*
X40200Y691050D01*
X91000Y640250D02*
X102430Y640250D01*
X28770Y525950D02*
X28770Y475150D01*
X97350Y475150D02*
X102430Y475150D01*
X91000Y475150D02*
X91000Y525950D01*
X40200Y475150D02*
X28770Y475150D01*
X40200Y475150D02*
X40200Y525950D01*
X102430Y525950D02*
X102430Y475150D01*
X102430Y525950D02*
X91000Y525950D01*
X102430Y475150D02*
X102430Y468800D01*
X85920Y468800D01*
X85920Y471340D02*
X97350Y471340D01*
X97350Y475150D01*
X91000Y475150D01*
X40200Y525950D02*
X28770Y525950D01*
D12*
X65600Y531030D02*
X65600Y635170D01*
D11*
X82110Y457370D02*
X120210Y457370D01*
X49090Y457370D02*
X10990Y457370D01*
X82110Y708830D02*
X120210Y708830D01*
X49090Y708830D02*
X10990Y708830D01*
D13*
X39565Y637075D03*
X91635Y637075D03*
D14*
X65600Y637075D03*
D13*
X91635Y529125D03*
X39565Y529125D03*
D14*
X65600Y529125D03*
D15*
X89730Y583100D03*
X41470Y583100D03*
D16*
X45915Y506265D03*
X85285Y506265D03*
X85285Y659935D03*
X45915Y659935D03*
D17*
X42740Y664380D03*
X88460Y664380D03*
X88460Y501820D03*
X42740Y501820D03*
D18*
X159508Y694808D02*
X159508Y706492D01*
X159508Y701299D02*
X165999Y701299D01*
X165999Y706492D02*
X165999Y694808D01*
X171723Y694808D02*
X171723Y706492D01*
X171723Y694808D02*
X176915Y694808D01*
X181775Y694808D02*
X181775Y706492D01*
X188266Y706492D02*
X181775Y699352D01*
X184372Y701948D02*
X188266Y694808D01*
X192655Y703896D02*
X195900Y706492D01*
X195900Y694808D01*
X192655Y694808D02*
X199146Y694808D01*
D19*
X93750Y737150D02*
X53750Y737150D01*
X53750Y815850D02*
X93750Y815850D01*
D18*
X81996Y747565D02*
X72908Y747565D01*
X81996Y747565D02*
X82095Y747563D01*
X82195Y747557D01*
X82294Y747548D01*
X82392Y747535D01*
X82490Y747518D01*
X82588Y747497D01*
X82684Y747472D01*
X82779Y747444D01*
X82873Y747412D01*
X82966Y747377D01*
X83058Y747338D01*
X83148Y747295D01*
X83236Y747250D01*
X83323Y747200D01*
X83407Y747148D01*
X83490Y747092D01*
X83570Y747034D01*
X83648Y746972D01*
X83723Y746907D01*
X83796Y746839D01*
X83866Y746769D01*
X83934Y746696D01*
X83999Y746621D01*
X84061Y746543D01*
X84119Y746463D01*
X84175Y746380D01*
X84227Y746296D01*
X84277Y746209D01*
X84322Y746121D01*
X84365Y746031D01*
X84404Y745939D01*
X84439Y745846D01*
X84471Y745752D01*
X84499Y745657D01*
X84524Y745561D01*
X84545Y745463D01*
X84562Y745365D01*
X84575Y745267D01*
X84584Y745168D01*
X84590Y745068D01*
X84592Y744969D01*
X84592Y743670D01*
X72908Y756409D02*
X72910Y756516D01*
X72916Y756622D01*
X72926Y756728D01*
X72939Y756834D01*
X72957Y756940D01*
X72978Y757044D01*
X73003Y757148D01*
X73032Y757251D01*
X73064Y757352D01*
X73101Y757452D01*
X73141Y757551D01*
X73184Y757649D01*
X73231Y757745D01*
X73282Y757839D01*
X73336Y757931D01*
X73393Y758021D01*
X73453Y758109D01*
X73517Y758194D01*
X73584Y758277D01*
X73654Y758358D01*
X73726Y758436D01*
X73802Y758512D01*
X73880Y758584D01*
X73961Y758654D01*
X74044Y758721D01*
X74129Y758785D01*
X74217Y758845D01*
X74307Y758902D01*
X74399Y758956D01*
X74493Y759007D01*
X74589Y759054D01*
X74687Y759097D01*
X74786Y759137D01*
X74886Y759174D01*
X74987Y759206D01*
X75090Y759235D01*
X75194Y759260D01*
X75298Y759281D01*
X75404Y759299D01*
X75510Y759312D01*
X75616Y759322D01*
X75722Y759328D01*
X75829Y759330D01*
X72908Y756409D02*
X72910Y756288D01*
X72916Y756167D01*
X72926Y756047D01*
X72939Y755926D01*
X72957Y755807D01*
X72978Y755687D01*
X73003Y755569D01*
X73032Y755452D01*
X73065Y755335D01*
X73101Y755220D01*
X73142Y755106D01*
X73185Y754993D01*
X73233Y754881D01*
X73284Y754772D01*
X73339Y754664D01*
X73397Y754557D01*
X73458Y754453D01*
X73523Y754351D01*
X73591Y754251D01*
X73662Y754153D01*
X73736Y754057D01*
X73813Y753964D01*
X73894Y753874D01*
X73977Y753786D01*
X74063Y753701D01*
X74152Y753618D01*
X74243Y753539D01*
X74337Y753462D01*
X74433Y753389D01*
X74531Y753319D01*
X74632Y753252D01*
X74735Y753188D01*
X74840Y753128D01*
X74947Y753070D01*
X75055Y753017D01*
X75165Y752967D01*
X75277Y752921D01*
X75390Y752878D01*
X75505Y752839D01*
X78101Y758355D02*
X78023Y758434D01*
X77943Y758510D01*
X77860Y758583D01*
X77774Y758653D01*
X77687Y758720D01*
X77596Y758784D01*
X77504Y758844D01*
X77410Y758902D01*
X77313Y758956D01*
X77215Y759006D01*
X77115Y759053D01*
X77014Y759097D01*
X76911Y759137D01*
X76806Y759173D01*
X76701Y759205D01*
X76594Y759234D01*
X76487Y759259D01*
X76378Y759281D01*
X76269Y759298D01*
X76160Y759312D01*
X76050Y759321D01*
X75939Y759327D01*
X75829Y759329D01*
X78101Y758356D02*
X84592Y752839D01*
X84592Y759330D01*
D19*
X94050Y103550D02*
X54050Y103550D01*
X54050Y24850D02*
X94050Y24850D01*
D18*
X74596Y85265D02*
X65508Y85265D01*
X74596Y85265D02*
X74695Y85263D01*
X74795Y85257D01*
X74894Y85248D01*
X74992Y85235D01*
X75090Y85218D01*
X75188Y85197D01*
X75284Y85172D01*
X75379Y85144D01*
X75473Y85112D01*
X75566Y85077D01*
X75658Y85038D01*
X75748Y84995D01*
X75836Y84950D01*
X75923Y84900D01*
X76007Y84848D01*
X76090Y84792D01*
X76170Y84734D01*
X76248Y84672D01*
X76323Y84607D01*
X76396Y84539D01*
X76466Y84469D01*
X76534Y84396D01*
X76599Y84321D01*
X76661Y84243D01*
X76719Y84163D01*
X76775Y84080D01*
X76827Y83996D01*
X76877Y83909D01*
X76922Y83821D01*
X76965Y83731D01*
X77004Y83639D01*
X77039Y83546D01*
X77071Y83452D01*
X77099Y83357D01*
X77124Y83261D01*
X77145Y83163D01*
X77162Y83065D01*
X77175Y82967D01*
X77184Y82868D01*
X77190Y82768D01*
X77192Y82669D01*
X77192Y81370D01*
X77192Y90538D02*
X77192Y93784D01*
X77190Y93897D01*
X77184Y94010D01*
X77174Y94123D01*
X77160Y94236D01*
X77143Y94348D01*
X77121Y94459D01*
X77096Y94569D01*
X77066Y94679D01*
X77033Y94787D01*
X76996Y94894D01*
X76956Y95000D01*
X76911Y95104D01*
X76863Y95207D01*
X76812Y95308D01*
X76757Y95407D01*
X76699Y95504D01*
X76637Y95599D01*
X76572Y95692D01*
X76504Y95782D01*
X76433Y95870D01*
X76358Y95956D01*
X76281Y96039D01*
X76201Y96119D01*
X76118Y96196D01*
X76032Y96271D01*
X75944Y96342D01*
X75854Y96410D01*
X75761Y96475D01*
X75666Y96537D01*
X75569Y96595D01*
X75470Y96650D01*
X75369Y96701D01*
X75266Y96749D01*
X75162Y96794D01*
X75056Y96834D01*
X74949Y96871D01*
X74841Y96904D01*
X74731Y96934D01*
X74621Y96959D01*
X74510Y96981D01*
X74398Y96998D01*
X74285Y97012D01*
X74172Y97022D01*
X74059Y97028D01*
X73946Y97030D01*
X73833Y97028D01*
X73720Y97022D01*
X73607Y97012D01*
X73494Y96998D01*
X73382Y96981D01*
X73271Y96959D01*
X73161Y96934D01*
X73051Y96904D01*
X72943Y96871D01*
X72836Y96834D01*
X72730Y96794D01*
X72626Y96749D01*
X72523Y96701D01*
X72422Y96650D01*
X72323Y96595D01*
X72226Y96537D01*
X72131Y96475D01*
X72038Y96410D01*
X71948Y96342D01*
X71860Y96271D01*
X71774Y96196D01*
X71691Y96119D01*
X71611Y96039D01*
X71534Y95956D01*
X71459Y95870D01*
X71388Y95782D01*
X71320Y95692D01*
X71255Y95599D01*
X71193Y95504D01*
X71135Y95407D01*
X71080Y95308D01*
X71029Y95207D01*
X70981Y95104D01*
X70936Y95000D01*
X70896Y94894D01*
X70859Y94787D01*
X70826Y94679D01*
X70796Y94569D01*
X70771Y94459D01*
X70749Y94348D01*
X70732Y94236D01*
X70718Y94123D01*
X70708Y94010D01*
X70702Y93897D01*
X70700Y93784D01*
X65508Y94433D02*
X65508Y90538D01*
X65508Y94433D02*
X65510Y94534D01*
X65516Y94634D01*
X65526Y94734D01*
X65539Y94834D01*
X65557Y94933D01*
X65578Y95032D01*
X65603Y95129D01*
X65632Y95226D01*
X65665Y95321D01*
X65701Y95415D01*
X65741Y95507D01*
X65784Y95598D01*
X65831Y95687D01*
X65881Y95774D01*
X65935Y95860D01*
X65992Y95943D01*
X66052Y96023D01*
X66115Y96102D01*
X66182Y96178D01*
X66251Y96251D01*
X66323Y96321D01*
X66397Y96389D01*
X66474Y96454D01*
X66554Y96515D01*
X66636Y96574D01*
X66720Y96629D01*
X66806Y96681D01*
X66894Y96730D01*
X66984Y96775D01*
X67076Y96817D01*
X67169Y96855D01*
X67264Y96889D01*
X67359Y96920D01*
X67456Y96947D01*
X67554Y96970D01*
X67653Y96990D01*
X67753Y97005D01*
X67853Y97017D01*
X67953Y97025D01*
X68054Y97029D01*
X68154Y97029D01*
X68255Y97025D01*
X68355Y97017D01*
X68455Y97005D01*
X68555Y96990D01*
X68654Y96970D01*
X68752Y96947D01*
X68849Y96920D01*
X68944Y96889D01*
X69039Y96855D01*
X69132Y96817D01*
X69224Y96775D01*
X69314Y96730D01*
X69402Y96681D01*
X69488Y96629D01*
X69572Y96574D01*
X69654Y96515D01*
X69734Y96454D01*
X69811Y96389D01*
X69885Y96321D01*
X69957Y96251D01*
X70026Y96178D01*
X70093Y96102D01*
X70156Y96023D01*
X70216Y95943D01*
X70273Y95860D01*
X70327Y95774D01*
X70377Y95687D01*
X70424Y95598D01*
X70467Y95507D01*
X70507Y95415D01*
X70543Y95321D01*
X70576Y95226D01*
X70605Y95129D01*
X70630Y95032D01*
X70651Y94933D01*
X70669Y94834D01*
X70682Y94734D01*
X70692Y94634D01*
X70698Y94534D01*
X70700Y94433D01*
X70701Y94433D02*
X70701Y91837D01*
D20*
X377100Y118500D02*
X427900Y118500D01*
X427900Y105800D01*
X427900Y93100D01*
X377100Y93100D01*
X377100Y105800D01*
X377100Y118500D01*
X427900Y105800D02*
X430440Y105800D01*
X377100Y105800D02*
X374560Y105800D01*
D18*
X403008Y121562D02*
X403008Y130452D01*
X405477Y130452D01*
X405575Y130450D01*
X405673Y130444D01*
X405771Y130434D01*
X405868Y130421D01*
X405965Y130403D01*
X406061Y130382D01*
X406155Y130357D01*
X406249Y130328D01*
X406342Y130296D01*
X406433Y130259D01*
X406523Y130220D01*
X406611Y130176D01*
X406697Y130129D01*
X406782Y130079D01*
X406864Y130026D01*
X406944Y129969D01*
X407022Y129909D01*
X407097Y129846D01*
X407170Y129780D01*
X407240Y129711D01*
X407307Y129640D01*
X407372Y129566D01*
X407433Y129489D01*
X407492Y129410D01*
X407547Y129329D01*
X407599Y129246D01*
X407647Y129160D01*
X407692Y129073D01*
X407734Y128984D01*
X407772Y128894D01*
X407806Y128802D01*
X407837Y128709D01*
X407864Y128614D01*
X407887Y128519D01*
X407907Y128422D01*
X407922Y128326D01*
X407934Y128228D01*
X407942Y128130D01*
X407946Y128032D01*
X407946Y127934D01*
X407942Y127836D01*
X407934Y127738D01*
X407922Y127640D01*
X407907Y127544D01*
X407887Y127447D01*
X407864Y127352D01*
X407837Y127257D01*
X407806Y127164D01*
X407772Y127072D01*
X407734Y126982D01*
X407692Y126893D01*
X407647Y126806D01*
X407599Y126720D01*
X407547Y126637D01*
X407492Y126556D01*
X407433Y126477D01*
X407372Y126400D01*
X407307Y126326D01*
X407240Y126255D01*
X407170Y126186D01*
X407097Y126120D01*
X407022Y126057D01*
X406944Y125997D01*
X406864Y125940D01*
X406782Y125887D01*
X406697Y125837D01*
X406611Y125790D01*
X406523Y125746D01*
X406433Y125707D01*
X406342Y125670D01*
X406249Y125638D01*
X406155Y125609D01*
X406061Y125584D01*
X405965Y125563D01*
X405868Y125545D01*
X405771Y125532D01*
X405673Y125522D01*
X405575Y125516D01*
X405477Y125514D01*
X405477Y125513D02*
X403008Y125513D01*
X405971Y125513D02*
X407947Y121562D01*
X411858Y128476D02*
X414327Y130452D01*
X414327Y121562D01*
X411858Y121562D02*
X416797Y121562D01*
X420774Y124031D02*
X420776Y124129D01*
X420782Y124227D01*
X420792Y124325D01*
X420805Y124422D01*
X420823Y124519D01*
X420844Y124615D01*
X420869Y124709D01*
X420898Y124803D01*
X420930Y124896D01*
X420967Y124987D01*
X421006Y125077D01*
X421050Y125165D01*
X421097Y125251D01*
X421147Y125336D01*
X421200Y125418D01*
X421257Y125498D01*
X421317Y125576D01*
X421380Y125651D01*
X421446Y125724D01*
X421515Y125794D01*
X421586Y125861D01*
X421660Y125926D01*
X421737Y125987D01*
X421816Y126046D01*
X421897Y126101D01*
X421980Y126153D01*
X422066Y126201D01*
X422153Y126246D01*
X422242Y126288D01*
X422332Y126326D01*
X422424Y126360D01*
X422517Y126391D01*
X422612Y126418D01*
X422707Y126441D01*
X422804Y126461D01*
X422900Y126476D01*
X422998Y126488D01*
X423096Y126496D01*
X423194Y126500D01*
X423292Y126500D01*
X423390Y126496D01*
X423488Y126488D01*
X423586Y126476D01*
X423682Y126461D01*
X423779Y126441D01*
X423874Y126418D01*
X423969Y126391D01*
X424062Y126360D01*
X424154Y126326D01*
X424244Y126288D01*
X424333Y126246D01*
X424420Y126201D01*
X424506Y126153D01*
X424589Y126101D01*
X424670Y126046D01*
X424749Y125987D01*
X424826Y125926D01*
X424900Y125861D01*
X424971Y125794D01*
X425040Y125724D01*
X425106Y125651D01*
X425169Y125576D01*
X425229Y125498D01*
X425286Y125418D01*
X425339Y125336D01*
X425389Y125251D01*
X425436Y125165D01*
X425480Y125077D01*
X425519Y124987D01*
X425556Y124896D01*
X425588Y124803D01*
X425617Y124709D01*
X425642Y124615D01*
X425663Y124519D01*
X425681Y124422D01*
X425694Y124325D01*
X425704Y124227D01*
X425710Y124129D01*
X425712Y124031D01*
X425710Y123933D01*
X425704Y123835D01*
X425694Y123737D01*
X425681Y123640D01*
X425663Y123543D01*
X425642Y123447D01*
X425617Y123353D01*
X425588Y123259D01*
X425556Y123166D01*
X425519Y123075D01*
X425480Y122985D01*
X425436Y122897D01*
X425389Y122811D01*
X425339Y122726D01*
X425286Y122644D01*
X425229Y122564D01*
X425169Y122486D01*
X425106Y122411D01*
X425040Y122338D01*
X424971Y122268D01*
X424900Y122201D01*
X424826Y122136D01*
X424749Y122075D01*
X424670Y122016D01*
X424589Y121961D01*
X424506Y121909D01*
X424420Y121861D01*
X424333Y121816D01*
X424244Y121774D01*
X424154Y121736D01*
X424062Y121702D01*
X423969Y121671D01*
X423874Y121644D01*
X423779Y121621D01*
X423682Y121601D01*
X423586Y121586D01*
X423488Y121574D01*
X423390Y121566D01*
X423292Y121562D01*
X423194Y121562D01*
X423096Y121566D01*
X422998Y121574D01*
X422900Y121586D01*
X422804Y121601D01*
X422707Y121621D01*
X422612Y121644D01*
X422517Y121671D01*
X422424Y121702D01*
X422332Y121736D01*
X422242Y121774D01*
X422153Y121816D01*
X422066Y121861D01*
X421980Y121909D01*
X421897Y121961D01*
X421816Y122016D01*
X421737Y122075D01*
X421660Y122136D01*
X421586Y122201D01*
X421515Y122268D01*
X421446Y122338D01*
X421380Y122411D01*
X421317Y122486D01*
X421257Y122564D01*
X421200Y122644D01*
X421147Y122726D01*
X421097Y122811D01*
X421050Y122897D01*
X421006Y122985D01*
X420967Y123075D01*
X420930Y123166D01*
X420898Y123259D01*
X420869Y123353D01*
X420844Y123447D01*
X420823Y123543D01*
X420805Y123640D01*
X420792Y123737D01*
X420782Y123835D01*
X420776Y123933D01*
X420774Y124031D01*
X421267Y128476D02*
X421269Y128563D01*
X421275Y128651D01*
X421284Y128738D01*
X421298Y128824D01*
X421315Y128910D01*
X421336Y128994D01*
X421361Y129078D01*
X421390Y129161D01*
X421422Y129242D01*
X421457Y129322D01*
X421496Y129400D01*
X421539Y129477D01*
X421585Y129551D01*
X421634Y129623D01*
X421686Y129693D01*
X421742Y129761D01*
X421800Y129826D01*
X421861Y129889D01*
X421925Y129948D01*
X421992Y130005D01*
X422060Y130059D01*
X422132Y130110D01*
X422205Y130157D01*
X422280Y130202D01*
X422358Y130243D01*
X422437Y130280D01*
X422517Y130314D01*
X422599Y130344D01*
X422682Y130371D01*
X422767Y130394D01*
X422852Y130413D01*
X422938Y130428D01*
X423025Y130440D01*
X423112Y130448D01*
X423199Y130452D01*
X423287Y130452D01*
X423374Y130448D01*
X423461Y130440D01*
X423548Y130428D01*
X423634Y130413D01*
X423719Y130394D01*
X423804Y130371D01*
X423887Y130344D01*
X423969Y130314D01*
X424049Y130280D01*
X424128Y130243D01*
X424206Y130202D01*
X424281Y130157D01*
X424354Y130110D01*
X424426Y130059D01*
X424494Y130005D01*
X424561Y129948D01*
X424625Y129889D01*
X424686Y129826D01*
X424744Y129761D01*
X424800Y129693D01*
X424852Y129623D01*
X424901Y129551D01*
X424947Y129477D01*
X424990Y129400D01*
X425029Y129322D01*
X425064Y129242D01*
X425096Y129161D01*
X425125Y129078D01*
X425150Y128994D01*
X425171Y128910D01*
X425188Y128824D01*
X425202Y128738D01*
X425211Y128651D01*
X425217Y128563D01*
X425219Y128476D01*
X425217Y128389D01*
X425211Y128301D01*
X425202Y128214D01*
X425188Y128128D01*
X425171Y128042D01*
X425150Y127958D01*
X425125Y127874D01*
X425096Y127791D01*
X425064Y127710D01*
X425029Y127630D01*
X424990Y127552D01*
X424947Y127475D01*
X424901Y127401D01*
X424852Y127329D01*
X424800Y127259D01*
X424744Y127191D01*
X424686Y127126D01*
X424625Y127063D01*
X424561Y127004D01*
X424494Y126947D01*
X424426Y126893D01*
X424354Y126842D01*
X424281Y126795D01*
X424206Y126750D01*
X424128Y126709D01*
X424049Y126672D01*
X423969Y126638D01*
X423887Y126608D01*
X423804Y126581D01*
X423719Y126558D01*
X423634Y126539D01*
X423548Y126524D01*
X423461Y126512D01*
X423374Y126504D01*
X423287Y126500D01*
X423199Y126500D01*
X423112Y126504D01*
X423025Y126512D01*
X422938Y126524D01*
X422852Y126539D01*
X422767Y126558D01*
X422682Y126581D01*
X422599Y126608D01*
X422517Y126638D01*
X422437Y126672D01*
X422358Y126709D01*
X422280Y126750D01*
X422205Y126795D01*
X422132Y126842D01*
X422060Y126893D01*
X421992Y126947D01*
X421925Y127004D01*
X421861Y127063D01*
X421800Y127126D01*
X421742Y127191D01*
X421686Y127259D01*
X421634Y127329D01*
X421585Y127401D01*
X421539Y127475D01*
X421496Y127552D01*
X421457Y127630D01*
X421422Y127710D01*
X421390Y127791D01*
X421361Y127874D01*
X421336Y127958D01*
X421315Y128042D01*
X421298Y128128D01*
X421284Y128214D01*
X421275Y128301D01*
X421269Y128389D01*
X421267Y128476D01*
D20*
X261900Y101700D02*
X261900Y50900D01*
X261900Y101700D02*
X274600Y101700D01*
X287300Y101700D01*
X287300Y50900D01*
X274600Y50900D01*
X261900Y50900D01*
X274600Y101700D02*
X274600Y104240D01*
X274600Y50900D02*
X274600Y48360D01*
D18*
X259438Y51208D02*
X250548Y51208D01*
X250548Y53677D01*
X250550Y53775D01*
X250556Y53873D01*
X250566Y53971D01*
X250579Y54068D01*
X250597Y54165D01*
X250618Y54261D01*
X250643Y54355D01*
X250672Y54449D01*
X250704Y54542D01*
X250741Y54633D01*
X250780Y54723D01*
X250824Y54811D01*
X250871Y54897D01*
X250921Y54982D01*
X250974Y55064D01*
X251031Y55144D01*
X251091Y55222D01*
X251154Y55297D01*
X251220Y55370D01*
X251289Y55440D01*
X251360Y55507D01*
X251434Y55572D01*
X251511Y55633D01*
X251590Y55692D01*
X251671Y55747D01*
X251754Y55799D01*
X251840Y55847D01*
X251927Y55892D01*
X252016Y55934D01*
X252106Y55972D01*
X252198Y56006D01*
X252291Y56037D01*
X252386Y56064D01*
X252481Y56087D01*
X252578Y56107D01*
X252674Y56122D01*
X252772Y56134D01*
X252870Y56142D01*
X252968Y56146D01*
X253066Y56146D01*
X253164Y56142D01*
X253262Y56134D01*
X253360Y56122D01*
X253456Y56107D01*
X253553Y56087D01*
X253648Y56064D01*
X253743Y56037D01*
X253836Y56006D01*
X253928Y55972D01*
X254018Y55934D01*
X254107Y55892D01*
X254194Y55847D01*
X254280Y55799D01*
X254363Y55747D01*
X254444Y55692D01*
X254523Y55633D01*
X254600Y55572D01*
X254674Y55507D01*
X254745Y55440D01*
X254814Y55370D01*
X254880Y55297D01*
X254943Y55222D01*
X255003Y55144D01*
X255060Y55064D01*
X255113Y54982D01*
X255163Y54897D01*
X255210Y54811D01*
X255254Y54723D01*
X255293Y54633D01*
X255330Y54542D01*
X255362Y54449D01*
X255391Y54355D01*
X255416Y54261D01*
X255437Y54165D01*
X255455Y54068D01*
X255468Y53971D01*
X255478Y53873D01*
X255484Y53775D01*
X255486Y53677D01*
X255487Y53677D02*
X255487Y51208D01*
X255487Y54171D02*
X259438Y56147D01*
X252524Y60058D02*
X250548Y62527D01*
X259438Y62527D01*
X259438Y60058D02*
X259438Y64997D01*
X255487Y70949D02*
X255487Y73912D01*
X255487Y70949D02*
X255485Y70863D01*
X255479Y70777D01*
X255470Y70691D01*
X255457Y70606D01*
X255440Y70521D01*
X255420Y70438D01*
X255396Y70355D01*
X255368Y70273D01*
X255337Y70193D01*
X255302Y70114D01*
X255264Y70037D01*
X255222Y69961D01*
X255178Y69887D01*
X255130Y69816D01*
X255079Y69746D01*
X255025Y69679D01*
X254968Y69614D01*
X254908Y69552D01*
X254846Y69492D01*
X254781Y69435D01*
X254714Y69381D01*
X254644Y69330D01*
X254573Y69282D01*
X254499Y69238D01*
X254423Y69196D01*
X254346Y69158D01*
X254267Y69123D01*
X254187Y69092D01*
X254105Y69064D01*
X254022Y69040D01*
X253939Y69020D01*
X253854Y69003D01*
X253769Y68990D01*
X253683Y68981D01*
X253597Y68975D01*
X253511Y68973D01*
X253017Y68973D01*
X253017Y68974D02*
X252919Y68976D01*
X252821Y68982D01*
X252723Y68992D01*
X252626Y69005D01*
X252529Y69023D01*
X252433Y69044D01*
X252339Y69069D01*
X252245Y69098D01*
X252152Y69130D01*
X252061Y69167D01*
X251971Y69206D01*
X251883Y69250D01*
X251797Y69297D01*
X251712Y69347D01*
X251630Y69400D01*
X251550Y69457D01*
X251472Y69517D01*
X251397Y69580D01*
X251324Y69646D01*
X251254Y69715D01*
X251187Y69786D01*
X251122Y69860D01*
X251061Y69937D01*
X251002Y70016D01*
X250947Y70097D01*
X250895Y70180D01*
X250847Y70266D01*
X250802Y70353D01*
X250760Y70442D01*
X250722Y70532D01*
X250688Y70624D01*
X250657Y70717D01*
X250630Y70812D01*
X250607Y70907D01*
X250587Y71004D01*
X250572Y71100D01*
X250560Y71198D01*
X250552Y71296D01*
X250548Y71394D01*
X250548Y71492D01*
X250552Y71590D01*
X250560Y71688D01*
X250572Y71786D01*
X250587Y71882D01*
X250607Y71979D01*
X250630Y72074D01*
X250657Y72169D01*
X250688Y72262D01*
X250722Y72354D01*
X250760Y72444D01*
X250802Y72533D01*
X250847Y72620D01*
X250895Y72706D01*
X250947Y72789D01*
X251002Y72870D01*
X251061Y72949D01*
X251122Y73026D01*
X251187Y73100D01*
X251254Y73171D01*
X251324Y73240D01*
X251397Y73306D01*
X251472Y73369D01*
X251550Y73429D01*
X251630Y73486D01*
X251712Y73539D01*
X251797Y73589D01*
X251883Y73636D01*
X251971Y73680D01*
X252061Y73719D01*
X252152Y73756D01*
X252245Y73788D01*
X252339Y73817D01*
X252433Y73842D01*
X252529Y73863D01*
X252626Y73881D01*
X252723Y73894D01*
X252821Y73904D01*
X252919Y73910D01*
X253017Y73912D01*
X255487Y73912D01*
X255611Y73910D01*
X255735Y73904D01*
X255859Y73894D01*
X255982Y73881D01*
X256105Y73863D01*
X256227Y73842D01*
X256349Y73817D01*
X256470Y73788D01*
X256589Y73755D01*
X256708Y73719D01*
X256825Y73678D01*
X256941Y73635D01*
X257056Y73587D01*
X257169Y73536D01*
X257281Y73481D01*
X257390Y73423D01*
X257498Y73362D01*
X257604Y73297D01*
X257708Y73229D01*
X257809Y73157D01*
X257909Y73083D01*
X258005Y73005D01*
X258100Y72925D01*
X258192Y72841D01*
X258281Y72755D01*
X258367Y72666D01*
X258451Y72574D01*
X258531Y72479D01*
X258609Y72383D01*
X258683Y72283D01*
X258755Y72182D01*
X258823Y72078D01*
X258888Y71972D01*
X258949Y71864D01*
X259007Y71755D01*
X259062Y71643D01*
X259113Y71530D01*
X259161Y71415D01*
X259204Y71299D01*
X259245Y71182D01*
X259281Y71063D01*
X259314Y70944D01*
X259343Y70823D01*
X259368Y70701D01*
X259389Y70579D01*
X259407Y70456D01*
X259420Y70333D01*
X259430Y70209D01*
X259436Y70085D01*
X259438Y69961D01*
D20*
X245600Y50900D02*
X245600Y101700D01*
X245600Y50900D02*
X232900Y50900D01*
X220200Y50900D01*
X220200Y101700D01*
X232900Y101700D01*
X245600Y101700D01*
X232900Y50900D02*
X232900Y48360D01*
X232900Y101700D02*
X232900Y104240D01*
D18*
X217452Y53088D02*
X208562Y53088D01*
X208562Y55557D01*
X208564Y55655D01*
X208570Y55753D01*
X208580Y55851D01*
X208593Y55948D01*
X208611Y56045D01*
X208632Y56141D01*
X208657Y56235D01*
X208686Y56329D01*
X208718Y56422D01*
X208755Y56513D01*
X208794Y56603D01*
X208838Y56691D01*
X208885Y56777D01*
X208935Y56862D01*
X208988Y56944D01*
X209045Y57024D01*
X209105Y57102D01*
X209168Y57177D01*
X209234Y57250D01*
X209303Y57320D01*
X209374Y57387D01*
X209448Y57452D01*
X209525Y57513D01*
X209604Y57572D01*
X209685Y57627D01*
X209768Y57679D01*
X209854Y57727D01*
X209941Y57772D01*
X210030Y57814D01*
X210120Y57852D01*
X210212Y57886D01*
X210305Y57917D01*
X210400Y57944D01*
X210495Y57967D01*
X210592Y57987D01*
X210688Y58002D01*
X210786Y58014D01*
X210884Y58022D01*
X210982Y58026D01*
X211080Y58026D01*
X211178Y58022D01*
X211276Y58014D01*
X211374Y58002D01*
X211470Y57987D01*
X211567Y57967D01*
X211662Y57944D01*
X211757Y57917D01*
X211850Y57886D01*
X211942Y57852D01*
X212032Y57814D01*
X212121Y57772D01*
X212208Y57727D01*
X212294Y57679D01*
X212377Y57627D01*
X212458Y57572D01*
X212537Y57513D01*
X212614Y57452D01*
X212688Y57387D01*
X212759Y57320D01*
X212828Y57250D01*
X212894Y57177D01*
X212957Y57102D01*
X213017Y57024D01*
X213074Y56944D01*
X213127Y56862D01*
X213177Y56777D01*
X213224Y56691D01*
X213268Y56603D01*
X213307Y56513D01*
X213344Y56422D01*
X213376Y56329D01*
X213405Y56235D01*
X213430Y56141D01*
X213451Y56045D01*
X213469Y55948D01*
X213482Y55851D01*
X213492Y55753D01*
X213498Y55655D01*
X213500Y55557D01*
X213501Y55557D02*
X213501Y53088D01*
X213501Y56051D02*
X217452Y58027D01*
X210785Y66877D02*
X210693Y66875D01*
X210601Y66869D01*
X210510Y66860D01*
X210419Y66847D01*
X210329Y66830D01*
X210239Y66809D01*
X210151Y66785D01*
X210063Y66757D01*
X209977Y66725D01*
X209892Y66690D01*
X209809Y66651D01*
X209727Y66609D01*
X209647Y66564D01*
X209569Y66515D01*
X209493Y66463D01*
X209420Y66408D01*
X209348Y66350D01*
X209279Y66290D01*
X209213Y66226D01*
X209149Y66160D01*
X209089Y66091D01*
X209031Y66019D01*
X208976Y65946D01*
X208924Y65870D01*
X208875Y65792D01*
X208830Y65712D01*
X208788Y65630D01*
X208749Y65547D01*
X208714Y65462D01*
X208682Y65376D01*
X208654Y65288D01*
X208630Y65200D01*
X208609Y65110D01*
X208592Y65020D01*
X208579Y64929D01*
X208570Y64838D01*
X208564Y64746D01*
X208562Y64654D01*
X208564Y64548D01*
X208570Y64443D01*
X208580Y64338D01*
X208593Y64233D01*
X208611Y64129D01*
X208632Y64026D01*
X208657Y63923D01*
X208686Y63821D01*
X208719Y63721D01*
X208755Y63622D01*
X208795Y63524D01*
X208839Y63428D01*
X208886Y63333D01*
X208936Y63241D01*
X208990Y63150D01*
X209048Y63061D01*
X209108Y62975D01*
X209172Y62891D01*
X209238Y62809D01*
X209308Y62729D01*
X209381Y62653D01*
X209456Y62579D01*
X209534Y62508D01*
X209615Y62440D01*
X209698Y62374D01*
X209784Y62312D01*
X209871Y62254D01*
X209961Y62198D01*
X210053Y62146D01*
X210147Y62097D01*
X210242Y62052D01*
X210339Y62010D01*
X210438Y61972D01*
X210537Y61938D01*
X212514Y66135D02*
X212445Y66204D01*
X212375Y66270D01*
X212301Y66333D01*
X212225Y66392D01*
X212147Y66449D01*
X212067Y66503D01*
X211984Y66553D01*
X211900Y66600D01*
X211813Y66643D01*
X211725Y66683D01*
X211636Y66719D01*
X211545Y66752D01*
X211453Y66781D01*
X211359Y66806D01*
X211265Y66827D01*
X211170Y66845D01*
X211074Y66858D01*
X210978Y66868D01*
X210882Y66874D01*
X210785Y66876D01*
X212513Y66136D02*
X217452Y61938D01*
X217452Y66877D01*
X213007Y70853D02*
X212832Y70855D01*
X212657Y70861D01*
X212483Y70872D01*
X212308Y70886D01*
X212135Y70905D01*
X211961Y70928D01*
X211788Y70955D01*
X211616Y70986D01*
X211445Y71021D01*
X211275Y71061D01*
X211105Y71104D01*
X210937Y71152D01*
X210770Y71203D01*
X210604Y71258D01*
X210439Y71318D01*
X210276Y71381D01*
X210115Y71448D01*
X209955Y71519D01*
X209797Y71594D01*
X209796Y71595D02*
X209718Y71624D01*
X209640Y71656D01*
X209565Y71693D01*
X209491Y71732D01*
X209419Y71775D01*
X209348Y71821D01*
X209281Y71871D01*
X209215Y71923D01*
X209152Y71978D01*
X209092Y72037D01*
X209034Y72098D01*
X208979Y72161D01*
X208927Y72227D01*
X208878Y72296D01*
X208833Y72366D01*
X208790Y72438D01*
X208751Y72513D01*
X208716Y72589D01*
X208684Y72666D01*
X208656Y72745D01*
X208631Y72826D01*
X208610Y72907D01*
X208593Y72989D01*
X208579Y73072D01*
X208570Y73155D01*
X208564Y73239D01*
X208562Y73323D01*
X208564Y73407D01*
X208570Y73491D01*
X208579Y73574D01*
X208593Y73657D01*
X208610Y73739D01*
X208631Y73820D01*
X208656Y73901D01*
X208684Y73980D01*
X208716Y74057D01*
X208751Y74133D01*
X208790Y74208D01*
X208833Y74280D01*
X208878Y74351D01*
X208927Y74419D01*
X208979Y74485D01*
X209034Y74548D01*
X209092Y74609D01*
X209152Y74668D01*
X209215Y74723D01*
X209281Y74775D01*
X209348Y74825D01*
X209419Y74871D01*
X209491Y74914D01*
X209565Y74953D01*
X209640Y74990D01*
X209718Y75022D01*
X209797Y75051D01*
X209955Y75126D01*
X210115Y75197D01*
X210276Y75264D01*
X210439Y75327D01*
X210604Y75387D01*
X210770Y75442D01*
X210937Y75493D01*
X211105Y75541D01*
X211275Y75584D01*
X211445Y75624D01*
X211616Y75659D01*
X211788Y75690D01*
X211961Y75717D01*
X212135Y75740D01*
X212308Y75759D01*
X212483Y75773D01*
X212657Y75784D01*
X212832Y75790D01*
X213007Y75792D01*
X213007Y70853D02*
X213182Y70855D01*
X213357Y70861D01*
X213531Y70872D01*
X213706Y70886D01*
X213879Y70905D01*
X214053Y70928D01*
X214226Y70955D01*
X214398Y70986D01*
X214569Y71021D01*
X214739Y71061D01*
X214909Y71104D01*
X215077Y71152D01*
X215244Y71203D01*
X215410Y71258D01*
X215575Y71318D01*
X215738Y71381D01*
X215899Y71448D01*
X216059Y71519D01*
X216217Y71594D01*
X216218Y71595D02*
X216296Y71624D01*
X216374Y71656D01*
X216449Y71693D01*
X216523Y71732D01*
X216596Y71775D01*
X216666Y71821D01*
X216733Y71871D01*
X216799Y71923D01*
X216862Y71979D01*
X216923Y72037D01*
X216980Y72098D01*
X217035Y72161D01*
X217087Y72227D01*
X217136Y72296D01*
X217181Y72366D01*
X217224Y72438D01*
X217263Y72513D01*
X217298Y72589D01*
X217330Y72667D01*
X217358Y72746D01*
X217383Y72826D01*
X217404Y72907D01*
X217421Y72989D01*
X217435Y73072D01*
X217444Y73155D01*
X217450Y73239D01*
X217452Y73323D01*
X216217Y75051D02*
X216059Y75126D01*
X215899Y75197D01*
X215738Y75264D01*
X215575Y75327D01*
X215410Y75387D01*
X215244Y75442D01*
X215077Y75493D01*
X214909Y75541D01*
X214739Y75584D01*
X214569Y75624D01*
X214398Y75659D01*
X214226Y75690D01*
X214053Y75717D01*
X213879Y75740D01*
X213706Y75759D01*
X213531Y75773D01*
X213357Y75784D01*
X213182Y75790D01*
X213007Y75792D01*
X216218Y75051D02*
X216296Y75022D01*
X216374Y74990D01*
X216449Y74953D01*
X216523Y74914D01*
X216596Y74871D01*
X216666Y74825D01*
X216733Y74775D01*
X216799Y74723D01*
X216862Y74667D01*
X216922Y74609D01*
X216980Y74548D01*
X217035Y74485D01*
X217087Y74419D01*
X217136Y74350D01*
X217181Y74280D01*
X217224Y74208D01*
X217263Y74133D01*
X217298Y74057D01*
X217330Y73980D01*
X217358Y73901D01*
X217383Y73820D01*
X217404Y73739D01*
X217421Y73657D01*
X217435Y73574D01*
X217444Y73491D01*
X217450Y73407D01*
X217452Y73323D01*
X215476Y71347D02*
X210538Y75298D01*
D20*
X377100Y58300D02*
X427900Y58300D01*
X377100Y58300D02*
X377100Y71000D01*
X377100Y83700D01*
X427900Y83700D01*
X427900Y71000D01*
X427900Y58300D01*
X377100Y71000D02*
X374560Y71000D01*
X427900Y71000D02*
X430440Y71000D01*
D18*
X379288Y55738D02*
X379288Y46848D01*
X379288Y55738D02*
X381757Y55738D01*
X381855Y55736D01*
X381953Y55730D01*
X382051Y55720D01*
X382148Y55707D01*
X382245Y55689D01*
X382341Y55668D01*
X382435Y55643D01*
X382529Y55614D01*
X382622Y55582D01*
X382713Y55545D01*
X382803Y55506D01*
X382891Y55462D01*
X382977Y55415D01*
X383062Y55365D01*
X383144Y55312D01*
X383224Y55255D01*
X383302Y55195D01*
X383377Y55132D01*
X383450Y55066D01*
X383520Y54997D01*
X383587Y54926D01*
X383652Y54852D01*
X383713Y54775D01*
X383772Y54696D01*
X383827Y54615D01*
X383879Y54532D01*
X383927Y54446D01*
X383972Y54359D01*
X384014Y54270D01*
X384052Y54180D01*
X384086Y54088D01*
X384117Y53995D01*
X384144Y53900D01*
X384167Y53805D01*
X384187Y53708D01*
X384202Y53612D01*
X384214Y53514D01*
X384222Y53416D01*
X384226Y53318D01*
X384226Y53220D01*
X384222Y53122D01*
X384214Y53024D01*
X384202Y52926D01*
X384187Y52830D01*
X384167Y52733D01*
X384144Y52638D01*
X384117Y52543D01*
X384086Y52450D01*
X384052Y52358D01*
X384014Y52268D01*
X383972Y52179D01*
X383927Y52092D01*
X383879Y52006D01*
X383827Y51923D01*
X383772Y51842D01*
X383713Y51763D01*
X383652Y51686D01*
X383587Y51612D01*
X383520Y51541D01*
X383450Y51472D01*
X383377Y51406D01*
X383302Y51343D01*
X383224Y51283D01*
X383144Y51226D01*
X383062Y51173D01*
X382977Y51123D01*
X382891Y51076D01*
X382803Y51032D01*
X382713Y50993D01*
X382622Y50956D01*
X382529Y50924D01*
X382435Y50895D01*
X382341Y50870D01*
X382245Y50849D01*
X382148Y50831D01*
X382051Y50818D01*
X381953Y50808D01*
X381855Y50802D01*
X381757Y50800D01*
X381757Y50799D02*
X379288Y50799D01*
X382251Y50799D02*
X384227Y46848D01*
X393077Y53516D02*
X393075Y53608D01*
X393069Y53700D01*
X393060Y53791D01*
X393047Y53882D01*
X393030Y53972D01*
X393009Y54062D01*
X392985Y54150D01*
X392957Y54238D01*
X392925Y54324D01*
X392890Y54409D01*
X392851Y54492D01*
X392809Y54574D01*
X392764Y54654D01*
X392715Y54732D01*
X392663Y54808D01*
X392608Y54881D01*
X392550Y54953D01*
X392490Y55022D01*
X392426Y55088D01*
X392360Y55152D01*
X392291Y55212D01*
X392219Y55270D01*
X392146Y55325D01*
X392070Y55377D01*
X391992Y55426D01*
X391912Y55471D01*
X391830Y55513D01*
X391747Y55552D01*
X391662Y55587D01*
X391576Y55619D01*
X391488Y55647D01*
X391400Y55671D01*
X391310Y55692D01*
X391220Y55709D01*
X391129Y55722D01*
X391038Y55731D01*
X390946Y55737D01*
X390854Y55739D01*
X390854Y55738D02*
X390748Y55736D01*
X390643Y55730D01*
X390538Y55720D01*
X390433Y55707D01*
X390329Y55689D01*
X390226Y55668D01*
X390123Y55643D01*
X390021Y55614D01*
X389921Y55581D01*
X389822Y55545D01*
X389724Y55505D01*
X389628Y55461D01*
X389533Y55414D01*
X389441Y55364D01*
X389350Y55310D01*
X389261Y55252D01*
X389175Y55192D01*
X389091Y55128D01*
X389009Y55062D01*
X388929Y54992D01*
X388853Y54919D01*
X388779Y54844D01*
X388708Y54766D01*
X388640Y54685D01*
X388574Y54602D01*
X388512Y54516D01*
X388454Y54429D01*
X388398Y54339D01*
X388346Y54247D01*
X388297Y54153D01*
X388252Y54058D01*
X388210Y53961D01*
X388172Y53862D01*
X388138Y53763D01*
X392335Y51787D02*
X392404Y51856D01*
X392470Y51926D01*
X392533Y52000D01*
X392592Y52076D01*
X392649Y52154D01*
X392703Y52234D01*
X392753Y52317D01*
X392800Y52401D01*
X392843Y52488D01*
X392883Y52576D01*
X392919Y52665D01*
X392952Y52756D01*
X392981Y52848D01*
X393006Y52942D01*
X393027Y53036D01*
X393045Y53131D01*
X393058Y53227D01*
X393068Y53323D01*
X393074Y53419D01*
X393076Y53516D01*
X392336Y51787D02*
X388138Y46848D01*
X393077Y46848D01*
X397053Y53762D02*
X399523Y55738D01*
X399523Y46848D01*
X401992Y46848D02*
X397053Y46848D01*
X664408Y659462D02*
X664408Y668352D01*
X666877Y668352D01*
X666975Y668350D01*
X667073Y668344D01*
X667171Y668334D01*
X667268Y668321D01*
X667365Y668303D01*
X667461Y668282D01*
X667555Y668257D01*
X667649Y668228D01*
X667742Y668196D01*
X667833Y668159D01*
X667923Y668120D01*
X668011Y668076D01*
X668097Y668029D01*
X668182Y667979D01*
X668264Y667926D01*
X668344Y667869D01*
X668422Y667809D01*
X668497Y667746D01*
X668570Y667680D01*
X668640Y667611D01*
X668707Y667540D01*
X668772Y667466D01*
X668833Y667389D01*
X668892Y667310D01*
X668947Y667229D01*
X668999Y667146D01*
X669047Y667060D01*
X669092Y666973D01*
X669134Y666884D01*
X669172Y666794D01*
X669206Y666702D01*
X669237Y666609D01*
X669264Y666514D01*
X669287Y666419D01*
X669307Y666322D01*
X669322Y666226D01*
X669334Y666128D01*
X669342Y666030D01*
X669346Y665932D01*
X669346Y665834D01*
X669342Y665736D01*
X669334Y665638D01*
X669322Y665540D01*
X669307Y665444D01*
X669287Y665347D01*
X669264Y665252D01*
X669237Y665157D01*
X669206Y665064D01*
X669172Y664972D01*
X669134Y664882D01*
X669092Y664793D01*
X669047Y664706D01*
X668999Y664620D01*
X668947Y664537D01*
X668892Y664456D01*
X668833Y664377D01*
X668772Y664300D01*
X668707Y664226D01*
X668640Y664155D01*
X668570Y664086D01*
X668497Y664020D01*
X668422Y663957D01*
X668344Y663897D01*
X668264Y663840D01*
X668182Y663787D01*
X668097Y663737D01*
X668011Y663690D01*
X667923Y663646D01*
X667833Y663607D01*
X667742Y663570D01*
X667649Y663538D01*
X667555Y663509D01*
X667461Y663484D01*
X667365Y663463D01*
X667268Y663445D01*
X667171Y663432D01*
X667073Y663422D01*
X666975Y663416D01*
X666877Y663414D01*
X666877Y663413D02*
X664408Y663413D01*
X667371Y663413D02*
X669347Y659462D01*
X673258Y659462D02*
X675727Y659462D01*
X675825Y659464D01*
X675923Y659470D01*
X676021Y659480D01*
X676118Y659493D01*
X676215Y659511D01*
X676311Y659532D01*
X676405Y659557D01*
X676499Y659586D01*
X676592Y659618D01*
X676683Y659655D01*
X676773Y659694D01*
X676861Y659738D01*
X676947Y659785D01*
X677032Y659835D01*
X677114Y659888D01*
X677194Y659945D01*
X677272Y660005D01*
X677347Y660068D01*
X677420Y660134D01*
X677490Y660203D01*
X677557Y660274D01*
X677622Y660348D01*
X677683Y660425D01*
X677742Y660504D01*
X677797Y660585D01*
X677849Y660668D01*
X677897Y660754D01*
X677942Y660841D01*
X677984Y660930D01*
X678022Y661020D01*
X678056Y661112D01*
X678087Y661205D01*
X678114Y661300D01*
X678137Y661395D01*
X678157Y661492D01*
X678172Y661588D01*
X678184Y661686D01*
X678192Y661784D01*
X678196Y661882D01*
X678196Y661980D01*
X678192Y662078D01*
X678184Y662176D01*
X678172Y662274D01*
X678157Y662370D01*
X678137Y662467D01*
X678114Y662562D01*
X678087Y662657D01*
X678056Y662750D01*
X678022Y662842D01*
X677984Y662932D01*
X677942Y663021D01*
X677897Y663108D01*
X677849Y663194D01*
X677797Y663277D01*
X677742Y663358D01*
X677683Y663437D01*
X677622Y663514D01*
X677557Y663588D01*
X677490Y663659D01*
X677420Y663728D01*
X677347Y663794D01*
X677272Y663857D01*
X677194Y663917D01*
X677114Y663974D01*
X677032Y664027D01*
X676947Y664077D01*
X676861Y664124D01*
X676773Y664168D01*
X676683Y664207D01*
X676592Y664244D01*
X676499Y664276D01*
X676405Y664305D01*
X676311Y664330D01*
X676215Y664351D01*
X676118Y664369D01*
X676021Y664382D01*
X675923Y664392D01*
X675825Y664398D01*
X675727Y664400D01*
X676221Y668352D02*
X673258Y668352D01*
X676221Y668352D02*
X676308Y668350D01*
X676396Y668344D01*
X676483Y668335D01*
X676569Y668321D01*
X676655Y668304D01*
X676739Y668283D01*
X676823Y668258D01*
X676906Y668229D01*
X676987Y668197D01*
X677067Y668162D01*
X677145Y668123D01*
X677222Y668080D01*
X677296Y668034D01*
X677368Y667985D01*
X677438Y667933D01*
X677506Y667877D01*
X677571Y667819D01*
X677634Y667758D01*
X677693Y667694D01*
X677750Y667627D01*
X677804Y667559D01*
X677855Y667487D01*
X677902Y667414D01*
X677947Y667339D01*
X677988Y667261D01*
X678025Y667182D01*
X678059Y667102D01*
X678089Y667020D01*
X678116Y666937D01*
X678139Y666852D01*
X678158Y666767D01*
X678173Y666681D01*
X678185Y666594D01*
X678193Y666507D01*
X678197Y666420D01*
X678197Y666332D01*
X678193Y666245D01*
X678185Y666158D01*
X678173Y666071D01*
X678158Y665985D01*
X678139Y665900D01*
X678116Y665815D01*
X678089Y665732D01*
X678059Y665650D01*
X678025Y665570D01*
X677988Y665491D01*
X677947Y665413D01*
X677902Y665338D01*
X677855Y665265D01*
X677804Y665193D01*
X677750Y665125D01*
X677693Y665058D01*
X677634Y664994D01*
X677571Y664933D01*
X677506Y664875D01*
X677438Y664819D01*
X677368Y664767D01*
X677296Y664718D01*
X677222Y664672D01*
X677145Y664629D01*
X677067Y664590D01*
X676987Y664555D01*
X676906Y664523D01*
X676823Y664494D01*
X676739Y664469D01*
X676655Y664448D01*
X676569Y664431D01*
X676483Y664417D01*
X676396Y664408D01*
X676308Y664402D01*
X676221Y664400D01*
X676221Y664401D02*
X674246Y664401D01*
X571508Y680462D02*
X571508Y689352D01*
X573977Y689352D01*
X574075Y689350D01*
X574173Y689344D01*
X574271Y689334D01*
X574368Y689321D01*
X574465Y689303D01*
X574561Y689282D01*
X574655Y689257D01*
X574749Y689228D01*
X574842Y689196D01*
X574933Y689159D01*
X575023Y689120D01*
X575111Y689076D01*
X575197Y689029D01*
X575282Y688979D01*
X575364Y688926D01*
X575444Y688869D01*
X575522Y688809D01*
X575597Y688746D01*
X575670Y688680D01*
X575740Y688611D01*
X575807Y688540D01*
X575872Y688466D01*
X575933Y688389D01*
X575992Y688310D01*
X576047Y688229D01*
X576099Y688146D01*
X576147Y688060D01*
X576192Y687973D01*
X576234Y687884D01*
X576272Y687794D01*
X576306Y687702D01*
X576337Y687609D01*
X576364Y687514D01*
X576387Y687419D01*
X576407Y687322D01*
X576422Y687226D01*
X576434Y687128D01*
X576442Y687030D01*
X576446Y686932D01*
X576446Y686834D01*
X576442Y686736D01*
X576434Y686638D01*
X576422Y686540D01*
X576407Y686444D01*
X576387Y686347D01*
X576364Y686252D01*
X576337Y686157D01*
X576306Y686064D01*
X576272Y685972D01*
X576234Y685882D01*
X576192Y685793D01*
X576147Y685706D01*
X576099Y685620D01*
X576047Y685537D01*
X575992Y685456D01*
X575933Y685377D01*
X575872Y685300D01*
X575807Y685226D01*
X575740Y685155D01*
X575670Y685086D01*
X575597Y685020D01*
X575522Y684957D01*
X575444Y684897D01*
X575364Y684840D01*
X575282Y684787D01*
X575197Y684737D01*
X575111Y684690D01*
X575023Y684646D01*
X574933Y684607D01*
X574842Y684570D01*
X574749Y684538D01*
X574655Y684509D01*
X574561Y684484D01*
X574465Y684463D01*
X574368Y684445D01*
X574271Y684432D01*
X574173Y684422D01*
X574075Y684416D01*
X573977Y684414D01*
X573977Y684413D02*
X571508Y684413D01*
X574471Y684413D02*
X576447Y680462D01*
X580358Y682438D02*
X582333Y689352D01*
X580358Y682438D02*
X585297Y682438D01*
X583815Y684413D02*
X583815Y680462D01*
X516538Y334108D02*
X507648Y334108D01*
X507648Y336577D01*
X507650Y336675D01*
X507656Y336773D01*
X507666Y336871D01*
X507679Y336968D01*
X507697Y337065D01*
X507718Y337161D01*
X507743Y337255D01*
X507772Y337349D01*
X507804Y337442D01*
X507841Y337533D01*
X507880Y337623D01*
X507924Y337711D01*
X507971Y337797D01*
X508021Y337882D01*
X508074Y337964D01*
X508131Y338044D01*
X508191Y338122D01*
X508254Y338197D01*
X508320Y338270D01*
X508389Y338340D01*
X508460Y338407D01*
X508534Y338472D01*
X508611Y338533D01*
X508690Y338592D01*
X508771Y338647D01*
X508854Y338699D01*
X508940Y338747D01*
X509027Y338792D01*
X509116Y338834D01*
X509206Y338872D01*
X509298Y338906D01*
X509391Y338937D01*
X509486Y338964D01*
X509581Y338987D01*
X509678Y339007D01*
X509774Y339022D01*
X509872Y339034D01*
X509970Y339042D01*
X510068Y339046D01*
X510166Y339046D01*
X510264Y339042D01*
X510362Y339034D01*
X510460Y339022D01*
X510556Y339007D01*
X510653Y338987D01*
X510748Y338964D01*
X510843Y338937D01*
X510936Y338906D01*
X511028Y338872D01*
X511118Y338834D01*
X511207Y338792D01*
X511294Y338747D01*
X511380Y338699D01*
X511463Y338647D01*
X511544Y338592D01*
X511623Y338533D01*
X511700Y338472D01*
X511774Y338407D01*
X511845Y338340D01*
X511914Y338270D01*
X511980Y338197D01*
X512043Y338122D01*
X512103Y338044D01*
X512160Y337964D01*
X512213Y337882D01*
X512263Y337797D01*
X512310Y337711D01*
X512354Y337623D01*
X512393Y337533D01*
X512430Y337442D01*
X512462Y337349D01*
X512491Y337255D01*
X512516Y337161D01*
X512537Y337065D01*
X512555Y336968D01*
X512568Y336871D01*
X512578Y336773D01*
X512584Y336675D01*
X512586Y336577D01*
X512587Y336577D02*
X512587Y334108D01*
X512587Y337071D02*
X516538Y339047D01*
X516538Y342958D02*
X516538Y345921D01*
X516536Y346010D01*
X516530Y346098D01*
X516520Y346186D01*
X516506Y346274D01*
X516488Y346361D01*
X516467Y346447D01*
X516441Y346532D01*
X516412Y346615D01*
X516379Y346698D01*
X516342Y346778D01*
X516302Y346857D01*
X516258Y346934D01*
X516211Y347010D01*
X516161Y347082D01*
X516107Y347153D01*
X516050Y347221D01*
X515990Y347287D01*
X515928Y347349D01*
X515862Y347409D01*
X515794Y347466D01*
X515723Y347520D01*
X515651Y347570D01*
X515576Y347617D01*
X515498Y347661D01*
X515419Y347701D01*
X515339Y347738D01*
X515256Y347771D01*
X515173Y347800D01*
X515088Y347826D01*
X515002Y347847D01*
X514915Y347865D01*
X514827Y347879D01*
X514739Y347889D01*
X514651Y347895D01*
X514562Y347897D01*
X513575Y347897D01*
X513489Y347895D01*
X513403Y347889D01*
X513317Y347880D01*
X513232Y347867D01*
X513147Y347850D01*
X513064Y347830D01*
X512981Y347806D01*
X512899Y347778D01*
X512819Y347747D01*
X512740Y347712D01*
X512663Y347674D01*
X512587Y347632D01*
X512513Y347588D01*
X512442Y347540D01*
X512372Y347489D01*
X512305Y347435D01*
X512240Y347378D01*
X512178Y347318D01*
X512118Y347256D01*
X512061Y347191D01*
X512007Y347124D01*
X511956Y347054D01*
X511908Y346983D01*
X511864Y346909D01*
X511822Y346833D01*
X511784Y346756D01*
X511749Y346677D01*
X511718Y346597D01*
X511690Y346515D01*
X511666Y346432D01*
X511646Y346349D01*
X511629Y346264D01*
X511616Y346179D01*
X511607Y346093D01*
X511601Y346007D01*
X511599Y345921D01*
X511599Y342958D01*
X507648Y342958D01*
X507648Y347897D01*
D21*
X642500Y705000D02*
X647500Y705000D01*
X642500Y705000D02*
X642500Y765000D01*
X647500Y765000D01*
X672500Y765000D02*
X677500Y765000D01*
X677500Y705000D01*
X672500Y705000D01*
X652500Y722500D02*
X652500Y747500D01*
X667500Y747000D02*
X667500Y722500D01*
X592500Y705000D02*
X587500Y705000D01*
X587500Y765000D01*
X592500Y765000D01*
X617500Y765000D02*
X622500Y765000D01*
X622500Y705000D01*
X617500Y705000D01*
X597500Y722500D02*
X597500Y747500D01*
X612500Y747000D02*
X612500Y722500D01*
D10*
X767818Y259427D02*
X767816Y259362D01*
X767810Y259298D01*
X767800Y259234D01*
X767787Y259170D01*
X767769Y259108D01*
X767748Y259047D01*
X767724Y258987D01*
X767695Y258929D01*
X767663Y258872D01*
X767628Y258818D01*
X767590Y258766D01*
X767548Y258716D01*
X767504Y258669D01*
X767457Y258625D01*
X767407Y258583D01*
X767355Y258545D01*
X767301Y258510D01*
X767244Y258478D01*
X767186Y258449D01*
X767126Y258425D01*
X767065Y258404D01*
X767003Y258386D01*
X766939Y258373D01*
X766875Y258363D01*
X766811Y258357D01*
X766746Y258355D01*
X766652Y258357D01*
X766558Y258363D01*
X766464Y258373D01*
X766371Y258386D01*
X766279Y258404D01*
X766187Y258425D01*
X766096Y258450D01*
X766006Y258479D01*
X765918Y258512D01*
X765831Y258548D01*
X765746Y258588D01*
X765662Y258631D01*
X765581Y258678D01*
X765501Y258728D01*
X765423Y258781D01*
X765348Y258838D01*
X765275Y258897D01*
X765205Y258960D01*
X765137Y259025D01*
X765271Y262109D02*
X765273Y262174D01*
X765279Y262238D01*
X765289Y262302D01*
X765302Y262366D01*
X765320Y262428D01*
X765341Y262489D01*
X765365Y262549D01*
X765394Y262607D01*
X765426Y262664D01*
X765461Y262718D01*
X765499Y262770D01*
X765541Y262820D01*
X765585Y262867D01*
X765632Y262911D01*
X765682Y262953D01*
X765734Y262991D01*
X765788Y263026D01*
X765845Y263058D01*
X765903Y263087D01*
X765963Y263111D01*
X766024Y263132D01*
X766086Y263150D01*
X766150Y263163D01*
X766214Y263173D01*
X766278Y263179D01*
X766343Y263181D01*
X766429Y263179D01*
X766515Y263174D01*
X766601Y263164D01*
X766686Y263151D01*
X766771Y263135D01*
X766855Y263115D01*
X766938Y263091D01*
X767020Y263064D01*
X767100Y263033D01*
X767180Y262999D01*
X767257Y262961D01*
X767333Y262920D01*
X767407Y262876D01*
X767479Y262829D01*
X767550Y262779D01*
X765807Y261171D02*
X765754Y261204D01*
X765703Y261241D01*
X765654Y261280D01*
X765607Y261322D01*
X765563Y261367D01*
X765522Y261414D01*
X765483Y261463D01*
X765447Y261515D01*
X765414Y261569D01*
X765385Y261624D01*
X765359Y261681D01*
X765336Y261740D01*
X765316Y261799D01*
X765300Y261860D01*
X765287Y261921D01*
X765278Y261984D01*
X765273Y262046D01*
X765271Y262109D01*
X767282Y260365D02*
X767335Y260332D01*
X767386Y260295D01*
X767435Y260256D01*
X767482Y260214D01*
X767526Y260169D01*
X767567Y260122D01*
X767606Y260073D01*
X767642Y260021D01*
X767675Y259967D01*
X767704Y259912D01*
X767730Y259855D01*
X767753Y259796D01*
X767773Y259737D01*
X767789Y259676D01*
X767802Y259615D01*
X767811Y259552D01*
X767816Y259490D01*
X767818Y259427D01*
X767282Y260366D02*
X765807Y261170D01*
X771415Y263181D02*
X771415Y258355D01*
X770075Y263181D02*
X772756Y263181D01*
X776536Y263181D02*
X774927Y258355D01*
X778145Y258355D02*
X776536Y263181D01*
X777742Y259562D02*
X775329Y259562D01*
X780865Y258355D02*
X780865Y263181D01*
X783546Y258355D01*
X783546Y263181D01*
X786717Y263181D02*
X786717Y258355D01*
X786717Y263181D02*
X788057Y263181D01*
X788127Y263179D01*
X788197Y263174D01*
X788267Y263164D01*
X788336Y263152D01*
X788404Y263135D01*
X788471Y263115D01*
X788538Y263092D01*
X788602Y263065D01*
X788666Y263035D01*
X788728Y263001D01*
X788787Y262965D01*
X788845Y262925D01*
X788901Y262882D01*
X788954Y262837D01*
X789005Y262788D01*
X789054Y262737D01*
X789099Y262684D01*
X789142Y262628D01*
X789182Y262570D01*
X789218Y262511D01*
X789252Y262449D01*
X789282Y262385D01*
X789309Y262321D01*
X789332Y262254D01*
X789352Y262187D01*
X789369Y262119D01*
X789381Y262050D01*
X789391Y261980D01*
X789396Y261910D01*
X789398Y261840D01*
X789398Y259696D01*
X789396Y259626D01*
X789391Y259556D01*
X789381Y259486D01*
X789369Y259417D01*
X789352Y259349D01*
X789332Y259282D01*
X789309Y259215D01*
X789282Y259151D01*
X789252Y259087D01*
X789218Y259025D01*
X789182Y258966D01*
X789142Y258908D01*
X789099Y258852D01*
X789054Y258799D01*
X789005Y258748D01*
X788954Y258699D01*
X788901Y258654D01*
X788845Y258611D01*
X788787Y258571D01*
X788727Y258535D01*
X788666Y258501D01*
X788602Y258471D01*
X788538Y258444D01*
X788471Y258421D01*
X788404Y258401D01*
X788336Y258384D01*
X788267Y258372D01*
X788197Y258362D01*
X788127Y258357D01*
X788057Y258355D01*
X786717Y258355D01*
X792386Y259696D02*
X792386Y261840D01*
X792388Y261911D01*
X792394Y261983D01*
X792403Y262053D01*
X792416Y262123D01*
X792433Y262193D01*
X792454Y262261D01*
X792478Y262328D01*
X792506Y262394D01*
X792537Y262458D01*
X792572Y262521D01*
X792610Y262581D01*
X792651Y262640D01*
X792695Y262696D01*
X792742Y262750D01*
X792791Y262801D01*
X792844Y262849D01*
X792899Y262895D01*
X792956Y262937D01*
X793016Y262977D01*
X793077Y263013D01*
X793141Y263046D01*
X793206Y263075D01*
X793272Y263101D01*
X793340Y263124D01*
X793409Y263143D01*
X793479Y263158D01*
X793549Y263169D01*
X793620Y263177D01*
X793691Y263181D01*
X793763Y263181D01*
X793834Y263177D01*
X793905Y263169D01*
X793975Y263158D01*
X794045Y263143D01*
X794114Y263124D01*
X794182Y263101D01*
X794248Y263075D01*
X794313Y263046D01*
X794377Y263013D01*
X794438Y262977D01*
X794498Y262937D01*
X794555Y262895D01*
X794610Y262849D01*
X794663Y262801D01*
X794712Y262750D01*
X794759Y262696D01*
X794803Y262640D01*
X794844Y262581D01*
X794882Y262521D01*
X794917Y262458D01*
X794948Y262394D01*
X794976Y262328D01*
X795000Y262261D01*
X795021Y262193D01*
X795038Y262123D01*
X795051Y262053D01*
X795060Y261983D01*
X795066Y261911D01*
X795068Y261840D01*
X795067Y261840D02*
X795067Y259696D01*
X795068Y259696D02*
X795066Y259625D01*
X795060Y259553D01*
X795051Y259483D01*
X795038Y259413D01*
X795021Y259343D01*
X795000Y259275D01*
X794976Y259208D01*
X794948Y259142D01*
X794917Y259078D01*
X794882Y259015D01*
X794844Y258955D01*
X794803Y258896D01*
X794759Y258840D01*
X794712Y258786D01*
X794663Y258735D01*
X794610Y258687D01*
X794555Y258641D01*
X794498Y258599D01*
X794438Y258559D01*
X794377Y258523D01*
X794313Y258490D01*
X794248Y258461D01*
X794182Y258435D01*
X794114Y258412D01*
X794045Y258393D01*
X793975Y258378D01*
X793905Y258367D01*
X793834Y258359D01*
X793763Y258355D01*
X793691Y258355D01*
X793620Y258359D01*
X793549Y258367D01*
X793479Y258378D01*
X793409Y258393D01*
X793340Y258412D01*
X793272Y258435D01*
X793206Y258461D01*
X793141Y258490D01*
X793077Y258523D01*
X793016Y258559D01*
X792956Y258599D01*
X792899Y258641D01*
X792844Y258687D01*
X792791Y258735D01*
X792742Y258786D01*
X792695Y258840D01*
X792651Y258896D01*
X792610Y258955D01*
X792572Y259015D01*
X792537Y259078D01*
X792506Y259142D01*
X792478Y259208D01*
X792454Y259275D01*
X792433Y259343D01*
X792416Y259413D01*
X792403Y259483D01*
X792394Y259553D01*
X792388Y259625D01*
X792386Y259696D01*
X798075Y258355D02*
X798075Y263181D01*
X800220Y263181D01*
X800220Y261036D02*
X798075Y261036D01*
X802830Y263181D02*
X802830Y258355D01*
X802830Y263181D02*
X804974Y263181D01*
X804974Y261036D02*
X802830Y261036D01*
X807382Y262109D02*
X808722Y263181D01*
X808722Y258355D01*
X807382Y258355D02*
X810063Y258355D01*
X157918Y834227D02*
X157916Y834162D01*
X157910Y834098D01*
X157900Y834034D01*
X157887Y833970D01*
X157869Y833908D01*
X157848Y833847D01*
X157824Y833787D01*
X157795Y833729D01*
X157763Y833672D01*
X157728Y833618D01*
X157690Y833566D01*
X157648Y833516D01*
X157604Y833469D01*
X157557Y833425D01*
X157507Y833383D01*
X157455Y833345D01*
X157401Y833310D01*
X157344Y833278D01*
X157286Y833249D01*
X157226Y833225D01*
X157165Y833204D01*
X157103Y833186D01*
X157039Y833173D01*
X156975Y833163D01*
X156911Y833157D01*
X156846Y833155D01*
X156752Y833157D01*
X156658Y833163D01*
X156564Y833173D01*
X156471Y833186D01*
X156379Y833204D01*
X156287Y833225D01*
X156196Y833250D01*
X156106Y833279D01*
X156018Y833312D01*
X155931Y833348D01*
X155846Y833388D01*
X155762Y833431D01*
X155681Y833478D01*
X155601Y833528D01*
X155523Y833581D01*
X155448Y833638D01*
X155375Y833697D01*
X155305Y833760D01*
X155237Y833825D01*
X155371Y836909D02*
X155373Y836974D01*
X155379Y837038D01*
X155389Y837102D01*
X155402Y837166D01*
X155420Y837228D01*
X155441Y837289D01*
X155465Y837349D01*
X155494Y837407D01*
X155526Y837464D01*
X155561Y837518D01*
X155599Y837570D01*
X155641Y837620D01*
X155685Y837667D01*
X155732Y837711D01*
X155782Y837753D01*
X155834Y837791D01*
X155888Y837826D01*
X155945Y837858D01*
X156003Y837887D01*
X156063Y837911D01*
X156124Y837932D01*
X156186Y837950D01*
X156250Y837963D01*
X156314Y837973D01*
X156378Y837979D01*
X156443Y837981D01*
X156529Y837979D01*
X156615Y837974D01*
X156701Y837964D01*
X156786Y837951D01*
X156871Y837935D01*
X156955Y837915D01*
X157038Y837891D01*
X157120Y837864D01*
X157200Y837833D01*
X157280Y837799D01*
X157357Y837761D01*
X157433Y837720D01*
X157507Y837676D01*
X157579Y837629D01*
X157650Y837579D01*
X155907Y835971D02*
X155854Y836004D01*
X155803Y836041D01*
X155754Y836080D01*
X155707Y836122D01*
X155663Y836167D01*
X155622Y836214D01*
X155583Y836263D01*
X155547Y836315D01*
X155514Y836369D01*
X155485Y836424D01*
X155459Y836481D01*
X155436Y836540D01*
X155416Y836599D01*
X155400Y836660D01*
X155387Y836721D01*
X155378Y836784D01*
X155373Y836846D01*
X155371Y836909D01*
X157382Y835165D02*
X157435Y835132D01*
X157486Y835095D01*
X157535Y835056D01*
X157582Y835014D01*
X157626Y834969D01*
X157667Y834922D01*
X157706Y834873D01*
X157742Y834821D01*
X157775Y834767D01*
X157804Y834712D01*
X157830Y834655D01*
X157853Y834596D01*
X157873Y834537D01*
X157889Y834476D01*
X157902Y834415D01*
X157911Y834352D01*
X157916Y834290D01*
X157918Y834227D01*
X157382Y835166D02*
X155907Y835970D01*
X161515Y837981D02*
X161515Y833155D01*
X160175Y837981D02*
X162856Y837981D01*
X166636Y837981D02*
X165027Y833155D01*
X168245Y833155D02*
X166636Y837981D01*
X167842Y834362D02*
X165429Y834362D01*
X170965Y833155D02*
X170965Y837981D01*
X173646Y833155D01*
X173646Y837981D01*
X176817Y837981D02*
X176817Y833155D01*
X176817Y837981D02*
X178157Y837981D01*
X178227Y837979D01*
X178297Y837974D01*
X178367Y837964D01*
X178436Y837952D01*
X178504Y837935D01*
X178571Y837915D01*
X178638Y837892D01*
X178702Y837865D01*
X178766Y837835D01*
X178828Y837801D01*
X178887Y837765D01*
X178945Y837725D01*
X179001Y837682D01*
X179054Y837637D01*
X179105Y837588D01*
X179154Y837537D01*
X179199Y837484D01*
X179242Y837428D01*
X179282Y837370D01*
X179318Y837311D01*
X179352Y837249D01*
X179382Y837185D01*
X179409Y837121D01*
X179432Y837054D01*
X179452Y836987D01*
X179469Y836919D01*
X179481Y836850D01*
X179491Y836780D01*
X179496Y836710D01*
X179498Y836640D01*
X179498Y834496D01*
X179496Y834426D01*
X179491Y834356D01*
X179481Y834286D01*
X179469Y834217D01*
X179452Y834149D01*
X179432Y834082D01*
X179409Y834015D01*
X179382Y833951D01*
X179352Y833887D01*
X179318Y833825D01*
X179282Y833766D01*
X179242Y833708D01*
X179199Y833652D01*
X179154Y833599D01*
X179105Y833548D01*
X179054Y833499D01*
X179001Y833454D01*
X178945Y833411D01*
X178887Y833371D01*
X178827Y833335D01*
X178766Y833301D01*
X178702Y833271D01*
X178638Y833244D01*
X178571Y833221D01*
X178504Y833201D01*
X178436Y833184D01*
X178367Y833172D01*
X178297Y833162D01*
X178227Y833157D01*
X178157Y833155D01*
X176817Y833155D01*
X182486Y834496D02*
X182486Y836640D01*
X182488Y836711D01*
X182494Y836783D01*
X182503Y836853D01*
X182516Y836923D01*
X182533Y836993D01*
X182554Y837061D01*
X182578Y837128D01*
X182606Y837194D01*
X182637Y837258D01*
X182672Y837321D01*
X182710Y837381D01*
X182751Y837440D01*
X182795Y837496D01*
X182842Y837550D01*
X182891Y837601D01*
X182944Y837649D01*
X182999Y837695D01*
X183056Y837737D01*
X183116Y837777D01*
X183177Y837813D01*
X183241Y837846D01*
X183306Y837875D01*
X183372Y837901D01*
X183440Y837924D01*
X183509Y837943D01*
X183579Y837958D01*
X183649Y837969D01*
X183720Y837977D01*
X183791Y837981D01*
X183863Y837981D01*
X183934Y837977D01*
X184005Y837969D01*
X184075Y837958D01*
X184145Y837943D01*
X184214Y837924D01*
X184282Y837901D01*
X184348Y837875D01*
X184413Y837846D01*
X184477Y837813D01*
X184538Y837777D01*
X184598Y837737D01*
X184655Y837695D01*
X184710Y837649D01*
X184763Y837601D01*
X184812Y837550D01*
X184859Y837496D01*
X184903Y837440D01*
X184944Y837381D01*
X184982Y837321D01*
X185017Y837258D01*
X185048Y837194D01*
X185076Y837128D01*
X185100Y837061D01*
X185121Y836993D01*
X185138Y836923D01*
X185151Y836853D01*
X185160Y836783D01*
X185166Y836711D01*
X185168Y836640D01*
X185167Y836640D02*
X185167Y834496D01*
X185168Y834496D02*
X185166Y834425D01*
X185160Y834353D01*
X185151Y834283D01*
X185138Y834213D01*
X185121Y834143D01*
X185100Y834075D01*
X185076Y834008D01*
X185048Y833942D01*
X185017Y833878D01*
X184982Y833815D01*
X184944Y833755D01*
X184903Y833696D01*
X184859Y833640D01*
X184812Y833586D01*
X184763Y833535D01*
X184710Y833487D01*
X184655Y833441D01*
X184598Y833399D01*
X184538Y833359D01*
X184477Y833323D01*
X184413Y833290D01*
X184348Y833261D01*
X184282Y833235D01*
X184214Y833212D01*
X184145Y833193D01*
X184075Y833178D01*
X184005Y833167D01*
X183934Y833159D01*
X183863Y833155D01*
X183791Y833155D01*
X183720Y833159D01*
X183649Y833167D01*
X183579Y833178D01*
X183509Y833193D01*
X183440Y833212D01*
X183372Y833235D01*
X183306Y833261D01*
X183241Y833290D01*
X183177Y833323D01*
X183116Y833359D01*
X183056Y833399D01*
X182999Y833441D01*
X182944Y833487D01*
X182891Y833535D01*
X182842Y833586D01*
X182795Y833640D01*
X182751Y833696D01*
X182710Y833755D01*
X182672Y833815D01*
X182637Y833878D01*
X182606Y833942D01*
X182578Y834008D01*
X182554Y834075D01*
X182533Y834143D01*
X182516Y834213D01*
X182503Y834283D01*
X182494Y834353D01*
X182488Y834425D01*
X182486Y834496D01*
X188175Y833155D02*
X188175Y837981D01*
X190320Y837981D01*
X190320Y835836D02*
X188175Y835836D01*
X192930Y837981D02*
X192930Y833155D01*
X192930Y837981D02*
X195074Y837981D01*
X195074Y835836D02*
X192930Y835836D01*
X198957Y837981D02*
X199025Y837979D01*
X199092Y837973D01*
X199159Y837964D01*
X199226Y837951D01*
X199291Y837934D01*
X199356Y837913D01*
X199419Y837889D01*
X199481Y837861D01*
X199541Y837830D01*
X199599Y837796D01*
X199655Y837758D01*
X199710Y837718D01*
X199761Y837674D01*
X199810Y837627D01*
X199857Y837578D01*
X199901Y837527D01*
X199941Y837472D01*
X199979Y837416D01*
X200013Y837358D01*
X200044Y837298D01*
X200072Y837236D01*
X200096Y837173D01*
X200117Y837108D01*
X200134Y837043D01*
X200147Y836976D01*
X200156Y836909D01*
X200162Y836842D01*
X200164Y836774D01*
X198957Y837981D02*
X198879Y837979D01*
X198801Y837973D01*
X198724Y837963D01*
X198647Y837950D01*
X198571Y837932D01*
X198496Y837911D01*
X198422Y837886D01*
X198350Y837857D01*
X198279Y837825D01*
X198210Y837789D01*
X198142Y837750D01*
X198077Y837707D01*
X198014Y837661D01*
X197953Y837612D01*
X197895Y837560D01*
X197840Y837505D01*
X197787Y837448D01*
X197738Y837388D01*
X197691Y837325D01*
X197648Y837261D01*
X197608Y837194D01*
X197571Y837125D01*
X197538Y837054D01*
X197508Y836982D01*
X197482Y836909D01*
X199761Y835836D02*
X199810Y835885D01*
X199857Y835937D01*
X199900Y835992D01*
X199941Y836049D01*
X199979Y836108D01*
X200013Y836169D01*
X200044Y836232D01*
X200072Y836296D01*
X200096Y836362D01*
X200116Y836428D01*
X200133Y836496D01*
X200146Y836565D01*
X200155Y836634D01*
X200161Y836704D01*
X200163Y836774D01*
X199761Y835836D02*
X197482Y833155D01*
X200163Y833155D01*
X157918Y49627D02*
X157916Y49562D01*
X157910Y49498D01*
X157900Y49434D01*
X157887Y49370D01*
X157869Y49308D01*
X157848Y49247D01*
X157824Y49187D01*
X157795Y49129D01*
X157763Y49072D01*
X157728Y49018D01*
X157690Y48966D01*
X157648Y48916D01*
X157604Y48869D01*
X157557Y48825D01*
X157507Y48783D01*
X157455Y48745D01*
X157401Y48710D01*
X157344Y48678D01*
X157286Y48649D01*
X157226Y48625D01*
X157165Y48604D01*
X157103Y48586D01*
X157039Y48573D01*
X156975Y48563D01*
X156911Y48557D01*
X156846Y48555D01*
X156752Y48557D01*
X156658Y48563D01*
X156564Y48573D01*
X156471Y48586D01*
X156379Y48604D01*
X156287Y48625D01*
X156196Y48650D01*
X156106Y48679D01*
X156018Y48712D01*
X155931Y48748D01*
X155846Y48788D01*
X155762Y48831D01*
X155681Y48878D01*
X155601Y48928D01*
X155523Y48981D01*
X155448Y49038D01*
X155375Y49097D01*
X155305Y49160D01*
X155237Y49225D01*
X155371Y52309D02*
X155373Y52374D01*
X155379Y52438D01*
X155389Y52502D01*
X155402Y52566D01*
X155420Y52628D01*
X155441Y52689D01*
X155465Y52749D01*
X155494Y52807D01*
X155526Y52864D01*
X155561Y52918D01*
X155599Y52970D01*
X155641Y53020D01*
X155685Y53067D01*
X155732Y53111D01*
X155782Y53153D01*
X155834Y53191D01*
X155888Y53226D01*
X155945Y53258D01*
X156003Y53287D01*
X156063Y53311D01*
X156124Y53332D01*
X156186Y53350D01*
X156250Y53363D01*
X156314Y53373D01*
X156378Y53379D01*
X156443Y53381D01*
X156529Y53379D01*
X156615Y53374D01*
X156701Y53364D01*
X156786Y53351D01*
X156871Y53335D01*
X156955Y53315D01*
X157038Y53291D01*
X157120Y53264D01*
X157200Y53233D01*
X157280Y53199D01*
X157357Y53161D01*
X157433Y53120D01*
X157507Y53076D01*
X157579Y53029D01*
X157650Y52979D01*
X155907Y51371D02*
X155854Y51404D01*
X155803Y51441D01*
X155754Y51480D01*
X155707Y51522D01*
X155663Y51567D01*
X155622Y51614D01*
X155583Y51663D01*
X155547Y51715D01*
X155514Y51769D01*
X155485Y51824D01*
X155459Y51881D01*
X155436Y51940D01*
X155416Y51999D01*
X155400Y52060D01*
X155387Y52121D01*
X155378Y52184D01*
X155373Y52246D01*
X155371Y52309D01*
X157382Y50565D02*
X157435Y50532D01*
X157486Y50495D01*
X157535Y50456D01*
X157582Y50414D01*
X157626Y50369D01*
X157667Y50322D01*
X157706Y50273D01*
X157742Y50221D01*
X157775Y50167D01*
X157804Y50112D01*
X157830Y50055D01*
X157853Y49996D01*
X157873Y49937D01*
X157889Y49876D01*
X157902Y49815D01*
X157911Y49752D01*
X157916Y49690D01*
X157918Y49627D01*
X157382Y50566D02*
X155907Y51370D01*
X161515Y53381D02*
X161515Y48555D01*
X160175Y53381D02*
X162856Y53381D01*
X166636Y53381D02*
X165027Y48555D01*
X168245Y48555D02*
X166636Y53381D01*
X167842Y49762D02*
X165429Y49762D01*
X170965Y48555D02*
X170965Y53381D01*
X173646Y48555D01*
X173646Y53381D01*
X176817Y53381D02*
X176817Y48555D01*
X176817Y53381D02*
X178157Y53381D01*
X178227Y53379D01*
X178297Y53374D01*
X178367Y53364D01*
X178436Y53352D01*
X178504Y53335D01*
X178571Y53315D01*
X178638Y53292D01*
X178702Y53265D01*
X178766Y53235D01*
X178828Y53201D01*
X178887Y53165D01*
X178945Y53125D01*
X179001Y53082D01*
X179054Y53037D01*
X179105Y52988D01*
X179154Y52937D01*
X179199Y52884D01*
X179242Y52828D01*
X179282Y52770D01*
X179318Y52711D01*
X179352Y52649D01*
X179382Y52585D01*
X179409Y52521D01*
X179432Y52454D01*
X179452Y52387D01*
X179469Y52319D01*
X179481Y52250D01*
X179491Y52180D01*
X179496Y52110D01*
X179498Y52040D01*
X179498Y49896D01*
X179496Y49826D01*
X179491Y49756D01*
X179481Y49686D01*
X179469Y49617D01*
X179452Y49549D01*
X179432Y49482D01*
X179409Y49415D01*
X179382Y49351D01*
X179352Y49287D01*
X179318Y49225D01*
X179282Y49166D01*
X179242Y49108D01*
X179199Y49052D01*
X179154Y48999D01*
X179105Y48948D01*
X179054Y48899D01*
X179001Y48854D01*
X178945Y48811D01*
X178887Y48771D01*
X178827Y48735D01*
X178766Y48701D01*
X178702Y48671D01*
X178638Y48644D01*
X178571Y48621D01*
X178504Y48601D01*
X178436Y48584D01*
X178367Y48572D01*
X178297Y48562D01*
X178227Y48557D01*
X178157Y48555D01*
X176817Y48555D01*
X182486Y49896D02*
X182486Y52040D01*
X182488Y52111D01*
X182494Y52183D01*
X182503Y52253D01*
X182516Y52323D01*
X182533Y52393D01*
X182554Y52461D01*
X182578Y52528D01*
X182606Y52594D01*
X182637Y52658D01*
X182672Y52721D01*
X182710Y52781D01*
X182751Y52840D01*
X182795Y52896D01*
X182842Y52950D01*
X182891Y53001D01*
X182944Y53049D01*
X182999Y53095D01*
X183056Y53137D01*
X183116Y53177D01*
X183177Y53213D01*
X183241Y53246D01*
X183306Y53275D01*
X183372Y53301D01*
X183440Y53324D01*
X183509Y53343D01*
X183579Y53358D01*
X183649Y53369D01*
X183720Y53377D01*
X183791Y53381D01*
X183863Y53381D01*
X183934Y53377D01*
X184005Y53369D01*
X184075Y53358D01*
X184145Y53343D01*
X184214Y53324D01*
X184282Y53301D01*
X184348Y53275D01*
X184413Y53246D01*
X184477Y53213D01*
X184538Y53177D01*
X184598Y53137D01*
X184655Y53095D01*
X184710Y53049D01*
X184763Y53001D01*
X184812Y52950D01*
X184859Y52896D01*
X184903Y52840D01*
X184944Y52781D01*
X184982Y52721D01*
X185017Y52658D01*
X185048Y52594D01*
X185076Y52528D01*
X185100Y52461D01*
X185121Y52393D01*
X185138Y52323D01*
X185151Y52253D01*
X185160Y52183D01*
X185166Y52111D01*
X185168Y52040D01*
X185167Y52040D02*
X185167Y49896D01*
X185168Y49896D02*
X185166Y49825D01*
X185160Y49753D01*
X185151Y49683D01*
X185138Y49613D01*
X185121Y49543D01*
X185100Y49475D01*
X185076Y49408D01*
X185048Y49342D01*
X185017Y49278D01*
X184982Y49215D01*
X184944Y49155D01*
X184903Y49096D01*
X184859Y49040D01*
X184812Y48986D01*
X184763Y48935D01*
X184710Y48887D01*
X184655Y48841D01*
X184598Y48799D01*
X184538Y48759D01*
X184477Y48723D01*
X184413Y48690D01*
X184348Y48661D01*
X184282Y48635D01*
X184214Y48612D01*
X184145Y48593D01*
X184075Y48578D01*
X184005Y48567D01*
X183934Y48559D01*
X183863Y48555D01*
X183791Y48555D01*
X183720Y48559D01*
X183649Y48567D01*
X183579Y48578D01*
X183509Y48593D01*
X183440Y48612D01*
X183372Y48635D01*
X183306Y48661D01*
X183241Y48690D01*
X183177Y48723D01*
X183116Y48759D01*
X183056Y48799D01*
X182999Y48841D01*
X182944Y48887D01*
X182891Y48935D01*
X182842Y48986D01*
X182795Y49040D01*
X182751Y49096D01*
X182710Y49155D01*
X182672Y49215D01*
X182637Y49278D01*
X182606Y49342D01*
X182578Y49408D01*
X182554Y49475D01*
X182533Y49543D01*
X182516Y49613D01*
X182503Y49683D01*
X182494Y49753D01*
X182488Y49825D01*
X182486Y49896D01*
X188175Y48555D02*
X188175Y53381D01*
X190320Y53381D01*
X190320Y51236D02*
X188175Y51236D01*
X192930Y53381D02*
X192930Y48555D01*
X192930Y53381D02*
X195074Y53381D01*
X195074Y51236D02*
X192930Y51236D01*
X197482Y49627D02*
X198554Y53381D01*
X197482Y49627D02*
X200163Y49627D01*
X199359Y50700D02*
X199359Y48555D01*
D22*
X494377Y568968D02*
X503366Y568968D01*
X503366Y568969D02*
X503483Y568971D01*
X503599Y568977D01*
X503716Y568987D01*
X503832Y569001D01*
X503947Y569018D01*
X504062Y569040D01*
X504176Y569065D01*
X504289Y569094D01*
X504401Y569128D01*
X504512Y569164D01*
X504621Y569205D01*
X504729Y569249D01*
X504836Y569297D01*
X504941Y569348D01*
X505044Y569403D01*
X505145Y569462D01*
X505244Y569524D01*
X505341Y569589D01*
X505436Y569657D01*
X505528Y569728D01*
X505618Y569803D01*
X505705Y569881D01*
X505790Y569961D01*
X505872Y570044D01*
X505951Y570130D01*
X506027Y570219D01*
X506100Y570310D01*
X506170Y570403D01*
X506236Y570499D01*
X506300Y570597D01*
X506360Y570698D01*
X506417Y570800D01*
X506470Y570904D01*
X506519Y571009D01*
X506565Y571117D01*
X506608Y571225D01*
X506647Y571336D01*
X506681Y571447D01*
X506713Y571559D01*
X506740Y571673D01*
X506764Y571787D01*
X506783Y571903D01*
X506799Y572018D01*
X506811Y572134D01*
X506819Y572251D01*
X506823Y572368D01*
X506823Y572484D01*
X506819Y572601D01*
X506811Y572718D01*
X506799Y572834D01*
X506783Y572949D01*
X506764Y573065D01*
X506740Y573179D01*
X506713Y573293D01*
X506681Y573405D01*
X506647Y573516D01*
X506608Y573627D01*
X506565Y573735D01*
X506519Y573843D01*
X506470Y573948D01*
X506417Y574052D01*
X506360Y574155D01*
X506300Y574255D01*
X506236Y574353D01*
X506170Y574449D01*
X506100Y574542D01*
X506027Y574633D01*
X505951Y574722D01*
X505872Y574808D01*
X505790Y574891D01*
X505705Y574971D01*
X505618Y575049D01*
X505528Y575124D01*
X505436Y575195D01*
X505341Y575263D01*
X505244Y575328D01*
X505145Y575390D01*
X505044Y575449D01*
X504941Y575504D01*
X504836Y575555D01*
X504729Y575603D01*
X504621Y575647D01*
X504512Y575688D01*
X504401Y575724D01*
X504289Y575758D01*
X504176Y575787D01*
X504062Y575812D01*
X503947Y575834D01*
X503832Y575851D01*
X503716Y575865D01*
X503599Y575875D01*
X503483Y575881D01*
X503366Y575883D01*
X494377Y575883D01*
X497143Y582197D02*
X494377Y585654D01*
X506823Y585654D01*
X506823Y582197D02*
X506823Y589111D01*
D11*
X120010Y382330D02*
X120010Y130870D01*
X10790Y130870D02*
X10790Y382330D01*
D12*
X94610Y307400D02*
X94610Y205800D01*
X36190Y205800D02*
X36190Y307400D01*
D11*
X28570Y199450D02*
X28570Y148650D01*
X97150Y148650D02*
X102230Y148650D01*
X90800Y148650D02*
X90800Y199450D01*
X40000Y148650D02*
X28570Y148650D01*
X40000Y148650D02*
X40000Y199450D01*
X102230Y199450D02*
X102230Y148650D01*
X102230Y199450D02*
X90800Y199450D01*
X102230Y148650D02*
X102230Y142300D01*
X85720Y142300D01*
X85720Y144840D02*
X97150Y144840D01*
X97150Y148650D01*
X90800Y148650D01*
X40000Y199450D02*
X28570Y199450D01*
X102230Y313750D02*
X102230Y364550D01*
X33650Y364550D02*
X28570Y364550D01*
X40000Y364550D02*
X40000Y313750D01*
X90800Y364550D02*
X102230Y364550D01*
X90800Y364550D02*
X90800Y313750D01*
X28570Y313750D02*
X28570Y364550D01*
X28570Y313750D02*
X40000Y313750D01*
X28570Y364550D02*
X28570Y370900D01*
X45080Y370900D01*
X45080Y368360D02*
X33650Y368360D01*
X33650Y364550D01*
X40000Y364550D01*
X90800Y313750D02*
X102230Y313750D01*
D12*
X65400Y308670D02*
X65400Y204530D01*
D11*
X48890Y382330D02*
X10790Y382330D01*
X81910Y382330D02*
X120010Y382330D01*
X48890Y130870D02*
X10790Y130870D01*
X81910Y130870D02*
X120010Y130870D01*
D13*
X91435Y202625D03*
X39365Y202625D03*
D14*
X65400Y202625D03*
D13*
X39365Y310575D03*
X91435Y310575D03*
D14*
X65400Y310575D03*
D15*
X41270Y256600D03*
X89530Y256600D03*
D16*
X85085Y333435D03*
X45715Y333435D03*
X45715Y179765D03*
X85085Y179765D03*
D17*
X88260Y175320D03*
X42540Y175320D03*
X42540Y337880D03*
X88260Y337880D03*
D22*
X124709Y130489D02*
X140711Y130489D01*
X124709Y130489D02*
X124709Y137601D01*
X131821Y137601D02*
X131821Y130489D01*
X124709Y148372D02*
X124711Y148498D01*
X124717Y148623D01*
X124727Y148749D01*
X124741Y148873D01*
X124758Y148998D01*
X124780Y149122D01*
X124805Y149245D01*
X124835Y149367D01*
X124868Y149488D01*
X124905Y149608D01*
X124946Y149727D01*
X124990Y149845D01*
X125038Y149961D01*
X125090Y150076D01*
X125145Y150188D01*
X125204Y150299D01*
X125266Y150409D01*
X125332Y150516D01*
X125401Y150621D01*
X125473Y150724D01*
X125549Y150824D01*
X125627Y150922D01*
X125709Y151018D01*
X125793Y151111D01*
X125881Y151201D01*
X125971Y151289D01*
X126064Y151373D01*
X126160Y151455D01*
X126258Y151533D01*
X126358Y151609D01*
X126461Y151681D01*
X126566Y151750D01*
X126673Y151816D01*
X126783Y151878D01*
X126894Y151937D01*
X127006Y151992D01*
X127121Y152044D01*
X127237Y152092D01*
X127355Y152136D01*
X127474Y152177D01*
X127594Y152214D01*
X127715Y152247D01*
X127837Y152277D01*
X127960Y152302D01*
X128084Y152324D01*
X128209Y152341D01*
X128333Y152355D01*
X128459Y152365D01*
X128584Y152371D01*
X128710Y152373D01*
X124709Y148372D02*
X124711Y148231D01*
X124717Y148091D01*
X124726Y147951D01*
X124740Y147811D01*
X124757Y147672D01*
X124778Y147533D01*
X124803Y147394D01*
X124831Y147257D01*
X124864Y147120D01*
X124900Y146984D01*
X124940Y146849D01*
X124983Y146716D01*
X125030Y146583D01*
X125081Y146452D01*
X125135Y146323D01*
X125193Y146195D01*
X125254Y146068D01*
X125319Y145943D01*
X125387Y145821D01*
X125458Y145700D01*
X125533Y145580D01*
X125611Y145464D01*
X125692Y145349D01*
X125776Y145236D01*
X125864Y145126D01*
X125954Y145018D01*
X126047Y144913D01*
X126143Y144811D01*
X126242Y144711D01*
X126343Y144613D01*
X126447Y144519D01*
X126554Y144427D01*
X126663Y144339D01*
X126774Y144253D01*
X126888Y144171D01*
X127004Y144091D01*
X127122Y144015D01*
X127242Y143942D01*
X127364Y143873D01*
X127488Y143806D01*
X127614Y143743D01*
X127741Y143684D01*
X127870Y143628D01*
X128000Y143576D01*
X128132Y143527D01*
X128265Y143482D01*
X131822Y151038D02*
X131731Y151130D01*
X131638Y151220D01*
X131543Y151306D01*
X131445Y151390D01*
X131344Y151470D01*
X131241Y151548D01*
X131136Y151622D01*
X131028Y151693D01*
X130919Y151761D01*
X130807Y151825D01*
X130694Y151887D01*
X130579Y151944D01*
X130462Y151999D01*
X130343Y152050D01*
X130223Y152097D01*
X130102Y152140D01*
X129980Y152180D01*
X129856Y152216D01*
X129731Y152249D01*
X129606Y152278D01*
X129479Y152303D01*
X129352Y152324D01*
X129224Y152341D01*
X129096Y152355D01*
X128968Y152364D01*
X128839Y152370D01*
X128710Y152372D01*
X131821Y151039D02*
X140711Y143482D01*
X140711Y152372D01*
D19*
X466690Y440600D02*
X466690Y500600D01*
X176690Y500600D01*
X176690Y440600D01*
X466690Y200600D02*
X466690Y140600D01*
X176690Y140600D01*
X176690Y200600D01*
D23*
X151690Y422600D03*
D24*
X151752Y422598D01*
X151813Y422592D01*
X151874Y422583D01*
X151934Y422570D01*
X151993Y422553D01*
X152051Y422532D01*
X152108Y422508D01*
X152163Y422481D01*
X152216Y422450D01*
X152268Y422416D01*
X152317Y422379D01*
X152364Y422339D01*
X152408Y422296D01*
X152449Y422251D01*
X152488Y422203D01*
X152524Y422152D01*
X152556Y422100D01*
X152585Y422046D01*
X152611Y421990D01*
X152633Y421932D01*
X152652Y421874D01*
X152667Y421814D01*
X152678Y421753D01*
X152686Y421692D01*
X152690Y421631D01*
X152690Y421569D01*
X152686Y421508D01*
X152678Y421447D01*
X152667Y421386D01*
X152652Y421326D01*
X152633Y421268D01*
X152611Y421210D01*
X152585Y421154D01*
X152556Y421100D01*
X152524Y421048D01*
X152488Y420997D01*
X152449Y420949D01*
X152408Y420904D01*
X152364Y420861D01*
X152317Y420821D01*
X152268Y420784D01*
X152216Y420750D01*
X152163Y420719D01*
X152108Y420692D01*
X152051Y420668D01*
X151993Y420647D01*
X151934Y420630D01*
X151874Y420617D01*
X151813Y420608D01*
X151752Y420602D01*
X151690Y420600D01*
D23*
X151690Y420600D03*
D24*
X151628Y420602D01*
X151567Y420608D01*
X151506Y420617D01*
X151446Y420630D01*
X151387Y420647D01*
X151329Y420668D01*
X151272Y420692D01*
X151217Y420719D01*
X151164Y420750D01*
X151112Y420784D01*
X151063Y420821D01*
X151016Y420861D01*
X150972Y420904D01*
X150931Y420949D01*
X150892Y420997D01*
X150856Y421048D01*
X150824Y421100D01*
X150795Y421154D01*
X150769Y421210D01*
X150747Y421268D01*
X150728Y421326D01*
X150713Y421386D01*
X150702Y421447D01*
X150694Y421508D01*
X150690Y421569D01*
X150690Y421631D01*
X150694Y421692D01*
X150702Y421753D01*
X150713Y421814D01*
X150728Y421874D01*
X150747Y421932D01*
X150769Y421990D01*
X150795Y422046D01*
X150824Y422100D01*
X150856Y422152D01*
X150892Y422203D01*
X150931Y422251D01*
X150972Y422296D01*
X151016Y422339D01*
X151063Y422379D01*
X151112Y422416D01*
X151164Y422450D01*
X151217Y422481D01*
X151272Y422508D01*
X151329Y422532D01*
X151387Y422553D01*
X151446Y422570D01*
X151506Y422583D01*
X151567Y422592D01*
X151628Y422598D01*
X151690Y422600D01*
D18*
X287558Y315266D02*
X299242Y315266D01*
X287558Y312020D02*
X287558Y318512D01*
X290154Y322688D02*
X287558Y325934D01*
X299242Y325934D01*
X299242Y322688D02*
X299242Y329180D01*
X582703Y182838D02*
X582703Y173948D01*
X582703Y182838D02*
X585173Y182838D01*
X585271Y182836D01*
X585369Y182830D01*
X585467Y182820D01*
X585564Y182807D01*
X585661Y182789D01*
X585757Y182768D01*
X585851Y182743D01*
X585945Y182714D01*
X586038Y182682D01*
X586129Y182645D01*
X586219Y182606D01*
X586307Y182562D01*
X586393Y182515D01*
X586478Y182465D01*
X586560Y182412D01*
X586640Y182355D01*
X586718Y182295D01*
X586793Y182232D01*
X586866Y182166D01*
X586936Y182097D01*
X587003Y182026D01*
X587068Y181952D01*
X587129Y181875D01*
X587188Y181796D01*
X587243Y181715D01*
X587295Y181632D01*
X587343Y181546D01*
X587388Y181459D01*
X587430Y181370D01*
X587468Y181280D01*
X587502Y181188D01*
X587533Y181095D01*
X587560Y181000D01*
X587583Y180905D01*
X587603Y180808D01*
X587618Y180712D01*
X587630Y180614D01*
X587638Y180516D01*
X587642Y180418D01*
X587642Y180320D01*
X587638Y180222D01*
X587630Y180124D01*
X587618Y180026D01*
X587603Y179930D01*
X587583Y179833D01*
X587560Y179738D01*
X587533Y179643D01*
X587502Y179550D01*
X587468Y179458D01*
X587430Y179368D01*
X587388Y179279D01*
X587343Y179192D01*
X587295Y179106D01*
X587243Y179023D01*
X587188Y178942D01*
X587129Y178863D01*
X587068Y178786D01*
X587003Y178712D01*
X586936Y178641D01*
X586866Y178572D01*
X586793Y178506D01*
X586718Y178443D01*
X586640Y178383D01*
X586560Y178326D01*
X586478Y178273D01*
X586393Y178223D01*
X586307Y178176D01*
X586219Y178132D01*
X586129Y178093D01*
X586038Y178056D01*
X585945Y178024D01*
X585851Y177995D01*
X585757Y177970D01*
X585661Y177949D01*
X585564Y177931D01*
X585467Y177918D01*
X585369Y177908D01*
X585271Y177902D01*
X585173Y177900D01*
X585173Y177899D02*
X582703Y177899D01*
X585667Y177899D02*
X587642Y173948D01*
X591553Y180862D02*
X594023Y182838D01*
X594023Y173948D01*
X596492Y173948D02*
X591553Y173948D01*
X658762Y20503D02*
X667652Y20503D01*
X658762Y20503D02*
X658762Y22973D01*
X658764Y23071D01*
X658770Y23169D01*
X658780Y23267D01*
X658793Y23364D01*
X658811Y23461D01*
X658832Y23557D01*
X658857Y23651D01*
X658886Y23745D01*
X658918Y23838D01*
X658955Y23929D01*
X658994Y24019D01*
X659038Y24107D01*
X659085Y24193D01*
X659135Y24278D01*
X659188Y24360D01*
X659245Y24440D01*
X659305Y24518D01*
X659368Y24593D01*
X659434Y24666D01*
X659503Y24736D01*
X659574Y24803D01*
X659648Y24868D01*
X659725Y24929D01*
X659804Y24988D01*
X659885Y25043D01*
X659968Y25095D01*
X660054Y25143D01*
X660141Y25188D01*
X660230Y25230D01*
X660320Y25268D01*
X660412Y25302D01*
X660505Y25333D01*
X660600Y25360D01*
X660695Y25383D01*
X660792Y25403D01*
X660888Y25418D01*
X660986Y25430D01*
X661084Y25438D01*
X661182Y25442D01*
X661280Y25442D01*
X661378Y25438D01*
X661476Y25430D01*
X661574Y25418D01*
X661670Y25403D01*
X661767Y25383D01*
X661862Y25360D01*
X661957Y25333D01*
X662050Y25302D01*
X662142Y25268D01*
X662232Y25230D01*
X662321Y25188D01*
X662408Y25143D01*
X662494Y25095D01*
X662577Y25043D01*
X662658Y24988D01*
X662737Y24929D01*
X662814Y24868D01*
X662888Y24803D01*
X662959Y24736D01*
X663028Y24666D01*
X663094Y24593D01*
X663157Y24518D01*
X663217Y24440D01*
X663274Y24360D01*
X663327Y24278D01*
X663377Y24193D01*
X663424Y24107D01*
X663468Y24019D01*
X663507Y23929D01*
X663544Y23838D01*
X663576Y23745D01*
X663605Y23651D01*
X663630Y23557D01*
X663651Y23461D01*
X663669Y23364D01*
X663682Y23267D01*
X663692Y23169D01*
X663698Y23071D01*
X663700Y22973D01*
X663701Y22973D02*
X663701Y20503D01*
X663701Y23467D02*
X667652Y25442D01*
X660985Y34293D02*
X660893Y34291D01*
X660801Y34285D01*
X660710Y34276D01*
X660619Y34263D01*
X660529Y34246D01*
X660439Y34225D01*
X660351Y34201D01*
X660263Y34173D01*
X660177Y34141D01*
X660092Y34106D01*
X660009Y34067D01*
X659927Y34025D01*
X659847Y33980D01*
X659769Y33931D01*
X659693Y33879D01*
X659620Y33824D01*
X659548Y33766D01*
X659479Y33706D01*
X659413Y33642D01*
X659349Y33576D01*
X659289Y33507D01*
X659231Y33435D01*
X659176Y33362D01*
X659124Y33286D01*
X659075Y33208D01*
X659030Y33128D01*
X658988Y33046D01*
X658949Y32963D01*
X658914Y32878D01*
X658882Y32792D01*
X658854Y32704D01*
X658830Y32616D01*
X658809Y32526D01*
X658792Y32436D01*
X658779Y32345D01*
X658770Y32254D01*
X658764Y32162D01*
X658762Y32070D01*
X658764Y31964D01*
X658770Y31859D01*
X658780Y31754D01*
X658793Y31649D01*
X658811Y31545D01*
X658832Y31442D01*
X658857Y31339D01*
X658886Y31237D01*
X658919Y31137D01*
X658955Y31038D01*
X658995Y30940D01*
X659039Y30844D01*
X659086Y30749D01*
X659136Y30657D01*
X659190Y30566D01*
X659248Y30477D01*
X659308Y30391D01*
X659372Y30307D01*
X659438Y30225D01*
X659508Y30145D01*
X659581Y30069D01*
X659656Y29995D01*
X659734Y29924D01*
X659815Y29856D01*
X659898Y29790D01*
X659984Y29728D01*
X660071Y29670D01*
X660161Y29614D01*
X660253Y29562D01*
X660347Y29513D01*
X660442Y29468D01*
X660539Y29426D01*
X660638Y29388D01*
X660737Y29354D01*
X662714Y33551D02*
X662645Y33620D01*
X662575Y33686D01*
X662501Y33749D01*
X662425Y33808D01*
X662347Y33865D01*
X662267Y33919D01*
X662184Y33969D01*
X662100Y34016D01*
X662013Y34059D01*
X661925Y34099D01*
X661836Y34135D01*
X661745Y34168D01*
X661653Y34197D01*
X661559Y34222D01*
X661465Y34243D01*
X661370Y34261D01*
X661274Y34274D01*
X661178Y34284D01*
X661082Y34290D01*
X660985Y34292D01*
X662713Y33551D02*
X667652Y29353D01*
X667652Y34292D01*
X575408Y66562D02*
X575408Y75452D01*
X577877Y75452D01*
X577975Y75450D01*
X578073Y75444D01*
X578171Y75434D01*
X578268Y75421D01*
X578365Y75403D01*
X578461Y75382D01*
X578555Y75357D01*
X578649Y75328D01*
X578742Y75296D01*
X578833Y75259D01*
X578923Y75220D01*
X579011Y75176D01*
X579097Y75129D01*
X579182Y75079D01*
X579264Y75026D01*
X579344Y74969D01*
X579422Y74909D01*
X579497Y74846D01*
X579570Y74780D01*
X579640Y74711D01*
X579707Y74640D01*
X579772Y74566D01*
X579833Y74489D01*
X579892Y74410D01*
X579947Y74329D01*
X579999Y74246D01*
X580047Y74160D01*
X580092Y74073D01*
X580134Y73984D01*
X580172Y73894D01*
X580206Y73802D01*
X580237Y73709D01*
X580264Y73614D01*
X580287Y73519D01*
X580307Y73422D01*
X580322Y73326D01*
X580334Y73228D01*
X580342Y73130D01*
X580346Y73032D01*
X580346Y72934D01*
X580342Y72836D01*
X580334Y72738D01*
X580322Y72640D01*
X580307Y72544D01*
X580287Y72447D01*
X580264Y72352D01*
X580237Y72257D01*
X580206Y72164D01*
X580172Y72072D01*
X580134Y71982D01*
X580092Y71893D01*
X580047Y71806D01*
X579999Y71720D01*
X579947Y71637D01*
X579892Y71556D01*
X579833Y71477D01*
X579772Y71400D01*
X579707Y71326D01*
X579640Y71255D01*
X579570Y71186D01*
X579497Y71120D01*
X579422Y71057D01*
X579344Y70997D01*
X579264Y70940D01*
X579182Y70887D01*
X579097Y70837D01*
X579011Y70790D01*
X578923Y70746D01*
X578833Y70707D01*
X578742Y70670D01*
X578649Y70638D01*
X578555Y70609D01*
X578461Y70584D01*
X578365Y70563D01*
X578268Y70545D01*
X578171Y70532D01*
X578073Y70522D01*
X577975Y70516D01*
X577877Y70514D01*
X577877Y70513D02*
X575408Y70513D01*
X578371Y70513D02*
X580347Y66562D01*
X584258Y73476D02*
X586727Y75452D01*
X586727Y66562D01*
X584258Y66562D02*
X589197Y66562D01*
X593173Y71501D02*
X596137Y71501D01*
X596223Y71499D01*
X596309Y71493D01*
X596395Y71484D01*
X596480Y71471D01*
X596565Y71454D01*
X596648Y71434D01*
X596731Y71410D01*
X596813Y71382D01*
X596893Y71351D01*
X596972Y71316D01*
X597049Y71278D01*
X597125Y71236D01*
X597199Y71192D01*
X597270Y71144D01*
X597340Y71093D01*
X597407Y71039D01*
X597472Y70982D01*
X597534Y70922D01*
X597594Y70860D01*
X597651Y70795D01*
X597705Y70728D01*
X597756Y70658D01*
X597804Y70587D01*
X597848Y70513D01*
X597890Y70437D01*
X597928Y70360D01*
X597963Y70281D01*
X597994Y70201D01*
X598022Y70119D01*
X598046Y70036D01*
X598066Y69953D01*
X598083Y69868D01*
X598096Y69783D01*
X598105Y69697D01*
X598111Y69611D01*
X598113Y69525D01*
X598112Y69525D02*
X598112Y69031D01*
X598110Y68933D01*
X598104Y68835D01*
X598094Y68737D01*
X598081Y68640D01*
X598063Y68543D01*
X598042Y68447D01*
X598017Y68353D01*
X597988Y68259D01*
X597956Y68166D01*
X597919Y68075D01*
X597880Y67985D01*
X597836Y67897D01*
X597789Y67811D01*
X597739Y67726D01*
X597686Y67644D01*
X597629Y67564D01*
X597569Y67486D01*
X597506Y67411D01*
X597440Y67338D01*
X597371Y67268D01*
X597300Y67201D01*
X597226Y67136D01*
X597149Y67075D01*
X597070Y67016D01*
X596989Y66961D01*
X596906Y66909D01*
X596820Y66861D01*
X596733Y66816D01*
X596644Y66774D01*
X596554Y66736D01*
X596462Y66702D01*
X596369Y66671D01*
X596274Y66644D01*
X596179Y66621D01*
X596082Y66601D01*
X595986Y66586D01*
X595888Y66574D01*
X595790Y66566D01*
X595692Y66562D01*
X595594Y66562D01*
X595496Y66566D01*
X595398Y66574D01*
X595300Y66586D01*
X595204Y66601D01*
X595107Y66621D01*
X595012Y66644D01*
X594917Y66671D01*
X594824Y66702D01*
X594732Y66736D01*
X594642Y66774D01*
X594553Y66816D01*
X594466Y66861D01*
X594380Y66909D01*
X594297Y66961D01*
X594216Y67016D01*
X594137Y67075D01*
X594060Y67136D01*
X593986Y67201D01*
X593915Y67268D01*
X593846Y67338D01*
X593780Y67411D01*
X593717Y67486D01*
X593657Y67564D01*
X593600Y67644D01*
X593547Y67726D01*
X593497Y67811D01*
X593450Y67897D01*
X593406Y67985D01*
X593367Y68075D01*
X593330Y68166D01*
X593298Y68259D01*
X593269Y68353D01*
X593244Y68447D01*
X593223Y68543D01*
X593205Y68640D01*
X593192Y68737D01*
X593182Y68835D01*
X593176Y68933D01*
X593174Y69031D01*
X593173Y69031D02*
X593173Y71501D01*
X593175Y71625D01*
X593181Y71749D01*
X593191Y71873D01*
X593204Y71996D01*
X593222Y72119D01*
X593243Y72241D01*
X593268Y72363D01*
X593297Y72484D01*
X593330Y72603D01*
X593366Y72722D01*
X593407Y72839D01*
X593450Y72955D01*
X593498Y73070D01*
X593549Y73183D01*
X593604Y73295D01*
X593662Y73404D01*
X593723Y73512D01*
X593788Y73618D01*
X593856Y73722D01*
X593928Y73823D01*
X594002Y73923D01*
X594080Y74019D01*
X594160Y74114D01*
X594244Y74206D01*
X594330Y74295D01*
X594419Y74381D01*
X594511Y74465D01*
X594606Y74545D01*
X594702Y74623D01*
X594802Y74697D01*
X594903Y74769D01*
X595007Y74837D01*
X595113Y74902D01*
X595221Y74963D01*
X595330Y75021D01*
X595442Y75076D01*
X595555Y75127D01*
X595670Y75175D01*
X595786Y75218D01*
X595903Y75259D01*
X596022Y75295D01*
X596141Y75328D01*
X596262Y75357D01*
X596384Y75382D01*
X596506Y75403D01*
X596629Y75421D01*
X596752Y75434D01*
X596876Y75444D01*
X597000Y75450D01*
X597124Y75452D01*
D10*
X587243Y92615D02*
X584703Y92615D01*
X584603Y92617D01*
X584504Y92623D01*
X584404Y92633D01*
X584306Y92646D01*
X584207Y92664D01*
X584110Y92685D01*
X584014Y92710D01*
X583918Y92739D01*
X583824Y92772D01*
X583731Y92808D01*
X583640Y92848D01*
X583550Y92892D01*
X583462Y92939D01*
X583376Y92989D01*
X583292Y93043D01*
X583210Y93100D01*
X583131Y93160D01*
X583053Y93224D01*
X582979Y93290D01*
X582907Y93359D01*
X582838Y93431D01*
X582772Y93505D01*
X582708Y93583D01*
X582648Y93662D01*
X582591Y93744D01*
X582537Y93828D01*
X582487Y93914D01*
X582440Y94002D01*
X582396Y94092D01*
X582356Y94183D01*
X582320Y94276D01*
X582287Y94370D01*
X582258Y94466D01*
X582233Y94562D01*
X582212Y94659D01*
X582194Y94758D01*
X582181Y94856D01*
X582171Y94956D01*
X582165Y95055D01*
X582163Y95155D01*
X582163Y101505D01*
X582165Y101605D01*
X582171Y101704D01*
X582181Y101804D01*
X582194Y101902D01*
X582212Y102001D01*
X582233Y102098D01*
X582258Y102194D01*
X582287Y102290D01*
X582320Y102384D01*
X582356Y102477D01*
X582396Y102568D01*
X582440Y102658D01*
X582487Y102746D01*
X582537Y102832D01*
X582591Y102916D01*
X582648Y102998D01*
X582708Y103077D01*
X582772Y103155D01*
X582838Y103229D01*
X582907Y103301D01*
X582979Y103370D01*
X583053Y103436D01*
X583131Y103500D01*
X583210Y103560D01*
X583292Y103617D01*
X583376Y103671D01*
X583462Y103721D01*
X583550Y103768D01*
X583640Y103812D01*
X583731Y103852D01*
X583824Y103888D01*
X583918Y103921D01*
X584014Y103950D01*
X584110Y103975D01*
X584207Y103996D01*
X584306Y104014D01*
X584404Y104027D01*
X584504Y104037D01*
X584603Y104043D01*
X584703Y104045D01*
X587243Y104045D01*
X591725Y92615D02*
X595535Y92615D01*
X595635Y92617D01*
X595734Y92623D01*
X595834Y92633D01*
X595932Y92646D01*
X596031Y92664D01*
X596128Y92685D01*
X596224Y92710D01*
X596320Y92739D01*
X596414Y92772D01*
X596507Y92808D01*
X596598Y92848D01*
X596688Y92892D01*
X596776Y92939D01*
X596862Y92989D01*
X596946Y93043D01*
X597028Y93100D01*
X597107Y93160D01*
X597185Y93224D01*
X597259Y93290D01*
X597331Y93359D01*
X597400Y93431D01*
X597466Y93505D01*
X597530Y93583D01*
X597590Y93662D01*
X597647Y93744D01*
X597701Y93828D01*
X597751Y93914D01*
X597798Y94002D01*
X597842Y94092D01*
X597882Y94183D01*
X597918Y94276D01*
X597951Y94370D01*
X597980Y94466D01*
X598005Y94562D01*
X598026Y94659D01*
X598044Y94758D01*
X598057Y94856D01*
X598067Y94956D01*
X598073Y95055D01*
X598075Y95155D01*
X598075Y96425D01*
X598073Y96525D01*
X598067Y96624D01*
X598057Y96724D01*
X598044Y96822D01*
X598026Y96921D01*
X598005Y97018D01*
X597980Y97114D01*
X597951Y97210D01*
X597918Y97304D01*
X597882Y97397D01*
X597842Y97488D01*
X597798Y97578D01*
X597751Y97666D01*
X597701Y97752D01*
X597647Y97836D01*
X597590Y97918D01*
X597530Y97997D01*
X597466Y98075D01*
X597400Y98149D01*
X597331Y98221D01*
X597259Y98290D01*
X597185Y98356D01*
X597107Y98420D01*
X597028Y98480D01*
X596946Y98537D01*
X596862Y98591D01*
X596776Y98641D01*
X596688Y98688D01*
X596598Y98732D01*
X596507Y98772D01*
X596414Y98808D01*
X596320Y98841D01*
X596224Y98870D01*
X596128Y98895D01*
X596031Y98916D01*
X595932Y98934D01*
X595834Y98947D01*
X595734Y98957D01*
X595635Y98963D01*
X595535Y98965D01*
X591725Y98965D01*
X591725Y104045D01*
X598075Y104045D01*
X605900Y162100D02*
X605900Y165910D01*
D20*
X593200Y165910D02*
X593200Y136700D01*
X593200Y165910D02*
X605900Y165910D01*
D10*
X608440Y165910D01*
D20*
X605900Y165910D02*
X618600Y165910D01*
X644000Y165910D02*
X644000Y136700D01*
D10*
X644000Y165910D02*
X618600Y165910D01*
D20*
X593200Y136700D02*
X593200Y107490D01*
X618600Y107490D01*
X644000Y107490D02*
X644000Y136700D01*
D10*
X644000Y107490D02*
X637650Y107490D01*
D20*
X624950Y107490D01*
D10*
X618600Y107490D01*
X599550Y107490D02*
X595740Y107490D01*
D20*
X593200Y107490D02*
X599550Y107490D01*
X599550Y113840D01*
X612250Y113840D01*
X612250Y107490D01*
X624950Y107490D01*
X624950Y113840D01*
X637650Y113840D01*
X637650Y107490D01*
X644000Y107490D01*
X605900Y155750D02*
X605900Y165910D01*
X605900Y155750D02*
X608440Y155750D01*
X628760Y155750D01*
X631300Y155750D01*
X631300Y165910D01*
X605900Y155750D02*
X608440Y150670D01*
X608440Y155750D02*
X608440Y165910D01*
X608440Y150670D02*
X628760Y150670D01*
X631300Y155750D01*
X628760Y155750D02*
X628760Y165910D01*
D22*
X652240Y139973D02*
X655274Y142400D01*
X655274Y131478D01*
X652240Y131478D02*
X658308Y131478D01*
X588458Y138908D02*
X588456Y139010D01*
X588450Y139112D01*
X588441Y139214D01*
X588427Y139315D01*
X588410Y139416D01*
X588390Y139516D01*
X588365Y139615D01*
X588337Y139713D01*
X588305Y139810D01*
X588269Y139906D01*
X588230Y140000D01*
X588188Y140093D01*
X588142Y140184D01*
X588092Y140274D01*
X588039Y140361D01*
X587983Y140446D01*
X587924Y140530D01*
X587862Y140611D01*
X587797Y140689D01*
X587729Y140766D01*
X587658Y140839D01*
X587585Y140910D01*
X587508Y140978D01*
X587430Y141043D01*
X587349Y141105D01*
X587265Y141164D01*
X587180Y141220D01*
X587093Y141273D01*
X587003Y141323D01*
X586912Y141369D01*
X586819Y141411D01*
X586725Y141450D01*
X586629Y141486D01*
X586532Y141518D01*
X586434Y141546D01*
X586335Y141571D01*
X586235Y141591D01*
X586134Y141608D01*
X586033Y141622D01*
X585931Y141631D01*
X585829Y141637D01*
X585727Y141639D01*
X585727Y141638D02*
X585611Y141636D01*
X585495Y141630D01*
X585379Y141621D01*
X585264Y141607D01*
X585149Y141590D01*
X585035Y141569D01*
X584922Y141544D01*
X584809Y141516D01*
X584698Y141484D01*
X584587Y141448D01*
X584478Y141408D01*
X584370Y141365D01*
X584264Y141318D01*
X584159Y141268D01*
X584056Y141215D01*
X583955Y141158D01*
X583856Y141097D01*
X583759Y141034D01*
X583664Y140967D01*
X583571Y140897D01*
X583481Y140824D01*
X583393Y140749D01*
X583307Y140670D01*
X583225Y140588D01*
X583145Y140504D01*
X583067Y140418D01*
X582993Y140328D01*
X582922Y140237D01*
X582854Y140143D01*
X582789Y140046D01*
X582727Y139948D01*
X582668Y139848D01*
X582613Y139746D01*
X582561Y139642D01*
X582513Y139536D01*
X582468Y139429D01*
X582427Y139321D01*
X582390Y139211D01*
X587548Y136784D02*
X587621Y136857D01*
X587692Y136932D01*
X587760Y137009D01*
X587826Y137089D01*
X587888Y137171D01*
X587948Y137255D01*
X588005Y137342D01*
X588058Y137430D01*
X588109Y137520D01*
X588156Y137612D01*
X588200Y137705D01*
X588241Y137800D01*
X588278Y137897D01*
X588312Y137994D01*
X588342Y138093D01*
X588369Y138192D01*
X588393Y138293D01*
X588413Y138394D01*
X588429Y138496D01*
X588442Y138599D01*
X588451Y138702D01*
X588456Y138805D01*
X588458Y138908D01*
X587548Y136784D02*
X582390Y130716D01*
X588458Y130716D01*
D18*
X579025Y159591D02*
X579025Y166703D01*
X579025Y159591D02*
X579023Y159502D01*
X579017Y159414D01*
X579008Y159326D01*
X578994Y159238D01*
X578977Y159151D01*
X578956Y159065D01*
X578931Y158980D01*
X578902Y158896D01*
X578870Y158813D01*
X578835Y158732D01*
X578795Y158653D01*
X578753Y158575D01*
X578707Y158499D01*
X578658Y158425D01*
X578605Y158354D01*
X578550Y158285D01*
X578491Y158218D01*
X578430Y158154D01*
X578366Y158093D01*
X578299Y158034D01*
X578230Y157979D01*
X578159Y157926D01*
X578085Y157877D01*
X578009Y157831D01*
X577931Y157789D01*
X577852Y157749D01*
X577771Y157714D01*
X577688Y157682D01*
X577604Y157653D01*
X577519Y157628D01*
X577433Y157607D01*
X577346Y157590D01*
X577258Y157576D01*
X577170Y157567D01*
X577082Y157561D01*
X576993Y157559D01*
X575977Y157559D01*
X583352Y164671D02*
X585892Y166703D01*
X585892Y157559D01*
X583352Y157559D02*
X588432Y157559D01*
D24*
X590900Y228700D02*
X590900Y260700D01*
X639900Y260700D01*
X639900Y228700D01*
X590900Y228700D01*
X589600Y225200D02*
X589600Y210200D01*
D18*
X622558Y234392D02*
X634242Y234392D01*
X634242Y233094D02*
X634242Y235690D01*
X622558Y235690D02*
X622558Y233094D01*
X634242Y242854D02*
X634242Y245450D01*
X634242Y242854D02*
X634240Y242755D01*
X634234Y242655D01*
X634225Y242556D01*
X634212Y242458D01*
X634195Y242360D01*
X634174Y242262D01*
X634149Y242166D01*
X634121Y242071D01*
X634089Y241977D01*
X634054Y241884D01*
X634015Y241792D01*
X633972Y241702D01*
X633927Y241614D01*
X633877Y241527D01*
X633825Y241443D01*
X633769Y241360D01*
X633711Y241280D01*
X633649Y241202D01*
X633584Y241127D01*
X633516Y241054D01*
X633446Y240984D01*
X633373Y240916D01*
X633298Y240851D01*
X633220Y240789D01*
X633140Y240731D01*
X633057Y240675D01*
X632973Y240623D01*
X632886Y240573D01*
X632798Y240528D01*
X632708Y240485D01*
X632616Y240446D01*
X632523Y240411D01*
X632429Y240379D01*
X632334Y240351D01*
X632238Y240326D01*
X632140Y240305D01*
X632042Y240288D01*
X631944Y240275D01*
X631845Y240266D01*
X631745Y240260D01*
X631646Y240258D01*
X631646Y240257D02*
X625154Y240257D01*
X625055Y240259D01*
X624955Y240265D01*
X624856Y240274D01*
X624758Y240287D01*
X624660Y240305D01*
X624562Y240325D01*
X624466Y240350D01*
X624370Y240378D01*
X624276Y240410D01*
X624183Y240445D01*
X624092Y240484D01*
X624002Y240527D01*
X623913Y240572D01*
X623827Y240622D01*
X623742Y240674D01*
X623660Y240730D01*
X623580Y240789D01*
X623502Y240850D01*
X623426Y240915D01*
X623353Y240983D01*
X623283Y241053D01*
X623215Y241126D01*
X623150Y241202D01*
X623089Y241280D01*
X623030Y241360D01*
X622974Y241442D01*
X622922Y241527D01*
X622873Y241613D01*
X622827Y241702D01*
X622784Y241792D01*
X622745Y241883D01*
X622710Y241976D01*
X622678Y242070D01*
X622650Y242166D01*
X622625Y242262D01*
X622605Y242360D01*
X622587Y242458D01*
X622574Y242556D01*
X622565Y242655D01*
X622559Y242754D01*
X622557Y242854D01*
X622558Y242854D02*
X622558Y245450D01*
X622558Y252412D02*
X631646Y249815D01*
X631646Y256306D01*
X629049Y254359D02*
X634242Y254359D01*
D21*
X501580Y679700D02*
X501580Y730500D01*
X509200Y730500D01*
X516820Y730500D01*
X516820Y679700D01*
X509200Y679700D01*
X501580Y679700D01*
X509200Y730500D02*
X509200Y733040D01*
X509200Y679700D02*
X509200Y677160D01*
D18*
X497492Y705658D02*
X485808Y705658D01*
X485808Y708904D01*
X485810Y709017D01*
X485816Y709130D01*
X485826Y709243D01*
X485840Y709356D01*
X485857Y709468D01*
X485879Y709579D01*
X485904Y709689D01*
X485934Y709799D01*
X485967Y709907D01*
X486004Y710014D01*
X486044Y710120D01*
X486089Y710224D01*
X486137Y710327D01*
X486188Y710428D01*
X486243Y710527D01*
X486301Y710624D01*
X486363Y710719D01*
X486428Y710812D01*
X486496Y710902D01*
X486567Y710990D01*
X486642Y711076D01*
X486719Y711159D01*
X486799Y711239D01*
X486882Y711316D01*
X486968Y711391D01*
X487056Y711462D01*
X487146Y711530D01*
X487239Y711595D01*
X487334Y711657D01*
X487431Y711715D01*
X487530Y711770D01*
X487631Y711821D01*
X487734Y711869D01*
X487838Y711914D01*
X487944Y711954D01*
X488051Y711991D01*
X488159Y712024D01*
X488269Y712054D01*
X488379Y712079D01*
X488490Y712101D01*
X488602Y712118D01*
X488715Y712132D01*
X488828Y712142D01*
X488941Y712148D01*
X489054Y712150D01*
X489167Y712148D01*
X489280Y712142D01*
X489393Y712132D01*
X489506Y712118D01*
X489618Y712101D01*
X489729Y712079D01*
X489839Y712054D01*
X489949Y712024D01*
X490057Y711991D01*
X490164Y711954D01*
X490270Y711914D01*
X490374Y711869D01*
X490477Y711821D01*
X490578Y711770D01*
X490677Y711715D01*
X490774Y711657D01*
X490869Y711595D01*
X490962Y711530D01*
X491052Y711462D01*
X491140Y711391D01*
X491226Y711316D01*
X491309Y711239D01*
X491389Y711159D01*
X491466Y711076D01*
X491541Y710990D01*
X491612Y710902D01*
X491680Y710812D01*
X491745Y710719D01*
X491807Y710624D01*
X491865Y710527D01*
X491920Y710428D01*
X491971Y710327D01*
X492019Y710224D01*
X492064Y710120D01*
X492104Y710014D01*
X492141Y709907D01*
X492174Y709799D01*
X492204Y709689D01*
X492229Y709579D01*
X492251Y709468D01*
X492268Y709356D01*
X492282Y709243D01*
X492292Y709130D01*
X492298Y709017D01*
X492300Y708904D01*
X492299Y708904D02*
X492299Y705658D01*
X492299Y709553D02*
X497492Y712149D01*
X494246Y717014D02*
X494133Y717016D01*
X494020Y717022D01*
X493907Y717032D01*
X493794Y717046D01*
X493682Y717063D01*
X493571Y717085D01*
X493461Y717110D01*
X493351Y717140D01*
X493243Y717173D01*
X493136Y717210D01*
X493030Y717250D01*
X492926Y717295D01*
X492823Y717343D01*
X492722Y717394D01*
X492623Y717449D01*
X492526Y717507D01*
X492431Y717569D01*
X492338Y717634D01*
X492248Y717702D01*
X492160Y717773D01*
X492074Y717848D01*
X491991Y717925D01*
X491911Y718005D01*
X491834Y718088D01*
X491759Y718174D01*
X491688Y718262D01*
X491620Y718352D01*
X491555Y718445D01*
X491493Y718540D01*
X491435Y718637D01*
X491380Y718736D01*
X491329Y718837D01*
X491281Y718940D01*
X491236Y719044D01*
X491196Y719150D01*
X491159Y719257D01*
X491126Y719365D01*
X491096Y719475D01*
X491071Y719585D01*
X491049Y719696D01*
X491032Y719808D01*
X491018Y719921D01*
X491008Y720034D01*
X491002Y720147D01*
X491000Y720260D01*
X491002Y720373D01*
X491008Y720486D01*
X491018Y720599D01*
X491032Y720712D01*
X491049Y720824D01*
X491071Y720935D01*
X491096Y721045D01*
X491126Y721155D01*
X491159Y721263D01*
X491196Y721370D01*
X491236Y721476D01*
X491281Y721580D01*
X491329Y721683D01*
X491380Y721784D01*
X491435Y721883D01*
X491493Y721980D01*
X491555Y722075D01*
X491620Y722168D01*
X491688Y722258D01*
X491759Y722346D01*
X491834Y722432D01*
X491911Y722515D01*
X491991Y722595D01*
X492074Y722672D01*
X492160Y722747D01*
X492248Y722818D01*
X492338Y722886D01*
X492431Y722951D01*
X492526Y723013D01*
X492623Y723071D01*
X492722Y723126D01*
X492823Y723177D01*
X492926Y723225D01*
X493030Y723270D01*
X493136Y723310D01*
X493243Y723347D01*
X493351Y723380D01*
X493461Y723410D01*
X493571Y723435D01*
X493682Y723457D01*
X493794Y723474D01*
X493907Y723488D01*
X494020Y723498D01*
X494133Y723504D01*
X494246Y723506D01*
X494359Y723504D01*
X494472Y723498D01*
X494585Y723488D01*
X494698Y723474D01*
X494810Y723457D01*
X494921Y723435D01*
X495031Y723410D01*
X495141Y723380D01*
X495249Y723347D01*
X495356Y723310D01*
X495462Y723270D01*
X495566Y723225D01*
X495669Y723177D01*
X495770Y723126D01*
X495869Y723071D01*
X495966Y723013D01*
X496061Y722951D01*
X496154Y722886D01*
X496244Y722818D01*
X496332Y722747D01*
X496418Y722672D01*
X496501Y722595D01*
X496581Y722515D01*
X496658Y722432D01*
X496733Y722346D01*
X496804Y722258D01*
X496872Y722168D01*
X496937Y722075D01*
X496999Y721980D01*
X497057Y721883D01*
X497112Y721784D01*
X497163Y721683D01*
X497211Y721580D01*
X497256Y721476D01*
X497296Y721370D01*
X497333Y721263D01*
X497366Y721155D01*
X497396Y721045D01*
X497421Y720935D01*
X497443Y720824D01*
X497460Y720712D01*
X497474Y720599D01*
X497484Y720486D01*
X497490Y720373D01*
X497492Y720260D01*
X497490Y720147D01*
X497484Y720034D01*
X497474Y719921D01*
X497460Y719808D01*
X497443Y719696D01*
X497421Y719585D01*
X497396Y719475D01*
X497366Y719365D01*
X497333Y719257D01*
X497296Y719150D01*
X497256Y719044D01*
X497211Y718940D01*
X497163Y718837D01*
X497112Y718736D01*
X497057Y718637D01*
X496999Y718540D01*
X496937Y718445D01*
X496872Y718352D01*
X496804Y718262D01*
X496733Y718174D01*
X496658Y718088D01*
X496581Y718005D01*
X496501Y717925D01*
X496418Y717848D01*
X496332Y717773D01*
X496244Y717702D01*
X496154Y717634D01*
X496061Y717569D01*
X495966Y717507D01*
X495869Y717449D01*
X495770Y717394D01*
X495669Y717343D01*
X495566Y717295D01*
X495462Y717250D01*
X495356Y717210D01*
X495249Y717173D01*
X495141Y717140D01*
X495031Y717110D01*
X494921Y717085D01*
X494810Y717063D01*
X494698Y717046D01*
X494585Y717032D01*
X494472Y717022D01*
X494359Y717016D01*
X494246Y717014D01*
X488404Y717664D02*
X488303Y717666D01*
X488203Y717672D01*
X488103Y717682D01*
X488003Y717695D01*
X487904Y717713D01*
X487805Y717734D01*
X487708Y717759D01*
X487611Y717788D01*
X487516Y717821D01*
X487422Y717857D01*
X487330Y717897D01*
X487239Y717940D01*
X487150Y717987D01*
X487063Y718037D01*
X486977Y718091D01*
X486894Y718148D01*
X486814Y718208D01*
X486735Y718271D01*
X486659Y718338D01*
X486586Y718407D01*
X486516Y718479D01*
X486448Y718553D01*
X486383Y718630D01*
X486322Y718710D01*
X486263Y718792D01*
X486208Y718876D01*
X486156Y718962D01*
X486107Y719050D01*
X486062Y719140D01*
X486020Y719232D01*
X485982Y719325D01*
X485948Y719420D01*
X485917Y719515D01*
X485890Y719612D01*
X485867Y719710D01*
X485847Y719809D01*
X485832Y719909D01*
X485820Y720009D01*
X485812Y720109D01*
X485808Y720210D01*
X485808Y720310D01*
X485812Y720411D01*
X485820Y720511D01*
X485832Y720611D01*
X485847Y720711D01*
X485867Y720810D01*
X485890Y720908D01*
X485917Y721005D01*
X485948Y721100D01*
X485982Y721195D01*
X486020Y721288D01*
X486062Y721380D01*
X486107Y721470D01*
X486156Y721558D01*
X486208Y721644D01*
X486263Y721728D01*
X486322Y721810D01*
X486383Y721890D01*
X486448Y721967D01*
X486516Y722041D01*
X486586Y722113D01*
X486659Y722182D01*
X486735Y722249D01*
X486814Y722312D01*
X486894Y722372D01*
X486977Y722429D01*
X487063Y722483D01*
X487150Y722533D01*
X487239Y722580D01*
X487330Y722623D01*
X487422Y722663D01*
X487516Y722699D01*
X487611Y722732D01*
X487708Y722761D01*
X487805Y722786D01*
X487904Y722807D01*
X488003Y722825D01*
X488103Y722838D01*
X488203Y722848D01*
X488303Y722854D01*
X488404Y722856D01*
X488505Y722854D01*
X488605Y722848D01*
X488705Y722838D01*
X488805Y722825D01*
X488904Y722807D01*
X489003Y722786D01*
X489100Y722761D01*
X489197Y722732D01*
X489292Y722699D01*
X489386Y722663D01*
X489478Y722623D01*
X489569Y722580D01*
X489658Y722533D01*
X489745Y722483D01*
X489831Y722429D01*
X489914Y722372D01*
X489994Y722312D01*
X490073Y722249D01*
X490149Y722182D01*
X490222Y722113D01*
X490292Y722041D01*
X490360Y721967D01*
X490425Y721890D01*
X490486Y721810D01*
X490545Y721728D01*
X490600Y721644D01*
X490652Y721558D01*
X490701Y721470D01*
X490746Y721380D01*
X490788Y721288D01*
X490826Y721195D01*
X490860Y721100D01*
X490891Y721005D01*
X490918Y720908D01*
X490941Y720810D01*
X490961Y720711D01*
X490976Y720611D01*
X490988Y720511D01*
X490996Y720411D01*
X491000Y720310D01*
X491000Y720210D01*
X490996Y720109D01*
X490988Y720009D01*
X490976Y719909D01*
X490961Y719809D01*
X490941Y719710D01*
X490918Y719612D01*
X490891Y719515D01*
X490860Y719420D01*
X490826Y719325D01*
X490788Y719232D01*
X490746Y719140D01*
X490701Y719050D01*
X490652Y718962D01*
X490600Y718876D01*
X490545Y718792D01*
X490486Y718710D01*
X490425Y718630D01*
X490360Y718553D01*
X490292Y718479D01*
X490222Y718407D01*
X490149Y718338D01*
X490073Y718271D01*
X489994Y718208D01*
X489914Y718148D01*
X489831Y718091D01*
X489745Y718037D01*
X489658Y717987D01*
X489569Y717940D01*
X489478Y717897D01*
X489386Y717857D01*
X489292Y717821D01*
X489197Y717788D01*
X489100Y717759D01*
X489003Y717734D01*
X488904Y717713D01*
X488805Y717695D01*
X488705Y717682D01*
X488605Y717672D01*
X488505Y717666D01*
X488404Y717664D01*
D21*
X535880Y730400D02*
X535880Y679600D01*
X535880Y730400D02*
X543500Y730400D01*
X551120Y730400D01*
X551120Y679600D01*
X543500Y679600D01*
X535880Y679600D01*
X543500Y730400D02*
X543500Y732940D01*
X543500Y679600D02*
X543500Y677060D01*
D18*
X532592Y705558D02*
X520908Y705558D01*
X520908Y708804D01*
X520910Y708917D01*
X520916Y709030D01*
X520926Y709143D01*
X520940Y709256D01*
X520957Y709368D01*
X520979Y709479D01*
X521004Y709589D01*
X521034Y709699D01*
X521067Y709807D01*
X521104Y709914D01*
X521144Y710020D01*
X521189Y710124D01*
X521237Y710227D01*
X521288Y710328D01*
X521343Y710427D01*
X521401Y710524D01*
X521463Y710619D01*
X521528Y710712D01*
X521596Y710802D01*
X521667Y710890D01*
X521742Y710976D01*
X521819Y711059D01*
X521899Y711139D01*
X521982Y711216D01*
X522068Y711291D01*
X522156Y711362D01*
X522246Y711430D01*
X522339Y711495D01*
X522434Y711557D01*
X522531Y711615D01*
X522630Y711670D01*
X522731Y711721D01*
X522834Y711769D01*
X522938Y711814D01*
X523044Y711854D01*
X523151Y711891D01*
X523259Y711924D01*
X523369Y711954D01*
X523479Y711979D01*
X523590Y712001D01*
X523702Y712018D01*
X523815Y712032D01*
X523928Y712042D01*
X524041Y712048D01*
X524154Y712050D01*
X524267Y712048D01*
X524380Y712042D01*
X524493Y712032D01*
X524606Y712018D01*
X524718Y712001D01*
X524829Y711979D01*
X524939Y711954D01*
X525049Y711924D01*
X525157Y711891D01*
X525264Y711854D01*
X525370Y711814D01*
X525474Y711769D01*
X525577Y711721D01*
X525678Y711670D01*
X525777Y711615D01*
X525874Y711557D01*
X525969Y711495D01*
X526062Y711430D01*
X526152Y711362D01*
X526240Y711291D01*
X526326Y711216D01*
X526409Y711139D01*
X526489Y711059D01*
X526566Y710976D01*
X526641Y710890D01*
X526712Y710802D01*
X526780Y710712D01*
X526845Y710619D01*
X526907Y710524D01*
X526965Y710427D01*
X527020Y710328D01*
X527071Y710227D01*
X527119Y710124D01*
X527164Y710020D01*
X527204Y709914D01*
X527241Y709807D01*
X527274Y709699D01*
X527304Y709589D01*
X527329Y709479D01*
X527351Y709368D01*
X527368Y709256D01*
X527382Y709143D01*
X527392Y709030D01*
X527398Y708917D01*
X527400Y708804D01*
X527399Y708804D02*
X527399Y705558D01*
X527399Y709453D02*
X532592Y712049D01*
X527399Y719511D02*
X527399Y723405D01*
X527399Y719511D02*
X527397Y719412D01*
X527391Y719312D01*
X527382Y719213D01*
X527369Y719115D01*
X527352Y719017D01*
X527331Y718919D01*
X527306Y718823D01*
X527278Y718728D01*
X527246Y718634D01*
X527211Y718541D01*
X527172Y718449D01*
X527129Y718359D01*
X527084Y718271D01*
X527034Y718184D01*
X526982Y718100D01*
X526926Y718017D01*
X526868Y717937D01*
X526806Y717859D01*
X526741Y717784D01*
X526673Y717711D01*
X526603Y717641D01*
X526530Y717573D01*
X526455Y717508D01*
X526377Y717446D01*
X526297Y717388D01*
X526214Y717332D01*
X526130Y717280D01*
X526043Y717230D01*
X525955Y717185D01*
X525865Y717142D01*
X525773Y717103D01*
X525680Y717068D01*
X525586Y717036D01*
X525491Y717008D01*
X525395Y716983D01*
X525297Y716962D01*
X525199Y716945D01*
X525101Y716932D01*
X525002Y716923D01*
X524902Y716917D01*
X524803Y716915D01*
X524803Y716914D02*
X524154Y716914D01*
X524041Y716916D01*
X523928Y716922D01*
X523815Y716932D01*
X523702Y716946D01*
X523590Y716963D01*
X523479Y716985D01*
X523369Y717010D01*
X523259Y717040D01*
X523151Y717073D01*
X523044Y717110D01*
X522938Y717150D01*
X522834Y717195D01*
X522731Y717243D01*
X522630Y717294D01*
X522531Y717349D01*
X522434Y717407D01*
X522339Y717469D01*
X522246Y717534D01*
X522156Y717602D01*
X522068Y717673D01*
X521982Y717748D01*
X521899Y717825D01*
X521819Y717905D01*
X521742Y717988D01*
X521667Y718074D01*
X521596Y718162D01*
X521528Y718252D01*
X521463Y718345D01*
X521401Y718440D01*
X521343Y718537D01*
X521288Y718636D01*
X521237Y718737D01*
X521189Y718840D01*
X521144Y718944D01*
X521104Y719050D01*
X521067Y719157D01*
X521034Y719265D01*
X521004Y719375D01*
X520979Y719485D01*
X520957Y719596D01*
X520940Y719708D01*
X520926Y719821D01*
X520916Y719934D01*
X520910Y720047D01*
X520908Y720160D01*
X520910Y720273D01*
X520916Y720386D01*
X520926Y720499D01*
X520940Y720612D01*
X520957Y720724D01*
X520979Y720835D01*
X521004Y720945D01*
X521034Y721055D01*
X521067Y721163D01*
X521104Y721270D01*
X521144Y721376D01*
X521189Y721480D01*
X521237Y721583D01*
X521288Y721684D01*
X521343Y721783D01*
X521401Y721880D01*
X521463Y721975D01*
X521528Y722068D01*
X521596Y722158D01*
X521667Y722246D01*
X521742Y722332D01*
X521819Y722415D01*
X521899Y722495D01*
X521982Y722572D01*
X522068Y722647D01*
X522156Y722718D01*
X522246Y722786D01*
X522339Y722851D01*
X522434Y722913D01*
X522531Y722971D01*
X522630Y723026D01*
X522731Y723077D01*
X522834Y723125D01*
X522938Y723170D01*
X523044Y723210D01*
X523151Y723247D01*
X523259Y723280D01*
X523369Y723310D01*
X523479Y723335D01*
X523590Y723357D01*
X523702Y723374D01*
X523815Y723388D01*
X523928Y723398D01*
X524041Y723404D01*
X524154Y723406D01*
X524154Y723405D02*
X527399Y723405D01*
X527399Y723406D02*
X527542Y723404D01*
X527685Y723398D01*
X527828Y723388D01*
X527970Y723374D01*
X528112Y723357D01*
X528254Y723335D01*
X528395Y723310D01*
X528535Y723280D01*
X528674Y723247D01*
X528812Y723210D01*
X528949Y723169D01*
X529085Y723125D01*
X529220Y723076D01*
X529353Y723024D01*
X529485Y722969D01*
X529615Y722909D01*
X529744Y722846D01*
X529871Y722780D01*
X529996Y722710D01*
X530118Y722637D01*
X530239Y722560D01*
X530358Y722480D01*
X530474Y722397D01*
X530589Y722311D01*
X530700Y722222D01*
X530810Y722129D01*
X530916Y722034D01*
X531020Y721935D01*
X531121Y721834D01*
X531220Y721730D01*
X531315Y721624D01*
X531408Y721514D01*
X531497Y721403D01*
X531583Y721288D01*
X531666Y721172D01*
X531746Y721053D01*
X531823Y720932D01*
X531896Y720810D01*
X531966Y720685D01*
X532032Y720558D01*
X532095Y720429D01*
X532155Y720299D01*
X532210Y720167D01*
X532262Y720034D01*
X532311Y719899D01*
X532355Y719763D01*
X532396Y719626D01*
X532433Y719488D01*
X532466Y719349D01*
X532496Y719209D01*
X532521Y719068D01*
X532543Y718926D01*
X532560Y718784D01*
X532574Y718642D01*
X532584Y718499D01*
X532590Y718356D01*
X532592Y718213D01*
D10*
X703448Y206725D02*
X703448Y195295D01*
X703448Y206725D02*
X706623Y206725D01*
X706734Y206723D01*
X706844Y206717D01*
X706955Y206708D01*
X707065Y206694D01*
X707174Y206677D01*
X707283Y206656D01*
X707391Y206631D01*
X707498Y206602D01*
X707604Y206570D01*
X707709Y206534D01*
X707812Y206494D01*
X707914Y206451D01*
X708015Y206404D01*
X708114Y206353D01*
X708211Y206300D01*
X708305Y206243D01*
X708398Y206182D01*
X708489Y206119D01*
X708578Y206052D01*
X708664Y205982D01*
X708747Y205909D01*
X708829Y205834D01*
X708907Y205756D01*
X708982Y205674D01*
X709055Y205591D01*
X709125Y205505D01*
X709192Y205416D01*
X709255Y205325D01*
X709316Y205232D01*
X709373Y205137D01*
X709426Y205041D01*
X709477Y204942D01*
X709524Y204841D01*
X709567Y204739D01*
X709607Y204636D01*
X709643Y204531D01*
X709675Y204425D01*
X709704Y204318D01*
X709729Y204210D01*
X709750Y204101D01*
X709767Y203992D01*
X709781Y203882D01*
X709790Y203771D01*
X709796Y203661D01*
X709798Y203550D01*
X709796Y203439D01*
X709790Y203329D01*
X709781Y203218D01*
X709767Y203108D01*
X709750Y202999D01*
X709729Y202890D01*
X709704Y202782D01*
X709675Y202675D01*
X709643Y202569D01*
X709607Y202464D01*
X709567Y202361D01*
X709524Y202259D01*
X709477Y202158D01*
X709426Y202059D01*
X709373Y201962D01*
X709316Y201868D01*
X709255Y201775D01*
X709192Y201684D01*
X709125Y201595D01*
X709055Y201509D01*
X708982Y201426D01*
X708907Y201344D01*
X708829Y201266D01*
X708747Y201191D01*
X708664Y201118D01*
X708578Y201048D01*
X708489Y200981D01*
X708398Y200918D01*
X708305Y200857D01*
X708211Y200800D01*
X708114Y200747D01*
X708015Y200696D01*
X707914Y200649D01*
X707812Y200606D01*
X707709Y200566D01*
X707604Y200530D01*
X707498Y200498D01*
X707391Y200469D01*
X707283Y200444D01*
X707174Y200423D01*
X707065Y200406D01*
X706955Y200392D01*
X706844Y200383D01*
X706734Y200377D01*
X706623Y200375D01*
X703448Y200375D01*
X707258Y200375D02*
X709798Y195295D01*
X714795Y201645D02*
X718605Y201645D01*
X718705Y201643D01*
X718804Y201637D01*
X718904Y201627D01*
X719002Y201614D01*
X719101Y201596D01*
X719198Y201575D01*
X719294Y201550D01*
X719390Y201521D01*
X719484Y201488D01*
X719577Y201452D01*
X719668Y201412D01*
X719758Y201368D01*
X719846Y201321D01*
X719932Y201271D01*
X720016Y201217D01*
X720098Y201160D01*
X720177Y201100D01*
X720255Y201036D01*
X720329Y200970D01*
X720401Y200901D01*
X720470Y200829D01*
X720536Y200755D01*
X720600Y200677D01*
X720660Y200598D01*
X720717Y200516D01*
X720771Y200432D01*
X720821Y200346D01*
X720868Y200258D01*
X720912Y200168D01*
X720952Y200077D01*
X720988Y199984D01*
X721021Y199890D01*
X721050Y199794D01*
X721075Y199698D01*
X721096Y199601D01*
X721114Y199502D01*
X721127Y199404D01*
X721137Y199304D01*
X721143Y199205D01*
X721145Y199105D01*
X721145Y198470D01*
X721143Y198359D01*
X721137Y198249D01*
X721128Y198138D01*
X721114Y198028D01*
X721097Y197919D01*
X721076Y197810D01*
X721051Y197702D01*
X721022Y197595D01*
X720990Y197489D01*
X720954Y197384D01*
X720914Y197281D01*
X720871Y197179D01*
X720824Y197078D01*
X720773Y196979D01*
X720720Y196882D01*
X720663Y196788D01*
X720602Y196695D01*
X720539Y196604D01*
X720472Y196515D01*
X720402Y196429D01*
X720329Y196346D01*
X720254Y196264D01*
X720176Y196186D01*
X720094Y196111D01*
X720011Y196038D01*
X719925Y195968D01*
X719836Y195901D01*
X719745Y195838D01*
X719652Y195777D01*
X719558Y195720D01*
X719461Y195667D01*
X719362Y195616D01*
X719261Y195569D01*
X719159Y195526D01*
X719056Y195486D01*
X718951Y195450D01*
X718845Y195418D01*
X718738Y195389D01*
X718630Y195364D01*
X718521Y195343D01*
X718412Y195326D01*
X718302Y195312D01*
X718191Y195303D01*
X718081Y195297D01*
X717970Y195295D01*
X717859Y195297D01*
X717749Y195303D01*
X717638Y195312D01*
X717528Y195326D01*
X717419Y195343D01*
X717310Y195364D01*
X717202Y195389D01*
X717095Y195418D01*
X716989Y195450D01*
X716884Y195486D01*
X716781Y195526D01*
X716679Y195569D01*
X716578Y195616D01*
X716479Y195667D01*
X716383Y195720D01*
X716288Y195777D01*
X716195Y195838D01*
X716104Y195901D01*
X716015Y195968D01*
X715929Y196038D01*
X715846Y196111D01*
X715764Y196186D01*
X715686Y196264D01*
X715611Y196346D01*
X715538Y196429D01*
X715468Y196515D01*
X715401Y196604D01*
X715338Y196695D01*
X715277Y196788D01*
X715220Y196883D01*
X715167Y196979D01*
X715116Y197078D01*
X715069Y197179D01*
X715026Y197281D01*
X714986Y197384D01*
X714950Y197489D01*
X714918Y197595D01*
X714889Y197702D01*
X714864Y197810D01*
X714843Y197919D01*
X714826Y198028D01*
X714812Y198138D01*
X714803Y198249D01*
X714797Y198359D01*
X714795Y198470D01*
X714795Y201645D01*
X714797Y201785D01*
X714803Y201925D01*
X714812Y202065D01*
X714826Y202204D01*
X714843Y202343D01*
X714864Y202481D01*
X714889Y202619D01*
X714918Y202756D01*
X714950Y202892D01*
X714987Y203027D01*
X715027Y203161D01*
X715070Y203294D01*
X715118Y203426D01*
X715168Y203557D01*
X715223Y203686D01*
X715281Y203813D01*
X715342Y203939D01*
X715407Y204063D01*
X715476Y204185D01*
X715547Y204305D01*
X715622Y204423D01*
X715700Y204540D01*
X715782Y204654D01*
X715866Y204765D01*
X715954Y204874D01*
X716044Y204981D01*
X716138Y205086D01*
X716234Y205187D01*
X716333Y205286D01*
X716434Y205382D01*
X716539Y205476D01*
X716646Y205566D01*
X716755Y205654D01*
X716866Y205738D01*
X716980Y205820D01*
X717097Y205898D01*
X717215Y205973D01*
X717335Y206044D01*
X717457Y206113D01*
X717581Y206178D01*
X717707Y206239D01*
X717834Y206297D01*
X717963Y206352D01*
X718094Y206402D01*
X718226Y206450D01*
X718359Y206493D01*
X718493Y206533D01*
X718628Y206570D01*
X718764Y206602D01*
X718901Y206631D01*
X719039Y206656D01*
X719177Y206677D01*
X719316Y206694D01*
X719455Y206708D01*
X719595Y206717D01*
X719735Y206723D01*
X719875Y206725D01*
D18*
X753508Y54595D02*
X765192Y54595D01*
X753508Y54595D02*
X753508Y57840D01*
X753510Y57953D01*
X753516Y58066D01*
X753526Y58179D01*
X753540Y58292D01*
X753557Y58404D01*
X753579Y58515D01*
X753604Y58625D01*
X753634Y58735D01*
X753667Y58843D01*
X753704Y58950D01*
X753744Y59056D01*
X753789Y59160D01*
X753837Y59263D01*
X753888Y59364D01*
X753943Y59463D01*
X754001Y59560D01*
X754063Y59655D01*
X754128Y59748D01*
X754196Y59838D01*
X754267Y59926D01*
X754342Y60012D01*
X754419Y60095D01*
X754499Y60175D01*
X754582Y60252D01*
X754668Y60327D01*
X754756Y60398D01*
X754846Y60466D01*
X754939Y60531D01*
X755034Y60593D01*
X755131Y60651D01*
X755230Y60706D01*
X755331Y60757D01*
X755434Y60805D01*
X755538Y60850D01*
X755644Y60890D01*
X755751Y60927D01*
X755859Y60960D01*
X755969Y60990D01*
X756079Y61015D01*
X756190Y61037D01*
X756302Y61054D01*
X756415Y61068D01*
X756528Y61078D01*
X756641Y61084D01*
X756754Y61086D01*
X756867Y61084D01*
X756980Y61078D01*
X757093Y61068D01*
X757206Y61054D01*
X757318Y61037D01*
X757429Y61015D01*
X757539Y60990D01*
X757649Y60960D01*
X757757Y60927D01*
X757864Y60890D01*
X757970Y60850D01*
X758074Y60805D01*
X758177Y60757D01*
X758278Y60706D01*
X758377Y60651D01*
X758474Y60593D01*
X758569Y60531D01*
X758662Y60466D01*
X758752Y60398D01*
X758840Y60327D01*
X758926Y60252D01*
X759009Y60175D01*
X759089Y60095D01*
X759166Y60012D01*
X759241Y59926D01*
X759312Y59838D01*
X759380Y59748D01*
X759445Y59655D01*
X759507Y59560D01*
X759565Y59463D01*
X759620Y59364D01*
X759671Y59263D01*
X759719Y59160D01*
X759764Y59056D01*
X759804Y58950D01*
X759841Y58843D01*
X759874Y58735D01*
X759904Y58625D01*
X759929Y58515D01*
X759951Y58404D01*
X759968Y58292D01*
X759982Y58179D01*
X759992Y58066D01*
X759998Y57953D01*
X760000Y57840D01*
X759999Y57840D02*
X759999Y54595D01*
X759999Y58489D02*
X765192Y61086D01*
X754806Y65951D02*
X753508Y65951D01*
X753508Y72442D01*
X765192Y69196D01*
X686492Y50058D02*
X674808Y50058D01*
X674808Y53304D01*
X674810Y53417D01*
X674816Y53530D01*
X674826Y53643D01*
X674840Y53756D01*
X674857Y53868D01*
X674879Y53979D01*
X674904Y54089D01*
X674934Y54199D01*
X674967Y54307D01*
X675004Y54414D01*
X675044Y54520D01*
X675089Y54624D01*
X675137Y54727D01*
X675188Y54828D01*
X675243Y54927D01*
X675301Y55024D01*
X675363Y55119D01*
X675428Y55212D01*
X675496Y55302D01*
X675567Y55390D01*
X675642Y55476D01*
X675719Y55559D01*
X675799Y55639D01*
X675882Y55716D01*
X675968Y55791D01*
X676056Y55862D01*
X676146Y55930D01*
X676239Y55995D01*
X676334Y56057D01*
X676431Y56115D01*
X676530Y56170D01*
X676631Y56221D01*
X676734Y56269D01*
X676838Y56314D01*
X676944Y56354D01*
X677051Y56391D01*
X677159Y56424D01*
X677269Y56454D01*
X677379Y56479D01*
X677490Y56501D01*
X677602Y56518D01*
X677715Y56532D01*
X677828Y56542D01*
X677941Y56548D01*
X678054Y56550D01*
X678167Y56548D01*
X678280Y56542D01*
X678393Y56532D01*
X678506Y56518D01*
X678618Y56501D01*
X678729Y56479D01*
X678839Y56454D01*
X678949Y56424D01*
X679057Y56391D01*
X679164Y56354D01*
X679270Y56314D01*
X679374Y56269D01*
X679477Y56221D01*
X679578Y56170D01*
X679677Y56115D01*
X679774Y56057D01*
X679869Y55995D01*
X679962Y55930D01*
X680052Y55862D01*
X680140Y55791D01*
X680226Y55716D01*
X680309Y55639D01*
X680389Y55559D01*
X680466Y55476D01*
X680541Y55390D01*
X680612Y55302D01*
X680680Y55212D01*
X680745Y55119D01*
X680807Y55024D01*
X680865Y54927D01*
X680920Y54828D01*
X680971Y54727D01*
X681019Y54624D01*
X681064Y54520D01*
X681104Y54414D01*
X681141Y54307D01*
X681174Y54199D01*
X681204Y54089D01*
X681229Y53979D01*
X681251Y53868D01*
X681268Y53756D01*
X681282Y53643D01*
X681292Y53530D01*
X681298Y53417D01*
X681300Y53304D01*
X681299Y53304D02*
X681299Y50058D01*
X681299Y53953D02*
X686492Y56549D01*
X677404Y61414D02*
X674808Y64660D01*
X686492Y64660D01*
X686492Y67905D02*
X686492Y61414D01*
X680650Y72844D02*
X680420Y72847D01*
X680190Y72855D01*
X679961Y72869D01*
X679732Y72888D01*
X679503Y72913D01*
X679275Y72943D01*
X679048Y72978D01*
X678822Y73019D01*
X678597Y73065D01*
X678373Y73117D01*
X678150Y73174D01*
X677929Y73236D01*
X677709Y73304D01*
X677491Y73377D01*
X677275Y73455D01*
X677061Y73538D01*
X676849Y73626D01*
X676638Y73719D01*
X676431Y73818D01*
X676341Y73851D01*
X676252Y73887D01*
X676164Y73927D01*
X676079Y73971D01*
X675995Y74018D01*
X675913Y74068D01*
X675833Y74122D01*
X675756Y74178D01*
X675680Y74238D01*
X675607Y74301D01*
X675537Y74366D01*
X675469Y74435D01*
X675405Y74506D01*
X675343Y74579D01*
X675284Y74655D01*
X675228Y74733D01*
X675175Y74814D01*
X675126Y74896D01*
X675080Y74980D01*
X675037Y75067D01*
X674998Y75154D01*
X674962Y75244D01*
X674930Y75334D01*
X674902Y75426D01*
X674877Y75519D01*
X674856Y75613D01*
X674839Y75707D01*
X674825Y75802D01*
X674816Y75898D01*
X674810Y75994D01*
X674808Y76090D01*
X674810Y76186D01*
X674816Y76282D01*
X674825Y76378D01*
X674839Y76473D01*
X674856Y76567D01*
X674877Y76661D01*
X674902Y76754D01*
X674930Y76846D01*
X674962Y76936D01*
X674998Y77026D01*
X675037Y77114D01*
X675080Y77200D01*
X675126Y77284D01*
X675175Y77366D01*
X675228Y77447D01*
X675284Y77525D01*
X675343Y77601D01*
X675405Y77674D01*
X675469Y77745D01*
X675537Y77814D01*
X675607Y77879D01*
X675680Y77942D01*
X675756Y78002D01*
X675833Y78058D01*
X675913Y78112D01*
X675995Y78162D01*
X676079Y78209D01*
X676164Y78253D01*
X676252Y78293D01*
X676341Y78329D01*
X676431Y78362D01*
X676638Y78461D01*
X676849Y78554D01*
X677061Y78642D01*
X677275Y78725D01*
X677491Y78803D01*
X677709Y78876D01*
X677929Y78944D01*
X678150Y79006D01*
X678373Y79063D01*
X678597Y79115D01*
X678822Y79161D01*
X679048Y79202D01*
X679275Y79237D01*
X679503Y79267D01*
X679732Y79292D01*
X679961Y79311D01*
X680190Y79325D01*
X680420Y79333D01*
X680650Y79336D01*
X680650Y72844D02*
X680880Y72847D01*
X681110Y72855D01*
X681339Y72869D01*
X681568Y72888D01*
X681797Y72913D01*
X682025Y72943D01*
X682252Y72978D01*
X682478Y73019D01*
X682703Y73065D01*
X682927Y73117D01*
X683150Y73174D01*
X683371Y73236D01*
X683591Y73304D01*
X683809Y73377D01*
X684025Y73455D01*
X684239Y73538D01*
X684451Y73626D01*
X684662Y73719D01*
X684869Y73818D01*
X684959Y73851D01*
X685048Y73887D01*
X685136Y73928D01*
X685221Y73971D01*
X685305Y74018D01*
X685387Y74068D01*
X685467Y74122D01*
X685544Y74178D01*
X685620Y74238D01*
X685693Y74301D01*
X685763Y74366D01*
X685831Y74435D01*
X685895Y74506D01*
X685957Y74579D01*
X686016Y74655D01*
X686072Y74733D01*
X686125Y74814D01*
X686174Y74896D01*
X686220Y74980D01*
X686263Y75067D01*
X686302Y75154D01*
X686338Y75244D01*
X686370Y75334D01*
X686398Y75426D01*
X686423Y75519D01*
X686444Y75613D01*
X686461Y75707D01*
X686475Y75802D01*
X686484Y75898D01*
X686490Y75994D01*
X686492Y76090D01*
X684869Y78362D02*
X684662Y78461D01*
X684451Y78554D01*
X684239Y78642D01*
X684025Y78725D01*
X683809Y78803D01*
X683591Y78876D01*
X683371Y78944D01*
X683150Y79006D01*
X682927Y79063D01*
X682703Y79115D01*
X682478Y79161D01*
X682252Y79202D01*
X682025Y79237D01*
X681797Y79267D01*
X681568Y79292D01*
X681339Y79311D01*
X681110Y79325D01*
X680880Y79333D01*
X680650Y79336D01*
X684869Y78362D02*
X684959Y78329D01*
X685048Y78293D01*
X685136Y78253D01*
X685221Y78209D01*
X685305Y78162D01*
X685387Y78112D01*
X685467Y78058D01*
X685544Y78002D01*
X685620Y77942D01*
X685693Y77879D01*
X685763Y77814D01*
X685831Y77745D01*
X685895Y77674D01*
X685957Y77601D01*
X686016Y77525D01*
X686072Y77447D01*
X686125Y77366D01*
X686174Y77284D01*
X686220Y77200D01*
X686263Y77113D01*
X686302Y77026D01*
X686338Y76936D01*
X686370Y76846D01*
X686398Y76754D01*
X686423Y76661D01*
X686444Y76567D01*
X686461Y76473D01*
X686475Y76378D01*
X686484Y76282D01*
X686490Y76186D01*
X686492Y76090D01*
X683896Y73493D02*
X677404Y78686D01*
X735509Y94708D02*
X738106Y94708D01*
X735509Y94708D02*
X735410Y94710D01*
X735310Y94716D01*
X735211Y94725D01*
X735113Y94738D01*
X735015Y94755D01*
X734917Y94776D01*
X734821Y94801D01*
X734726Y94829D01*
X734632Y94861D01*
X734539Y94896D01*
X734447Y94935D01*
X734357Y94978D01*
X734269Y95023D01*
X734182Y95073D01*
X734098Y95125D01*
X734015Y95181D01*
X733935Y95239D01*
X733857Y95301D01*
X733782Y95366D01*
X733709Y95434D01*
X733639Y95504D01*
X733571Y95577D01*
X733506Y95652D01*
X733444Y95730D01*
X733386Y95810D01*
X733330Y95893D01*
X733278Y95977D01*
X733228Y96064D01*
X733183Y96152D01*
X733140Y96242D01*
X733101Y96334D01*
X733066Y96427D01*
X733034Y96521D01*
X733006Y96616D01*
X732981Y96712D01*
X732960Y96810D01*
X732943Y96908D01*
X732930Y97006D01*
X732921Y97105D01*
X732915Y97205D01*
X732913Y97304D01*
X732913Y103796D01*
X732915Y103895D01*
X732921Y103995D01*
X732930Y104094D01*
X732943Y104192D01*
X732960Y104290D01*
X732981Y104388D01*
X733006Y104484D01*
X733034Y104579D01*
X733066Y104673D01*
X733101Y104766D01*
X733140Y104858D01*
X733183Y104948D01*
X733228Y105036D01*
X733278Y105123D01*
X733330Y105207D01*
X733386Y105290D01*
X733444Y105370D01*
X733506Y105448D01*
X733571Y105523D01*
X733639Y105596D01*
X733709Y105666D01*
X733782Y105734D01*
X733857Y105799D01*
X733935Y105861D01*
X734015Y105919D01*
X734098Y105975D01*
X734182Y106027D01*
X734269Y106077D01*
X734357Y106122D01*
X734447Y106165D01*
X734539Y106204D01*
X734631Y106239D01*
X734726Y106271D01*
X734821Y106299D01*
X734917Y106324D01*
X735015Y106345D01*
X735113Y106362D01*
X735211Y106375D01*
X735310Y106384D01*
X735410Y106390D01*
X735509Y106392D01*
X738106Y106392D01*
X742471Y103796D02*
X745716Y106392D01*
X745716Y94708D01*
X742471Y94708D02*
X748962Y94708D01*
X753901Y100550D02*
X753904Y100780D01*
X753912Y101010D01*
X753926Y101239D01*
X753945Y101468D01*
X753970Y101697D01*
X754000Y101924D01*
X754035Y102152D01*
X754076Y102378D01*
X754122Y102603D01*
X754174Y102827D01*
X754231Y103049D01*
X754293Y103271D01*
X754361Y103490D01*
X754434Y103708D01*
X754512Y103925D01*
X754595Y104139D01*
X754683Y104351D01*
X754776Y104561D01*
X754875Y104769D01*
X754874Y104769D02*
X754907Y104859D01*
X754943Y104948D01*
X754983Y105036D01*
X755027Y105121D01*
X755074Y105205D01*
X755124Y105287D01*
X755178Y105367D01*
X755234Y105444D01*
X755294Y105520D01*
X755357Y105593D01*
X755422Y105663D01*
X755491Y105731D01*
X755562Y105795D01*
X755635Y105857D01*
X755711Y105916D01*
X755789Y105972D01*
X755870Y106025D01*
X755952Y106074D01*
X756036Y106120D01*
X756123Y106163D01*
X756210Y106202D01*
X756300Y106238D01*
X756390Y106270D01*
X756482Y106298D01*
X756575Y106323D01*
X756669Y106344D01*
X756763Y106361D01*
X756858Y106375D01*
X756954Y106384D01*
X757050Y106390D01*
X757146Y106392D01*
X757242Y106390D01*
X757338Y106384D01*
X757434Y106375D01*
X757529Y106361D01*
X757623Y106344D01*
X757717Y106323D01*
X757810Y106298D01*
X757902Y106270D01*
X757992Y106238D01*
X758082Y106202D01*
X758169Y106163D01*
X758256Y106120D01*
X758340Y106074D01*
X758422Y106025D01*
X758503Y105972D01*
X758581Y105916D01*
X758657Y105857D01*
X758730Y105795D01*
X758801Y105731D01*
X758870Y105663D01*
X758935Y105593D01*
X758998Y105520D01*
X759058Y105444D01*
X759114Y105367D01*
X759168Y105287D01*
X759218Y105205D01*
X759265Y105121D01*
X759309Y105036D01*
X759349Y104948D01*
X759385Y104859D01*
X759418Y104769D01*
X759419Y104769D02*
X759518Y104562D01*
X759611Y104352D01*
X759699Y104139D01*
X759782Y103925D01*
X759860Y103709D01*
X759933Y103491D01*
X760001Y103271D01*
X760063Y103050D01*
X760120Y102827D01*
X760172Y102603D01*
X760218Y102378D01*
X760259Y102152D01*
X760294Y101925D01*
X760324Y101697D01*
X760349Y101468D01*
X760368Y101239D01*
X760382Y101010D01*
X760390Y100780D01*
X760393Y100550D01*
X753901Y100550D02*
X753904Y100320D01*
X753912Y100090D01*
X753926Y99861D01*
X753945Y99632D01*
X753970Y99403D01*
X754000Y99175D01*
X754035Y98948D01*
X754076Y98722D01*
X754122Y98497D01*
X754174Y98273D01*
X754231Y98050D01*
X754293Y97829D01*
X754361Y97609D01*
X754434Y97391D01*
X754512Y97175D01*
X754595Y96961D01*
X754683Y96749D01*
X754776Y96538D01*
X754875Y96331D01*
X754874Y96331D02*
X754907Y96241D01*
X754943Y96152D01*
X754984Y96064D01*
X755027Y95979D01*
X755074Y95895D01*
X755124Y95813D01*
X755178Y95733D01*
X755234Y95656D01*
X755294Y95580D01*
X755357Y95507D01*
X755422Y95437D01*
X755491Y95369D01*
X755562Y95305D01*
X755635Y95243D01*
X755711Y95184D01*
X755789Y95128D01*
X755870Y95075D01*
X755952Y95026D01*
X756036Y94980D01*
X756123Y94937D01*
X756210Y94898D01*
X756300Y94862D01*
X756390Y94830D01*
X756482Y94802D01*
X756575Y94777D01*
X756669Y94756D01*
X756763Y94739D01*
X756858Y94725D01*
X756954Y94716D01*
X757050Y94710D01*
X757146Y94708D01*
X759418Y96331D02*
X759517Y96538D01*
X759610Y96749D01*
X759698Y96961D01*
X759781Y97175D01*
X759859Y97391D01*
X759932Y97609D01*
X760000Y97829D01*
X760062Y98050D01*
X760119Y98273D01*
X760171Y98497D01*
X760217Y98722D01*
X760258Y98948D01*
X760293Y99175D01*
X760323Y99403D01*
X760348Y99632D01*
X760367Y99861D01*
X760381Y100090D01*
X760389Y100320D01*
X760392Y100550D01*
X759418Y96331D02*
X759385Y96241D01*
X759349Y96152D01*
X759309Y96064D01*
X759265Y95979D01*
X759218Y95895D01*
X759168Y95813D01*
X759114Y95733D01*
X759058Y95656D01*
X758998Y95580D01*
X758935Y95507D01*
X758870Y95437D01*
X758801Y95369D01*
X758730Y95305D01*
X758657Y95243D01*
X758581Y95184D01*
X758503Y95128D01*
X758422Y95075D01*
X758340Y95026D01*
X758256Y94980D01*
X758169Y94937D01*
X758082Y94898D01*
X757992Y94862D01*
X757902Y94830D01*
X757810Y94802D01*
X757717Y94777D01*
X757623Y94756D01*
X757529Y94739D01*
X757434Y94725D01*
X757338Y94716D01*
X757242Y94710D01*
X757146Y94708D01*
X754550Y97304D02*
X759743Y103796D01*
D10*
X691700Y162100D02*
X691700Y165910D01*
D20*
X679000Y165910D02*
X679000Y136700D01*
X679000Y165910D02*
X691700Y165910D01*
D10*
X694240Y165910D01*
D20*
X691700Y165910D02*
X704400Y165910D01*
X729800Y165910D02*
X729800Y136700D01*
D10*
X729800Y165910D02*
X704400Y165910D01*
D20*
X679000Y136700D02*
X679000Y107490D01*
X704400Y107490D01*
X729800Y107490D02*
X729800Y136700D01*
D10*
X729800Y107490D02*
X723450Y107490D01*
D20*
X710750Y107490D01*
D10*
X704400Y107490D01*
X685350Y107490D02*
X681540Y107490D01*
D20*
X679000Y107490D02*
X685350Y107490D01*
X685350Y113840D01*
X698050Y113840D01*
X698050Y107490D01*
X710750Y107490D01*
X710750Y113840D01*
X723450Y113840D01*
X723450Y107490D01*
X729800Y107490D01*
X691700Y155750D02*
X691700Y165910D01*
X691700Y155750D02*
X694240Y155750D01*
X714560Y155750D01*
X717100Y155750D01*
X717100Y165910D01*
X691700Y155750D02*
X694240Y150670D01*
X694240Y155750D02*
X694240Y165910D01*
X694240Y150670D02*
X714560Y150670D01*
X717100Y155750D01*
X714560Y155750D02*
X714560Y165910D01*
D22*
X738040Y139973D02*
X741074Y142400D01*
X741074Y131478D01*
X738040Y131478D02*
X744108Y131478D01*
X674258Y138908D02*
X674256Y139010D01*
X674250Y139112D01*
X674241Y139214D01*
X674227Y139315D01*
X674210Y139416D01*
X674190Y139516D01*
X674165Y139615D01*
X674137Y139713D01*
X674105Y139810D01*
X674069Y139906D01*
X674030Y140000D01*
X673988Y140093D01*
X673942Y140184D01*
X673892Y140274D01*
X673839Y140361D01*
X673783Y140446D01*
X673724Y140530D01*
X673662Y140611D01*
X673597Y140689D01*
X673529Y140766D01*
X673458Y140839D01*
X673385Y140910D01*
X673308Y140978D01*
X673230Y141043D01*
X673149Y141105D01*
X673065Y141164D01*
X672980Y141220D01*
X672893Y141273D01*
X672803Y141323D01*
X672712Y141369D01*
X672619Y141411D01*
X672525Y141450D01*
X672429Y141486D01*
X672332Y141518D01*
X672234Y141546D01*
X672135Y141571D01*
X672035Y141591D01*
X671934Y141608D01*
X671833Y141622D01*
X671731Y141631D01*
X671629Y141637D01*
X671527Y141639D01*
X671527Y141638D02*
X671411Y141636D01*
X671295Y141630D01*
X671179Y141621D01*
X671064Y141607D01*
X670949Y141590D01*
X670835Y141569D01*
X670722Y141544D01*
X670609Y141516D01*
X670498Y141484D01*
X670387Y141448D01*
X670278Y141408D01*
X670170Y141365D01*
X670064Y141318D01*
X669959Y141268D01*
X669856Y141215D01*
X669755Y141158D01*
X669656Y141097D01*
X669559Y141034D01*
X669464Y140967D01*
X669371Y140897D01*
X669281Y140824D01*
X669193Y140749D01*
X669107Y140670D01*
X669025Y140588D01*
X668945Y140504D01*
X668867Y140418D01*
X668793Y140328D01*
X668722Y140237D01*
X668654Y140143D01*
X668589Y140046D01*
X668527Y139948D01*
X668468Y139848D01*
X668413Y139746D01*
X668361Y139642D01*
X668313Y139536D01*
X668268Y139429D01*
X668227Y139321D01*
X668190Y139211D01*
X673348Y136784D02*
X673421Y136857D01*
X673492Y136932D01*
X673560Y137009D01*
X673626Y137089D01*
X673688Y137171D01*
X673748Y137255D01*
X673805Y137342D01*
X673858Y137430D01*
X673909Y137520D01*
X673956Y137612D01*
X674000Y137705D01*
X674041Y137800D01*
X674078Y137897D01*
X674112Y137994D01*
X674142Y138093D01*
X674169Y138192D01*
X674193Y138293D01*
X674213Y138394D01*
X674229Y138496D01*
X674242Y138599D01*
X674251Y138702D01*
X674256Y138805D01*
X674258Y138908D01*
X673348Y136784D02*
X668190Y130716D01*
X674258Y130716D01*
D18*
X664725Y158391D02*
X664725Y165503D01*
X664725Y158391D02*
X664723Y158302D01*
X664717Y158214D01*
X664708Y158126D01*
X664694Y158038D01*
X664677Y157951D01*
X664656Y157865D01*
X664631Y157780D01*
X664602Y157696D01*
X664570Y157613D01*
X664535Y157532D01*
X664495Y157453D01*
X664453Y157375D01*
X664407Y157299D01*
X664358Y157225D01*
X664305Y157154D01*
X664250Y157085D01*
X664191Y157018D01*
X664130Y156954D01*
X664066Y156893D01*
X663999Y156834D01*
X663930Y156779D01*
X663859Y156726D01*
X663785Y156677D01*
X663709Y156631D01*
X663631Y156589D01*
X663552Y156549D01*
X663471Y156514D01*
X663388Y156482D01*
X663304Y156453D01*
X663219Y156428D01*
X663133Y156407D01*
X663046Y156390D01*
X662958Y156376D01*
X662870Y156367D01*
X662782Y156361D01*
X662693Y156359D01*
X661677Y156359D01*
X669052Y158391D02*
X671084Y165503D01*
X669052Y158391D02*
X674132Y158391D01*
X672608Y160423D02*
X672608Y156359D01*
D24*
X323100Y726100D02*
X323100Y772100D01*
X323100Y726100D02*
X427100Y726100D01*
X427100Y756800D01*
D11*
X302060Y742830D02*
X296980Y742830D01*
X299520Y745370D02*
X299520Y740290D01*
X271580Y756800D02*
X271586Y757299D01*
X271604Y757797D01*
X271635Y758295D01*
X271678Y758792D01*
X271733Y759287D01*
X271800Y759782D01*
X271879Y760274D01*
X271970Y760764D01*
X272074Y761252D01*
X272189Y761737D01*
X272316Y762220D01*
X272455Y762699D01*
X272606Y763174D01*
X272768Y763646D01*
X272942Y764113D01*
X273127Y764576D01*
X273323Y765035D01*
X273531Y765488D01*
X273750Y765936D01*
X273979Y766379D01*
X274220Y766816D01*
X274471Y767247D01*
X274733Y767671D01*
X275005Y768089D01*
X275287Y768500D01*
X275579Y768905D01*
X275881Y769302D01*
X276192Y769691D01*
X276514Y770072D01*
X276844Y770446D01*
X277183Y770811D01*
X277532Y771168D01*
X277889Y771517D01*
X278254Y771856D01*
X278628Y772186D01*
X279009Y772508D01*
X279398Y772819D01*
X279795Y773121D01*
X280200Y773413D01*
X280611Y773695D01*
X281029Y773967D01*
X281453Y774229D01*
X281884Y774480D01*
X282321Y774721D01*
X282764Y774950D01*
X283212Y775169D01*
X283665Y775377D01*
X284124Y775573D01*
X284587Y775758D01*
X285054Y775932D01*
X285526Y776094D01*
X286001Y776245D01*
X286480Y776384D01*
X286963Y776511D01*
X287448Y776626D01*
X287936Y776730D01*
X288426Y776821D01*
X288918Y776900D01*
X289413Y776967D01*
X289908Y777022D01*
X290405Y777065D01*
X290903Y777096D01*
X291401Y777114D01*
X291900Y777120D01*
X292399Y777114D01*
X292897Y777096D01*
X293395Y777065D01*
X293892Y777022D01*
X294387Y776967D01*
X294882Y776900D01*
X295374Y776821D01*
X295864Y776730D01*
X296352Y776626D01*
X296837Y776511D01*
X297320Y776384D01*
X297799Y776245D01*
X298274Y776094D01*
X298746Y775932D01*
X299213Y775758D01*
X299676Y775573D01*
X300135Y775377D01*
X300588Y775169D01*
X301036Y774950D01*
X301479Y774721D01*
X301916Y774480D01*
X302347Y774229D01*
X302771Y773967D01*
X303189Y773695D01*
X303600Y773413D01*
X304005Y773121D01*
X304402Y772819D01*
X304791Y772508D01*
X305172Y772186D01*
X305546Y771856D01*
X305911Y771517D01*
X306268Y771168D01*
X306617Y770811D01*
X306956Y770446D01*
X307286Y770072D01*
X307608Y769691D01*
X307919Y769302D01*
X308221Y768905D01*
X308513Y768500D01*
X308795Y768089D01*
X309067Y767671D01*
X309329Y767247D01*
X309580Y766816D01*
X309821Y766379D01*
X310050Y765936D01*
X310269Y765488D01*
X310477Y765035D01*
X310673Y764576D01*
X310858Y764113D01*
X311032Y763646D01*
X311194Y763174D01*
X311345Y762699D01*
X311484Y762220D01*
X311611Y761737D01*
X311726Y761252D01*
X311830Y760764D01*
X311921Y760274D01*
X312000Y759782D01*
X312067Y759287D01*
X312122Y758792D01*
X312165Y758295D01*
X312196Y757797D01*
X312214Y757299D01*
X312220Y756800D01*
X312214Y756301D01*
X312196Y755803D01*
X312165Y755305D01*
X312122Y754808D01*
X312067Y754313D01*
X312000Y753818D01*
X311921Y753326D01*
X311830Y752836D01*
X311726Y752348D01*
X311611Y751863D01*
X311484Y751380D01*
X311345Y750901D01*
X311194Y750426D01*
X311032Y749954D01*
X310858Y749487D01*
X310673Y749024D01*
X310477Y748565D01*
X310269Y748112D01*
X310050Y747664D01*
X309821Y747221D01*
X309580Y746784D01*
X309329Y746353D01*
X309067Y745929D01*
X308795Y745511D01*
X308513Y745100D01*
X308221Y744695D01*
X307919Y744298D01*
X307608Y743909D01*
X307286Y743528D01*
X306956Y743154D01*
X306617Y742789D01*
X306268Y742432D01*
X305911Y742083D01*
X305546Y741744D01*
X305172Y741414D01*
X304791Y741092D01*
X304402Y740781D01*
X304005Y740479D01*
X303600Y740187D01*
X303189Y739905D01*
X302771Y739633D01*
X302347Y739371D01*
X301916Y739120D01*
X301479Y738879D01*
X301036Y738650D01*
X300588Y738431D01*
X300135Y738223D01*
X299676Y738027D01*
X299213Y737842D01*
X298746Y737668D01*
X298274Y737506D01*
X297799Y737355D01*
X297320Y737216D01*
X296837Y737089D01*
X296352Y736974D01*
X295864Y736870D01*
X295374Y736779D01*
X294882Y736700D01*
X294387Y736633D01*
X293892Y736578D01*
X293395Y736535D01*
X292897Y736504D01*
X292399Y736486D01*
X291900Y736480D01*
X291401Y736486D01*
X290903Y736504D01*
X290405Y736535D01*
X289908Y736578D01*
X289413Y736633D01*
X288918Y736700D01*
X288426Y736779D01*
X287936Y736870D01*
X287448Y736974D01*
X286963Y737089D01*
X286480Y737216D01*
X286001Y737355D01*
X285526Y737506D01*
X285054Y737668D01*
X284587Y737842D01*
X284124Y738027D01*
X283665Y738223D01*
X283212Y738431D01*
X282764Y738650D01*
X282321Y738879D01*
X281884Y739120D01*
X281453Y739371D01*
X281029Y739633D01*
X280611Y739905D01*
X280200Y740187D01*
X279795Y740479D01*
X279398Y740781D01*
X279009Y741092D01*
X278628Y741414D01*
X278254Y741744D01*
X277889Y742083D01*
X277532Y742432D01*
X277183Y742789D01*
X276844Y743154D01*
X276514Y743528D01*
X276192Y743909D01*
X275881Y744298D01*
X275579Y744695D01*
X275287Y745100D01*
X275005Y745511D01*
X274733Y745929D01*
X274471Y746353D01*
X274220Y746784D01*
X273979Y747221D01*
X273750Y747664D01*
X273531Y748112D01*
X273323Y748565D01*
X273127Y749024D01*
X272942Y749487D01*
X272768Y749954D01*
X272606Y750426D01*
X272455Y750901D01*
X272316Y751380D01*
X272189Y751863D01*
X272074Y752348D01*
X271970Y752836D01*
X271879Y753326D01*
X271800Y753818D01*
X271733Y754313D01*
X271678Y754808D01*
X271635Y755305D01*
X271604Y755803D01*
X271586Y756301D01*
X271580Y756800D01*
D10*
X268913Y721115D02*
X266373Y721115D01*
X266273Y721117D01*
X266174Y721123D01*
X266074Y721133D01*
X265976Y721146D01*
X265877Y721164D01*
X265780Y721185D01*
X265684Y721210D01*
X265588Y721239D01*
X265494Y721272D01*
X265401Y721308D01*
X265310Y721348D01*
X265220Y721392D01*
X265132Y721439D01*
X265046Y721489D01*
X264962Y721543D01*
X264880Y721600D01*
X264801Y721660D01*
X264723Y721724D01*
X264649Y721790D01*
X264577Y721859D01*
X264508Y721931D01*
X264442Y722005D01*
X264378Y722083D01*
X264318Y722162D01*
X264261Y722244D01*
X264207Y722328D01*
X264157Y722414D01*
X264110Y722502D01*
X264066Y722592D01*
X264026Y722683D01*
X263990Y722776D01*
X263957Y722870D01*
X263928Y722966D01*
X263903Y723062D01*
X263882Y723159D01*
X263864Y723258D01*
X263851Y723356D01*
X263841Y723456D01*
X263835Y723555D01*
X263833Y723655D01*
X263833Y730005D01*
X263835Y730105D01*
X263841Y730204D01*
X263851Y730304D01*
X263864Y730402D01*
X263882Y730501D01*
X263903Y730598D01*
X263928Y730694D01*
X263957Y730790D01*
X263990Y730884D01*
X264026Y730977D01*
X264066Y731068D01*
X264110Y731158D01*
X264157Y731246D01*
X264207Y731332D01*
X264261Y731416D01*
X264318Y731498D01*
X264378Y731577D01*
X264442Y731655D01*
X264508Y731729D01*
X264577Y731801D01*
X264649Y731870D01*
X264723Y731936D01*
X264801Y732000D01*
X264880Y732060D01*
X264962Y732117D01*
X265046Y732171D01*
X265132Y732221D01*
X265220Y732268D01*
X265310Y732312D01*
X265401Y732352D01*
X265494Y732388D01*
X265588Y732421D01*
X265684Y732450D01*
X265780Y732475D01*
X265877Y732496D01*
X265976Y732514D01*
X266074Y732527D01*
X266174Y732537D01*
X266273Y732543D01*
X266373Y732545D01*
X268913Y732545D01*
X273395Y730005D02*
X276570Y732545D01*
X276570Y721115D01*
X273395Y721115D02*
X279745Y721115D01*
X291176Y729688D02*
X291174Y729792D01*
X291168Y729897D01*
X291159Y730001D01*
X291146Y730104D01*
X291128Y730207D01*
X291108Y730309D01*
X291083Y730411D01*
X291055Y730511D01*
X291023Y730611D01*
X290987Y730709D01*
X290948Y730806D01*
X290906Y730901D01*
X290860Y730995D01*
X290810Y731087D01*
X290758Y731177D01*
X290702Y731265D01*
X290642Y731351D01*
X290580Y731435D01*
X290515Y731516D01*
X290447Y731595D01*
X290375Y731672D01*
X290302Y731745D01*
X290225Y731817D01*
X290146Y731885D01*
X290065Y731950D01*
X289981Y732012D01*
X289895Y732072D01*
X289807Y732128D01*
X289717Y732180D01*
X289625Y732230D01*
X289531Y732276D01*
X289436Y732318D01*
X289339Y732357D01*
X289241Y732393D01*
X289141Y732425D01*
X289041Y732453D01*
X288939Y732478D01*
X288837Y732498D01*
X288734Y732516D01*
X288631Y732529D01*
X288527Y732538D01*
X288422Y732544D01*
X288318Y732546D01*
X288318Y732545D02*
X288200Y732543D01*
X288081Y732537D01*
X287963Y732528D01*
X287846Y732515D01*
X287729Y732497D01*
X287612Y732477D01*
X287496Y732452D01*
X287381Y732424D01*
X287268Y732391D01*
X287155Y732356D01*
X287043Y732316D01*
X286933Y732274D01*
X286824Y732227D01*
X286716Y732177D01*
X286611Y732124D01*
X286507Y732067D01*
X286405Y732007D01*
X286305Y731944D01*
X286207Y731877D01*
X286111Y731808D01*
X286018Y731735D01*
X285927Y731659D01*
X285838Y731581D01*
X285752Y731499D01*
X285669Y731415D01*
X285588Y731329D01*
X285511Y731239D01*
X285436Y731148D01*
X285364Y731054D01*
X285295Y730957D01*
X285230Y730859D01*
X285167Y730758D01*
X285108Y730655D01*
X285052Y730551D01*
X285000Y730445D01*
X284951Y730337D01*
X284906Y730228D01*
X284864Y730117D01*
X284826Y730005D01*
X290223Y727466D02*
X290299Y727541D01*
X290374Y727620D01*
X290445Y727701D01*
X290514Y727785D01*
X290579Y727871D01*
X290641Y727959D01*
X290701Y728049D01*
X290757Y728141D01*
X290810Y728236D01*
X290859Y728332D01*
X290905Y728430D01*
X290948Y728529D01*
X290987Y728630D01*
X291022Y728732D01*
X291054Y728835D01*
X291082Y728939D01*
X291107Y729044D01*
X291128Y729151D01*
X291145Y729257D01*
X291158Y729364D01*
X291167Y729472D01*
X291173Y729580D01*
X291175Y729688D01*
X290223Y727465D02*
X284825Y721115D01*
X291175Y721115D01*
D11*
X466370Y781180D02*
X466370Y786260D01*
X463830Y783720D02*
X468910Y783720D01*
X432080Y776100D02*
X432086Y776599D01*
X432104Y777097D01*
X432135Y777595D01*
X432178Y778092D01*
X432233Y778587D01*
X432300Y779082D01*
X432379Y779574D01*
X432470Y780064D01*
X432574Y780552D01*
X432689Y781037D01*
X432816Y781520D01*
X432955Y781999D01*
X433106Y782474D01*
X433268Y782946D01*
X433442Y783413D01*
X433627Y783876D01*
X433823Y784335D01*
X434031Y784788D01*
X434250Y785236D01*
X434479Y785679D01*
X434720Y786116D01*
X434971Y786547D01*
X435233Y786971D01*
X435505Y787389D01*
X435787Y787800D01*
X436079Y788205D01*
X436381Y788602D01*
X436692Y788991D01*
X437014Y789372D01*
X437344Y789746D01*
X437683Y790111D01*
X438032Y790468D01*
X438389Y790817D01*
X438754Y791156D01*
X439128Y791486D01*
X439509Y791808D01*
X439898Y792119D01*
X440295Y792421D01*
X440700Y792713D01*
X441111Y792995D01*
X441529Y793267D01*
X441953Y793529D01*
X442384Y793780D01*
X442821Y794021D01*
X443264Y794250D01*
X443712Y794469D01*
X444165Y794677D01*
X444624Y794873D01*
X445087Y795058D01*
X445554Y795232D01*
X446026Y795394D01*
X446501Y795545D01*
X446980Y795684D01*
X447463Y795811D01*
X447948Y795926D01*
X448436Y796030D01*
X448926Y796121D01*
X449418Y796200D01*
X449913Y796267D01*
X450408Y796322D01*
X450905Y796365D01*
X451403Y796396D01*
X451901Y796414D01*
X452400Y796420D01*
X452899Y796414D01*
X453397Y796396D01*
X453895Y796365D01*
X454392Y796322D01*
X454887Y796267D01*
X455382Y796200D01*
X455874Y796121D01*
X456364Y796030D01*
X456852Y795926D01*
X457337Y795811D01*
X457820Y795684D01*
X458299Y795545D01*
X458774Y795394D01*
X459246Y795232D01*
X459713Y795058D01*
X460176Y794873D01*
X460635Y794677D01*
X461088Y794469D01*
X461536Y794250D01*
X461979Y794021D01*
X462416Y793780D01*
X462847Y793529D01*
X463271Y793267D01*
X463689Y792995D01*
X464100Y792713D01*
X464505Y792421D01*
X464902Y792119D01*
X465291Y791808D01*
X465672Y791486D01*
X466046Y791156D01*
X466411Y790817D01*
X466768Y790468D01*
X467117Y790111D01*
X467456Y789746D01*
X467786Y789372D01*
X468108Y788991D01*
X468419Y788602D01*
X468721Y788205D01*
X469013Y787800D01*
X469295Y787389D01*
X469567Y786971D01*
X469829Y786547D01*
X470080Y786116D01*
X470321Y785679D01*
X470550Y785236D01*
X470769Y784788D01*
X470977Y784335D01*
X471173Y783876D01*
X471358Y783413D01*
X471532Y782946D01*
X471694Y782474D01*
X471845Y781999D01*
X471984Y781520D01*
X472111Y781037D01*
X472226Y780552D01*
X472330Y780064D01*
X472421Y779574D01*
X472500Y779082D01*
X472567Y778587D01*
X472622Y778092D01*
X472665Y777595D01*
X472696Y777097D01*
X472714Y776599D01*
X472720Y776100D01*
X472714Y775601D01*
X472696Y775103D01*
X472665Y774605D01*
X472622Y774108D01*
X472567Y773613D01*
X472500Y773118D01*
X472421Y772626D01*
X472330Y772136D01*
X472226Y771648D01*
X472111Y771163D01*
X471984Y770680D01*
X471845Y770201D01*
X471694Y769726D01*
X471532Y769254D01*
X471358Y768787D01*
X471173Y768324D01*
X470977Y767865D01*
X470769Y767412D01*
X470550Y766964D01*
X470321Y766521D01*
X470080Y766084D01*
X469829Y765653D01*
X469567Y765229D01*
X469295Y764811D01*
X469013Y764400D01*
X468721Y763995D01*
X468419Y763598D01*
X468108Y763209D01*
X467786Y762828D01*
X467456Y762454D01*
X467117Y762089D01*
X466768Y761732D01*
X466411Y761383D01*
X466046Y761044D01*
X465672Y760714D01*
X465291Y760392D01*
X464902Y760081D01*
X464505Y759779D01*
X464100Y759487D01*
X463689Y759205D01*
X463271Y758933D01*
X462847Y758671D01*
X462416Y758420D01*
X461979Y758179D01*
X461536Y757950D01*
X461088Y757731D01*
X460635Y757523D01*
X460176Y757327D01*
X459713Y757142D01*
X459246Y756968D01*
X458774Y756806D01*
X458299Y756655D01*
X457820Y756516D01*
X457337Y756389D01*
X456852Y756274D01*
X456364Y756170D01*
X455874Y756079D01*
X455382Y756000D01*
X454887Y755933D01*
X454392Y755878D01*
X453895Y755835D01*
X453397Y755804D01*
X452899Y755786D01*
X452400Y755780D01*
X451901Y755786D01*
X451403Y755804D01*
X450905Y755835D01*
X450408Y755878D01*
X449913Y755933D01*
X449418Y756000D01*
X448926Y756079D01*
X448436Y756170D01*
X447948Y756274D01*
X447463Y756389D01*
X446980Y756516D01*
X446501Y756655D01*
X446026Y756806D01*
X445554Y756968D01*
X445087Y757142D01*
X444624Y757327D01*
X444165Y757523D01*
X443712Y757731D01*
X443264Y757950D01*
X442821Y758179D01*
X442384Y758420D01*
X441953Y758671D01*
X441529Y758933D01*
X441111Y759205D01*
X440700Y759487D01*
X440295Y759779D01*
X439898Y760081D01*
X439509Y760392D01*
X439128Y760714D01*
X438754Y761044D01*
X438389Y761383D01*
X438032Y761732D01*
X437683Y762089D01*
X437344Y762454D01*
X437014Y762828D01*
X436692Y763209D01*
X436381Y763598D01*
X436079Y763995D01*
X435787Y764400D01*
X435505Y764811D01*
X435233Y765229D01*
X434971Y765653D01*
X434720Y766084D01*
X434479Y766521D01*
X434250Y766964D01*
X434031Y767412D01*
X433823Y767865D01*
X433627Y768324D01*
X433442Y768787D01*
X433268Y769254D01*
X433106Y769726D01*
X432955Y770201D01*
X432816Y770680D01*
X432689Y771163D01*
X432574Y771648D01*
X432470Y772136D01*
X432379Y772626D01*
X432300Y773118D01*
X432233Y773613D01*
X432178Y774108D01*
X432135Y774605D01*
X432104Y775103D01*
X432086Y775601D01*
X432080Y776100D01*
D10*
X448085Y804073D02*
X448085Y806613D01*
X448085Y804073D02*
X448083Y803973D01*
X448077Y803874D01*
X448067Y803774D01*
X448054Y803676D01*
X448036Y803577D01*
X448015Y803480D01*
X447990Y803384D01*
X447961Y803288D01*
X447928Y803194D01*
X447892Y803101D01*
X447852Y803010D01*
X447808Y802920D01*
X447761Y802832D01*
X447711Y802746D01*
X447657Y802662D01*
X447600Y802580D01*
X447540Y802501D01*
X447476Y802423D01*
X447410Y802349D01*
X447341Y802277D01*
X447269Y802208D01*
X447195Y802142D01*
X447117Y802078D01*
X447038Y802018D01*
X446956Y801961D01*
X446872Y801907D01*
X446786Y801857D01*
X446698Y801810D01*
X446608Y801766D01*
X446517Y801726D01*
X446424Y801690D01*
X446330Y801657D01*
X446234Y801628D01*
X446138Y801603D01*
X446041Y801582D01*
X445942Y801564D01*
X445844Y801551D01*
X445744Y801541D01*
X445645Y801535D01*
X445545Y801533D01*
X439195Y801533D01*
X439095Y801535D01*
X438996Y801541D01*
X438896Y801551D01*
X438798Y801564D01*
X438699Y801582D01*
X438602Y801603D01*
X438506Y801628D01*
X438410Y801657D01*
X438316Y801690D01*
X438223Y801726D01*
X438132Y801766D01*
X438042Y801810D01*
X437954Y801857D01*
X437868Y801907D01*
X437784Y801961D01*
X437702Y802018D01*
X437623Y802078D01*
X437545Y802142D01*
X437471Y802208D01*
X437399Y802277D01*
X437330Y802349D01*
X437264Y802423D01*
X437200Y802501D01*
X437140Y802580D01*
X437083Y802662D01*
X437029Y802746D01*
X436979Y802832D01*
X436932Y802920D01*
X436888Y803010D01*
X436848Y803101D01*
X436812Y803194D01*
X436779Y803288D01*
X436750Y803384D01*
X436725Y803480D01*
X436704Y803577D01*
X436686Y803676D01*
X436673Y803774D01*
X436663Y803874D01*
X436657Y803973D01*
X436655Y804073D01*
X436655Y806613D01*
X439195Y811095D02*
X436655Y814270D01*
X448085Y814270D01*
X448085Y811095D02*
X448085Y817445D01*
X448085Y822525D02*
X448085Y825700D01*
X448083Y825811D01*
X448077Y825921D01*
X448068Y826032D01*
X448054Y826142D01*
X448037Y826251D01*
X448016Y826360D01*
X447991Y826468D01*
X447962Y826575D01*
X447930Y826681D01*
X447894Y826786D01*
X447854Y826889D01*
X447811Y826991D01*
X447764Y827092D01*
X447713Y827191D01*
X447660Y827288D01*
X447603Y827382D01*
X447542Y827475D01*
X447479Y827566D01*
X447412Y827655D01*
X447342Y827741D01*
X447269Y827824D01*
X447194Y827906D01*
X447116Y827984D01*
X447034Y828059D01*
X446951Y828132D01*
X446865Y828202D01*
X446776Y828269D01*
X446685Y828332D01*
X446592Y828393D01*
X446498Y828450D01*
X446401Y828503D01*
X446302Y828554D01*
X446201Y828601D01*
X446099Y828644D01*
X445996Y828684D01*
X445891Y828720D01*
X445785Y828752D01*
X445678Y828781D01*
X445570Y828806D01*
X445461Y828827D01*
X445352Y828844D01*
X445242Y828858D01*
X445131Y828867D01*
X445021Y828873D01*
X444910Y828875D01*
X444799Y828873D01*
X444689Y828867D01*
X444578Y828858D01*
X444468Y828844D01*
X444359Y828827D01*
X444250Y828806D01*
X444142Y828781D01*
X444035Y828752D01*
X443929Y828720D01*
X443824Y828684D01*
X443721Y828644D01*
X443619Y828601D01*
X443518Y828554D01*
X443419Y828503D01*
X443323Y828450D01*
X443228Y828393D01*
X443135Y828332D01*
X443044Y828269D01*
X442955Y828202D01*
X442869Y828132D01*
X442786Y828059D01*
X442704Y827984D01*
X442626Y827906D01*
X442551Y827824D01*
X442478Y827741D01*
X442408Y827655D01*
X442341Y827566D01*
X442278Y827475D01*
X442217Y827382D01*
X442160Y827288D01*
X442107Y827191D01*
X442056Y827092D01*
X442009Y826991D01*
X441966Y826889D01*
X441926Y826786D01*
X441890Y826681D01*
X441858Y826575D01*
X441829Y826468D01*
X441804Y826360D01*
X441783Y826251D01*
X441766Y826142D01*
X441752Y826032D01*
X441743Y825921D01*
X441737Y825811D01*
X441735Y825700D01*
X436655Y826335D02*
X436655Y822525D01*
X436655Y826335D02*
X436657Y826435D01*
X436663Y826534D01*
X436673Y826634D01*
X436686Y826732D01*
X436704Y826831D01*
X436725Y826928D01*
X436750Y827024D01*
X436779Y827120D01*
X436812Y827214D01*
X436848Y827307D01*
X436888Y827398D01*
X436932Y827488D01*
X436979Y827576D01*
X437029Y827662D01*
X437083Y827746D01*
X437140Y827828D01*
X437200Y827907D01*
X437264Y827985D01*
X437330Y828059D01*
X437399Y828131D01*
X437471Y828200D01*
X437545Y828266D01*
X437623Y828330D01*
X437702Y828390D01*
X437784Y828447D01*
X437868Y828501D01*
X437954Y828551D01*
X438042Y828598D01*
X438132Y828642D01*
X438223Y828682D01*
X438316Y828718D01*
X438410Y828751D01*
X438506Y828780D01*
X438602Y828805D01*
X438699Y828826D01*
X438798Y828844D01*
X438896Y828857D01*
X438996Y828867D01*
X439095Y828873D01*
X439195Y828875D01*
X439295Y828873D01*
X439394Y828867D01*
X439494Y828857D01*
X439592Y828844D01*
X439691Y828826D01*
X439788Y828805D01*
X439884Y828780D01*
X439980Y828751D01*
X440074Y828718D01*
X440167Y828682D01*
X440258Y828642D01*
X440348Y828598D01*
X440436Y828551D01*
X440522Y828501D01*
X440606Y828447D01*
X440688Y828390D01*
X440767Y828330D01*
X440845Y828266D01*
X440919Y828200D01*
X440991Y828131D01*
X441060Y828059D01*
X441126Y827985D01*
X441190Y827907D01*
X441250Y827828D01*
X441307Y827746D01*
X441361Y827662D01*
X441411Y827576D01*
X441458Y827488D01*
X441502Y827398D01*
X441542Y827307D01*
X441578Y827214D01*
X441611Y827120D01*
X441640Y827024D01*
X441665Y826928D01*
X441686Y826831D01*
X441704Y826732D01*
X441717Y826634D01*
X441727Y826534D01*
X441733Y826435D01*
X441735Y826335D01*
X441735Y823795D01*
X729790Y324300D02*
X733600Y324300D01*
D20*
X729790Y311600D02*
X759000Y311600D01*
X729790Y311600D02*
X729790Y324300D01*
D10*
X729790Y326840D01*
D20*
X729790Y324300D02*
X729790Y337000D01*
X729790Y362400D02*
X759000Y362400D01*
D10*
X729790Y362400D02*
X729790Y337000D01*
D20*
X759000Y311600D02*
X788210Y311600D01*
X788210Y337000D01*
X788210Y362400D02*
X759000Y362400D01*
D10*
X788210Y362400D02*
X788210Y356050D01*
D20*
X788210Y343350D01*
D10*
X788210Y337000D01*
X788210Y317950D02*
X788210Y314140D01*
D20*
X788210Y311600D02*
X788210Y317950D01*
X781860Y317950D01*
X781860Y330650D01*
X788210Y330650D01*
X788210Y343350D01*
X781860Y343350D01*
X781860Y356050D01*
X788210Y356050D01*
X788210Y362400D01*
X739950Y324300D02*
X729790Y324300D01*
X739950Y324300D02*
X739950Y326840D01*
X739950Y347160D01*
X739950Y349700D01*
X729790Y349700D01*
X739950Y324300D02*
X745030Y326840D01*
X739950Y326840D02*
X729790Y326840D01*
X745030Y326840D02*
X745030Y347160D01*
X739950Y349700D01*
X739950Y347160D02*
X729790Y347160D01*
D22*
X755727Y370640D02*
X753300Y373674D01*
X764222Y373674D01*
X764222Y370640D02*
X764222Y376708D01*
X756793Y306858D02*
X756691Y306856D01*
X756589Y306850D01*
X756487Y306841D01*
X756386Y306827D01*
X756285Y306810D01*
X756185Y306790D01*
X756086Y306765D01*
X755988Y306737D01*
X755891Y306705D01*
X755795Y306669D01*
X755701Y306630D01*
X755608Y306588D01*
X755517Y306542D01*
X755428Y306492D01*
X755340Y306439D01*
X755255Y306383D01*
X755171Y306324D01*
X755090Y306262D01*
X755012Y306197D01*
X754935Y306129D01*
X754862Y306058D01*
X754791Y305985D01*
X754723Y305908D01*
X754658Y305830D01*
X754596Y305749D01*
X754537Y305665D01*
X754481Y305580D01*
X754428Y305493D01*
X754378Y305403D01*
X754332Y305312D01*
X754290Y305219D01*
X754251Y305125D01*
X754215Y305029D01*
X754183Y304932D01*
X754155Y304834D01*
X754130Y304735D01*
X754110Y304635D01*
X754093Y304534D01*
X754079Y304433D01*
X754070Y304331D01*
X754064Y304229D01*
X754062Y304127D01*
X754064Y304011D01*
X754070Y303895D01*
X754079Y303779D01*
X754093Y303664D01*
X754110Y303549D01*
X754131Y303435D01*
X754156Y303322D01*
X754184Y303209D01*
X754216Y303098D01*
X754252Y302987D01*
X754292Y302878D01*
X754335Y302770D01*
X754382Y302664D01*
X754432Y302559D01*
X754485Y302456D01*
X754542Y302355D01*
X754603Y302256D01*
X754666Y302159D01*
X754733Y302064D01*
X754803Y301971D01*
X754876Y301881D01*
X754951Y301793D01*
X755030Y301707D01*
X755112Y301625D01*
X755196Y301545D01*
X755282Y301467D01*
X755372Y301393D01*
X755463Y301322D01*
X755557Y301254D01*
X755654Y301189D01*
X755752Y301127D01*
X755852Y301068D01*
X755954Y301013D01*
X756058Y300961D01*
X756164Y300913D01*
X756271Y300868D01*
X756379Y300827D01*
X756489Y300790D01*
X758917Y305948D02*
X758844Y306021D01*
X758769Y306092D01*
X758692Y306160D01*
X758612Y306226D01*
X758530Y306288D01*
X758446Y306348D01*
X758359Y306405D01*
X758271Y306458D01*
X758181Y306509D01*
X758089Y306556D01*
X757996Y306600D01*
X757901Y306641D01*
X757804Y306678D01*
X757707Y306712D01*
X757608Y306742D01*
X757509Y306769D01*
X757408Y306793D01*
X757307Y306813D01*
X757205Y306829D01*
X757102Y306842D01*
X756999Y306851D01*
X756896Y306856D01*
X756793Y306858D01*
X758916Y305948D02*
X764984Y300790D01*
X764984Y306858D01*
D18*
X723709Y315425D02*
X716597Y315425D01*
X723709Y315425D02*
X723798Y315423D01*
X723886Y315417D01*
X723974Y315408D01*
X724062Y315394D01*
X724149Y315377D01*
X724235Y315356D01*
X724320Y315331D01*
X724404Y315302D01*
X724487Y315270D01*
X724568Y315235D01*
X724647Y315195D01*
X724725Y315153D01*
X724801Y315107D01*
X724875Y315058D01*
X724946Y315005D01*
X725015Y314950D01*
X725082Y314891D01*
X725146Y314830D01*
X725207Y314766D01*
X725266Y314699D01*
X725321Y314630D01*
X725374Y314559D01*
X725423Y314485D01*
X725469Y314409D01*
X725511Y314331D01*
X725551Y314252D01*
X725586Y314171D01*
X725618Y314088D01*
X725647Y314004D01*
X725672Y313919D01*
X725693Y313833D01*
X725710Y313746D01*
X725724Y313658D01*
X725733Y313570D01*
X725739Y313482D01*
X725741Y313393D01*
X725741Y312377D01*
X720661Y319752D02*
X720661Y322800D01*
X720663Y322889D01*
X720669Y322977D01*
X720678Y323065D01*
X720692Y323153D01*
X720709Y323240D01*
X720730Y323326D01*
X720755Y323411D01*
X720784Y323495D01*
X720816Y323578D01*
X720851Y323659D01*
X720891Y323738D01*
X720933Y323816D01*
X720979Y323892D01*
X721028Y323966D01*
X721081Y324037D01*
X721136Y324106D01*
X721195Y324173D01*
X721256Y324237D01*
X721320Y324298D01*
X721387Y324357D01*
X721456Y324412D01*
X721527Y324465D01*
X721601Y324514D01*
X721677Y324560D01*
X721755Y324602D01*
X721834Y324642D01*
X721915Y324677D01*
X721998Y324709D01*
X722082Y324738D01*
X722167Y324763D01*
X722253Y324784D01*
X722340Y324801D01*
X722428Y324815D01*
X722516Y324824D01*
X722604Y324830D01*
X722693Y324832D01*
X723201Y324832D01*
X723301Y324830D01*
X723400Y324824D01*
X723500Y324814D01*
X723598Y324801D01*
X723697Y324783D01*
X723794Y324762D01*
X723890Y324737D01*
X723986Y324708D01*
X724080Y324675D01*
X724173Y324639D01*
X724264Y324599D01*
X724354Y324555D01*
X724442Y324508D01*
X724528Y324458D01*
X724612Y324404D01*
X724694Y324347D01*
X724773Y324287D01*
X724851Y324223D01*
X724925Y324157D01*
X724997Y324088D01*
X725066Y324016D01*
X725132Y323942D01*
X725196Y323864D01*
X725256Y323785D01*
X725313Y323703D01*
X725367Y323619D01*
X725417Y323533D01*
X725464Y323445D01*
X725508Y323355D01*
X725548Y323264D01*
X725584Y323171D01*
X725617Y323077D01*
X725646Y322981D01*
X725671Y322885D01*
X725692Y322788D01*
X725710Y322689D01*
X725723Y322591D01*
X725733Y322491D01*
X725739Y322392D01*
X725741Y322292D01*
X725739Y322192D01*
X725733Y322093D01*
X725723Y321993D01*
X725710Y321895D01*
X725692Y321796D01*
X725671Y321699D01*
X725646Y321603D01*
X725617Y321507D01*
X725584Y321413D01*
X725548Y321320D01*
X725508Y321229D01*
X725464Y321139D01*
X725417Y321051D01*
X725367Y320965D01*
X725313Y320881D01*
X725256Y320799D01*
X725196Y320720D01*
X725132Y320642D01*
X725066Y320568D01*
X724997Y320496D01*
X724925Y320427D01*
X724851Y320361D01*
X724773Y320297D01*
X724694Y320237D01*
X724612Y320180D01*
X724528Y320126D01*
X724442Y320076D01*
X724354Y320029D01*
X724264Y319985D01*
X724173Y319945D01*
X724080Y319909D01*
X723986Y319876D01*
X723890Y319847D01*
X723794Y319822D01*
X723697Y319801D01*
X723598Y319783D01*
X723500Y319770D01*
X723400Y319760D01*
X723301Y319754D01*
X723201Y319752D01*
X720661Y319752D01*
X720536Y319754D01*
X720411Y319760D01*
X720286Y319769D01*
X720162Y319783D01*
X720038Y319800D01*
X719914Y319821D01*
X719792Y319846D01*
X719670Y319875D01*
X719549Y319907D01*
X719429Y319943D01*
X719310Y319983D01*
X719193Y320026D01*
X719077Y320073D01*
X718962Y320124D01*
X718850Y320178D01*
X718738Y320236D01*
X718629Y320296D01*
X718522Y320361D01*
X718416Y320428D01*
X718313Y320499D01*
X718212Y320573D01*
X718113Y320650D01*
X718017Y320730D01*
X717923Y320813D01*
X717832Y320898D01*
X717743Y320987D01*
X717658Y321078D01*
X717575Y321172D01*
X717495Y321268D01*
X717418Y321367D01*
X717344Y321468D01*
X717273Y321571D01*
X717206Y321677D01*
X717141Y321784D01*
X717081Y321893D01*
X717023Y322005D01*
X716969Y322117D01*
X716918Y322232D01*
X716871Y322348D01*
X716828Y322465D01*
X716788Y322584D01*
X716752Y322704D01*
X716720Y322825D01*
X716691Y322947D01*
X716666Y323069D01*
X716645Y323193D01*
X716628Y323317D01*
X716614Y323441D01*
X716605Y323566D01*
X716599Y323691D01*
X716597Y323816D01*
D10*
X770900Y760090D02*
X770900Y763900D01*
D20*
X783600Y760090D02*
X783600Y789300D01*
X783600Y760090D02*
X770900Y760090D01*
D10*
X768360Y760090D01*
D20*
X770900Y760090D02*
X758200Y760090D01*
X732800Y760090D02*
X732800Y789300D01*
D10*
X732800Y760090D02*
X758200Y760090D01*
D20*
X783600Y789300D02*
X783600Y818510D01*
X758200Y818510D01*
X732800Y818510D02*
X732800Y789300D01*
D10*
X732800Y818510D02*
X739150Y818510D01*
D20*
X751850Y818510D01*
D10*
X758200Y818510D01*
X777250Y818510D02*
X781060Y818510D01*
D20*
X783600Y818510D02*
X777250Y818510D01*
X777250Y812160D01*
X764550Y812160D01*
X764550Y818510D01*
X751850Y818510D01*
X751850Y812160D01*
X739150Y812160D01*
X739150Y818510D01*
X732800Y818510D01*
X770900Y770250D02*
X770900Y760090D01*
X770900Y770250D02*
X768360Y770250D01*
X748040Y770250D01*
X745500Y770250D01*
X745500Y760090D01*
X770900Y770250D02*
X768360Y775330D01*
X768360Y770250D02*
X768360Y760090D01*
X768360Y775330D02*
X748040Y775330D01*
X745500Y770250D01*
X748040Y770250D02*
X748040Y760090D01*
D22*
X721526Y794522D02*
X718492Y792095D01*
X721526Y794522D02*
X721526Y783600D01*
X718492Y783600D02*
X724560Y783600D01*
X791680Y795285D02*
X791782Y795283D01*
X791884Y795277D01*
X791986Y795268D01*
X792087Y795254D01*
X792188Y795237D01*
X792288Y795217D01*
X792387Y795192D01*
X792485Y795164D01*
X792582Y795132D01*
X792678Y795096D01*
X792772Y795057D01*
X792865Y795015D01*
X792956Y794969D01*
X793046Y794919D01*
X793133Y794866D01*
X793218Y794810D01*
X793302Y794751D01*
X793383Y794689D01*
X793461Y794624D01*
X793538Y794556D01*
X793611Y794485D01*
X793682Y794412D01*
X793750Y794335D01*
X793815Y794257D01*
X793877Y794176D01*
X793936Y794092D01*
X793992Y794007D01*
X794045Y793920D01*
X794095Y793830D01*
X794141Y793739D01*
X794183Y793646D01*
X794222Y793552D01*
X794258Y793456D01*
X794290Y793359D01*
X794318Y793261D01*
X794343Y793162D01*
X794363Y793062D01*
X794380Y792961D01*
X794394Y792860D01*
X794403Y792758D01*
X794409Y792656D01*
X794411Y792554D01*
X791680Y795284D02*
X791564Y795282D01*
X791448Y795276D01*
X791332Y795267D01*
X791217Y795253D01*
X791102Y795236D01*
X790988Y795215D01*
X790875Y795190D01*
X790762Y795162D01*
X790651Y795130D01*
X790540Y795094D01*
X790431Y795054D01*
X790323Y795011D01*
X790217Y794964D01*
X790112Y794914D01*
X790009Y794861D01*
X789908Y794804D01*
X789809Y794743D01*
X789712Y794680D01*
X789617Y794613D01*
X789524Y794543D01*
X789434Y794470D01*
X789346Y794395D01*
X789260Y794316D01*
X789178Y794234D01*
X789098Y794150D01*
X789020Y794064D01*
X788946Y793974D01*
X788875Y793883D01*
X788807Y793789D01*
X788742Y793692D01*
X788680Y793594D01*
X788621Y793494D01*
X788566Y793392D01*
X788514Y793288D01*
X788466Y793182D01*
X788421Y793075D01*
X788380Y792967D01*
X788343Y792857D01*
X793500Y790430D02*
X793573Y790503D01*
X793644Y790578D01*
X793712Y790655D01*
X793778Y790735D01*
X793840Y790817D01*
X793900Y790901D01*
X793957Y790988D01*
X794010Y791076D01*
X794061Y791166D01*
X794108Y791258D01*
X794152Y791351D01*
X794193Y791446D01*
X794230Y791543D01*
X794264Y791640D01*
X794294Y791739D01*
X794321Y791838D01*
X794345Y791939D01*
X794365Y792040D01*
X794381Y792142D01*
X794394Y792245D01*
X794403Y792348D01*
X794408Y792451D01*
X794410Y792554D01*
X793500Y790430D02*
X788342Y784362D01*
X794410Y784362D01*
D18*
X781416Y756041D02*
X781416Y748929D01*
X781414Y748840D01*
X781408Y748752D01*
X781399Y748664D01*
X781385Y748576D01*
X781368Y748489D01*
X781347Y748403D01*
X781322Y748318D01*
X781293Y748234D01*
X781261Y748151D01*
X781226Y748070D01*
X781186Y747991D01*
X781144Y747913D01*
X781098Y747837D01*
X781049Y747763D01*
X780996Y747692D01*
X780941Y747623D01*
X780882Y747556D01*
X780821Y747492D01*
X780757Y747431D01*
X780690Y747372D01*
X780621Y747317D01*
X780550Y747264D01*
X780476Y747215D01*
X780400Y747169D01*
X780322Y747127D01*
X780243Y747087D01*
X780162Y747052D01*
X780079Y747020D01*
X779995Y746991D01*
X779910Y746966D01*
X779824Y746945D01*
X779737Y746928D01*
X779649Y746914D01*
X779561Y746905D01*
X779473Y746899D01*
X779384Y746897D01*
X778368Y746897D01*
X785743Y755025D02*
X785743Y756041D01*
X790823Y756041D01*
X788283Y746897D01*
D24*
X517300Y285500D02*
X517300Y258500D01*
X538300Y258500D01*
X538300Y285500D01*
D18*
X542958Y256954D02*
X554642Y256954D01*
X554642Y262147D01*
X554642Y266860D02*
X554642Y272053D01*
X554642Y266860D02*
X542958Y266860D01*
X542958Y272053D01*
X548151Y270755D02*
X548151Y266860D01*
X542958Y276744D02*
X554642Y276744D01*
X542958Y276744D02*
X542958Y279989D01*
X542960Y280102D01*
X542966Y280215D01*
X542976Y280328D01*
X542990Y280441D01*
X543007Y280553D01*
X543029Y280664D01*
X543054Y280774D01*
X543084Y280884D01*
X543117Y280992D01*
X543154Y281099D01*
X543194Y281205D01*
X543239Y281309D01*
X543287Y281412D01*
X543338Y281513D01*
X543393Y281612D01*
X543451Y281709D01*
X543513Y281804D01*
X543578Y281897D01*
X543646Y281987D01*
X543717Y282075D01*
X543792Y282161D01*
X543869Y282244D01*
X543949Y282324D01*
X544032Y282401D01*
X544118Y282476D01*
X544206Y282547D01*
X544296Y282615D01*
X544389Y282680D01*
X544484Y282742D01*
X544581Y282800D01*
X544680Y282855D01*
X544781Y282906D01*
X544884Y282954D01*
X544988Y282999D01*
X545094Y283039D01*
X545201Y283076D01*
X545309Y283109D01*
X545419Y283139D01*
X545529Y283164D01*
X545640Y283186D01*
X545752Y283203D01*
X545865Y283217D01*
X545978Y283227D01*
X546091Y283233D01*
X546204Y283235D01*
X551396Y283235D01*
X551509Y283233D01*
X551622Y283227D01*
X551735Y283217D01*
X551848Y283203D01*
X551960Y283186D01*
X552071Y283164D01*
X552181Y283139D01*
X552291Y283109D01*
X552399Y283076D01*
X552506Y283039D01*
X552612Y282999D01*
X552716Y282954D01*
X552819Y282906D01*
X552920Y282855D01*
X553019Y282800D01*
X553116Y282742D01*
X553211Y282680D01*
X553304Y282615D01*
X553394Y282547D01*
X553482Y282476D01*
X553568Y282401D01*
X553651Y282324D01*
X553731Y282244D01*
X553808Y282161D01*
X553883Y282075D01*
X553954Y281987D01*
X554022Y281897D01*
X554087Y281804D01*
X554149Y281709D01*
X554207Y281612D01*
X554262Y281513D01*
X554313Y281412D01*
X554361Y281309D01*
X554406Y281205D01*
X554446Y281099D01*
X554483Y280992D01*
X554516Y280884D01*
X554546Y280774D01*
X554571Y280664D01*
X554593Y280553D01*
X554610Y280441D01*
X554624Y280328D01*
X554634Y280215D01*
X554640Y280102D01*
X554642Y279989D01*
X554642Y276744D01*
X548800Y288554D02*
X548570Y288557D01*
X548340Y288565D01*
X548111Y288579D01*
X547882Y288598D01*
X547653Y288623D01*
X547425Y288653D01*
X547198Y288688D01*
X546972Y288729D01*
X546747Y288775D01*
X546523Y288827D01*
X546300Y288884D01*
X546079Y288946D01*
X545859Y289014D01*
X545641Y289087D01*
X545425Y289165D01*
X545211Y289248D01*
X544999Y289336D01*
X544788Y289429D01*
X544581Y289528D01*
X544491Y289561D01*
X544402Y289597D01*
X544314Y289637D01*
X544229Y289681D01*
X544145Y289728D01*
X544063Y289778D01*
X543983Y289832D01*
X543906Y289888D01*
X543830Y289948D01*
X543757Y290011D01*
X543687Y290076D01*
X543619Y290145D01*
X543555Y290216D01*
X543493Y290289D01*
X543434Y290365D01*
X543378Y290443D01*
X543325Y290524D01*
X543276Y290606D01*
X543230Y290690D01*
X543187Y290777D01*
X543148Y290864D01*
X543112Y290954D01*
X543080Y291044D01*
X543052Y291136D01*
X543027Y291229D01*
X543006Y291323D01*
X542989Y291417D01*
X542975Y291512D01*
X542966Y291608D01*
X542960Y291704D01*
X542958Y291800D01*
X542960Y291896D01*
X542966Y291992D01*
X542975Y292088D01*
X542989Y292183D01*
X543006Y292277D01*
X543027Y292371D01*
X543052Y292464D01*
X543080Y292556D01*
X543112Y292646D01*
X543148Y292736D01*
X543187Y292824D01*
X543230Y292910D01*
X543276Y292994D01*
X543325Y293076D01*
X543378Y293157D01*
X543434Y293235D01*
X543493Y293311D01*
X543555Y293384D01*
X543619Y293455D01*
X543687Y293524D01*
X543757Y293589D01*
X543830Y293652D01*
X543906Y293712D01*
X543983Y293768D01*
X544063Y293822D01*
X544145Y293872D01*
X544229Y293919D01*
X544314Y293963D01*
X544402Y294003D01*
X544491Y294039D01*
X544581Y294072D01*
X544788Y294171D01*
X544999Y294264D01*
X545211Y294352D01*
X545425Y294435D01*
X545641Y294513D01*
X545859Y294586D01*
X546079Y294654D01*
X546300Y294716D01*
X546523Y294773D01*
X546747Y294825D01*
X546972Y294871D01*
X547198Y294912D01*
X547425Y294947D01*
X547653Y294977D01*
X547882Y295002D01*
X548111Y295021D01*
X548340Y295035D01*
X548570Y295043D01*
X548800Y295046D01*
X548800Y288554D02*
X549030Y288557D01*
X549260Y288565D01*
X549489Y288579D01*
X549718Y288598D01*
X549947Y288623D01*
X550175Y288653D01*
X550402Y288688D01*
X550628Y288729D01*
X550853Y288775D01*
X551077Y288827D01*
X551300Y288884D01*
X551521Y288946D01*
X551741Y289014D01*
X551959Y289087D01*
X552175Y289165D01*
X552389Y289248D01*
X552601Y289336D01*
X552812Y289429D01*
X553019Y289528D01*
X553109Y289561D01*
X553198Y289597D01*
X553286Y289638D01*
X553371Y289681D01*
X553455Y289728D01*
X553537Y289778D01*
X553617Y289832D01*
X553694Y289888D01*
X553770Y289948D01*
X553843Y290011D01*
X553913Y290076D01*
X553981Y290145D01*
X554045Y290216D01*
X554107Y290289D01*
X554166Y290365D01*
X554222Y290443D01*
X554275Y290524D01*
X554324Y290606D01*
X554370Y290690D01*
X554413Y290777D01*
X554452Y290864D01*
X554488Y290954D01*
X554520Y291044D01*
X554548Y291136D01*
X554573Y291229D01*
X554594Y291323D01*
X554611Y291417D01*
X554625Y291512D01*
X554634Y291608D01*
X554640Y291704D01*
X554642Y291800D01*
X553019Y294072D02*
X552812Y294171D01*
X552601Y294264D01*
X552389Y294352D01*
X552175Y294435D01*
X551959Y294513D01*
X551741Y294586D01*
X551521Y294654D01*
X551300Y294716D01*
X551077Y294773D01*
X550853Y294825D01*
X550628Y294871D01*
X550402Y294912D01*
X550175Y294947D01*
X549947Y294977D01*
X549718Y295002D01*
X549489Y295021D01*
X549260Y295035D01*
X549030Y295043D01*
X548800Y295046D01*
X553019Y294072D02*
X553109Y294039D01*
X553198Y294003D01*
X553286Y293963D01*
X553371Y293919D01*
X553455Y293872D01*
X553537Y293822D01*
X553617Y293768D01*
X553694Y293712D01*
X553770Y293652D01*
X553843Y293589D01*
X553913Y293524D01*
X553981Y293455D01*
X554045Y293384D01*
X554107Y293311D01*
X554166Y293235D01*
X554222Y293157D01*
X554275Y293076D01*
X554324Y292994D01*
X554370Y292910D01*
X554413Y292823D01*
X554452Y292736D01*
X554488Y292646D01*
X554520Y292556D01*
X554548Y292464D01*
X554573Y292371D01*
X554594Y292277D01*
X554611Y292183D01*
X554625Y292088D01*
X554634Y291992D01*
X554640Y291896D01*
X554642Y291800D01*
X552046Y289204D02*
X545554Y294397D01*
D11*
X596854Y305172D02*
X596854Y350828D01*
X647146Y350828D02*
X647146Y305172D01*
D25*
X638256Y340192D03*
X653750Y352892D03*
D10*
X652536Y339843D02*
X649051Y339843D01*
X652536Y339842D02*
X652607Y339844D01*
X652679Y339850D01*
X652749Y339859D01*
X652819Y339872D01*
X652889Y339889D01*
X652957Y339910D01*
X653024Y339934D01*
X653090Y339962D01*
X653154Y339993D01*
X653217Y340028D01*
X653277Y340066D01*
X653336Y340107D01*
X653392Y340151D01*
X653446Y340198D01*
X653497Y340247D01*
X653545Y340300D01*
X653591Y340355D01*
X653633Y340412D01*
X653673Y340472D01*
X653709Y340533D01*
X653742Y340597D01*
X653771Y340662D01*
X653797Y340728D01*
X653820Y340796D01*
X653839Y340865D01*
X653854Y340935D01*
X653865Y341005D01*
X653873Y341076D01*
X653877Y341147D01*
X653877Y341219D01*
X653873Y341290D01*
X653865Y341361D01*
X653854Y341431D01*
X653839Y341501D01*
X653820Y341570D01*
X653797Y341638D01*
X653771Y341704D01*
X653742Y341769D01*
X653709Y341833D01*
X653673Y341894D01*
X653633Y341954D01*
X653591Y342011D01*
X653545Y342066D01*
X653497Y342119D01*
X653446Y342168D01*
X653392Y342215D01*
X653336Y342259D01*
X653277Y342300D01*
X653217Y342338D01*
X653154Y342373D01*
X653090Y342404D01*
X653024Y342432D01*
X652957Y342456D01*
X652889Y342477D01*
X652819Y342494D01*
X652749Y342507D01*
X652679Y342516D01*
X652607Y342522D01*
X652536Y342524D01*
X649051Y342524D01*
X649051Y346986D02*
X649053Y347054D01*
X649059Y347121D01*
X649068Y347188D01*
X649081Y347255D01*
X649098Y347320D01*
X649119Y347385D01*
X649143Y347448D01*
X649171Y347510D01*
X649202Y347570D01*
X649236Y347628D01*
X649274Y347684D01*
X649314Y347739D01*
X649358Y347790D01*
X649405Y347839D01*
X649454Y347886D01*
X649505Y347930D01*
X649560Y347970D01*
X649616Y348008D01*
X649674Y348042D01*
X649734Y348073D01*
X649796Y348101D01*
X649859Y348125D01*
X649924Y348146D01*
X649989Y348163D01*
X650056Y348176D01*
X650123Y348185D01*
X650190Y348191D01*
X650258Y348193D01*
X649051Y346986D02*
X649053Y346908D01*
X649059Y346830D01*
X649069Y346753D01*
X649082Y346676D01*
X649100Y346600D01*
X649121Y346525D01*
X649146Y346451D01*
X649175Y346379D01*
X649207Y346308D01*
X649243Y346239D01*
X649282Y346171D01*
X649325Y346106D01*
X649371Y346043D01*
X649420Y345982D01*
X649472Y345924D01*
X649527Y345869D01*
X649584Y345816D01*
X649644Y345767D01*
X649707Y345720D01*
X649772Y345677D01*
X649838Y345637D01*
X649907Y345600D01*
X649978Y345567D01*
X650050Y345537D01*
X650124Y345511D01*
X651196Y347791D02*
X651147Y347840D01*
X651095Y347887D01*
X651040Y347930D01*
X650983Y347971D01*
X650924Y348009D01*
X650863Y348043D01*
X650800Y348074D01*
X650736Y348102D01*
X650670Y348126D01*
X650604Y348146D01*
X650536Y348163D01*
X650467Y348176D01*
X650398Y348185D01*
X650328Y348191D01*
X650258Y348193D01*
X651196Y347791D02*
X653877Y345512D01*
X653877Y348193D01*
D18*
X529158Y230692D02*
X529158Y219008D01*
X529158Y230692D02*
X532404Y230692D01*
X532517Y230690D01*
X532630Y230684D01*
X532743Y230674D01*
X532856Y230660D01*
X532968Y230643D01*
X533079Y230621D01*
X533189Y230596D01*
X533299Y230566D01*
X533407Y230533D01*
X533514Y230496D01*
X533620Y230456D01*
X533724Y230411D01*
X533827Y230363D01*
X533928Y230312D01*
X534027Y230257D01*
X534124Y230199D01*
X534219Y230137D01*
X534312Y230072D01*
X534402Y230004D01*
X534490Y229933D01*
X534576Y229858D01*
X534659Y229781D01*
X534739Y229701D01*
X534816Y229618D01*
X534891Y229532D01*
X534962Y229444D01*
X535030Y229354D01*
X535095Y229261D01*
X535157Y229166D01*
X535215Y229069D01*
X535270Y228970D01*
X535321Y228869D01*
X535369Y228766D01*
X535414Y228662D01*
X535454Y228556D01*
X535491Y228449D01*
X535524Y228341D01*
X535554Y228231D01*
X535579Y228121D01*
X535601Y228010D01*
X535618Y227898D01*
X535632Y227785D01*
X535642Y227672D01*
X535648Y227559D01*
X535650Y227446D01*
X535648Y227333D01*
X535642Y227220D01*
X535632Y227107D01*
X535618Y226994D01*
X535601Y226882D01*
X535579Y226771D01*
X535554Y226661D01*
X535524Y226551D01*
X535491Y226443D01*
X535454Y226336D01*
X535414Y226230D01*
X535369Y226126D01*
X535321Y226023D01*
X535270Y225922D01*
X535215Y225823D01*
X535157Y225726D01*
X535095Y225631D01*
X535030Y225538D01*
X534962Y225448D01*
X534891Y225360D01*
X534816Y225274D01*
X534739Y225191D01*
X534659Y225111D01*
X534576Y225034D01*
X534490Y224959D01*
X534402Y224888D01*
X534312Y224820D01*
X534219Y224755D01*
X534124Y224693D01*
X534027Y224635D01*
X533928Y224580D01*
X533827Y224529D01*
X533724Y224481D01*
X533620Y224436D01*
X533514Y224396D01*
X533407Y224359D01*
X533299Y224326D01*
X533189Y224296D01*
X533079Y224271D01*
X532968Y224249D01*
X532856Y224232D01*
X532743Y224218D01*
X532630Y224208D01*
X532517Y224202D01*
X532404Y224200D01*
X532404Y224201D02*
X529158Y224201D01*
X533053Y224201D02*
X535649Y219008D01*
X540514Y228096D02*
X543760Y230692D01*
X543760Y219008D01*
X547005Y219008D02*
X540514Y219008D01*
X551944Y219008D02*
X555190Y219008D01*
X555303Y219010D01*
X555416Y219016D01*
X555529Y219026D01*
X555642Y219040D01*
X555754Y219057D01*
X555865Y219079D01*
X555975Y219104D01*
X556085Y219134D01*
X556193Y219167D01*
X556300Y219204D01*
X556406Y219244D01*
X556510Y219289D01*
X556613Y219337D01*
X556714Y219388D01*
X556813Y219443D01*
X556910Y219501D01*
X557005Y219563D01*
X557098Y219628D01*
X557188Y219696D01*
X557276Y219767D01*
X557362Y219842D01*
X557445Y219919D01*
X557525Y219999D01*
X557602Y220082D01*
X557677Y220168D01*
X557748Y220256D01*
X557816Y220346D01*
X557881Y220439D01*
X557943Y220534D01*
X558001Y220631D01*
X558056Y220730D01*
X558107Y220831D01*
X558155Y220934D01*
X558200Y221038D01*
X558240Y221144D01*
X558277Y221251D01*
X558310Y221359D01*
X558340Y221469D01*
X558365Y221579D01*
X558387Y221690D01*
X558404Y221802D01*
X558418Y221915D01*
X558428Y222028D01*
X558434Y222141D01*
X558436Y222254D01*
X558434Y222367D01*
X558428Y222480D01*
X558418Y222593D01*
X558404Y222706D01*
X558387Y222818D01*
X558365Y222929D01*
X558340Y223039D01*
X558310Y223149D01*
X558277Y223257D01*
X558240Y223364D01*
X558200Y223470D01*
X558155Y223574D01*
X558107Y223677D01*
X558056Y223778D01*
X558001Y223877D01*
X557943Y223974D01*
X557881Y224069D01*
X557816Y224162D01*
X557748Y224252D01*
X557677Y224340D01*
X557602Y224426D01*
X557525Y224509D01*
X557445Y224589D01*
X557362Y224666D01*
X557276Y224741D01*
X557188Y224812D01*
X557098Y224880D01*
X557005Y224945D01*
X556910Y225007D01*
X556813Y225065D01*
X556714Y225120D01*
X556613Y225171D01*
X556510Y225219D01*
X556406Y225264D01*
X556300Y225304D01*
X556193Y225341D01*
X556085Y225374D01*
X555975Y225404D01*
X555865Y225429D01*
X555754Y225451D01*
X555642Y225468D01*
X555529Y225482D01*
X555416Y225492D01*
X555303Y225498D01*
X555190Y225500D01*
X555839Y230692D02*
X551944Y230692D01*
X555839Y230692D02*
X555940Y230690D01*
X556040Y230684D01*
X556140Y230674D01*
X556240Y230661D01*
X556339Y230643D01*
X556438Y230622D01*
X556535Y230597D01*
X556632Y230568D01*
X556727Y230535D01*
X556821Y230499D01*
X556913Y230459D01*
X557004Y230416D01*
X557093Y230369D01*
X557180Y230319D01*
X557266Y230265D01*
X557349Y230208D01*
X557429Y230148D01*
X557508Y230085D01*
X557584Y230018D01*
X557657Y229949D01*
X557727Y229877D01*
X557795Y229803D01*
X557860Y229726D01*
X557921Y229646D01*
X557980Y229564D01*
X558035Y229480D01*
X558087Y229394D01*
X558136Y229306D01*
X558181Y229216D01*
X558223Y229124D01*
X558261Y229031D01*
X558295Y228936D01*
X558326Y228841D01*
X558353Y228744D01*
X558376Y228646D01*
X558396Y228547D01*
X558411Y228447D01*
X558423Y228347D01*
X558431Y228247D01*
X558435Y228146D01*
X558435Y228046D01*
X558431Y227945D01*
X558423Y227845D01*
X558411Y227745D01*
X558396Y227645D01*
X558376Y227546D01*
X558353Y227448D01*
X558326Y227351D01*
X558295Y227256D01*
X558261Y227161D01*
X558223Y227068D01*
X558181Y226976D01*
X558136Y226886D01*
X558087Y226798D01*
X558035Y226712D01*
X557980Y226628D01*
X557921Y226546D01*
X557860Y226466D01*
X557795Y226389D01*
X557727Y226315D01*
X557657Y226243D01*
X557584Y226174D01*
X557508Y226107D01*
X557429Y226044D01*
X557349Y225984D01*
X557266Y225927D01*
X557180Y225873D01*
X557093Y225823D01*
X557004Y225776D01*
X556913Y225733D01*
X556821Y225693D01*
X556727Y225657D01*
X556632Y225624D01*
X556535Y225595D01*
X556438Y225570D01*
X556339Y225549D01*
X556240Y225531D01*
X556140Y225518D01*
X556040Y225508D01*
X555940Y225502D01*
X555839Y225500D01*
X555839Y225499D02*
X553243Y225499D01*
D26*
X565500Y176200D03*
X545500Y176200D03*
X525500Y176200D03*
M02*
