G04 EAGLE Gerber RS-274X export*
G75*
%MOMM*%
%FSLAX34Y34*%
%LPD*%
%INSoldermask Top*%
%IPPOS*%
%AMOC8*
5,1,8,0,0,1.08239X$1,22.5*%
G01*
%ADD10R,1.503200X1.703200*%
%ADD11P,1.539592X8X112.500000*%
%ADD12C,1.422400*%
%ADD13C,2.753200*%
%ADD14R,1.727200X1.727200*%
%ADD15C,2.978200*%
%ADD16R,1.703200X1.503200*%
%ADD17R,1.803200X2.203200*%
%ADD18C,3.403200*%
%ADD19R,1.203200X1.703200*%
%ADD20R,1.703200X1.203200*%
%ADD21R,6.203200X6.203200*%
%ADD22C,2.489200*%
%ADD23C,1.727200*%
%ADD24R,0.853200X1.703200*%
%ADD25C,2.082800*%
%ADD26R,2.183200X2.183200*%
%ADD27C,2.183200*%
%ADD28P,1.539592X8X202.500000*%
%ADD29P,1.539592X8X292.500000*%
%ADD30R,1.603200X1.103200*%
%ADD31R,0.508000X1.193800*%
%ADD32C,1.625600*%
%ADD33C,0.959600*%
%ADD34C,1.503200*%

G36*
X274722Y109404D02*
X274722Y109404D01*
X274813Y109403D01*
X275777Y109534D01*
X275825Y109550D01*
X275914Y109569D01*
X276825Y109911D01*
X276868Y109937D01*
X276952Y109976D01*
X277763Y110513D01*
X277799Y110548D01*
X277872Y110604D01*
X278544Y111308D01*
X278572Y111350D01*
X278630Y111421D01*
X279128Y112257D01*
X279129Y112260D01*
X279131Y112262D01*
X279137Y112281D01*
X279146Y112304D01*
X279186Y112386D01*
X279486Y113312D01*
X279493Y113362D01*
X279515Y113451D01*
X279601Y114420D01*
X279597Y114467D01*
X279600Y114542D01*
X279498Y115518D01*
X279484Y115566D01*
X279468Y115656D01*
X279152Y116585D01*
X279128Y116629D01*
X279091Y116714D01*
X278577Y117549D01*
X278543Y117586D01*
X278489Y117661D01*
X277801Y118361D01*
X277760Y118390D01*
X277691Y118450D01*
X276864Y118979D01*
X276818Y118998D01*
X276737Y119042D01*
X275814Y119374D01*
X275764Y119382D01*
X275675Y119407D01*
X274701Y119525D01*
X274651Y119522D01*
X274565Y119526D01*
X273563Y119431D01*
X273514Y119417D01*
X273424Y119401D01*
X272468Y119085D01*
X272423Y119061D01*
X272339Y119026D01*
X271478Y118504D01*
X271440Y118471D01*
X271365Y118418D01*
X270641Y117718D01*
X270612Y117677D01*
X270551Y117608D01*
X270001Y116765D01*
X269981Y116719D01*
X269937Y116638D01*
X269589Y115694D01*
X269580Y115644D01*
X269555Y115556D01*
X269425Y114558D01*
X269427Y114515D01*
X269426Y114389D01*
X269565Y113378D01*
X269581Y113330D01*
X269600Y113240D01*
X269962Y112285D01*
X269988Y112242D01*
X270027Y112158D01*
X270591Y111308D01*
X270626Y111271D01*
X270683Y111199D01*
X271423Y110495D01*
X271465Y110467D01*
X271536Y110409D01*
X272414Y109888D01*
X272461Y109870D01*
X272543Y109829D01*
X273515Y109516D01*
X273565Y109509D01*
X273654Y109488D01*
X274672Y109399D01*
X274722Y109404D01*
G37*
G36*
X274798Y33128D02*
X274798Y33128D01*
X274889Y33127D01*
X275853Y33258D01*
X275901Y33274D01*
X275990Y33293D01*
X276901Y33635D01*
X276944Y33661D01*
X277028Y33700D01*
X277839Y34237D01*
X277875Y34272D01*
X277948Y34328D01*
X278620Y35032D01*
X278648Y35074D01*
X278706Y35145D01*
X279204Y35981D01*
X279205Y35984D01*
X279207Y35986D01*
X279213Y36005D01*
X279222Y36028D01*
X279262Y36110D01*
X279562Y37036D01*
X279569Y37086D01*
X279591Y37175D01*
X279677Y38144D01*
X279673Y38191D01*
X279676Y38266D01*
X279574Y39242D01*
X279560Y39290D01*
X279544Y39380D01*
X279228Y40309D01*
X279204Y40353D01*
X279167Y40438D01*
X278653Y41273D01*
X278619Y41310D01*
X278565Y41385D01*
X277877Y42085D01*
X277836Y42114D01*
X277767Y42174D01*
X276940Y42703D01*
X276894Y42722D01*
X276813Y42766D01*
X275890Y43098D01*
X275840Y43106D01*
X275751Y43131D01*
X274777Y43249D01*
X274727Y43246D01*
X274641Y43250D01*
X273639Y43155D01*
X273590Y43141D01*
X273500Y43125D01*
X272544Y42809D01*
X272499Y42785D01*
X272415Y42750D01*
X271554Y42228D01*
X271516Y42195D01*
X271441Y42142D01*
X270717Y41442D01*
X270688Y41401D01*
X270627Y41332D01*
X270077Y40489D01*
X270057Y40443D01*
X270013Y40362D01*
X269665Y39418D01*
X269656Y39368D01*
X269631Y39280D01*
X269501Y38282D01*
X269503Y38239D01*
X269502Y38113D01*
X269641Y37102D01*
X269657Y37054D01*
X269676Y36964D01*
X270038Y36009D01*
X270064Y35966D01*
X270103Y35882D01*
X270667Y35032D01*
X270702Y34995D01*
X270759Y34923D01*
X271499Y34219D01*
X271541Y34191D01*
X271612Y34133D01*
X272490Y33612D01*
X272537Y33594D01*
X272619Y33553D01*
X273591Y33240D01*
X273641Y33233D01*
X273730Y33212D01*
X274748Y33123D01*
X274798Y33128D01*
G37*
G36*
X440561Y65903D02*
X440561Y65903D01*
X440687Y65902D01*
X441698Y66041D01*
X441746Y66057D01*
X441836Y66076D01*
X442791Y66438D01*
X442834Y66464D01*
X442918Y66503D01*
X443768Y67067D01*
X443805Y67102D01*
X443877Y67159D01*
X444581Y67899D01*
X444609Y67941D01*
X444667Y68012D01*
X445188Y68890D01*
X445206Y68937D01*
X445247Y69019D01*
X445560Y69991D01*
X445567Y70041D01*
X445588Y70130D01*
X445677Y71148D01*
X445672Y71198D01*
X445673Y71289D01*
X445542Y72253D01*
X445526Y72301D01*
X445507Y72390D01*
X445165Y73301D01*
X445139Y73344D01*
X445100Y73428D01*
X444563Y74239D01*
X444528Y74275D01*
X444472Y74348D01*
X443768Y75020D01*
X443726Y75048D01*
X443655Y75106D01*
X442820Y75604D01*
X442772Y75622D01*
X442690Y75662D01*
X441765Y75962D01*
X441714Y75969D01*
X441625Y75991D01*
X440656Y76077D01*
X440609Y76073D01*
X440534Y76076D01*
X439558Y75974D01*
X439510Y75960D01*
X439420Y75944D01*
X438491Y75628D01*
X438447Y75604D01*
X438362Y75567D01*
X437527Y75053D01*
X437490Y75019D01*
X437415Y74965D01*
X436716Y74277D01*
X436686Y74236D01*
X436626Y74167D01*
X436097Y73340D01*
X436078Y73294D01*
X436034Y73213D01*
X435702Y72290D01*
X435694Y72240D01*
X435669Y72151D01*
X435551Y71177D01*
X435554Y71127D01*
X435550Y71041D01*
X435645Y70039D01*
X435659Y69990D01*
X435675Y69900D01*
X435991Y68944D01*
X436015Y68899D01*
X436051Y68815D01*
X436572Y67954D01*
X436605Y67916D01*
X436658Y67841D01*
X437358Y67117D01*
X437399Y67088D01*
X437468Y67027D01*
X438311Y66477D01*
X438357Y66457D01*
X438438Y66413D01*
X439382Y66065D01*
X439432Y66056D01*
X439520Y66031D01*
X440518Y65901D01*
X440561Y65903D01*
G37*
G36*
X364285Y65827D02*
X364285Y65827D01*
X364411Y65826D01*
X365422Y65965D01*
X365470Y65981D01*
X365560Y66000D01*
X366515Y66362D01*
X366558Y66388D01*
X366642Y66427D01*
X367492Y66991D01*
X367529Y67026D01*
X367601Y67083D01*
X368305Y67823D01*
X368333Y67865D01*
X368391Y67936D01*
X368912Y68814D01*
X368930Y68861D01*
X368971Y68943D01*
X369284Y69915D01*
X369291Y69965D01*
X369312Y70054D01*
X369401Y71072D01*
X369396Y71122D01*
X369397Y71213D01*
X369266Y72177D01*
X369250Y72225D01*
X369231Y72314D01*
X368889Y73225D01*
X368863Y73268D01*
X368824Y73352D01*
X368287Y74163D01*
X368252Y74199D01*
X368196Y74272D01*
X367492Y74944D01*
X367450Y74972D01*
X367379Y75030D01*
X366544Y75528D01*
X366496Y75546D01*
X366414Y75586D01*
X365489Y75886D01*
X365438Y75893D01*
X365349Y75915D01*
X364380Y76001D01*
X364333Y75997D01*
X364258Y76000D01*
X363282Y75898D01*
X363234Y75884D01*
X363144Y75868D01*
X362215Y75552D01*
X362171Y75528D01*
X362086Y75491D01*
X361251Y74977D01*
X361214Y74943D01*
X361139Y74889D01*
X360440Y74201D01*
X360410Y74160D01*
X360350Y74091D01*
X359821Y73264D01*
X359802Y73218D01*
X359758Y73137D01*
X359426Y72214D01*
X359418Y72164D01*
X359393Y72075D01*
X359275Y71101D01*
X359278Y71051D01*
X359274Y70965D01*
X359369Y69963D01*
X359383Y69914D01*
X359399Y69824D01*
X359715Y68868D01*
X359739Y68823D01*
X359775Y68739D01*
X360296Y67878D01*
X360329Y67840D01*
X360382Y67765D01*
X361082Y67041D01*
X361123Y67012D01*
X361192Y66951D01*
X362035Y66401D01*
X362081Y66381D01*
X362162Y66337D01*
X363106Y65989D01*
X363156Y65980D01*
X363244Y65955D01*
X364242Y65825D01*
X364285Y65827D01*
G37*
G36*
X233861Y109445D02*
X233861Y109445D01*
X233910Y109459D01*
X234000Y109475D01*
X234956Y109791D01*
X235001Y109815D01*
X235085Y109851D01*
X235946Y110372D01*
X235984Y110405D01*
X236059Y110458D01*
X236783Y111158D01*
X236812Y111199D01*
X236873Y111268D01*
X237423Y112111D01*
X237443Y112157D01*
X237487Y112238D01*
X237835Y113182D01*
X237844Y113232D01*
X237869Y113320D01*
X237999Y114318D01*
X237997Y114361D01*
X237998Y114487D01*
X237859Y115498D01*
X237843Y115546D01*
X237824Y115636D01*
X237462Y116591D01*
X237436Y116634D01*
X237398Y116718D01*
X236833Y117568D01*
X236798Y117605D01*
X236741Y117677D01*
X236002Y118381D01*
X235959Y118409D01*
X235888Y118467D01*
X235010Y118988D01*
X234963Y119006D01*
X234881Y119047D01*
X233909Y119360D01*
X233859Y119367D01*
X233770Y119388D01*
X232752Y119477D01*
X232702Y119472D01*
X232611Y119473D01*
X231647Y119342D01*
X231599Y119326D01*
X231510Y119307D01*
X230599Y118965D01*
X230556Y118939D01*
X230473Y118900D01*
X229661Y118363D01*
X229625Y118328D01*
X229552Y118272D01*
X228880Y117568D01*
X228853Y117526D01*
X228794Y117455D01*
X228296Y116620D01*
X228278Y116572D01*
X228238Y116490D01*
X227938Y115565D01*
X227931Y115514D01*
X227909Y115425D01*
X227823Y114456D01*
X227827Y114409D01*
X227824Y114334D01*
X227926Y113358D01*
X227940Y113310D01*
X227956Y113220D01*
X228272Y112291D01*
X228297Y112247D01*
X228333Y112162D01*
X228847Y111327D01*
X228881Y111290D01*
X228935Y111215D01*
X229623Y110516D01*
X229664Y110486D01*
X229733Y110426D01*
X230560Y109897D01*
X230606Y109878D01*
X230687Y109834D01*
X231610Y109502D01*
X231660Y109494D01*
X231749Y109469D01*
X232723Y109351D01*
X232773Y109354D01*
X232859Y109350D01*
X233861Y109445D01*
G37*
G36*
X440667Y100803D02*
X440667Y100803D01*
X440742Y100800D01*
X441718Y100902D01*
X441766Y100916D01*
X441856Y100932D01*
X442785Y101248D01*
X442829Y101273D01*
X442914Y101309D01*
X443749Y101823D01*
X443786Y101857D01*
X443861Y101911D01*
X444561Y102599D01*
X444590Y102640D01*
X444650Y102709D01*
X445179Y103536D01*
X445198Y103582D01*
X445242Y103663D01*
X445574Y104586D01*
X445582Y104636D01*
X445607Y104725D01*
X445725Y105699D01*
X445722Y105749D01*
X445726Y105835D01*
X445631Y106837D01*
X445617Y106886D01*
X445601Y106976D01*
X445285Y107932D01*
X445261Y107977D01*
X445226Y108061D01*
X444704Y108922D01*
X444671Y108960D01*
X444618Y109035D01*
X443918Y109759D01*
X443877Y109788D01*
X443808Y109849D01*
X442965Y110399D01*
X442919Y110419D01*
X442838Y110463D01*
X441894Y110811D01*
X441844Y110820D01*
X441756Y110845D01*
X440758Y110975D01*
X440715Y110973D01*
X440589Y110974D01*
X439578Y110835D01*
X439530Y110819D01*
X439440Y110800D01*
X438485Y110438D01*
X438442Y110412D01*
X438358Y110374D01*
X437508Y109809D01*
X437471Y109774D01*
X437399Y109717D01*
X436695Y108978D01*
X436667Y108935D01*
X436609Y108864D01*
X436088Y107986D01*
X436070Y107939D01*
X436029Y107857D01*
X435716Y106885D01*
X435709Y106835D01*
X435688Y106746D01*
X435599Y105728D01*
X435604Y105678D01*
X435603Y105587D01*
X435734Y104623D01*
X435750Y104575D01*
X435769Y104486D01*
X436111Y103575D01*
X436137Y103532D01*
X436176Y103449D01*
X436713Y102637D01*
X436748Y102601D01*
X436804Y102528D01*
X437508Y101856D01*
X437550Y101829D01*
X437621Y101770D01*
X438457Y101272D01*
X438504Y101254D01*
X438586Y101214D01*
X439512Y100914D01*
X439562Y100907D01*
X439651Y100885D01*
X440620Y100799D01*
X440667Y100803D01*
G37*
G36*
X364391Y100727D02*
X364391Y100727D01*
X364466Y100724D01*
X365442Y100826D01*
X365490Y100840D01*
X365580Y100856D01*
X366509Y101172D01*
X366553Y101197D01*
X366638Y101233D01*
X367473Y101747D01*
X367510Y101781D01*
X367585Y101835D01*
X368285Y102523D01*
X368314Y102564D01*
X368374Y102633D01*
X368903Y103460D01*
X368922Y103506D01*
X368966Y103587D01*
X369298Y104510D01*
X369306Y104560D01*
X369331Y104649D01*
X369449Y105623D01*
X369446Y105673D01*
X369450Y105759D01*
X369355Y106761D01*
X369341Y106810D01*
X369325Y106900D01*
X369009Y107856D01*
X368985Y107901D01*
X368950Y107985D01*
X368428Y108846D01*
X368395Y108884D01*
X368342Y108959D01*
X367642Y109683D01*
X367601Y109712D01*
X367532Y109773D01*
X366689Y110323D01*
X366643Y110343D01*
X366562Y110387D01*
X365618Y110735D01*
X365568Y110744D01*
X365480Y110769D01*
X364482Y110899D01*
X364439Y110897D01*
X364313Y110898D01*
X363302Y110759D01*
X363254Y110743D01*
X363164Y110724D01*
X362209Y110362D01*
X362166Y110336D01*
X362082Y110298D01*
X361232Y109733D01*
X361195Y109698D01*
X361123Y109641D01*
X360419Y108902D01*
X360391Y108859D01*
X360333Y108788D01*
X359812Y107910D01*
X359794Y107863D01*
X359753Y107781D01*
X359440Y106809D01*
X359433Y106759D01*
X359412Y106670D01*
X359323Y105652D01*
X359328Y105602D01*
X359327Y105511D01*
X359458Y104547D01*
X359474Y104499D01*
X359493Y104410D01*
X359835Y103499D01*
X359861Y103456D01*
X359900Y103373D01*
X360437Y102561D01*
X360472Y102525D01*
X360528Y102452D01*
X361232Y101780D01*
X361274Y101753D01*
X361345Y101694D01*
X362181Y101196D01*
X362228Y101178D01*
X362310Y101138D01*
X363236Y100838D01*
X363286Y100831D01*
X363375Y100809D01*
X364344Y100723D01*
X364391Y100727D01*
G37*
G36*
X233937Y33169D02*
X233937Y33169D01*
X233986Y33183D01*
X234076Y33199D01*
X235032Y33515D01*
X235077Y33539D01*
X235161Y33575D01*
X236022Y34096D01*
X236060Y34129D01*
X236135Y34182D01*
X236859Y34882D01*
X236888Y34923D01*
X236949Y34992D01*
X237499Y35835D01*
X237519Y35881D01*
X237563Y35962D01*
X237911Y36906D01*
X237920Y36956D01*
X237945Y37044D01*
X238075Y38042D01*
X238073Y38085D01*
X238074Y38211D01*
X237935Y39222D01*
X237919Y39270D01*
X237900Y39360D01*
X237538Y40315D01*
X237512Y40358D01*
X237474Y40442D01*
X236909Y41292D01*
X236874Y41329D01*
X236817Y41401D01*
X236078Y42105D01*
X236035Y42133D01*
X235964Y42191D01*
X235086Y42712D01*
X235039Y42730D01*
X234957Y42771D01*
X233985Y43084D01*
X233935Y43091D01*
X233846Y43112D01*
X232828Y43201D01*
X232778Y43196D01*
X232687Y43197D01*
X231723Y43066D01*
X231675Y43050D01*
X231586Y43031D01*
X230675Y42689D01*
X230632Y42663D01*
X230549Y42624D01*
X229737Y42087D01*
X229701Y42052D01*
X229628Y41996D01*
X228956Y41292D01*
X228929Y41250D01*
X228870Y41179D01*
X228372Y40344D01*
X228354Y40296D01*
X228314Y40214D01*
X228014Y39289D01*
X228007Y39238D01*
X227985Y39149D01*
X227899Y38180D01*
X227903Y38133D01*
X227900Y38058D01*
X228002Y37082D01*
X228016Y37034D01*
X228032Y36944D01*
X228348Y36015D01*
X228373Y35971D01*
X228409Y35886D01*
X228923Y35051D01*
X228957Y35014D01*
X229011Y34939D01*
X229699Y34240D01*
X229740Y34210D01*
X229809Y34150D01*
X230636Y33621D01*
X230682Y33602D01*
X230763Y33558D01*
X231686Y33226D01*
X231736Y33218D01*
X231825Y33193D01*
X232799Y33075D01*
X232849Y33078D01*
X232935Y33074D01*
X233937Y33169D01*
G37*
D10*
X697900Y655200D03*
X716900Y655200D03*
X697900Y625100D03*
X716900Y625100D03*
D11*
X321300Y56090D03*
D12*
X321300Y38310D03*
D13*
X78350Y695622D02*
X52850Y695622D01*
X52850Y470578D02*
X78350Y470578D01*
D14*
X164400Y643100D03*
X164400Y593100D03*
X458400Y695100D03*
X458400Y541100D03*
D15*
X108800Y751500D03*
X108800Y801500D03*
X38700Y801500D03*
X38700Y751500D03*
X39000Y89200D03*
X39000Y39200D03*
X109100Y39200D03*
X109100Y89200D03*
D10*
X660000Y679900D03*
X679000Y679900D03*
X605000Y679900D03*
X624000Y679900D03*
D16*
X527900Y324100D03*
X527900Y343100D03*
D17*
X660000Y708000D03*
X660000Y762000D03*
X605000Y708000D03*
X605000Y762000D03*
D18*
X787600Y237400D03*
X177700Y812200D03*
X177700Y27600D03*
D19*
X672500Y592500D03*
X659800Y592500D03*
X647100Y592500D03*
X634400Y592500D03*
X621700Y592500D03*
X609000Y592500D03*
X596300Y592500D03*
X583600Y592500D03*
D20*
X528100Y442700D03*
D19*
X545500Y407500D03*
X558200Y407500D03*
X570900Y407500D03*
X583600Y407500D03*
X596300Y407500D03*
X609000Y407500D03*
X621700Y407500D03*
D20*
X528100Y531600D03*
D19*
X570900Y592500D03*
X558200Y592500D03*
X545500Y592500D03*
D20*
X528100Y557000D03*
X528100Y544300D03*
D19*
X685200Y592500D03*
X697900Y592500D03*
X710600Y592500D03*
D20*
X528100Y518900D03*
X528100Y506200D03*
X528100Y493500D03*
X528100Y455400D03*
X528100Y468100D03*
X528100Y480800D03*
D19*
X634400Y407500D03*
X647100Y407500D03*
X659800Y407500D03*
X672500Y407500D03*
X685200Y407500D03*
X697900Y407500D03*
X710600Y407500D03*
D21*
X633600Y497000D03*
D13*
X78150Y144078D02*
X52650Y144078D01*
X52650Y369122D02*
X78150Y369122D01*
D22*
X166680Y421560D03*
X166680Y354250D03*
X166680Y286950D03*
X166680Y219640D03*
X476690Y421560D03*
X476690Y354250D03*
X476690Y286950D03*
X476690Y219640D03*
D10*
X628100Y183300D03*
X609100Y183300D03*
D16*
X658300Y64200D03*
X658300Y45200D03*
D10*
X612400Y64200D03*
X631400Y64200D03*
X631400Y90200D03*
X612400Y90200D03*
D23*
X605900Y129080D02*
X605900Y144320D01*
X631300Y144320D02*
X631300Y129080D01*
D24*
X596350Y217700D03*
X609050Y217700D03*
X621750Y217700D03*
X634450Y217700D03*
X634450Y271700D03*
X621750Y271700D03*
X609050Y271700D03*
X596350Y271700D03*
D25*
X509200Y667000D03*
X509200Y743200D03*
X543500Y666900D03*
X543500Y743100D03*
D10*
X713900Y183300D03*
X694900Y183300D03*
D16*
X743300Y64100D03*
X743300Y45100D03*
D10*
X698200Y64100D03*
X717200Y64100D03*
X717200Y90100D03*
X698200Y90100D03*
D23*
X691700Y129080D02*
X691700Y144320D01*
X717100Y144320D02*
X717100Y129080D01*
D26*
X402100Y756800D03*
D27*
X375100Y756800D03*
X348100Y756800D03*
D28*
X283010Y756800D03*
D12*
X300790Y756800D03*
D29*
X452400Y767210D03*
D12*
X452400Y784990D03*
D23*
X751380Y324300D02*
X766620Y324300D01*
X766620Y349700D02*
X751380Y349700D01*
X770900Y781680D02*
X770900Y796920D01*
X745500Y796920D02*
X745500Y781680D01*
D30*
X527800Y266500D03*
X527800Y285500D03*
D31*
X641500Y357178D03*
X635000Y357178D03*
X628500Y357178D03*
X622000Y357178D03*
X615500Y357178D03*
X609000Y357178D03*
X602500Y357178D03*
X602500Y298822D03*
X609000Y298822D03*
X615500Y298822D03*
X622000Y298822D03*
X628500Y298822D03*
X635000Y298822D03*
X641500Y298822D03*
D10*
X525500Y205800D03*
X544500Y205800D03*
D32*
X565500Y176200D03*
X545500Y176200D03*
X525500Y176200D03*
D33*
X621950Y328050D03*
D34*
X675400Y383400D03*
X656600Y383500D03*
X545500Y386500D03*
X643000Y656000D03*
X633000Y637000D03*
D33*
X570900Y365200D03*
X570900Y217700D03*
D34*
X675500Y90100D03*
M02*
