G04 EAGLE Gerber RS-274X export*
G75*
%MOMM*%
%FSLAX34Y34*%
%LPD*%
%INTop Copper*%
%IPPOS*%
%AMOC8*
5,1,8,0,0,1.08239X$1,22.5*%
G01*
%ADD10R,0.650000X1.800000*%
%ADD11R,1.300000X1.600000*%
%ADD12C,5.200000*%
%ADD13C,6.346000*%
%ADD14R,1.980000X1.980000*%
%ADD15C,1.980000*%
%ADD16P,1.429621X8X112.500000*%
%ADD17P,1.429621X8X292.500000*%
%ADD18R,1.500000X1.300000*%
%ADD19C,2.286000*%
%ADD20R,0.650000X1.500000*%
%ADD21R,1.000000X1.500000*%
%ADD22R,1.500000X1.000000*%
%ADD23R,6.000000X6.000000*%
%ADD24R,1.300000X1.500000*%
%ADD25R,2.000000X1.600000*%
%ADD26C,1.422400*%
%ADD27R,0.304800X0.990600*%
%ADD28R,1.308000X1.308000*%
%ADD29C,0.812800*%
%ADD30C,0.304800*%
%ADD31C,0.406400*%
%ADD32C,0.609600*%
%ADD33C,0.756400*%
%ADD34C,1.016000*%
%ADD35C,0.152400*%
%ADD36C,0.906400*%

G36*
X715027Y207971D02*
X715027Y207971D01*
X715053Y207969D01*
X715227Y207991D01*
X715401Y208009D01*
X715426Y208017D01*
X715453Y208020D01*
X715618Y208076D01*
X715786Y208127D01*
X715809Y208140D01*
X715834Y208148D01*
X715986Y208235D01*
X716140Y208319D01*
X716160Y208336D01*
X716183Y208349D01*
X716436Y208564D01*
X726436Y218564D01*
X726453Y218584D01*
X726474Y218602D01*
X726581Y218740D01*
X726691Y218875D01*
X726704Y218899D01*
X726720Y218920D01*
X726798Y219077D01*
X726880Y219231D01*
X726888Y219256D01*
X726900Y219281D01*
X726945Y219450D01*
X726995Y219617D01*
X726997Y219643D01*
X727004Y219669D01*
X727031Y220000D01*
X727031Y805000D01*
X727029Y805027D01*
X727031Y805053D01*
X727009Y805227D01*
X726991Y805401D01*
X726984Y805426D01*
X726980Y805453D01*
X726924Y805619D01*
X726873Y805786D01*
X726860Y805809D01*
X726852Y805834D01*
X726765Y805986D01*
X726681Y806140D01*
X726664Y806160D01*
X726651Y806183D01*
X726436Y806436D01*
X713415Y819458D01*
X713394Y819475D01*
X713376Y819496D01*
X713238Y819603D01*
X713103Y819713D01*
X713079Y819726D01*
X713058Y819742D01*
X712901Y819820D01*
X712747Y819902D01*
X712722Y819909D01*
X712697Y819921D01*
X712528Y819967D01*
X712362Y820016D01*
X712335Y820019D01*
X712308Y820026D01*
X711978Y820053D01*
X232877Y819909D01*
X232851Y819907D01*
X232825Y819908D01*
X232650Y819886D01*
X232477Y819869D01*
X232451Y819861D01*
X232425Y819858D01*
X232259Y819802D01*
X232092Y819751D01*
X232069Y819738D01*
X232043Y819730D01*
X231891Y819642D01*
X231738Y819559D01*
X231718Y819542D01*
X231695Y819529D01*
X231442Y819314D01*
X218564Y806436D01*
X218547Y806416D01*
X218527Y806398D01*
X218419Y806260D01*
X218309Y806125D01*
X218296Y806101D01*
X218280Y806080D01*
X218202Y805923D01*
X218120Y805769D01*
X218112Y805744D01*
X218100Y805720D01*
X218055Y805550D01*
X218005Y805383D01*
X218003Y805357D01*
X217996Y805331D01*
X217969Y805000D01*
X217969Y645841D01*
X194159Y622031D01*
X12192Y622031D01*
X12174Y622029D01*
X12156Y622031D01*
X11974Y622010D01*
X11791Y621991D01*
X11774Y621986D01*
X11757Y621984D01*
X11582Y621927D01*
X11406Y621873D01*
X11391Y621865D01*
X11374Y621859D01*
X11214Y621769D01*
X11052Y621681D01*
X11039Y621670D01*
X11023Y621661D01*
X10884Y621541D01*
X10743Y621424D01*
X10732Y621410D01*
X10718Y621398D01*
X10606Y621253D01*
X10491Y621110D01*
X10483Y621094D01*
X10472Y621080D01*
X10390Y620915D01*
X10305Y620753D01*
X10300Y620736D01*
X10292Y620720D01*
X10245Y620541D01*
X10194Y620366D01*
X10192Y620348D01*
X10188Y620331D01*
X10161Y620000D01*
X10161Y210000D01*
X10163Y209982D01*
X10161Y209964D01*
X10182Y209782D01*
X10201Y209599D01*
X10206Y209582D01*
X10208Y209565D01*
X10265Y209390D01*
X10319Y209214D01*
X10327Y209199D01*
X10333Y209182D01*
X10423Y209022D01*
X10511Y208860D01*
X10522Y208847D01*
X10531Y208831D01*
X10651Y208692D01*
X10768Y208551D01*
X10782Y208540D01*
X10794Y208527D01*
X10939Y208414D01*
X11082Y208299D01*
X11098Y208291D01*
X11112Y208280D01*
X11277Y208198D01*
X11439Y208113D01*
X11456Y208108D01*
X11472Y208100D01*
X11651Y208053D01*
X11826Y208002D01*
X11844Y208000D01*
X11861Y207996D01*
X12192Y207969D01*
X715000Y207969D01*
X715027Y207971D01*
G37*
G36*
X987826Y207971D02*
X987826Y207971D01*
X987844Y207969D01*
X988026Y207990D01*
X988209Y208009D01*
X988226Y208014D01*
X988243Y208016D01*
X988418Y208073D01*
X988594Y208127D01*
X988609Y208135D01*
X988626Y208141D01*
X988786Y208231D01*
X988948Y208319D01*
X988961Y208330D01*
X988977Y208339D01*
X989116Y208459D01*
X989257Y208576D01*
X989268Y208590D01*
X989282Y208602D01*
X989394Y208747D01*
X989509Y208890D01*
X989517Y208906D01*
X989528Y208920D01*
X989610Y209085D01*
X989695Y209247D01*
X989700Y209264D01*
X989708Y209281D01*
X989755Y209459D01*
X989806Y209634D01*
X989808Y209652D01*
X989812Y209669D01*
X989839Y210000D01*
X989839Y304207D01*
X989839Y304211D01*
X989839Y304216D01*
X989819Y304410D01*
X989799Y304607D01*
X989798Y304612D01*
X989798Y304616D01*
X989739Y304804D01*
X989681Y304992D01*
X989679Y304996D01*
X989678Y305000D01*
X989582Y305175D01*
X989489Y305346D01*
X989487Y305350D01*
X989484Y305354D01*
X989358Y305504D01*
X989232Y305655D01*
X989228Y305658D01*
X989225Y305662D01*
X989069Y305787D01*
X988918Y305908D01*
X988914Y305910D01*
X988911Y305913D01*
X988730Y306005D01*
X988561Y306093D01*
X988556Y306094D01*
X988552Y306097D01*
X988362Y306151D01*
X988174Y306205D01*
X988169Y306205D01*
X988165Y306206D01*
X987973Y306221D01*
X987772Y306238D01*
X987768Y306237D01*
X987764Y306237D01*
X987570Y306214D01*
X987373Y306191D01*
X987368Y306189D01*
X987364Y306189D01*
X987179Y306127D01*
X986990Y306066D01*
X986986Y306064D01*
X986982Y306062D01*
X986813Y305966D01*
X986639Y305868D01*
X986636Y305865D01*
X986632Y305863D01*
X986485Y305735D01*
X986335Y305605D01*
X986332Y305601D01*
X986328Y305598D01*
X986208Y305441D01*
X986088Y305287D01*
X986086Y305283D01*
X986083Y305279D01*
X985931Y304984D01*
X984824Y302310D01*
X978750Y296236D01*
X971235Y293123D01*
X970815Y292949D01*
X962225Y292949D01*
X954290Y296236D01*
X948216Y302310D01*
X944929Y310245D01*
X944929Y318835D01*
X948216Y326770D01*
X954290Y332844D01*
X962225Y336131D01*
X970815Y336131D01*
X978750Y332844D01*
X984824Y326770D01*
X985931Y324096D01*
X985933Y324092D01*
X985935Y324088D01*
X986028Y323915D01*
X986122Y323741D01*
X986124Y323738D01*
X986127Y323734D01*
X986251Y323585D01*
X986378Y323431D01*
X986381Y323428D01*
X986384Y323425D01*
X986537Y323302D01*
X986691Y323177D01*
X986695Y323175D01*
X986698Y323172D01*
X986871Y323082D01*
X987047Y322990D01*
X987051Y322989D01*
X987055Y322987D01*
X987243Y322933D01*
X987434Y322877D01*
X987438Y322877D01*
X987442Y322875D01*
X987640Y322859D01*
X987835Y322842D01*
X987839Y322843D01*
X987844Y322842D01*
X988038Y322865D01*
X988235Y322887D01*
X988239Y322889D01*
X988243Y322889D01*
X988429Y322950D01*
X988618Y323011D01*
X988622Y323013D01*
X988626Y323014D01*
X988798Y323111D01*
X988970Y323207D01*
X988973Y323210D01*
X988977Y323212D01*
X989125Y323340D01*
X989275Y323469D01*
X989278Y323472D01*
X989282Y323475D01*
X989402Y323630D01*
X989524Y323786D01*
X989526Y323790D01*
X989528Y323793D01*
X989617Y323971D01*
X989704Y324146D01*
X989706Y324150D01*
X989708Y324154D01*
X989759Y324346D01*
X989811Y324534D01*
X989811Y324538D01*
X989812Y324543D01*
X989839Y324873D01*
X989839Y371517D01*
X989839Y371521D01*
X989839Y371526D01*
X989819Y371720D01*
X989799Y371917D01*
X989798Y371922D01*
X989798Y371926D01*
X989739Y372114D01*
X989681Y372302D01*
X989679Y372306D01*
X989678Y372310D01*
X989582Y372485D01*
X989489Y372656D01*
X989487Y372660D01*
X989484Y372664D01*
X989356Y372816D01*
X989232Y372965D01*
X989228Y372968D01*
X989225Y372972D01*
X989069Y373097D01*
X988918Y373218D01*
X988914Y373220D01*
X988911Y373223D01*
X988730Y373315D01*
X988561Y373403D01*
X988556Y373404D01*
X988552Y373407D01*
X988362Y373461D01*
X988174Y373515D01*
X988169Y373515D01*
X988165Y373516D01*
X987973Y373531D01*
X987772Y373548D01*
X987768Y373547D01*
X987764Y373547D01*
X987570Y373524D01*
X987373Y373501D01*
X987368Y373499D01*
X987364Y373499D01*
X987179Y373437D01*
X986990Y373376D01*
X986986Y373374D01*
X986982Y373372D01*
X986813Y373276D01*
X986639Y373178D01*
X986636Y373175D01*
X986632Y373173D01*
X986485Y373045D01*
X986335Y372915D01*
X986332Y372911D01*
X986328Y372908D01*
X986208Y372751D01*
X986088Y372597D01*
X986086Y372593D01*
X986083Y372589D01*
X985931Y372294D01*
X984824Y369620D01*
X978750Y363546D01*
X975466Y362186D01*
X970815Y360259D01*
X962225Y360259D01*
X954290Y363546D01*
X948216Y369620D01*
X944929Y377555D01*
X944929Y386145D01*
X948216Y394080D01*
X954290Y400154D01*
X956563Y401096D01*
X956564Y401096D01*
X962225Y403441D01*
X970815Y403441D01*
X978750Y400154D01*
X984824Y394080D01*
X985931Y391406D01*
X985933Y391402D01*
X985935Y391398D01*
X986028Y391225D01*
X986122Y391051D01*
X986124Y391048D01*
X986127Y391044D01*
X986251Y390895D01*
X986378Y390741D01*
X986381Y390738D01*
X986384Y390735D01*
X986537Y390612D01*
X986691Y390487D01*
X986695Y390485D01*
X986698Y390482D01*
X986871Y390392D01*
X987047Y390300D01*
X987051Y390299D01*
X987055Y390297D01*
X987243Y390243D01*
X987434Y390187D01*
X987438Y390187D01*
X987442Y390185D01*
X987640Y390169D01*
X987835Y390152D01*
X987839Y390153D01*
X987844Y390152D01*
X988038Y390175D01*
X988235Y390197D01*
X988239Y390199D01*
X988243Y390199D01*
X988429Y390260D01*
X988618Y390321D01*
X988622Y390323D01*
X988626Y390324D01*
X988798Y390421D01*
X988970Y390517D01*
X988973Y390520D01*
X988977Y390522D01*
X989124Y390650D01*
X989275Y390779D01*
X989278Y390782D01*
X989282Y390785D01*
X989401Y390939D01*
X989524Y391096D01*
X989526Y391100D01*
X989528Y391103D01*
X989617Y391281D01*
X989704Y391456D01*
X989706Y391460D01*
X989708Y391464D01*
X989759Y391656D01*
X989811Y391844D01*
X989811Y391848D01*
X989812Y391853D01*
X989839Y392183D01*
X989839Y438817D01*
X989839Y438821D01*
X989839Y438826D01*
X989819Y439019D01*
X989799Y439217D01*
X989798Y439222D01*
X989798Y439226D01*
X989740Y439412D01*
X989681Y439602D01*
X989679Y439606D01*
X989678Y439610D01*
X989584Y439782D01*
X989489Y439956D01*
X989487Y439960D01*
X989484Y439964D01*
X989357Y440115D01*
X989232Y440265D01*
X989228Y440268D01*
X989225Y440272D01*
X989072Y440394D01*
X988918Y440518D01*
X988914Y440520D01*
X988911Y440523D01*
X988736Y440612D01*
X988561Y440703D01*
X988556Y440705D01*
X988552Y440707D01*
X988365Y440760D01*
X988174Y440815D01*
X988169Y440815D01*
X988165Y440816D01*
X987972Y440831D01*
X987772Y440848D01*
X987768Y440847D01*
X987764Y440847D01*
X987570Y440824D01*
X987373Y440801D01*
X987368Y440799D01*
X987364Y440799D01*
X987179Y440737D01*
X986990Y440676D01*
X986986Y440674D01*
X986982Y440672D01*
X986810Y440574D01*
X986639Y440478D01*
X986636Y440475D01*
X986632Y440473D01*
X986481Y440341D01*
X986335Y440215D01*
X986332Y440211D01*
X986328Y440208D01*
X986208Y440052D01*
X986088Y439897D01*
X986086Y439893D01*
X986083Y439889D01*
X985931Y439594D01*
X984824Y436920D01*
X978750Y430846D01*
X970815Y427559D01*
X962225Y427559D01*
X954290Y430846D01*
X948216Y436920D01*
X944929Y444855D01*
X944929Y453445D01*
X948216Y461380D01*
X954290Y467454D01*
X962225Y470741D01*
X970815Y470741D01*
X978750Y467454D01*
X984824Y461380D01*
X985931Y458706D01*
X985933Y458702D01*
X985935Y458698D01*
X986028Y458525D01*
X986122Y458351D01*
X986124Y458348D01*
X986127Y458344D01*
X986251Y458195D01*
X986378Y458041D01*
X986381Y458038D01*
X986384Y458035D01*
X986537Y457912D01*
X986691Y457787D01*
X986695Y457785D01*
X986698Y457782D01*
X986873Y457692D01*
X987047Y457600D01*
X987051Y457599D01*
X987055Y457597D01*
X987245Y457542D01*
X987434Y457487D01*
X987438Y457487D01*
X987442Y457485D01*
X987640Y457469D01*
X987835Y457452D01*
X987839Y457453D01*
X987844Y457452D01*
X988038Y457475D01*
X988235Y457497D01*
X988239Y457499D01*
X988243Y457499D01*
X988429Y457560D01*
X988618Y457621D01*
X988622Y457623D01*
X988626Y457624D01*
X988799Y457722D01*
X988970Y457817D01*
X988973Y457820D01*
X988977Y457822D01*
X989126Y457951D01*
X989275Y458079D01*
X989278Y458082D01*
X989282Y458085D01*
X989402Y458240D01*
X989524Y458396D01*
X989526Y458400D01*
X989528Y458403D01*
X989617Y458581D01*
X989704Y458756D01*
X989706Y458760D01*
X989708Y458764D01*
X989759Y458956D01*
X989811Y459144D01*
X989811Y459148D01*
X989812Y459153D01*
X989839Y459483D01*
X989839Y506127D01*
X989839Y506131D01*
X989839Y506136D01*
X989819Y506329D01*
X989799Y506527D01*
X989798Y506532D01*
X989798Y506536D01*
X989740Y506721D01*
X989681Y506912D01*
X989679Y506916D01*
X989678Y506920D01*
X989584Y507092D01*
X989489Y507266D01*
X989487Y507270D01*
X989484Y507274D01*
X989357Y507425D01*
X989232Y507575D01*
X989228Y507578D01*
X989225Y507582D01*
X989071Y507705D01*
X988918Y507828D01*
X988914Y507830D01*
X988911Y507833D01*
X988736Y507922D01*
X988561Y508013D01*
X988556Y508015D01*
X988552Y508017D01*
X988365Y508070D01*
X988174Y508125D01*
X988169Y508125D01*
X988165Y508126D01*
X987972Y508141D01*
X987772Y508158D01*
X987768Y508157D01*
X987764Y508157D01*
X987570Y508134D01*
X987373Y508111D01*
X987368Y508109D01*
X987364Y508109D01*
X987179Y508047D01*
X986990Y507986D01*
X986986Y507984D01*
X986982Y507982D01*
X986810Y507884D01*
X986639Y507788D01*
X986636Y507785D01*
X986632Y507783D01*
X986481Y507651D01*
X986335Y507525D01*
X986332Y507521D01*
X986328Y507518D01*
X986208Y507362D01*
X986088Y507207D01*
X986086Y507203D01*
X986083Y507199D01*
X985931Y506904D01*
X984824Y504230D01*
X978750Y498156D01*
X970815Y494869D01*
X962225Y494869D01*
X954290Y498156D01*
X948216Y504230D01*
X944929Y512165D01*
X944929Y520755D01*
X948216Y528690D01*
X954290Y534764D01*
X962225Y538051D01*
X970815Y538051D01*
X978750Y534764D01*
X984824Y528690D01*
X985931Y526016D01*
X985933Y526012D01*
X985935Y526008D01*
X986028Y525835D01*
X986122Y525661D01*
X986124Y525658D01*
X986127Y525654D01*
X986251Y525505D01*
X986378Y525351D01*
X986381Y525348D01*
X986384Y525345D01*
X986537Y525222D01*
X986691Y525097D01*
X986695Y525095D01*
X986698Y525092D01*
X986873Y525002D01*
X987047Y524910D01*
X987051Y524909D01*
X987055Y524907D01*
X987245Y524852D01*
X987434Y524797D01*
X987438Y524797D01*
X987442Y524795D01*
X987640Y524779D01*
X987835Y524762D01*
X987839Y524763D01*
X987844Y524762D01*
X988038Y524785D01*
X988235Y524807D01*
X988239Y524809D01*
X988243Y524809D01*
X988429Y524870D01*
X988618Y524931D01*
X988622Y524933D01*
X988626Y524934D01*
X988799Y525032D01*
X988970Y525127D01*
X988973Y525130D01*
X988977Y525132D01*
X989126Y525261D01*
X989275Y525389D01*
X989278Y525392D01*
X989282Y525395D01*
X989402Y525550D01*
X989524Y525706D01*
X989526Y525710D01*
X989528Y525713D01*
X989617Y525891D01*
X989704Y526066D01*
X989706Y526070D01*
X989708Y526074D01*
X989759Y526266D01*
X989811Y526454D01*
X989811Y526458D01*
X989812Y526463D01*
X989839Y526793D01*
X989839Y768474D01*
X989822Y768652D01*
X989808Y768830D01*
X989802Y768852D01*
X989799Y768875D01*
X989747Y769045D01*
X989699Y769217D01*
X989688Y769238D01*
X989681Y769260D01*
X989596Y769417D01*
X989515Y769575D01*
X989501Y769593D01*
X989489Y769614D01*
X989375Y769751D01*
X989264Y769890D01*
X989246Y769905D01*
X989232Y769923D01*
X989093Y770035D01*
X988956Y770150D01*
X988936Y770161D01*
X988918Y770175D01*
X988760Y770257D01*
X988603Y770343D01*
X988581Y770350D01*
X988561Y770361D01*
X988390Y770410D01*
X988219Y770463D01*
X988196Y770466D01*
X988174Y770472D01*
X987996Y770487D01*
X987818Y770505D01*
X987795Y770503D01*
X987772Y770505D01*
X987595Y770484D01*
X987418Y770468D01*
X987395Y770461D01*
X987373Y770458D01*
X987203Y770403D01*
X987032Y770351D01*
X987012Y770341D01*
X986990Y770333D01*
X986834Y770246D01*
X986677Y770161D01*
X986659Y770147D01*
X986639Y770135D01*
X986504Y770019D01*
X986367Y769905D01*
X986352Y769887D01*
X986335Y769872D01*
X986225Y769732D01*
X986113Y769593D01*
X986100Y769570D01*
X986088Y769554D01*
X986052Y769482D01*
X985953Y769302D01*
X985067Y767317D01*
X978673Y759806D01*
X970421Y754401D01*
X960981Y751540D01*
X951116Y751454D01*
X941628Y754151D01*
X933283Y759411D01*
X926758Y766810D01*
X926039Y768349D01*
X924829Y770940D01*
X924671Y771278D01*
X924671Y771279D01*
X923302Y774208D01*
X922583Y775747D01*
X921094Y785499D01*
X922413Y795274D01*
X926433Y804283D01*
X932827Y811794D01*
X939845Y816390D01*
X939858Y816401D01*
X939872Y816409D01*
X940013Y816526D01*
X940158Y816643D01*
X940169Y816656D01*
X940181Y816666D01*
X940297Y816810D01*
X940415Y816953D01*
X940423Y816967D01*
X940433Y816980D01*
X940519Y817144D01*
X940606Y817307D01*
X940611Y817323D01*
X940619Y817338D01*
X940670Y817515D01*
X940724Y817693D01*
X940726Y817709D01*
X940730Y817725D01*
X940745Y817909D01*
X940763Y818093D01*
X940761Y818109D01*
X940763Y818126D01*
X940741Y818310D01*
X940722Y818494D01*
X940718Y818509D01*
X940716Y818526D01*
X940658Y818702D01*
X940604Y818879D01*
X940596Y818893D01*
X940591Y818908D01*
X940500Y819070D01*
X940411Y819232D01*
X940401Y819245D01*
X940393Y819259D01*
X940271Y819399D01*
X940153Y819541D01*
X940140Y819551D01*
X940130Y819564D01*
X939983Y819677D01*
X939839Y819793D01*
X939824Y819800D01*
X939811Y819810D01*
X939645Y819893D01*
X939481Y819978D01*
X939466Y819982D01*
X939451Y819989D01*
X939272Y820038D01*
X939094Y820088D01*
X939078Y820090D01*
X939062Y820094D01*
X938731Y820121D01*
X859645Y820097D01*
X859637Y820096D01*
X859628Y820097D01*
X859435Y820076D01*
X859244Y820057D01*
X859236Y820055D01*
X859228Y820054D01*
X859044Y819996D01*
X858860Y819939D01*
X858852Y819935D01*
X858844Y819932D01*
X858674Y819838D01*
X858506Y819747D01*
X858499Y819742D01*
X858491Y819737D01*
X858344Y819612D01*
X858196Y819489D01*
X858191Y819482D01*
X858184Y819477D01*
X858065Y819326D01*
X857944Y819175D01*
X857940Y819168D01*
X857935Y819161D01*
X857848Y818989D01*
X857759Y818818D01*
X857756Y818810D01*
X857752Y818802D01*
X857701Y818616D01*
X857648Y818431D01*
X857647Y818423D01*
X857644Y818414D01*
X857630Y818221D01*
X857615Y818030D01*
X857616Y818021D01*
X857615Y818013D01*
X857639Y817821D01*
X857662Y817630D01*
X857664Y817622D01*
X857666Y817613D01*
X857727Y817430D01*
X857787Y817247D01*
X857791Y817240D01*
X857794Y817231D01*
X857890Y817065D01*
X857985Y816897D01*
X857990Y816890D01*
X857995Y816883D01*
X858209Y816630D01*
X863336Y811503D01*
X868096Y803257D01*
X870561Y794061D01*
X870561Y784539D01*
X868096Y775343D01*
X863336Y767097D01*
X861052Y764813D01*
X861041Y764799D01*
X861027Y764788D01*
X860913Y764644D01*
X860797Y764502D01*
X860789Y764486D01*
X860778Y764472D01*
X860694Y764308D01*
X860608Y764146D01*
X860603Y764129D01*
X860595Y764113D01*
X860546Y763936D01*
X860494Y763760D01*
X860492Y763742D01*
X860487Y763725D01*
X860474Y763542D01*
X860457Y763359D01*
X860459Y763341D01*
X860458Y763323D01*
X860481Y763141D01*
X860501Y762959D01*
X860506Y762942D01*
X860508Y762924D01*
X860566Y762750D01*
X860622Y762575D01*
X860631Y762559D01*
X860636Y762542D01*
X860728Y762383D01*
X860817Y762223D01*
X860828Y762209D01*
X860837Y762193D01*
X861052Y761940D01*
X867921Y755072D01*
X873436Y745519D01*
X876291Y734865D01*
X876291Y723835D01*
X873436Y713181D01*
X867921Y703628D01*
X861052Y696760D01*
X861041Y696746D01*
X861027Y696734D01*
X860914Y696591D01*
X860797Y696448D01*
X860789Y696432D01*
X860778Y696418D01*
X860694Y696254D01*
X860608Y696092D01*
X860603Y696075D01*
X860595Y696059D01*
X860546Y695882D01*
X860494Y695706D01*
X860492Y695689D01*
X860487Y695671D01*
X860474Y695488D01*
X860457Y695305D01*
X860459Y695288D01*
X860458Y695270D01*
X860481Y695088D01*
X860501Y694905D01*
X860506Y694888D01*
X860508Y694870D01*
X860567Y694697D01*
X860622Y694521D01*
X860631Y694506D01*
X860636Y694489D01*
X860728Y694330D01*
X860817Y694169D01*
X860828Y694155D01*
X860837Y694140D01*
X861052Y693887D01*
X863336Y691603D01*
X868096Y683357D01*
X870561Y674161D01*
X870561Y664639D01*
X868096Y655443D01*
X863336Y647197D01*
X856603Y640464D01*
X848357Y635704D01*
X839161Y633239D01*
X829639Y633239D01*
X820443Y635704D01*
X812197Y640464D01*
X805464Y647197D01*
X800704Y655443D01*
X798239Y664639D01*
X798239Y674161D01*
X800704Y683357D01*
X805464Y691603D01*
X807748Y693887D01*
X807759Y693901D01*
X807773Y693912D01*
X807887Y694056D01*
X808003Y694198D01*
X808011Y694214D01*
X808022Y694228D01*
X808106Y694392D01*
X808192Y694554D01*
X808197Y694571D01*
X808205Y694587D01*
X808254Y694764D01*
X808306Y694940D01*
X808308Y694958D01*
X808313Y694975D01*
X808326Y695158D01*
X808343Y695341D01*
X808341Y695359D01*
X808342Y695377D01*
X808319Y695559D01*
X808299Y695741D01*
X808294Y695758D01*
X808292Y695776D01*
X808234Y695950D01*
X808178Y696125D01*
X808169Y696141D01*
X808164Y696158D01*
X808072Y696317D01*
X807983Y696477D01*
X807972Y696491D01*
X807963Y696507D01*
X807748Y696760D01*
X800879Y703628D01*
X795364Y713181D01*
X792509Y723835D01*
X792509Y734865D01*
X795364Y745519D01*
X800879Y755072D01*
X807748Y761940D01*
X807759Y761954D01*
X807773Y761966D01*
X807886Y762109D01*
X808003Y762252D01*
X808011Y762268D01*
X808022Y762282D01*
X808106Y762446D01*
X808192Y762608D01*
X808197Y762625D01*
X808205Y762641D01*
X808254Y762818D01*
X808306Y762994D01*
X808308Y763011D01*
X808313Y763029D01*
X808326Y763212D01*
X808343Y763395D01*
X808341Y763412D01*
X808342Y763430D01*
X808319Y763612D01*
X808299Y763795D01*
X808294Y763812D01*
X808292Y763830D01*
X808233Y764003D01*
X808178Y764179D01*
X808169Y764194D01*
X808164Y764211D01*
X808072Y764370D01*
X807983Y764531D01*
X807972Y764545D01*
X807963Y764560D01*
X807748Y764813D01*
X805464Y767097D01*
X800704Y775343D01*
X798239Y784539D01*
X798239Y794061D01*
X800704Y803257D01*
X805464Y811503D01*
X810575Y816614D01*
X810581Y816622D01*
X810588Y816628D01*
X810709Y816777D01*
X810831Y816926D01*
X810835Y816934D01*
X810841Y816941D01*
X810930Y817113D01*
X811019Y817282D01*
X811022Y817290D01*
X811026Y817299D01*
X811079Y817484D01*
X811134Y817668D01*
X811135Y817677D01*
X811137Y817686D01*
X811153Y817876D01*
X811170Y818069D01*
X811169Y818078D01*
X811170Y818087D01*
X811148Y818277D01*
X811127Y818469D01*
X811124Y818478D01*
X811123Y818487D01*
X811064Y818669D01*
X811005Y818853D01*
X811001Y818861D01*
X810998Y818870D01*
X810903Y819038D01*
X810811Y819205D01*
X810805Y819212D01*
X810800Y819220D01*
X810674Y819367D01*
X810550Y819512D01*
X810543Y819518D01*
X810537Y819525D01*
X810385Y819643D01*
X810234Y819762D01*
X810226Y819766D01*
X810219Y819771D01*
X810046Y819857D01*
X809875Y819944D01*
X809866Y819946D01*
X809858Y819951D01*
X809672Y820000D01*
X809487Y820052D01*
X809478Y820053D01*
X809469Y820055D01*
X809139Y820082D01*
X753033Y820065D01*
X753007Y820063D01*
X752981Y820064D01*
X752806Y820042D01*
X752633Y820025D01*
X752608Y820017D01*
X752581Y820014D01*
X752415Y819958D01*
X752248Y819907D01*
X752225Y819894D01*
X752199Y819886D01*
X752047Y819798D01*
X751894Y819715D01*
X751874Y819698D01*
X751851Y819685D01*
X751598Y819470D01*
X738564Y806436D01*
X738547Y806416D01*
X738527Y806398D01*
X738419Y806260D01*
X738309Y806125D01*
X738296Y806101D01*
X738280Y806080D01*
X738202Y805923D01*
X738120Y805769D01*
X738112Y805744D01*
X738100Y805720D01*
X738055Y805550D01*
X738005Y805383D01*
X738003Y805357D01*
X737996Y805331D01*
X737969Y805000D01*
X737969Y220000D01*
X737971Y219973D01*
X737969Y219947D01*
X737991Y219773D01*
X738009Y219599D01*
X738017Y219574D01*
X738020Y219547D01*
X738076Y219382D01*
X738127Y219214D01*
X738140Y219191D01*
X738148Y219166D01*
X738235Y219014D01*
X738319Y218860D01*
X738336Y218840D01*
X738349Y218817D01*
X738564Y218564D01*
X748564Y208564D01*
X748584Y208547D01*
X748602Y208527D01*
X748740Y208419D01*
X748875Y208309D01*
X748899Y208296D01*
X748920Y208280D01*
X749077Y208202D01*
X749231Y208120D01*
X749256Y208112D01*
X749281Y208100D01*
X749450Y208055D01*
X749617Y208005D01*
X749643Y208003D01*
X749669Y207996D01*
X750000Y207969D01*
X987808Y207969D01*
X987826Y207971D01*
G37*
G36*
X822309Y10407D02*
X822309Y10407D01*
X822457Y10422D01*
X822606Y10429D01*
X822657Y10442D01*
X822710Y10447D01*
X822852Y10491D01*
X822996Y10527D01*
X823044Y10550D01*
X823095Y10566D01*
X823226Y10637D01*
X823360Y10701D01*
X823402Y10732D01*
X823449Y10758D01*
X823563Y10853D01*
X823682Y10942D01*
X823717Y10981D01*
X823758Y11015D01*
X823851Y11131D01*
X823950Y11242D01*
X823977Y11288D01*
X824010Y11329D01*
X824079Y11461D01*
X824154Y11590D01*
X824171Y11640D01*
X824196Y11687D01*
X824237Y11830D01*
X824285Y11970D01*
X824292Y12023D01*
X824307Y12074D01*
X824319Y12222D01*
X824339Y12369D01*
X824335Y12422D01*
X824340Y12475D01*
X824322Y12623D01*
X824313Y12771D01*
X824299Y12822D01*
X824293Y12875D01*
X824246Y13016D01*
X824208Y13160D01*
X824184Y13207D01*
X824168Y13257D01*
X824095Y13387D01*
X824028Y13520D01*
X823996Y13562D01*
X823970Y13608D01*
X823872Y13721D01*
X823781Y13838D01*
X823741Y13872D01*
X823706Y13913D01*
X823589Y14004D01*
X823476Y14101D01*
X823425Y14131D01*
X823388Y14159D01*
X823312Y14197D01*
X823190Y14269D01*
X820673Y15481D01*
X817958Y17187D01*
X815452Y19185D01*
X813185Y21452D01*
X811187Y23958D01*
X809481Y26673D01*
X808090Y29561D01*
X807031Y32587D01*
X806318Y35712D01*
X806236Y36437D01*
X832468Y36437D01*
X832486Y36439D01*
X832503Y36437D01*
X832686Y36458D01*
X832868Y36477D01*
X832886Y36482D01*
X832903Y36484D01*
X833078Y36541D01*
X833253Y36595D01*
X833269Y36603D01*
X833286Y36609D01*
X833446Y36699D01*
X833607Y36787D01*
X833621Y36798D01*
X833637Y36807D01*
X833776Y36927D01*
X833917Y37044D01*
X833928Y37058D01*
X833941Y37070D01*
X834054Y37215D01*
X834169Y37358D01*
X834177Y37374D01*
X834188Y37388D01*
X834270Y37553D01*
X834355Y37715D01*
X834359Y37732D01*
X834367Y37749D01*
X834415Y37927D01*
X834466Y38102D01*
X834467Y38120D01*
X834472Y38137D01*
X834499Y38468D01*
X834499Y40501D01*
X834501Y40501D01*
X834501Y38468D01*
X834503Y38450D01*
X834501Y38432D01*
X834523Y38250D01*
X834541Y38067D01*
X834546Y38050D01*
X834548Y38033D01*
X834605Y37858D01*
X834659Y37682D01*
X834667Y37667D01*
X834673Y37650D01*
X834763Y37490D01*
X834851Y37328D01*
X834862Y37315D01*
X834871Y37299D01*
X834991Y37160D01*
X835108Y37019D01*
X835122Y37008D01*
X835134Y36995D01*
X835279Y36882D01*
X835422Y36767D01*
X835438Y36759D01*
X835452Y36748D01*
X835617Y36666D01*
X835780Y36581D01*
X835797Y36576D01*
X835813Y36568D01*
X835991Y36521D01*
X836166Y36470D01*
X836184Y36468D01*
X836201Y36464D01*
X836532Y36437D01*
X862764Y36437D01*
X862682Y35712D01*
X861969Y32587D01*
X860910Y29561D01*
X859519Y26673D01*
X857813Y23958D01*
X855815Y21452D01*
X853548Y19185D01*
X851042Y17187D01*
X848327Y15481D01*
X845825Y14276D01*
X845698Y14198D01*
X845566Y14127D01*
X845526Y14094D01*
X845481Y14066D01*
X845372Y13965D01*
X845257Y13869D01*
X845224Y13828D01*
X845186Y13793D01*
X845098Y13672D01*
X845005Y13555D01*
X844981Y13509D01*
X844950Y13467D01*
X844888Y13331D01*
X844820Y13198D01*
X844805Y13148D01*
X844783Y13100D01*
X844750Y12955D01*
X844708Y12811D01*
X844704Y12759D01*
X844692Y12708D01*
X844688Y12559D01*
X844675Y12410D01*
X844682Y12358D01*
X844680Y12306D01*
X844705Y12159D01*
X844723Y12010D01*
X844739Y11960D01*
X844748Y11909D01*
X844801Y11769D01*
X844847Y11627D01*
X844873Y11582D01*
X844892Y11533D01*
X844972Y11407D01*
X845045Y11277D01*
X845080Y11237D01*
X845108Y11193D01*
X845211Y11085D01*
X845309Y10972D01*
X845350Y10940D01*
X845386Y10902D01*
X845509Y10817D01*
X845627Y10725D01*
X845674Y10702D01*
X845717Y10672D01*
X845854Y10613D01*
X845987Y10546D01*
X846038Y10533D01*
X846086Y10512D01*
X846232Y10480D01*
X846376Y10442D01*
X846436Y10437D01*
X846480Y10427D01*
X846565Y10426D01*
X846707Y10415D01*
X920001Y10437D01*
X920018Y10438D01*
X920036Y10437D01*
X920218Y10458D01*
X920401Y10477D01*
X920418Y10482D01*
X920435Y10484D01*
X920611Y10541D01*
X920786Y10595D01*
X920801Y10603D01*
X920818Y10609D01*
X920979Y10700D01*
X921140Y10787D01*
X921153Y10798D01*
X921169Y10807D01*
X921308Y10927D01*
X921449Y11045D01*
X921460Y11058D01*
X921474Y11070D01*
X921586Y11215D01*
X921702Y11359D01*
X921710Y11374D01*
X921720Y11388D01*
X921802Y11552D01*
X921887Y11716D01*
X921892Y11733D01*
X921900Y11748D01*
X921948Y11927D01*
X921998Y12103D01*
X922000Y12120D01*
X922004Y12137D01*
X922031Y12468D01*
X922031Y200000D01*
X922029Y200018D01*
X922031Y200036D01*
X922010Y200218D01*
X921991Y200401D01*
X921986Y200418D01*
X921984Y200435D01*
X921927Y200610D01*
X921873Y200786D01*
X921865Y200801D01*
X921859Y200818D01*
X921769Y200978D01*
X921681Y201140D01*
X921670Y201153D01*
X921661Y201169D01*
X921541Y201308D01*
X921424Y201449D01*
X921410Y201460D01*
X921398Y201474D01*
X921253Y201586D01*
X921110Y201701D01*
X921094Y201709D01*
X921080Y201720D01*
X920915Y201802D01*
X920753Y201887D01*
X920736Y201892D01*
X920720Y201900D01*
X920541Y201947D01*
X920366Y201998D01*
X920348Y202000D01*
X920331Y202004D01*
X920000Y202031D01*
X420000Y202031D01*
X419973Y202029D01*
X419947Y202031D01*
X419773Y202009D01*
X419599Y201991D01*
X419574Y201984D01*
X419547Y201980D01*
X419382Y201925D01*
X419214Y201873D01*
X419191Y201860D01*
X419166Y201852D01*
X419014Y201765D01*
X418860Y201681D01*
X418840Y201664D01*
X418817Y201651D01*
X418564Y201436D01*
X404886Y187758D01*
X404880Y187751D01*
X404873Y187746D01*
X404753Y187596D01*
X404631Y187447D01*
X404626Y187439D01*
X404621Y187432D01*
X404532Y187260D01*
X404442Y187091D01*
X404439Y187083D01*
X404435Y187075D01*
X404382Y186889D01*
X404327Y186705D01*
X404326Y186696D01*
X404324Y186688D01*
X404308Y186496D01*
X404291Y186304D01*
X404292Y186295D01*
X404291Y186286D01*
X404313Y186097D01*
X404319Y186048D01*
X404319Y185485D01*
X404319Y185480D01*
X404319Y185475D01*
X404339Y185280D01*
X404358Y185085D01*
X404360Y185080D01*
X404361Y185075D01*
X404454Y184756D01*
X404454Y184755D01*
X404468Y184729D01*
X404477Y184700D01*
X404477Y184699D01*
X404558Y184549D01*
X404635Y184396D01*
X404654Y184372D01*
X404669Y184345D01*
X404778Y184214D01*
X404884Y184079D01*
X404907Y184059D01*
X404926Y184036D01*
X405060Y183929D01*
X405190Y183817D01*
X405216Y183803D01*
X405240Y183783D01*
X405392Y183705D01*
X405541Y183621D01*
X405570Y183612D01*
X405598Y183598D01*
X405762Y183551D01*
X405925Y183498D01*
X405955Y183495D01*
X405984Y183487D01*
X406155Y183473D01*
X406325Y183454D01*
X406355Y183456D01*
X406386Y183454D01*
X406556Y183474D01*
X406726Y183488D01*
X406755Y183497D01*
X406786Y183501D01*
X406948Y183554D01*
X407112Y183602D01*
X407139Y183616D01*
X407168Y183625D01*
X407318Y183710D01*
X407469Y183789D01*
X407492Y183808D01*
X407519Y183823D01*
X407649Y183935D01*
X407781Y184043D01*
X407801Y184067D01*
X407824Y184086D01*
X407928Y184221D01*
X407986Y184291D01*
X409935Y184291D01*
X410581Y184118D01*
X411160Y183783D01*
X411264Y183680D01*
X411277Y183668D01*
X411289Y183655D01*
X411434Y183540D01*
X411575Y183424D01*
X411591Y183416D01*
X411605Y183405D01*
X411769Y183322D01*
X411931Y183236D01*
X411948Y183231D01*
X411964Y183223D01*
X412141Y183173D01*
X412317Y183121D01*
X412334Y183119D01*
X412352Y183115D01*
X412535Y183101D01*
X412718Y183085D01*
X412735Y183087D01*
X412753Y183085D01*
X412936Y183108D01*
X413118Y183128D01*
X413135Y183133D01*
X413153Y183136D01*
X413327Y183194D01*
X413502Y183249D01*
X413517Y183258D01*
X413534Y183264D01*
X413694Y183356D01*
X413854Y183444D01*
X413868Y183456D01*
X413883Y183465D01*
X414136Y183679D01*
X414240Y183783D01*
X414819Y184118D01*
X415465Y184291D01*
X417019Y184291D01*
X417019Y174781D01*
X407060Y174781D01*
X407042Y174780D01*
X407024Y174781D01*
X406842Y174760D01*
X406659Y174741D01*
X406642Y174736D01*
X406625Y174734D01*
X406450Y174677D01*
X406274Y174623D01*
X406259Y174615D01*
X406242Y174609D01*
X406082Y174519D01*
X405920Y174432D01*
X405907Y174420D01*
X405891Y174411D01*
X405752Y174291D01*
X405611Y174174D01*
X405600Y174160D01*
X405586Y174148D01*
X405474Y174003D01*
X405359Y173860D01*
X405351Y173844D01*
X405340Y173830D01*
X405258Y173665D01*
X405173Y173503D01*
X405168Y173486D01*
X405160Y173470D01*
X405113Y173292D01*
X405062Y173116D01*
X405060Y173098D01*
X405056Y173081D01*
X405029Y172750D01*
X405030Y172732D01*
X405029Y172715D01*
X405029Y172714D01*
X405050Y172532D01*
X405069Y172349D01*
X405074Y172332D01*
X405076Y172314D01*
X405133Y172140D01*
X405187Y171964D01*
X405195Y171949D01*
X405201Y171932D01*
X405291Y171771D01*
X405379Y171610D01*
X405390Y171597D01*
X405399Y171581D01*
X405519Y171442D01*
X405636Y171301D01*
X405650Y171290D01*
X405662Y171276D01*
X405807Y171164D01*
X405950Y171049D01*
X405966Y171040D01*
X405980Y171030D01*
X406145Y170948D01*
X406307Y170863D01*
X406324Y170858D01*
X406340Y170850D01*
X406519Y170802D01*
X406694Y170752D01*
X406712Y170750D01*
X406729Y170746D01*
X407060Y170719D01*
X417019Y170719D01*
X417019Y161209D01*
X415465Y161209D01*
X414819Y161382D01*
X414240Y161717D01*
X414136Y161821D01*
X414122Y161832D01*
X414111Y161846D01*
X413967Y161960D01*
X413825Y162076D01*
X413809Y162084D01*
X413795Y162095D01*
X413631Y162179D01*
X413469Y162264D01*
X413452Y162269D01*
X413436Y162277D01*
X413259Y162327D01*
X413083Y162379D01*
X413065Y162381D01*
X413048Y162385D01*
X412865Y162399D01*
X412682Y162415D01*
X412664Y162413D01*
X412647Y162415D01*
X412465Y162392D01*
X412282Y162372D01*
X412265Y162367D01*
X412247Y162364D01*
X412073Y162306D01*
X411898Y162251D01*
X411882Y162242D01*
X411865Y162236D01*
X411706Y162144D01*
X411546Y162056D01*
X411532Y162044D01*
X411517Y162035D01*
X411264Y161820D01*
X411160Y161717D01*
X410581Y161382D01*
X409935Y161209D01*
X407993Y161209D01*
X407883Y161333D01*
X407774Y161464D01*
X407750Y161483D01*
X407730Y161506D01*
X407593Y161610D01*
X407460Y161717D01*
X407433Y161731D01*
X407409Y161749D01*
X407254Y161823D01*
X407103Y161902D01*
X407074Y161910D01*
X407046Y161924D01*
X406880Y161966D01*
X406716Y162013D01*
X406685Y162016D01*
X406656Y162023D01*
X406485Y162032D01*
X406315Y162046D01*
X406284Y162043D01*
X406254Y162044D01*
X406085Y162019D01*
X405915Y161999D01*
X405886Y161990D01*
X405856Y161986D01*
X405695Y161928D01*
X405532Y161875D01*
X405505Y161860D01*
X405477Y161849D01*
X405331Y161761D01*
X405181Y161677D01*
X405158Y161657D01*
X405132Y161641D01*
X405006Y161525D01*
X404877Y161414D01*
X404858Y161389D01*
X404835Y161369D01*
X404735Y161231D01*
X404630Y161095D01*
X404616Y161068D01*
X404598Y161043D01*
X404454Y160745D01*
X404454Y160744D01*
X404453Y160739D01*
X404451Y160735D01*
X404450Y160734D01*
X404399Y160542D01*
X404347Y160356D01*
X404347Y160350D01*
X404346Y160345D01*
X404345Y160342D01*
X404302Y160288D01*
X404292Y160268D01*
X404278Y160250D01*
X404127Y159955D01*
X404073Y159827D01*
X404067Y159806D01*
X404057Y159786D01*
X404009Y159613D01*
X403957Y159442D01*
X403955Y159419D01*
X403949Y159398D01*
X403936Y159219D01*
X403919Y159041D01*
X403921Y159019D01*
X403920Y158996D01*
X403942Y158818D01*
X403961Y158640D01*
X403967Y158619D01*
X403970Y158597D01*
X404027Y158426D01*
X404081Y158256D01*
X404091Y158236D01*
X404098Y158215D01*
X404188Y158059D01*
X404274Y157903D01*
X404288Y157886D01*
X404299Y157866D01*
X404514Y157613D01*
X417969Y144159D01*
X417969Y12318D01*
X417971Y12300D01*
X417969Y12282D01*
X417991Y12099D01*
X418009Y11917D01*
X418014Y11900D01*
X418016Y11882D01*
X418073Y11707D01*
X418127Y11532D01*
X418135Y11516D01*
X418141Y11499D01*
X418231Y11339D01*
X418319Y11178D01*
X418330Y11165D01*
X418339Y11149D01*
X418460Y11009D01*
X418576Y10869D01*
X418590Y10858D01*
X418602Y10844D01*
X418748Y10731D01*
X418890Y10617D01*
X418906Y10608D01*
X418920Y10597D01*
X419086Y10515D01*
X419247Y10431D01*
X419265Y10426D01*
X419281Y10418D01*
X419459Y10370D01*
X419634Y10320D01*
X419652Y10318D01*
X419670Y10314D01*
X420001Y10287D01*
X822309Y10407D01*
G37*
%LPC*%
G36*
X471487Y215403D02*
X471487Y215403D01*
X469246Y216331D01*
X467529Y218049D01*
X467443Y218203D01*
X467357Y218364D01*
X467346Y218377D01*
X467337Y218393D01*
X467217Y218533D01*
X467101Y218674D01*
X467087Y218685D01*
X467075Y218699D01*
X466930Y218812D01*
X466788Y218928D01*
X466772Y218936D01*
X466758Y218947D01*
X466593Y219030D01*
X466431Y219115D01*
X466414Y219120D01*
X466398Y219128D01*
X466221Y219176D01*
X466045Y219228D01*
X466027Y219229D01*
X466010Y219234D01*
X465825Y219247D01*
X465644Y219263D01*
X465626Y219261D01*
X465608Y219262D01*
X465425Y219238D01*
X465244Y219217D01*
X465227Y219212D01*
X465209Y219210D01*
X464893Y219108D01*
X463114Y218371D01*
X458886Y218371D01*
X454979Y219989D01*
X451989Y222979D01*
X450371Y226886D01*
X450371Y231114D01*
X451989Y235021D01*
X453372Y236404D01*
X453378Y236411D01*
X453385Y236416D01*
X453505Y236566D01*
X453628Y236715D01*
X453632Y236723D01*
X453637Y236730D01*
X453726Y236900D01*
X453816Y237071D01*
X453819Y237080D01*
X453823Y237087D01*
X453876Y237272D01*
X453931Y237457D01*
X453932Y237466D01*
X453934Y237474D01*
X453950Y237665D01*
X453967Y237858D01*
X453966Y237867D01*
X453967Y237876D01*
X453945Y238065D01*
X453924Y238258D01*
X453921Y238267D01*
X453920Y238275D01*
X453861Y238457D01*
X453802Y238642D01*
X453798Y238650D01*
X453795Y238658D01*
X453701Y238825D01*
X453608Y238994D01*
X453602Y239001D01*
X453597Y239009D01*
X453472Y239154D01*
X453347Y239301D01*
X453340Y239307D01*
X453334Y239314D01*
X453184Y239430D01*
X453031Y239551D01*
X453023Y239555D01*
X453016Y239560D01*
X452845Y239646D01*
X452672Y239733D01*
X452664Y239736D01*
X452656Y239740D01*
X452470Y239790D01*
X452284Y239841D01*
X452275Y239842D01*
X452267Y239844D01*
X451936Y239871D01*
X410583Y239871D01*
X407595Y241109D01*
X405023Y243681D01*
X399459Y249245D01*
X398774Y250899D01*
X398763Y250919D01*
X398756Y250940D01*
X398668Y251096D01*
X398584Y251254D01*
X398569Y251271D01*
X398558Y251291D01*
X398441Y251427D01*
X398327Y251565D01*
X398310Y251579D01*
X398295Y251596D01*
X398154Y251705D01*
X398015Y251818D01*
X397995Y251829D01*
X397977Y251842D01*
X397817Y251922D01*
X397658Y252005D01*
X397637Y252012D01*
X397617Y252022D01*
X397443Y252068D01*
X397272Y252118D01*
X397249Y252120D01*
X397228Y252126D01*
X396897Y252153D01*
X389187Y252153D01*
X386946Y253081D01*
X385016Y255012D01*
X384926Y255120D01*
X384909Y255135D01*
X384894Y255152D01*
X384753Y255261D01*
X384614Y255374D01*
X384594Y255385D01*
X384576Y255398D01*
X384416Y255478D01*
X384257Y255561D01*
X384236Y255568D01*
X384216Y255578D01*
X384043Y255624D01*
X383871Y255674D01*
X383849Y255676D01*
X383827Y255682D01*
X383496Y255709D01*
X382981Y255709D01*
X382981Y267250D01*
X382981Y278861D01*
X383084Y278895D01*
X383260Y278949D01*
X383275Y278957D01*
X383292Y278963D01*
X383452Y279053D01*
X383614Y279140D01*
X383627Y279152D01*
X383643Y279161D01*
X383782Y279281D01*
X383923Y279398D01*
X383934Y279412D01*
X383948Y279424D01*
X384060Y279569D01*
X384175Y279712D01*
X384183Y279728D01*
X384194Y279742D01*
X384276Y279907D01*
X384361Y280069D01*
X384366Y280086D01*
X384374Y280102D01*
X384421Y280281D01*
X384472Y280456D01*
X384474Y280474D01*
X384478Y280491D01*
X384505Y280822D01*
X384505Y283231D01*
X384503Y283258D01*
X384505Y283285D01*
X384483Y283459D01*
X384465Y283632D01*
X384458Y283657D01*
X384454Y283684D01*
X384398Y283850D01*
X384347Y284017D01*
X384334Y284040D01*
X384326Y284066D01*
X384239Y284217D01*
X384155Y284371D01*
X384138Y284391D01*
X384125Y284415D01*
X383910Y284668D01*
X382031Y286546D01*
X381595Y287601D01*
X381584Y287621D01*
X381577Y287642D01*
X381489Y287798D01*
X381404Y287956D01*
X381390Y287973D01*
X381379Y287993D01*
X381262Y288129D01*
X381148Y288267D01*
X381131Y288281D01*
X381116Y288298D01*
X380975Y288407D01*
X380835Y288520D01*
X380815Y288531D01*
X380798Y288544D01*
X380638Y288624D01*
X380479Y288707D01*
X380457Y288714D01*
X380437Y288724D01*
X380264Y288770D01*
X380092Y288820D01*
X380070Y288822D01*
X380049Y288828D01*
X379718Y288855D01*
X280181Y288855D01*
X276820Y290247D01*
X206847Y360220D01*
X205455Y363581D01*
X205455Y568401D01*
X205453Y568428D01*
X205455Y568455D01*
X205433Y568628D01*
X205415Y568802D01*
X205408Y568827D01*
X205404Y568854D01*
X205349Y569020D01*
X205297Y569187D01*
X205284Y569210D01*
X205276Y569236D01*
X205189Y569387D01*
X205105Y569541D01*
X205088Y569561D01*
X205075Y569585D01*
X204860Y569838D01*
X202891Y571806D01*
X201963Y574047D01*
X201963Y589553D01*
X202891Y591794D01*
X204606Y593509D01*
X206847Y594437D01*
X222353Y594437D01*
X224594Y593509D01*
X226309Y591794D01*
X227237Y589553D01*
X227237Y574047D01*
X226309Y571806D01*
X224340Y569838D01*
X224323Y569817D01*
X224302Y569799D01*
X224195Y569661D01*
X224085Y569526D01*
X224072Y569502D01*
X224056Y569481D01*
X223978Y569324D01*
X223896Y569170D01*
X223888Y569145D01*
X223876Y569121D01*
X223831Y568951D01*
X223781Y568784D01*
X223779Y568758D01*
X223772Y568732D01*
X223745Y568401D01*
X223745Y370029D01*
X223747Y370003D01*
X223745Y369976D01*
X223767Y369802D01*
X223785Y369629D01*
X223792Y369603D01*
X223796Y369577D01*
X223851Y369411D01*
X223903Y369244D01*
X223916Y369220D01*
X223924Y369195D01*
X224011Y369043D01*
X224095Y368890D01*
X224112Y368869D01*
X224125Y368846D01*
X224340Y368593D01*
X285193Y307740D01*
X285214Y307723D01*
X285231Y307702D01*
X285369Y307595D01*
X285504Y307485D01*
X285528Y307472D01*
X285549Y307456D01*
X285706Y307378D01*
X285860Y307296D01*
X285886Y307288D01*
X285910Y307276D01*
X286079Y307231D01*
X286246Y307181D01*
X286273Y307179D01*
X286299Y307172D01*
X286629Y307145D01*
X379718Y307145D01*
X379740Y307147D01*
X379762Y307145D01*
X379940Y307167D01*
X380119Y307185D01*
X380140Y307191D01*
X380162Y307194D01*
X380332Y307250D01*
X380503Y307303D01*
X380523Y307313D01*
X380544Y307320D01*
X380700Y307409D01*
X380857Y307495D01*
X380875Y307509D01*
X380894Y307520D01*
X381029Y307638D01*
X381167Y307752D01*
X381181Y307770D01*
X381198Y307784D01*
X381307Y307927D01*
X381419Y308066D01*
X381429Y308086D01*
X381443Y308104D01*
X381595Y308399D01*
X382031Y309454D01*
X383960Y311382D01*
X383977Y311403D01*
X383998Y311421D01*
X384105Y311559D01*
X384215Y311694D01*
X384228Y311718D01*
X384244Y311739D01*
X384322Y311895D01*
X384404Y312050D01*
X384412Y312075D01*
X384424Y312099D01*
X384469Y312268D01*
X384519Y312435D01*
X384521Y312462D01*
X384528Y312488D01*
X384555Y312819D01*
X384555Y318519D01*
X385947Y321880D01*
X398820Y334753D01*
X402062Y336096D01*
X402181Y336145D01*
X438859Y336145D01*
X438890Y336148D01*
X438921Y336146D01*
X439091Y336168D01*
X439260Y336185D01*
X439289Y336194D01*
X439320Y336198D01*
X439636Y336299D01*
X441035Y336879D01*
X444965Y336879D01*
X448596Y335375D01*
X451375Y332596D01*
X452879Y328965D01*
X452879Y325035D01*
X451375Y321404D01*
X448596Y318625D01*
X444965Y317121D01*
X441035Y317121D01*
X439636Y317701D01*
X439606Y317710D01*
X439578Y317724D01*
X439414Y317768D01*
X439251Y317817D01*
X439220Y317820D01*
X439190Y317828D01*
X438859Y317855D01*
X408629Y317855D01*
X408603Y317853D01*
X408576Y317855D01*
X408402Y317833D01*
X408229Y317815D01*
X408203Y317808D01*
X408177Y317804D01*
X408011Y317749D01*
X407844Y317697D01*
X407820Y317684D01*
X407795Y317676D01*
X407644Y317589D01*
X407490Y317505D01*
X407469Y317488D01*
X407446Y317475D01*
X407193Y317260D01*
X403814Y313881D01*
X403802Y313867D01*
X403789Y313856D01*
X403675Y313711D01*
X403559Y313570D01*
X403550Y313554D01*
X403539Y313540D01*
X403456Y313376D01*
X403370Y313214D01*
X403365Y313197D01*
X403357Y313181D01*
X403308Y313004D01*
X403255Y312828D01*
X403254Y312810D01*
X403249Y312793D01*
X403235Y312610D01*
X403219Y312427D01*
X403221Y312409D01*
X403219Y312391D01*
X403242Y312209D01*
X403262Y312027D01*
X403268Y312010D01*
X403270Y311992D01*
X403328Y311818D01*
X403384Y311643D01*
X403392Y311627D01*
X403398Y311610D01*
X403490Y311451D01*
X403579Y311291D01*
X403590Y311277D01*
X403599Y311261D01*
X403814Y311008D01*
X405584Y309238D01*
X405674Y309130D01*
X405691Y309115D01*
X405706Y309098D01*
X405847Y308989D01*
X405986Y308876D01*
X406006Y308865D01*
X406024Y308852D01*
X406184Y308772D01*
X406343Y308689D01*
X406364Y308682D01*
X406384Y308672D01*
X406557Y308626D01*
X406729Y308576D01*
X406751Y308574D01*
X406773Y308568D01*
X407104Y308541D01*
X410451Y308541D01*
X410451Y299218D01*
X410452Y299200D01*
X410451Y299183D01*
X410472Y299000D01*
X410491Y298818D01*
X410496Y298801D01*
X410498Y298783D01*
X410555Y298608D01*
X410609Y298433D01*
X410617Y298417D01*
X410623Y298400D01*
X410713Y298240D01*
X410800Y298079D01*
X410812Y298065D01*
X410821Y298049D01*
X410866Y297997D01*
X410781Y297892D01*
X410773Y297876D01*
X410762Y297862D01*
X410680Y297697D01*
X410595Y297534D01*
X410590Y297517D01*
X410582Y297501D01*
X410534Y297323D01*
X410484Y297148D01*
X410482Y297130D01*
X410478Y297113D01*
X410451Y296782D01*
X410451Y287459D01*
X407104Y287459D01*
X407081Y287457D01*
X407059Y287459D01*
X406881Y287437D01*
X406703Y287419D01*
X406682Y287413D01*
X406659Y287410D01*
X406489Y287354D01*
X406318Y287301D01*
X406299Y287291D01*
X406277Y287283D01*
X406121Y287195D01*
X405964Y287109D01*
X405947Y287095D01*
X405928Y287084D01*
X405792Y286966D01*
X405655Y286852D01*
X405641Y286834D01*
X405624Y286819D01*
X405566Y286744D01*
X404636Y285814D01*
X404631Y285807D01*
X404624Y285802D01*
X404504Y285653D01*
X404381Y285503D01*
X404377Y285495D01*
X404372Y285488D01*
X404283Y285318D01*
X404193Y285147D01*
X404190Y285138D01*
X404186Y285131D01*
X404133Y284946D01*
X404078Y284761D01*
X404077Y284752D01*
X404075Y284744D01*
X404059Y284552D01*
X404041Y284360D01*
X404042Y284351D01*
X404042Y284342D01*
X404064Y284153D01*
X404085Y283960D01*
X404088Y283951D01*
X404089Y283943D01*
X404148Y283760D01*
X404206Y283576D01*
X404211Y283568D01*
X404213Y283560D01*
X404308Y283393D01*
X404401Y283224D01*
X404407Y283217D01*
X404411Y283209D01*
X404537Y283064D01*
X404662Y282917D01*
X404669Y282911D01*
X404675Y282904D01*
X404826Y282787D01*
X404978Y282667D01*
X404986Y282663D01*
X404993Y282658D01*
X405165Y282572D01*
X405337Y282485D01*
X405345Y282482D01*
X405353Y282478D01*
X405539Y282429D01*
X405724Y282377D01*
X405733Y282376D01*
X405742Y282374D01*
X406073Y282347D01*
X410813Y282347D01*
X413054Y281419D01*
X414984Y279488D01*
X415074Y279380D01*
X415091Y279365D01*
X415106Y279348D01*
X415247Y279239D01*
X415386Y279126D01*
X415406Y279115D01*
X415424Y279102D01*
X415584Y279022D01*
X415743Y278939D01*
X415764Y278932D01*
X415784Y278922D01*
X415957Y278876D01*
X416129Y278826D01*
X416151Y278824D01*
X416173Y278818D01*
X416504Y278791D01*
X417019Y278791D01*
X417019Y267250D01*
X417020Y267233D01*
X417019Y267215D01*
X417040Y267032D01*
X417058Y266850D01*
X417064Y266833D01*
X417066Y266815D01*
X417123Y266640D01*
X417177Y266465D01*
X417185Y266449D01*
X417191Y266432D01*
X417281Y266272D01*
X417368Y266111D01*
X417380Y266097D01*
X417389Y266082D01*
X417509Y265942D01*
X417626Y265802D01*
X417640Y265790D01*
X417652Y265777D01*
X417797Y265664D01*
X417940Y265549D01*
X417956Y265541D01*
X417970Y265530D01*
X418135Y265448D01*
X418297Y265364D01*
X418314Y265359D01*
X418330Y265351D01*
X418508Y265303D01*
X418684Y265252D01*
X418702Y265251D01*
X418719Y265246D01*
X419050Y265219D01*
X419068Y265221D01*
X419085Y265219D01*
X419086Y265219D01*
X419268Y265241D01*
X419451Y265259D01*
X419468Y265264D01*
X419486Y265266D01*
X419660Y265323D01*
X419836Y265377D01*
X419851Y265386D01*
X419868Y265391D01*
X420029Y265482D01*
X420190Y265569D01*
X420203Y265580D01*
X420219Y265589D01*
X420358Y265709D01*
X420499Y265827D01*
X420510Y265841D01*
X420524Y265852D01*
X420636Y265997D01*
X420751Y266140D01*
X420760Y266156D01*
X420770Y266170D01*
X420852Y266335D01*
X420937Y266498D01*
X420942Y266515D01*
X420950Y266531D01*
X420998Y266709D01*
X421048Y266885D01*
X421050Y266902D01*
X421054Y266920D01*
X421081Y267250D01*
X421081Y278791D01*
X421590Y278791D01*
X421608Y278792D01*
X421626Y278791D01*
X421808Y278812D01*
X421991Y278831D01*
X422008Y278836D01*
X422025Y278838D01*
X422200Y278895D01*
X422376Y278949D01*
X422391Y278957D01*
X422408Y278963D01*
X422568Y279053D01*
X422730Y279140D01*
X422743Y279152D01*
X422759Y279161D01*
X422898Y279281D01*
X423039Y279398D01*
X423050Y279412D01*
X423064Y279424D01*
X423176Y279569D01*
X423291Y279712D01*
X423299Y279728D01*
X423310Y279742D01*
X423392Y279907D01*
X423477Y280069D01*
X423482Y280086D01*
X423490Y280102D01*
X423537Y280281D01*
X423588Y280456D01*
X423590Y280474D01*
X423594Y280491D01*
X423621Y280822D01*
X423621Y285639D01*
X423613Y285721D01*
X423615Y285803D01*
X423593Y285921D01*
X423581Y286040D01*
X423557Y286118D01*
X423543Y286199D01*
X423498Y286310D01*
X423463Y286425D01*
X423424Y286497D01*
X423394Y286573D01*
X423328Y286674D01*
X423271Y286779D01*
X423219Y286842D01*
X423174Y286911D01*
X423090Y286996D01*
X423014Y287088D01*
X422950Y287139D01*
X422892Y287198D01*
X422793Y287265D01*
X422700Y287340D01*
X422627Y287378D01*
X422559Y287424D01*
X422449Y287471D01*
X422343Y287526D01*
X422264Y287549D01*
X422188Y287580D01*
X422071Y287604D01*
X421956Y287637D01*
X421874Y287644D01*
X421793Y287660D01*
X421674Y287660D01*
X421554Y287670D01*
X421473Y287661D01*
X421391Y287661D01*
X421241Y287633D01*
X421155Y287623D01*
X421116Y287611D01*
X421064Y287601D01*
X420534Y287459D01*
X416949Y287459D01*
X416949Y296782D01*
X416947Y296800D01*
X416949Y296817D01*
X416928Y297000D01*
X416909Y297182D01*
X416904Y297199D01*
X416902Y297217D01*
X416845Y297392D01*
X416791Y297567D01*
X416783Y297583D01*
X416777Y297600D01*
X416687Y297760D01*
X416599Y297921D01*
X416588Y297935D01*
X416579Y297951D01*
X416534Y298003D01*
X416619Y298108D01*
X416627Y298124D01*
X416638Y298138D01*
X416720Y298303D01*
X416805Y298466D01*
X416810Y298483D01*
X416818Y298499D01*
X416865Y298677D01*
X416916Y298852D01*
X416918Y298870D01*
X416922Y298887D01*
X416949Y299218D01*
X416949Y308541D01*
X420535Y308541D01*
X421181Y308368D01*
X421760Y308033D01*
X422233Y307560D01*
X422568Y306981D01*
X422741Y306335D01*
X422741Y304440D01*
X422742Y304432D01*
X422741Y304423D01*
X422762Y304229D01*
X422781Y304040D01*
X422783Y304031D01*
X422784Y304022D01*
X422843Y303837D01*
X422899Y303655D01*
X422903Y303647D01*
X422906Y303638D01*
X422999Y303470D01*
X423090Y303301D01*
X423096Y303294D01*
X423101Y303286D01*
X423224Y303140D01*
X423348Y302992D01*
X423355Y302986D01*
X423361Y302979D01*
X423511Y302861D01*
X423662Y302739D01*
X423670Y302735D01*
X423677Y302730D01*
X423848Y302643D01*
X424019Y302554D01*
X424028Y302551D01*
X424036Y302547D01*
X424221Y302496D01*
X424406Y302442D01*
X424415Y302442D01*
X424424Y302439D01*
X424616Y302425D01*
X424807Y302409D01*
X424816Y302410D01*
X424825Y302410D01*
X425018Y302434D01*
X425207Y302456D01*
X425216Y302459D01*
X425225Y302460D01*
X425407Y302522D01*
X425590Y302581D01*
X425598Y302586D01*
X425606Y302588D01*
X425772Y302684D01*
X425941Y302779D01*
X425947Y302785D01*
X425955Y302789D01*
X426208Y303004D01*
X433095Y309891D01*
X436083Y311129D01*
X466608Y311129D01*
X466621Y311130D01*
X466634Y311129D01*
X466821Y311150D01*
X467008Y311169D01*
X467021Y311173D01*
X467034Y311174D01*
X467213Y311231D01*
X467393Y311287D01*
X467405Y311293D01*
X467418Y311297D01*
X467582Y311389D01*
X467747Y311479D01*
X467757Y311487D01*
X467769Y311494D01*
X467913Y311617D01*
X468056Y311736D01*
X468065Y311747D01*
X468075Y311755D01*
X468191Y311904D01*
X468309Y312050D01*
X468315Y312062D01*
X468323Y312072D01*
X468408Y312241D01*
X468494Y312407D01*
X468498Y312420D01*
X468504Y312432D01*
X468554Y312614D01*
X468606Y312794D01*
X468607Y312808D01*
X468610Y312821D01*
X468623Y313007D01*
X468639Y313196D01*
X468637Y313209D01*
X468638Y313222D01*
X468614Y313408D01*
X468592Y313595D01*
X468587Y313608D01*
X468586Y313621D01*
X468484Y313937D01*
X467979Y315156D01*
X467979Y332416D01*
X469139Y335217D01*
X472476Y338554D01*
X472482Y338561D01*
X472489Y338566D01*
X472609Y338716D01*
X472731Y338865D01*
X472736Y338873D01*
X472741Y338880D01*
X472830Y339050D01*
X472920Y339221D01*
X472923Y339230D01*
X472927Y339237D01*
X472980Y339422D01*
X473035Y339607D01*
X473036Y339616D01*
X473038Y339624D01*
X473054Y339815D01*
X473071Y340008D01*
X473070Y340017D01*
X473071Y340026D01*
X473049Y340214D01*
X473028Y340408D01*
X473025Y340417D01*
X473024Y340425D01*
X472965Y340607D01*
X472906Y340792D01*
X472902Y340800D01*
X472899Y340808D01*
X472804Y340977D01*
X472712Y341144D01*
X472706Y341151D01*
X472701Y341159D01*
X472575Y341305D01*
X472451Y341451D01*
X472444Y341457D01*
X472438Y341464D01*
X472287Y341581D01*
X472135Y341701D01*
X472127Y341705D01*
X472120Y341710D01*
X471948Y341796D01*
X471776Y341883D01*
X471768Y341886D01*
X471760Y341890D01*
X471574Y341940D01*
X471388Y341991D01*
X471379Y341992D01*
X471371Y341994D01*
X471040Y342021D01*
X393433Y342021D01*
X390445Y343259D01*
X353428Y380276D01*
X353407Y380293D01*
X353390Y380314D01*
X353252Y380421D01*
X353116Y380531D01*
X353093Y380544D01*
X353072Y380560D01*
X352915Y380638D01*
X352761Y380720D01*
X352735Y380728D01*
X352711Y380740D01*
X352542Y380785D01*
X352375Y380835D01*
X352348Y380837D01*
X352322Y380844D01*
X351992Y380871D01*
X324583Y380871D01*
X321595Y382109D01*
X305309Y398395D01*
X304071Y401383D01*
X304071Y404807D01*
X304069Y404834D01*
X304071Y404861D01*
X304049Y405035D01*
X304031Y405208D01*
X304024Y405234D01*
X304020Y405260D01*
X303964Y405426D01*
X303913Y405593D01*
X303900Y405617D01*
X303892Y405642D01*
X303805Y405793D01*
X303721Y405947D01*
X303704Y405968D01*
X303691Y405991D01*
X303476Y406244D01*
X301002Y408718D01*
X298991Y413573D01*
X298991Y418827D01*
X301002Y423682D01*
X303476Y426156D01*
X303493Y426177D01*
X303514Y426194D01*
X303621Y426332D01*
X303731Y426468D01*
X303744Y426491D01*
X303760Y426513D01*
X303838Y426669D01*
X303920Y426823D01*
X303928Y426849D01*
X303940Y426873D01*
X303985Y427042D01*
X304035Y427209D01*
X304037Y427236D01*
X304044Y427262D01*
X304071Y427593D01*
X304071Y441187D01*
X304070Y441196D01*
X304071Y441205D01*
X304050Y441397D01*
X304031Y441588D01*
X304029Y441597D01*
X304028Y441606D01*
X303971Y441786D01*
X303913Y441973D01*
X303909Y441981D01*
X303906Y441989D01*
X303813Y442158D01*
X303721Y442327D01*
X303716Y442334D01*
X303711Y442342D01*
X303586Y442490D01*
X303464Y442636D01*
X303457Y442642D01*
X303451Y442649D01*
X303300Y442768D01*
X303150Y442889D01*
X303142Y442893D01*
X303135Y442898D01*
X302964Y442985D01*
X302793Y443074D01*
X302784Y443077D01*
X302776Y443081D01*
X302590Y443132D01*
X302406Y443186D01*
X302397Y443186D01*
X302388Y443189D01*
X302196Y443203D01*
X302004Y443218D01*
X301996Y443217D01*
X301987Y443218D01*
X301794Y443194D01*
X301605Y443171D01*
X301596Y443169D01*
X301587Y443168D01*
X301404Y443106D01*
X301222Y443047D01*
X301214Y443042D01*
X301206Y443039D01*
X301039Y442944D01*
X300871Y442849D01*
X300864Y442843D01*
X300857Y442838D01*
X300604Y442624D01*
X299582Y441602D01*
X294727Y439591D01*
X289473Y439591D01*
X284618Y441602D01*
X283536Y442684D01*
X283522Y442695D01*
X283511Y442709D01*
X283367Y442822D01*
X283225Y442939D01*
X283209Y442947D01*
X283195Y442958D01*
X283031Y443041D01*
X282869Y443127D01*
X282852Y443132D01*
X282836Y443141D01*
X282659Y443190D01*
X282483Y443242D01*
X282465Y443244D01*
X282448Y443249D01*
X282265Y443262D01*
X282082Y443279D01*
X282064Y443277D01*
X282047Y443278D01*
X281865Y443255D01*
X281682Y443235D01*
X281665Y443230D01*
X281647Y443228D01*
X281473Y443169D01*
X281298Y443114D01*
X281282Y443105D01*
X281266Y443099D01*
X281107Y443008D01*
X280946Y442919D01*
X280932Y442907D01*
X280917Y442898D01*
X280664Y442684D01*
X279582Y441602D01*
X274727Y439591D01*
X269473Y439591D01*
X264618Y441602D01*
X261002Y445218D01*
X260955Y445256D01*
X260915Y445300D01*
X260800Y445383D01*
X260690Y445473D01*
X260637Y445501D01*
X260589Y445537D01*
X260460Y445595D01*
X260335Y445662D01*
X260277Y445679D01*
X260223Y445704D01*
X260084Y445736D01*
X259949Y445777D01*
X259889Y445782D01*
X259831Y445796D01*
X259689Y445800D01*
X259548Y445813D01*
X259488Y445807D01*
X259428Y445808D01*
X259289Y445785D01*
X259148Y445770D01*
X259090Y445752D01*
X259031Y445742D01*
X258899Y445691D01*
X258764Y445648D01*
X258711Y445619D01*
X258655Y445598D01*
X258483Y445493D01*
X258411Y445453D01*
X258395Y445439D01*
X258372Y445425D01*
X257159Y444544D01*
X255805Y443854D01*
X254360Y443385D01*
X254131Y443349D01*
X254131Y452800D01*
X254131Y462251D01*
X254360Y462215D01*
X255805Y461746D01*
X257159Y461056D01*
X258372Y460175D01*
X258424Y460144D01*
X258471Y460107D01*
X258597Y460043D01*
X258719Y459972D01*
X258776Y459952D01*
X258830Y459925D01*
X258966Y459887D01*
X259100Y459841D01*
X259160Y459833D01*
X259217Y459817D01*
X259359Y459807D01*
X259499Y459788D01*
X259559Y459792D01*
X259619Y459788D01*
X259760Y459805D01*
X259901Y459815D01*
X259959Y459830D01*
X260018Y459838D01*
X260153Y459883D01*
X260289Y459920D01*
X260343Y459947D01*
X260400Y459966D01*
X260523Y460037D01*
X260650Y460100D01*
X260697Y460137D01*
X260749Y460167D01*
X260902Y460297D01*
X260967Y460348D01*
X260981Y460364D01*
X261002Y460382D01*
X262360Y461740D01*
X262377Y461761D01*
X262398Y461778D01*
X262505Y461917D01*
X262615Y462052D01*
X262628Y462076D01*
X262644Y462097D01*
X262722Y462253D01*
X262804Y462408D01*
X262812Y462433D01*
X262824Y462457D01*
X262869Y462626D01*
X262919Y462793D01*
X262921Y462820D01*
X262928Y462846D01*
X262955Y463177D01*
X262955Y488919D01*
X264347Y492280D01*
X276820Y504753D01*
X280181Y506145D01*
X326565Y506145D01*
X326579Y506146D01*
X326592Y506145D01*
X326778Y506166D01*
X326966Y506185D01*
X326979Y506189D01*
X326992Y506190D01*
X327171Y506248D01*
X327351Y506303D01*
X327363Y506309D01*
X327375Y506313D01*
X327540Y506405D01*
X327705Y506495D01*
X327715Y506503D01*
X327727Y506510D01*
X327870Y506632D01*
X328014Y506752D01*
X328022Y506763D01*
X328033Y506771D01*
X328149Y506920D01*
X328266Y507066D01*
X328273Y507078D01*
X328281Y507088D01*
X328366Y507258D01*
X328452Y507423D01*
X328456Y507436D01*
X328462Y507448D01*
X328511Y507629D01*
X328563Y507810D01*
X328564Y507824D01*
X328568Y507837D01*
X328581Y508025D01*
X328596Y508212D01*
X328595Y508225D01*
X328596Y508238D01*
X328571Y508426D01*
X328549Y508611D01*
X328545Y508624D01*
X328543Y508637D01*
X328442Y508953D01*
X327191Y511973D01*
X327191Y517227D01*
X329202Y522082D01*
X332818Y525698D01*
X332856Y525745D01*
X332900Y525785D01*
X332983Y525900D01*
X333073Y526010D01*
X333101Y526063D01*
X333137Y526111D01*
X333195Y526240D01*
X333262Y526365D01*
X333279Y526423D01*
X333304Y526477D01*
X333336Y526616D01*
X333377Y526751D01*
X333382Y526811D01*
X333396Y526869D01*
X333400Y527011D01*
X333413Y527152D01*
X333407Y527212D01*
X333408Y527272D01*
X333385Y527411D01*
X333370Y527552D01*
X333352Y527610D01*
X333342Y527669D01*
X333291Y527801D01*
X333248Y527936D01*
X333219Y527989D01*
X333198Y528045D01*
X333093Y528217D01*
X333053Y528289D01*
X333039Y528305D01*
X333025Y528328D01*
X332144Y529541D01*
X331454Y530895D01*
X330985Y532340D01*
X330949Y532569D01*
X340400Y532569D01*
X349851Y532569D01*
X349815Y532340D01*
X349346Y530895D01*
X348656Y529541D01*
X347775Y528328D01*
X347745Y528277D01*
X347707Y528229D01*
X347643Y528103D01*
X347572Y527981D01*
X347552Y527924D01*
X347525Y527871D01*
X347487Y527734D01*
X347441Y527600D01*
X347433Y527540D01*
X347417Y527483D01*
X347407Y527341D01*
X347388Y527201D01*
X347392Y527141D01*
X347388Y527081D01*
X347405Y526940D01*
X347415Y526799D01*
X347430Y526741D01*
X347438Y526682D01*
X347483Y526547D01*
X347520Y526411D01*
X347547Y526357D01*
X347566Y526300D01*
X347637Y526177D01*
X347700Y526050D01*
X347737Y526003D01*
X347767Y525951D01*
X347897Y525798D01*
X347948Y525733D01*
X347964Y525719D01*
X347982Y525698D01*
X351598Y522082D01*
X352395Y520157D01*
X352397Y520153D01*
X352399Y520148D01*
X352492Y519976D01*
X352586Y519802D01*
X352588Y519798D01*
X352591Y519794D01*
X352715Y519646D01*
X352842Y519491D01*
X352845Y519489D01*
X352848Y519485D01*
X353001Y519362D01*
X353155Y519238D01*
X353159Y519236D01*
X353162Y519233D01*
X353335Y519143D01*
X353511Y519051D01*
X353515Y519049D01*
X353519Y519047D01*
X353708Y518993D01*
X353898Y518937D01*
X353902Y518937D01*
X353906Y518936D01*
X354104Y518920D01*
X354299Y518903D01*
X354303Y518903D01*
X354308Y518903D01*
X354502Y518926D01*
X354699Y518948D01*
X354703Y518949D01*
X354707Y518950D01*
X354893Y519010D01*
X355082Y519071D01*
X355086Y519073D01*
X355090Y519075D01*
X355263Y519172D01*
X355434Y519268D01*
X355437Y519270D01*
X355441Y519273D01*
X355590Y519401D01*
X355739Y519529D01*
X355742Y519533D01*
X355746Y519536D01*
X355866Y519690D01*
X355988Y519846D01*
X355990Y519850D01*
X355992Y519854D01*
X356079Y520029D01*
X356168Y520206D01*
X356170Y520210D01*
X356172Y520214D01*
X356223Y520406D01*
X356275Y520594D01*
X356275Y520599D01*
X356276Y520603D01*
X356303Y520934D01*
X356303Y548266D01*
X356303Y548271D01*
X356303Y548275D01*
X356283Y548469D01*
X356263Y548667D01*
X356262Y548671D01*
X356262Y548675D01*
X356204Y548861D01*
X356145Y549052D01*
X356143Y549056D01*
X356142Y549060D01*
X356048Y549231D01*
X355953Y549406D01*
X355951Y549409D01*
X355948Y549413D01*
X355822Y549563D01*
X355696Y549715D01*
X355692Y549718D01*
X355689Y549721D01*
X355535Y549844D01*
X355382Y549967D01*
X355378Y549969D01*
X355375Y549972D01*
X355200Y550062D01*
X355025Y550153D01*
X355020Y550154D01*
X355016Y550156D01*
X354829Y550209D01*
X354638Y550264D01*
X354633Y550264D01*
X354629Y550266D01*
X354436Y550281D01*
X354236Y550297D01*
X354232Y550296D01*
X354228Y550297D01*
X354035Y550273D01*
X353837Y550250D01*
X353832Y550249D01*
X353828Y550248D01*
X353645Y550188D01*
X353454Y550125D01*
X353450Y550123D01*
X353446Y550122D01*
X353277Y550025D01*
X353103Y549927D01*
X353100Y549924D01*
X353096Y549922D01*
X352947Y549792D01*
X352799Y549664D01*
X352796Y549661D01*
X352792Y549658D01*
X352672Y549501D01*
X352552Y549346D01*
X352550Y549342D01*
X352547Y549339D01*
X352395Y549043D01*
X351598Y547118D01*
X347982Y543502D01*
X347944Y543455D01*
X347900Y543415D01*
X347817Y543300D01*
X347727Y543190D01*
X347699Y543137D01*
X347663Y543089D01*
X347605Y542960D01*
X347538Y542835D01*
X347521Y542777D01*
X347496Y542723D01*
X347464Y542584D01*
X347423Y542449D01*
X347418Y542389D01*
X347404Y542331D01*
X347400Y542189D01*
X347387Y542048D01*
X347393Y541988D01*
X347392Y541928D01*
X347415Y541789D01*
X347430Y541648D01*
X347448Y541590D01*
X347458Y541531D01*
X347509Y541399D01*
X347552Y541264D01*
X347581Y541211D01*
X347602Y541155D01*
X347707Y540983D01*
X347747Y540911D01*
X347761Y540895D01*
X347775Y540872D01*
X348656Y539659D01*
X349346Y538305D01*
X349815Y536860D01*
X349851Y536631D01*
X340400Y536631D01*
X330949Y536631D01*
X330985Y536860D01*
X331454Y538305D01*
X332144Y539659D01*
X333025Y540872D01*
X333056Y540923D01*
X333093Y540971D01*
X333157Y541097D01*
X333228Y541219D01*
X333248Y541276D01*
X333275Y541329D01*
X333313Y541466D01*
X333359Y541600D01*
X333367Y541659D01*
X333383Y541717D01*
X333393Y541859D01*
X333412Y541999D01*
X333408Y542059D01*
X333412Y542119D01*
X333395Y542260D01*
X333385Y542401D01*
X333370Y542459D01*
X333362Y542518D01*
X333317Y542653D01*
X333280Y542789D01*
X333253Y542843D01*
X333234Y542900D01*
X333163Y543023D01*
X333100Y543149D01*
X333063Y543197D01*
X333033Y543249D01*
X332902Y543403D01*
X332852Y543467D01*
X332836Y543481D01*
X332818Y543502D01*
X331360Y544960D01*
X331339Y544977D01*
X331322Y544998D01*
X331184Y545105D01*
X331048Y545215D01*
X331025Y545228D01*
X331003Y545244D01*
X330846Y545322D01*
X330692Y545404D01*
X330667Y545412D01*
X330643Y545424D01*
X330473Y545469D01*
X330307Y545519D01*
X330280Y545521D01*
X330254Y545528D01*
X329923Y545555D01*
X326578Y545555D01*
X326547Y545552D01*
X326516Y545554D01*
X326346Y545532D01*
X326177Y545515D01*
X326148Y545506D01*
X326117Y545502D01*
X325801Y545401D01*
X323721Y544539D01*
X318142Y544539D01*
X318116Y544537D01*
X318089Y544539D01*
X317915Y544517D01*
X317742Y544499D01*
X317716Y544492D01*
X317689Y544488D01*
X317524Y544433D01*
X317357Y544381D01*
X317333Y544368D01*
X317308Y544360D01*
X317156Y544273D01*
X317003Y544189D01*
X316982Y544172D01*
X316959Y544159D01*
X316706Y543944D01*
X314761Y541999D01*
X314637Y541999D01*
X314628Y541998D01*
X314619Y541999D01*
X314428Y541978D01*
X314237Y541959D01*
X314228Y541957D01*
X314219Y541956D01*
X314037Y541898D01*
X313852Y541841D01*
X313844Y541837D01*
X313835Y541834D01*
X313667Y541741D01*
X313498Y541649D01*
X313491Y541644D01*
X313483Y541639D01*
X313336Y541515D01*
X313188Y541392D01*
X313183Y541385D01*
X313176Y541379D01*
X313057Y541228D01*
X312936Y541078D01*
X312932Y541070D01*
X312926Y541063D01*
X312839Y540890D01*
X312751Y540721D01*
X312748Y540712D01*
X312744Y540704D01*
X312692Y540517D01*
X312639Y540334D01*
X312638Y540325D01*
X312636Y540316D01*
X312622Y540123D01*
X312606Y539932D01*
X312607Y539924D01*
X312607Y539915D01*
X312631Y539720D01*
X312653Y539533D01*
X312656Y539524D01*
X312657Y539515D01*
X312718Y539332D01*
X312778Y539150D01*
X312782Y539142D01*
X312785Y539134D01*
X312881Y538967D01*
X312976Y538799D01*
X312982Y538792D01*
X312986Y538785D01*
X313201Y538532D01*
X318645Y533088D01*
X318645Y531331D01*
X309500Y531331D01*
X300355Y531331D01*
X300355Y533088D01*
X305799Y538532D01*
X305805Y538539D01*
X305812Y538544D01*
X305932Y538694D01*
X306054Y538843D01*
X306058Y538851D01*
X306064Y538858D01*
X306152Y539027D01*
X306243Y539199D01*
X306245Y539208D01*
X306249Y539215D01*
X306303Y539400D01*
X306358Y539585D01*
X306358Y539594D01*
X306361Y539602D01*
X306376Y539792D01*
X306394Y539986D01*
X306393Y539995D01*
X306394Y540004D01*
X306372Y540193D01*
X306351Y540386D01*
X306348Y540395D01*
X306347Y540403D01*
X306287Y540585D01*
X306229Y540770D01*
X306225Y540778D01*
X306222Y540786D01*
X306127Y540955D01*
X306034Y541122D01*
X306029Y541129D01*
X306024Y541137D01*
X305898Y541283D01*
X305774Y541429D01*
X305767Y541435D01*
X305761Y541442D01*
X305610Y541559D01*
X305458Y541679D01*
X305450Y541683D01*
X305443Y541688D01*
X305271Y541774D01*
X305099Y541861D01*
X305090Y541864D01*
X305082Y541868D01*
X304896Y541918D01*
X304711Y541969D01*
X304702Y541970D01*
X304694Y541972D01*
X304363Y541999D01*
X304239Y541999D01*
X296799Y549439D01*
X296799Y559961D01*
X303602Y566764D01*
X303614Y566778D01*
X303627Y566789D01*
X303741Y566933D01*
X303857Y567075D01*
X303866Y567091D01*
X303877Y567105D01*
X303960Y567269D01*
X304046Y567431D01*
X304051Y567448D01*
X304059Y567464D01*
X304108Y567641D01*
X304161Y567817D01*
X304162Y567835D01*
X304167Y567852D01*
X304180Y568035D01*
X304197Y568218D01*
X304195Y568236D01*
X304196Y568253D01*
X304173Y568435D01*
X304154Y568618D01*
X304148Y568635D01*
X304146Y568653D01*
X304088Y568827D01*
X304032Y569002D01*
X304023Y569018D01*
X304018Y569034D01*
X303926Y569194D01*
X303837Y569354D01*
X303826Y569368D01*
X303817Y569383D01*
X303602Y569636D01*
X296799Y576439D01*
X296799Y586961D01*
X304239Y594401D01*
X304363Y594401D01*
X304372Y594402D01*
X304381Y594401D01*
X304572Y594422D01*
X304763Y594441D01*
X304772Y594443D01*
X304781Y594444D01*
X304963Y594502D01*
X305148Y594559D01*
X305156Y594563D01*
X305165Y594566D01*
X305333Y594659D01*
X305502Y594751D01*
X305509Y594756D01*
X305517Y594761D01*
X305664Y594885D01*
X305812Y595008D01*
X305817Y595015D01*
X305824Y595021D01*
X305943Y595172D01*
X306064Y595322D01*
X306068Y595330D01*
X306074Y595337D01*
X306161Y595510D01*
X306249Y595679D01*
X306252Y595688D01*
X306256Y595696D01*
X306308Y595882D01*
X306361Y596066D01*
X306362Y596075D01*
X306364Y596084D01*
X306378Y596277D01*
X306394Y596468D01*
X306393Y596476D01*
X306393Y596485D01*
X306369Y596678D01*
X306347Y596867D01*
X306344Y596876D01*
X306343Y596885D01*
X306282Y597068D01*
X306222Y597250D01*
X306218Y597258D01*
X306215Y597266D01*
X306120Y597432D01*
X306024Y597601D01*
X306018Y597608D01*
X306014Y597615D01*
X305799Y597868D01*
X300355Y603312D01*
X300355Y605069D01*
X309500Y605069D01*
X309517Y605070D01*
X309535Y605069D01*
X309718Y605090D01*
X309900Y605108D01*
X309917Y605114D01*
X309935Y605116D01*
X310110Y605173D01*
X310285Y605227D01*
X310301Y605235D01*
X310318Y605241D01*
X310478Y605331D01*
X310639Y605418D01*
X310653Y605430D01*
X310668Y605439D01*
X310808Y605559D01*
X310948Y605676D01*
X310949Y605676D01*
X310949Y605677D01*
X310960Y605690D01*
X310973Y605702D01*
X310974Y605702D01*
X311086Y605847D01*
X311201Y605990D01*
X311210Y606006D01*
X311220Y606020D01*
X311302Y606185D01*
X311387Y606348D01*
X311392Y606365D01*
X311400Y606381D01*
X311448Y606559D01*
X311498Y606735D01*
X311500Y606752D01*
X311504Y606770D01*
X311531Y607100D01*
X311531Y616245D01*
X313288Y616245D01*
X313372Y616161D01*
X313379Y616155D01*
X313384Y616148D01*
X313535Y616028D01*
X313683Y615906D01*
X313691Y615902D01*
X313698Y615896D01*
X313867Y615808D01*
X314039Y615717D01*
X314048Y615715D01*
X314055Y615711D01*
X314239Y615658D01*
X314425Y615602D01*
X314434Y615602D01*
X314442Y615599D01*
X314633Y615583D01*
X314826Y615566D01*
X314835Y615567D01*
X314844Y615566D01*
X315033Y615588D01*
X315226Y615609D01*
X315235Y615612D01*
X315243Y615613D01*
X315426Y615673D01*
X315610Y615731D01*
X315618Y615735D01*
X315626Y615738D01*
X315795Y615833D01*
X315962Y615926D01*
X315969Y615931D01*
X315977Y615936D01*
X316122Y616062D01*
X316269Y616186D01*
X316275Y616193D01*
X316282Y616199D01*
X316399Y616351D01*
X316519Y616502D01*
X316523Y616510D01*
X316528Y616517D01*
X316615Y616691D01*
X316701Y616861D01*
X316704Y616870D01*
X316708Y616878D01*
X316758Y617066D01*
X316809Y617249D01*
X316810Y617258D01*
X316812Y617266D01*
X316839Y617597D01*
X316839Y702521D01*
X318386Y706256D01*
X321530Y709399D01*
X321530Y709400D01*
X356100Y743970D01*
X356101Y743970D01*
X359244Y747114D01*
X362979Y748661D01*
X526797Y748661D01*
X526824Y748663D01*
X526851Y748661D01*
X527024Y748683D01*
X527198Y748701D01*
X527223Y748708D01*
X527250Y748712D01*
X527416Y748767D01*
X527583Y748819D01*
X527606Y748832D01*
X527632Y748840D01*
X527783Y748927D01*
X527937Y749011D01*
X527957Y749028D01*
X527981Y749041D01*
X528234Y749256D01*
X529144Y750166D01*
X529161Y750187D01*
X529182Y750205D01*
X529288Y750342D01*
X529399Y750478D01*
X529412Y750502D01*
X529428Y750523D01*
X529506Y750680D01*
X529588Y750834D01*
X529596Y750859D01*
X529608Y750883D01*
X529653Y751053D01*
X529703Y751220D01*
X529705Y751246D01*
X529712Y751272D01*
X529739Y751603D01*
X529739Y753672D01*
X529737Y753690D01*
X529739Y753708D01*
X529718Y753890D01*
X529699Y754073D01*
X529694Y754090D01*
X529692Y754107D01*
X529635Y754282D01*
X529581Y754458D01*
X529573Y754473D01*
X529567Y754490D01*
X529477Y754650D01*
X529389Y754812D01*
X529378Y754825D01*
X529369Y754841D01*
X529249Y754980D01*
X529132Y755121D01*
X529118Y755132D01*
X529106Y755146D01*
X528961Y755258D01*
X528818Y755373D01*
X528802Y755381D01*
X528788Y755392D01*
X528623Y755474D01*
X528461Y755559D01*
X528444Y755564D01*
X528428Y755572D01*
X528249Y755619D01*
X528074Y755670D01*
X528056Y755672D01*
X528039Y755676D01*
X527708Y755703D01*
X513187Y755703D01*
X510946Y756631D01*
X509231Y758346D01*
X509002Y758901D01*
X508991Y758921D01*
X508984Y758942D01*
X508896Y759098D01*
X508811Y759256D01*
X508797Y759273D01*
X508786Y759293D01*
X508669Y759429D01*
X508555Y759567D01*
X508538Y759581D01*
X508523Y759598D01*
X508382Y759707D01*
X508242Y759820D01*
X508223Y759831D01*
X508205Y759844D01*
X508045Y759924D01*
X507886Y760007D01*
X507865Y760014D01*
X507844Y760024D01*
X507671Y760070D01*
X507499Y760120D01*
X507477Y760122D01*
X507456Y760128D01*
X507125Y760155D01*
X460682Y760155D01*
X460660Y760153D01*
X460638Y760155D01*
X460460Y760133D01*
X460281Y760115D01*
X460260Y760109D01*
X460238Y760106D01*
X460068Y760050D01*
X459897Y759997D01*
X459877Y759987D01*
X459856Y759980D01*
X459700Y759891D01*
X459543Y759805D01*
X459525Y759791D01*
X459506Y759780D01*
X459371Y759662D01*
X459233Y759548D01*
X459219Y759530D01*
X459202Y759516D01*
X459093Y759373D01*
X458981Y759234D01*
X458971Y759214D01*
X458957Y759196D01*
X458805Y758901D01*
X458369Y757846D01*
X456654Y756131D01*
X454413Y755203D01*
X431987Y755203D01*
X429746Y756131D01*
X428031Y757846D01*
X427103Y760087D01*
X427103Y778513D01*
X428031Y780754D01*
X429746Y782469D01*
X430958Y782971D01*
X431987Y783397D01*
X454413Y783397D01*
X456654Y782469D01*
X458369Y780754D01*
X458805Y779699D01*
X458816Y779679D01*
X458823Y779658D01*
X458911Y779502D01*
X458996Y779344D01*
X459010Y779327D01*
X459021Y779307D01*
X459138Y779171D01*
X459252Y779033D01*
X459269Y779019D01*
X459284Y779002D01*
X459425Y778893D01*
X459565Y778780D01*
X459585Y778769D01*
X459602Y778756D01*
X459762Y778676D01*
X459921Y778593D01*
X459943Y778586D01*
X459963Y778576D01*
X460136Y778530D01*
X460308Y778480D01*
X460330Y778478D01*
X460351Y778472D01*
X460682Y778445D01*
X507125Y778445D01*
X507147Y778447D01*
X507169Y778445D01*
X507347Y778467D01*
X507526Y778485D01*
X507547Y778491D01*
X507569Y778494D01*
X507739Y778550D01*
X507911Y778603D01*
X507930Y778613D01*
X507951Y778620D01*
X508107Y778709D01*
X508265Y778795D01*
X508282Y778809D01*
X508301Y778820D01*
X508436Y778937D01*
X508574Y779052D01*
X508588Y779070D01*
X508605Y779084D01*
X508714Y779226D01*
X508826Y779366D01*
X508836Y779386D01*
X508850Y779404D01*
X509002Y779699D01*
X509231Y780254D01*
X511160Y782182D01*
X511177Y782203D01*
X511198Y782221D01*
X511305Y782359D01*
X511415Y782494D01*
X511428Y782518D01*
X511444Y782539D01*
X511522Y782695D01*
X511604Y782850D01*
X511612Y782875D01*
X511624Y782899D01*
X511669Y783068D01*
X511719Y783235D01*
X511721Y783262D01*
X511728Y783288D01*
X511755Y783619D01*
X511755Y789919D01*
X513147Y793280D01*
X524620Y804753D01*
X527981Y806145D01*
X689919Y806145D01*
X693280Y804753D01*
X704753Y793280D01*
X706145Y789919D01*
X706145Y584981D01*
X704753Y581620D01*
X697494Y574362D01*
X697475Y574338D01*
X697451Y574317D01*
X697347Y574182D01*
X697239Y574050D01*
X697225Y574023D01*
X697206Y573998D01*
X697054Y573703D01*
X696475Y572304D01*
X693696Y569525D01*
X690065Y568021D01*
X686135Y568021D01*
X682504Y569525D01*
X679725Y572304D01*
X678221Y575935D01*
X678221Y579865D01*
X679725Y583496D01*
X682504Y586275D01*
X683903Y586854D01*
X683930Y586869D01*
X683960Y586879D01*
X684108Y586964D01*
X684258Y587044D01*
X684282Y587064D01*
X684309Y587080D01*
X684562Y587294D01*
X687260Y589993D01*
X687277Y590014D01*
X687298Y590031D01*
X687405Y590169D01*
X687515Y590304D01*
X687528Y590328D01*
X687544Y590349D01*
X687622Y590506D01*
X687704Y590660D01*
X687712Y590686D01*
X687724Y590710D01*
X687769Y590879D01*
X687819Y591046D01*
X687821Y591073D01*
X687828Y591099D01*
X687855Y591429D01*
X687855Y783471D01*
X687853Y783497D01*
X687855Y783524D01*
X687833Y783698D01*
X687815Y783871D01*
X687808Y783897D01*
X687804Y783923D01*
X687749Y784089D01*
X687697Y784256D01*
X687684Y784280D01*
X687676Y784305D01*
X687589Y784457D01*
X687505Y784610D01*
X687488Y784631D01*
X687475Y784654D01*
X687260Y784907D01*
X684907Y787260D01*
X684886Y787277D01*
X684869Y787298D01*
X684731Y787405D01*
X684596Y787515D01*
X684572Y787528D01*
X684551Y787544D01*
X684394Y787622D01*
X684240Y787704D01*
X684214Y787712D01*
X684190Y787724D01*
X684021Y787769D01*
X683854Y787819D01*
X683827Y787821D01*
X683801Y787828D01*
X683471Y787855D01*
X534429Y787855D01*
X534403Y787853D01*
X534376Y787855D01*
X534202Y787833D01*
X534029Y787815D01*
X534003Y787808D01*
X533977Y787804D01*
X533811Y787748D01*
X533644Y787697D01*
X533620Y787685D01*
X533595Y787676D01*
X533443Y787589D01*
X533290Y787505D01*
X533269Y787488D01*
X533246Y787475D01*
X532993Y787260D01*
X532097Y786364D01*
X532091Y786357D01*
X532084Y786352D01*
X531965Y786203D01*
X531842Y786053D01*
X531838Y786045D01*
X531832Y786038D01*
X531744Y785869D01*
X531653Y785697D01*
X531651Y785688D01*
X531647Y785681D01*
X531594Y785497D01*
X531538Y785311D01*
X531538Y785302D01*
X531535Y785294D01*
X531519Y785102D01*
X531502Y784910D01*
X531503Y784901D01*
X531502Y784892D01*
X531525Y784703D01*
X531545Y784510D01*
X531548Y784501D01*
X531549Y784493D01*
X531609Y784310D01*
X531667Y784126D01*
X531671Y784118D01*
X531674Y784110D01*
X531769Y783941D01*
X531862Y783774D01*
X531868Y783767D01*
X531872Y783759D01*
X531999Y783613D01*
X532122Y783467D01*
X532129Y783461D01*
X532135Y783454D01*
X532288Y783336D01*
X532438Y783217D01*
X532446Y783213D01*
X532453Y783208D01*
X532627Y783121D01*
X532797Y783035D01*
X532806Y783032D01*
X532814Y783028D01*
X533001Y782978D01*
X533185Y782927D01*
X533194Y782926D01*
X533202Y782924D01*
X533533Y782897D01*
X547613Y782897D01*
X549854Y781969D01*
X551569Y780254D01*
X552497Y778013D01*
X552497Y760587D01*
X551569Y758346D01*
X550656Y757434D01*
X550639Y757413D01*
X550618Y757395D01*
X550511Y757257D01*
X550401Y757122D01*
X550388Y757098D01*
X550372Y757077D01*
X550293Y756920D01*
X550212Y756766D01*
X550204Y756741D01*
X550192Y756717D01*
X550147Y756547D01*
X550097Y756380D01*
X550095Y756354D01*
X550088Y756328D01*
X550061Y755997D01*
X550061Y751603D01*
X550063Y751576D01*
X550061Y751549D01*
X550083Y751376D01*
X550101Y751202D01*
X550108Y751177D01*
X550112Y751150D01*
X550167Y750984D01*
X550219Y750817D01*
X550232Y750794D01*
X550240Y750768D01*
X550327Y750617D01*
X550411Y750463D01*
X550428Y750443D01*
X550441Y750419D01*
X550656Y750166D01*
X551784Y749038D01*
X551874Y748930D01*
X551891Y748915D01*
X551906Y748898D01*
X552047Y748789D01*
X552186Y748676D01*
X552206Y748665D01*
X552224Y748652D01*
X552384Y748572D01*
X552543Y748489D01*
X552564Y748482D01*
X552584Y748472D01*
X552757Y748426D01*
X552929Y748376D01*
X552951Y748374D01*
X552973Y748368D01*
X553304Y748341D01*
X555651Y748341D01*
X555651Y739518D01*
X555652Y739500D01*
X555651Y739483D01*
X555672Y739300D01*
X555691Y739118D01*
X555696Y739101D01*
X555698Y739083D01*
X555755Y738908D01*
X555809Y738733D01*
X555817Y738717D01*
X555823Y738700D01*
X555913Y738540D01*
X556000Y738379D01*
X556012Y738365D01*
X556021Y738349D01*
X556066Y738297D01*
X555981Y738192D01*
X555973Y738176D01*
X555962Y738162D01*
X555880Y737997D01*
X555795Y737834D01*
X555790Y737817D01*
X555782Y737801D01*
X555734Y737623D01*
X555684Y737448D01*
X555682Y737430D01*
X555678Y737413D01*
X555651Y737082D01*
X555651Y728259D01*
X553304Y728259D01*
X553281Y728257D01*
X553259Y728259D01*
X553081Y728237D01*
X552903Y728219D01*
X552882Y728213D01*
X552859Y728210D01*
X552689Y728154D01*
X552518Y728101D01*
X552499Y728091D01*
X552477Y728083D01*
X552321Y727995D01*
X552164Y727909D01*
X552147Y727895D01*
X552128Y727884D01*
X551992Y727766D01*
X551855Y727652D01*
X551841Y727634D01*
X551824Y727619D01*
X551766Y727544D01*
X550656Y726434D01*
X550639Y726413D01*
X550618Y726395D01*
X550511Y726257D01*
X550401Y726122D01*
X550388Y726098D01*
X550372Y726077D01*
X550294Y725920D01*
X550212Y725766D01*
X550204Y725741D01*
X550192Y725717D01*
X550147Y725547D01*
X550097Y725380D01*
X550095Y725354D01*
X550088Y725328D01*
X550061Y724997D01*
X550061Y720503D01*
X550063Y720476D01*
X550061Y720449D01*
X550083Y720276D01*
X550101Y720102D01*
X550108Y720077D01*
X550112Y720050D01*
X550167Y719884D01*
X550219Y719717D01*
X550232Y719694D01*
X550240Y719668D01*
X550327Y719517D01*
X550411Y719363D01*
X550428Y719343D01*
X550441Y719319D01*
X550656Y719066D01*
X551569Y718154D01*
X552497Y715913D01*
X552497Y698487D01*
X551569Y696246D01*
X550656Y695334D01*
X550639Y695313D01*
X550618Y695295D01*
X550511Y695157D01*
X550401Y695022D01*
X550388Y694998D01*
X550372Y694977D01*
X550293Y694820D01*
X550212Y694666D01*
X550204Y694641D01*
X550192Y694617D01*
X550147Y694447D01*
X550097Y694280D01*
X550095Y694254D01*
X550088Y694228D01*
X550061Y693897D01*
X550061Y689603D01*
X550063Y689576D01*
X550061Y689549D01*
X550083Y689375D01*
X550101Y689202D01*
X550108Y689177D01*
X550112Y689150D01*
X550167Y688984D01*
X550219Y688817D01*
X550232Y688794D01*
X550240Y688768D01*
X550327Y688617D01*
X550411Y688463D01*
X550428Y688443D01*
X550441Y688419D01*
X550656Y688166D01*
X551784Y687038D01*
X551874Y686930D01*
X551891Y686915D01*
X551906Y686898D01*
X552047Y686789D01*
X552186Y686676D01*
X552206Y686665D01*
X552224Y686652D01*
X552384Y686572D01*
X552543Y686489D01*
X552564Y686482D01*
X552584Y686472D01*
X552757Y686426D01*
X552929Y686376D01*
X552951Y686374D01*
X552973Y686368D01*
X553304Y686341D01*
X555651Y686341D01*
X555651Y677518D01*
X555652Y677500D01*
X555651Y677483D01*
X555672Y677300D01*
X555691Y677118D01*
X555696Y677101D01*
X555698Y677083D01*
X555755Y676908D01*
X555809Y676733D01*
X555817Y676717D01*
X555823Y676700D01*
X555913Y676540D01*
X556000Y676379D01*
X556012Y676365D01*
X556021Y676349D01*
X556066Y676297D01*
X555981Y676192D01*
X555973Y676176D01*
X555962Y676162D01*
X555880Y675997D01*
X555795Y675834D01*
X555790Y675817D01*
X555782Y675801D01*
X555734Y675623D01*
X555684Y675448D01*
X555682Y675430D01*
X555678Y675413D01*
X555651Y675082D01*
X555651Y666259D01*
X553304Y666259D01*
X553281Y666257D01*
X553259Y666259D01*
X553081Y666237D01*
X552903Y666219D01*
X552882Y666213D01*
X552859Y666210D01*
X552689Y666154D01*
X552518Y666101D01*
X552499Y666091D01*
X552477Y666083D01*
X552321Y665995D01*
X552164Y665909D01*
X552147Y665895D01*
X552128Y665884D01*
X551992Y665766D01*
X551855Y665652D01*
X551841Y665634D01*
X551824Y665619D01*
X551766Y665544D01*
X550656Y664434D01*
X550639Y664413D01*
X550618Y664395D01*
X550511Y664257D01*
X550401Y664122D01*
X550388Y664098D01*
X550372Y664077D01*
X550294Y663920D01*
X550212Y663766D01*
X550204Y663741D01*
X550192Y663717D01*
X550147Y663547D01*
X550097Y663380D01*
X550095Y663354D01*
X550088Y663328D01*
X550061Y662997D01*
X550061Y619394D01*
X550064Y619363D01*
X550062Y619331D01*
X550084Y619162D01*
X550101Y618993D01*
X550110Y618963D01*
X550114Y618932D01*
X550215Y618616D01*
X550797Y617213D01*
X550797Y608968D01*
X550799Y608950D01*
X550797Y608933D01*
X550818Y608750D01*
X550837Y608568D01*
X550842Y608551D01*
X550844Y608533D01*
X550857Y608492D01*
X550830Y608398D01*
X550828Y608380D01*
X550824Y608363D01*
X550797Y608032D01*
X550797Y599787D01*
X550055Y597997D01*
X550046Y597968D01*
X550032Y597940D01*
X549988Y597775D01*
X549941Y597619D01*
X548154Y595831D01*
X545913Y594903D01*
X381087Y594903D01*
X378846Y595831D01*
X377131Y597546D01*
X376203Y599787D01*
X376203Y617213D01*
X377131Y619454D01*
X378846Y621169D01*
X381087Y622097D01*
X515824Y622097D01*
X515842Y622099D01*
X515860Y622097D01*
X516042Y622118D01*
X516225Y622137D01*
X516242Y622142D01*
X516259Y622144D01*
X516434Y622201D01*
X516610Y622255D01*
X516625Y622263D01*
X516642Y622269D01*
X516802Y622359D01*
X516964Y622447D01*
X516977Y622458D01*
X516993Y622467D01*
X517132Y622587D01*
X517273Y622704D01*
X517284Y622718D01*
X517298Y622730D01*
X517410Y622875D01*
X517525Y623018D01*
X517533Y623034D01*
X517544Y623048D01*
X517626Y623213D01*
X517711Y623375D01*
X517716Y623392D01*
X517724Y623408D01*
X517771Y623587D01*
X517822Y623762D01*
X517824Y623780D01*
X517828Y623797D01*
X517855Y624128D01*
X517855Y640371D01*
X517853Y640397D01*
X517855Y640424D01*
X517833Y640598D01*
X517815Y640771D01*
X517808Y640797D01*
X517804Y640823D01*
X517749Y640989D01*
X517697Y641156D01*
X517684Y641180D01*
X517676Y641205D01*
X517589Y641357D01*
X517505Y641510D01*
X517488Y641531D01*
X517475Y641554D01*
X517260Y641807D01*
X513147Y645920D01*
X511755Y649281D01*
X511755Y692881D01*
X511753Y692908D01*
X511755Y692935D01*
X511733Y693109D01*
X511715Y693282D01*
X511708Y693307D01*
X511704Y693334D01*
X511648Y693500D01*
X511597Y693667D01*
X511584Y693690D01*
X511576Y693716D01*
X511489Y693867D01*
X511405Y694021D01*
X511388Y694041D01*
X511375Y694065D01*
X511160Y694318D01*
X509231Y696246D01*
X509002Y696801D01*
X508991Y696821D01*
X508984Y696842D01*
X508896Y696998D01*
X508811Y697156D01*
X508797Y697173D01*
X508786Y697193D01*
X508669Y697329D01*
X508555Y697467D01*
X508538Y697481D01*
X508523Y697498D01*
X508382Y697607D01*
X508242Y697720D01*
X508223Y697731D01*
X508205Y697744D01*
X508045Y697824D01*
X507886Y697907D01*
X507865Y697914D01*
X507844Y697924D01*
X507671Y697970D01*
X507499Y698020D01*
X507477Y698022D01*
X507456Y698028D01*
X507125Y698055D01*
X460682Y698055D01*
X460660Y698053D01*
X460638Y698055D01*
X460460Y698033D01*
X460281Y698015D01*
X460260Y698009D01*
X460238Y698006D01*
X460068Y697950D01*
X459897Y697897D01*
X459877Y697887D01*
X459856Y697880D01*
X459700Y697791D01*
X459543Y697705D01*
X459525Y697691D01*
X459506Y697680D01*
X459371Y697562D01*
X459233Y697448D01*
X459219Y697430D01*
X459202Y697416D01*
X459093Y697273D01*
X458981Y697134D01*
X458971Y697114D01*
X458957Y697096D01*
X458805Y696801D01*
X458369Y695746D01*
X456654Y694031D01*
X454413Y693103D01*
X431987Y693103D01*
X429746Y694031D01*
X428031Y695746D01*
X427103Y697987D01*
X427103Y716413D01*
X428031Y718654D01*
X429746Y720369D01*
X431987Y721297D01*
X454413Y721297D01*
X456654Y720369D01*
X458369Y718654D01*
X458805Y717599D01*
X458816Y717579D01*
X458823Y717558D01*
X458911Y717402D01*
X458996Y717244D01*
X459010Y717227D01*
X459021Y717207D01*
X459138Y717071D01*
X459252Y716933D01*
X459269Y716919D01*
X459284Y716902D01*
X459425Y716793D01*
X459565Y716680D01*
X459585Y716669D01*
X459602Y716656D01*
X459762Y716576D01*
X459921Y716493D01*
X459943Y716486D01*
X459963Y716476D01*
X460136Y716430D01*
X460308Y716380D01*
X460330Y716378D01*
X460351Y716372D01*
X460682Y716345D01*
X507125Y716345D01*
X507147Y716347D01*
X507169Y716345D01*
X507347Y716367D01*
X507526Y716385D01*
X507547Y716391D01*
X507569Y716394D01*
X507739Y716450D01*
X507911Y716503D01*
X507930Y716513D01*
X507951Y716520D01*
X508107Y716609D01*
X508265Y716695D01*
X508282Y716709D01*
X508301Y716720D01*
X508436Y716837D01*
X508574Y716952D01*
X508588Y716970D01*
X508605Y716984D01*
X508714Y717126D01*
X508826Y717266D01*
X508836Y717286D01*
X508850Y717304D01*
X509002Y717599D01*
X509231Y718154D01*
X510946Y719869D01*
X511268Y720002D01*
X513187Y720797D01*
X527708Y720797D01*
X527726Y720799D01*
X527744Y720797D01*
X527926Y720818D01*
X528109Y720837D01*
X528126Y720842D01*
X528143Y720844D01*
X528318Y720901D01*
X528494Y720955D01*
X528509Y720963D01*
X528526Y720969D01*
X528686Y721059D01*
X528848Y721147D01*
X528861Y721158D01*
X528877Y721167D01*
X529016Y721287D01*
X529157Y721404D01*
X529168Y721418D01*
X529182Y721430D01*
X529294Y721575D01*
X529409Y721718D01*
X529417Y721734D01*
X529428Y721748D01*
X529510Y721913D01*
X529595Y722075D01*
X529600Y722092D01*
X529608Y722108D01*
X529655Y722287D01*
X529706Y722462D01*
X529708Y722480D01*
X529712Y722497D01*
X529739Y722828D01*
X529739Y724997D01*
X529737Y725024D01*
X529739Y725051D01*
X529717Y725224D01*
X529699Y725398D01*
X529692Y725423D01*
X529688Y725450D01*
X529633Y725616D01*
X529581Y725783D01*
X529568Y725806D01*
X529560Y725832D01*
X529473Y725983D01*
X529389Y726137D01*
X529372Y726157D01*
X529359Y726181D01*
X529144Y726434D01*
X528163Y727415D01*
X528150Y727440D01*
X528135Y727457D01*
X528124Y727477D01*
X528007Y727612D01*
X527893Y727750D01*
X527876Y727765D01*
X527861Y727782D01*
X527720Y727891D01*
X527581Y728004D01*
X527561Y728015D01*
X527543Y728028D01*
X527383Y728108D01*
X527224Y728191D01*
X527203Y728198D01*
X527182Y728208D01*
X527009Y728254D01*
X526838Y728304D01*
X526815Y728306D01*
X526794Y728312D01*
X526463Y728339D01*
X370050Y728339D01*
X370023Y728337D01*
X369997Y728339D01*
X369823Y728317D01*
X369649Y728299D01*
X369624Y728292D01*
X369597Y728288D01*
X369432Y728233D01*
X369265Y728181D01*
X369241Y728168D01*
X369216Y728160D01*
X369064Y728073D01*
X368910Y727989D01*
X368890Y727972D01*
X368867Y727959D01*
X368614Y727744D01*
X337756Y696886D01*
X337739Y696866D01*
X337718Y696848D01*
X337611Y696710D01*
X337501Y696575D01*
X337488Y696551D01*
X337472Y696530D01*
X337394Y696373D01*
X337312Y696219D01*
X337304Y696194D01*
X337292Y696169D01*
X337247Y696000D01*
X337197Y695833D01*
X337195Y695807D01*
X337188Y695781D01*
X337161Y695450D01*
X337161Y637287D01*
X337162Y637278D01*
X337161Y637269D01*
X337181Y637079D01*
X337201Y636886D01*
X337203Y636877D01*
X337204Y636869D01*
X337262Y636685D01*
X337319Y636501D01*
X337323Y636493D01*
X337326Y636485D01*
X337419Y636316D01*
X337511Y636147D01*
X337516Y636140D01*
X337521Y636132D01*
X337645Y635986D01*
X337768Y635838D01*
X337775Y635832D01*
X337781Y635825D01*
X337932Y635706D01*
X338082Y635586D01*
X338090Y635581D01*
X338097Y635576D01*
X338270Y635488D01*
X338439Y635400D01*
X338448Y635398D01*
X338456Y635393D01*
X338643Y635341D01*
X338826Y635289D01*
X338835Y635288D01*
X338844Y635285D01*
X339036Y635271D01*
X339228Y635256D01*
X339236Y635257D01*
X339245Y635256D01*
X339437Y635280D01*
X339627Y635303D01*
X339636Y635305D01*
X339645Y635307D01*
X339827Y635368D01*
X340010Y635427D01*
X340018Y635432D01*
X340026Y635435D01*
X340194Y635531D01*
X340361Y635625D01*
X340368Y635631D01*
X340375Y635636D01*
X340628Y635850D01*
X340947Y636169D01*
X343187Y637097D01*
X360613Y637097D01*
X362854Y636169D01*
X364569Y634454D01*
X365497Y632213D01*
X365497Y616787D01*
X365078Y615777D01*
X365071Y615752D01*
X365059Y615728D01*
X365013Y615559D01*
X364962Y615392D01*
X364959Y615365D01*
X364952Y615339D01*
X364940Y615165D01*
X364924Y614991D01*
X364927Y614964D01*
X364925Y614938D01*
X364947Y614765D01*
X364965Y614591D01*
X364973Y614565D01*
X364977Y614539D01*
X365078Y614223D01*
X365497Y613213D01*
X365497Y597787D01*
X364569Y595546D01*
X362854Y593831D01*
X362299Y593602D01*
X362279Y593591D01*
X362258Y593584D01*
X362102Y593496D01*
X361944Y593411D01*
X361927Y593397D01*
X361907Y593386D01*
X361771Y593269D01*
X361633Y593155D01*
X361619Y593138D01*
X361602Y593123D01*
X361493Y592982D01*
X361380Y592842D01*
X361369Y592823D01*
X361356Y592805D01*
X361276Y592645D01*
X361193Y592486D01*
X361186Y592465D01*
X361176Y592444D01*
X361130Y592271D01*
X361080Y592099D01*
X361078Y592077D01*
X361072Y592056D01*
X361045Y591725D01*
X361045Y584281D01*
X360659Y583349D01*
X360655Y583336D01*
X360649Y583325D01*
X360597Y583144D01*
X360542Y582964D01*
X360541Y582951D01*
X360537Y582938D01*
X360522Y582749D01*
X360504Y582563D01*
X360506Y582550D01*
X360504Y582536D01*
X360526Y582350D01*
X360546Y582163D01*
X360550Y582150D01*
X360551Y582137D01*
X360609Y581959D01*
X360666Y581778D01*
X360672Y581767D01*
X360676Y581754D01*
X360769Y581590D01*
X360859Y581425D01*
X360868Y581415D01*
X360874Y581403D01*
X360997Y581261D01*
X361118Y581117D01*
X361129Y581109D01*
X361137Y581098D01*
X361285Y580984D01*
X361433Y580866D01*
X361445Y580860D01*
X361455Y580852D01*
X361623Y580768D01*
X361791Y580682D01*
X361804Y580678D01*
X361816Y580672D01*
X361998Y580623D01*
X362178Y580572D01*
X362192Y580571D01*
X362205Y580568D01*
X362535Y580541D01*
X367401Y580541D01*
X367401Y573468D01*
X367402Y573450D01*
X367401Y573433D01*
X367422Y573250D01*
X367441Y573068D01*
X367446Y573051D01*
X367448Y573033D01*
X367505Y572858D01*
X367559Y572683D01*
X367567Y572667D01*
X367573Y572650D01*
X367663Y572490D01*
X367750Y572329D01*
X367762Y572315D01*
X367771Y572299D01*
X367891Y572160D01*
X368008Y572019D01*
X368022Y572008D01*
X368034Y571995D01*
X368179Y571882D01*
X368322Y571767D01*
X368338Y571759D01*
X368352Y571748D01*
X368517Y571666D01*
X368679Y571582D01*
X368696Y571577D01*
X368712Y571569D01*
X368891Y571521D01*
X369066Y571470D01*
X369084Y571469D01*
X369101Y571464D01*
X369432Y571437D01*
X369978Y571437D01*
X370002Y571430D01*
X370020Y571428D01*
X370037Y571424D01*
X370368Y571397D01*
X378613Y571397D01*
X380403Y570655D01*
X380432Y570646D01*
X380460Y570632D01*
X380625Y570588D01*
X380781Y570541D01*
X382569Y568754D01*
X383497Y566513D01*
X383497Y452487D01*
X382569Y450246D01*
X380854Y448531D01*
X378613Y447603D01*
X361187Y447603D01*
X358946Y448531D01*
X357231Y450246D01*
X356303Y452487D01*
X356303Y472924D01*
X356301Y472942D01*
X356303Y472960D01*
X356282Y473141D01*
X356263Y473325D01*
X356258Y473342D01*
X356256Y473359D01*
X356199Y473534D01*
X356145Y473710D01*
X356137Y473725D01*
X356131Y473742D01*
X356041Y473902D01*
X355953Y474064D01*
X355942Y474077D01*
X355933Y474093D01*
X355813Y474232D01*
X355696Y474373D01*
X355682Y474384D01*
X355670Y474398D01*
X355525Y474510D01*
X355382Y474625D01*
X355366Y474633D01*
X355352Y474644D01*
X355187Y474726D01*
X355025Y474811D01*
X355008Y474816D01*
X354992Y474824D01*
X354813Y474871D01*
X354638Y474922D01*
X354620Y474924D01*
X354603Y474928D01*
X354272Y474955D01*
X307729Y474955D01*
X307703Y474953D01*
X307676Y474955D01*
X307502Y474933D01*
X307329Y474915D01*
X307303Y474908D01*
X307277Y474904D01*
X307111Y474849D01*
X306944Y474797D01*
X306920Y474784D01*
X306895Y474776D01*
X306743Y474689D01*
X306590Y474605D01*
X306569Y474588D01*
X306546Y474575D01*
X306293Y474360D01*
X301840Y469907D01*
X301823Y469886D01*
X301802Y469869D01*
X301695Y469731D01*
X301585Y469596D01*
X301572Y469572D01*
X301556Y469551D01*
X301478Y469394D01*
X301396Y469240D01*
X301388Y469214D01*
X301376Y469190D01*
X301331Y469021D01*
X301281Y468854D01*
X301279Y468827D01*
X301272Y468801D01*
X301245Y468471D01*
X301245Y465529D01*
X301246Y465520D01*
X301245Y465511D01*
X301265Y465321D01*
X301285Y465128D01*
X301287Y465119D01*
X301288Y465110D01*
X301346Y464928D01*
X301403Y464743D01*
X301407Y464735D01*
X301410Y464727D01*
X301503Y464558D01*
X301595Y464389D01*
X301600Y464382D01*
X301605Y464374D01*
X301730Y464226D01*
X301852Y464080D01*
X301859Y464074D01*
X301865Y464067D01*
X302018Y463946D01*
X302166Y463827D01*
X302174Y463823D01*
X302181Y463818D01*
X302354Y463730D01*
X302523Y463642D01*
X302532Y463639D01*
X302540Y463635D01*
X302727Y463583D01*
X302910Y463530D01*
X302919Y463530D01*
X302928Y463527D01*
X303119Y463513D01*
X303312Y463498D01*
X303321Y463499D01*
X303329Y463498D01*
X303521Y463522D01*
X303711Y463545D01*
X303720Y463547D01*
X303729Y463548D01*
X303912Y463610D01*
X304094Y463669D01*
X304102Y463674D01*
X304111Y463677D01*
X304277Y463772D01*
X304445Y463867D01*
X304452Y463873D01*
X304459Y463878D01*
X304585Y463984D01*
X309473Y466009D01*
X314727Y466009D01*
X319582Y463998D01*
X323298Y460282D01*
X325309Y455427D01*
X325309Y450173D01*
X323298Y445318D01*
X320924Y442944D01*
X320907Y442923D01*
X320886Y442906D01*
X320779Y442768D01*
X320669Y442632D01*
X320656Y442609D01*
X320640Y442587D01*
X320562Y442430D01*
X320480Y442276D01*
X320472Y442251D01*
X320460Y442227D01*
X320415Y442057D01*
X320365Y441891D01*
X320363Y441864D01*
X320356Y441838D01*
X320329Y441507D01*
X320329Y427593D01*
X320331Y427566D01*
X320329Y427539D01*
X320351Y427365D01*
X320369Y427192D01*
X320376Y427166D01*
X320380Y427140D01*
X320435Y426974D01*
X320487Y426807D01*
X320500Y426783D01*
X320508Y426758D01*
X320595Y426606D01*
X320679Y426453D01*
X320696Y426433D01*
X320709Y426409D01*
X320924Y426156D01*
X323298Y423782D01*
X323345Y423744D01*
X323385Y423700D01*
X323500Y423617D01*
X323610Y423527D01*
X323663Y423499D01*
X323711Y423463D01*
X323840Y423404D01*
X323965Y423338D01*
X324023Y423321D01*
X324077Y423296D01*
X324216Y423264D01*
X324351Y423223D01*
X324411Y423218D01*
X324469Y423204D01*
X324611Y423200D01*
X324752Y423187D01*
X324812Y423193D01*
X324872Y423192D01*
X325011Y423215D01*
X325152Y423230D01*
X325210Y423248D01*
X325269Y423258D01*
X325401Y423309D01*
X325536Y423352D01*
X325589Y423381D01*
X325645Y423402D01*
X325817Y423507D01*
X325889Y423547D01*
X325905Y423561D01*
X325928Y423575D01*
X327141Y424456D01*
X328495Y425146D01*
X329940Y425615D01*
X330169Y425651D01*
X330169Y416200D01*
X330169Y406749D01*
X329940Y406785D01*
X328495Y407254D01*
X327141Y407944D01*
X325928Y408825D01*
X325877Y408855D01*
X325829Y408893D01*
X325703Y408957D01*
X325581Y409028D01*
X325524Y409048D01*
X325471Y409075D01*
X325334Y409113D01*
X325200Y409159D01*
X325140Y409167D01*
X325083Y409183D01*
X324941Y409193D01*
X324801Y409212D01*
X324741Y409208D01*
X324681Y409212D01*
X324540Y409195D01*
X324399Y409185D01*
X324341Y409170D01*
X324282Y409162D01*
X324147Y409117D01*
X324011Y409080D01*
X323957Y409053D01*
X323900Y409034D01*
X323777Y408963D01*
X323650Y408900D01*
X323603Y408863D01*
X323551Y408833D01*
X323398Y408703D01*
X323333Y408652D01*
X323319Y408636D01*
X323298Y408618D01*
X322124Y407444D01*
X322113Y407430D01*
X322099Y407419D01*
X321985Y407275D01*
X321869Y407133D01*
X321861Y407117D01*
X321850Y407103D01*
X321766Y406938D01*
X321680Y406777D01*
X321675Y406760D01*
X321667Y406744D01*
X321618Y406566D01*
X321566Y406391D01*
X321564Y406373D01*
X321559Y406356D01*
X321546Y406173D01*
X321529Y405990D01*
X321531Y405972D01*
X321530Y405955D01*
X321553Y405773D01*
X321573Y405590D01*
X321578Y405573D01*
X321580Y405555D01*
X321639Y405382D01*
X321694Y405206D01*
X321703Y405190D01*
X321709Y405173D01*
X321800Y405014D01*
X321889Y404854D01*
X321901Y404840D01*
X321909Y404825D01*
X322124Y404572D01*
X328972Y397724D01*
X328993Y397707D01*
X329010Y397686D01*
X329148Y397579D01*
X329284Y397469D01*
X329307Y397456D01*
X329328Y397440D01*
X329485Y397362D01*
X329639Y397280D01*
X329665Y397272D01*
X329689Y397260D01*
X329858Y397215D01*
X330025Y397165D01*
X330052Y397163D01*
X330078Y397156D01*
X330408Y397129D01*
X357817Y397129D01*
X360805Y395891D01*
X397822Y358874D01*
X397842Y358858D01*
X397858Y358839D01*
X397859Y358838D01*
X397860Y358836D01*
X397998Y358729D01*
X398134Y358619D01*
X398157Y358606D01*
X398178Y358590D01*
X398335Y358512D01*
X398489Y358430D01*
X398515Y358422D01*
X398539Y358410D01*
X398708Y358365D01*
X398875Y358315D01*
X398902Y358313D01*
X398928Y358306D01*
X399258Y358279D01*
X491360Y358279D01*
X491387Y358281D01*
X491413Y358279D01*
X491587Y358301D01*
X491761Y358319D01*
X491786Y358326D01*
X491813Y358330D01*
X491978Y358385D01*
X492146Y358437D01*
X492169Y358450D01*
X492194Y358458D01*
X492346Y358545D01*
X492500Y358629D01*
X492520Y358646D01*
X492543Y358659D01*
X492796Y358874D01*
X499083Y365161D01*
X499089Y365168D01*
X499096Y365173D01*
X499216Y365323D01*
X499338Y365472D01*
X499343Y365480D01*
X499348Y365487D01*
X499437Y365657D01*
X499527Y365828D01*
X499530Y365837D01*
X499534Y365844D01*
X499587Y366029D01*
X499642Y366214D01*
X499643Y366223D01*
X499645Y366231D01*
X499661Y366423D01*
X499678Y366615D01*
X499677Y366624D01*
X499678Y366633D01*
X499656Y366822D01*
X499635Y367015D01*
X499632Y367024D01*
X499631Y367032D01*
X499572Y367214D01*
X499513Y367399D01*
X499509Y367407D01*
X499506Y367415D01*
X499411Y367584D01*
X499319Y367751D01*
X499313Y367758D01*
X499308Y367766D01*
X499182Y367912D01*
X499058Y368058D01*
X499051Y368064D01*
X499045Y368071D01*
X498894Y368188D01*
X498742Y368308D01*
X498734Y368312D01*
X498727Y368317D01*
X498555Y368403D01*
X498383Y368490D01*
X498375Y368493D01*
X498367Y368497D01*
X498180Y368547D01*
X497995Y368598D01*
X497986Y368599D01*
X497978Y368601D01*
X497647Y368628D01*
X492266Y368628D01*
X492243Y368635D01*
X492215Y368638D01*
X492189Y368645D01*
X492015Y368657D01*
X491842Y368674D01*
X491815Y368671D01*
X491787Y368673D01*
X491615Y368650D01*
X491441Y368632D01*
X491429Y368628D01*
X485766Y368628D01*
X485743Y368635D01*
X485715Y368638D01*
X485689Y368645D01*
X485515Y368657D01*
X485342Y368674D01*
X485315Y368671D01*
X485287Y368673D01*
X485115Y368650D01*
X484941Y368632D01*
X484929Y368628D01*
X479363Y368628D01*
X477122Y369556D01*
X475192Y371487D01*
X475102Y371595D01*
X475085Y371610D01*
X475070Y371627D01*
X474929Y371736D01*
X474790Y371849D01*
X474770Y371860D01*
X474752Y371873D01*
X474592Y371953D01*
X474433Y372036D01*
X474412Y372043D01*
X474392Y372053D01*
X474219Y372099D01*
X474047Y372149D01*
X474025Y372151D01*
X474003Y372157D01*
X473772Y372176D01*
X473095Y372357D01*
X472516Y372692D01*
X472043Y373165D01*
X471708Y373744D01*
X471535Y374390D01*
X471535Y377647D01*
X472448Y377647D01*
X472466Y377648D01*
X472484Y377647D01*
X472666Y377668D01*
X472849Y377686D01*
X472866Y377692D01*
X472883Y377694D01*
X473058Y377751D01*
X473234Y377805D01*
X473249Y377813D01*
X473266Y377819D01*
X473426Y377909D01*
X473588Y377996D01*
X473601Y378008D01*
X473617Y378017D01*
X473756Y378137D01*
X473897Y378254D01*
X473908Y378268D01*
X473922Y378280D01*
X474034Y378424D01*
X474149Y378568D01*
X474157Y378584D01*
X474168Y378598D01*
X474250Y378763D01*
X474335Y378925D01*
X474340Y378942D01*
X474348Y378958D01*
X474395Y379136D01*
X474446Y379312D01*
X474448Y379330D01*
X474452Y379347D01*
X474479Y379678D01*
X474478Y379696D01*
X474479Y379713D01*
X474479Y379714D01*
X474458Y379896D01*
X474439Y380079D01*
X474434Y380096D01*
X474432Y380114D01*
X474375Y380288D01*
X474321Y380464D01*
X474313Y380479D01*
X474307Y380496D01*
X474217Y380657D01*
X474129Y380818D01*
X474118Y380831D01*
X474109Y380847D01*
X473989Y380986D01*
X473872Y381127D01*
X473858Y381138D01*
X473846Y381152D01*
X473701Y381264D01*
X473558Y381379D01*
X473542Y381388D01*
X473528Y381398D01*
X473363Y381480D01*
X473201Y381565D01*
X473184Y381570D01*
X473168Y381578D01*
X472989Y381626D01*
X472814Y381676D01*
X472796Y381678D01*
X472779Y381682D01*
X472448Y381709D01*
X471499Y381709D01*
X471495Y381749D01*
X471490Y381766D01*
X471488Y381783D01*
X471431Y381958D01*
X471377Y382134D01*
X471369Y382149D01*
X471363Y382166D01*
X471273Y382326D01*
X471185Y382488D01*
X471174Y382501D01*
X471165Y382517D01*
X471045Y382656D01*
X470928Y382797D01*
X470914Y382808D01*
X470902Y382822D01*
X470757Y382934D01*
X470614Y383049D01*
X470598Y383057D01*
X470584Y383068D01*
X470419Y383150D01*
X470257Y383235D01*
X470240Y383240D01*
X470224Y383248D01*
X470045Y383295D01*
X469870Y383346D01*
X469852Y383348D01*
X469835Y383352D01*
X469504Y383379D01*
X454884Y383379D01*
X452083Y384539D01*
X444339Y392283D01*
X443179Y395084D01*
X443179Y407872D01*
X443177Y407890D01*
X443179Y407908D01*
X443158Y408090D01*
X443139Y408273D01*
X443134Y408290D01*
X443132Y408307D01*
X443075Y408482D01*
X443021Y408658D01*
X443013Y408673D01*
X443007Y408690D01*
X442917Y408850D01*
X442829Y409012D01*
X442818Y409025D01*
X442809Y409041D01*
X442689Y409180D01*
X442572Y409321D01*
X442558Y409332D01*
X442546Y409346D01*
X442401Y409458D01*
X442258Y409573D01*
X442242Y409581D01*
X442228Y409592D01*
X442063Y409674D01*
X441901Y409759D01*
X441884Y409764D01*
X441868Y409772D01*
X441689Y409819D01*
X441514Y409870D01*
X441496Y409872D01*
X441479Y409876D01*
X441148Y409903D01*
X423876Y409903D01*
X423858Y409901D01*
X423840Y409903D01*
X423658Y409882D01*
X423475Y409863D01*
X423458Y409858D01*
X423441Y409856D01*
X423266Y409799D01*
X423090Y409745D01*
X423075Y409737D01*
X423058Y409731D01*
X422898Y409641D01*
X422736Y409553D01*
X422723Y409542D01*
X422707Y409533D01*
X422568Y409413D01*
X422427Y409296D01*
X422416Y409282D01*
X422402Y409270D01*
X422290Y409125D01*
X422175Y408982D01*
X422167Y408966D01*
X422156Y408952D01*
X422074Y408787D01*
X421989Y408625D01*
X421984Y408608D01*
X421976Y408592D01*
X421928Y408413D01*
X421878Y408238D01*
X421876Y408220D01*
X421872Y408203D01*
X421845Y407872D01*
X421845Y394501D01*
X421848Y394470D01*
X421846Y394439D01*
X421868Y394269D01*
X421885Y394100D01*
X421894Y394071D01*
X421898Y394039D01*
X421999Y393724D01*
X423329Y390514D01*
X423329Y386286D01*
X421711Y382379D01*
X418721Y379389D01*
X414814Y377771D01*
X410586Y377771D01*
X406679Y379389D01*
X403689Y382379D01*
X402071Y386286D01*
X402071Y390514D01*
X403401Y393724D01*
X403410Y393753D01*
X403424Y393781D01*
X403468Y393946D01*
X403517Y394109D01*
X403520Y394140D01*
X403528Y394170D01*
X403555Y394501D01*
X403555Y407872D01*
X403553Y407890D01*
X403555Y407908D01*
X403534Y408090D01*
X403515Y408273D01*
X403510Y408290D01*
X403508Y408307D01*
X403451Y408482D01*
X403397Y408658D01*
X403389Y408673D01*
X403383Y408690D01*
X403293Y408850D01*
X403205Y409012D01*
X403194Y409025D01*
X403185Y409041D01*
X403065Y409180D01*
X402948Y409321D01*
X402934Y409332D01*
X402922Y409346D01*
X402777Y409458D01*
X402634Y409573D01*
X402618Y409581D01*
X402604Y409592D01*
X402439Y409674D01*
X402277Y409759D01*
X402260Y409764D01*
X402244Y409772D01*
X402065Y409819D01*
X401890Y409870D01*
X401872Y409872D01*
X401855Y409876D01*
X401524Y409903D01*
X381087Y409903D01*
X378846Y410831D01*
X377131Y412546D01*
X376902Y413101D01*
X376891Y413121D01*
X376884Y413142D01*
X376796Y413298D01*
X376711Y413456D01*
X376697Y413473D01*
X376686Y413493D01*
X376569Y413629D01*
X376455Y413767D01*
X376438Y413781D01*
X376423Y413798D01*
X376282Y413907D01*
X376142Y414020D01*
X376123Y414031D01*
X376105Y414044D01*
X375945Y414124D01*
X375786Y414207D01*
X375765Y414214D01*
X375744Y414224D01*
X375571Y414270D01*
X375399Y414320D01*
X375377Y414322D01*
X375356Y414328D01*
X375025Y414355D01*
X368941Y414355D01*
X368910Y414352D01*
X368879Y414354D01*
X368709Y414332D01*
X368540Y414315D01*
X368511Y414306D01*
X368480Y414302D01*
X368164Y414201D01*
X366765Y413621D01*
X362835Y413621D01*
X359204Y415125D01*
X356425Y417904D01*
X354921Y421535D01*
X354921Y425465D01*
X356425Y429096D01*
X359204Y431875D01*
X362835Y433379D01*
X366765Y433379D01*
X368164Y432799D01*
X368194Y432790D01*
X368222Y432776D01*
X368386Y432732D01*
X368549Y432683D01*
X368580Y432680D01*
X368610Y432672D01*
X368941Y432645D01*
X375025Y432645D01*
X375047Y432647D01*
X375069Y432645D01*
X375247Y432667D01*
X375426Y432685D01*
X375447Y432691D01*
X375469Y432694D01*
X375639Y432750D01*
X375811Y432803D01*
X375830Y432813D01*
X375851Y432820D01*
X376007Y432909D01*
X376165Y432995D01*
X376182Y433009D01*
X376201Y433020D01*
X376336Y433137D01*
X376474Y433252D01*
X376488Y433270D01*
X376505Y433284D01*
X376614Y433426D01*
X376726Y433566D01*
X376736Y433586D01*
X376750Y433604D01*
X376902Y433899D01*
X377131Y434454D01*
X378846Y436169D01*
X381087Y437097D01*
X545913Y437097D01*
X548154Y436169D01*
X549940Y434382D01*
X549941Y434379D01*
X549950Y434350D01*
X549954Y434319D01*
X550055Y434003D01*
X550797Y432213D01*
X550797Y423968D01*
X550799Y423950D01*
X550797Y423933D01*
X550818Y423750D01*
X550837Y423568D01*
X550842Y423551D01*
X550844Y423533D01*
X550857Y423492D01*
X550830Y423398D01*
X550828Y423380D01*
X550824Y423363D01*
X550797Y423032D01*
X550797Y414787D01*
X550055Y412997D01*
X550046Y412968D01*
X550032Y412940D01*
X549988Y412775D01*
X549941Y412619D01*
X547916Y410594D01*
X547899Y410573D01*
X547878Y410555D01*
X547771Y410417D01*
X547661Y410282D01*
X547648Y410258D01*
X547632Y410237D01*
X547554Y410080D01*
X547472Y409926D01*
X547464Y409901D01*
X547452Y409877D01*
X547407Y409707D01*
X547357Y409540D01*
X547355Y409514D01*
X547348Y409488D01*
X547321Y409157D01*
X547321Y390884D01*
X546161Y388083D01*
X541117Y383039D01*
X538316Y381879D01*
X524252Y381879D01*
X524234Y381877D01*
X524216Y381879D01*
X524034Y381858D01*
X523851Y381839D01*
X523834Y381834D01*
X523817Y381832D01*
X523642Y381775D01*
X523466Y381721D01*
X523451Y381713D01*
X523434Y381707D01*
X523274Y381617D01*
X523112Y381529D01*
X523099Y381518D01*
X523083Y381509D01*
X522944Y381389D01*
X522803Y381272D01*
X522792Y381258D01*
X522778Y381246D01*
X522666Y381101D01*
X522551Y380958D01*
X522543Y380942D01*
X522532Y380928D01*
X522450Y380763D01*
X522365Y380601D01*
X522360Y380584D01*
X522352Y380568D01*
X522305Y380389D01*
X522254Y380214D01*
X522252Y380196D01*
X522248Y380179D01*
X522221Y379848D01*
X522221Y368384D01*
X521061Y365583D01*
X518631Y363154D01*
X517224Y361746D01*
X517219Y361741D01*
X517214Y361736D01*
X517213Y361735D01*
X517211Y361734D01*
X517090Y361583D01*
X516969Y361435D01*
X516964Y361427D01*
X516959Y361420D01*
X516870Y361250D01*
X516780Y361079D01*
X516777Y361070D01*
X516773Y361063D01*
X516720Y360878D01*
X516665Y360693D01*
X516664Y360684D01*
X516662Y360676D01*
X516646Y360485D01*
X516629Y360292D01*
X516630Y360283D01*
X516629Y360274D01*
X516651Y360085D01*
X516672Y359892D01*
X516675Y359883D01*
X516676Y359875D01*
X516735Y359693D01*
X516794Y359508D01*
X516798Y359500D01*
X516801Y359492D01*
X516895Y359325D01*
X516988Y359156D01*
X516994Y359149D01*
X516999Y359141D01*
X517124Y358996D01*
X517249Y358849D01*
X517256Y358843D01*
X517262Y358836D01*
X517412Y358720D01*
X517565Y358599D01*
X517573Y358595D01*
X517580Y358590D01*
X517751Y358505D01*
X517924Y358417D01*
X517932Y358414D01*
X517940Y358410D01*
X518126Y358361D01*
X518312Y358309D01*
X518321Y358308D01*
X518329Y358306D01*
X518660Y358279D01*
X529467Y358279D01*
X532455Y357041D01*
X541491Y348005D01*
X542729Y345017D01*
X542729Y342696D01*
X542731Y342674D01*
X542729Y342651D01*
X542751Y342474D01*
X542769Y342295D01*
X542775Y342274D01*
X542778Y342252D01*
X542834Y342082D01*
X542887Y341910D01*
X542897Y341891D01*
X542904Y341870D01*
X542993Y341714D01*
X543079Y341556D01*
X543093Y341539D01*
X543104Y341520D01*
X543222Y341384D01*
X543336Y341247D01*
X543354Y341233D01*
X543368Y341216D01*
X543510Y341107D01*
X543650Y340995D01*
X543670Y340984D01*
X543688Y340971D01*
X543983Y340819D01*
X545554Y340169D01*
X547269Y338454D01*
X547538Y337803D01*
X547544Y337791D01*
X547549Y337778D01*
X547639Y337614D01*
X547728Y337448D01*
X547737Y337438D01*
X547743Y337426D01*
X547865Y337283D01*
X547985Y337138D01*
X547995Y337129D01*
X548004Y337119D01*
X548151Y337002D01*
X548297Y336884D01*
X548309Y336878D01*
X548320Y336869D01*
X548488Y336784D01*
X548654Y336697D01*
X548667Y336693D01*
X548679Y336687D01*
X548860Y336637D01*
X549040Y336584D01*
X549054Y336583D01*
X549067Y336579D01*
X549254Y336565D01*
X549441Y336549D01*
X549455Y336551D01*
X549468Y336550D01*
X549655Y336573D01*
X549841Y336594D01*
X549854Y336599D01*
X549868Y336600D01*
X550046Y336660D01*
X550225Y336718D01*
X550236Y336724D01*
X550249Y336729D01*
X550412Y336822D01*
X550576Y336914D01*
X550586Y336923D01*
X550598Y336930D01*
X550678Y336997D01*
X551319Y337368D01*
X551965Y337541D01*
X556551Y337541D01*
X556551Y329718D01*
X556552Y329700D01*
X556551Y329683D01*
X556572Y329500D01*
X556591Y329318D01*
X556596Y329301D01*
X556598Y329283D01*
X556655Y329108D01*
X556709Y328933D01*
X556717Y328917D01*
X556723Y328900D01*
X556813Y328740D01*
X556900Y328579D01*
X556912Y328565D01*
X556921Y328549D01*
X557041Y328410D01*
X557158Y328269D01*
X557172Y328258D01*
X557184Y328245D01*
X557329Y328132D01*
X557472Y328017D01*
X557488Y328009D01*
X557502Y327998D01*
X557667Y327916D01*
X557829Y327832D01*
X557846Y327827D01*
X557862Y327819D01*
X558041Y327771D01*
X558216Y327720D01*
X558234Y327719D01*
X558251Y327714D01*
X558582Y327687D01*
X558987Y327687D01*
X558987Y327282D01*
X558989Y327264D01*
X558987Y327246D01*
X559009Y327064D01*
X559027Y326881D01*
X559032Y326864D01*
X559034Y326847D01*
X559091Y326672D01*
X559145Y326496D01*
X559153Y326481D01*
X559159Y326464D01*
X559249Y326304D01*
X559337Y326142D01*
X559348Y326129D01*
X559357Y326113D01*
X559477Y325974D01*
X559595Y325833D01*
X559608Y325822D01*
X559620Y325808D01*
X559765Y325696D01*
X559908Y325581D01*
X559924Y325573D01*
X559938Y325562D01*
X560103Y325480D01*
X560266Y325395D01*
X560283Y325390D01*
X560299Y325382D01*
X560477Y325334D01*
X560652Y325284D01*
X560670Y325282D01*
X560687Y325278D01*
X561018Y325251D01*
X569841Y325251D01*
X569841Y322904D01*
X569843Y322881D01*
X569841Y322859D01*
X569863Y322681D01*
X569881Y322503D01*
X569887Y322482D01*
X569890Y322459D01*
X569946Y322289D01*
X569999Y322118D01*
X570009Y322099D01*
X570017Y322077D01*
X570105Y321921D01*
X570191Y321764D01*
X570205Y321747D01*
X570216Y321728D01*
X570334Y321592D01*
X570448Y321455D01*
X570466Y321441D01*
X570481Y321424D01*
X570556Y321366D01*
X570914Y321008D01*
X570927Y320997D01*
X570939Y320983D01*
X571083Y320870D01*
X571225Y320753D01*
X571241Y320745D01*
X571255Y320734D01*
X571418Y320651D01*
X571581Y320565D01*
X571598Y320560D01*
X571614Y320552D01*
X571791Y320502D01*
X571967Y320450D01*
X571984Y320448D01*
X572002Y320444D01*
X572185Y320430D01*
X572368Y320414D01*
X572385Y320415D01*
X572403Y320414D01*
X572586Y320437D01*
X572768Y320457D01*
X572785Y320462D01*
X572803Y320465D01*
X572977Y320523D01*
X573152Y320578D01*
X573167Y320587D01*
X573184Y320593D01*
X573344Y320684D01*
X573504Y320773D01*
X573518Y320785D01*
X573533Y320794D01*
X573786Y321008D01*
X574162Y321384D01*
X574270Y321474D01*
X574285Y321491D01*
X574302Y321506D01*
X574411Y321647D01*
X574524Y321786D01*
X574535Y321806D01*
X574548Y321824D01*
X574628Y321984D01*
X574711Y322143D01*
X574718Y322164D01*
X574728Y322184D01*
X574774Y322357D01*
X574824Y322529D01*
X574826Y322551D01*
X574832Y322573D01*
X574859Y322904D01*
X574859Y325251D01*
X583682Y325251D01*
X583700Y325252D01*
X583717Y325251D01*
X583900Y325272D01*
X584082Y325291D01*
X584099Y325296D01*
X584117Y325298D01*
X584292Y325355D01*
X584467Y325409D01*
X584483Y325417D01*
X584500Y325423D01*
X584660Y325513D01*
X584821Y325600D01*
X584835Y325612D01*
X584851Y325621D01*
X584990Y325741D01*
X585131Y325858D01*
X585142Y325872D01*
X585155Y325884D01*
X585268Y326029D01*
X585383Y326172D01*
X585391Y326188D01*
X585402Y326202D01*
X585484Y326367D01*
X585568Y326529D01*
X585573Y326546D01*
X585581Y326562D01*
X585629Y326741D01*
X585680Y326916D01*
X585681Y326934D01*
X585686Y326951D01*
X585713Y327282D01*
X585713Y327687D01*
X586118Y327687D01*
X586136Y327689D01*
X586154Y327687D01*
X586336Y327709D01*
X586519Y327727D01*
X586536Y327732D01*
X586553Y327734D01*
X586728Y327791D01*
X586904Y327845D01*
X586919Y327853D01*
X586936Y327859D01*
X587096Y327949D01*
X587258Y328037D01*
X587271Y328048D01*
X587287Y328057D01*
X587426Y328177D01*
X587567Y328295D01*
X587578Y328308D01*
X587592Y328320D01*
X587704Y328465D01*
X587819Y328608D01*
X587827Y328624D01*
X587838Y328638D01*
X587920Y328803D01*
X588005Y328966D01*
X588010Y328983D01*
X588018Y328999D01*
X588065Y329177D01*
X588116Y329352D01*
X588118Y329370D01*
X588122Y329387D01*
X588149Y329718D01*
X588149Y337541D01*
X592735Y337541D01*
X593381Y337368D01*
X593960Y337033D01*
X594433Y336560D01*
X594768Y335981D01*
X594830Y335748D01*
X594879Y335619D01*
X594919Y335488D01*
X594949Y335431D01*
X594972Y335371D01*
X595045Y335255D01*
X595111Y335134D01*
X595152Y335085D01*
X595186Y335030D01*
X595281Y334930D01*
X595368Y334825D01*
X595418Y334784D01*
X595463Y334738D01*
X595575Y334658D01*
X595682Y334572D01*
X595739Y334543D01*
X595792Y334506D01*
X595918Y334450D01*
X596039Y334387D01*
X596101Y334369D01*
X596160Y334343D01*
X596294Y334313D01*
X596426Y334275D01*
X596491Y334270D01*
X596553Y334256D01*
X596690Y334254D01*
X596828Y334243D01*
X596892Y334250D01*
X596956Y334249D01*
X597091Y334274D01*
X597227Y334290D01*
X597289Y334309D01*
X597352Y334321D01*
X597480Y334372D01*
X597610Y334414D01*
X597666Y334446D01*
X597726Y334470D01*
X597841Y334545D01*
X597961Y334612D01*
X598009Y334654D01*
X598063Y334689D01*
X598162Y334786D01*
X598266Y334875D01*
X598305Y334926D01*
X598351Y334971D01*
X598428Y335085D01*
X598512Y335194D01*
X598541Y335251D01*
X598577Y335304D01*
X598630Y335431D01*
X598692Y335554D01*
X598708Y335616D01*
X598733Y335676D01*
X598760Y335810D01*
X598796Y335943D01*
X598802Y336017D01*
X598813Y336070D01*
X598813Y336150D01*
X598823Y336274D01*
X598823Y370223D01*
X600525Y374331D01*
X617519Y391325D01*
X621627Y393027D01*
X642059Y393027D01*
X642085Y393029D01*
X642112Y393027D01*
X642286Y393049D01*
X642459Y393067D01*
X642485Y393074D01*
X642512Y393078D01*
X642677Y393133D01*
X642844Y393185D01*
X642868Y393198D01*
X642893Y393206D01*
X643045Y393293D01*
X643198Y393377D01*
X643219Y393394D01*
X643242Y393407D01*
X643495Y393622D01*
X646582Y396708D01*
X652269Y399064D01*
X653024Y399377D01*
X659996Y399377D01*
X666438Y396708D01*
X671368Y391778D01*
X674037Y385336D01*
X674037Y378364D01*
X671368Y371922D01*
X666438Y366992D01*
X659996Y364323D01*
X653024Y364323D01*
X646582Y366992D01*
X643495Y370078D01*
X643474Y370095D01*
X643457Y370116D01*
X643319Y370223D01*
X643184Y370333D01*
X643160Y370346D01*
X643139Y370362D01*
X642982Y370440D01*
X642828Y370522D01*
X642802Y370530D01*
X642778Y370542D01*
X642609Y370587D01*
X642442Y370637D01*
X642415Y370639D01*
X642390Y370646D01*
X642059Y370673D01*
X629321Y370673D01*
X629294Y370671D01*
X629268Y370673D01*
X629094Y370651D01*
X628920Y370633D01*
X628895Y370626D01*
X628868Y370622D01*
X628703Y370567D01*
X628535Y370515D01*
X628512Y370502D01*
X628487Y370494D01*
X628335Y370407D01*
X628181Y370323D01*
X628161Y370306D01*
X628138Y370293D01*
X627885Y370078D01*
X621772Y363965D01*
X621755Y363945D01*
X621734Y363927D01*
X621627Y363789D01*
X621517Y363654D01*
X621504Y363630D01*
X621488Y363609D01*
X621410Y363452D01*
X621328Y363298D01*
X621320Y363273D01*
X621308Y363249D01*
X621263Y363079D01*
X621213Y362912D01*
X621211Y362886D01*
X621204Y362860D01*
X621177Y362529D01*
X621177Y321887D01*
X621179Y321860D01*
X621177Y321833D01*
X621199Y321659D01*
X621217Y321486D01*
X621224Y321461D01*
X621228Y321434D01*
X621284Y321268D01*
X621335Y321101D01*
X621348Y321078D01*
X621356Y321052D01*
X621443Y320901D01*
X621527Y320747D01*
X621544Y320727D01*
X621557Y320703D01*
X621772Y320450D01*
X622769Y319453D01*
X623697Y317213D01*
X623697Y301787D01*
X623278Y300777D01*
X623271Y300752D01*
X623259Y300728D01*
X623212Y300559D01*
X623162Y300392D01*
X623159Y300365D01*
X623152Y300339D01*
X623140Y300164D01*
X623124Y299991D01*
X623127Y299965D01*
X623125Y299938D01*
X623147Y299764D01*
X623165Y299591D01*
X623173Y299565D01*
X623177Y299539D01*
X623278Y299223D01*
X623697Y298213D01*
X623697Y282787D01*
X622769Y280546D01*
X621872Y279650D01*
X621855Y279629D01*
X621834Y279611D01*
X621727Y279473D01*
X621617Y279338D01*
X621604Y279314D01*
X621588Y279293D01*
X621510Y279136D01*
X621428Y278982D01*
X621420Y278957D01*
X621408Y278933D01*
X621363Y278763D01*
X621313Y278596D01*
X621311Y278570D01*
X621304Y278544D01*
X621277Y278213D01*
X621277Y271787D01*
X621279Y271760D01*
X621277Y271733D01*
X621299Y271560D01*
X621317Y271386D01*
X621324Y271361D01*
X621328Y271334D01*
X621383Y271168D01*
X621435Y271001D01*
X621448Y270978D01*
X621456Y270952D01*
X621543Y270801D01*
X621627Y270647D01*
X621644Y270627D01*
X621657Y270603D01*
X621872Y270350D01*
X622769Y269454D01*
X623697Y267213D01*
X623697Y253708D01*
X623699Y253690D01*
X623697Y253672D01*
X623718Y253490D01*
X623737Y253307D01*
X623742Y253290D01*
X623744Y253273D01*
X623801Y253098D01*
X623855Y252922D01*
X623863Y252907D01*
X623869Y252890D01*
X623959Y252730D01*
X624047Y252568D01*
X624058Y252555D01*
X624067Y252539D01*
X624187Y252400D01*
X624304Y252259D01*
X624318Y252248D01*
X624330Y252234D01*
X624475Y252122D01*
X624618Y252007D01*
X624634Y251999D01*
X624648Y251988D01*
X624813Y251906D01*
X624975Y251821D01*
X624992Y251816D01*
X625008Y251808D01*
X625187Y251761D01*
X625362Y251710D01*
X625380Y251708D01*
X625397Y251704D01*
X625728Y251677D01*
X637629Y251677D01*
X637656Y251679D01*
X637682Y251677D01*
X637856Y251699D01*
X638030Y251717D01*
X638055Y251724D01*
X638082Y251728D01*
X638248Y251784D01*
X638415Y251835D01*
X638438Y251848D01*
X638464Y251856D01*
X638615Y251943D01*
X638769Y252027D01*
X638789Y252044D01*
X638812Y252057D01*
X639065Y252272D01*
X644738Y257945D01*
X644755Y257965D01*
X644776Y257983D01*
X644883Y258121D01*
X644993Y258256D01*
X645006Y258280D01*
X645022Y258301D01*
X645100Y258458D01*
X645182Y258612D01*
X645190Y258637D01*
X645202Y258661D01*
X645247Y258831D01*
X645297Y258998D01*
X645299Y259024D01*
X645306Y259050D01*
X645333Y259381D01*
X645333Y300089D01*
X645331Y300115D01*
X645333Y300142D01*
X645311Y300316D01*
X645293Y300489D01*
X645286Y300515D01*
X645282Y300542D01*
X645227Y300707D01*
X645175Y300874D01*
X645162Y300898D01*
X645154Y300923D01*
X645067Y301075D01*
X644983Y301228D01*
X644966Y301249D01*
X644953Y301272D01*
X644738Y301525D01*
X641652Y304612D01*
X638983Y311054D01*
X638983Y318026D01*
X641652Y324468D01*
X646582Y329398D01*
X653024Y332067D01*
X659996Y332067D01*
X666438Y329398D01*
X671368Y324468D01*
X674037Y318026D01*
X674037Y311054D01*
X671368Y304612D01*
X668282Y301525D01*
X668265Y301504D01*
X668244Y301487D01*
X668137Y301349D01*
X668027Y301214D01*
X668014Y301190D01*
X667998Y301169D01*
X667920Y301012D01*
X667838Y300858D01*
X667830Y300832D01*
X667818Y300808D01*
X667773Y300639D01*
X667723Y300472D01*
X667721Y300445D01*
X667714Y300420D01*
X667687Y300089D01*
X667687Y251687D01*
X665985Y247579D01*
X652861Y234455D01*
X652861Y234454D01*
X649431Y231025D01*
X645323Y229323D01*
X622387Y229323D01*
X622360Y229321D01*
X622333Y229323D01*
X622160Y229301D01*
X621986Y229283D01*
X621961Y229276D01*
X621934Y229272D01*
X621768Y229217D01*
X621601Y229165D01*
X621578Y229152D01*
X621552Y229144D01*
X621401Y229057D01*
X621247Y228973D01*
X621227Y228956D01*
X621203Y228943D01*
X621089Y228846D01*
X618813Y227903D01*
X601387Y227903D01*
X599146Y228831D01*
X597431Y230546D01*
X596503Y232787D01*
X596503Y248213D01*
X596648Y248563D01*
X596652Y248576D01*
X596658Y248587D01*
X596710Y248768D01*
X596765Y248948D01*
X596766Y248961D01*
X596770Y248974D01*
X596785Y249163D01*
X596803Y249349D01*
X596801Y249362D01*
X596803Y249376D01*
X596781Y249562D01*
X596761Y249749D01*
X596757Y249762D01*
X596756Y249775D01*
X596698Y249953D01*
X596641Y250134D01*
X596635Y250145D01*
X596631Y250158D01*
X596538Y250322D01*
X596448Y250487D01*
X596439Y250497D01*
X596433Y250509D01*
X596309Y250652D01*
X596189Y250795D01*
X596179Y250803D01*
X596170Y250814D01*
X596021Y250929D01*
X595874Y251046D01*
X595862Y251052D01*
X595852Y251060D01*
X595684Y251144D01*
X595516Y251230D01*
X595503Y251234D01*
X595491Y251240D01*
X595309Y251289D01*
X595129Y251340D01*
X595115Y251341D01*
X595102Y251344D01*
X594772Y251371D01*
X592108Y251371D01*
X592082Y251369D01*
X592055Y251371D01*
X591881Y251349D01*
X591708Y251331D01*
X591682Y251324D01*
X591656Y251320D01*
X591490Y251265D01*
X591323Y251213D01*
X591299Y251200D01*
X591274Y251192D01*
X591122Y251105D01*
X590969Y251021D01*
X590948Y251004D01*
X590925Y250991D01*
X590672Y250776D01*
X580905Y241009D01*
X579219Y240311D01*
X577917Y239771D01*
X521701Y239771D01*
X521619Y239763D01*
X521537Y239765D01*
X521419Y239743D01*
X521300Y239731D01*
X521222Y239707D01*
X521141Y239693D01*
X521030Y239648D01*
X520915Y239613D01*
X520843Y239574D01*
X520767Y239544D01*
X520667Y239478D01*
X520561Y239421D01*
X520498Y239369D01*
X520429Y239324D01*
X520344Y239240D01*
X520252Y239164D01*
X520201Y239100D01*
X520142Y239042D01*
X520075Y238943D01*
X520000Y238850D01*
X519962Y238777D01*
X519916Y238709D01*
X519869Y238599D01*
X519814Y238493D01*
X519792Y238414D01*
X519760Y238338D01*
X519736Y238221D01*
X519703Y238106D01*
X519696Y238024D01*
X519680Y237943D01*
X519680Y237824D01*
X519670Y237704D01*
X519680Y237623D01*
X519680Y237541D01*
X519707Y237390D01*
X519717Y237305D01*
X519730Y237266D01*
X519739Y237214D01*
X519841Y236834D01*
X519841Y231031D01*
X514050Y231031D01*
X514033Y231030D01*
X514015Y231031D01*
X513832Y231010D01*
X513650Y230991D01*
X513633Y230986D01*
X513615Y230984D01*
X513440Y230927D01*
X513265Y230873D01*
X513249Y230865D01*
X513232Y230859D01*
X513072Y230769D01*
X512911Y230682D01*
X512897Y230670D01*
X512882Y230661D01*
X512742Y230541D01*
X512602Y230424D01*
X512601Y230424D01*
X512601Y230423D01*
X512590Y230410D01*
X512577Y230398D01*
X512576Y230398D01*
X512464Y230253D01*
X512349Y230110D01*
X512340Y230094D01*
X512330Y230080D01*
X512248Y229915D01*
X512163Y229752D01*
X512158Y229735D01*
X512150Y229719D01*
X512102Y229541D01*
X512052Y229365D01*
X512050Y229348D01*
X512046Y229330D01*
X512019Y229000D01*
X512019Y218959D01*
X511504Y218959D01*
X511481Y218957D01*
X511459Y218959D01*
X511281Y218937D01*
X511103Y218919D01*
X511082Y218913D01*
X511059Y218910D01*
X510889Y218854D01*
X510718Y218801D01*
X510699Y218791D01*
X510677Y218783D01*
X510521Y218695D01*
X510364Y218609D01*
X510347Y218595D01*
X510328Y218584D01*
X510192Y218466D01*
X510055Y218352D01*
X510041Y218334D01*
X510024Y218319D01*
X509966Y218244D01*
X508054Y216331D01*
X507098Y215936D01*
X505813Y215403D01*
X496887Y215403D01*
X495777Y215863D01*
X495752Y215871D01*
X495728Y215883D01*
X495559Y215929D01*
X495392Y215979D01*
X495365Y215982D01*
X495339Y215989D01*
X495165Y216001D01*
X494991Y216018D01*
X494965Y216015D01*
X494938Y216017D01*
X494763Y215994D01*
X494591Y215976D01*
X494565Y215968D01*
X494539Y215965D01*
X494223Y215863D01*
X493113Y215403D01*
X484187Y215403D01*
X483077Y215863D01*
X483052Y215871D01*
X483028Y215883D01*
X482859Y215929D01*
X482692Y215979D01*
X482665Y215982D01*
X482639Y215989D01*
X482465Y216001D01*
X482291Y216018D01*
X482265Y216015D01*
X482238Y216017D01*
X482063Y215994D01*
X481891Y215976D01*
X481865Y215968D01*
X481839Y215965D01*
X481523Y215863D01*
X480413Y215403D01*
X471487Y215403D01*
G37*
%LPD*%
G36*
X73776Y10183D02*
X73776Y10183D01*
X73923Y10198D01*
X74072Y10205D01*
X74124Y10218D01*
X74176Y10223D01*
X74318Y10266D01*
X74463Y10303D01*
X74511Y10326D01*
X74561Y10341D01*
X74692Y10412D01*
X74826Y10476D01*
X74869Y10508D01*
X74915Y10533D01*
X75029Y10628D01*
X75148Y10717D01*
X75184Y10757D01*
X75224Y10791D01*
X75318Y10907D01*
X75417Y11018D01*
X75443Y11063D01*
X75477Y11105D01*
X75545Y11237D01*
X75620Y11365D01*
X75638Y11415D01*
X75662Y11462D01*
X75703Y11605D01*
X75752Y11746D01*
X75759Y11798D01*
X75773Y11849D01*
X75785Y11997D01*
X75805Y12145D01*
X75802Y12197D01*
X75806Y12250D01*
X75789Y12398D01*
X75779Y12546D01*
X75765Y12597D01*
X75759Y12650D01*
X75713Y12791D01*
X75674Y12935D01*
X75650Y12983D01*
X75634Y13033D01*
X75561Y13162D01*
X75495Y13295D01*
X75462Y13337D01*
X75436Y13383D01*
X75339Y13496D01*
X75247Y13613D01*
X75207Y13648D01*
X75173Y13688D01*
X75055Y13779D01*
X74943Y13876D01*
X74891Y13907D01*
X74855Y13935D01*
X74779Y13973D01*
X74656Y14044D01*
X71673Y15481D01*
X68958Y17187D01*
X66452Y19185D01*
X64185Y21452D01*
X62187Y23958D01*
X60481Y26673D01*
X59090Y29561D01*
X58031Y32587D01*
X57318Y35712D01*
X57236Y36437D01*
X83468Y36437D01*
X83486Y36439D01*
X83503Y36437D01*
X83686Y36458D01*
X83868Y36477D01*
X83886Y36482D01*
X83903Y36484D01*
X84078Y36541D01*
X84253Y36595D01*
X84269Y36603D01*
X84286Y36609D01*
X84446Y36699D01*
X84607Y36787D01*
X84621Y36798D01*
X84637Y36807D01*
X84776Y36927D01*
X84917Y37044D01*
X84928Y37058D01*
X84941Y37070D01*
X85054Y37215D01*
X85169Y37358D01*
X85177Y37374D01*
X85188Y37388D01*
X85270Y37553D01*
X85355Y37715D01*
X85359Y37732D01*
X85367Y37749D01*
X85415Y37927D01*
X85466Y38102D01*
X85467Y38120D01*
X85472Y38137D01*
X85499Y38468D01*
X85499Y40501D01*
X85501Y40501D01*
X85501Y38468D01*
X85503Y38450D01*
X85501Y38432D01*
X85523Y38250D01*
X85541Y38067D01*
X85546Y38050D01*
X85548Y38033D01*
X85605Y37858D01*
X85659Y37682D01*
X85667Y37667D01*
X85673Y37650D01*
X85763Y37490D01*
X85851Y37328D01*
X85862Y37315D01*
X85871Y37299D01*
X85991Y37160D01*
X86108Y37019D01*
X86122Y37008D01*
X86134Y36995D01*
X86279Y36882D01*
X86422Y36767D01*
X86438Y36759D01*
X86452Y36748D01*
X86617Y36666D01*
X86780Y36581D01*
X86797Y36576D01*
X86813Y36568D01*
X86991Y36521D01*
X87166Y36470D01*
X87184Y36468D01*
X87201Y36464D01*
X87532Y36437D01*
X113764Y36437D01*
X113682Y35712D01*
X112969Y32587D01*
X111910Y29561D01*
X110519Y26673D01*
X108813Y23958D01*
X106815Y21452D01*
X104548Y19185D01*
X102042Y17187D01*
X99327Y15481D01*
X96358Y14051D01*
X96231Y13973D01*
X96099Y13902D01*
X96059Y13869D01*
X96015Y13841D01*
X95905Y13740D01*
X95790Y13644D01*
X95758Y13604D01*
X95719Y13568D01*
X95631Y13447D01*
X95538Y13331D01*
X95514Y13284D01*
X95483Y13242D01*
X95421Y13106D01*
X95353Y12973D01*
X95338Y12923D01*
X95316Y12875D01*
X95283Y12730D01*
X95241Y12586D01*
X95237Y12534D01*
X95225Y12483D01*
X95221Y12334D01*
X95209Y12185D01*
X95215Y12133D01*
X95213Y12081D01*
X95238Y11934D01*
X95256Y11785D01*
X95272Y11735D01*
X95281Y11684D01*
X95334Y11544D01*
X95381Y11402D01*
X95406Y11357D01*
X95425Y11308D01*
X95505Y11182D01*
X95579Y11052D01*
X95613Y11012D01*
X95641Y10968D01*
X95744Y10861D01*
X95842Y10747D01*
X95883Y10715D01*
X95919Y10677D01*
X96042Y10592D01*
X96160Y10500D01*
X96207Y10477D01*
X96250Y10447D01*
X96387Y10388D01*
X96521Y10321D01*
X96571Y10308D01*
X96619Y10287D01*
X96765Y10256D01*
X96909Y10217D01*
X96969Y10212D01*
X97013Y10203D01*
X97098Y10202D01*
X97240Y10190D01*
X380001Y10275D01*
X380018Y10276D01*
X380036Y10275D01*
X380218Y10296D01*
X380401Y10315D01*
X380418Y10320D01*
X380435Y10322D01*
X380611Y10379D01*
X380786Y10433D01*
X380801Y10441D01*
X380818Y10447D01*
X380979Y10538D01*
X381140Y10625D01*
X381153Y10636D01*
X381169Y10645D01*
X381308Y10765D01*
X381449Y10883D01*
X381460Y10896D01*
X381474Y10908D01*
X381586Y11053D01*
X381702Y11197D01*
X381710Y11212D01*
X381720Y11226D01*
X381802Y11390D01*
X381887Y11554D01*
X381892Y11571D01*
X381900Y11586D01*
X381948Y11765D01*
X381998Y11941D01*
X382000Y11958D01*
X382004Y11975D01*
X382031Y12306D01*
X382031Y144159D01*
X395486Y157613D01*
X395500Y157631D01*
X395517Y157645D01*
X395628Y157787D01*
X395741Y157925D01*
X395752Y157945D01*
X395765Y157962D01*
X395846Y158123D01*
X395930Y158281D01*
X395936Y158302D01*
X395946Y158322D01*
X395994Y158496D01*
X396045Y158667D01*
X396047Y158689D01*
X396053Y158711D01*
X396065Y158889D01*
X396081Y159068D01*
X396079Y159090D01*
X396080Y159112D01*
X396057Y159289D01*
X396038Y159468D01*
X396031Y159489D01*
X396028Y159511D01*
X395926Y159827D01*
X395873Y159956D01*
X395863Y159975D01*
X395856Y159996D01*
X395768Y160152D01*
X395683Y160310D01*
X395669Y160328D01*
X395658Y160347D01*
X395647Y160359D01*
X395641Y160415D01*
X395636Y160433D01*
X395634Y160452D01*
X395536Y160769D01*
X395536Y160770D01*
X395528Y160784D01*
X395523Y160800D01*
X395523Y160801D01*
X395435Y160963D01*
X395350Y161127D01*
X395339Y161140D01*
X395331Y161155D01*
X395214Y161296D01*
X395097Y161440D01*
X395084Y161451D01*
X395074Y161464D01*
X394930Y161580D01*
X394788Y161698D01*
X394773Y161706D01*
X394760Y161717D01*
X394596Y161802D01*
X394434Y161889D01*
X394417Y161894D01*
X394402Y161902D01*
X394225Y161953D01*
X394049Y162007D01*
X394032Y162009D01*
X394016Y162013D01*
X393831Y162029D01*
X393648Y162047D01*
X393631Y162045D01*
X393614Y162046D01*
X393431Y162025D01*
X393247Y162006D01*
X393231Y162001D01*
X393214Y161999D01*
X393039Y161942D01*
X392863Y161888D01*
X392848Y161880D01*
X392832Y161875D01*
X392670Y161784D01*
X392509Y161696D01*
X392496Y161685D01*
X392481Y161677D01*
X392341Y161556D01*
X392200Y161438D01*
X392189Y161425D01*
X392176Y161414D01*
X392063Y161268D01*
X392016Y161209D01*
X390065Y161209D01*
X389419Y161382D01*
X388840Y161717D01*
X388736Y161821D01*
X388722Y161832D01*
X388711Y161846D01*
X388567Y161960D01*
X388425Y162076D01*
X388409Y162084D01*
X388395Y162095D01*
X388231Y162179D01*
X388069Y162264D01*
X388052Y162269D01*
X388036Y162277D01*
X387859Y162327D01*
X387683Y162379D01*
X387665Y162381D01*
X387648Y162385D01*
X387465Y162399D01*
X387282Y162415D01*
X387264Y162413D01*
X387247Y162415D01*
X387065Y162392D01*
X386882Y162372D01*
X386865Y162367D01*
X386847Y162364D01*
X386673Y162306D01*
X386498Y162251D01*
X386482Y162242D01*
X386465Y162236D01*
X386306Y162144D01*
X386146Y162056D01*
X386132Y162044D01*
X386117Y162035D01*
X385864Y161820D01*
X385760Y161717D01*
X385181Y161382D01*
X384535Y161209D01*
X382981Y161209D01*
X382981Y170719D01*
X392940Y170719D01*
X392958Y170720D01*
X392976Y170719D01*
X393158Y170740D01*
X393341Y170758D01*
X393358Y170764D01*
X393375Y170766D01*
X393550Y170823D01*
X393726Y170877D01*
X393741Y170885D01*
X393758Y170891D01*
X393918Y170981D01*
X394080Y171068D01*
X394093Y171080D01*
X394109Y171089D01*
X394248Y171209D01*
X394389Y171326D01*
X394400Y171340D01*
X394414Y171352D01*
X394526Y171497D01*
X394641Y171640D01*
X394649Y171656D01*
X394660Y171670D01*
X394742Y171835D01*
X394827Y171997D01*
X394832Y172014D01*
X394840Y172030D01*
X394887Y172208D01*
X394938Y172384D01*
X394940Y172402D01*
X394944Y172419D01*
X394971Y172750D01*
X394970Y172768D01*
X394971Y172785D01*
X394971Y172786D01*
X394950Y172968D01*
X394931Y173151D01*
X394926Y173168D01*
X394924Y173186D01*
X394867Y173360D01*
X394813Y173536D01*
X394805Y173551D01*
X394799Y173568D01*
X394709Y173729D01*
X394621Y173890D01*
X394610Y173903D01*
X394601Y173919D01*
X394481Y174058D01*
X394364Y174199D01*
X394350Y174210D01*
X394338Y174224D01*
X394193Y174336D01*
X394050Y174451D01*
X394034Y174460D01*
X394020Y174470D01*
X393855Y174552D01*
X393693Y174637D01*
X393676Y174642D01*
X393660Y174650D01*
X393481Y174698D01*
X393306Y174748D01*
X393288Y174750D01*
X393271Y174754D01*
X392940Y174781D01*
X382981Y174781D01*
X382981Y184291D01*
X384535Y184291D01*
X385181Y184118D01*
X385760Y183783D01*
X385864Y183680D01*
X385877Y183668D01*
X385889Y183655D01*
X386034Y183540D01*
X386175Y183424D01*
X386191Y183416D01*
X386205Y183405D01*
X386369Y183322D01*
X386531Y183236D01*
X386548Y183231D01*
X386564Y183223D01*
X386741Y183173D01*
X386917Y183121D01*
X386934Y183119D01*
X386952Y183115D01*
X387135Y183101D01*
X387318Y183085D01*
X387335Y183087D01*
X387353Y183085D01*
X387536Y183108D01*
X387718Y183128D01*
X387735Y183133D01*
X387753Y183136D01*
X387927Y183194D01*
X388102Y183249D01*
X388117Y183258D01*
X388134Y183264D01*
X388294Y183356D01*
X388454Y183444D01*
X388468Y183456D01*
X388483Y183465D01*
X388736Y183679D01*
X388840Y183783D01*
X389419Y184118D01*
X390065Y184291D01*
X392010Y184291D01*
X392108Y184177D01*
X392226Y184036D01*
X392239Y184025D01*
X392250Y184012D01*
X392396Y183899D01*
X392540Y183783D01*
X392555Y183776D01*
X392568Y183765D01*
X392734Y183683D01*
X392897Y183598D01*
X392913Y183593D01*
X392929Y183586D01*
X393107Y183538D01*
X393284Y183487D01*
X393301Y183485D01*
X393317Y183481D01*
X393501Y183469D01*
X393685Y183454D01*
X393702Y183456D01*
X393719Y183455D01*
X393901Y183479D01*
X394085Y183501D01*
X394101Y183506D01*
X394118Y183508D01*
X394292Y183568D01*
X394468Y183625D01*
X394483Y183634D01*
X394499Y183639D01*
X394658Y183733D01*
X394819Y183823D01*
X394831Y183834D01*
X394846Y183843D01*
X394984Y183966D01*
X395123Y184086D01*
X395134Y184100D01*
X395146Y184111D01*
X395257Y184259D01*
X395370Y184405D01*
X395378Y184420D01*
X395388Y184433D01*
X395536Y184730D01*
X395536Y184731D01*
X395541Y184749D01*
X395549Y184765D01*
X395550Y184766D01*
X395597Y184943D01*
X395648Y185118D01*
X395649Y185136D01*
X395654Y185155D01*
X395681Y185485D01*
X395681Y186003D01*
X395693Y186166D01*
X395709Y186357D01*
X395708Y186366D01*
X395709Y186375D01*
X395684Y186568D01*
X395662Y186757D01*
X395659Y186766D01*
X395658Y186775D01*
X395597Y186957D01*
X395537Y187140D01*
X395533Y187148D01*
X395530Y187156D01*
X395434Y187322D01*
X395339Y187491D01*
X395334Y187497D01*
X395329Y187505D01*
X395114Y187758D01*
X381436Y201436D01*
X381416Y201453D01*
X381398Y201474D01*
X381260Y201581D01*
X381125Y201691D01*
X381101Y201704D01*
X381080Y201720D01*
X380923Y201798D01*
X380769Y201880D01*
X380744Y201888D01*
X380720Y201900D01*
X380550Y201945D01*
X380383Y201995D01*
X380357Y201997D01*
X380331Y202004D01*
X380000Y202031D01*
X12192Y202031D01*
X12174Y202029D01*
X12156Y202031D01*
X11974Y202010D01*
X11791Y201991D01*
X11774Y201986D01*
X11757Y201984D01*
X11582Y201927D01*
X11406Y201873D01*
X11391Y201865D01*
X11374Y201859D01*
X11214Y201769D01*
X11052Y201681D01*
X11039Y201670D01*
X11023Y201661D01*
X10884Y201541D01*
X10743Y201424D01*
X10732Y201410D01*
X10718Y201398D01*
X10606Y201253D01*
X10491Y201110D01*
X10483Y201094D01*
X10472Y201080D01*
X10390Y200915D01*
X10305Y200753D01*
X10300Y200736D01*
X10292Y200720D01*
X10245Y200541D01*
X10194Y200366D01*
X10192Y200348D01*
X10188Y200331D01*
X10161Y200000D01*
X10161Y12196D01*
X10163Y12178D01*
X10161Y12159D01*
X10183Y11977D01*
X10201Y11795D01*
X10206Y11778D01*
X10208Y11760D01*
X10265Y11585D01*
X10319Y11410D01*
X10327Y11394D01*
X10333Y11377D01*
X10423Y11217D01*
X10511Y11056D01*
X10522Y11042D01*
X10531Y11026D01*
X10652Y10887D01*
X10768Y10747D01*
X10782Y10736D01*
X10794Y10722D01*
X10940Y10609D01*
X11082Y10494D01*
X11098Y10486D01*
X11112Y10475D01*
X11278Y10393D01*
X11439Y10309D01*
X11457Y10304D01*
X11473Y10296D01*
X11651Y10248D01*
X11826Y10198D01*
X11844Y10196D01*
X11862Y10191D01*
X12193Y10164D01*
X73776Y10183D01*
G37*
G36*
X185027Y627971D02*
X185027Y627971D01*
X185053Y627969D01*
X185227Y627991D01*
X185401Y628009D01*
X185426Y628017D01*
X185453Y628020D01*
X185618Y628076D01*
X185786Y628127D01*
X185809Y628140D01*
X185834Y628148D01*
X185986Y628235D01*
X186140Y628319D01*
X186160Y628336D01*
X186183Y628349D01*
X186436Y628564D01*
X206436Y648564D01*
X206453Y648584D01*
X206474Y648602D01*
X206581Y648740D01*
X206691Y648875D01*
X206704Y648899D01*
X206720Y648920D01*
X206798Y649077D01*
X206880Y649231D01*
X206888Y649256D01*
X206900Y649281D01*
X206945Y649450D01*
X206995Y649617D01*
X206997Y649643D01*
X207004Y649669D01*
X207031Y650000D01*
X207031Y805000D01*
X207029Y805027D01*
X207031Y805053D01*
X207009Y805227D01*
X206991Y805401D01*
X206984Y805426D01*
X206980Y805453D01*
X206924Y805619D01*
X206873Y805786D01*
X206860Y805809D01*
X206852Y805834D01*
X206765Y805986D01*
X206681Y806140D01*
X206664Y806160D01*
X206651Y806183D01*
X206436Y806436D01*
X193571Y819302D01*
X193550Y819319D01*
X193532Y819340D01*
X193394Y819447D01*
X193259Y819557D01*
X193235Y819570D01*
X193214Y819586D01*
X193057Y819664D01*
X192903Y819746D01*
X192878Y819753D01*
X192853Y819765D01*
X192684Y819811D01*
X192518Y819860D01*
X192491Y819863D01*
X192464Y819870D01*
X192134Y819897D01*
X111070Y819873D01*
X111061Y819872D01*
X111052Y819873D01*
X110860Y819852D01*
X110669Y819833D01*
X110661Y819830D01*
X110652Y819829D01*
X110469Y819771D01*
X110284Y819714D01*
X110277Y819710D01*
X110268Y819708D01*
X110099Y819614D01*
X109930Y819522D01*
X109924Y819517D01*
X109916Y819513D01*
X109769Y819388D01*
X109621Y819265D01*
X109616Y819258D01*
X109609Y819252D01*
X109490Y819101D01*
X109369Y818951D01*
X109365Y818943D01*
X109359Y818936D01*
X109272Y818765D01*
X109183Y818593D01*
X109181Y818585D01*
X109177Y818577D01*
X109125Y818391D01*
X109072Y818206D01*
X109071Y818198D01*
X109069Y818190D01*
X109055Y817996D01*
X109039Y817805D01*
X109040Y817797D01*
X109040Y817788D01*
X109064Y817596D01*
X109086Y817405D01*
X109089Y817397D01*
X109090Y817389D01*
X109152Y817206D01*
X109211Y817023D01*
X109216Y817015D01*
X109218Y817007D01*
X109315Y816839D01*
X109409Y816672D01*
X109415Y816666D01*
X109419Y816658D01*
X109634Y816405D01*
X114536Y811503D01*
X119296Y803257D01*
X121761Y794061D01*
X121761Y784539D01*
X119296Y775343D01*
X114536Y767097D01*
X112252Y764813D01*
X112241Y764799D01*
X112227Y764788D01*
X112113Y764644D01*
X111997Y764502D01*
X111989Y764486D01*
X111978Y764472D01*
X111894Y764308D01*
X111808Y764146D01*
X111803Y764129D01*
X111795Y764113D01*
X111746Y763936D01*
X111694Y763760D01*
X111692Y763742D01*
X111687Y763725D01*
X111674Y763542D01*
X111657Y763359D01*
X111659Y763341D01*
X111658Y763323D01*
X111681Y763141D01*
X111701Y762959D01*
X111706Y762942D01*
X111708Y762924D01*
X111766Y762750D01*
X111822Y762575D01*
X111831Y762559D01*
X111836Y762542D01*
X111928Y762383D01*
X112017Y762223D01*
X112028Y762209D01*
X112037Y762193D01*
X112252Y761940D01*
X119121Y755072D01*
X124636Y745519D01*
X127491Y734865D01*
X127491Y723835D01*
X124636Y713181D01*
X119121Y703628D01*
X112252Y696760D01*
X112241Y696746D01*
X112227Y696734D01*
X112114Y696591D01*
X111997Y696448D01*
X111989Y696432D01*
X111978Y696418D01*
X111894Y696254D01*
X111808Y696092D01*
X111803Y696075D01*
X111795Y696059D01*
X111746Y695882D01*
X111694Y695706D01*
X111692Y695689D01*
X111687Y695671D01*
X111674Y695488D01*
X111657Y695305D01*
X111659Y695288D01*
X111658Y695270D01*
X111681Y695088D01*
X111701Y694905D01*
X111706Y694888D01*
X111708Y694870D01*
X111767Y694697D01*
X111822Y694521D01*
X111831Y694506D01*
X111836Y694489D01*
X111928Y694330D01*
X112017Y694169D01*
X112028Y694155D01*
X112037Y694140D01*
X112252Y693887D01*
X114536Y691603D01*
X119296Y683357D01*
X121761Y674161D01*
X121761Y664639D01*
X119296Y655443D01*
X114536Y647197D01*
X107803Y640464D01*
X99557Y635704D01*
X90361Y633239D01*
X80839Y633239D01*
X71643Y635704D01*
X63397Y640464D01*
X56664Y647197D01*
X51904Y655443D01*
X49439Y664639D01*
X49439Y674161D01*
X51904Y683357D01*
X56664Y691603D01*
X58948Y693887D01*
X58959Y693901D01*
X58973Y693912D01*
X59087Y694056D01*
X59203Y694198D01*
X59211Y694214D01*
X59222Y694228D01*
X59306Y694392D01*
X59392Y694554D01*
X59397Y694571D01*
X59405Y694587D01*
X59454Y694764D01*
X59506Y694940D01*
X59508Y694958D01*
X59513Y694975D01*
X59526Y695158D01*
X59543Y695341D01*
X59541Y695359D01*
X59542Y695377D01*
X59519Y695558D01*
X59499Y695741D01*
X59494Y695758D01*
X59492Y695776D01*
X59434Y695950D01*
X59378Y696125D01*
X59369Y696141D01*
X59364Y696158D01*
X59272Y696317D01*
X59183Y696477D01*
X59172Y696491D01*
X59163Y696507D01*
X58948Y696760D01*
X52079Y703628D01*
X46564Y713181D01*
X43709Y723835D01*
X43709Y734865D01*
X46564Y745519D01*
X52079Y755072D01*
X58948Y761940D01*
X58959Y761954D01*
X58973Y761966D01*
X59086Y762109D01*
X59203Y762252D01*
X59211Y762268D01*
X59222Y762282D01*
X59306Y762446D01*
X59392Y762608D01*
X59397Y762625D01*
X59405Y762641D01*
X59454Y762818D01*
X59506Y762994D01*
X59508Y763011D01*
X59513Y763029D01*
X59526Y763212D01*
X59543Y763395D01*
X59541Y763412D01*
X59542Y763430D01*
X59519Y763612D01*
X59499Y763795D01*
X59494Y763812D01*
X59492Y763830D01*
X59433Y764003D01*
X59378Y764179D01*
X59369Y764194D01*
X59364Y764211D01*
X59272Y764370D01*
X59183Y764531D01*
X59172Y764545D01*
X59163Y764560D01*
X58948Y764813D01*
X56664Y767097D01*
X51904Y775343D01*
X49439Y784539D01*
X49439Y794061D01*
X51904Y803257D01*
X56664Y811503D01*
X61551Y816390D01*
X61557Y816397D01*
X61564Y816403D01*
X61684Y816552D01*
X61806Y816701D01*
X61810Y816709D01*
X61816Y816717D01*
X61905Y816888D01*
X61994Y817057D01*
X61997Y817066D01*
X62001Y817074D01*
X62055Y817259D01*
X62109Y817443D01*
X62110Y817452D01*
X62113Y817461D01*
X62128Y817652D01*
X62146Y817844D01*
X62145Y817853D01*
X62145Y817862D01*
X62123Y818052D01*
X62102Y818244D01*
X62099Y818253D01*
X62098Y818262D01*
X62039Y818444D01*
X61981Y818628D01*
X61976Y818636D01*
X61973Y818645D01*
X61878Y818813D01*
X61786Y818980D01*
X61780Y818987D01*
X61775Y818995D01*
X61649Y819142D01*
X61525Y819287D01*
X61518Y819293D01*
X61512Y819300D01*
X61360Y819418D01*
X61210Y819537D01*
X61201Y819541D01*
X61194Y819547D01*
X61021Y819633D01*
X60851Y819719D01*
X60842Y819722D01*
X60833Y819726D01*
X60648Y819776D01*
X60463Y819827D01*
X60453Y819828D01*
X60445Y819830D01*
X60114Y819857D01*
X12191Y819843D01*
X12174Y819841D01*
X12156Y819843D01*
X11974Y819821D01*
X11791Y819803D01*
X11774Y819798D01*
X11757Y819796D01*
X11581Y819739D01*
X11406Y819685D01*
X11391Y819676D01*
X11374Y819671D01*
X11213Y819580D01*
X11052Y819493D01*
X11039Y819482D01*
X11023Y819473D01*
X10884Y819353D01*
X10743Y819235D01*
X10732Y819221D01*
X10718Y819210D01*
X10606Y819065D01*
X10490Y818921D01*
X10482Y818906D01*
X10472Y818892D01*
X10390Y818727D01*
X10305Y818564D01*
X10300Y818547D01*
X10292Y818531D01*
X10244Y818353D01*
X10194Y818177D01*
X10192Y818159D01*
X10188Y818142D01*
X10161Y817812D01*
X10161Y630000D01*
X10163Y629982D01*
X10161Y629964D01*
X10182Y629782D01*
X10201Y629599D01*
X10206Y629582D01*
X10208Y629565D01*
X10265Y629390D01*
X10319Y629214D01*
X10327Y629199D01*
X10333Y629182D01*
X10423Y629022D01*
X10511Y628860D01*
X10522Y628847D01*
X10531Y628831D01*
X10651Y628692D01*
X10768Y628551D01*
X10782Y628540D01*
X10794Y628527D01*
X10939Y628414D01*
X11082Y628299D01*
X11098Y628291D01*
X11112Y628280D01*
X11277Y628198D01*
X11439Y628113D01*
X11456Y628108D01*
X11472Y628100D01*
X11651Y628053D01*
X11826Y628002D01*
X11844Y628000D01*
X11861Y627996D01*
X12192Y627969D01*
X185000Y627969D01*
X185027Y627971D01*
G37*
%LPC*%
G36*
X554899Y413459D02*
X554899Y413459D01*
X554899Y423032D01*
X554897Y423050D01*
X554899Y423067D01*
X554878Y423249D01*
X554859Y423432D01*
X554854Y423449D01*
X554852Y423467D01*
X554839Y423508D01*
X554866Y423602D01*
X554868Y423620D01*
X554872Y423637D01*
X554899Y423968D01*
X554899Y433541D01*
X557735Y433541D01*
X558445Y433350D01*
X558519Y433312D01*
X558572Y433297D01*
X558623Y433274D01*
X558766Y433241D01*
X558906Y433200D01*
X558961Y433196D01*
X559015Y433183D01*
X559162Y433179D01*
X559308Y433168D01*
X559362Y433174D01*
X559418Y433172D01*
X559562Y433197D01*
X559707Y433214D01*
X559760Y433232D01*
X559814Y433241D01*
X559951Y433294D01*
X560090Y433339D01*
X560138Y433366D01*
X560190Y433386D01*
X560313Y433465D01*
X560441Y433537D01*
X560483Y433573D01*
X560529Y433603D01*
X560635Y433705D01*
X560746Y433800D01*
X560779Y433844D01*
X560819Y433882D01*
X560903Y434003D01*
X560992Y434118D01*
X561017Y434168D01*
X561048Y434213D01*
X561106Y434348D01*
X561172Y434479D01*
X561186Y434532D01*
X561208Y434583D01*
X561238Y434726D01*
X561276Y434868D01*
X561281Y434930D01*
X561291Y434977D01*
X561292Y435061D01*
X561303Y435198D01*
X561303Y596802D01*
X561289Y596947D01*
X561282Y597094D01*
X561269Y597147D01*
X561263Y597202D01*
X561220Y597342D01*
X561185Y597484D01*
X561161Y597534D01*
X561145Y597587D01*
X561075Y597716D01*
X561013Y597848D01*
X560980Y597893D01*
X560953Y597941D01*
X560860Y598054D01*
X560772Y598171D01*
X560731Y598208D01*
X560696Y598250D01*
X560582Y598342D01*
X560473Y598440D01*
X560425Y598468D01*
X560382Y598503D01*
X560252Y598570D01*
X560126Y598645D01*
X560074Y598663D01*
X560025Y598688D01*
X559884Y598729D01*
X559746Y598777D01*
X559691Y598784D01*
X559638Y598800D01*
X559492Y598812D01*
X559347Y598831D01*
X559292Y598828D01*
X559236Y598832D01*
X559091Y598815D01*
X558945Y598806D01*
X558891Y598792D01*
X558837Y598786D01*
X558697Y598740D01*
X558556Y598702D01*
X558499Y598676D01*
X558454Y598661D01*
X558424Y598644D01*
X557735Y598459D01*
X554899Y598459D01*
X554899Y608032D01*
X554897Y608050D01*
X554899Y608067D01*
X554878Y608249D01*
X554859Y608432D01*
X554854Y608449D01*
X554852Y608467D01*
X554839Y608508D01*
X554866Y608602D01*
X554868Y608620D01*
X554872Y608637D01*
X554899Y608968D01*
X554899Y618541D01*
X557735Y618541D01*
X558381Y618368D01*
X558960Y618033D01*
X559433Y617560D01*
X559768Y616981D01*
X559941Y616335D01*
X559941Y612067D01*
X559942Y612058D01*
X559941Y612049D01*
X559962Y611857D01*
X559981Y611666D01*
X559983Y611657D01*
X559984Y611649D01*
X560042Y611465D01*
X560099Y611281D01*
X560103Y611273D01*
X560106Y611265D01*
X560199Y611096D01*
X560291Y610927D01*
X560296Y610920D01*
X560301Y610912D01*
X560426Y610765D01*
X560548Y610618D01*
X560555Y610612D01*
X560561Y610605D01*
X560713Y610485D01*
X560862Y610366D01*
X560870Y610361D01*
X560877Y610356D01*
X561050Y610268D01*
X561219Y610180D01*
X561228Y610178D01*
X561236Y610173D01*
X561421Y610122D01*
X561606Y610069D01*
X561615Y610068D01*
X561624Y610065D01*
X561816Y610051D01*
X562008Y610036D01*
X562016Y610037D01*
X562025Y610036D01*
X562217Y610060D01*
X562407Y610083D01*
X562416Y610085D01*
X562425Y610087D01*
X562607Y610148D01*
X562790Y610207D01*
X562798Y610212D01*
X562806Y610215D01*
X562974Y610311D01*
X563141Y610405D01*
X563148Y610411D01*
X563155Y610416D01*
X563408Y610630D01*
X563947Y611169D01*
X566187Y612097D01*
X628613Y612097D01*
X630854Y611169D01*
X632569Y609454D01*
X633497Y607213D01*
X633497Y424787D01*
X632569Y422546D01*
X630854Y420831D01*
X628613Y419903D01*
X566187Y419903D01*
X563947Y420831D01*
X563408Y421370D01*
X563401Y421375D01*
X563396Y421382D01*
X563247Y421502D01*
X563097Y421625D01*
X563089Y421629D01*
X563082Y421634D01*
X562913Y421722D01*
X562741Y421813D01*
X562732Y421816D01*
X562725Y421820D01*
X562541Y421873D01*
X562355Y421928D01*
X562346Y421929D01*
X562338Y421931D01*
X562147Y421947D01*
X561954Y421965D01*
X561945Y421964D01*
X561936Y421964D01*
X561747Y421942D01*
X561554Y421921D01*
X561545Y421918D01*
X561537Y421917D01*
X561354Y421858D01*
X561170Y421800D01*
X561162Y421795D01*
X561154Y421793D01*
X560985Y421697D01*
X560818Y421605D01*
X560811Y421599D01*
X560803Y421595D01*
X560657Y421468D01*
X560511Y421344D01*
X560505Y421337D01*
X560498Y421331D01*
X560380Y421179D01*
X560261Y421028D01*
X560257Y421020D01*
X560252Y421013D01*
X560165Y420840D01*
X560079Y420669D01*
X560076Y420661D01*
X560072Y420653D01*
X560022Y420464D01*
X559971Y420282D01*
X559970Y420273D01*
X559968Y420264D01*
X559941Y419933D01*
X559941Y415665D01*
X559768Y415019D01*
X559433Y414440D01*
X558960Y413967D01*
X558381Y413632D01*
X557735Y413459D01*
X554899Y413459D01*
G37*
%LPD*%
%LPC*%
G36*
X328800Y315921D02*
X328800Y315921D01*
X320418Y320559D01*
X313880Y327560D01*
X311853Y331898D01*
X311853Y331899D01*
X311810Y331990D01*
X309825Y336238D01*
X308650Y345745D01*
X310471Y355150D01*
X315109Y363532D01*
X322109Y370070D01*
X330788Y374125D01*
X340295Y375300D01*
X349700Y373479D01*
X358082Y368841D01*
X364620Y361841D01*
X366647Y357501D01*
X366648Y357501D01*
X366778Y357221D01*
X368675Y353162D01*
X369850Y343655D01*
X368029Y334250D01*
X363391Y325868D01*
X356391Y319330D01*
X347712Y315275D01*
X338205Y314100D01*
X328800Y315921D01*
G37*
%LPD*%
%LPC*%
G36*
X275385Y530654D02*
X275385Y530654D01*
X275242Y530769D01*
X275226Y530777D01*
X275212Y530788D01*
X275047Y530870D01*
X274884Y530955D01*
X274867Y530960D01*
X274851Y530968D01*
X274673Y531015D01*
X274498Y531066D01*
X274480Y531068D01*
X274463Y531072D01*
X274132Y531099D01*
X262959Y531099D01*
X262959Y538035D01*
X263132Y538681D01*
X263467Y539260D01*
X263940Y539733D01*
X264123Y539838D01*
X264189Y539886D01*
X264261Y539926D01*
X264352Y540004D01*
X264450Y540073D01*
X264506Y540134D01*
X264568Y540187D01*
X264642Y540280D01*
X264724Y540368D01*
X264767Y540438D01*
X264818Y540503D01*
X264872Y540609D01*
X264935Y540711D01*
X264963Y540788D01*
X265000Y540862D01*
X265032Y540977D01*
X265073Y541089D01*
X265086Y541170D01*
X265108Y541249D01*
X265117Y541369D01*
X265135Y541487D01*
X265132Y541569D01*
X265138Y541651D01*
X265123Y541770D01*
X265117Y541889D01*
X265097Y541969D01*
X265087Y542050D01*
X265049Y542164D01*
X265020Y542280D01*
X264985Y542354D01*
X264959Y542432D01*
X264899Y542535D01*
X264848Y542644D01*
X264799Y542710D01*
X264758Y542781D01*
X264659Y542897D01*
X264608Y542967D01*
X264577Y542994D01*
X264543Y543034D01*
X261839Y545739D01*
X259403Y551618D01*
X259403Y557982D01*
X261839Y563861D01*
X264841Y566864D01*
X264852Y566877D01*
X264866Y566889D01*
X264980Y567033D01*
X265096Y567175D01*
X265104Y567191D01*
X265115Y567205D01*
X265198Y567368D01*
X265285Y567531D01*
X265290Y567548D01*
X265298Y567564D01*
X265347Y567741D01*
X265399Y567917D01*
X265401Y567935D01*
X265406Y567952D01*
X265419Y568135D01*
X265436Y568318D01*
X265434Y568336D01*
X265435Y568353D01*
X265412Y568535D01*
X265392Y568718D01*
X265387Y568735D01*
X265385Y568753D01*
X265326Y568926D01*
X265271Y569102D01*
X265262Y569118D01*
X265257Y569134D01*
X265165Y569294D01*
X265076Y569454D01*
X265065Y569468D01*
X265056Y569483D01*
X264841Y569736D01*
X261839Y572739D01*
X259403Y578618D01*
X259403Y584982D01*
X261839Y590861D01*
X266339Y595361D01*
X272218Y597797D01*
X278582Y597797D01*
X284461Y595361D01*
X288961Y590861D01*
X291397Y584982D01*
X291397Y578618D01*
X288961Y572739D01*
X285959Y569736D01*
X285948Y569722D01*
X285934Y569711D01*
X285820Y569567D01*
X285704Y569425D01*
X285696Y569409D01*
X285685Y569395D01*
X285601Y569231D01*
X285515Y569069D01*
X285510Y569052D01*
X285502Y569036D01*
X285453Y568859D01*
X285401Y568683D01*
X285399Y568665D01*
X285394Y568648D01*
X285381Y568465D01*
X285364Y568282D01*
X285366Y568264D01*
X285365Y568247D01*
X285388Y568065D01*
X285408Y567882D01*
X285413Y567865D01*
X285415Y567847D01*
X285474Y567673D01*
X285529Y567498D01*
X285538Y567482D01*
X285543Y567466D01*
X285635Y567306D01*
X285724Y567146D01*
X285735Y567132D01*
X285744Y567117D01*
X285959Y566864D01*
X288961Y563861D01*
X291397Y557982D01*
X291397Y551618D01*
X288961Y545739D01*
X286257Y543034D01*
X286205Y542970D01*
X286145Y542913D01*
X286077Y542815D01*
X286002Y542722D01*
X285963Y542650D01*
X285916Y542582D01*
X285869Y542472D01*
X285813Y542367D01*
X285790Y542288D01*
X285757Y542212D01*
X285732Y542095D01*
X285698Y541981D01*
X285691Y541899D01*
X285674Y541819D01*
X285673Y541699D01*
X285662Y541580D01*
X285671Y541498D01*
X285670Y541416D01*
X285692Y541299D01*
X285705Y541180D01*
X285730Y541101D01*
X285746Y541021D01*
X285791Y540910D01*
X285827Y540796D01*
X285867Y540724D01*
X285898Y540648D01*
X285964Y540548D01*
X286022Y540443D01*
X286075Y540381D01*
X286120Y540312D01*
X286205Y540228D01*
X286282Y540136D01*
X286347Y540085D01*
X286405Y540027D01*
X286530Y539940D01*
X286598Y539887D01*
X286634Y539868D01*
X286677Y539838D01*
X286860Y539733D01*
X287333Y539260D01*
X287668Y538681D01*
X287841Y538035D01*
X287841Y531099D01*
X276668Y531099D01*
X276650Y531097D01*
X276633Y531099D01*
X276450Y531078D01*
X276268Y531059D01*
X276251Y531054D01*
X276233Y531052D01*
X276058Y530995D01*
X275883Y530941D01*
X275867Y530933D01*
X275850Y530927D01*
X275690Y530837D01*
X275529Y530749D01*
X275515Y530738D01*
X275499Y530729D01*
X275399Y530643D01*
X275385Y530654D01*
G37*
%LPD*%
%LPC*%
G36*
X89563Y104513D02*
X89563Y104513D01*
X89563Y156337D01*
X113764Y156337D01*
X113682Y155612D01*
X112969Y152487D01*
X111910Y149461D01*
X110519Y146573D01*
X108813Y143858D01*
X106815Y141352D01*
X104548Y139085D01*
X102042Y137087D01*
X99238Y135325D01*
X99207Y135301D01*
X99172Y135281D01*
X99048Y135177D01*
X98920Y135078D01*
X98894Y135048D01*
X98863Y135022D01*
X98763Y134896D01*
X98657Y134773D01*
X98637Y134738D01*
X98613Y134707D01*
X98538Y134563D01*
X98459Y134422D01*
X98447Y134385D01*
X98429Y134349D01*
X98384Y134193D01*
X98334Y134040D01*
X98330Y134000D01*
X98319Y133962D01*
X98306Y133800D01*
X98288Y133640D01*
X98291Y133600D01*
X98288Y133560D01*
X98307Y133400D01*
X98321Y133238D01*
X98332Y133200D01*
X98336Y133161D01*
X98387Y133007D01*
X98432Y132852D01*
X98450Y132816D01*
X98463Y132779D01*
X98543Y132638D01*
X98618Y132494D01*
X98643Y132463D01*
X98662Y132429D01*
X98769Y132307D01*
X98870Y132181D01*
X98901Y132155D01*
X98927Y132125D01*
X99056Y132026D01*
X99180Y131923D01*
X99214Y131904D01*
X99246Y131880D01*
X99508Y131745D01*
X99534Y131731D01*
X99537Y131730D01*
X99541Y131728D01*
X100170Y131468D01*
X103140Y129880D01*
X105940Y128010D01*
X108543Y125874D01*
X110924Y123493D01*
X113060Y120890D01*
X114930Y118090D01*
X116518Y115120D01*
X117806Y112009D01*
X118784Y108787D01*
X119441Y105485D01*
X119536Y104513D01*
X89563Y104513D01*
G37*
%LPD*%
%LPC*%
G36*
X838563Y104513D02*
X838563Y104513D01*
X838563Y156337D01*
X862764Y156337D01*
X862682Y155612D01*
X861969Y152487D01*
X860910Y149461D01*
X859519Y146573D01*
X857813Y143858D01*
X855815Y141352D01*
X853548Y139085D01*
X851042Y137087D01*
X848238Y135325D01*
X848207Y135301D01*
X848172Y135281D01*
X848048Y135177D01*
X847920Y135078D01*
X847894Y135048D01*
X847863Y135022D01*
X847763Y134896D01*
X847657Y134773D01*
X847637Y134738D01*
X847613Y134707D01*
X847538Y134563D01*
X847459Y134422D01*
X847447Y134385D01*
X847429Y134349D01*
X847384Y134193D01*
X847334Y134040D01*
X847330Y134000D01*
X847319Y133962D01*
X847306Y133800D01*
X847288Y133640D01*
X847291Y133600D01*
X847288Y133560D01*
X847307Y133400D01*
X847321Y133238D01*
X847332Y133200D01*
X847336Y133161D01*
X847387Y133007D01*
X847432Y132852D01*
X847450Y132816D01*
X847463Y132779D01*
X847543Y132638D01*
X847618Y132494D01*
X847643Y132463D01*
X847662Y132429D01*
X847769Y132307D01*
X847870Y132181D01*
X847901Y132155D01*
X847927Y132125D01*
X848056Y132026D01*
X848180Y131923D01*
X848214Y131904D01*
X848246Y131880D01*
X848508Y131745D01*
X848534Y131731D01*
X848537Y131730D01*
X848541Y131728D01*
X849170Y131468D01*
X852140Y129880D01*
X854940Y128010D01*
X857543Y125874D01*
X859924Y123493D01*
X862060Y120890D01*
X863930Y118090D01*
X865518Y115120D01*
X866806Y112009D01*
X867784Y108787D01*
X868441Y105485D01*
X868536Y104513D01*
X838563Y104513D01*
G37*
%LPD*%
%LPC*%
G36*
X89563Y44563D02*
X89563Y44563D01*
X89563Y96387D01*
X119536Y96387D01*
X119441Y95415D01*
X118784Y92113D01*
X117806Y88891D01*
X116518Y85780D01*
X114930Y82810D01*
X113060Y80010D01*
X110924Y77407D01*
X108543Y75026D01*
X105940Y72890D01*
X103140Y71020D01*
X100170Y69432D01*
X99541Y69172D01*
X99506Y69153D01*
X99469Y69140D01*
X99329Y69058D01*
X99186Y68982D01*
X99156Y68956D01*
X99121Y68936D01*
X99001Y68828D01*
X98876Y68725D01*
X98851Y68694D01*
X98821Y68668D01*
X98725Y68539D01*
X98622Y68413D01*
X98604Y68377D01*
X98580Y68345D01*
X98510Y68199D01*
X98435Y68056D01*
X98424Y68018D01*
X98407Y67982D01*
X98368Y67825D01*
X98322Y67670D01*
X98319Y67630D01*
X98309Y67591D01*
X98301Y67430D01*
X98287Y67268D01*
X98292Y67229D01*
X98290Y67189D01*
X98314Y67029D01*
X98333Y66868D01*
X98345Y66831D01*
X98351Y66791D01*
X98406Y66639D01*
X98456Y66485D01*
X98475Y66450D01*
X98489Y66413D01*
X98573Y66275D01*
X98652Y66134D01*
X98678Y66103D01*
X98699Y66069D01*
X98809Y65951D01*
X98914Y65828D01*
X98945Y65803D01*
X98972Y65774D01*
X99207Y65598D01*
X99231Y65580D01*
X99234Y65578D01*
X99238Y65575D01*
X102042Y63813D01*
X104548Y61815D01*
X106815Y59548D01*
X108813Y57042D01*
X110519Y54327D01*
X111910Y51439D01*
X112969Y48413D01*
X113682Y45288D01*
X113764Y44563D01*
X89563Y44563D01*
G37*
%LPD*%
%LPC*%
G36*
X838563Y44563D02*
X838563Y44563D01*
X838563Y96387D01*
X868536Y96387D01*
X868441Y95415D01*
X867784Y92113D01*
X866806Y88891D01*
X865518Y85780D01*
X863930Y82810D01*
X862060Y80010D01*
X859924Y77407D01*
X857543Y75026D01*
X854940Y72890D01*
X852140Y71020D01*
X849170Y69432D01*
X848541Y69172D01*
X848506Y69153D01*
X848469Y69140D01*
X848329Y69058D01*
X848186Y68982D01*
X848156Y68956D01*
X848121Y68936D01*
X848001Y68828D01*
X847876Y68725D01*
X847851Y68694D01*
X847821Y68668D01*
X847725Y68539D01*
X847622Y68413D01*
X847604Y68377D01*
X847580Y68345D01*
X847510Y68199D01*
X847435Y68056D01*
X847424Y68018D01*
X847407Y67982D01*
X847368Y67825D01*
X847322Y67670D01*
X847319Y67630D01*
X847309Y67591D01*
X847301Y67430D01*
X847287Y67268D01*
X847292Y67229D01*
X847290Y67189D01*
X847314Y67029D01*
X847333Y66868D01*
X847345Y66831D01*
X847351Y66791D01*
X847406Y66639D01*
X847456Y66485D01*
X847475Y66450D01*
X847489Y66413D01*
X847573Y66275D01*
X847652Y66134D01*
X847678Y66103D01*
X847699Y66069D01*
X847809Y65951D01*
X847914Y65828D01*
X847945Y65803D01*
X847972Y65774D01*
X848207Y65598D01*
X848231Y65580D01*
X848234Y65578D01*
X848238Y65575D01*
X851042Y63813D01*
X853548Y61815D01*
X855815Y59548D01*
X857813Y57042D01*
X859519Y54327D01*
X860910Y51439D01*
X861969Y48413D01*
X862682Y45288D01*
X862764Y44563D01*
X838563Y44563D01*
G37*
%LPD*%
%LPC*%
G36*
X51464Y104513D02*
X51464Y104513D01*
X51559Y105485D01*
X52216Y108787D01*
X53194Y112009D01*
X54482Y115120D01*
X56070Y118090D01*
X57940Y120890D01*
X60076Y123493D01*
X62457Y125874D01*
X65060Y128010D01*
X67860Y129880D01*
X70830Y131468D01*
X71459Y131728D01*
X71494Y131747D01*
X71531Y131760D01*
X71671Y131842D01*
X71814Y131918D01*
X71844Y131944D01*
X71879Y131964D01*
X71999Y132072D01*
X72124Y132175D01*
X72149Y132206D01*
X72179Y132232D01*
X72275Y132361D01*
X72378Y132487D01*
X72396Y132523D01*
X72420Y132555D01*
X72490Y132701D01*
X72565Y132844D01*
X72576Y132882D01*
X72593Y132918D01*
X72632Y133075D01*
X72678Y133230D01*
X72681Y133270D01*
X72691Y133309D01*
X72699Y133470D01*
X72713Y133632D01*
X72708Y133671D01*
X72710Y133711D01*
X72686Y133871D01*
X72667Y134032D01*
X72655Y134069D01*
X72649Y134109D01*
X72594Y134261D01*
X72544Y134415D01*
X72525Y134450D01*
X72511Y134487D01*
X72427Y134625D01*
X72348Y134766D01*
X72322Y134797D01*
X72301Y134831D01*
X72191Y134949D01*
X72086Y135072D01*
X72055Y135097D01*
X72028Y135126D01*
X71793Y135302D01*
X71769Y135320D01*
X71766Y135322D01*
X71762Y135325D01*
X68958Y137087D01*
X66452Y139085D01*
X64185Y141352D01*
X62187Y143858D01*
X60481Y146573D01*
X59090Y149461D01*
X58031Y152487D01*
X57318Y155612D01*
X57236Y156337D01*
X81437Y156337D01*
X81437Y104513D01*
X51464Y104513D01*
G37*
%LPD*%
%LPC*%
G36*
X800464Y104513D02*
X800464Y104513D01*
X800559Y105485D01*
X801216Y108787D01*
X802194Y112009D01*
X803482Y115120D01*
X805070Y118090D01*
X806940Y120890D01*
X809076Y123493D01*
X811457Y125874D01*
X814060Y128010D01*
X816860Y129880D01*
X819830Y131468D01*
X820459Y131728D01*
X820494Y131747D01*
X820531Y131760D01*
X820671Y131842D01*
X820814Y131918D01*
X820844Y131944D01*
X820879Y131964D01*
X820999Y132072D01*
X821124Y132175D01*
X821149Y132206D01*
X821179Y132232D01*
X821275Y132361D01*
X821378Y132487D01*
X821396Y132523D01*
X821420Y132555D01*
X821490Y132701D01*
X821565Y132844D01*
X821576Y132882D01*
X821593Y132918D01*
X821632Y133075D01*
X821678Y133230D01*
X821681Y133270D01*
X821691Y133309D01*
X821699Y133470D01*
X821713Y133632D01*
X821708Y133671D01*
X821710Y133711D01*
X821686Y133871D01*
X821667Y134032D01*
X821655Y134069D01*
X821649Y134109D01*
X821594Y134261D01*
X821544Y134415D01*
X821525Y134450D01*
X821511Y134487D01*
X821427Y134625D01*
X821348Y134766D01*
X821322Y134797D01*
X821301Y134831D01*
X821191Y134949D01*
X821086Y135072D01*
X821055Y135097D01*
X821028Y135126D01*
X820793Y135302D01*
X820769Y135320D01*
X820766Y135322D01*
X820762Y135325D01*
X817958Y137087D01*
X815452Y139085D01*
X813185Y141352D01*
X811187Y143858D01*
X809481Y146573D01*
X808090Y149461D01*
X807031Y152487D01*
X806318Y155612D01*
X806236Y156337D01*
X830437Y156337D01*
X830437Y104513D01*
X800464Y104513D01*
G37*
%LPD*%
%LPC*%
G36*
X57236Y44563D02*
X57236Y44563D01*
X57318Y45288D01*
X58031Y48413D01*
X59090Y51439D01*
X60481Y54327D01*
X62187Y57042D01*
X64185Y59548D01*
X66452Y61815D01*
X68958Y63813D01*
X71762Y65575D01*
X71793Y65599D01*
X71828Y65619D01*
X71952Y65723D01*
X72080Y65822D01*
X72106Y65852D01*
X72137Y65878D01*
X72237Y66004D01*
X72343Y66127D01*
X72363Y66162D01*
X72387Y66193D01*
X72462Y66337D01*
X72541Y66478D01*
X72553Y66515D01*
X72571Y66551D01*
X72616Y66707D01*
X72666Y66860D01*
X72670Y66900D01*
X72681Y66938D01*
X72694Y67100D01*
X72712Y67260D01*
X72709Y67300D01*
X72712Y67340D01*
X72693Y67500D01*
X72679Y67662D01*
X72668Y67700D01*
X72664Y67739D01*
X72613Y67893D01*
X72568Y68048D01*
X72550Y68084D01*
X72537Y68121D01*
X72457Y68262D01*
X72382Y68406D01*
X72357Y68437D01*
X72338Y68471D01*
X72231Y68593D01*
X72130Y68719D01*
X72099Y68745D01*
X72073Y68775D01*
X71944Y68874D01*
X71820Y68977D01*
X71786Y68996D01*
X71754Y69020D01*
X71492Y69155D01*
X71466Y69169D01*
X71463Y69170D01*
X71459Y69172D01*
X70830Y69432D01*
X67860Y71020D01*
X65060Y72890D01*
X62457Y75026D01*
X60076Y77407D01*
X57940Y80010D01*
X56070Y82810D01*
X54482Y85780D01*
X53194Y88891D01*
X52216Y92113D01*
X51559Y95415D01*
X51464Y96387D01*
X81437Y96387D01*
X81437Y44563D01*
X57236Y44563D01*
G37*
%LPD*%
%LPC*%
G36*
X806236Y44563D02*
X806236Y44563D01*
X806318Y45288D01*
X807031Y48413D01*
X808090Y51439D01*
X809481Y54327D01*
X811187Y57042D01*
X813185Y59548D01*
X815452Y61815D01*
X817958Y63813D01*
X820762Y65575D01*
X820793Y65599D01*
X820828Y65619D01*
X820952Y65723D01*
X821080Y65822D01*
X821106Y65852D01*
X821137Y65878D01*
X821237Y66004D01*
X821343Y66127D01*
X821363Y66162D01*
X821387Y66193D01*
X821462Y66337D01*
X821541Y66478D01*
X821553Y66515D01*
X821571Y66551D01*
X821616Y66707D01*
X821666Y66860D01*
X821670Y66900D01*
X821681Y66938D01*
X821694Y67100D01*
X821712Y67260D01*
X821709Y67300D01*
X821712Y67340D01*
X821693Y67500D01*
X821679Y67662D01*
X821668Y67700D01*
X821664Y67739D01*
X821613Y67893D01*
X821568Y68048D01*
X821550Y68084D01*
X821537Y68121D01*
X821457Y68262D01*
X821382Y68406D01*
X821357Y68437D01*
X821338Y68471D01*
X821231Y68593D01*
X821130Y68719D01*
X821099Y68745D01*
X821073Y68775D01*
X820944Y68874D01*
X820820Y68977D01*
X820786Y68996D01*
X820754Y69020D01*
X820492Y69155D01*
X820466Y69169D01*
X820463Y69170D01*
X820459Y69172D01*
X819830Y69432D01*
X816860Y71020D01*
X814060Y72890D01*
X811457Y75026D01*
X809076Y77407D01*
X806940Y80010D01*
X805070Y82810D01*
X803482Y85780D01*
X802194Y88891D01*
X801216Y92113D01*
X800559Y95415D01*
X800464Y96387D01*
X830437Y96387D01*
X830437Y44563D01*
X806236Y44563D01*
G37*
%LPD*%
%LPC*%
G36*
X562973Y354791D02*
X562973Y354791D01*
X558118Y356802D01*
X554402Y360518D01*
X552391Y365373D01*
X552391Y370627D01*
X554402Y375482D01*
X555484Y376564D01*
X555495Y376577D01*
X555509Y376589D01*
X555623Y376734D01*
X555739Y376875D01*
X555747Y376891D01*
X555758Y376905D01*
X555842Y377069D01*
X555927Y377231D01*
X555932Y377248D01*
X555941Y377264D01*
X555990Y377441D01*
X556042Y377617D01*
X556044Y377635D01*
X556049Y377652D01*
X556062Y377835D01*
X556079Y378018D01*
X556077Y378036D01*
X556078Y378053D01*
X556055Y378235D01*
X556035Y378418D01*
X556030Y378435D01*
X556028Y378453D01*
X555969Y378626D01*
X555914Y378802D01*
X555905Y378818D01*
X555899Y378834D01*
X555808Y378993D01*
X555719Y379154D01*
X555707Y379168D01*
X555698Y379183D01*
X555484Y379436D01*
X554402Y380518D01*
X552391Y385373D01*
X552391Y390627D01*
X554402Y395482D01*
X558118Y399198D01*
X562699Y401096D01*
X562973Y401209D01*
X568227Y401209D01*
X573082Y399198D01*
X576798Y395482D01*
X578809Y390627D01*
X578809Y385373D01*
X576798Y380518D01*
X575716Y379436D01*
X575705Y379422D01*
X575691Y379411D01*
X575578Y379267D01*
X575461Y379125D01*
X575453Y379109D01*
X575442Y379095D01*
X575359Y378931D01*
X575273Y378769D01*
X575268Y378752D01*
X575259Y378736D01*
X575210Y378559D01*
X575158Y378383D01*
X575156Y378365D01*
X575151Y378348D01*
X575138Y378165D01*
X575121Y377982D01*
X575123Y377964D01*
X575122Y377947D01*
X575145Y377765D01*
X575165Y377582D01*
X575170Y377565D01*
X575172Y377547D01*
X575231Y377373D01*
X575286Y377198D01*
X575295Y377182D01*
X575301Y377166D01*
X575392Y377007D01*
X575481Y376846D01*
X575493Y376832D01*
X575502Y376817D01*
X575716Y376564D01*
X576798Y375482D01*
X578809Y370627D01*
X578809Y365373D01*
X576798Y360518D01*
X573082Y356802D01*
X568227Y354791D01*
X562973Y354791D01*
G37*
%LPD*%
%LPC*%
G36*
X653024Y431623D02*
X653024Y431623D01*
X646582Y434292D01*
X641652Y439222D01*
X638983Y445664D01*
X638983Y452636D01*
X641652Y459078D01*
X646582Y464008D01*
X653024Y466677D01*
X659996Y466677D01*
X666438Y464008D01*
X671368Y459078D01*
X674037Y452636D01*
X674037Y445664D01*
X671368Y439222D01*
X666438Y434292D01*
X659996Y431623D01*
X653024Y431623D01*
G37*
%LPD*%
%LPC*%
G36*
X653024Y498933D02*
X653024Y498933D01*
X646582Y501602D01*
X641652Y506532D01*
X638983Y512974D01*
X638983Y519946D01*
X641652Y526388D01*
X646582Y531318D01*
X650948Y533127D01*
X653024Y533987D01*
X659996Y533987D01*
X666438Y531318D01*
X671368Y526388D01*
X674037Y519946D01*
X674037Y512974D01*
X671368Y506532D01*
X666438Y501602D01*
X659996Y498933D01*
X653024Y498933D01*
G37*
%LPD*%
%LPC*%
G36*
X479463Y517063D02*
X479463Y517063D01*
X479463Y545541D01*
X505735Y545541D01*
X506381Y545368D01*
X506960Y545033D01*
X507433Y544560D01*
X507768Y543981D01*
X507941Y543335D01*
X507941Y517063D01*
X479463Y517063D01*
G37*
%LPD*%
%LPC*%
G36*
X442859Y517063D02*
X442859Y517063D01*
X442859Y543335D01*
X443032Y543981D01*
X443367Y544560D01*
X443840Y545033D01*
X444419Y545368D01*
X445065Y545541D01*
X471337Y545541D01*
X471337Y517063D01*
X442859Y517063D01*
G37*
%LPD*%
%LPC*%
G36*
X479463Y480459D02*
X479463Y480459D01*
X479463Y508937D01*
X507941Y508937D01*
X507941Y482665D01*
X507768Y482019D01*
X507433Y481440D01*
X506960Y480967D01*
X506381Y480632D01*
X505735Y480459D01*
X479463Y480459D01*
G37*
%LPD*%
%LPC*%
G36*
X445065Y480459D02*
X445065Y480459D01*
X444419Y480632D01*
X443840Y480967D01*
X443367Y481440D01*
X443032Y482019D01*
X442859Y482665D01*
X442859Y508937D01*
X471337Y508937D01*
X471337Y480459D01*
X445065Y480459D01*
G37*
%LPD*%
%LPC*%
G36*
X87847Y233163D02*
X87847Y233163D01*
X85606Y234091D01*
X83891Y235806D01*
X82963Y238047D01*
X82963Y253553D01*
X83891Y255794D01*
X85606Y257509D01*
X87847Y258437D01*
X103353Y258437D01*
X105594Y257509D01*
X107309Y255794D01*
X108237Y253553D01*
X108237Y238047D01*
X107309Y235806D01*
X105594Y234091D01*
X103353Y233163D01*
X87847Y233163D01*
G37*
%LPD*%
%LPC*%
G36*
X146847Y233163D02*
X146847Y233163D01*
X144606Y234091D01*
X142891Y235806D01*
X141963Y238047D01*
X141963Y253553D01*
X142891Y255794D01*
X144606Y257509D01*
X146847Y258437D01*
X162353Y258437D01*
X164594Y257509D01*
X166309Y255794D01*
X167237Y253553D01*
X167237Y238047D01*
X166309Y235806D01*
X164594Y234091D01*
X162353Y233163D01*
X146847Y233163D01*
G37*
%LPD*%
%LPC*%
G36*
X351087Y252153D02*
X351087Y252153D01*
X348846Y253081D01*
X347131Y254796D01*
X346203Y257037D01*
X346203Y277463D01*
X347131Y279704D01*
X348846Y281419D01*
X351087Y282347D01*
X360013Y282347D01*
X362254Y281419D01*
X364184Y279488D01*
X364274Y279380D01*
X364291Y279365D01*
X364306Y279348D01*
X364447Y279239D01*
X364586Y279126D01*
X364606Y279115D01*
X364624Y279102D01*
X364784Y279022D01*
X364943Y278939D01*
X364964Y278932D01*
X364984Y278922D01*
X365157Y278876D01*
X365329Y278826D01*
X365351Y278824D01*
X365373Y278818D01*
X365704Y278791D01*
X366219Y278791D01*
X366219Y267250D01*
X366219Y255709D01*
X365704Y255709D01*
X365681Y255707D01*
X365659Y255709D01*
X365481Y255687D01*
X365303Y255669D01*
X365282Y255663D01*
X365259Y255660D01*
X365089Y255604D01*
X364918Y255551D01*
X364899Y255541D01*
X364877Y255533D01*
X364721Y255445D01*
X364564Y255359D01*
X364547Y255345D01*
X364528Y255334D01*
X364392Y255216D01*
X364255Y255102D01*
X364241Y255084D01*
X364224Y255069D01*
X364166Y254994D01*
X362254Y253081D01*
X360013Y252153D01*
X351087Y252153D01*
G37*
%LPD*%
%LPC*%
G36*
X838563Y164463D02*
X838563Y164463D01*
X838563Y188664D01*
X839288Y188582D01*
X842413Y187869D01*
X845439Y186810D01*
X848327Y185419D01*
X851042Y183713D01*
X853548Y181715D01*
X855815Y179448D01*
X857813Y176942D01*
X859519Y174227D01*
X860910Y171339D01*
X861969Y168313D01*
X862682Y165188D01*
X862764Y164463D01*
X838563Y164463D01*
G37*
%LPD*%
%LPC*%
G36*
X89563Y164463D02*
X89563Y164463D01*
X89563Y188664D01*
X90288Y188582D01*
X93413Y187869D01*
X96439Y186810D01*
X99327Y185419D01*
X102042Y183713D01*
X104548Y181715D01*
X106815Y179448D01*
X108813Y176942D01*
X110519Y174227D01*
X111910Y171339D01*
X112969Y168313D01*
X113682Y165188D01*
X113764Y164463D01*
X89563Y164463D01*
G37*
%LPD*%
%LPC*%
G36*
X57236Y164463D02*
X57236Y164463D01*
X57318Y165188D01*
X58031Y168313D01*
X59090Y171339D01*
X60481Y174227D01*
X62187Y176942D01*
X64185Y179448D01*
X66452Y181715D01*
X68958Y183713D01*
X71673Y185419D01*
X74561Y186810D01*
X77587Y187869D01*
X80712Y188582D01*
X81437Y188664D01*
X81437Y164463D01*
X57236Y164463D01*
G37*
%LPD*%
%LPC*%
G36*
X806236Y164463D02*
X806236Y164463D01*
X806318Y165188D01*
X807031Y168313D01*
X808090Y171339D01*
X809481Y174227D01*
X811187Y176942D01*
X813185Y179448D01*
X815452Y181715D01*
X817958Y183713D01*
X820673Y185419D01*
X823561Y186810D01*
X826587Y187869D01*
X829712Y188582D01*
X830437Y188664D01*
X830437Y164463D01*
X806236Y164463D01*
G37*
%LPD*%
G36*
X987884Y800999D02*
X987884Y800999D01*
X987925Y800998D01*
X988084Y801023D01*
X988243Y801041D01*
X988282Y801054D01*
X988322Y801060D01*
X988473Y801116D01*
X988626Y801166D01*
X988662Y801186D01*
X988700Y801200D01*
X988837Y801285D01*
X988977Y801364D01*
X989008Y801391D01*
X989042Y801412D01*
X989160Y801522D01*
X989282Y801627D01*
X989306Y801659D01*
X989336Y801687D01*
X989430Y801818D01*
X989528Y801945D01*
X989546Y801982D01*
X989570Y802015D01*
X989636Y802162D01*
X989708Y802306D01*
X989718Y802345D01*
X989735Y802382D01*
X989770Y802539D01*
X989812Y802695D01*
X989816Y802740D01*
X989824Y802775D01*
X989826Y802862D01*
X989839Y803025D01*
X989839Y818104D01*
X989837Y818122D01*
X989839Y818141D01*
X989817Y818323D01*
X989799Y818505D01*
X989794Y818522D01*
X989792Y818540D01*
X989735Y818715D01*
X989681Y818890D01*
X989673Y818906D01*
X989667Y818923D01*
X989577Y819083D01*
X989489Y819244D01*
X989478Y819258D01*
X989469Y819274D01*
X989348Y819413D01*
X989232Y819553D01*
X989218Y819564D01*
X989206Y819578D01*
X989060Y819691D01*
X988918Y819806D01*
X988902Y819814D01*
X988888Y819825D01*
X988723Y819907D01*
X988561Y819991D01*
X988543Y819996D01*
X988527Y820004D01*
X988349Y820052D01*
X988174Y820102D01*
X988156Y820104D01*
X988138Y820109D01*
X987807Y820136D01*
X972649Y820131D01*
X972616Y820128D01*
X972582Y820130D01*
X972416Y820108D01*
X972248Y820091D01*
X972216Y820081D01*
X972183Y820077D01*
X972024Y820022D01*
X971863Y819973D01*
X971834Y819957D01*
X971802Y819946D01*
X971657Y819861D01*
X971509Y819781D01*
X971484Y819760D01*
X971455Y819743D01*
X971329Y819631D01*
X971200Y819523D01*
X971179Y819497D01*
X971154Y819475D01*
X971054Y819341D01*
X970948Y819209D01*
X970933Y819179D01*
X970913Y819153D01*
X970840Y819001D01*
X970763Y818852D01*
X970753Y818820D01*
X970739Y818790D01*
X970698Y818626D01*
X970651Y818465D01*
X970649Y818432D01*
X970640Y818399D01*
X970632Y818231D01*
X970619Y818064D01*
X970623Y818030D01*
X970621Y817997D01*
X970646Y817831D01*
X970666Y817664D01*
X970676Y817632D01*
X970681Y817599D01*
X970738Y817441D01*
X970791Y817281D01*
X970807Y817252D01*
X970818Y817221D01*
X970906Y817077D01*
X970989Y816931D01*
X971010Y816905D01*
X971028Y816877D01*
X971142Y816753D01*
X971252Y816626D01*
X971278Y816605D01*
X971301Y816581D01*
X971566Y816382D01*
X978217Y812189D01*
X984742Y804790D01*
X985461Y803251D01*
X985968Y802166D01*
X986050Y802027D01*
X986127Y801886D01*
X986153Y801855D01*
X986173Y801820D01*
X986281Y801700D01*
X986384Y801577D01*
X986416Y801551D01*
X986443Y801521D01*
X986573Y801425D01*
X986698Y801324D01*
X986734Y801306D01*
X986767Y801281D01*
X986913Y801213D01*
X987055Y801139D01*
X987094Y801128D01*
X987131Y801110D01*
X987288Y801072D01*
X987442Y801027D01*
X987483Y801024D01*
X987522Y801014D01*
X987683Y801008D01*
X987844Y800994D01*
X987884Y800999D01*
G37*
%LPC*%
G36*
X278699Y515359D02*
X278699Y515359D01*
X278699Y524501D01*
X287841Y524501D01*
X287841Y517565D01*
X287668Y516919D01*
X287333Y516340D01*
X286860Y515867D01*
X286281Y515532D01*
X285635Y515359D01*
X278699Y515359D01*
G37*
%LPD*%
%LPC*%
G36*
X265165Y515359D02*
X265165Y515359D01*
X264519Y515532D01*
X263940Y515867D01*
X263467Y516340D01*
X263132Y516919D01*
X262959Y517565D01*
X262959Y524501D01*
X272101Y524501D01*
X272101Y515359D01*
X265165Y515359D01*
G37*
%LPD*%
%LPC*%
G36*
X433781Y174781D02*
X433781Y174781D01*
X433781Y184291D01*
X435335Y184291D01*
X435981Y184118D01*
X436560Y183783D01*
X436664Y183680D01*
X436677Y183668D01*
X436689Y183655D01*
X436834Y183540D01*
X436975Y183424D01*
X436991Y183416D01*
X437005Y183405D01*
X437169Y183322D01*
X437331Y183236D01*
X437348Y183231D01*
X437364Y183223D01*
X437541Y183173D01*
X437717Y183121D01*
X437734Y183119D01*
X437752Y183115D01*
X437935Y183101D01*
X438118Y183085D01*
X438135Y183087D01*
X438153Y183085D01*
X438336Y183108D01*
X438518Y183128D01*
X438535Y183133D01*
X438553Y183136D01*
X438727Y183194D01*
X438902Y183249D01*
X438917Y183258D01*
X438934Y183264D01*
X439094Y183356D01*
X439254Y183444D01*
X439268Y183456D01*
X439283Y183465D01*
X439536Y183679D01*
X439640Y183783D01*
X440219Y184118D01*
X440865Y184291D01*
X442419Y184291D01*
X442419Y174781D01*
X433781Y174781D01*
G37*
%LPD*%
%LPC*%
G36*
X370281Y269281D02*
X370281Y269281D01*
X370281Y278791D01*
X371835Y278791D01*
X372481Y278618D01*
X373060Y278283D01*
X373164Y278180D01*
X373177Y278168D01*
X373189Y278155D01*
X373334Y278040D01*
X373475Y277924D01*
X373491Y277916D01*
X373505Y277905D01*
X373669Y277822D01*
X373831Y277736D01*
X373848Y277731D01*
X373864Y277723D01*
X374041Y277673D01*
X374217Y277621D01*
X374234Y277619D01*
X374252Y277615D01*
X374435Y277601D01*
X374618Y277585D01*
X374635Y277587D01*
X374653Y277585D01*
X374836Y277608D01*
X375018Y277628D01*
X375035Y277633D01*
X375053Y277636D01*
X375227Y277694D01*
X375402Y277749D01*
X375417Y277758D01*
X375434Y277764D01*
X375594Y277856D01*
X375754Y277944D01*
X375768Y277956D01*
X375783Y277965D01*
X376036Y278179D01*
X376140Y278283D01*
X376719Y278618D01*
X377365Y278791D01*
X378919Y278791D01*
X378919Y269281D01*
X370281Y269281D01*
G37*
%LPD*%
%LPC*%
G36*
X370281Y174781D02*
X370281Y174781D01*
X370281Y184291D01*
X371835Y184291D01*
X372481Y184118D01*
X373060Y183783D01*
X373164Y183680D01*
X373177Y183668D01*
X373189Y183655D01*
X373334Y183540D01*
X373475Y183424D01*
X373491Y183416D01*
X373505Y183405D01*
X373669Y183322D01*
X373831Y183236D01*
X373848Y183231D01*
X373864Y183223D01*
X374041Y183173D01*
X374217Y183121D01*
X374234Y183119D01*
X374252Y183115D01*
X374435Y183101D01*
X374618Y183085D01*
X374635Y183087D01*
X374653Y183085D01*
X374836Y183108D01*
X375018Y183128D01*
X375035Y183133D01*
X375053Y183136D01*
X375227Y183194D01*
X375402Y183249D01*
X375417Y183258D01*
X375434Y183264D01*
X375594Y183356D01*
X375754Y183444D01*
X375768Y183456D01*
X375783Y183465D01*
X376036Y183679D01*
X376140Y183783D01*
X376719Y184118D01*
X377365Y184291D01*
X378919Y184291D01*
X378919Y174781D01*
X370281Y174781D01*
G37*
%LPD*%
%LPC*%
G36*
X357581Y174781D02*
X357581Y174781D01*
X357581Y184291D01*
X359135Y184291D01*
X359781Y184118D01*
X360360Y183783D01*
X360464Y183680D01*
X360477Y183668D01*
X360489Y183655D01*
X360634Y183540D01*
X360775Y183424D01*
X360791Y183416D01*
X360805Y183405D01*
X360969Y183322D01*
X361131Y183236D01*
X361148Y183231D01*
X361164Y183223D01*
X361341Y183173D01*
X361517Y183121D01*
X361534Y183119D01*
X361552Y183115D01*
X361735Y183101D01*
X361918Y183085D01*
X361935Y183087D01*
X361953Y183085D01*
X362136Y183108D01*
X362318Y183128D01*
X362335Y183133D01*
X362353Y183136D01*
X362527Y183194D01*
X362702Y183249D01*
X362717Y183258D01*
X362734Y183264D01*
X362894Y183356D01*
X363054Y183444D01*
X363068Y183456D01*
X363083Y183465D01*
X363336Y183679D01*
X363440Y183783D01*
X364019Y184118D01*
X364665Y184291D01*
X366219Y184291D01*
X366219Y174781D01*
X357581Y174781D01*
G37*
%LPD*%
%LPC*%
G36*
X421081Y174781D02*
X421081Y174781D01*
X421081Y184291D01*
X422635Y184291D01*
X423281Y184118D01*
X423860Y183783D01*
X423964Y183680D01*
X423977Y183668D01*
X423989Y183655D01*
X424134Y183540D01*
X424275Y183424D01*
X424291Y183416D01*
X424305Y183405D01*
X424469Y183322D01*
X424631Y183236D01*
X424648Y183231D01*
X424664Y183223D01*
X424841Y183173D01*
X425017Y183121D01*
X425034Y183119D01*
X425052Y183115D01*
X425235Y183101D01*
X425418Y183085D01*
X425435Y183087D01*
X425453Y183085D01*
X425636Y183108D01*
X425818Y183128D01*
X425835Y183133D01*
X425853Y183136D01*
X426027Y183194D01*
X426202Y183249D01*
X426217Y183258D01*
X426234Y183264D01*
X426394Y183356D01*
X426554Y183444D01*
X426568Y183456D01*
X426583Y183465D01*
X426836Y183679D01*
X426940Y183783D01*
X427519Y184118D01*
X428165Y184291D01*
X429719Y184291D01*
X429719Y174781D01*
X421081Y174781D01*
G37*
%LPD*%
%LPC*%
G36*
X370281Y255709D02*
X370281Y255709D01*
X370281Y265219D01*
X378919Y265219D01*
X378919Y255709D01*
X377365Y255709D01*
X376719Y255882D01*
X376140Y256217D01*
X376036Y256320D01*
X376023Y256332D01*
X376011Y256345D01*
X375866Y256460D01*
X375725Y256576D01*
X375709Y256584D01*
X375695Y256595D01*
X375531Y256678D01*
X375369Y256764D01*
X375352Y256769D01*
X375336Y256777D01*
X375159Y256827D01*
X374983Y256879D01*
X374966Y256881D01*
X374948Y256885D01*
X374765Y256899D01*
X374582Y256915D01*
X374565Y256913D01*
X374547Y256915D01*
X374364Y256892D01*
X374182Y256872D01*
X374165Y256867D01*
X374147Y256864D01*
X373973Y256806D01*
X373798Y256751D01*
X373783Y256742D01*
X373766Y256736D01*
X373606Y256644D01*
X373446Y256556D01*
X373432Y256544D01*
X373417Y256535D01*
X373164Y256321D01*
X373060Y256217D01*
X372481Y255882D01*
X371835Y255709D01*
X370281Y255709D01*
G37*
%LPD*%
%LPC*%
G36*
X357581Y161209D02*
X357581Y161209D01*
X357581Y170719D01*
X366219Y170719D01*
X366219Y161209D01*
X364665Y161209D01*
X364019Y161382D01*
X363440Y161717D01*
X363336Y161821D01*
X363322Y161832D01*
X363311Y161846D01*
X363167Y161960D01*
X363025Y162076D01*
X363009Y162084D01*
X362995Y162095D01*
X362831Y162179D01*
X362669Y162264D01*
X362652Y162269D01*
X362636Y162277D01*
X362459Y162327D01*
X362283Y162379D01*
X362265Y162381D01*
X362248Y162385D01*
X362065Y162399D01*
X361882Y162415D01*
X361864Y162413D01*
X361847Y162415D01*
X361665Y162392D01*
X361482Y162372D01*
X361465Y162367D01*
X361447Y162364D01*
X361273Y162306D01*
X361098Y162251D01*
X361082Y162242D01*
X361065Y162236D01*
X360906Y162144D01*
X360746Y162056D01*
X360732Y162044D01*
X360717Y162035D01*
X360464Y161820D01*
X360360Y161717D01*
X359781Y161382D01*
X359135Y161209D01*
X357581Y161209D01*
G37*
%LPD*%
%LPC*%
G36*
X433781Y161209D02*
X433781Y161209D01*
X433781Y170719D01*
X442419Y170719D01*
X442419Y161209D01*
X440865Y161209D01*
X440219Y161382D01*
X439640Y161717D01*
X439536Y161821D01*
X439522Y161832D01*
X439511Y161846D01*
X439367Y161960D01*
X439225Y162076D01*
X439209Y162084D01*
X439195Y162095D01*
X439031Y162179D01*
X438869Y162264D01*
X438852Y162269D01*
X438836Y162277D01*
X438659Y162327D01*
X438483Y162379D01*
X438465Y162381D01*
X438448Y162385D01*
X438265Y162399D01*
X438082Y162415D01*
X438064Y162413D01*
X438047Y162415D01*
X437865Y162392D01*
X437682Y162372D01*
X437665Y162367D01*
X437647Y162364D01*
X437473Y162306D01*
X437298Y162251D01*
X437282Y162242D01*
X437265Y162236D01*
X437106Y162144D01*
X436946Y162056D01*
X436932Y162044D01*
X436917Y162035D01*
X436664Y161820D01*
X436560Y161717D01*
X435981Y161382D01*
X435335Y161209D01*
X433781Y161209D01*
G37*
%LPD*%
%LPC*%
G36*
X370281Y161209D02*
X370281Y161209D01*
X370281Y170719D01*
X378919Y170719D01*
X378919Y161209D01*
X377365Y161209D01*
X376719Y161382D01*
X376140Y161717D01*
X376036Y161821D01*
X376022Y161832D01*
X376011Y161846D01*
X375867Y161960D01*
X375725Y162076D01*
X375709Y162084D01*
X375695Y162095D01*
X375531Y162179D01*
X375369Y162264D01*
X375352Y162269D01*
X375336Y162277D01*
X375159Y162327D01*
X374983Y162379D01*
X374965Y162381D01*
X374948Y162385D01*
X374765Y162399D01*
X374582Y162415D01*
X374564Y162413D01*
X374547Y162415D01*
X374365Y162392D01*
X374182Y162372D01*
X374165Y162367D01*
X374147Y162364D01*
X373973Y162306D01*
X373798Y162251D01*
X373782Y162242D01*
X373765Y162236D01*
X373606Y162144D01*
X373446Y162056D01*
X373432Y162044D01*
X373417Y162035D01*
X373164Y161820D01*
X373060Y161717D01*
X372481Y161382D01*
X371835Y161209D01*
X370281Y161209D01*
G37*
%LPD*%
%LPC*%
G36*
X421081Y161209D02*
X421081Y161209D01*
X421081Y170719D01*
X429719Y170719D01*
X429719Y161209D01*
X428165Y161209D01*
X427519Y161382D01*
X426940Y161717D01*
X426836Y161821D01*
X426822Y161832D01*
X426811Y161846D01*
X426667Y161960D01*
X426525Y162076D01*
X426509Y162084D01*
X426495Y162095D01*
X426331Y162179D01*
X426169Y162264D01*
X426152Y162269D01*
X426136Y162277D01*
X425959Y162327D01*
X425783Y162379D01*
X425765Y162381D01*
X425748Y162385D01*
X425565Y162399D01*
X425382Y162415D01*
X425364Y162413D01*
X425347Y162415D01*
X425165Y162392D01*
X424982Y162372D01*
X424965Y162367D01*
X424947Y162364D01*
X424773Y162306D01*
X424598Y162251D01*
X424582Y162242D01*
X424565Y162236D01*
X424406Y162144D01*
X424246Y162056D01*
X424232Y162044D01*
X424217Y162035D01*
X423964Y161820D01*
X423860Y161717D01*
X423281Y161382D01*
X422635Y161209D01*
X421081Y161209D01*
G37*
%LPD*%
%LPC*%
G36*
X393199Y773299D02*
X393199Y773299D01*
X393199Y779841D01*
X399535Y779841D01*
X400181Y779668D01*
X400760Y779333D01*
X401233Y778860D01*
X401568Y778281D01*
X401741Y777635D01*
X401741Y773299D01*
X393199Y773299D01*
G37*
%LPD*%
%LPC*%
G36*
X393199Y711199D02*
X393199Y711199D01*
X393199Y717741D01*
X399535Y717741D01*
X400181Y717568D01*
X400760Y717233D01*
X401233Y716760D01*
X401568Y716181D01*
X401741Y715535D01*
X401741Y711199D01*
X393199Y711199D01*
G37*
%LPD*%
%LPC*%
G36*
X376659Y773299D02*
X376659Y773299D01*
X376659Y777635D01*
X376832Y778281D01*
X377167Y778860D01*
X377640Y779333D01*
X378219Y779668D01*
X378865Y779841D01*
X385201Y779841D01*
X385201Y773299D01*
X376659Y773299D01*
G37*
%LPD*%
%LPC*%
G36*
X376659Y711199D02*
X376659Y711199D01*
X376659Y715535D01*
X376832Y716181D01*
X377167Y716760D01*
X377640Y717233D01*
X378219Y717568D01*
X378865Y717741D01*
X385201Y717741D01*
X385201Y711199D01*
X376659Y711199D01*
G37*
%LPD*%
%LPC*%
G36*
X393199Y696659D02*
X393199Y696659D01*
X393199Y703201D01*
X401741Y703201D01*
X401741Y698865D01*
X401568Y698219D01*
X401233Y697640D01*
X400760Y697167D01*
X400181Y696832D01*
X399535Y696659D01*
X393199Y696659D01*
G37*
%LPD*%
%LPC*%
G36*
X393199Y758759D02*
X393199Y758759D01*
X393199Y765301D01*
X401741Y765301D01*
X401741Y760965D01*
X401568Y760319D01*
X401233Y759740D01*
X400760Y759267D01*
X400181Y758932D01*
X399535Y758759D01*
X393199Y758759D01*
G37*
%LPD*%
%LPC*%
G36*
X378865Y696659D02*
X378865Y696659D01*
X378219Y696832D01*
X377640Y697167D01*
X377167Y697640D01*
X376832Y698219D01*
X376659Y698865D01*
X376659Y703201D01*
X385201Y703201D01*
X385201Y696659D01*
X378865Y696659D01*
G37*
%LPD*%
%LPC*%
G36*
X378865Y758759D02*
X378865Y758759D01*
X378219Y758932D01*
X377640Y759267D01*
X377167Y759740D01*
X376832Y760319D01*
X376659Y760965D01*
X376659Y765301D01*
X385201Y765301D01*
X385201Y758759D01*
X378865Y758759D01*
G37*
%LPD*%
%LPC*%
G36*
X36631Y583831D02*
X36631Y583831D01*
X36631Y590881D01*
X41475Y590881D01*
X42121Y590708D01*
X42700Y590373D01*
X43173Y589900D01*
X43508Y589321D01*
X43681Y588675D01*
X43681Y583831D01*
X36631Y583831D01*
G37*
%LPD*%
%LPC*%
G36*
X25519Y583831D02*
X25519Y583831D01*
X25519Y588675D01*
X25692Y589321D01*
X26027Y589900D01*
X26500Y590373D01*
X27079Y590708D01*
X27725Y590881D01*
X32569Y590881D01*
X32569Y583831D01*
X25519Y583831D01*
G37*
%LPD*%
%LPC*%
G36*
X36631Y572719D02*
X36631Y572719D01*
X36631Y579769D01*
X43681Y579769D01*
X43681Y574925D01*
X43508Y574279D01*
X43173Y573700D01*
X42700Y573227D01*
X42121Y572892D01*
X41475Y572719D01*
X36631Y572719D01*
G37*
%LPD*%
%LPC*%
G36*
X27725Y572719D02*
X27725Y572719D01*
X27079Y572892D01*
X26500Y573227D01*
X26027Y573700D01*
X25692Y574279D01*
X25519Y574925D01*
X25519Y579769D01*
X32569Y579769D01*
X32569Y572719D01*
X27725Y572719D01*
G37*
%LPD*%
%LPC*%
G36*
X334231Y418231D02*
X334231Y418231D01*
X334231Y425651D01*
X334460Y425615D01*
X335905Y425146D01*
X337259Y424456D01*
X338488Y423563D01*
X339563Y422488D01*
X340456Y421259D01*
X341146Y419905D01*
X341615Y418460D01*
X341651Y418231D01*
X334231Y418231D01*
G37*
%LPD*%
%LPC*%
G36*
X334231Y414169D02*
X334231Y414169D01*
X341651Y414169D01*
X341615Y413940D01*
X341146Y412495D01*
X340456Y411141D01*
X339563Y409912D01*
X338488Y408837D01*
X337259Y407944D01*
X335905Y407254D01*
X334460Y406785D01*
X334231Y406749D01*
X334231Y414169D01*
G37*
%LPD*%
%LPC*%
G36*
X242649Y454831D02*
X242649Y454831D01*
X242685Y455060D01*
X243154Y456505D01*
X243844Y457859D01*
X244737Y459088D01*
X245812Y460163D01*
X247041Y461056D01*
X248395Y461746D01*
X249840Y462215D01*
X250069Y462251D01*
X250069Y454831D01*
X242649Y454831D01*
G37*
%LPD*%
%LPC*%
G36*
X249840Y443385D02*
X249840Y443385D01*
X248395Y443854D01*
X247041Y444544D01*
X245812Y445437D01*
X244737Y446512D01*
X243844Y447741D01*
X243154Y449095D01*
X242685Y450540D01*
X242649Y450769D01*
X250069Y450769D01*
X250069Y443349D01*
X249840Y443385D01*
G37*
%LPD*%
%LPC*%
G36*
X562149Y679549D02*
X562149Y679549D01*
X562149Y686341D01*
X565735Y686341D01*
X566381Y686168D01*
X566960Y685833D01*
X567433Y685360D01*
X567768Y684781D01*
X567941Y684135D01*
X567941Y679549D01*
X562149Y679549D01*
G37*
%LPD*%
%LPC*%
G36*
X562149Y741549D02*
X562149Y741549D01*
X562149Y748341D01*
X565735Y748341D01*
X566381Y748168D01*
X566960Y747833D01*
X567433Y747360D01*
X567768Y746781D01*
X567941Y746135D01*
X567941Y741549D01*
X562149Y741549D01*
G37*
%LPD*%
%LPC*%
G36*
X563049Y331749D02*
X563049Y331749D01*
X563049Y337541D01*
X567635Y337541D01*
X568281Y337368D01*
X568860Y337033D01*
X569333Y336560D01*
X569668Y335981D01*
X569841Y335335D01*
X569841Y331749D01*
X563049Y331749D01*
G37*
%LPD*%
%LPC*%
G36*
X562149Y728259D02*
X562149Y728259D01*
X562149Y735051D01*
X567941Y735051D01*
X567941Y730465D01*
X567768Y729819D01*
X567433Y729240D01*
X566960Y728767D01*
X566381Y728432D01*
X565735Y728259D01*
X562149Y728259D01*
G37*
%LPD*%
%LPC*%
G36*
X562149Y666259D02*
X562149Y666259D01*
X562149Y673051D01*
X567941Y673051D01*
X567941Y668465D01*
X567768Y667819D01*
X567433Y667240D01*
X566960Y666767D01*
X566381Y666432D01*
X565735Y666259D01*
X562149Y666259D01*
G37*
%LPD*%
%LPC*%
G36*
X574859Y331749D02*
X574859Y331749D01*
X574859Y335335D01*
X575032Y335981D01*
X575367Y336560D01*
X575840Y337033D01*
X576419Y337368D01*
X577065Y337541D01*
X581651Y337541D01*
X581651Y331749D01*
X574859Y331749D01*
G37*
%LPD*%
%LPC*%
G36*
X372399Y575499D02*
X372399Y575499D01*
X372399Y580541D01*
X377735Y580541D01*
X378381Y580368D01*
X378960Y580033D01*
X379433Y579560D01*
X379768Y578981D01*
X379941Y578335D01*
X379941Y575499D01*
X372399Y575499D01*
G37*
%LPD*%
%LPC*%
G36*
X300355Y609131D02*
X300355Y609131D01*
X300355Y610888D01*
X305712Y616245D01*
X307469Y616245D01*
X307469Y609131D01*
X300355Y609131D01*
G37*
%LPD*%
%LPC*%
G36*
X311531Y520155D02*
X311531Y520155D01*
X311531Y527269D01*
X318645Y527269D01*
X318645Y525512D01*
X313288Y520155D01*
X311531Y520155D01*
G37*
%LPD*%
%LPC*%
G36*
X305712Y520155D02*
X305712Y520155D01*
X300355Y525512D01*
X300355Y527269D01*
X307469Y527269D01*
X307469Y520155D01*
X305712Y520155D01*
G37*
%LPD*%
%LPC*%
G36*
X446481Y174781D02*
X446481Y174781D01*
X446481Y184291D01*
X448035Y184291D01*
X448681Y184118D01*
X449260Y183783D01*
X449733Y183310D01*
X450068Y182731D01*
X450241Y182085D01*
X450241Y174781D01*
X446481Y174781D01*
G37*
%LPD*%
%LPC*%
G36*
X446481Y161209D02*
X446481Y161209D01*
X446481Y170719D01*
X450241Y170719D01*
X450241Y163415D01*
X450068Y162769D01*
X449733Y162190D01*
X449260Y161717D01*
X448681Y161382D01*
X448035Y161209D01*
X446481Y161209D01*
G37*
%LPD*%
%LPC*%
G36*
X349759Y174781D02*
X349759Y174781D01*
X349759Y182085D01*
X349932Y182731D01*
X350267Y183310D01*
X350740Y183783D01*
X351319Y184118D01*
X351965Y184291D01*
X353519Y184291D01*
X353519Y174781D01*
X349759Y174781D01*
G37*
%LPD*%
%LPC*%
G36*
X351965Y161209D02*
X351965Y161209D01*
X351319Y161382D01*
X350740Y161717D01*
X350267Y162190D01*
X349932Y162769D01*
X349759Y163415D01*
X349759Y170719D01*
X353519Y170719D01*
X353519Y161209D01*
X351965Y161209D01*
G37*
%LPD*%
%LPC*%
G36*
X516081Y218959D02*
X516081Y218959D01*
X516081Y226969D01*
X519841Y226969D01*
X519841Y221165D01*
X519668Y220519D01*
X519333Y219940D01*
X518860Y219467D01*
X518281Y219132D01*
X517635Y218959D01*
X516081Y218959D01*
G37*
%LPD*%
%LPC*%
G36*
X85499Y160399D02*
X85499Y160399D01*
X85499Y160401D01*
X85501Y160401D01*
X85501Y160399D01*
X85499Y160399D01*
G37*
%LPD*%
%LPC*%
G36*
X834499Y100449D02*
X834499Y100449D01*
X834499Y100451D01*
X834501Y100451D01*
X834501Y100449D01*
X834499Y100449D01*
G37*
%LPD*%
%LPC*%
G36*
X85499Y100449D02*
X85499Y100449D01*
X85499Y100451D01*
X85501Y100451D01*
X85501Y100449D01*
X85499Y100449D01*
G37*
%LPD*%
%LPC*%
G36*
X834499Y160399D02*
X834499Y160399D01*
X834499Y160401D01*
X834501Y160401D01*
X834501Y160399D01*
X834499Y160399D01*
G37*
%LPD*%
%LPC*%
G36*
X475399Y512999D02*
X475399Y512999D01*
X475399Y513001D01*
X475401Y513001D01*
X475401Y512999D01*
X475399Y512999D01*
G37*
%LPD*%
D10*
X355550Y172750D03*
X368250Y172750D03*
X380950Y172750D03*
X393650Y172750D03*
X406350Y172750D03*
X419050Y172750D03*
X431750Y172750D03*
X444450Y172750D03*
X444450Y267250D03*
X431750Y267250D03*
X419050Y267250D03*
X406350Y267250D03*
X393650Y267250D03*
X380950Y267250D03*
X368250Y267250D03*
X355550Y267250D03*
D11*
X393700Y298000D03*
X413700Y298000D03*
D12*
X85500Y40500D03*
X85500Y160400D03*
D13*
X85500Y100450D03*
D12*
X85600Y669400D03*
X85600Y789300D03*
D13*
X85600Y729350D03*
D12*
X834500Y160400D03*
X834500Y40500D03*
D13*
X834500Y100450D03*
D12*
X834400Y789300D03*
X834400Y669400D03*
D13*
X834400Y729350D03*
D14*
X275400Y527800D03*
D15*
X275400Y554800D03*
X275400Y581800D03*
D16*
X309500Y581700D03*
X309500Y607100D03*
D17*
X309500Y554700D03*
X309500Y529300D03*
D18*
X534600Y309500D03*
X534600Y328500D03*
X559800Y328500D03*
X559800Y309500D03*
X584900Y309500D03*
X584900Y328500D03*
X610100Y259500D03*
X610100Y240500D03*
X610100Y309500D03*
X610100Y290500D03*
D19*
X966520Y314540D03*
X966520Y381850D03*
X966520Y449150D03*
X966520Y516460D03*
X656510Y314540D03*
X656510Y381850D03*
X656510Y449150D03*
X656510Y516460D03*
D20*
X475950Y229000D03*
X488650Y229000D03*
X501350Y229000D03*
X514050Y229000D03*
X514050Y283000D03*
X501350Y283000D03*
X488650Y283000D03*
X475950Y283000D03*
D21*
X514300Y608500D03*
X501600Y608500D03*
X488900Y608500D03*
X476200Y608500D03*
X463500Y608500D03*
X450800Y608500D03*
X438100Y608500D03*
X425400Y608500D03*
D22*
X369900Y458700D03*
D21*
X387300Y423500D03*
X400000Y423500D03*
X412700Y423500D03*
X425400Y423500D03*
X438100Y423500D03*
X450800Y423500D03*
X463500Y423500D03*
D22*
X369900Y547600D03*
D21*
X412700Y608500D03*
X400000Y608500D03*
X387300Y608500D03*
D22*
X369900Y573000D03*
X369900Y560300D03*
D21*
X527000Y608500D03*
X539700Y608500D03*
X552400Y608500D03*
D22*
X369900Y534900D03*
X369900Y522200D03*
X369900Y509500D03*
X369900Y471400D03*
X369900Y484100D03*
X369900Y496800D03*
D21*
X476200Y423500D03*
X488900Y423500D03*
X501600Y423500D03*
X514300Y423500D03*
X527000Y423500D03*
X539700Y423500D03*
X552400Y423500D03*
D23*
X475400Y513000D03*
D24*
X539900Y738300D03*
X558900Y738300D03*
X539900Y676300D03*
X558900Y676300D03*
D25*
X443200Y707200D03*
X389200Y707200D03*
X443200Y769300D03*
X389200Y769300D03*
D24*
X520900Y707200D03*
X539900Y707200D03*
X520900Y769300D03*
X539900Y769300D03*
D18*
X351900Y605500D03*
X351900Y624500D03*
D26*
X252100Y452800D03*
X272100Y452800D03*
X292100Y452800D03*
X312100Y452800D03*
X565600Y368000D03*
X565600Y388000D03*
X332200Y416200D03*
X312200Y416200D03*
D27*
X514600Y379678D03*
X508100Y379678D03*
X501600Y379678D03*
X495100Y379678D03*
X488600Y379678D03*
X482100Y379678D03*
X475600Y379678D03*
X475600Y321322D03*
X482100Y321322D03*
X488600Y321322D03*
X495100Y321322D03*
X501600Y321322D03*
X508100Y321322D03*
X514600Y321322D03*
D28*
X154600Y245800D03*
X95600Y245800D03*
X34600Y581800D03*
X214600Y581800D03*
D26*
X340400Y514600D03*
X340400Y534600D03*
X340400Y554600D03*
X340400Y574600D03*
D29*
X321700Y554700D02*
X309500Y554700D01*
X321700Y554700D02*
X327000Y560000D01*
X327000Y700500D02*
X365000Y738500D01*
X539700Y738500D01*
X539900Y738300D01*
X327000Y615000D02*
X327000Y560000D01*
X327000Y615000D02*
X327000Y700500D01*
X539900Y707200D02*
X539900Y738300D01*
X539900Y707200D02*
X539900Y676300D01*
X539900Y738300D02*
X539900Y769300D01*
X539900Y676300D02*
X539900Y608700D01*
X539700Y608500D01*
D30*
X475600Y330900D02*
X475600Y321322D01*
X475600Y330900D02*
X494850Y350150D01*
X514600Y369900D01*
X514600Y379678D01*
D31*
X527850Y350150D02*
X494850Y350150D01*
X527850Y350150D02*
X534600Y343400D01*
X534600Y328500D01*
X494850Y350150D02*
X395050Y350150D01*
D32*
X340300Y554700D02*
X309500Y554700D01*
X340300Y554700D02*
X340400Y554600D01*
X336500Y624500D02*
X351900Y624500D01*
X336500Y624500D02*
X327000Y615000D01*
D31*
X356200Y389000D02*
X395050Y350150D01*
X326200Y389000D02*
X312200Y403000D01*
X312200Y416200D01*
X326200Y389000D02*
X356200Y389000D01*
X312200Y416200D02*
X312200Y452700D01*
X312100Y452800D01*
X514300Y423500D02*
X514300Y406200D01*
D33*
X514300Y406200D03*
D31*
X501600Y401200D02*
X501600Y423500D01*
D33*
X501600Y401200D03*
D31*
X488650Y242050D02*
X488650Y229000D01*
X488650Y242050D02*
X482700Y248000D01*
X412200Y248000D01*
X406350Y253850D02*
X406350Y267250D01*
X406350Y253850D02*
X412200Y248000D01*
D34*
X610100Y259500D02*
X610100Y290500D01*
D31*
X501350Y242050D02*
X501350Y229000D01*
X501350Y242050D02*
X507200Y247900D01*
X576300Y247900D01*
X587900Y259500D01*
X610100Y259500D01*
D33*
X536000Y265000D03*
D31*
X481000Y265000D01*
X475950Y270050D02*
X475950Y283000D01*
X475950Y270050D02*
X481000Y265000D01*
X475950Y283000D02*
X475950Y297050D01*
X470000Y303000D01*
X431750Y297050D02*
X431750Y267250D01*
X431750Y297050D02*
X437700Y303000D01*
X470000Y303000D01*
D30*
X514600Y304400D02*
X514600Y321322D01*
X514600Y304400D02*
X536000Y283000D01*
X536000Y265000D01*
D32*
X214600Y365400D02*
X214600Y581800D01*
X214600Y365400D02*
X282000Y298000D01*
X393700Y298000D01*
X393650Y297950D02*
X393650Y267250D01*
X393650Y297950D02*
X393700Y298000D01*
X393700Y316700D01*
X404000Y327000D02*
X443000Y327000D01*
D33*
X443000Y327000D03*
D32*
X404000Y327000D02*
X393700Y316700D01*
D31*
X552400Y423500D02*
X552400Y436000D01*
X475400Y513000D01*
X552400Y590000D02*
X552400Y608500D01*
X552400Y590000D02*
X475400Y513000D01*
D35*
X475600Y379678D02*
X384322Y379678D01*
X347800Y416200D01*
X332200Y416200D01*
D34*
X623850Y381850D02*
X656510Y381850D01*
X623850Y381850D02*
X610000Y368000D01*
X610000Y309600D01*
X610100Y309500D01*
D32*
X584900Y309500D01*
X559800Y309500D01*
X534600Y309500D01*
D34*
X656510Y314540D02*
X656510Y253910D01*
X643100Y240500D01*
X610100Y240500D01*
D32*
X272100Y452800D02*
X272100Y487100D01*
X282000Y497000D01*
X369700Y497000D01*
X369900Y496800D01*
X292100Y473100D02*
X292100Y452800D01*
X303100Y484100D02*
X369900Y484100D01*
X303100Y484100D02*
X292100Y473100D01*
D30*
X501600Y321322D02*
X501600Y308900D01*
X514050Y296450D02*
X514050Y283000D01*
X514050Y296450D02*
X501600Y308900D01*
X495100Y302800D02*
X495100Y321322D01*
X495100Y302800D02*
X501400Y296500D01*
X501400Y283050D01*
X501350Y283000D01*
X488600Y283050D02*
X488600Y321322D01*
X488600Y283050D02*
X488650Y283000D01*
D32*
X475950Y229000D02*
X461000Y229000D01*
D36*
X461000Y229000D03*
X412700Y388400D03*
D32*
X412700Y423500D01*
X527000Y608500D02*
X527000Y645000D01*
X520900Y651100D02*
X520900Y707200D01*
X520900Y651100D02*
X527000Y645000D01*
X520900Y707200D02*
X443200Y707200D01*
X443200Y769300D02*
X520900Y769300D01*
X387300Y423500D02*
X364800Y423500D01*
D33*
X364800Y423500D03*
D32*
X520900Y769300D02*
X520900Y788100D01*
X529800Y797000D01*
X688100Y797000D01*
X697000Y788100D01*
X697000Y586800D01*
X688100Y577900D01*
D33*
X688100Y577900D03*
D32*
X354700Y560300D02*
X340400Y574600D01*
X354700Y560300D02*
X369900Y560300D01*
X351900Y586100D02*
X340400Y574600D01*
X351900Y586100D02*
X351900Y605500D01*
D30*
X501600Y386600D02*
X501600Y379678D01*
X501600Y386600D02*
X504500Y389500D01*
X536800Y389500D01*
X539700Y392400D01*
X539700Y423500D01*
X488600Y385400D02*
X488600Y379678D01*
X488600Y385400D02*
X483000Y391000D01*
X456400Y391000D01*
X450800Y396600D02*
X450800Y423500D01*
X450800Y396600D02*
X456400Y391000D01*
X495100Y386700D02*
X495100Y379678D01*
X495100Y386700D02*
X476500Y405300D01*
X466200Y405300D02*
X463500Y408000D01*
X463500Y423500D01*
X466200Y405300D02*
X476500Y405300D01*
M02*
