G04 EAGLE Gerber RS-274X export*
G75*
%MOMM*%
%FSLAX34Y34*%
%LPD*%
%IN*%
%IPPOS*%
%AMOC8*
5,1,8,0,0,1.08239X$1,22.5*%
G01*
%ADD10C,0.254000*%


D10*
X0Y0D02*
X1000000Y300D01*
X1000000Y830300D01*
X0Y830000D01*
X0Y0D01*
X970800Y785364D02*
X970724Y784296D01*
X970571Y783235D01*
X970343Y782188D01*
X970041Y781160D01*
X969667Y780156D01*
X969222Y779181D01*
X968708Y778241D01*
X968129Y777340D01*
X967487Y776482D01*
X966785Y775672D01*
X966028Y774915D01*
X965218Y774213D01*
X964360Y773571D01*
X963459Y772992D01*
X962519Y772478D01*
X961544Y772033D01*
X960540Y771659D01*
X959512Y771357D01*
X958465Y771129D01*
X957404Y770976D01*
X956336Y770900D01*
X955264Y770900D01*
X954196Y770976D01*
X953135Y771129D01*
X952088Y771357D01*
X951060Y771659D01*
X950056Y772033D01*
X949081Y772478D01*
X948141Y772992D01*
X947240Y773571D01*
X946382Y774213D01*
X945572Y774915D01*
X944815Y775672D01*
X944113Y776482D01*
X943471Y777340D01*
X942892Y778241D01*
X942378Y779181D01*
X941933Y780156D01*
X941559Y781160D01*
X941257Y782188D01*
X941029Y783235D01*
X940876Y784296D01*
X940800Y785364D01*
X940800Y786436D01*
X940876Y787504D01*
X941029Y788565D01*
X941257Y789612D01*
X941559Y790640D01*
X941933Y791644D01*
X942378Y792619D01*
X942892Y793559D01*
X943471Y794460D01*
X944113Y795318D01*
X944815Y796128D01*
X945572Y796885D01*
X946382Y797587D01*
X947240Y798229D01*
X948141Y798808D01*
X949081Y799322D01*
X950056Y799767D01*
X951060Y800141D01*
X952088Y800443D01*
X953135Y800671D01*
X954196Y800824D01*
X955264Y800900D01*
X956336Y800900D01*
X957404Y800824D01*
X958465Y800671D01*
X959512Y800443D01*
X960540Y800141D01*
X961544Y799767D01*
X962519Y799322D01*
X963459Y798808D01*
X964360Y798229D01*
X965218Y797587D01*
X966028Y796885D01*
X966785Y796128D01*
X967487Y795318D01*
X968129Y794460D01*
X968708Y793559D01*
X969222Y792619D01*
X969667Y791644D01*
X970041Y790640D01*
X970343Y789612D01*
X970571Y788565D01*
X970724Y787504D01*
X970800Y786436D01*
X970800Y785364D01*
X970800Y43764D02*
X970724Y42696D01*
X970571Y41635D01*
X970343Y40588D01*
X970041Y39560D01*
X969667Y38556D01*
X969222Y37581D01*
X968708Y36641D01*
X968129Y35740D01*
X967487Y34882D01*
X966785Y34072D01*
X966028Y33315D01*
X965218Y32613D01*
X964360Y31971D01*
X963459Y31392D01*
X962519Y30878D01*
X961544Y30433D01*
X960540Y30059D01*
X959512Y29757D01*
X958465Y29529D01*
X957404Y29376D01*
X956336Y29300D01*
X955264Y29300D01*
X954196Y29376D01*
X953135Y29529D01*
X952088Y29757D01*
X951060Y30059D01*
X950056Y30433D01*
X949081Y30878D01*
X948141Y31392D01*
X947240Y31971D01*
X946382Y32613D01*
X945572Y33315D01*
X944815Y34072D01*
X944113Y34882D01*
X943471Y35740D01*
X942892Y36641D01*
X942378Y37581D01*
X941933Y38556D01*
X941559Y39560D01*
X941257Y40588D01*
X941029Y41635D01*
X940876Y42696D01*
X940800Y43764D01*
X940800Y44836D01*
X940876Y45904D01*
X941029Y46965D01*
X941257Y48012D01*
X941559Y49040D01*
X941933Y50044D01*
X942378Y51019D01*
X942892Y51959D01*
X943471Y52860D01*
X944113Y53718D01*
X944815Y54528D01*
X945572Y55285D01*
X946382Y55987D01*
X947240Y56629D01*
X948141Y57208D01*
X949081Y57722D01*
X950056Y58167D01*
X951060Y58541D01*
X952088Y58843D01*
X953135Y59071D01*
X954196Y59224D01*
X955264Y59300D01*
X956336Y59300D01*
X957404Y59224D01*
X958465Y59071D01*
X959512Y58843D01*
X960540Y58541D01*
X961544Y58167D01*
X962519Y57722D01*
X963459Y57208D01*
X964360Y56629D01*
X965218Y55987D01*
X966028Y55285D01*
X966785Y54528D01*
X967487Y53718D01*
X968129Y52860D01*
X968708Y51959D01*
X969222Y51019D01*
X969667Y50044D01*
X970041Y49040D01*
X970343Y48012D01*
X970571Y46965D01*
X970724Y45904D01*
X970800Y44836D01*
X970800Y43764D01*
X354300Y344264D02*
X354224Y343196D01*
X354071Y342135D01*
X353843Y341088D01*
X353541Y340060D01*
X353167Y339056D01*
X352722Y338081D01*
X352208Y337141D01*
X351629Y336240D01*
X350987Y335382D01*
X350285Y334572D01*
X349528Y333815D01*
X348718Y333113D01*
X347860Y332471D01*
X346959Y331892D01*
X346019Y331378D01*
X345044Y330933D01*
X344040Y330559D01*
X343012Y330257D01*
X341965Y330029D01*
X340904Y329876D01*
X339836Y329800D01*
X338764Y329800D01*
X337696Y329876D01*
X336635Y330029D01*
X335588Y330257D01*
X334560Y330559D01*
X333556Y330933D01*
X332581Y331378D01*
X331641Y331892D01*
X330740Y332471D01*
X329882Y333113D01*
X329072Y333815D01*
X328315Y334572D01*
X327613Y335382D01*
X326971Y336240D01*
X326392Y337141D01*
X325878Y338081D01*
X325433Y339056D01*
X325059Y340060D01*
X324757Y341088D01*
X324529Y342135D01*
X324376Y343196D01*
X324300Y344264D01*
X324300Y345336D01*
X324376Y346404D01*
X324529Y347465D01*
X324757Y348512D01*
X325059Y349540D01*
X325433Y350544D01*
X325878Y351519D01*
X326392Y352459D01*
X326971Y353360D01*
X327613Y354218D01*
X328315Y355028D01*
X329072Y355785D01*
X329882Y356487D01*
X330740Y357129D01*
X331641Y357708D01*
X332581Y358222D01*
X333556Y358667D01*
X334560Y359041D01*
X335588Y359343D01*
X336635Y359571D01*
X337696Y359724D01*
X338764Y359800D01*
X339836Y359800D01*
X340904Y359724D01*
X341965Y359571D01*
X343012Y359343D01*
X344040Y359041D01*
X345044Y358667D01*
X346019Y358222D01*
X346959Y357708D01*
X347860Y357129D01*
X348718Y356487D01*
X349528Y355785D01*
X350285Y355028D01*
X350987Y354218D01*
X351629Y353360D01*
X352208Y352459D01*
X352722Y351519D01*
X353167Y350544D01*
X353541Y349540D01*
X353843Y348512D01*
X354071Y347465D01*
X354224Y346404D01*
X354300Y345336D01*
X354300Y344264D01*
M02*
