G04 EAGLE Gerber RS-274X export*
G75*
%MOMM*%
%FSLAX34Y34*%
%LPD*%
%INSilkscreen Bottom*%
%IPPOS*%
%AMOC8*
5,1,8,0,0,1.08239X$1,22.5*%
G01*
%ADD10R,0.508000X0.508000*%
%ADD11C,0.199800*%
%ADD12C,0.203200*%
%ADD13R,0.490200X1.519900*%
%ADD14C,0.101600*%
%ADD15C,0.200000*%
%ADD16R,1.800000X3.825000*%
%ADD17R,1.800000X3.125000*%
%ADD18C,0.152400*%
%ADD19C,0.050800*%
%ADD20R,1.400000X0.650000*%
%ADD21R,1.300000X0.500000*%
%ADD22C,0.076200*%
%ADD23R,0.650000X1.400000*%


D10*
X252100Y452800D03*
X272100Y452800D03*
X292100Y452800D03*
X312100Y452800D03*
D11*
X297950Y442000D02*
X190050Y442000D01*
X190050Y324000D02*
X297950Y324000D01*
X297950Y442000D01*
D12*
X295900Y346000D02*
X192100Y346000D01*
X295900Y346000D02*
X295900Y351000D01*
X295900Y420000D01*
X192100Y420000D01*
X192100Y351000D02*
X295900Y351000D01*
X192100Y351000D02*
X192100Y420000D01*
X192100Y351000D02*
X192100Y346000D01*
D11*
X190050Y324000D02*
X190050Y442000D01*
D13*
X288450Y337400D03*
X275750Y337400D03*
X263050Y337400D03*
X250350Y337400D03*
X237650Y337400D03*
X224950Y337400D03*
X212250Y337400D03*
X199550Y337400D03*
X199550Y428601D03*
X212250Y428601D03*
X224950Y428601D03*
X237650Y428601D03*
X250350Y428601D03*
X263050Y428601D03*
X275750Y428601D03*
X288450Y428601D03*
D14*
X286644Y407892D02*
X286644Y396208D01*
X287942Y396208D02*
X285346Y396208D01*
X285346Y407892D02*
X287942Y407892D01*
X278182Y396208D02*
X275586Y396208D01*
X278182Y396208D02*
X278281Y396210D01*
X278381Y396216D01*
X278480Y396225D01*
X278578Y396238D01*
X278676Y396255D01*
X278774Y396276D01*
X278870Y396301D01*
X278965Y396329D01*
X279059Y396361D01*
X279152Y396396D01*
X279244Y396435D01*
X279334Y396478D01*
X279422Y396523D01*
X279509Y396573D01*
X279593Y396625D01*
X279676Y396681D01*
X279756Y396739D01*
X279834Y396801D01*
X279909Y396866D01*
X279982Y396934D01*
X280052Y397004D01*
X280120Y397077D01*
X280185Y397152D01*
X280247Y397230D01*
X280305Y397310D01*
X280361Y397393D01*
X280413Y397477D01*
X280463Y397564D01*
X280508Y397652D01*
X280551Y397742D01*
X280590Y397834D01*
X280625Y397927D01*
X280657Y398021D01*
X280685Y398116D01*
X280710Y398212D01*
X280731Y398310D01*
X280748Y398408D01*
X280761Y398506D01*
X280770Y398605D01*
X280776Y398705D01*
X280778Y398804D01*
X280779Y398804D02*
X280779Y405296D01*
X280778Y405296D02*
X280776Y405395D01*
X280770Y405495D01*
X280761Y405594D01*
X280748Y405692D01*
X280731Y405790D01*
X280710Y405888D01*
X280685Y405984D01*
X280657Y406079D01*
X280625Y406173D01*
X280590Y406266D01*
X280551Y406358D01*
X280508Y406448D01*
X280463Y406536D01*
X280413Y406623D01*
X280361Y406707D01*
X280305Y406790D01*
X280247Y406870D01*
X280185Y406948D01*
X280120Y407023D01*
X280052Y407096D01*
X279982Y407166D01*
X279909Y407234D01*
X279834Y407299D01*
X279756Y407361D01*
X279676Y407419D01*
X279593Y407475D01*
X279509Y407527D01*
X279422Y407577D01*
X279334Y407622D01*
X279244Y407665D01*
X279152Y407704D01*
X279059Y407739D01*
X278965Y407771D01*
X278870Y407799D01*
X278774Y407824D01*
X278676Y407845D01*
X278578Y407862D01*
X278480Y407875D01*
X278381Y407884D01*
X278281Y407890D01*
X278182Y407892D01*
X275586Y407892D01*
X271220Y405296D02*
X267975Y407892D01*
X267975Y396208D01*
X271220Y396208D02*
X264729Y396208D01*
X287942Y369792D02*
X287942Y358108D01*
X287942Y369792D02*
X284696Y369792D01*
X284583Y369790D01*
X284470Y369784D01*
X284357Y369774D01*
X284244Y369760D01*
X284132Y369743D01*
X284021Y369721D01*
X283911Y369696D01*
X283801Y369666D01*
X283693Y369633D01*
X283586Y369596D01*
X283480Y369556D01*
X283376Y369511D01*
X283273Y369463D01*
X283172Y369412D01*
X283073Y369357D01*
X282976Y369299D01*
X282881Y369237D01*
X282788Y369172D01*
X282698Y369104D01*
X282610Y369033D01*
X282524Y368958D01*
X282441Y368881D01*
X282361Y368801D01*
X282284Y368718D01*
X282209Y368632D01*
X282138Y368544D01*
X282070Y368454D01*
X282005Y368361D01*
X281943Y368266D01*
X281885Y368169D01*
X281830Y368070D01*
X281779Y367969D01*
X281731Y367866D01*
X281686Y367762D01*
X281646Y367656D01*
X281609Y367549D01*
X281576Y367441D01*
X281546Y367331D01*
X281521Y367221D01*
X281499Y367110D01*
X281482Y366998D01*
X281468Y366885D01*
X281458Y366772D01*
X281452Y366659D01*
X281450Y366546D01*
X281451Y366546D02*
X281451Y361354D01*
X281450Y361354D02*
X281452Y361241D01*
X281458Y361128D01*
X281468Y361015D01*
X281482Y360902D01*
X281499Y360790D01*
X281521Y360679D01*
X281546Y360569D01*
X281576Y360459D01*
X281609Y360351D01*
X281646Y360244D01*
X281686Y360138D01*
X281731Y360034D01*
X281779Y359931D01*
X281830Y359830D01*
X281885Y359731D01*
X281943Y359634D01*
X282005Y359539D01*
X282070Y359446D01*
X282138Y359356D01*
X282209Y359268D01*
X282284Y359182D01*
X282361Y359099D01*
X282441Y359019D01*
X282524Y358942D01*
X282610Y358867D01*
X282698Y358796D01*
X282788Y358728D01*
X282881Y358663D01*
X282976Y358601D01*
X283073Y358543D01*
X283172Y358488D01*
X283273Y358437D01*
X283376Y358389D01*
X283480Y358344D01*
X283586Y358304D01*
X283693Y358267D01*
X283801Y358234D01*
X283911Y358204D01*
X284021Y358179D01*
X284132Y358157D01*
X284244Y358140D01*
X284357Y358126D01*
X284470Y358116D01*
X284583Y358110D01*
X284696Y358108D01*
X287942Y358108D01*
X272617Y358108D02*
X272518Y358110D01*
X272418Y358116D01*
X272319Y358125D01*
X272221Y358138D01*
X272123Y358155D01*
X272025Y358176D01*
X271929Y358201D01*
X271834Y358229D01*
X271740Y358261D01*
X271647Y358296D01*
X271555Y358335D01*
X271465Y358378D01*
X271377Y358423D01*
X271290Y358473D01*
X271206Y358525D01*
X271123Y358581D01*
X271043Y358639D01*
X270965Y358701D01*
X270890Y358766D01*
X270817Y358834D01*
X270747Y358904D01*
X270679Y358977D01*
X270614Y359052D01*
X270552Y359130D01*
X270494Y359210D01*
X270438Y359293D01*
X270386Y359377D01*
X270336Y359464D01*
X270291Y359552D01*
X270248Y359642D01*
X270209Y359734D01*
X270174Y359827D01*
X270142Y359921D01*
X270114Y360016D01*
X270089Y360112D01*
X270068Y360210D01*
X270051Y360308D01*
X270038Y360406D01*
X270029Y360505D01*
X270023Y360605D01*
X270021Y360704D01*
X272617Y358108D02*
X272761Y358110D01*
X272906Y358116D01*
X273050Y358125D01*
X273193Y358138D01*
X273337Y358155D01*
X273480Y358176D01*
X273622Y358201D01*
X273763Y358229D01*
X273904Y358261D01*
X274044Y358297D01*
X274183Y358336D01*
X274321Y358379D01*
X274457Y358426D01*
X274593Y358476D01*
X274727Y358530D01*
X274859Y358587D01*
X274990Y358648D01*
X275119Y358712D01*
X275247Y358780D01*
X275373Y358851D01*
X275497Y358925D01*
X275618Y359002D01*
X275738Y359083D01*
X275856Y359166D01*
X275971Y359253D01*
X276084Y359343D01*
X276195Y359436D01*
X276303Y359531D01*
X276409Y359630D01*
X276512Y359731D01*
X276187Y367196D02*
X276185Y367295D01*
X276179Y367395D01*
X276170Y367494D01*
X276157Y367592D01*
X276140Y367690D01*
X276119Y367788D01*
X276094Y367884D01*
X276066Y367979D01*
X276034Y368073D01*
X275999Y368166D01*
X275960Y368258D01*
X275917Y368348D01*
X275872Y368436D01*
X275822Y368523D01*
X275770Y368607D01*
X275714Y368690D01*
X275656Y368770D01*
X275594Y368848D01*
X275529Y368923D01*
X275461Y368996D01*
X275391Y369066D01*
X275318Y369134D01*
X275243Y369199D01*
X275165Y369261D01*
X275085Y369319D01*
X275002Y369375D01*
X274918Y369427D01*
X274831Y369477D01*
X274743Y369522D01*
X274653Y369565D01*
X274561Y369604D01*
X274468Y369639D01*
X274374Y369671D01*
X274279Y369699D01*
X274183Y369724D01*
X274085Y369745D01*
X273987Y369762D01*
X273889Y369775D01*
X273790Y369784D01*
X273690Y369790D01*
X273591Y369792D01*
X273455Y369790D01*
X273319Y369784D01*
X273183Y369775D01*
X273047Y369762D01*
X272912Y369744D01*
X272778Y369724D01*
X272644Y369699D01*
X272510Y369671D01*
X272378Y369638D01*
X272247Y369603D01*
X272116Y369563D01*
X271987Y369520D01*
X271859Y369474D01*
X271733Y369423D01*
X271607Y369370D01*
X271484Y369312D01*
X271362Y369252D01*
X271242Y369188D01*
X271123Y369120D01*
X271007Y369050D01*
X270893Y368976D01*
X270780Y368899D01*
X270670Y368818D01*
X274890Y364924D02*
X274976Y364977D01*
X275060Y365034D01*
X275142Y365093D01*
X275222Y365156D01*
X275299Y365222D01*
X275374Y365290D01*
X275446Y365362D01*
X275515Y365436D01*
X275581Y365513D01*
X275644Y365592D01*
X275704Y365674D01*
X275761Y365758D01*
X275815Y365844D01*
X275865Y365932D01*
X275912Y366022D01*
X275956Y366113D01*
X275995Y366207D01*
X276032Y366301D01*
X276064Y366397D01*
X276093Y366495D01*
X276118Y366593D01*
X276139Y366692D01*
X276157Y366792D01*
X276170Y366892D01*
X276180Y366993D01*
X276186Y367095D01*
X276188Y367196D01*
X271319Y362976D02*
X271233Y362923D01*
X271149Y362866D01*
X271067Y362807D01*
X270987Y362744D01*
X270910Y362678D01*
X270835Y362610D01*
X270763Y362538D01*
X270694Y362464D01*
X270628Y362387D01*
X270565Y362308D01*
X270505Y362226D01*
X270448Y362142D01*
X270394Y362056D01*
X270344Y361968D01*
X270297Y361878D01*
X270253Y361787D01*
X270214Y361693D01*
X270177Y361599D01*
X270145Y361503D01*
X270116Y361405D01*
X270091Y361307D01*
X270070Y361208D01*
X270052Y361108D01*
X270039Y361008D01*
X270029Y360907D01*
X270023Y360805D01*
X270021Y360704D01*
X271319Y362976D02*
X274889Y364924D01*
X265463Y358108D02*
X262218Y358108D01*
X262105Y358110D01*
X261992Y358116D01*
X261879Y358126D01*
X261766Y358140D01*
X261654Y358157D01*
X261543Y358179D01*
X261433Y358204D01*
X261323Y358234D01*
X261215Y358267D01*
X261108Y358304D01*
X261002Y358344D01*
X260898Y358389D01*
X260795Y358437D01*
X260694Y358488D01*
X260595Y358543D01*
X260498Y358601D01*
X260403Y358663D01*
X260310Y358728D01*
X260220Y358796D01*
X260132Y358867D01*
X260046Y358942D01*
X259963Y359019D01*
X259883Y359099D01*
X259806Y359182D01*
X259731Y359268D01*
X259660Y359356D01*
X259592Y359446D01*
X259527Y359539D01*
X259465Y359634D01*
X259407Y359731D01*
X259352Y359830D01*
X259301Y359931D01*
X259253Y360034D01*
X259208Y360138D01*
X259168Y360244D01*
X259131Y360351D01*
X259098Y360459D01*
X259068Y360569D01*
X259043Y360679D01*
X259021Y360790D01*
X259004Y360902D01*
X258990Y361015D01*
X258980Y361128D01*
X258974Y361241D01*
X258972Y361354D01*
X258974Y361467D01*
X258980Y361580D01*
X258990Y361693D01*
X259004Y361806D01*
X259021Y361918D01*
X259043Y362029D01*
X259068Y362139D01*
X259098Y362249D01*
X259131Y362357D01*
X259168Y362464D01*
X259208Y362570D01*
X259253Y362674D01*
X259301Y362777D01*
X259352Y362878D01*
X259407Y362977D01*
X259465Y363074D01*
X259527Y363169D01*
X259592Y363262D01*
X259660Y363352D01*
X259731Y363440D01*
X259806Y363526D01*
X259883Y363609D01*
X259963Y363689D01*
X260046Y363766D01*
X260132Y363841D01*
X260220Y363912D01*
X260310Y363980D01*
X260403Y364045D01*
X260498Y364107D01*
X260595Y364165D01*
X260694Y364220D01*
X260795Y364271D01*
X260898Y364319D01*
X261002Y364364D01*
X261108Y364404D01*
X261215Y364441D01*
X261323Y364474D01*
X261433Y364504D01*
X261543Y364529D01*
X261654Y364551D01*
X261766Y364568D01*
X261879Y364582D01*
X261992Y364592D01*
X262105Y364598D01*
X262218Y364600D01*
X261568Y369792D02*
X265463Y369792D01*
X261568Y369792D02*
X261467Y369790D01*
X261367Y369784D01*
X261267Y369774D01*
X261167Y369761D01*
X261068Y369743D01*
X260969Y369722D01*
X260872Y369697D01*
X260775Y369668D01*
X260680Y369635D01*
X260586Y369599D01*
X260494Y369559D01*
X260403Y369516D01*
X260314Y369469D01*
X260227Y369419D01*
X260141Y369365D01*
X260058Y369308D01*
X259978Y369248D01*
X259899Y369185D01*
X259823Y369118D01*
X259750Y369049D01*
X259680Y368977D01*
X259612Y368903D01*
X259547Y368826D01*
X259486Y368746D01*
X259427Y368664D01*
X259372Y368580D01*
X259320Y368494D01*
X259271Y368406D01*
X259226Y368316D01*
X259184Y368224D01*
X259146Y368131D01*
X259112Y368036D01*
X259081Y367941D01*
X259054Y367844D01*
X259031Y367746D01*
X259011Y367647D01*
X258996Y367547D01*
X258984Y367447D01*
X258976Y367347D01*
X258972Y367246D01*
X258972Y367146D01*
X258976Y367045D01*
X258984Y366945D01*
X258996Y366845D01*
X259011Y366745D01*
X259031Y366646D01*
X259054Y366548D01*
X259081Y366451D01*
X259112Y366356D01*
X259146Y366261D01*
X259184Y366168D01*
X259226Y366076D01*
X259271Y365986D01*
X259320Y365898D01*
X259372Y365812D01*
X259427Y365728D01*
X259486Y365646D01*
X259547Y365566D01*
X259612Y365489D01*
X259680Y365415D01*
X259750Y365343D01*
X259823Y365274D01*
X259899Y365207D01*
X259978Y365144D01*
X260058Y365084D01*
X260141Y365027D01*
X260227Y364973D01*
X260314Y364923D01*
X260403Y364876D01*
X260494Y364833D01*
X260586Y364793D01*
X260680Y364757D01*
X260775Y364724D01*
X260872Y364695D01*
X260969Y364670D01*
X261068Y364649D01*
X261167Y364631D01*
X261267Y364618D01*
X261367Y364608D01*
X261467Y364602D01*
X261568Y364600D01*
X261568Y364599D02*
X264165Y364599D01*
X250463Y369792D02*
X250356Y369790D01*
X250250Y369784D01*
X250144Y369774D01*
X250038Y369761D01*
X249932Y369743D01*
X249828Y369722D01*
X249724Y369697D01*
X249621Y369668D01*
X249520Y369636D01*
X249420Y369599D01*
X249321Y369559D01*
X249223Y369516D01*
X249127Y369469D01*
X249033Y369418D01*
X248941Y369364D01*
X248851Y369307D01*
X248763Y369247D01*
X248678Y369183D01*
X248595Y369116D01*
X248514Y369046D01*
X248436Y368974D01*
X248360Y368898D01*
X248288Y368820D01*
X248218Y368739D01*
X248151Y368656D01*
X248087Y368571D01*
X248027Y368483D01*
X247970Y368393D01*
X247916Y368301D01*
X247865Y368207D01*
X247818Y368111D01*
X247775Y368013D01*
X247735Y367914D01*
X247698Y367814D01*
X247666Y367713D01*
X247637Y367610D01*
X247612Y367506D01*
X247591Y367402D01*
X247573Y367296D01*
X247560Y367190D01*
X247550Y367084D01*
X247544Y366978D01*
X247542Y366871D01*
X250463Y369792D02*
X250584Y369790D01*
X250705Y369784D01*
X250825Y369774D01*
X250946Y369761D01*
X251065Y369743D01*
X251185Y369722D01*
X251303Y369697D01*
X251420Y369668D01*
X251537Y369635D01*
X251652Y369599D01*
X251766Y369558D01*
X251879Y369515D01*
X251991Y369467D01*
X252100Y369416D01*
X252208Y369361D01*
X252315Y369303D01*
X252419Y369242D01*
X252521Y369177D01*
X252621Y369109D01*
X252719Y369038D01*
X252815Y368964D01*
X252908Y368887D01*
X252998Y368806D01*
X253086Y368723D01*
X253171Y368637D01*
X253254Y368548D01*
X253333Y368457D01*
X253410Y368363D01*
X253483Y368267D01*
X253553Y368169D01*
X253620Y368068D01*
X253684Y367965D01*
X253745Y367860D01*
X253802Y367753D01*
X253855Y367645D01*
X253905Y367535D01*
X253951Y367423D01*
X253994Y367310D01*
X254033Y367195D01*
X248516Y364599D02*
X248437Y364677D01*
X248361Y364757D01*
X248288Y364840D01*
X248218Y364926D01*
X248151Y365013D01*
X248087Y365104D01*
X248027Y365196D01*
X247969Y365290D01*
X247915Y365387D01*
X247865Y365485D01*
X247818Y365585D01*
X247774Y365686D01*
X247734Y365789D01*
X247698Y365894D01*
X247666Y365999D01*
X247637Y366106D01*
X247612Y366213D01*
X247590Y366322D01*
X247573Y366431D01*
X247559Y366540D01*
X247550Y366650D01*
X247544Y366761D01*
X247542Y366871D01*
X248516Y364599D02*
X254033Y358108D01*
X247542Y358108D01*
X242603Y358108D02*
X239358Y358108D01*
X239245Y358110D01*
X239132Y358116D01*
X239019Y358126D01*
X238906Y358140D01*
X238794Y358157D01*
X238683Y358179D01*
X238573Y358204D01*
X238463Y358234D01*
X238355Y358267D01*
X238248Y358304D01*
X238142Y358344D01*
X238038Y358389D01*
X237935Y358437D01*
X237834Y358488D01*
X237735Y358543D01*
X237638Y358601D01*
X237543Y358663D01*
X237450Y358728D01*
X237360Y358796D01*
X237272Y358867D01*
X237186Y358942D01*
X237103Y359019D01*
X237023Y359099D01*
X236946Y359182D01*
X236871Y359268D01*
X236800Y359356D01*
X236732Y359446D01*
X236667Y359539D01*
X236605Y359634D01*
X236547Y359731D01*
X236492Y359830D01*
X236441Y359931D01*
X236393Y360034D01*
X236348Y360138D01*
X236308Y360244D01*
X236271Y360351D01*
X236238Y360459D01*
X236208Y360569D01*
X236183Y360679D01*
X236161Y360790D01*
X236144Y360902D01*
X236130Y361015D01*
X236120Y361128D01*
X236114Y361241D01*
X236112Y361354D01*
X236114Y361467D01*
X236120Y361580D01*
X236130Y361693D01*
X236144Y361806D01*
X236161Y361918D01*
X236183Y362029D01*
X236208Y362139D01*
X236238Y362249D01*
X236271Y362357D01*
X236308Y362464D01*
X236348Y362570D01*
X236393Y362674D01*
X236441Y362777D01*
X236492Y362878D01*
X236547Y362977D01*
X236605Y363074D01*
X236667Y363169D01*
X236732Y363262D01*
X236800Y363352D01*
X236871Y363440D01*
X236946Y363526D01*
X237023Y363609D01*
X237103Y363689D01*
X237186Y363766D01*
X237272Y363841D01*
X237360Y363912D01*
X237450Y363980D01*
X237543Y364045D01*
X237638Y364107D01*
X237735Y364165D01*
X237834Y364220D01*
X237935Y364271D01*
X238038Y364319D01*
X238142Y364364D01*
X238248Y364404D01*
X238355Y364441D01*
X238463Y364474D01*
X238573Y364504D01*
X238683Y364529D01*
X238794Y364551D01*
X238906Y364568D01*
X239019Y364582D01*
X239132Y364592D01*
X239245Y364598D01*
X239358Y364600D01*
X238708Y369792D02*
X242603Y369792D01*
X238708Y369792D02*
X238607Y369790D01*
X238507Y369784D01*
X238407Y369774D01*
X238307Y369761D01*
X238208Y369743D01*
X238109Y369722D01*
X238012Y369697D01*
X237915Y369668D01*
X237820Y369635D01*
X237726Y369599D01*
X237634Y369559D01*
X237543Y369516D01*
X237454Y369469D01*
X237367Y369419D01*
X237281Y369365D01*
X237198Y369308D01*
X237118Y369248D01*
X237039Y369185D01*
X236963Y369118D01*
X236890Y369049D01*
X236820Y368977D01*
X236752Y368903D01*
X236687Y368826D01*
X236626Y368746D01*
X236567Y368664D01*
X236512Y368580D01*
X236460Y368494D01*
X236411Y368406D01*
X236366Y368316D01*
X236324Y368224D01*
X236286Y368131D01*
X236252Y368036D01*
X236221Y367941D01*
X236194Y367844D01*
X236171Y367746D01*
X236151Y367647D01*
X236136Y367547D01*
X236124Y367447D01*
X236116Y367347D01*
X236112Y367246D01*
X236112Y367146D01*
X236116Y367045D01*
X236124Y366945D01*
X236136Y366845D01*
X236151Y366745D01*
X236171Y366646D01*
X236194Y366548D01*
X236221Y366451D01*
X236252Y366356D01*
X236286Y366261D01*
X236324Y366168D01*
X236366Y366076D01*
X236411Y365986D01*
X236460Y365898D01*
X236512Y365812D01*
X236567Y365728D01*
X236626Y365646D01*
X236687Y365566D01*
X236752Y365489D01*
X236820Y365415D01*
X236890Y365343D01*
X236963Y365274D01*
X237039Y365207D01*
X237118Y365144D01*
X237198Y365084D01*
X237281Y365027D01*
X237367Y364973D01*
X237454Y364923D01*
X237543Y364876D01*
X237634Y364833D01*
X237726Y364793D01*
X237820Y364757D01*
X237915Y364724D01*
X238012Y364695D01*
X238109Y364670D01*
X238208Y364649D01*
X238307Y364631D01*
X238407Y364618D01*
X238507Y364608D01*
X238607Y364602D01*
X238708Y364600D01*
X238708Y364599D02*
X241305Y364599D01*
X231173Y367196D02*
X227928Y369792D01*
X227928Y358108D01*
X231173Y358108D02*
X224682Y358108D01*
X216230Y358108D02*
X216131Y358110D01*
X216031Y358116D01*
X215932Y358125D01*
X215834Y358138D01*
X215736Y358155D01*
X215638Y358176D01*
X215542Y358201D01*
X215447Y358229D01*
X215353Y358261D01*
X215260Y358296D01*
X215168Y358335D01*
X215078Y358378D01*
X214990Y358423D01*
X214903Y358473D01*
X214819Y358525D01*
X214736Y358581D01*
X214656Y358639D01*
X214578Y358701D01*
X214503Y358766D01*
X214430Y358834D01*
X214360Y358904D01*
X214292Y358977D01*
X214227Y359052D01*
X214165Y359130D01*
X214107Y359210D01*
X214051Y359293D01*
X213999Y359377D01*
X213949Y359464D01*
X213904Y359552D01*
X213861Y359642D01*
X213822Y359734D01*
X213787Y359827D01*
X213755Y359921D01*
X213727Y360016D01*
X213702Y360112D01*
X213681Y360210D01*
X213664Y360308D01*
X213651Y360406D01*
X213642Y360505D01*
X213636Y360605D01*
X213634Y360704D01*
X216230Y358108D02*
X216374Y358110D01*
X216519Y358116D01*
X216663Y358125D01*
X216806Y358138D01*
X216950Y358155D01*
X217093Y358176D01*
X217235Y358201D01*
X217376Y358229D01*
X217517Y358261D01*
X217657Y358297D01*
X217796Y358336D01*
X217934Y358379D01*
X218070Y358426D01*
X218206Y358476D01*
X218340Y358530D01*
X218472Y358587D01*
X218603Y358648D01*
X218732Y358712D01*
X218860Y358780D01*
X218986Y358851D01*
X219110Y358925D01*
X219231Y359002D01*
X219351Y359083D01*
X219469Y359166D01*
X219584Y359253D01*
X219697Y359343D01*
X219808Y359436D01*
X219916Y359531D01*
X220022Y359630D01*
X220125Y359731D01*
X219799Y367196D02*
X219797Y367295D01*
X219791Y367395D01*
X219782Y367494D01*
X219769Y367592D01*
X219752Y367690D01*
X219731Y367788D01*
X219706Y367884D01*
X219678Y367979D01*
X219646Y368073D01*
X219611Y368166D01*
X219572Y368258D01*
X219529Y368348D01*
X219484Y368436D01*
X219434Y368523D01*
X219382Y368607D01*
X219326Y368690D01*
X219268Y368770D01*
X219206Y368848D01*
X219141Y368923D01*
X219073Y368996D01*
X219003Y369066D01*
X218930Y369134D01*
X218855Y369199D01*
X218777Y369261D01*
X218697Y369319D01*
X218614Y369375D01*
X218530Y369427D01*
X218443Y369477D01*
X218355Y369522D01*
X218265Y369565D01*
X218173Y369604D01*
X218080Y369639D01*
X217986Y369671D01*
X217891Y369699D01*
X217795Y369724D01*
X217697Y369745D01*
X217599Y369762D01*
X217501Y369775D01*
X217402Y369784D01*
X217302Y369790D01*
X217203Y369792D01*
X217067Y369790D01*
X216931Y369784D01*
X216795Y369775D01*
X216659Y369762D01*
X216524Y369744D01*
X216390Y369724D01*
X216256Y369699D01*
X216122Y369671D01*
X215990Y369638D01*
X215859Y369603D01*
X215728Y369563D01*
X215599Y369520D01*
X215471Y369474D01*
X215345Y369423D01*
X215219Y369370D01*
X215096Y369312D01*
X214974Y369252D01*
X214854Y369188D01*
X214735Y369120D01*
X214619Y369050D01*
X214505Y368976D01*
X214392Y368899D01*
X214282Y368818D01*
X218502Y364924D02*
X218588Y364977D01*
X218672Y365034D01*
X218754Y365093D01*
X218834Y365156D01*
X218911Y365222D01*
X218986Y365290D01*
X219058Y365362D01*
X219127Y365436D01*
X219193Y365513D01*
X219256Y365592D01*
X219316Y365674D01*
X219373Y365758D01*
X219427Y365844D01*
X219477Y365932D01*
X219524Y366022D01*
X219568Y366113D01*
X219607Y366207D01*
X219644Y366301D01*
X219676Y366397D01*
X219705Y366495D01*
X219730Y366593D01*
X219751Y366692D01*
X219769Y366792D01*
X219782Y366892D01*
X219792Y366993D01*
X219798Y367095D01*
X219800Y367196D01*
X214931Y362976D02*
X214845Y362923D01*
X214761Y362866D01*
X214679Y362807D01*
X214599Y362744D01*
X214522Y362678D01*
X214447Y362610D01*
X214375Y362538D01*
X214306Y362464D01*
X214240Y362387D01*
X214177Y362308D01*
X214117Y362226D01*
X214060Y362142D01*
X214006Y362056D01*
X213956Y361968D01*
X213909Y361878D01*
X213865Y361787D01*
X213826Y361693D01*
X213789Y361599D01*
X213757Y361503D01*
X213728Y361405D01*
X213703Y361307D01*
X213682Y361208D01*
X213664Y361108D01*
X213651Y361008D01*
X213641Y360907D01*
X213635Y360805D01*
X213633Y360704D01*
X214931Y362976D02*
X218501Y364924D01*
X208694Y369792D02*
X208694Y358108D01*
X202203Y358108D02*
X208694Y369792D01*
X202203Y369792D02*
X202203Y358108D01*
D15*
X521239Y451950D02*
X522227Y453521D01*
X523177Y455116D01*
X524087Y456734D01*
X524959Y458373D01*
X525790Y460033D01*
X526581Y461713D01*
X527330Y463411D01*
X528039Y465127D01*
X528705Y466860D01*
X529329Y468608D01*
X529911Y470371D01*
X530449Y472148D01*
X530945Y473937D01*
X531396Y475738D01*
X531804Y477549D01*
X532168Y479369D01*
X532488Y481198D01*
X532763Y483034D01*
X532993Y484876D01*
X533179Y486723D01*
X533320Y488574D01*
X533415Y490428D01*
X533466Y492284D01*
X533472Y494140D01*
X533433Y495996D01*
X533348Y497851D01*
X533219Y499703D01*
X533045Y501551D01*
X532826Y503395D01*
X532562Y505232D01*
X532254Y507063D01*
X531901Y508886D01*
X531504Y510699D01*
X531064Y512503D01*
X530580Y514295D01*
X530052Y516075D01*
X529481Y517841D01*
X528868Y519593D01*
X528212Y521330D01*
X527515Y523051D01*
X526776Y524754D01*
X525995Y526438D01*
X525175Y528103D01*
X524313Y529748D01*
X523413Y531371D01*
X522473Y532972D01*
X521494Y534550D01*
X520478Y536103D01*
X519424Y537631D01*
X518333Y539134D01*
X517207Y540609D01*
X516044Y542057D01*
X514847Y543476D01*
X513616Y544865D01*
X512352Y546224D01*
X511055Y547553D01*
X509726Y548849D01*
X508366Y550112D01*
X506975Y551343D01*
X505556Y552539D01*
X504107Y553700D01*
X502631Y554826D01*
X501128Y555916D01*
X499599Y556969D01*
X498045Y557984D01*
X496467Y558962D01*
X494865Y559900D01*
X493242Y560800D01*
X491596Y561660D01*
X489931Y562480D01*
X488246Y563259D01*
X486542Y563997D01*
X484822Y564694D01*
X483084Y565349D01*
X481332Y565961D01*
X479565Y566530D01*
X477785Y567057D01*
X475992Y567540D01*
X474188Y567979D01*
X472375Y568375D01*
X441625Y568375D02*
X439810Y567982D01*
X438004Y567545D01*
X436210Y567065D01*
X434428Y566541D01*
X432659Y565974D01*
X430904Y565364D01*
X429165Y564711D01*
X427442Y564017D01*
X425737Y563280D01*
X424050Y562503D01*
X422382Y561685D01*
X420735Y560826D01*
X419109Y559928D01*
X417506Y558990D01*
X415925Y558014D01*
X414369Y556999D01*
X412838Y555947D01*
X411333Y554858D01*
X409855Y553733D01*
X408405Y552573D01*
X406984Y551377D01*
X405592Y550147D01*
X404230Y548884D01*
X402899Y547588D01*
X401600Y546259D01*
X400334Y544900D01*
X399102Y543511D01*
X397903Y542091D01*
X396740Y540644D01*
X395611Y539168D01*
X394520Y537665D01*
X393465Y536136D01*
X392447Y534582D01*
X391468Y533004D01*
X390527Y531402D01*
X389625Y529778D01*
X388763Y528133D01*
X387942Y526467D01*
X387161Y524781D01*
X386421Y523077D01*
X385723Y521356D01*
X385067Y519618D01*
X384454Y517865D01*
X383883Y516097D01*
X383356Y514316D01*
X382871Y512522D01*
X382431Y510718D01*
X382035Y508903D01*
X381683Y507079D01*
X381375Y505247D01*
X381112Y503409D01*
X380894Y501564D01*
X380720Y499714D01*
X380592Y497861D01*
X380509Y496006D01*
X380471Y494148D01*
X380478Y492291D01*
X380530Y490434D01*
X380627Y488579D01*
X380770Y486727D01*
X380957Y484879D01*
X381189Y483036D01*
X381466Y481199D01*
X381788Y479370D01*
X382154Y477549D01*
X382564Y475737D01*
X383018Y473936D01*
X383516Y472146D01*
X384057Y470369D01*
X384641Y468606D01*
X385268Y466857D01*
X385937Y465124D01*
X386648Y463408D01*
X387400Y461710D01*
X388194Y460031D01*
X389028Y458371D01*
X389903Y456732D01*
X390817Y455115D01*
X391770Y453520D01*
X392761Y451949D01*
X392761Y451950D02*
X391761Y453537D01*
X390800Y455148D01*
X389879Y456783D01*
X388998Y458439D01*
X388158Y460117D01*
X387360Y461815D01*
X386603Y463531D01*
X385889Y465266D01*
X385217Y467018D01*
X384589Y468786D01*
X384004Y470568D01*
X383463Y472365D01*
X382966Y474174D01*
X382514Y475994D01*
X382106Y477826D01*
X381744Y479667D01*
X381426Y481516D01*
X381154Y483372D01*
X380928Y485234D01*
X380748Y487102D01*
X380613Y488973D01*
X380524Y490847D01*
X380481Y492723D01*
X380484Y494599D01*
X380534Y496474D01*
X380629Y498348D01*
X380770Y500219D01*
X380957Y502085D01*
X381189Y503947D01*
X381467Y505802D01*
X381791Y507650D01*
X382159Y509490D01*
X382573Y511320D01*
X383032Y513139D01*
X383534Y514946D01*
X384081Y516741D01*
X384672Y518522D01*
X385307Y520287D01*
X385984Y522037D01*
X386704Y523769D01*
X387467Y525483D01*
X388271Y527178D01*
X389116Y528853D01*
X390003Y530507D01*
X390929Y532138D01*
X391896Y533746D01*
X392901Y535330D01*
X393945Y536889D01*
X395027Y538422D01*
X396146Y539927D01*
X397302Y541405D01*
X398493Y542854D01*
X399720Y544274D01*
X400981Y545663D01*
X402276Y547021D01*
X403603Y548346D01*
X404963Y549639D01*
X406354Y550897D01*
X407776Y552122D01*
X409227Y553311D01*
X410707Y554464D01*
X412215Y555581D01*
X413749Y556660D01*
X415310Y557701D01*
X416895Y558704D01*
X418505Y559668D01*
X420138Y560591D01*
X421793Y561475D01*
X423469Y562318D01*
X425166Y563119D01*
X426881Y563878D01*
X428615Y564596D01*
X430365Y565270D01*
X432132Y565902D01*
X433914Y566489D01*
X435709Y567033D01*
X437517Y567533D01*
X439337Y567989D01*
X441168Y568399D01*
X443008Y568765D01*
X444857Y569085D01*
X446712Y569360D01*
X448574Y569590D01*
X450442Y569773D01*
X452313Y569911D01*
X454186Y570003D01*
X456062Y570049D01*
X457938Y570049D01*
X459814Y570003D01*
X461687Y569911D01*
X463558Y569773D01*
X465426Y569590D01*
X467288Y569360D01*
X469143Y569085D01*
X470992Y568765D01*
X472832Y568399D01*
X474663Y567989D01*
X476483Y567533D01*
X478291Y567033D01*
X480086Y566489D01*
X481868Y565902D01*
X483635Y565270D01*
X485385Y564596D01*
X487119Y563878D01*
X488834Y563119D01*
X490531Y562318D01*
X492207Y561475D01*
X493862Y560591D01*
X495495Y559668D01*
X497105Y558704D01*
X498690Y557701D01*
X500251Y556660D01*
X501785Y555581D01*
X503293Y554464D01*
X504773Y553311D01*
X506224Y552122D01*
X507646Y550897D01*
X509037Y549639D01*
X510397Y548346D01*
X511724Y547021D01*
X513019Y545663D01*
X514280Y544274D01*
X515507Y542854D01*
X516698Y541405D01*
X517854Y539927D01*
X518973Y538422D01*
X520055Y536889D01*
X521099Y535330D01*
X522104Y533746D01*
X523071Y532138D01*
X523997Y530507D01*
X524884Y528853D01*
X525729Y527178D01*
X526533Y525483D01*
X527296Y523769D01*
X528016Y522037D01*
X528693Y520287D01*
X529328Y518522D01*
X529919Y516741D01*
X530466Y514946D01*
X530968Y513139D01*
X531427Y511320D01*
X531841Y509490D01*
X532209Y507650D01*
X532533Y505802D01*
X532811Y503947D01*
X533043Y502085D01*
X533230Y500219D01*
X533371Y498348D01*
X533466Y496474D01*
X533516Y494599D01*
X533519Y492723D01*
X533476Y490847D01*
X533387Y488973D01*
X533252Y487102D01*
X533072Y485234D01*
X532846Y483372D01*
X532574Y481516D01*
X532256Y479667D01*
X531894Y477826D01*
X531486Y475994D01*
X531034Y474174D01*
X530537Y472365D01*
X529996Y470568D01*
X529411Y468786D01*
X528783Y467018D01*
X528111Y465266D01*
X527397Y463531D01*
X526640Y461815D01*
X525842Y460117D01*
X525002Y458439D01*
X524121Y456783D01*
X523200Y455148D01*
X522239Y453537D01*
X521239Y451950D01*
X521154Y451815D01*
X521072Y451678D01*
X520994Y451539D01*
X520920Y451399D01*
X520849Y451256D01*
X520781Y451112D01*
X520717Y450966D01*
X520657Y450818D01*
X520600Y450669D01*
X520547Y450519D01*
X520498Y450368D01*
X520452Y450215D01*
X520410Y450061D01*
X520372Y449907D01*
X520338Y449751D01*
X520308Y449595D01*
X520281Y449437D01*
X520259Y449280D01*
X520240Y449121D01*
X520225Y448963D01*
X520214Y448804D01*
X520207Y448645D01*
X520204Y448485D01*
X520205Y448326D01*
X520210Y448167D01*
X520219Y448008D01*
X520231Y447849D01*
X520248Y447690D01*
X520268Y447532D01*
X520292Y447375D01*
X520321Y447218D01*
X520353Y447062D01*
X520389Y446907D01*
X520428Y446752D01*
X520472Y446599D01*
X520519Y446447D01*
X520570Y446296D01*
X520625Y446146D01*
X520683Y445998D01*
X520745Y445851D01*
X520811Y445706D01*
X520880Y445562D01*
X520952Y445421D01*
X521029Y445281D01*
X521108Y445143D01*
X521191Y445007D01*
X521277Y444873D01*
X521367Y444741D01*
X521460Y444611D01*
X521556Y444484D01*
X521655Y444359D01*
X521757Y444237D01*
X521862Y444117D01*
X521970Y444000D01*
X522081Y443885D01*
X522194Y443774D01*
X522310Y443665D01*
X522429Y443559D01*
X522551Y443456D01*
X522675Y443356D01*
X522802Y443259D01*
X522930Y443165D01*
X523061Y443075D01*
X523195Y442987D01*
X523330Y442903D01*
X523468Y442823D01*
X523607Y442745D01*
X523748Y442672D01*
X523891Y442601D01*
X524036Y442535D01*
X524182Y442471D01*
X524330Y442412D01*
X524479Y442356D01*
X524630Y442304D01*
X524782Y442255D01*
X524934Y442211D01*
X525088Y442170D01*
X525243Y442133D01*
X525399Y442099D01*
X525556Y442070D01*
X525713Y442044D01*
X525871Y442023D01*
X526029Y442005D01*
X526188Y441991D01*
X526347Y441981D01*
X526506Y441975D01*
X526666Y441973D01*
X526825Y441975D01*
X526953Y441976D01*
X527082Y441973D01*
X527210Y441967D01*
X527338Y441956D01*
X527466Y441942D01*
X527593Y441924D01*
X527720Y441902D01*
X527846Y441876D01*
X527971Y441847D01*
X528095Y441814D01*
X528218Y441777D01*
X528340Y441736D01*
X528461Y441692D01*
X528580Y441644D01*
X528698Y441593D01*
X528814Y441538D01*
X528929Y441480D01*
X529041Y441418D01*
X529152Y441353D01*
X529261Y441285D01*
X529368Y441213D01*
X529472Y441138D01*
X529574Y441061D01*
X529674Y440980D01*
X529772Y440896D01*
X529867Y440809D01*
X529959Y440720D01*
X530048Y440628D01*
X530135Y440533D01*
X530219Y440435D01*
X530300Y440335D01*
X530377Y440233D01*
X530452Y440129D01*
X530524Y440022D01*
X530592Y439913D01*
X530657Y439802D01*
X530719Y439690D01*
X530777Y439575D01*
X530832Y439459D01*
X530883Y439341D01*
X530931Y439222D01*
X530975Y439101D01*
X531016Y438979D01*
X531053Y438856D01*
X531086Y438732D01*
X531115Y438607D01*
X531141Y438481D01*
X531163Y438354D01*
X531181Y438227D01*
X531195Y438099D01*
X531206Y437971D01*
X531212Y437843D01*
X531215Y437714D01*
X531214Y437586D01*
X531214Y429606D01*
X531212Y429463D01*
X531206Y429321D01*
X531196Y429179D01*
X531183Y429037D01*
X531165Y428895D01*
X531144Y428754D01*
X531119Y428614D01*
X531089Y428474D01*
X531056Y428336D01*
X531020Y428198D01*
X530979Y428061D01*
X530935Y427926D01*
X530887Y427791D01*
X530836Y427659D01*
X530780Y427527D01*
X530722Y427397D01*
X530659Y427269D01*
X530594Y427142D01*
X530524Y427018D01*
X530452Y426895D01*
X530376Y426774D01*
X530296Y426656D01*
X530214Y426540D01*
X530128Y426426D01*
X530040Y426314D01*
X529948Y426205D01*
X529853Y426098D01*
X529756Y425994D01*
X529655Y425893D01*
X529552Y425795D01*
X529446Y425699D01*
X529338Y425607D01*
X529227Y425517D01*
X529114Y425430D01*
X528998Y425347D01*
X528880Y425267D01*
X528760Y425190D01*
X528638Y425116D01*
X528514Y425046D01*
X528388Y424979D01*
X528260Y424916D01*
X528131Y424856D01*
X528000Y424800D01*
X527867Y424747D01*
X527734Y424698D01*
X527598Y424653D01*
X527462Y424611D01*
X527325Y424573D01*
X527186Y424539D01*
X527047Y424509D01*
X526907Y424482D01*
X526766Y424460D01*
X526625Y424441D01*
X526483Y424426D01*
X526341Y424415D01*
X526198Y424408D01*
X526056Y424405D01*
X525913Y424406D01*
X525771Y424411D01*
X525628Y424419D01*
X502885Y424419D01*
X472215Y417636D01*
X472215Y433596D01*
X392761Y451950D02*
X392846Y451815D01*
X392928Y451678D01*
X393006Y451539D01*
X393080Y451399D01*
X393151Y451256D01*
X393219Y451112D01*
X393283Y450966D01*
X393343Y450818D01*
X393400Y450669D01*
X393453Y450519D01*
X393502Y450368D01*
X393548Y450215D01*
X393590Y450061D01*
X393628Y449907D01*
X393662Y449751D01*
X393692Y449595D01*
X393719Y449437D01*
X393741Y449280D01*
X393760Y449121D01*
X393775Y448963D01*
X393786Y448804D01*
X393793Y448645D01*
X393796Y448485D01*
X393795Y448326D01*
X393790Y448167D01*
X393781Y448008D01*
X393769Y447849D01*
X393752Y447690D01*
X393732Y447532D01*
X393708Y447375D01*
X393679Y447218D01*
X393647Y447062D01*
X393611Y446907D01*
X393572Y446752D01*
X393528Y446599D01*
X393481Y446447D01*
X393430Y446296D01*
X393375Y446146D01*
X393317Y445998D01*
X393255Y445851D01*
X393189Y445706D01*
X393120Y445562D01*
X393048Y445421D01*
X392971Y445281D01*
X392892Y445143D01*
X392809Y445007D01*
X392723Y444873D01*
X392633Y444741D01*
X392540Y444611D01*
X392444Y444484D01*
X392345Y444359D01*
X392243Y444237D01*
X392138Y444117D01*
X392030Y444000D01*
X391919Y443885D01*
X391806Y443774D01*
X391690Y443665D01*
X391571Y443559D01*
X391449Y443456D01*
X391325Y443356D01*
X391198Y443259D01*
X391070Y443165D01*
X390939Y443075D01*
X390805Y442987D01*
X390670Y442903D01*
X390532Y442823D01*
X390393Y442745D01*
X390252Y442672D01*
X390109Y442601D01*
X389964Y442535D01*
X389818Y442471D01*
X389670Y442412D01*
X389521Y442356D01*
X389370Y442304D01*
X389218Y442255D01*
X389066Y442211D01*
X388912Y442170D01*
X388757Y442133D01*
X388601Y442099D01*
X388444Y442070D01*
X388287Y442044D01*
X388129Y442023D01*
X387971Y442005D01*
X387812Y441991D01*
X387653Y441981D01*
X387494Y441975D01*
X387334Y441973D01*
X387175Y441975D01*
X387047Y441976D01*
X386918Y441973D01*
X386790Y441967D01*
X386662Y441956D01*
X386534Y441942D01*
X386407Y441924D01*
X386280Y441902D01*
X386154Y441876D01*
X386029Y441847D01*
X385905Y441814D01*
X385782Y441777D01*
X385660Y441736D01*
X385539Y441692D01*
X385420Y441644D01*
X385302Y441593D01*
X385186Y441538D01*
X385071Y441480D01*
X384959Y441418D01*
X384848Y441353D01*
X384739Y441285D01*
X384632Y441213D01*
X384528Y441138D01*
X384426Y441061D01*
X384326Y440980D01*
X384228Y440896D01*
X384133Y440809D01*
X384041Y440720D01*
X383952Y440628D01*
X383865Y440533D01*
X383781Y440435D01*
X383700Y440335D01*
X383623Y440233D01*
X383548Y440129D01*
X383476Y440022D01*
X383408Y439913D01*
X383343Y439802D01*
X383281Y439690D01*
X383223Y439575D01*
X383168Y439459D01*
X383117Y439341D01*
X383069Y439222D01*
X383025Y439101D01*
X382984Y438979D01*
X382947Y438856D01*
X382914Y438732D01*
X382885Y438607D01*
X382859Y438481D01*
X382837Y438354D01*
X382819Y438227D01*
X382805Y438099D01*
X382794Y437971D01*
X382788Y437843D01*
X382785Y437714D01*
X382786Y437586D01*
X382786Y429606D01*
X382788Y429463D01*
X382794Y429321D01*
X382804Y429179D01*
X382817Y429037D01*
X382835Y428895D01*
X382856Y428754D01*
X382881Y428614D01*
X382911Y428474D01*
X382944Y428336D01*
X382980Y428198D01*
X383021Y428061D01*
X383065Y427926D01*
X383113Y427791D01*
X383164Y427659D01*
X383220Y427527D01*
X383278Y427397D01*
X383341Y427269D01*
X383406Y427142D01*
X383476Y427018D01*
X383548Y426895D01*
X383624Y426774D01*
X383704Y426656D01*
X383786Y426540D01*
X383872Y426426D01*
X383960Y426314D01*
X384052Y426205D01*
X384147Y426098D01*
X384244Y425994D01*
X384345Y425893D01*
X384448Y425795D01*
X384554Y425699D01*
X384662Y425607D01*
X384773Y425517D01*
X384886Y425430D01*
X385002Y425347D01*
X385120Y425267D01*
X385240Y425190D01*
X385362Y425116D01*
X385486Y425046D01*
X385612Y424979D01*
X385740Y424916D01*
X385869Y424856D01*
X386000Y424800D01*
X386133Y424747D01*
X386266Y424698D01*
X386402Y424653D01*
X386538Y424611D01*
X386675Y424573D01*
X386814Y424539D01*
X386953Y424509D01*
X387093Y424482D01*
X387234Y424460D01*
X387375Y424441D01*
X387517Y424426D01*
X387659Y424415D01*
X387802Y424408D01*
X387944Y424405D01*
X388087Y424406D01*
X388229Y424411D01*
X388372Y424419D01*
X411115Y424419D01*
X441785Y417636D01*
X441785Y433596D01*
X392000Y433596D02*
X522000Y433596D01*
X490117Y438783D02*
X491446Y439617D01*
X492754Y440482D01*
X494040Y441379D01*
X495304Y442308D01*
X496545Y443267D01*
X497762Y444256D01*
X498955Y445274D01*
X500122Y446322D01*
X501263Y447397D01*
X502378Y448500D01*
X503465Y449631D01*
X504525Y450787D01*
X505556Y451969D01*
X506557Y453176D01*
X507529Y454407D01*
X508471Y455661D01*
X509381Y456938D01*
X510260Y458237D01*
X511107Y459557D01*
X511921Y460897D01*
X512703Y462257D01*
X513451Y463635D01*
X514165Y465032D01*
X514844Y466445D01*
X515489Y467875D01*
X516099Y469320D01*
X516673Y470779D01*
X517212Y472252D01*
X517714Y473738D01*
X518180Y475235D01*
X518608Y476744D01*
X519000Y478262D01*
X519355Y479790D01*
X519672Y481326D01*
X519952Y482869D01*
X520194Y484419D01*
X520397Y485974D01*
X520563Y487533D01*
X520691Y489096D01*
X520780Y490662D01*
X520831Y492230D01*
X520843Y493798D01*
X520818Y495366D01*
X520754Y496933D01*
X520651Y498498D01*
X520511Y500060D01*
X520332Y501618D01*
X520115Y503172D01*
X519860Y504719D01*
X519568Y506260D01*
X519238Y507793D01*
X518870Y509318D01*
X518465Y510833D01*
X518024Y512338D01*
X517546Y513831D01*
X517031Y515313D01*
X516480Y516781D01*
X515894Y518236D01*
X515272Y519676D01*
X514615Y521100D01*
X513924Y522507D01*
X513198Y523898D01*
X512439Y525270D01*
X511646Y526623D01*
X510820Y527956D01*
X509962Y529269D01*
X509072Y530561D01*
X508151Y531830D01*
X507199Y533076D01*
X506217Y534299D01*
X505205Y535497D01*
X504165Y536671D01*
X503095Y537818D01*
X501999Y538939D01*
X500875Y540033D01*
X499724Y541099D01*
X498548Y542136D01*
X497347Y543145D01*
X496122Y544124D01*
X494873Y545072D01*
X493601Y545990D01*
X492307Y546876D01*
X490992Y547731D01*
X489656Y548553D01*
X488301Y549342D01*
X486927Y550098D01*
X485535Y550820D01*
X484125Y551507D01*
X482699Y552160D01*
X481258Y552778D01*
X479802Y553361D01*
X478332Y553908D01*
X476849Y554418D01*
X475354Y554893D01*
X439045Y554893D02*
X437559Y554434D01*
X436084Y553939D01*
X434622Y553409D01*
X433173Y552843D01*
X431738Y552243D01*
X430319Y551607D01*
X428915Y550938D01*
X427528Y550234D01*
X426158Y549497D01*
X424807Y548727D01*
X423475Y547924D01*
X422162Y547089D01*
X420871Y546223D01*
X419600Y545325D01*
X418352Y544397D01*
X417127Y543439D01*
X415926Y542452D01*
X414748Y541435D01*
X413596Y540390D01*
X412470Y539318D01*
X411370Y538218D01*
X410297Y537092D01*
X409251Y535941D01*
X408234Y534764D01*
X407246Y533563D01*
X406287Y532338D01*
X405358Y531091D01*
X404460Y529821D01*
X403593Y528530D01*
X402758Y527218D01*
X401954Y525886D01*
X401184Y524535D01*
X400446Y523166D01*
X399742Y521779D01*
X399071Y520375D01*
X398435Y518956D01*
X397834Y517522D01*
X397267Y516073D01*
X396736Y514611D01*
X396241Y513137D01*
X395781Y511651D01*
X395358Y510154D01*
X394972Y508648D01*
X394621Y507132D01*
X394308Y505609D01*
X394032Y504078D01*
X393793Y502541D01*
X393592Y500999D01*
X393428Y499452D01*
X393302Y497902D01*
X393213Y496349D01*
X393163Y494795D01*
X393149Y493240D01*
X393174Y491684D01*
X393237Y490130D01*
X393337Y488578D01*
X393475Y487029D01*
X393650Y485484D01*
X393863Y483943D01*
X394113Y482408D01*
X394401Y480879D01*
X394725Y479358D01*
X395087Y477845D01*
X395485Y476342D01*
X395919Y474848D01*
X396390Y473366D01*
X396896Y471895D01*
X397438Y470437D01*
X398015Y468993D01*
X398627Y467563D01*
X399274Y466149D01*
X399955Y464750D01*
X400669Y463369D01*
X401417Y462005D01*
X402198Y460660D01*
X403012Y459334D01*
X403857Y458029D01*
X404733Y456744D01*
X405641Y455481D01*
X406579Y454240D01*
X407547Y453023D01*
X408544Y451829D01*
X409570Y450660D01*
X410624Y449516D01*
X411705Y448398D01*
X412814Y447307D01*
X413948Y446243D01*
X415108Y445207D01*
X416293Y444199D01*
X417502Y443221D01*
X418734Y442272D01*
X419989Y441353D01*
X421266Y440465D01*
X422564Y439608D01*
X423883Y438783D01*
X441785Y433596D02*
X392000Y433596D01*
X472215Y433596D02*
X522000Y433596D01*
X492125Y433625D02*
X492022Y433607D01*
X491918Y433592D01*
X491814Y433582D01*
X491710Y433575D01*
X491606Y433572D01*
X491501Y433573D01*
X491397Y433578D01*
X491292Y433587D01*
X491189Y433599D01*
X491086Y433616D01*
X490983Y433636D01*
X490881Y433660D01*
X490781Y433688D01*
X490681Y433720D01*
X490583Y433755D01*
X490486Y433794D01*
X490390Y433837D01*
X490296Y433883D01*
X490204Y433932D01*
X490114Y433985D01*
X490026Y434041D01*
X489940Y434101D01*
X489856Y434163D01*
X489775Y434229D01*
X489696Y434297D01*
X489620Y434369D01*
X489547Y434443D01*
X489476Y434520D01*
X489408Y434600D01*
X489343Y434682D01*
X489282Y434766D01*
X489223Y434853D01*
X489168Y434941D01*
X489116Y435032D01*
X489067Y435125D01*
X489022Y435219D01*
X488981Y435315D01*
X488943Y435412D01*
X488909Y435511D01*
X488878Y435611D01*
X488851Y435712D01*
X488828Y435814D01*
X488809Y435916D01*
X488794Y436020D01*
X488782Y436124D01*
X488774Y436228D01*
X488770Y436332D01*
X488771Y436437D01*
X488774Y436541D01*
X488782Y436645D01*
X488794Y436749D01*
X488809Y436853D01*
X488829Y436955D01*
X488852Y437057D01*
X488879Y437158D01*
X488910Y437258D01*
X488944Y437357D01*
X488982Y437454D01*
X489024Y437550D01*
X489069Y437644D01*
X489117Y437737D01*
X489169Y437827D01*
X489225Y437916D01*
X489283Y438002D01*
X489345Y438087D01*
X489410Y438169D01*
X489478Y438248D01*
X489549Y438325D01*
X489622Y438399D01*
X489699Y438471D01*
X489777Y438539D01*
X489859Y438605D01*
X489943Y438667D01*
X490029Y438726D01*
X490117Y438783D01*
X423883Y438784D02*
X423971Y438728D01*
X424057Y438669D01*
X424140Y438607D01*
X424221Y438542D01*
X424300Y438474D01*
X424376Y438403D01*
X424449Y438329D01*
X424519Y438253D01*
X424587Y438174D01*
X424652Y438092D01*
X424713Y438008D01*
X424772Y437922D01*
X424827Y437834D01*
X424879Y437744D01*
X424927Y437652D01*
X424972Y437559D01*
X425014Y437463D01*
X425052Y437367D01*
X425086Y437268D01*
X425117Y437169D01*
X425144Y437069D01*
X425167Y436967D01*
X425187Y436865D01*
X425202Y436762D01*
X425214Y436659D01*
X425222Y436555D01*
X425226Y436452D01*
X425227Y436348D01*
X425223Y436244D01*
X425216Y436140D01*
X425204Y436037D01*
X425189Y435934D01*
X425170Y435832D01*
X425148Y435730D01*
X425121Y435630D01*
X425091Y435530D01*
X425057Y435432D01*
X425020Y435335D01*
X424979Y435239D01*
X424934Y435145D01*
X424886Y435053D01*
X424835Y434963D01*
X424780Y434874D01*
X424722Y434788D01*
X424661Y434704D01*
X424597Y434622D01*
X424530Y434543D01*
X424459Y434466D01*
X424387Y434392D01*
X424311Y434321D01*
X424233Y434252D01*
X424152Y434187D01*
X424069Y434124D01*
X423984Y434065D01*
X423896Y434008D01*
X423807Y433956D01*
X423715Y433906D01*
X423622Y433860D01*
X423527Y433817D01*
X423431Y433778D01*
X423333Y433743D01*
X423234Y433711D01*
X423134Y433683D01*
X423033Y433658D01*
X422931Y433638D01*
X422829Y433621D01*
X422725Y433608D01*
X422622Y433599D01*
X422518Y433593D01*
X422414Y433592D01*
X422310Y433594D01*
X422206Y433601D01*
X422103Y433611D01*
X422000Y433625D01*
D16*
X457000Y571125D03*
D17*
X457000Y411375D03*
D15*
X482000Y542000D02*
X487000Y549500D01*
X482000Y542000D02*
X492000Y534500D01*
X498250Y540875D01*
X432000Y542000D02*
X427000Y549500D01*
X432000Y542000D02*
X422000Y534500D01*
X415750Y540875D01*
X472000Y532000D02*
X472000Y462000D01*
X442000Y462000D01*
X442000Y532000D01*
X447000Y532000D01*
X447000Y469500D01*
X454500Y469500D01*
X454500Y487000D01*
X459500Y487000D01*
X459500Y469500D01*
X467000Y469500D01*
X467000Y532000D01*
X472000Y532000D01*
D14*
X489699Y468454D02*
X489699Y465208D01*
X489700Y468454D02*
X489698Y468567D01*
X489692Y468680D01*
X489682Y468793D01*
X489668Y468906D01*
X489651Y469018D01*
X489629Y469129D01*
X489604Y469239D01*
X489574Y469349D01*
X489541Y469457D01*
X489504Y469564D01*
X489464Y469670D01*
X489419Y469774D01*
X489371Y469877D01*
X489320Y469978D01*
X489265Y470077D01*
X489207Y470174D01*
X489145Y470269D01*
X489080Y470362D01*
X489012Y470452D01*
X488941Y470540D01*
X488866Y470626D01*
X488789Y470709D01*
X488709Y470789D01*
X488626Y470866D01*
X488540Y470941D01*
X488452Y471012D01*
X488362Y471080D01*
X488269Y471145D01*
X488174Y471207D01*
X488077Y471265D01*
X487978Y471320D01*
X487877Y471371D01*
X487774Y471419D01*
X487670Y471464D01*
X487564Y471504D01*
X487457Y471541D01*
X487349Y471574D01*
X487239Y471604D01*
X487129Y471629D01*
X487018Y471651D01*
X486906Y471668D01*
X486793Y471682D01*
X486680Y471692D01*
X486567Y471698D01*
X486454Y471700D01*
X486341Y471698D01*
X486228Y471692D01*
X486115Y471682D01*
X486002Y471668D01*
X485890Y471651D01*
X485779Y471629D01*
X485669Y471604D01*
X485559Y471574D01*
X485451Y471541D01*
X485344Y471504D01*
X485238Y471464D01*
X485134Y471419D01*
X485031Y471371D01*
X484930Y471320D01*
X484831Y471265D01*
X484734Y471207D01*
X484639Y471145D01*
X484546Y471080D01*
X484456Y471012D01*
X484368Y470941D01*
X484282Y470866D01*
X484199Y470789D01*
X484119Y470709D01*
X484042Y470626D01*
X483967Y470540D01*
X483896Y470452D01*
X483828Y470362D01*
X483763Y470269D01*
X483701Y470174D01*
X483643Y470077D01*
X483588Y469978D01*
X483537Y469877D01*
X483489Y469774D01*
X483444Y469670D01*
X483404Y469564D01*
X483367Y469457D01*
X483334Y469349D01*
X483304Y469239D01*
X483279Y469129D01*
X483257Y469018D01*
X483240Y468906D01*
X483226Y468793D01*
X483216Y468680D01*
X483210Y468567D01*
X483208Y468454D01*
X483208Y465208D01*
X494892Y465208D01*
X494892Y468454D01*
X494890Y468555D01*
X494884Y468655D01*
X494874Y468755D01*
X494861Y468855D01*
X494843Y468954D01*
X494822Y469053D01*
X494797Y469150D01*
X494768Y469247D01*
X494735Y469342D01*
X494699Y469436D01*
X494659Y469528D01*
X494616Y469619D01*
X494569Y469708D01*
X494519Y469795D01*
X494465Y469881D01*
X494408Y469964D01*
X494348Y470044D01*
X494285Y470123D01*
X494218Y470199D01*
X494149Y470272D01*
X494077Y470342D01*
X494003Y470410D01*
X493926Y470475D01*
X493846Y470536D01*
X493764Y470595D01*
X493680Y470650D01*
X493594Y470702D01*
X493506Y470751D01*
X493416Y470796D01*
X493324Y470838D01*
X493231Y470876D01*
X493136Y470910D01*
X493041Y470941D01*
X492944Y470968D01*
X492846Y470991D01*
X492747Y471011D01*
X492647Y471026D01*
X492547Y471038D01*
X492447Y471046D01*
X492346Y471050D01*
X492246Y471050D01*
X492145Y471046D01*
X492045Y471038D01*
X491945Y471026D01*
X491845Y471011D01*
X491746Y470991D01*
X491648Y470968D01*
X491551Y470941D01*
X491456Y470910D01*
X491361Y470876D01*
X491268Y470838D01*
X491176Y470796D01*
X491086Y470751D01*
X490998Y470702D01*
X490912Y470650D01*
X490828Y470595D01*
X490746Y470536D01*
X490666Y470475D01*
X490589Y470410D01*
X490515Y470342D01*
X490443Y470272D01*
X490374Y470199D01*
X490307Y470123D01*
X490244Y470044D01*
X490184Y469964D01*
X490127Y469881D01*
X490073Y469795D01*
X490023Y469708D01*
X489976Y469619D01*
X489933Y469528D01*
X489893Y469436D01*
X489857Y469342D01*
X489824Y469247D01*
X489795Y469150D01*
X489770Y469053D01*
X489749Y468954D01*
X489731Y468855D01*
X489718Y468755D01*
X489708Y468655D01*
X489702Y468555D01*
X489700Y468454D01*
X483208Y475439D02*
X494892Y479333D01*
X483208Y483228D01*
X486129Y482254D02*
X486129Y476412D01*
X483208Y490001D02*
X494892Y490001D01*
X494892Y486756D02*
X494892Y493247D01*
X494892Y500994D02*
X494890Y501101D01*
X494884Y501207D01*
X494874Y501313D01*
X494861Y501419D01*
X494843Y501525D01*
X494822Y501629D01*
X494797Y501733D01*
X494768Y501836D01*
X494736Y501937D01*
X494699Y502037D01*
X494659Y502136D01*
X494616Y502234D01*
X494569Y502330D01*
X494518Y502424D01*
X494464Y502516D01*
X494407Y502606D01*
X494347Y502694D01*
X494283Y502779D01*
X494216Y502862D01*
X494146Y502943D01*
X494074Y503021D01*
X493998Y503097D01*
X493920Y503169D01*
X493839Y503239D01*
X493756Y503306D01*
X493671Y503370D01*
X493583Y503430D01*
X493493Y503487D01*
X493401Y503541D01*
X493307Y503592D01*
X493211Y503639D01*
X493113Y503682D01*
X493014Y503722D01*
X492914Y503759D01*
X492813Y503791D01*
X492710Y503820D01*
X492606Y503845D01*
X492502Y503866D01*
X492396Y503884D01*
X492290Y503897D01*
X492184Y503907D01*
X492078Y503913D01*
X491971Y503915D01*
X494892Y500994D02*
X494890Y500873D01*
X494884Y500752D01*
X494874Y500632D01*
X494861Y500511D01*
X494843Y500392D01*
X494822Y500272D01*
X494797Y500154D01*
X494768Y500037D01*
X494735Y499920D01*
X494699Y499805D01*
X494658Y499691D01*
X494615Y499578D01*
X494567Y499466D01*
X494516Y499357D01*
X494461Y499249D01*
X494403Y499142D01*
X494342Y499038D01*
X494277Y498936D01*
X494209Y498836D01*
X494138Y498738D01*
X494064Y498642D01*
X493987Y498549D01*
X493906Y498459D01*
X493823Y498371D01*
X493737Y498286D01*
X493648Y498203D01*
X493557Y498124D01*
X493463Y498047D01*
X493367Y497974D01*
X493269Y497904D01*
X493168Y497837D01*
X493065Y497773D01*
X492960Y497713D01*
X492853Y497656D01*
X492745Y497602D01*
X492635Y497552D01*
X492523Y497506D01*
X492410Y497463D01*
X492295Y497424D01*
X489699Y502941D02*
X489776Y503020D01*
X489857Y503096D01*
X489940Y503169D01*
X490025Y503239D01*
X490113Y503306D01*
X490203Y503370D01*
X490295Y503430D01*
X490390Y503487D01*
X490486Y503541D01*
X490584Y503592D01*
X490684Y503639D01*
X490786Y503683D01*
X490889Y503723D01*
X490993Y503759D01*
X491099Y503791D01*
X491205Y503820D01*
X491313Y503845D01*
X491421Y503867D01*
X491531Y503884D01*
X491640Y503898D01*
X491750Y503907D01*
X491861Y503913D01*
X491971Y503915D01*
X489699Y502941D02*
X483208Y497424D01*
X483208Y503915D01*
X422508Y465954D02*
X422508Y462708D01*
X422508Y465954D02*
X422510Y466067D01*
X422516Y466180D01*
X422526Y466293D01*
X422540Y466406D01*
X422557Y466518D01*
X422579Y466629D01*
X422604Y466739D01*
X422634Y466849D01*
X422667Y466957D01*
X422704Y467064D01*
X422744Y467170D01*
X422789Y467274D01*
X422837Y467377D01*
X422888Y467478D01*
X422943Y467577D01*
X423001Y467674D01*
X423063Y467769D01*
X423128Y467862D01*
X423196Y467952D01*
X423267Y468040D01*
X423342Y468126D01*
X423419Y468209D01*
X423499Y468289D01*
X423582Y468366D01*
X423668Y468441D01*
X423756Y468512D01*
X423846Y468580D01*
X423939Y468645D01*
X424034Y468707D01*
X424131Y468765D01*
X424230Y468820D01*
X424331Y468871D01*
X424434Y468919D01*
X424538Y468964D01*
X424644Y469004D01*
X424751Y469041D01*
X424859Y469074D01*
X424969Y469104D01*
X425079Y469129D01*
X425190Y469151D01*
X425302Y469168D01*
X425415Y469182D01*
X425528Y469192D01*
X425641Y469198D01*
X425754Y469200D01*
X425867Y469198D01*
X425980Y469192D01*
X426093Y469182D01*
X426206Y469168D01*
X426318Y469151D01*
X426429Y469129D01*
X426539Y469104D01*
X426649Y469074D01*
X426757Y469041D01*
X426864Y469004D01*
X426970Y468964D01*
X427074Y468919D01*
X427177Y468871D01*
X427278Y468820D01*
X427377Y468765D01*
X427474Y468707D01*
X427569Y468645D01*
X427662Y468580D01*
X427752Y468512D01*
X427840Y468441D01*
X427926Y468366D01*
X428009Y468289D01*
X428089Y468209D01*
X428166Y468126D01*
X428241Y468040D01*
X428312Y467952D01*
X428380Y467862D01*
X428445Y467769D01*
X428507Y467674D01*
X428565Y467577D01*
X428620Y467478D01*
X428671Y467377D01*
X428719Y467274D01*
X428764Y467170D01*
X428804Y467064D01*
X428841Y466957D01*
X428874Y466849D01*
X428904Y466739D01*
X428929Y466629D01*
X428951Y466518D01*
X428968Y466406D01*
X428982Y466293D01*
X428992Y466180D01*
X428998Y466067D01*
X429000Y465954D01*
X434192Y466603D02*
X434192Y462708D01*
X434192Y466603D02*
X434190Y466704D01*
X434184Y466804D01*
X434174Y466904D01*
X434161Y467004D01*
X434143Y467103D01*
X434122Y467202D01*
X434097Y467299D01*
X434068Y467396D01*
X434035Y467491D01*
X433999Y467585D01*
X433959Y467677D01*
X433916Y467768D01*
X433869Y467857D01*
X433819Y467944D01*
X433765Y468030D01*
X433708Y468113D01*
X433648Y468193D01*
X433585Y468272D01*
X433518Y468348D01*
X433449Y468421D01*
X433377Y468491D01*
X433303Y468559D01*
X433226Y468624D01*
X433146Y468685D01*
X433064Y468744D01*
X432980Y468799D01*
X432894Y468851D01*
X432806Y468900D01*
X432716Y468945D01*
X432624Y468987D01*
X432531Y469025D01*
X432436Y469059D01*
X432341Y469090D01*
X432244Y469117D01*
X432146Y469140D01*
X432047Y469160D01*
X431947Y469175D01*
X431847Y469187D01*
X431747Y469195D01*
X431646Y469199D01*
X431546Y469199D01*
X431445Y469195D01*
X431345Y469187D01*
X431245Y469175D01*
X431145Y469160D01*
X431046Y469140D01*
X430948Y469117D01*
X430851Y469090D01*
X430756Y469059D01*
X430661Y469025D01*
X430568Y468987D01*
X430476Y468945D01*
X430386Y468900D01*
X430298Y468851D01*
X430212Y468799D01*
X430128Y468744D01*
X430046Y468685D01*
X429966Y468624D01*
X429889Y468559D01*
X429815Y468491D01*
X429743Y468421D01*
X429674Y468348D01*
X429607Y468272D01*
X429544Y468193D01*
X429484Y468113D01*
X429427Y468030D01*
X429373Y467944D01*
X429323Y467857D01*
X429276Y467768D01*
X429233Y467677D01*
X429193Y467585D01*
X429157Y467491D01*
X429124Y467396D01*
X429095Y467299D01*
X429070Y467202D01*
X429049Y467103D01*
X429031Y467004D01*
X429018Y466904D01*
X429008Y466804D01*
X429002Y466704D01*
X429000Y466603D01*
X428999Y466603D02*
X428999Y464006D01*
X434192Y473489D02*
X422508Y477384D01*
X434192Y481278D01*
D18*
X245650Y299100D02*
X245650Y290900D01*
X258350Y290900D02*
X258350Y299100D01*
D19*
X242170Y314730D02*
X242170Y275270D01*
X261830Y275270D01*
X261830Y314730D01*
X242170Y314730D01*
D20*
X251985Y287686D03*
X251985Y302418D03*
D14*
X235892Y262995D02*
X224208Y262995D01*
X235892Y262995D02*
X235892Y266240D01*
X235890Y266353D01*
X235884Y266466D01*
X235874Y266579D01*
X235860Y266692D01*
X235843Y266804D01*
X235821Y266915D01*
X235796Y267025D01*
X235766Y267135D01*
X235733Y267243D01*
X235696Y267350D01*
X235656Y267456D01*
X235611Y267560D01*
X235563Y267663D01*
X235512Y267764D01*
X235457Y267863D01*
X235399Y267960D01*
X235337Y268055D01*
X235272Y268148D01*
X235204Y268238D01*
X235133Y268326D01*
X235058Y268412D01*
X234981Y268495D01*
X234901Y268575D01*
X234818Y268652D01*
X234732Y268727D01*
X234644Y268798D01*
X234554Y268866D01*
X234461Y268931D01*
X234366Y268993D01*
X234269Y269051D01*
X234170Y269106D01*
X234069Y269157D01*
X233966Y269205D01*
X233862Y269250D01*
X233756Y269290D01*
X233649Y269327D01*
X233541Y269360D01*
X233431Y269390D01*
X233321Y269415D01*
X233210Y269437D01*
X233098Y269454D01*
X232985Y269468D01*
X232872Y269478D01*
X232759Y269484D01*
X232646Y269486D01*
X232533Y269484D01*
X232420Y269478D01*
X232307Y269468D01*
X232194Y269454D01*
X232082Y269437D01*
X231971Y269415D01*
X231861Y269390D01*
X231751Y269360D01*
X231643Y269327D01*
X231536Y269290D01*
X231430Y269250D01*
X231326Y269205D01*
X231223Y269157D01*
X231122Y269106D01*
X231023Y269051D01*
X230926Y268993D01*
X230831Y268931D01*
X230738Y268866D01*
X230648Y268798D01*
X230560Y268727D01*
X230474Y268652D01*
X230391Y268575D01*
X230311Y268495D01*
X230234Y268412D01*
X230159Y268326D01*
X230088Y268238D01*
X230020Y268148D01*
X229955Y268055D01*
X229893Y267960D01*
X229835Y267863D01*
X229780Y267764D01*
X229729Y267663D01*
X229681Y267560D01*
X229636Y267456D01*
X229596Y267350D01*
X229559Y267243D01*
X229526Y267135D01*
X229496Y267025D01*
X229471Y266915D01*
X229449Y266804D01*
X229432Y266692D01*
X229418Y266579D01*
X229408Y266466D01*
X229402Y266353D01*
X229400Y266240D01*
X229401Y266240D02*
X229401Y262995D01*
X229401Y266889D02*
X224208Y269486D01*
X224208Y274351D02*
X224208Y278246D01*
X224210Y278345D01*
X224216Y278445D01*
X224225Y278544D01*
X224238Y278642D01*
X224255Y278740D01*
X224276Y278838D01*
X224301Y278934D01*
X224329Y279029D01*
X224361Y279123D01*
X224396Y279216D01*
X224435Y279308D01*
X224478Y279398D01*
X224523Y279486D01*
X224573Y279573D01*
X224625Y279657D01*
X224681Y279740D01*
X224739Y279820D01*
X224801Y279898D01*
X224866Y279973D01*
X224934Y280046D01*
X225004Y280116D01*
X225077Y280184D01*
X225152Y280249D01*
X225230Y280311D01*
X225310Y280369D01*
X225393Y280425D01*
X225477Y280477D01*
X225564Y280527D01*
X225652Y280572D01*
X225742Y280615D01*
X225834Y280654D01*
X225927Y280689D01*
X226021Y280721D01*
X226116Y280749D01*
X226212Y280774D01*
X226310Y280795D01*
X226408Y280812D01*
X226506Y280825D01*
X226605Y280834D01*
X226705Y280840D01*
X226804Y280842D01*
X228103Y280842D01*
X228202Y280840D01*
X228302Y280834D01*
X228401Y280825D01*
X228499Y280812D01*
X228597Y280795D01*
X228695Y280774D01*
X228791Y280749D01*
X228886Y280721D01*
X228980Y280689D01*
X229073Y280654D01*
X229165Y280615D01*
X229255Y280572D01*
X229343Y280527D01*
X229430Y280477D01*
X229514Y280425D01*
X229597Y280369D01*
X229677Y280311D01*
X229755Y280249D01*
X229830Y280184D01*
X229903Y280116D01*
X229973Y280046D01*
X230041Y279973D01*
X230106Y279898D01*
X230168Y279820D01*
X230226Y279740D01*
X230282Y279657D01*
X230334Y279573D01*
X230384Y279486D01*
X230429Y279398D01*
X230472Y279308D01*
X230511Y279216D01*
X230546Y279123D01*
X230578Y279029D01*
X230606Y278934D01*
X230631Y278838D01*
X230652Y278740D01*
X230669Y278642D01*
X230682Y278544D01*
X230691Y278445D01*
X230697Y278345D01*
X230699Y278246D01*
X230699Y274351D01*
X235892Y274351D01*
X235892Y280842D01*
X232596Y285986D02*
X235192Y289231D01*
X223508Y289231D01*
X223508Y285986D02*
X223508Y292477D01*
X229350Y297416D02*
X229580Y297419D01*
X229810Y297427D01*
X230039Y297441D01*
X230268Y297460D01*
X230497Y297485D01*
X230724Y297515D01*
X230952Y297550D01*
X231178Y297591D01*
X231403Y297637D01*
X231627Y297689D01*
X231849Y297746D01*
X232071Y297808D01*
X232290Y297876D01*
X232508Y297949D01*
X232725Y298027D01*
X232939Y298110D01*
X233151Y298198D01*
X233361Y298291D01*
X233569Y298390D01*
X233569Y298389D02*
X233659Y298422D01*
X233748Y298458D01*
X233836Y298498D01*
X233921Y298542D01*
X234005Y298589D01*
X234087Y298639D01*
X234167Y298693D01*
X234244Y298749D01*
X234320Y298809D01*
X234393Y298872D01*
X234463Y298937D01*
X234531Y299006D01*
X234595Y299077D01*
X234657Y299150D01*
X234716Y299226D01*
X234772Y299304D01*
X234825Y299385D01*
X234874Y299467D01*
X234920Y299551D01*
X234963Y299638D01*
X235002Y299725D01*
X235038Y299815D01*
X235070Y299905D01*
X235098Y299997D01*
X235123Y300090D01*
X235144Y300184D01*
X235161Y300278D01*
X235175Y300373D01*
X235184Y300469D01*
X235190Y300565D01*
X235192Y300661D01*
X235190Y300757D01*
X235184Y300853D01*
X235175Y300949D01*
X235161Y301044D01*
X235144Y301138D01*
X235123Y301232D01*
X235098Y301325D01*
X235070Y301417D01*
X235038Y301507D01*
X235002Y301597D01*
X234963Y301684D01*
X234920Y301771D01*
X234874Y301855D01*
X234825Y301937D01*
X234772Y302018D01*
X234716Y302096D01*
X234657Y302172D01*
X234595Y302245D01*
X234531Y302316D01*
X234463Y302385D01*
X234393Y302450D01*
X234320Y302513D01*
X234244Y302573D01*
X234167Y302629D01*
X234087Y302683D01*
X234005Y302733D01*
X233921Y302780D01*
X233836Y302824D01*
X233748Y302864D01*
X233659Y302900D01*
X233569Y302933D01*
X233362Y303032D01*
X233152Y303125D01*
X232939Y303213D01*
X232725Y303296D01*
X232509Y303374D01*
X232291Y303447D01*
X232071Y303515D01*
X231850Y303577D01*
X231627Y303634D01*
X231403Y303686D01*
X231178Y303732D01*
X230952Y303773D01*
X230725Y303808D01*
X230497Y303838D01*
X230268Y303863D01*
X230039Y303882D01*
X229810Y303896D01*
X229580Y303904D01*
X229350Y303907D01*
X229350Y297415D02*
X229120Y297418D01*
X228890Y297426D01*
X228661Y297440D01*
X228432Y297459D01*
X228203Y297484D01*
X227975Y297514D01*
X227748Y297549D01*
X227522Y297590D01*
X227297Y297636D01*
X227073Y297688D01*
X226850Y297745D01*
X226629Y297807D01*
X226409Y297875D01*
X226191Y297948D01*
X225975Y298026D01*
X225761Y298109D01*
X225549Y298197D01*
X225338Y298290D01*
X225131Y298389D01*
X225041Y298422D01*
X224952Y298458D01*
X224864Y298499D01*
X224779Y298542D01*
X224695Y298589D01*
X224613Y298639D01*
X224533Y298693D01*
X224456Y298749D01*
X224380Y298809D01*
X224307Y298872D01*
X224237Y298937D01*
X224169Y299006D01*
X224105Y299077D01*
X224043Y299150D01*
X223984Y299226D01*
X223928Y299304D01*
X223875Y299385D01*
X223826Y299467D01*
X223780Y299551D01*
X223737Y299638D01*
X223698Y299725D01*
X223662Y299815D01*
X223630Y299905D01*
X223602Y299997D01*
X223577Y300090D01*
X223556Y300184D01*
X223539Y300278D01*
X223525Y300373D01*
X223516Y300469D01*
X223510Y300565D01*
X223508Y300661D01*
X225131Y302933D02*
X225338Y303032D01*
X225549Y303125D01*
X225761Y303213D01*
X225975Y303296D01*
X226191Y303374D01*
X226409Y303447D01*
X226629Y303515D01*
X226850Y303577D01*
X227073Y303634D01*
X227297Y303686D01*
X227522Y303732D01*
X227748Y303773D01*
X227975Y303808D01*
X228203Y303838D01*
X228432Y303863D01*
X228661Y303882D01*
X228890Y303896D01*
X229120Y303904D01*
X229350Y303907D01*
X225131Y302933D02*
X225041Y302900D01*
X224952Y302864D01*
X224864Y302824D01*
X224779Y302780D01*
X224695Y302733D01*
X224613Y302683D01*
X224533Y302629D01*
X224456Y302573D01*
X224380Y302513D01*
X224307Y302450D01*
X224237Y302385D01*
X224169Y302316D01*
X224105Y302245D01*
X224043Y302172D01*
X223984Y302096D01*
X223928Y302018D01*
X223875Y301937D01*
X223826Y301855D01*
X223780Y301771D01*
X223737Y301684D01*
X223698Y301597D01*
X223662Y301507D01*
X223630Y301417D01*
X223602Y301325D01*
X223577Y301232D01*
X223556Y301138D01*
X223539Y301044D01*
X223525Y300949D01*
X223516Y300853D01*
X223510Y300757D01*
X223508Y300661D01*
X226104Y298065D02*
X232596Y303258D01*
X235192Y309249D02*
X223508Y309249D01*
X227403Y309249D02*
X231297Y314442D01*
X229025Y311521D02*
X223508Y314442D01*
D18*
X292650Y299100D02*
X292650Y290900D01*
X305350Y290900D02*
X305350Y299100D01*
D19*
X289170Y314730D02*
X289170Y275270D01*
X308830Y275270D01*
X308830Y314730D01*
X289170Y314730D01*
D20*
X298985Y287686D03*
X298985Y302418D03*
D14*
X312108Y302995D02*
X323792Y302995D01*
X323792Y306240D01*
X323790Y306353D01*
X323784Y306466D01*
X323774Y306579D01*
X323760Y306692D01*
X323743Y306804D01*
X323721Y306915D01*
X323696Y307025D01*
X323666Y307135D01*
X323633Y307243D01*
X323596Y307350D01*
X323556Y307456D01*
X323511Y307560D01*
X323463Y307663D01*
X323412Y307764D01*
X323357Y307863D01*
X323299Y307960D01*
X323237Y308055D01*
X323172Y308148D01*
X323104Y308238D01*
X323033Y308326D01*
X322958Y308412D01*
X322881Y308495D01*
X322801Y308575D01*
X322718Y308652D01*
X322632Y308727D01*
X322544Y308798D01*
X322454Y308866D01*
X322361Y308931D01*
X322266Y308993D01*
X322169Y309051D01*
X322070Y309106D01*
X321969Y309157D01*
X321866Y309205D01*
X321762Y309250D01*
X321656Y309290D01*
X321549Y309327D01*
X321441Y309360D01*
X321331Y309390D01*
X321221Y309415D01*
X321110Y309437D01*
X320998Y309454D01*
X320885Y309468D01*
X320772Y309478D01*
X320659Y309484D01*
X320546Y309486D01*
X320433Y309484D01*
X320320Y309478D01*
X320207Y309468D01*
X320094Y309454D01*
X319982Y309437D01*
X319871Y309415D01*
X319761Y309390D01*
X319651Y309360D01*
X319543Y309327D01*
X319436Y309290D01*
X319330Y309250D01*
X319226Y309205D01*
X319123Y309157D01*
X319022Y309106D01*
X318923Y309051D01*
X318826Y308993D01*
X318731Y308931D01*
X318638Y308866D01*
X318548Y308798D01*
X318460Y308727D01*
X318374Y308652D01*
X318291Y308575D01*
X318211Y308495D01*
X318134Y308412D01*
X318059Y308326D01*
X317988Y308238D01*
X317920Y308148D01*
X317855Y308055D01*
X317793Y307960D01*
X317735Y307863D01*
X317680Y307764D01*
X317629Y307663D01*
X317581Y307560D01*
X317536Y307456D01*
X317496Y307350D01*
X317459Y307243D01*
X317426Y307135D01*
X317396Y307025D01*
X317371Y306915D01*
X317349Y306804D01*
X317332Y306692D01*
X317318Y306579D01*
X317308Y306466D01*
X317302Y306353D01*
X317300Y306240D01*
X317301Y306240D02*
X317301Y302995D01*
X317301Y306889D02*
X312108Y309486D01*
X322494Y314351D02*
X323792Y314351D01*
X323792Y320842D01*
X312108Y317596D01*
X321892Y263631D02*
X319296Y260386D01*
X321892Y263631D02*
X310208Y263631D01*
X310208Y260386D02*
X310208Y266877D01*
X316050Y271816D02*
X316280Y271819D01*
X316510Y271827D01*
X316739Y271841D01*
X316968Y271860D01*
X317197Y271885D01*
X317424Y271915D01*
X317652Y271950D01*
X317878Y271991D01*
X318103Y272037D01*
X318327Y272089D01*
X318549Y272146D01*
X318771Y272208D01*
X318990Y272276D01*
X319208Y272349D01*
X319425Y272427D01*
X319639Y272510D01*
X319851Y272598D01*
X320061Y272691D01*
X320269Y272790D01*
X320269Y272789D02*
X320359Y272822D01*
X320448Y272858D01*
X320536Y272898D01*
X320621Y272942D01*
X320705Y272989D01*
X320787Y273039D01*
X320867Y273093D01*
X320944Y273149D01*
X321020Y273209D01*
X321093Y273272D01*
X321163Y273337D01*
X321231Y273406D01*
X321295Y273477D01*
X321357Y273550D01*
X321416Y273626D01*
X321472Y273704D01*
X321525Y273785D01*
X321574Y273867D01*
X321620Y273951D01*
X321663Y274038D01*
X321702Y274125D01*
X321738Y274215D01*
X321770Y274305D01*
X321798Y274397D01*
X321823Y274490D01*
X321844Y274584D01*
X321861Y274678D01*
X321875Y274773D01*
X321884Y274869D01*
X321890Y274965D01*
X321892Y275061D01*
X321890Y275157D01*
X321884Y275253D01*
X321875Y275349D01*
X321861Y275444D01*
X321844Y275538D01*
X321823Y275632D01*
X321798Y275725D01*
X321770Y275817D01*
X321738Y275907D01*
X321702Y275997D01*
X321663Y276084D01*
X321620Y276171D01*
X321574Y276255D01*
X321525Y276337D01*
X321472Y276418D01*
X321416Y276496D01*
X321357Y276572D01*
X321295Y276645D01*
X321231Y276716D01*
X321163Y276785D01*
X321093Y276850D01*
X321020Y276913D01*
X320944Y276973D01*
X320867Y277029D01*
X320787Y277083D01*
X320705Y277133D01*
X320621Y277180D01*
X320536Y277224D01*
X320448Y277264D01*
X320359Y277300D01*
X320269Y277333D01*
X320062Y277432D01*
X319852Y277525D01*
X319639Y277613D01*
X319425Y277696D01*
X319209Y277774D01*
X318991Y277847D01*
X318771Y277915D01*
X318550Y277977D01*
X318327Y278034D01*
X318103Y278086D01*
X317878Y278132D01*
X317652Y278173D01*
X317425Y278208D01*
X317197Y278238D01*
X316968Y278263D01*
X316739Y278282D01*
X316510Y278296D01*
X316280Y278304D01*
X316050Y278307D01*
X316050Y271815D02*
X315820Y271818D01*
X315590Y271826D01*
X315361Y271840D01*
X315132Y271859D01*
X314903Y271884D01*
X314675Y271914D01*
X314448Y271949D01*
X314222Y271990D01*
X313997Y272036D01*
X313773Y272088D01*
X313550Y272145D01*
X313329Y272207D01*
X313109Y272275D01*
X312891Y272348D01*
X312675Y272426D01*
X312461Y272509D01*
X312249Y272597D01*
X312038Y272690D01*
X311831Y272789D01*
X311741Y272822D01*
X311652Y272858D01*
X311564Y272899D01*
X311479Y272942D01*
X311395Y272989D01*
X311313Y273039D01*
X311233Y273093D01*
X311156Y273149D01*
X311080Y273209D01*
X311007Y273272D01*
X310937Y273337D01*
X310869Y273406D01*
X310805Y273477D01*
X310743Y273550D01*
X310684Y273626D01*
X310628Y273704D01*
X310575Y273785D01*
X310526Y273867D01*
X310480Y273951D01*
X310437Y274038D01*
X310398Y274125D01*
X310362Y274215D01*
X310330Y274305D01*
X310302Y274397D01*
X310277Y274490D01*
X310256Y274584D01*
X310239Y274678D01*
X310225Y274773D01*
X310216Y274869D01*
X310210Y274965D01*
X310208Y275061D01*
X311831Y277333D02*
X312038Y277432D01*
X312249Y277525D01*
X312461Y277613D01*
X312675Y277696D01*
X312891Y277774D01*
X313109Y277847D01*
X313329Y277915D01*
X313550Y277977D01*
X313773Y278034D01*
X313997Y278086D01*
X314222Y278132D01*
X314448Y278173D01*
X314675Y278208D01*
X314903Y278238D01*
X315132Y278263D01*
X315361Y278282D01*
X315590Y278296D01*
X315820Y278304D01*
X316050Y278307D01*
X311831Y277333D02*
X311741Y277300D01*
X311652Y277264D01*
X311564Y277224D01*
X311479Y277180D01*
X311395Y277133D01*
X311313Y277083D01*
X311233Y277029D01*
X311156Y276973D01*
X311080Y276913D01*
X311007Y276850D01*
X310937Y276785D01*
X310869Y276716D01*
X310805Y276645D01*
X310743Y276572D01*
X310684Y276496D01*
X310628Y276418D01*
X310575Y276337D01*
X310526Y276255D01*
X310480Y276171D01*
X310437Y276084D01*
X310398Y275997D01*
X310362Y275907D01*
X310330Y275817D01*
X310302Y275725D01*
X310277Y275632D01*
X310256Y275538D01*
X310239Y275444D01*
X310225Y275349D01*
X310216Y275253D01*
X310210Y275157D01*
X310208Y275061D01*
X312804Y272465D02*
X319296Y277658D01*
X321892Y283649D02*
X310208Y283649D01*
X314103Y283649D02*
X317997Y288842D01*
X315725Y285921D02*
X310208Y288842D01*
X269800Y284750D02*
X269800Y266250D01*
X281800Y266250D02*
X281800Y284750D01*
D21*
X275800Y283000D03*
X275800Y268000D03*
D22*
X257271Y266429D02*
X257271Y264341D01*
X257273Y264252D01*
X257279Y264164D01*
X257288Y264076D01*
X257301Y263988D01*
X257318Y263901D01*
X257338Y263815D01*
X257363Y263730D01*
X257390Y263645D01*
X257422Y263562D01*
X257456Y263481D01*
X257495Y263401D01*
X257536Y263323D01*
X257581Y263246D01*
X257629Y263172D01*
X257680Y263099D01*
X257734Y263029D01*
X257792Y262962D01*
X257852Y262896D01*
X257914Y262834D01*
X257980Y262774D01*
X258047Y262716D01*
X258117Y262662D01*
X258190Y262611D01*
X258264Y262563D01*
X258341Y262518D01*
X258419Y262477D01*
X258499Y262438D01*
X258580Y262404D01*
X258663Y262372D01*
X258748Y262345D01*
X258833Y262320D01*
X258919Y262300D01*
X259006Y262283D01*
X259094Y262270D01*
X259182Y262261D01*
X259270Y262255D01*
X259359Y262253D01*
X259359Y262252D02*
X264581Y262252D01*
X264581Y262253D02*
X264672Y262255D01*
X264763Y262261D01*
X264854Y262271D01*
X264944Y262285D01*
X265033Y262302D01*
X265121Y262324D01*
X265209Y262350D01*
X265295Y262379D01*
X265380Y262412D01*
X265463Y262449D01*
X265545Y262489D01*
X265625Y262533D01*
X265703Y262580D01*
X265779Y262631D01*
X265852Y262684D01*
X265923Y262741D01*
X265992Y262802D01*
X266057Y262865D01*
X266120Y262930D01*
X266180Y262999D01*
X266238Y263070D01*
X266291Y263143D01*
X266342Y263219D01*
X266389Y263297D01*
X266433Y263377D01*
X266473Y263459D01*
X266510Y263542D01*
X266543Y263627D01*
X266572Y263713D01*
X266598Y263801D01*
X266620Y263889D01*
X266637Y263978D01*
X266651Y264068D01*
X266661Y264159D01*
X266667Y264250D01*
X266669Y264341D01*
X266669Y266429D01*
X264581Y269898D02*
X266669Y272508D01*
X257271Y272508D01*
X257271Y269898D02*
X257271Y275119D01*
X289720Y258779D02*
X289905Y258781D01*
X290090Y258788D01*
X290274Y258799D01*
X290458Y258814D01*
X290642Y258834D01*
X290826Y258858D01*
X291008Y258887D01*
X291190Y258920D01*
X291371Y258957D01*
X291551Y258999D01*
X291731Y259045D01*
X291909Y259095D01*
X292085Y259149D01*
X292261Y259208D01*
X292435Y259270D01*
X292607Y259337D01*
X292778Y259408D01*
X292947Y259483D01*
X293114Y259562D01*
X293194Y259592D01*
X293273Y259625D01*
X293350Y259662D01*
X293426Y259702D01*
X293500Y259745D01*
X293572Y259791D01*
X293641Y259841D01*
X293709Y259893D01*
X293774Y259949D01*
X293837Y260007D01*
X293896Y260069D01*
X293954Y260132D01*
X294008Y260199D01*
X294059Y260267D01*
X294107Y260338D01*
X294152Y260411D01*
X294194Y260485D01*
X294232Y260562D01*
X294267Y260640D01*
X294299Y260719D01*
X294327Y260800D01*
X294351Y260882D01*
X294372Y260966D01*
X294389Y261049D01*
X294402Y261134D01*
X294411Y261219D01*
X294417Y261304D01*
X294419Y261390D01*
X294417Y261476D01*
X294411Y261561D01*
X294402Y261646D01*
X294389Y261731D01*
X294372Y261814D01*
X294351Y261898D01*
X294327Y261980D01*
X294299Y262061D01*
X294267Y262140D01*
X294232Y262218D01*
X294194Y262295D01*
X294152Y262369D01*
X294107Y262442D01*
X294059Y262513D01*
X294008Y262581D01*
X293954Y262648D01*
X293896Y262711D01*
X293837Y262773D01*
X293774Y262831D01*
X293709Y262887D01*
X293641Y262939D01*
X293572Y262989D01*
X293500Y263035D01*
X293426Y263078D01*
X293350Y263118D01*
X293273Y263155D01*
X293194Y263188D01*
X293114Y263218D01*
X292947Y263297D01*
X292778Y263372D01*
X292607Y263443D01*
X292435Y263510D01*
X292261Y263572D01*
X292085Y263631D01*
X291909Y263685D01*
X291731Y263735D01*
X291551Y263781D01*
X291371Y263823D01*
X291190Y263860D01*
X291008Y263893D01*
X290826Y263922D01*
X290642Y263946D01*
X290458Y263966D01*
X290274Y263981D01*
X290090Y263992D01*
X289905Y263999D01*
X289720Y264001D01*
X289720Y258779D02*
X289535Y258781D01*
X289350Y258788D01*
X289166Y258799D01*
X288982Y258814D01*
X288798Y258834D01*
X288614Y258858D01*
X288432Y258887D01*
X288250Y258920D01*
X288069Y258957D01*
X287889Y258999D01*
X287709Y259045D01*
X287531Y259095D01*
X287355Y259149D01*
X287179Y259208D01*
X287005Y259270D01*
X286833Y259337D01*
X286662Y259408D01*
X286493Y259483D01*
X286326Y259562D01*
X286246Y259592D01*
X286167Y259625D01*
X286090Y259662D01*
X286014Y259702D01*
X285940Y259745D01*
X285868Y259791D01*
X285799Y259841D01*
X285731Y259894D01*
X285666Y259949D01*
X285603Y260008D01*
X285544Y260069D01*
X285486Y260132D01*
X285432Y260199D01*
X285381Y260267D01*
X285333Y260338D01*
X285288Y260411D01*
X285246Y260485D01*
X285208Y260562D01*
X285173Y260640D01*
X285141Y260719D01*
X285113Y260800D01*
X285089Y260882D01*
X285068Y260966D01*
X285051Y261049D01*
X285038Y261134D01*
X285029Y261219D01*
X285023Y261304D01*
X285021Y261390D01*
X286326Y263218D02*
X286493Y263297D01*
X286662Y263372D01*
X286833Y263443D01*
X287005Y263510D01*
X287179Y263572D01*
X287355Y263631D01*
X287531Y263685D01*
X287709Y263735D01*
X287889Y263781D01*
X288069Y263823D01*
X288250Y263860D01*
X288432Y263893D01*
X288614Y263922D01*
X288798Y263946D01*
X288982Y263966D01*
X289166Y263981D01*
X289350Y263992D01*
X289535Y263999D01*
X289720Y264001D01*
X286326Y263218D02*
X286246Y263188D01*
X286167Y263155D01*
X286090Y263118D01*
X286014Y263078D01*
X285940Y263035D01*
X285868Y262989D01*
X285799Y262939D01*
X285731Y262887D01*
X285666Y262831D01*
X285603Y262773D01*
X285544Y262711D01*
X285486Y262648D01*
X285432Y262581D01*
X285381Y262513D01*
X285333Y262442D01*
X285288Y262369D01*
X285246Y262295D01*
X285208Y262218D01*
X285173Y262140D01*
X285141Y262061D01*
X285113Y261980D01*
X285089Y261898D01*
X285068Y261814D01*
X285051Y261731D01*
X285038Y261646D01*
X285029Y261561D01*
X285023Y261476D01*
X285021Y261390D01*
X287109Y259301D02*
X292331Y263478D01*
X285543Y267530D02*
X285021Y267530D01*
X285543Y267530D02*
X285543Y268052D01*
X285021Y268052D01*
X285021Y267530D01*
X292331Y271581D02*
X294419Y274191D01*
X285021Y274191D01*
X285021Y271581D02*
X285021Y276802D01*
X286587Y280942D02*
X291286Y280942D01*
X286587Y280942D02*
X286510Y280944D01*
X286434Y280950D01*
X286357Y280959D01*
X286281Y280972D01*
X286206Y280989D01*
X286132Y281009D01*
X286059Y281034D01*
X285988Y281061D01*
X285917Y281092D01*
X285849Y281127D01*
X285782Y281165D01*
X285717Y281206D01*
X285654Y281250D01*
X285594Y281297D01*
X285535Y281348D01*
X285480Y281401D01*
X285427Y281456D01*
X285376Y281515D01*
X285329Y281575D01*
X285285Y281638D01*
X285244Y281703D01*
X285206Y281770D01*
X285171Y281838D01*
X285140Y281909D01*
X285113Y281980D01*
X285088Y282053D01*
X285068Y282127D01*
X285051Y282202D01*
X285038Y282278D01*
X285029Y282355D01*
X285023Y282431D01*
X285021Y282508D01*
X285021Y285119D01*
X291286Y285119D01*
D18*
X263100Y479450D02*
X254900Y479450D01*
X254900Y466750D02*
X263100Y466750D01*
D19*
X278730Y482930D02*
X239270Y482930D01*
X239270Y463270D01*
X278730Y463270D01*
X278730Y482930D01*
D23*
X251686Y473115D03*
X266418Y473115D03*
D14*
X234492Y465795D02*
X222808Y465795D01*
X234492Y465795D02*
X234492Y469040D01*
X234490Y469153D01*
X234484Y469266D01*
X234474Y469379D01*
X234460Y469492D01*
X234443Y469604D01*
X234421Y469715D01*
X234396Y469825D01*
X234366Y469935D01*
X234333Y470043D01*
X234296Y470150D01*
X234256Y470256D01*
X234211Y470360D01*
X234163Y470463D01*
X234112Y470564D01*
X234057Y470663D01*
X233999Y470760D01*
X233937Y470855D01*
X233872Y470948D01*
X233804Y471038D01*
X233733Y471126D01*
X233658Y471212D01*
X233581Y471295D01*
X233501Y471375D01*
X233418Y471452D01*
X233332Y471527D01*
X233244Y471598D01*
X233154Y471666D01*
X233061Y471731D01*
X232966Y471793D01*
X232869Y471851D01*
X232770Y471906D01*
X232669Y471957D01*
X232566Y472005D01*
X232462Y472050D01*
X232356Y472090D01*
X232249Y472127D01*
X232141Y472160D01*
X232031Y472190D01*
X231921Y472215D01*
X231810Y472237D01*
X231698Y472254D01*
X231585Y472268D01*
X231472Y472278D01*
X231359Y472284D01*
X231246Y472286D01*
X231133Y472284D01*
X231020Y472278D01*
X230907Y472268D01*
X230794Y472254D01*
X230682Y472237D01*
X230571Y472215D01*
X230461Y472190D01*
X230351Y472160D01*
X230243Y472127D01*
X230136Y472090D01*
X230030Y472050D01*
X229926Y472005D01*
X229823Y471957D01*
X229722Y471906D01*
X229623Y471851D01*
X229526Y471793D01*
X229431Y471731D01*
X229338Y471666D01*
X229248Y471598D01*
X229160Y471527D01*
X229074Y471452D01*
X228991Y471375D01*
X228911Y471295D01*
X228834Y471212D01*
X228759Y471126D01*
X228688Y471038D01*
X228620Y470948D01*
X228555Y470855D01*
X228493Y470760D01*
X228435Y470663D01*
X228380Y470564D01*
X228329Y470463D01*
X228281Y470360D01*
X228236Y470256D01*
X228196Y470150D01*
X228159Y470043D01*
X228126Y469935D01*
X228096Y469825D01*
X228071Y469715D01*
X228049Y469604D01*
X228032Y469492D01*
X228018Y469379D01*
X228008Y469266D01*
X228002Y469153D01*
X228000Y469040D01*
X228001Y469040D02*
X228001Y465795D01*
X228001Y469689D02*
X222808Y472286D01*
X231896Y477151D02*
X234492Y480396D01*
X222808Y480396D01*
X222808Y477151D02*
X222808Y483642D01*
X284789Y497192D02*
X287385Y488104D01*
X280894Y488104D01*
X282841Y490701D02*
X282841Y485508D01*
X275552Y485508D02*
X275552Y497192D01*
X270359Y493297D02*
X275552Y489403D01*
X273280Y491025D02*
X270359Y485508D01*
X266049Y495894D02*
X266049Y497192D01*
X259558Y497192D01*
X262804Y485508D01*
D18*
X300900Y466750D02*
X309100Y466750D01*
X309100Y479450D02*
X300900Y479450D01*
D19*
X285270Y463270D02*
X324730Y463270D01*
X324730Y482930D01*
X285270Y482930D01*
X285270Y463270D01*
D23*
X312314Y473085D03*
X297582Y473085D03*
D14*
X330508Y460458D02*
X342192Y460458D01*
X342192Y463704D01*
X342190Y463817D01*
X342184Y463930D01*
X342174Y464043D01*
X342160Y464156D01*
X342143Y464268D01*
X342121Y464379D01*
X342096Y464489D01*
X342066Y464599D01*
X342033Y464707D01*
X341996Y464814D01*
X341956Y464920D01*
X341911Y465024D01*
X341863Y465127D01*
X341812Y465228D01*
X341757Y465327D01*
X341699Y465424D01*
X341637Y465519D01*
X341572Y465612D01*
X341504Y465702D01*
X341433Y465790D01*
X341358Y465876D01*
X341281Y465959D01*
X341201Y466039D01*
X341118Y466116D01*
X341032Y466191D01*
X340944Y466262D01*
X340854Y466330D01*
X340761Y466395D01*
X340666Y466457D01*
X340569Y466515D01*
X340470Y466570D01*
X340369Y466621D01*
X340266Y466669D01*
X340162Y466714D01*
X340056Y466754D01*
X339949Y466791D01*
X339841Y466824D01*
X339731Y466854D01*
X339621Y466879D01*
X339510Y466901D01*
X339398Y466918D01*
X339285Y466932D01*
X339172Y466942D01*
X339059Y466948D01*
X338946Y466950D01*
X338833Y466948D01*
X338720Y466942D01*
X338607Y466932D01*
X338494Y466918D01*
X338382Y466901D01*
X338271Y466879D01*
X338161Y466854D01*
X338051Y466824D01*
X337943Y466791D01*
X337836Y466754D01*
X337730Y466714D01*
X337626Y466669D01*
X337523Y466621D01*
X337422Y466570D01*
X337323Y466515D01*
X337226Y466457D01*
X337131Y466395D01*
X337038Y466330D01*
X336948Y466262D01*
X336860Y466191D01*
X336774Y466116D01*
X336691Y466039D01*
X336611Y465959D01*
X336534Y465876D01*
X336459Y465790D01*
X336388Y465702D01*
X336320Y465612D01*
X336255Y465519D01*
X336193Y465424D01*
X336135Y465327D01*
X336080Y465228D01*
X336029Y465127D01*
X335981Y465024D01*
X335936Y464920D01*
X335896Y464814D01*
X335859Y464707D01*
X335826Y464599D01*
X335796Y464489D01*
X335771Y464379D01*
X335749Y464268D01*
X335732Y464156D01*
X335718Y464043D01*
X335708Y463930D01*
X335702Y463817D01*
X335700Y463704D01*
X335701Y463704D02*
X335701Y460458D01*
X335701Y464353D02*
X330508Y466949D01*
X339271Y478305D02*
X339378Y478303D01*
X339484Y478297D01*
X339590Y478287D01*
X339696Y478274D01*
X339802Y478256D01*
X339906Y478235D01*
X340010Y478210D01*
X340113Y478181D01*
X340214Y478149D01*
X340314Y478112D01*
X340413Y478072D01*
X340511Y478029D01*
X340607Y477982D01*
X340701Y477931D01*
X340793Y477877D01*
X340883Y477820D01*
X340971Y477760D01*
X341056Y477696D01*
X341139Y477629D01*
X341220Y477559D01*
X341298Y477487D01*
X341374Y477411D01*
X341446Y477333D01*
X341516Y477252D01*
X341583Y477169D01*
X341647Y477084D01*
X341707Y476996D01*
X341764Y476906D01*
X341818Y476814D01*
X341869Y476720D01*
X341916Y476624D01*
X341959Y476526D01*
X341999Y476427D01*
X342036Y476327D01*
X342068Y476226D01*
X342097Y476123D01*
X342122Y476019D01*
X342143Y475915D01*
X342161Y475809D01*
X342174Y475703D01*
X342184Y475597D01*
X342190Y475491D01*
X342192Y475384D01*
X342190Y475263D01*
X342184Y475142D01*
X342174Y475022D01*
X342161Y474901D01*
X342143Y474782D01*
X342122Y474662D01*
X342097Y474544D01*
X342068Y474427D01*
X342035Y474310D01*
X341999Y474195D01*
X341958Y474081D01*
X341915Y473968D01*
X341867Y473856D01*
X341816Y473747D01*
X341761Y473639D01*
X341703Y473532D01*
X341642Y473428D01*
X341577Y473326D01*
X341509Y473226D01*
X341438Y473128D01*
X341364Y473032D01*
X341287Y472939D01*
X341206Y472849D01*
X341123Y472761D01*
X341037Y472676D01*
X340948Y472593D01*
X340857Y472514D01*
X340763Y472437D01*
X340667Y472364D01*
X340569Y472294D01*
X340468Y472227D01*
X340365Y472163D01*
X340260Y472103D01*
X340153Y472046D01*
X340045Y471992D01*
X339935Y471942D01*
X339823Y471896D01*
X339710Y471853D01*
X339595Y471814D01*
X336999Y477332D02*
X337076Y477411D01*
X337157Y477487D01*
X337240Y477560D01*
X337325Y477630D01*
X337413Y477697D01*
X337503Y477761D01*
X337595Y477821D01*
X337690Y477878D01*
X337786Y477932D01*
X337884Y477983D01*
X337984Y478030D01*
X338086Y478074D01*
X338189Y478114D01*
X338293Y478150D01*
X338399Y478182D01*
X338505Y478211D01*
X338613Y478236D01*
X338721Y478258D01*
X338831Y478275D01*
X338940Y478289D01*
X339050Y478298D01*
X339161Y478304D01*
X339271Y478306D01*
X336999Y477332D02*
X330508Y471814D01*
X330508Y478305D01*
X333385Y488104D02*
X330789Y497192D01*
X333385Y488104D02*
X326894Y488104D01*
X328841Y490701D02*
X328841Y485508D01*
X321552Y485508D02*
X321552Y497192D01*
X316359Y493297D02*
X321552Y489403D01*
X319280Y491025D02*
X316359Y485508D01*
X312049Y495894D02*
X312049Y497192D01*
X305558Y497192D01*
X308804Y485508D01*
M02*
