G04 EAGLE Gerber RS-274X export*
G75*
%MOMM*%
%FSLAX34Y34*%
%LPD*%
%INSoldermask Top*%
%IPPOS*%
%AMOC8*
5,1,8,0,0,1.08239X$1,22.5*%
G01*
%ADD10C,3.203200*%
%ADD11R,0.853200X2.003200*%
%ADD12R,1.503200X1.803200*%
%ADD13C,5.403200*%
%ADD14C,6.549200*%
%ADD15R,2.183200X2.183200*%
%ADD16C,2.183200*%
%ADD17P,1.649562X8X112.500000*%
%ADD18P,1.649562X8X292.500000*%
%ADD19R,1.703200X1.503200*%
%ADD20C,2.489200*%
%ADD21R,0.853200X1.703200*%
%ADD22R,1.203200X1.703200*%
%ADD23R,1.703200X1.203200*%
%ADD24R,6.203200X6.203200*%
%ADD25R,1.503200X1.703200*%
%ADD26R,2.203200X1.803200*%
%ADD27C,1.625600*%
%ADD28R,0.508000X1.193800*%
%ADD29R,1.511200X1.511200*%
%ADD30C,0.959600*%
%ADD31C,1.109600*%


D10*
X955800Y785900D03*
X955800Y44300D03*
X339300Y344800D03*
D11*
X355550Y172750D03*
X368250Y172750D03*
X380950Y172750D03*
X393650Y172750D03*
X406350Y172750D03*
X419050Y172750D03*
X431750Y172750D03*
X444450Y172750D03*
X444450Y267250D03*
X431750Y267250D03*
X419050Y267250D03*
X406350Y267250D03*
X393650Y267250D03*
X380950Y267250D03*
X368250Y267250D03*
X355550Y267250D03*
D12*
X393700Y298000D03*
X413700Y298000D03*
D13*
X85500Y40500D03*
X85500Y160400D03*
D14*
X85500Y100450D03*
D13*
X85600Y669400D03*
X85600Y789300D03*
D14*
X85600Y729350D03*
D13*
X834500Y160400D03*
X834500Y40500D03*
D14*
X834500Y100450D03*
D13*
X834400Y789300D03*
X834400Y669400D03*
D14*
X834400Y729350D03*
D15*
X275400Y527800D03*
D16*
X275400Y554800D03*
X275400Y581800D03*
D17*
X309500Y581700D03*
X309500Y607100D03*
D18*
X309500Y554700D03*
X309500Y529300D03*
D19*
X534600Y309500D03*
X534600Y328500D03*
X559800Y328500D03*
X559800Y309500D03*
X584900Y309500D03*
X584900Y328500D03*
X610100Y259500D03*
X610100Y240500D03*
X610100Y309500D03*
X610100Y290500D03*
D20*
X966520Y314540D03*
X966520Y381850D03*
X966520Y449150D03*
X966520Y516460D03*
X656510Y314540D03*
X656510Y381850D03*
X656510Y449150D03*
X656510Y516460D03*
D21*
X475950Y229000D03*
X488650Y229000D03*
X501350Y229000D03*
X514050Y229000D03*
X514050Y283000D03*
X501350Y283000D03*
X488650Y283000D03*
X475950Y283000D03*
D22*
X514300Y608500D03*
X501600Y608500D03*
X488900Y608500D03*
X476200Y608500D03*
X463500Y608500D03*
X450800Y608500D03*
X438100Y608500D03*
X425400Y608500D03*
D23*
X369900Y458700D03*
D22*
X387300Y423500D03*
X400000Y423500D03*
X412700Y423500D03*
X425400Y423500D03*
X438100Y423500D03*
X450800Y423500D03*
X463500Y423500D03*
D23*
X369900Y547600D03*
D22*
X412700Y608500D03*
X400000Y608500D03*
X387300Y608500D03*
D23*
X369900Y573000D03*
X369900Y560300D03*
D22*
X527000Y608500D03*
X539700Y608500D03*
X552400Y608500D03*
D23*
X369900Y534900D03*
X369900Y522200D03*
X369900Y509500D03*
X369900Y471400D03*
X369900Y484100D03*
X369900Y496800D03*
D22*
X476200Y423500D03*
X488900Y423500D03*
X501600Y423500D03*
X514300Y423500D03*
X527000Y423500D03*
X539700Y423500D03*
X552400Y423500D03*
D24*
X475400Y513000D03*
D25*
X539900Y738300D03*
X558900Y738300D03*
X539900Y676300D03*
X558900Y676300D03*
D26*
X443200Y707200D03*
X389200Y707200D03*
X443200Y769300D03*
X389200Y769300D03*
D25*
X520900Y707200D03*
X539900Y707200D03*
X520900Y769300D03*
X539900Y769300D03*
D19*
X351900Y605500D03*
X351900Y624500D03*
D27*
X252100Y452800D03*
X272100Y452800D03*
X292100Y452800D03*
X312100Y452800D03*
X565600Y368000D03*
X565600Y388000D03*
X332200Y416200D03*
X312200Y416200D03*
D28*
X514600Y379678D03*
X508100Y379678D03*
X501600Y379678D03*
X495100Y379678D03*
X488600Y379678D03*
X482100Y379678D03*
X475600Y379678D03*
X475600Y321322D03*
X482100Y321322D03*
X488600Y321322D03*
X495100Y321322D03*
X501600Y321322D03*
X508100Y321322D03*
X514600Y321322D03*
D29*
X154600Y245800D03*
X95600Y245800D03*
X34600Y581800D03*
X214600Y581800D03*
D27*
X340400Y514600D03*
X340400Y534600D03*
X340400Y554600D03*
X340400Y574600D03*
D30*
X514300Y406200D03*
X501600Y401200D03*
X536000Y265000D03*
X443000Y327000D03*
D31*
X461000Y229000D03*
X412700Y388400D03*
D30*
X364800Y423500D03*
X688100Y577900D03*
M02*
