G04 EAGLE Gerber RS-274X export*
G75*
%MOMM*%
%FSLAX34Y34*%
%LPD*%
%INSoldermask Bottom*%
%IPPOS*%
%AMOC8*
5,1,8,0,0,1.08239X$1,22.5*%
G01*
%ADD10C,3.203200*%
%ADD11C,5.403200*%
%ADD12C,6.549200*%
%ADD13R,2.183200X2.183200*%
%ADD14C,2.183200*%
%ADD15P,1.649562X8X112.500000*%
%ADD16P,1.649562X8X292.500000*%
%ADD17C,2.489200*%
%ADD18C,1.625600*%
%ADD19R,0.803200X2.403200*%
%ADD20R,2.503200X4.503200*%
%ADD21R,2.503200X3.863200*%
%ADD22R,1.703200X1.503200*%
%ADD23R,1.803200X1.503200*%
%ADD24R,1.511200X1.511200*%
%ADD25R,1.503200X1.703200*%
%ADD26C,0.959600*%
%ADD27C,1.109600*%


D10*
X955800Y785900D03*
X955800Y44300D03*
X339300Y344800D03*
D11*
X85500Y40500D03*
X85500Y160400D03*
D12*
X85500Y100450D03*
D11*
X85600Y669400D03*
X85600Y789300D03*
D12*
X85600Y729350D03*
D11*
X834500Y160400D03*
X834500Y40500D03*
D12*
X834500Y100450D03*
D11*
X834400Y789300D03*
X834400Y669400D03*
D12*
X834400Y729350D03*
D13*
X275400Y527800D03*
D14*
X275400Y554800D03*
X275400Y581800D03*
D15*
X309500Y581700D03*
X309500Y607100D03*
D16*
X309500Y554700D03*
X309500Y529300D03*
D17*
X966520Y314540D03*
X966520Y381850D03*
X966520Y449150D03*
X966520Y516460D03*
X656510Y314540D03*
X656510Y381850D03*
X656510Y449150D03*
X656510Y516460D03*
D18*
X252100Y452800D03*
X272100Y452800D03*
X292100Y452800D03*
X312100Y452800D03*
X565600Y368000D03*
X565600Y388000D03*
X332200Y416200D03*
X312200Y416200D03*
D19*
X275750Y337000D03*
X250350Y429000D03*
X288450Y337000D03*
X263050Y337000D03*
X250350Y337000D03*
X263050Y429000D03*
X237650Y429000D03*
X224950Y429000D03*
X224950Y337000D03*
X199550Y429000D03*
X237650Y337000D03*
X212250Y337000D03*
X212250Y429000D03*
X199550Y337000D03*
X275750Y429000D03*
X288450Y429000D03*
D20*
X457000Y573458D03*
D21*
X457000Y409045D03*
D22*
X252000Y304500D03*
X252000Y285500D03*
X299000Y304500D03*
X299000Y285500D03*
D23*
X275800Y285500D03*
X275800Y265500D03*
D24*
X154600Y245800D03*
X95600Y245800D03*
X34600Y581800D03*
X214600Y581800D03*
D25*
X268500Y473100D03*
X249500Y473100D03*
X295500Y473100D03*
X314500Y473100D03*
D18*
X340400Y514600D03*
X340400Y534600D03*
X340400Y554600D03*
X340400Y574600D03*
D26*
X514300Y406200D03*
X501600Y401200D03*
X536000Y265000D03*
X443000Y327000D03*
D27*
X461000Y229000D03*
X412700Y388400D03*
D26*
X364800Y423500D03*
X688100Y577900D03*
M02*
