M48
;GenerationSoftware,Autodesk,EAGLE,9.5.2*%
;CreationDate,2020-01-23T20:46:16Z*%
FMAT,2
ICI,OFF
METRIC,TZ,000.000
T9C0.350
T8C0.500
T7C0.800
T6C0.813
T5C1.320
T4C1.524
T3C3.000
T2C4.080
T1C5.330
%
G90
M71
T1
X8550Y10045
X8560Y72935
X83450Y10045
X83440Y72935
T2
X8550Y16040
X8550Y4050
X8560Y66940
X8560Y78930
X83450Y16040
X83450Y4050
X83440Y78930
X83440Y66940
T3
X95580Y78590
X95580Y4430
X33930Y34480
T4
X65651Y31454
X96652Y44915
X96652Y38185
X96652Y31454
X96652Y51646
X65651Y38185
X65651Y44915
X65651Y51646
T5
X27540Y52780
X27540Y55480
X27540Y58180
T6
X30950Y60710
X30950Y52930
X30950Y55470
X30950Y58170
T7
X9560Y24580
X25210Y45280
X27210Y45280
X29210Y45280
X31210Y45280
X56560Y36800
X56560Y38800
X33220Y41620
X31220Y41620
X15460Y24580
X3460Y58180
X21460Y58180
X34040Y51460
X34040Y53460
X34040Y55460
X34040Y57460
T8
X41270Y38840
X46100Y22900
T9
X44300Y32700
X51430Y40620
X53600Y26500
X50160Y40120
X36480Y42350
X68810Y57790
M30